<svg width="159" height="251" viewBox="0 0 159 251" fill="none" xmlns="http://www.w3.org/2000/svg">
<path d="M158.71 242.6H151.13V250.11H158.71V242.6Z" fill="black"/>
<path d="M158.71 235.01H151.13V242.6H158.71V235.01Z" fill="black"/>
<path d="M158.71 227.5H151.13V235.01H158.71V227.5Z" fill="black"/>
<path d="M158.71 219.91H151.13V227.5H158.71V219.91Z" fill="black"/>
<path d="M151.121 242.6H143.601V250.11H151.121V242.6Z" fill="black"/>
<path d="M151.121 235.01H143.601V242.6H151.121V235.01Z" fill="#EAD32D"/>
<path d="M151.121 227.5H143.601V235.01H151.121V227.5Z" fill="#EAD32D"/>
<path d="M151.121 219.91H143.601V227.5H151.121V219.91Z" fill="black"/>
<path d="M151.121 212.33H143.601V219.91H151.121V212.33Z" fill="black"/>
<path d="M151.121 204.8H143.601V212.32H151.121V204.8Z" fill="black"/>
<path d="M143.61 242.6H136.03V250.11H143.61V242.6Z" fill="black"/>
<path d="M143.61 235.01H136.03V242.6H143.61V235.01Z" fill="#FFEF56"/>
<path d="M143.61 227.5H136.03V235.01H143.61V227.5Z" fill="#EAD32D"/>
<path d="M143.61 219.91H136.03V227.5H143.61V219.91Z" fill="#EAD32D"/>
<path d="M143.61 212.33H136.03V219.91H143.61V212.33Z" fill="#EAD32D"/>
<path d="M143.61 204.8H136.03V212.32H143.61V204.8Z" fill="black"/>
<path d="M143.61 197.23H136.03V204.81H143.61V197.23Z" fill="black"/>
<path d="M143.61 189.71H136.03V197.22H143.61V189.71Z" fill="black"/>
<path d="M143.61 182.12H136.03V189.71H143.61V182.12Z" fill="black"/>
<path d="M143.61 174.61H136.03V182.12H143.61V174.61Z" fill="black"/>
<path d="M143.61 167.02H136.03V174.61H143.61V167.02Z" fill="black"/>
<path d="M143.61 159.44H136.03V167.02H143.61V159.44Z" fill="black"/>
<path d="M143.61 151.92H136.03V159.43H143.61V151.92Z" fill="black"/>
<path d="M143.61 144.33H136.03V151.92H143.61V144.33Z" fill="black"/>
<path d="M143.61 136.81H136.03V144.32H143.61V136.81Z" fill="black"/>
<path d="M143.61 129.22H136.03V136.81H143.61V129.22Z" fill="black"/>
<path d="M143.61 121.71H136.03V129.22H143.61V121.71Z" fill="black"/>
<path d="M143.61 114.12H136.03V121.71H143.61V114.12Z" fill="black"/>
<path d="M143.61 106.61H136.03V114.12H143.61V106.61Z" fill="black"/>
<path d="M143.61 99.02H136.03V106.61H143.61V99.02Z" fill="black"/>
<path d="M143.61 91.4297H136.03V99.0197H143.61V91.4297Z" fill="black"/>
<path d="M143.61 83.9199H136.03V91.4299H143.61V83.9199Z" fill="black"/>
<path d="M143.61 76.3296H136.03V83.9196H143.61V76.3296Z" fill="black"/>
<path d="M136.021 242.6H128.511V250.11H136.021V242.6Z" fill="black"/>
<path d="M136.021 235.01H128.511V242.6H136.021V235.01Z" fill="#FFEF56"/>
<path d="M136.021 227.5H128.511V235.01H136.021V227.5Z" fill="#FFEF56"/>
<path d="M136.021 219.91H128.511V227.5H136.021V219.91Z" fill="#EAD32D"/>
<path d="M136.021 212.33H128.511V219.91H136.021V212.33Z" fill="#EAD32D"/>
<path d="M136.021 204.8H128.511V212.32H136.021V204.8Z" fill="#EAD32D"/>
<path d="M136.021 197.23H128.511V204.81H136.021V197.23Z" fill="#EAD32D"/>
<path d="M136.021 189.71H128.511V197.22H136.021V189.71Z" fill="#EAD32D"/>
<path d="M136.021 182.12H128.511V189.71H136.021V182.12Z" fill="black"/>
<path d="M136.021 174.61H128.511V182.12H136.021V174.61Z" fill="black"/>
<path d="M136.021 167.02H128.511V174.61H136.021V167.02Z" fill="black"/>
<path d="M136.021 159.44H128.511V167.02H136.021V159.44Z" fill="#FFEF56"/>
<path d="M136.021 151.92H128.511V159.43H136.021V151.92Z" fill="#FFEF56"/>
<path d="M136.021 144.33H128.511V151.92H136.021V144.33Z" fill="#FFEF56"/>
<path d="M136.021 136.81H128.511V144.32H136.021V136.81Z" fill="#FFEF56"/>
<path d="M136.021 129.22H128.511V136.81H136.021V129.22Z" fill="#FFEF56"/>
<path d="M136.021 121.71H128.511V129.22H136.021V121.71Z" fill="#FFEF56"/>
<path d="M136.021 114.12H128.511V121.71H136.021V114.12Z" fill="#FFEF56"/>
<path d="M136.021 106.61H128.511V114.12H136.021V106.61Z" fill="#EAD32D"/>
<path d="M136.021 99.02H128.511V106.61H136.021V99.02Z" fill="#EAD32D"/>
<path d="M136.021 91.4297H128.511V99.0197H136.021V91.4297Z" fill="#EAD32D"/>
<path d="M136.021 83.9199H128.511V91.4299H136.021V83.9199Z" fill="#EAD32D"/>
<path d="M136.021 76.3296H128.511V83.9196H136.021V76.3296Z" fill="black"/>
<path d="M136.021 68.8198H128.511V76.3298H136.021V68.8198Z" fill="black"/>
<path d="M128.51 242.6H120.92V250.11H128.51V242.6Z" fill="black"/>
<path d="M128.51 235.01H120.92V242.6H128.51V235.01Z" fill="#FFEF56"/>
<path d="M128.51 227.5H120.92V235.01H128.51V227.5Z" fill="#FFEF56"/>
<path d="M128.51 219.91H120.92V227.5H128.51V219.91Z" fill="#FFEF56"/>
<path d="M128.51 212.33H120.92V219.91H128.51V212.33Z" fill="#FFEF56"/>
<path d="M128.51 204.8H120.92V212.32H128.51V204.8Z" fill="#FFEF56"/>
<path d="M128.51 197.23H120.92V204.81H128.51V197.23Z" fill="#EAD32D"/>
<path d="M128.51 189.71H120.92V197.22H128.51V189.71Z" fill="black"/>
<path d="M128.51 182.12H120.92V189.71H128.51V182.12Z" fill="#00F3FF"/>
<path d="M128.51 174.61H120.92V182.12H128.51V174.61Z" fill="#2CF926"/>
<path d="M128.51 167.02H120.92V174.61H128.51V167.02Z" fill="#2CF926"/>
<path d="M128.51 159.44H120.92V167.02H128.51V159.44Z" fill="black"/>
<path d="M128.51 151.92H120.92V159.43H128.51V151.92Z" fill="#FFEF56"/>
<path d="M128.51 144.33H120.92V151.92H128.51V144.33Z" fill="black"/>
<path d="M128.51 136.81H120.92V144.32H128.51V136.81Z" fill="black"/>
<path d="M128.51 129.22H120.92V136.81H128.51V129.22Z" fill="black"/>
<path d="M128.51 121.71H120.92V129.22H128.51V121.71Z" fill="#FFEF56"/>
<path d="M128.51 114.12H120.92V121.71H128.51V114.12Z" fill="#FFEF56"/>
<path d="M128.51 106.61H120.92V114.12H128.51V106.61Z" fill="#FFEF56"/>
<path d="M128.51 99.02H120.92V106.61H128.51V99.02Z" fill="#FFEF56"/>
<path d="M128.51 91.4297H120.92V99.0197H128.51V91.4297Z" fill="#FFEF56"/>
<path d="M128.51 83.9199H120.92V91.4299H128.51V83.9199Z" fill="#EAD32D"/>
<path d="M128.51 76.3296H120.92V83.9196H128.51V76.3296Z" fill="#EAD32D"/>
<path d="M128.51 68.8198H120.92V76.3298H128.51V68.8198Z" fill="black"/>
<path d="M128.51 61.23H120.92V68.82H128.51V61.23Z" fill="black"/>
<path d="M120.92 242.6H113.41V250.11H120.92V242.6Z" fill="black"/>
<path d="M120.92 235.01H113.41V242.6H120.92V235.01Z" fill="#FFEF56"/>
<path d="M120.92 227.5H113.41V235.01H120.92V227.5Z" fill="#FFEF56"/>
<path d="M120.92 219.91H113.41V227.5H120.92V219.91Z" fill="#FFEF56"/>
<path d="M120.92 212.33H113.41V219.91H120.92V212.33Z" fill="#FFEF56"/>
<path d="M120.92 204.8H113.41V212.32H120.92V204.8Z" fill="#FFEF56"/>
<path d="M120.92 197.23H113.41V204.81H120.92V197.23Z" fill="#FFEF56"/>
<path d="M120.92 189.71H113.41V197.22H120.92V189.71Z" fill="black"/>
<path d="M120.92 182.12H113.41V189.71H120.92V182.12Z" fill="#2CF926"/>
<path d="M120.92 174.61H113.41V182.12H120.92V174.61Z" fill="#00F3FF"/>
<path d="M120.92 167.02H113.41V174.61H120.92V167.02Z" fill="#00F3FF"/>
<path d="M120.92 159.44H113.41V167.02H120.92V159.44Z" fill="#EFE4A3"/>
<path d="M120.92 151.92H113.41V159.43H120.92V151.92Z" fill="black"/>
<path d="M120.92 144.33H113.41V151.92H120.92V144.33Z" fill="#F9C6AA"/>
<path d="M120.92 136.81H113.41V144.32H120.92V136.81Z" fill="#F9C6AA"/>
<path d="M120.92 129.22H113.41V136.81H120.92V129.22Z" fill="#DDA487"/>
<path d="M120.92 121.71H113.41V129.22H120.92V121.71Z" fill="black"/>
<path d="M120.92 114.12H113.41V121.71H120.92V114.12Z" fill="#FFEF56"/>
<path d="M120.92 106.61H113.41V114.12H120.92V106.61Z" fill="#FFEF56"/>
<path d="M120.92 99.02H113.41V106.61H120.92V99.02Z" fill="#FFEF56"/>
<path d="M120.92 91.4297H113.41V99.0197H120.92V91.4297Z" fill="#FFEF56"/>
<path d="M120.92 83.9199H113.41V91.4299H120.92V83.9199Z" fill="#FFEF56"/>
<path d="M120.92 76.3296H113.41V83.9196H120.92V76.3296Z" fill="#EAD32D"/>
<path d="M120.92 68.8198H113.41V76.3298H120.92V68.8198Z" fill="#EAD32D"/>
<path d="M120.92 61.23H113.41V68.82H120.92V61.23Z" fill="black"/>
<path d="M120.92 53.7197H113.41V61.2297H120.92V53.7197Z" fill="black"/>
<path d="M113.41 242.6H105.82V250.11H113.41V242.6Z" fill="black"/>
<path d="M113.41 235.01H105.82V242.6H113.41V235.01Z" fill="#EAD32D"/>
<path d="M113.41 227.5H105.82V235.01H113.41V227.5Z" fill="#FFEF56"/>
<path d="M113.41 219.91H105.82V227.5H113.41V219.91Z" fill="#FFEF56"/>
<path d="M113.41 212.33H105.82V219.91H113.41V212.33Z" fill="#FFEF56"/>
<path d="M113.41 204.8H105.82V212.32H113.41V204.8Z" fill="#FFEF56"/>
<path d="M113.41 197.23H105.82V204.81H113.41V197.23Z" fill="#FFEF56"/>
<path d="M113.41 189.71H105.82V197.22H113.41V189.71Z" fill="black"/>
<path d="M113.41 182.12H105.82V189.71H113.41V182.12Z" fill="#00F3FF"/>
<path d="M113.41 174.61H105.82V182.12H113.41V174.61Z" fill="#2CF926"/>
<path d="M113.41 167.02H105.82V174.61H113.41V167.02Z" fill="#2CF926"/>
<path d="M113.41 159.44H105.82V167.02H113.41V159.44Z" fill="#EFE4A3"/>
<path d="M113.41 151.92H105.82V159.43H113.41V151.92Z" fill="black"/>
<path d="M113.41 144.33H105.82V151.92H113.41V144.33Z" fill="#DDA487"/>
<path d="M113.41 136.81H105.82V144.32H113.41V136.81Z" fill="#F9C6AA"/>
<path d="M113.41 129.22H105.82V136.81H113.41V129.22Z" fill="#F9C6AA"/>
<path d="M113.41 121.71H105.82V129.22H113.41V121.71Z" fill="#DDA487"/>
<path d="M113.41 114.12H105.82V121.71H113.41V114.12Z" fill="black"/>
<path d="M113.41 106.61H105.82V114.12H113.41V106.61Z" fill="#FFEF56"/>
<path d="M113.41 99.02H105.82V106.61H113.41V99.02Z" fill="#FFEF56"/>
<path d="M113.41 91.4297H105.82V99.0197H113.41V91.4297Z" fill="#FFEF56"/>
<path d="M113.41 83.9199H105.82V91.4299H113.41V83.9199Z" fill="#FFEF56"/>
<path d="M113.41 76.3296H105.82V83.9196H113.41V76.3296Z" fill="#FFEF56"/>
<path d="M113.41 68.8198H105.82V76.3298H113.41V68.8198Z" fill="#EAD32D"/>
<path d="M113.41 61.23H105.82V68.82H113.41V61.23Z" fill="#EAD32D"/>
<path d="M113.41 53.7197H105.82V61.2297H113.41V53.7197Z" fill="black"/>
<path d="M113.41 46.1299H105.82V53.7199H113.41V46.1299Z" fill="black"/>
<path d="M105.82 242.6H98.2402V250.11H105.82V242.6Z" fill="black"/>
<path d="M105.82 235.01H98.2402V242.6H105.82V235.01Z" fill="#EAD32D"/>
<path d="M105.82 227.5H98.2402V235.01H105.82V227.5Z" fill="#EAD32D"/>
<path d="M105.82 219.91H98.2402V227.5H105.82V219.91Z" fill="#FFEF56"/>
<path d="M105.82 212.33H98.2402V219.91H105.82V212.33Z" fill="#FFEF56"/>
<path d="M105.82 204.8H98.2402V212.32H105.82V204.8Z" fill="#FFEF56"/>
<path d="M105.82 197.23H98.2402V204.81H105.82V197.23Z" fill="#FFEF56"/>
<path d="M105.82 189.71H98.2402V197.22H105.82V189.71Z" fill="black"/>
<path d="M105.82 182.12H98.2402V189.71H105.82V182.12Z" fill="#2CF926"/>
<path d="M105.82 174.61H98.2402V182.12H105.82V174.61Z" fill="#00F3FF"/>
<path d="M105.82 167.02H98.2402V174.61H105.82V167.02Z" fill="#00F3FF"/>
<path d="M105.82 159.44H98.2402V167.02H105.82V159.44Z" fill="#EFE4A3"/>
<path d="M105.82 151.92H98.2402V159.43H105.82V151.92Z" fill="black"/>
<path d="M105.82 144.33H98.2402V151.92H105.82V144.33Z" fill="#DDA487"/>
<path d="M105.82 136.81H98.2402V144.32H105.82V136.81Z" fill="#F9C6AA"/>
<path d="M105.82 129.22H98.2402V136.81H105.82V129.22Z" fill="#F9C6AA"/>
<path d="M105.82 121.71H98.2402V129.22H105.82V121.71Z" fill="black"/>
<path d="M105.82 114.12H98.2402V121.71H105.82V114.12Z" fill="#FFEF56"/>
<path d="M105.82 106.61H98.2402V114.12H105.82V106.61Z" fill="#FFEF56"/>
<path d="M105.82 99.02H98.2402V106.61H105.82V99.02Z" fill="#FFEF56"/>
<path d="M105.82 91.4297H98.2402V99.0197H105.82V91.4297Z" fill="#FFEF56"/>
<path d="M105.82 83.9199H98.2402V91.4299H105.82V83.9199Z" fill="#FFEF56"/>
<path d="M105.82 76.3296H98.2402V83.9196H105.82V76.3296Z" fill="#FFEF56"/>
<path d="M105.82 68.8198H98.2402V76.3298H105.82V68.8198Z" fill="#FFEF56"/>
<path d="M105.82 61.23H98.2402V68.82H105.82V61.23Z" fill="#EAD32D"/>
<path d="M105.82 53.7197H98.2402V61.2297H105.82V53.7197Z" fill="#EAD32D"/>
<path d="M105.82 46.1299H98.2402V53.7199H105.82V46.1299Z" fill="black"/>
<path d="M105.82 38.54H98.2402V46.13H105.82V38.54Z" fill="black"/>
<path d="M98.2307 242.6H90.7207V250.11H98.2307V242.6Z" fill="black"/>
<path d="M98.2307 235.01H90.7207V242.6H98.2307V235.01Z" fill="black"/>
<path d="M98.2307 227.5H90.7207V235.01H98.2307V227.5Z" fill="#EAD32D"/>
<path d="M98.2307 219.91H90.7207V227.5H98.2307V219.91Z" fill="#EAD32D"/>
<path d="M98.2307 212.33H90.7207V219.91H98.2307V212.33Z" fill="#FFEF56"/>
<path d="M98.2307 204.8H90.7207V212.32H98.2307V204.8Z" fill="#FFEF56"/>
<path d="M98.2307 197.23H90.7207V204.81H98.2307V197.23Z" fill="#FFEF56"/>
<path d="M98.2307 189.71H90.7207V197.22H98.2307V189.71Z" fill="black"/>
<path d="M98.2307 182.12H90.7207V189.71H98.2307V182.12Z" fill="#00F3FF"/>
<path d="M98.2307 174.61H90.7207V182.12H98.2307V174.61Z" fill="#2CF926"/>
<path d="M98.2307 167.02H90.7207V174.61H98.2307V167.02Z" fill="#2CF926"/>
<path d="M98.2307 159.44H90.7207V167.02H98.2307V159.44Z" fill="black"/>
<path d="M98.2307 151.92H90.7207V159.43H98.2307V151.92Z" fill="#FFEF56"/>
<path d="M98.2307 144.33H90.7207V151.92H98.2307V144.33Z" fill="black"/>
<path d="M98.2307 136.81H90.7207V144.32H98.2307V136.81Z" fill="#F9C6AA"/>
<path d="M98.2307 129.22H90.7207V136.81H98.2307V129.22Z" fill="#F9C6AA"/>
<path d="M98.2307 121.71H90.7207V129.22H98.2307V121.71Z" fill="black"/>
<path d="M98.2307 114.12H90.7207V121.71H98.2307V114.12Z" fill="#FFEF56"/>
<path d="M98.2307 106.61H90.7207V114.12H98.2307V106.61Z" fill="#FFEF56"/>
<path d="M98.2307 99.02H90.7207V106.61H98.2307V99.02Z" fill="#FFEF56"/>
<path d="M98.2307 91.4297H90.7207V99.0197H98.2307V91.4297Z" fill="#FFEF56"/>
<path d="M98.2307 83.9199H90.7207V91.4299H98.2307V83.9199Z" fill="#FFEF56"/>
<path d="M98.2307 76.3296H90.7207V83.9196H98.2307V76.3296Z" fill="#EAD32D"/>
<path d="M98.2307 68.8198H90.7207V76.3298H98.2307V68.8198Z" fill="#FFEF56"/>
<path d="M98.2307 61.23H90.7207V68.82H98.2307V61.23Z" fill="#FFEF56"/>
<path d="M98.2307 53.7197H90.7207V61.2297H98.2307V53.7197Z" fill="#EAD32D"/>
<path d="M98.2307 46.1299H90.7207V53.7199H98.2307V46.1299Z" fill="#EAD32D"/>
<path d="M98.2307 38.54H90.7207V46.13H98.2307V38.54Z" fill="black"/>
<path d="M90.7199 242.6H83.1299V250.11H90.7199V242.6Z" fill="black"/>
<path d="M90.7199 235.01H83.1299V242.6H90.7199V235.01Z" fill="#2B2403"/>
<path d="M90.7199 227.5H83.1299V235.01H90.7199V227.5Z" fill="black"/>
<path d="M90.7199 219.91H83.1299V227.5H90.7199V219.91Z" fill="black"/>
<path d="M90.7199 212.33H83.1299V219.91H90.7199V212.33Z" fill="#EAD32D"/>
<path d="M90.7199 204.8H83.1299V212.32H90.7199V204.8Z" fill="#EAD32D"/>
<path d="M90.7199 197.23H83.1299V204.81H90.7199V197.23Z" fill="#FFEF56"/>
<path d="M90.7199 189.71H83.1299V197.22H90.7199V189.71Z" fill="#FFEF56"/>
<path d="M90.7199 182.12H83.1299V189.71H90.7199V182.12Z" fill="black"/>
<path d="M90.7199 174.61H83.1299V182.12H90.7199V174.61Z" fill="black"/>
<path d="M90.7199 167.02H83.1299V174.61H90.7199V167.02Z" fill="black"/>
<path d="M90.7199 159.44H83.1299V167.02H90.7199V159.44Z" fill="#FFEF56"/>
<path d="M90.7199 151.92H83.1299V159.43H90.7199V151.92Z" fill="#FFEF56"/>
<path d="M90.7199 144.33H83.1299V151.92H90.7199V144.33Z" fill="black"/>
<path d="M90.7199 136.81H83.1299V144.32H90.7199V136.81Z" fill="#F9C6AA"/>
<path d="M90.7199 129.22H83.1299V136.81H90.7199V129.22Z" fill="#F9C6AA"/>
<path d="M90.7199 121.71H83.1299V129.22H90.7199V121.71Z" fill="black"/>
<path d="M90.7199 114.12H83.1299V121.71H90.7199V114.12Z" fill="#FFEF56"/>
<path d="M90.7199 106.61H83.1299V114.12H90.7199V106.61Z" fill="#FFEF56"/>
<path d="M90.7199 99.02H83.1299V106.61H90.7199V99.02Z" fill="#FFEF56"/>
<path d="M90.7199 91.4297H83.1299V99.0197H90.7199V91.4297Z" fill="#FFEF56"/>
<path d="M90.7199 83.9199H83.1299V91.4299H90.7199V83.9199Z" fill="#EAD32D"/>
<path d="M90.7199 76.3296H83.1299V83.9196H90.7199V76.3296Z" fill="#EAD32D"/>
<path d="M90.7199 68.8198H83.1299V76.3298H90.7199V68.8198Z" fill="#212120"/>
<path d="M90.7199 61.23H83.1299V68.82H90.7199V61.23Z" fill="#FFEF56"/>
<path d="M90.7199 53.7197H83.1299V61.2297H90.7199V53.7197Z" fill="#FFEF56"/>
<path d="M90.7199 46.1299H83.1299V53.7199H90.7199V46.1299Z" fill="black"/>
<path d="M90.7199 38.54H83.1299V46.13H90.7199V38.54Z" fill="black"/>
<path d="M90.7199 31.02H83.1299V38.53H90.7199V31.02Z" fill="black"/>
<path d="M90.7199 23.4297H83.1299V31.0197H90.7199V23.4297Z" fill="black"/>
<path d="M90.7199 15.9199H83.1299V23.4299H90.7199V15.9199Z" fill="black"/>
<path d="M90.7199 8.32959H83.1299V15.9196H90.7199V8.32959Z" fill="black"/>
<path d="M83.1203 242.6H75.6104V250.11H83.1203V242.6Z" fill="black"/>
<path d="M83.1203 235.01H75.6104V242.6H83.1203V235.01Z" fill="#2B2403"/>
<path d="M83.1203 227.5H75.6104V235.01H83.1203V227.5Z" fill="#2B2403"/>
<path d="M83.1203 219.91H75.6104V227.5H83.1203V219.91Z" fill="#352E07"/>
<path d="M83.1203 212.33H75.6104V219.91H83.1203V212.33Z" fill="black"/>
<path d="M83.1203 204.8H75.6104V212.32H83.1203V204.8Z" fill="black"/>
<path d="M83.1203 197.23H75.6104V204.81H83.1203V197.23Z" fill="#EAD32D"/>
<path d="M83.1203 189.71H75.6104V197.22H83.1203V189.71Z" fill="#EAD32D"/>
<path d="M83.1203 182.12H75.6104V189.71H83.1203V182.12Z" fill="#EAD32D"/>
<path d="M83.1203 174.61H75.6104V182.12H83.1203V174.61Z" fill="#EAD32D"/>
<path d="M83.1203 167.02H75.6104V174.61H83.1203V167.02Z" fill="#EAD32D"/>
<path d="M83.1203 159.44H75.6104V167.02H83.1203V159.44Z" fill="#EAD32D"/>
<path d="M83.1203 151.92H75.6104V159.43H83.1203V151.92Z" fill="black"/>
<path d="M83.1203 144.33H75.6104V151.92H83.1203V144.33Z" fill="black"/>
<path d="M83.1203 136.81H75.6104V144.32H83.1203V136.81Z" fill="black"/>
<path d="M83.1203 129.22H75.6104V136.81H83.1203V129.22Z" fill="black"/>
<path d="M83.1203 121.71H75.6104V129.22H83.1203V121.71Z" fill="black"/>
<path d="M83.1203 114.12H75.6104V121.71H83.1203V114.12Z" fill="black"/>
<path d="M83.1203 106.61H75.6104V114.12H83.1203V106.61Z" fill="#EAD32D"/>
<path d="M83.1203 99.02H75.6104V106.61H83.1203V99.02Z" fill="#EAD32D"/>
<path d="M83.1203 91.4297H75.6104V99.0197H83.1203V91.4297Z" fill="#EAD32D"/>
<path d="M83.1203 83.9199H75.6104V91.4299H83.1203V83.9199Z" fill="#EAD32D"/>
<path d="M83.1203 76.3296H75.6104V83.9196H83.1203V76.3296Z" fill="#212120"/>
<path d="M83.1203 68.8198H75.6104V76.3298H83.1203V68.8198Z" fill="#212120"/>
<path d="M83.1203 61.23H75.6104V68.82H83.1203V61.23Z" fill="#FFEF56"/>
<path d="M83.1203 53.7197H75.6104V61.2297H83.1203V53.7197Z" fill="black"/>
<path d="M83.1203 46.1299H75.6104V53.7199H83.1203V46.1299Z" fill="#A8A8A7"/>
<path d="M83.1203 38.54H75.6104V46.13H83.1203V38.54Z" fill="#CCCCCA"/>
<path d="M83.1203 31.02H75.6104V38.53H83.1203V31.02Z" fill="#CCCCCA"/>
<path d="M83.1203 23.4297H75.6104V31.0197H83.1203V23.4297Z" fill="#F9C6AA"/>
<path d="M83.1203 15.9199H75.6104V23.4299H83.1203V15.9199Z" fill="#F9C6AA"/>
<path d="M83.1203 8.32959H75.6104V15.9196H83.1203V8.32959Z" fill="#F9C6AA"/>
<path d="M83.1203 0.819824H75.6104V8.32983H83.1203V0.819824Z" fill="black"/>
<path d="M75.6105 242.6H68.0205V250.11H75.6105V242.6Z" fill="black"/>
<path d="M75.6105 235.01H68.0205V242.6H75.6105V235.01Z" fill="#2B2403"/>
<path d="M75.6105 227.5H68.0205V235.01H75.6105V227.5Z" fill="#2B2403"/>
<path d="M75.6105 219.91H68.0205V227.5H75.6105V219.91Z" fill="#352E07"/>
<path d="M75.6105 212.33H68.0205V219.91H75.6105V212.33Z" fill="#352E07"/>
<path d="M75.6105 204.8H68.0205V212.32H75.6105V204.8Z" fill="black"/>
<path d="M75.6105 197.23H68.0205V204.81H75.6105V197.23Z" fill="black"/>
<path d="M75.6105 189.71H68.0205V197.22H75.6105V189.71Z" fill="black"/>
<path d="M75.6105 182.12H68.0205V189.71H75.6105V182.12Z" fill="black"/>
<path d="M75.6105 174.61H68.0205V182.12H75.6105V174.61Z" fill="black"/>
<path d="M75.6105 167.02H68.0205V174.61H75.6105V167.02Z" fill="black"/>
<path d="M75.6105 159.44H68.0205V167.02H75.6105V159.44Z" fill="black"/>
<path d="M75.6105 151.92H68.0205V159.43H75.6105V151.92Z" fill="black"/>
<path d="M75.6105 144.33H68.0205V151.92H75.6105V144.33Z" fill="#352E07"/>
<path d="M75.6105 136.81H68.0205V144.32H75.6105V136.81Z" fill="#352E07"/>
<path d="M75.6105 129.22H68.0205V136.81H75.6105V129.22Z" fill="#352E07"/>
<path d="M75.6105 121.71H68.0205V129.22H75.6105V121.71Z" fill="#352E07"/>
<path d="M75.6105 114.12H68.0205V121.71H75.6105V114.12Z" fill="black"/>
<path d="M75.6105 106.61H68.0205V114.12H75.6105V106.61Z" fill="black"/>
<path d="M75.6105 99.02H68.0205V106.61H75.6105V99.02Z" fill="black"/>
<path d="M75.6105 91.4297H68.0205V99.0197H75.6105V91.4297Z" fill="black"/>
<path d="M75.6105 83.9199H68.0205V91.4299H75.6105V83.9199Z" fill="black"/>
<path d="M75.6105 76.3296H68.0205V83.9196H75.6105V76.3296Z" fill="#212120"/>
<path d="M75.6105 68.8198H68.0205V76.3298H75.6105V68.8198Z" fill="#212120"/>
<path d="M75.6105 61.23H68.0205V68.82H75.6105V61.23Z" fill="#212120"/>
<path d="M75.6105 53.7197H68.0205V61.2297H75.6105V53.7197Z" fill="#A8A8A7"/>
<path d="M75.6105 46.1299H68.0205V53.7199H75.6105V46.1299Z" fill="#CCCCCA"/>
<path d="M75.6105 38.54H68.0205V46.13H75.6105V38.54Z" fill="#CCCCCA"/>
<path d="M75.6105 31.02H68.0205V38.53H75.6105V31.02Z" fill="#F9C6AA"/>
<path d="M75.6105 23.4297H68.0205V31.0197H75.6105V23.4297Z" fill="#2D2D2D"/>
<path d="M75.6105 15.9199H68.0205V23.4299H75.6105V15.9199Z" fill="#F9C6AA"/>
<path d="M75.6105 8.32959H68.0205V15.9196H75.6105V8.32959Z" fill="#F9C6AA"/>
<path d="M75.6105 0.819824H68.0205V8.32983H75.6105V0.819824Z" fill="black"/>
<path d="M68.0208 242.6H60.5107V250.11H68.0208V242.6Z" fill="black"/>
<path d="M68.0208 235.01H60.5107V242.6H68.0208V235.01Z" fill="#2B2403"/>
<path d="M68.0208 227.5H60.5107V235.01H68.0208V227.5Z" fill="#514911"/>
<path d="M68.0208 219.91H60.5107V227.5H68.0208V219.91Z" fill="#2B2403"/>
<path d="M68.0208 212.33H60.5107V219.91H68.0208V212.33Z" fill="#352E07"/>
<path d="M68.0208 204.8H60.5107V212.32H68.0208V204.8Z" fill="#352E07"/>
<path d="M68.0208 197.23H60.5107V204.81H68.0208V197.23Z" fill="#352E07"/>
<path d="M68.0208 189.71H60.5107V197.22H68.0208V189.71Z" fill="#352E07"/>
<path d="M68.0208 182.12H60.5107V189.71H68.0208V182.12Z" fill="#352E07"/>
<path d="M68.0208 174.61H60.5107V182.12H68.0208V174.61Z" fill="#352E07"/>
<path d="M68.0208 167.02H60.5107V174.61H68.0208V167.02Z" fill="#352E07"/>
<path d="M68.0208 159.44H60.5107V167.02H68.0208V159.44Z" fill="#352E07"/>
<path d="M68.0208 151.92H60.5107V159.43H68.0208V151.92Z" fill="#352E07"/>
<path d="M68.0208 144.33H60.5107V151.92H68.0208V144.33Z" fill="black"/>
<path d="M68.0208 136.81H60.5107V144.32H68.0208V136.81Z" fill="#60561B"/>
<path d="M68.0208 129.22H60.5107V136.81H68.0208V129.22Z" fill="#352E07"/>
<path d="M68.0208 121.71H60.5107V129.22H68.0208V121.71Z" fill="#352E07"/>
<path d="M68.0208 114.12H60.5107V121.71H68.0208V114.12Z" fill="black"/>
<path d="M68.0208 106.61H60.5107V114.12H68.0208V106.61Z" fill="#352E07"/>
<path d="M68.0208 99.02H60.5107V106.61H68.0208V99.02Z" fill="#352E07"/>
<path d="M68.0208 91.4297H60.5107V99.0197H68.0208V91.4297Z" fill="#352E07"/>
<path d="M68.0208 83.9199H60.5107V91.4299H68.0208V83.9199Z" fill="#352E07"/>
<path d="M68.0208 76.3296H60.5107V83.9196H68.0208V76.3296Z" fill="#352E07"/>
<path d="M68.0208 68.8198H60.5107V76.3298H68.0208V68.8198Z" fill="#212120"/>
<path d="M68.0208 61.23H60.5107V68.82H68.0208V61.23Z" fill="#212120"/>
<path d="M68.0208 53.7197H60.5107V61.2297H68.0208V53.7197Z" fill="#A8A8A7"/>
<path d="M68.0208 46.1299H60.5107V53.7199H68.0208V46.1299Z" fill="#CCCCCA"/>
<path d="M68.0208 38.54H60.5107V46.13H68.0208V38.54Z" fill="#CCCCCA"/>
<path d="M68.0208 31.02H60.5107V38.53H68.0208V31.02Z" fill="#F9C6AA"/>
<path d="M68.0208 23.4297H60.5107V31.0197H68.0208V23.4297Z" fill="#2D2D2D"/>
<path d="M68.0208 15.9199H60.5107V23.4299H68.0208V15.9199Z" fill="#F9C6AA"/>
<path d="M68.0208 8.32959H60.5107V15.9196H68.0208V8.32959Z" fill="#F9C6AA"/>
<path d="M68.0208 0.819824H60.5107V8.32983H68.0208V0.819824Z" fill="black"/>
<path d="M60.5099 242.6H52.9199V250.11H60.5099V242.6Z" fill="black"/>
<path d="M60.5099 235.01H52.9199V242.6H60.5099V235.01Z" fill="#2B2403"/>
<path d="M60.5099 227.5H52.9199V235.01H60.5099V227.5Z" fill="#514911"/>
<path d="M60.5099 219.91H52.9199V227.5H60.5099V219.91Z" fill="#514911"/>
<path d="M60.5099 212.33H52.9199V219.91H60.5099V212.33Z" fill="#514911"/>
<path d="M60.5099 204.8H52.9199V212.32H60.5099V204.8Z" fill="#514911"/>
<path d="M60.5099 197.23H52.9199V204.81H60.5099V197.23Z" fill="#514911"/>
<path d="M60.5099 189.71H52.9199V197.22H60.5099V189.71Z" fill="#514911"/>
<path d="M60.5099 182.12H52.9199V189.71H60.5099V182.12Z" fill="#514911"/>
<path d="M60.5099 174.61H52.9199V182.12H60.5099V174.61Z" fill="#514911"/>
<path d="M60.5099 167.02H52.9199V174.61H60.5099V167.02Z" fill="#514911"/>
<path d="M60.5099 159.44H52.9199V167.02H60.5099V159.44Z" fill="#514911"/>
<path d="M60.5099 151.92H52.9199V159.43H60.5099V151.92Z" fill="#514911"/>
<path d="M60.5099 144.33H52.9199V151.92H60.5099V144.33Z" fill="#514911"/>
<path d="M60.5099 136.81H52.9199V144.32H60.5099V136.81Z" fill="black"/>
<path d="M60.5099 129.22H52.9199V136.81H60.5099V129.22Z" fill="#60561B"/>
<path d="M60.5099 121.71H52.9199V129.22H60.5099V121.71Z" fill="#352E07"/>
<path d="M60.5099 114.12H52.9199V121.71H60.5099V114.12Z" fill="black"/>
<path d="M60.5099 106.61H52.9199V114.12H60.5099V106.61Z" fill="black"/>
<path d="M60.5099 99.02H52.9199V106.61H60.5099V99.02Z" fill="#514911"/>
<path d="M60.5099 91.4297H52.9199V99.0197H60.5099V91.4297Z" fill="#514911"/>
<path d="M60.5099 83.9199H52.9199V91.4299H60.5099V83.9199Z" fill="#514911"/>
<path d="M60.5099 76.3296H52.9199V83.9196H60.5099V76.3296Z" fill="#514911"/>
<path d="M60.5099 68.8198H52.9199V76.3298H60.5099V68.8198Z" fill="#212120"/>
<path d="M60.5099 61.23H52.9199V68.82H60.5099V61.23Z" fill="#212120"/>
<path d="M60.5099 53.7197H52.9199V61.2297H60.5099V53.7197Z" fill="#A8A8A7"/>
<path d="M60.5099 46.1299H52.9199V53.7199H60.5099V46.1299Z" fill="#CCCCCA"/>
<path d="M60.5099 38.54H52.9199V46.13H60.5099V38.54Z" fill="#CCCCCA"/>
<path d="M60.5099 31.02H52.9199V38.53H60.5099V31.02Z" fill="#EA9E78"/>
<path d="M60.5099 23.4297H52.9199V31.0197H60.5099V23.4297Z" fill="#F9C6AA"/>
<path d="M60.5099 15.9199H52.9199V23.4299H60.5099V15.9199Z" fill="#F9C6AA"/>
<path d="M60.5099 8.32959H52.9199V15.9196H60.5099V8.32959Z" fill="#F9C6AA"/>
<path d="M60.5099 0.819824H52.9199V8.32983H60.5099V0.819824Z" fill="black"/>
<path d="M52.9202 242.6H45.4102V250.11H52.9202V242.6Z" fill="black"/>
<path d="M52.9202 235.01H45.4102V242.6H52.9202V235.01Z" fill="#2B2403"/>
<path d="M52.9202 227.5H45.4102V235.01H52.9202V227.5Z" fill="#514911"/>
<path d="M52.9202 219.91H45.4102V227.5H52.9202V219.91Z" fill="#514911"/>
<path d="M52.9202 212.33H45.4102V219.91H52.9202V212.33Z" fill="black"/>
<path d="M52.9202 204.8H45.4102V212.32H52.9202V204.8Z" fill="black"/>
<path d="M52.9202 197.23H45.4102V204.81H52.9202V197.23Z" fill="black"/>
<path d="M52.9202 189.71H45.4102V197.22H52.9202V189.71Z" fill="black"/>
<path d="M52.9202 182.12H45.4102V189.71H52.9202V182.12Z" fill="black"/>
<path d="M52.9202 174.61H45.4102V182.12H52.9202V174.61Z" fill="black"/>
<path d="M52.9202 167.02H45.4102V174.61H52.9202V167.02Z" fill="black"/>
<path d="M52.9202 159.44H45.4102V167.02H52.9202V159.44Z" fill="black"/>
<path d="M52.9202 151.92H45.4102V159.43H52.9202V151.92Z" fill="black"/>
<path d="M52.9202 144.33H45.4102V151.92H52.9202V144.33Z" fill="black"/>
<path d="M52.9202 136.81H45.4102V144.32H52.9202V136.81Z" fill="black"/>
<path d="M52.9202 129.22H45.4102V136.81H52.9202V129.22Z" fill="black"/>
<path d="M52.9202 121.71H45.4102V129.22H52.9202V121.71Z" fill="black"/>
<path d="M52.9202 114.12H45.4102V121.71H52.9202V114.12Z" fill="black"/>
<path d="M52.9202 106.61H45.4102V114.12H52.9202V106.61Z" fill="black"/>
<path d="M52.9202 99.02H45.4102V106.61H52.9202V99.02Z" fill="black"/>
<path d="M52.9202 91.4297H45.4102V99.0197H52.9202V91.4297Z" fill="black"/>
<path d="M52.9202 83.9199H45.4102V91.4299H52.9202V83.9199Z" fill="black"/>
<path d="M52.9202 76.3296H45.4102V83.9196H52.9202V76.3296Z" fill="#212120"/>
<path d="M52.9202 68.8198H45.4102V76.3298H52.9202V68.8198Z" fill="#212120"/>
<path d="M52.9202 61.23H45.4102V68.82H52.9202V61.23Z" fill="#212120"/>
<path d="M52.9202 53.7197H45.4102V61.2297H52.9202V53.7197Z" fill="#A8A8A7"/>
<path d="M52.9202 46.1299H45.4102V53.7199H52.9202V46.1299Z" fill="#CCCCCA"/>
<path d="M52.9202 38.54H45.4102V46.13H52.9202V38.54Z" fill="#CCCCCA"/>
<path d="M52.9202 31.02H45.4102V38.53H52.9202V31.02Z" fill="#F9C6AA"/>
<path d="M52.9202 23.4297H45.4102V31.0197H52.9202V23.4297Z" fill="#2D2D2D"/>
<path d="M52.9202 15.9199H45.4102V23.4299H52.9202V15.9199Z" fill="#F9C6AA"/>
<path d="M52.9202 8.32959H45.4102V15.9196H52.9202V8.32959Z" fill="#F9C6AA"/>
<path d="M52.9202 0.819824H45.4102V8.32983H52.9202V0.819824Z" fill="black"/>
<path d="M45.4103 242.6H37.8203V250.11H45.4103V242.6Z" fill="black"/>
<path d="M45.4103 235.01H37.8203V242.6H45.4103V235.01Z" fill="#2B2403"/>
<path d="M45.4103 227.5H37.8203V235.01H45.4103V227.5Z" fill="black"/>
<path d="M45.4103 219.91H37.8203V227.5H45.4103V219.91Z" fill="black"/>
<path d="M45.4103 212.33H37.8203V219.91H45.4103V212.33Z" fill="#FFEF56"/>
<path d="M45.4103 204.8H37.8203V212.32H45.4103V204.8Z" fill="#FFEF56"/>
<path d="M45.4103 197.23H37.8203V204.81H45.4103V197.23Z" fill="#FFEF56"/>
<path d="M45.4103 189.71H37.8203V197.22H45.4103V189.71Z" fill="#FFEF56"/>
<path d="M45.4103 182.12H37.8203V189.71H45.4103V182.12Z" fill="#FFEF56"/>
<path d="M45.4103 174.61H37.8203V182.12H45.4103V174.61Z" fill="#FFEF56"/>
<path d="M45.4103 167.02H37.8203V174.61H45.4103V167.02Z" fill="#FFEF56"/>
<path d="M45.4103 159.44H37.8203V167.02H45.4103V159.44Z" fill="#FFEF56"/>
<path d="M45.4103 151.92H37.8203V159.43H45.4103V151.92Z" fill="#FFEF56"/>
<path d="M45.4103 144.33H37.8203V151.92H45.4103V144.33Z" fill="#FFEF56"/>
<path d="M45.4103 136.81H37.8203V144.32H45.4103V136.81Z" fill="#FFEF56"/>
<path d="M45.4103 129.22H37.8203V136.81H45.4103V129.22Z" fill="#FFEF56"/>
<path d="M45.4103 121.71H37.8203V129.22H45.4103V121.71Z" fill="#FFEF56"/>
<path d="M45.4103 114.12H37.8203V121.71H45.4103V114.12Z" fill="#EAD32D"/>
<path d="M45.4103 106.61H37.8203V114.12H45.4103V106.61Z" fill="#EAD32D"/>
<path d="M45.4103 99.02H37.8203V106.61H45.4103V99.02Z" fill="#EAD32D"/>
<path d="M45.4103 91.4297H37.8203V99.0197H45.4103V91.4297Z" fill="#EAD32D"/>
<path d="M45.4103 83.9199H37.8203V91.4299H45.4103V83.9199Z" fill="#EAD32D"/>
<path d="M45.4103 76.3296H37.8203V83.9196H45.4103V76.3296Z" fill="#212120"/>
<path d="M45.4103 68.8198H37.8203V76.3298H45.4103V68.8198Z" fill="#212120"/>
<path d="M45.4103 61.23H37.8203V68.82H45.4103V61.23Z" fill="#EAD32D"/>
<path d="M45.4103 53.7197H37.8203V61.2297H45.4103V53.7197Z" fill="black"/>
<path d="M45.4103 46.1299H37.8203V53.7199H45.4103V46.1299Z" fill="black"/>
<path d="M45.4103 38.54H37.8203V46.13H45.4103V38.54Z" fill="black"/>
<path d="M45.4103 31.02H37.8203V38.53H45.4103V31.02Z" fill="black"/>
<path d="M45.4103 23.4297H37.8203V31.0197H45.4103V23.4297Z" fill="black"/>
<path d="M45.4103 15.9199H37.8203V23.4299H45.4103V15.9199Z" fill="black"/>
<path d="M45.4103 8.32959H37.8203V15.9196H45.4103V8.32959Z" fill="black"/>
<path d="M37.8205 242.6H30.2305V250.11H37.8205V242.6Z" fill="black"/>
<path d="M37.8205 235.01H30.2305V242.6H37.8205V235.01Z" fill="black"/>
<path d="M37.8205 227.5H30.2305V235.01H37.8205V227.5Z" fill="#EAD32D"/>
<path d="M37.8205 219.91H30.2305V227.5H37.8205V219.91Z" fill="#FFEF56"/>
<path d="M37.8205 212.33H30.2305V219.91H37.8205V212.33Z" fill="#FFEF56"/>
<path d="M37.8205 204.8H30.2305V212.32H37.8205V204.8Z" fill="#FFEF56"/>
<path d="M37.8205 197.23H30.2305V204.81H37.8205V197.23Z" fill="#FFEF56"/>
<path d="M37.8205 189.71H30.2305V197.22H37.8205V189.71Z" fill="#FFEF56"/>
<path d="M37.8205 182.12H30.2305V189.71H37.8205V182.12Z" fill="#FFEF56"/>
<path d="M37.8205 174.61H30.2305V182.12H37.8205V174.61Z" fill="#FFEF56"/>
<path d="M37.8205 167.02H30.2305V174.61H37.8205V167.02Z" fill="#FFEF56"/>
<path d="M37.8205 159.44H30.2305V167.02H37.8205V159.44Z" fill="#FFEF56"/>
<path d="M37.8205 151.92H30.2305V159.43H37.8205V151.92Z" fill="#FFEF56"/>
<path d="M37.8205 144.33H30.2305V151.92H37.8205V144.33Z" fill="#FFEF56"/>
<path d="M37.8205 136.81H30.2305V144.32H37.8205V136.81Z" fill="#FFEF56"/>
<path d="M37.8205 129.22H30.2305V136.81H37.8205V129.22Z" fill="#FFEF56"/>
<path d="M37.8205 121.71H30.2305V129.22H37.8205V121.71Z" fill="#FFEF56"/>
<path d="M37.8205 114.12H30.2305V121.71H37.8205V114.12Z" fill="#FFEF56"/>
<path d="M37.8205 106.61H30.2305V114.12H37.8205V106.61Z" fill="#FFEF56"/>
<path d="M37.8205 99.02H30.2305V106.61H37.8205V99.02Z" fill="#EAD32D"/>
<path d="M37.8205 91.4297H30.2305V99.0197H37.8205V91.4297Z" fill="#EAD32D"/>
<path d="M37.8205 83.9199H30.2305V91.4299H37.8205V83.9199Z" fill="#EAD32D"/>
<path d="M37.8205 76.3296H30.2305V83.9196H37.8205V76.3296Z" fill="#EAD32D"/>
<path d="M37.8205 68.8198H30.2305V76.3298H37.8205V68.8198Z" fill="#EAD32D"/>
<path d="M37.8205 61.23H30.2305V68.82H37.8205V61.23Z" fill="#EAD32D"/>
<path d="M37.8205 53.7197H30.2305V61.2297H37.8205V53.7197Z" fill="#EAD32D"/>
<path d="M37.8205 46.1299H30.2305V53.7199H37.8205V46.1299Z" fill="black"/>
<path d="M30.2307 242.6H22.7207V250.11H30.2307V242.6Z" fill="black"/>
<path d="M30.2307 235.01H22.7207V242.6H30.2307V235.01Z" fill="#EAD32D"/>
<path d="M30.2307 227.5H22.7207V235.01H30.2307V227.5Z" fill="#EAD32D"/>
<path d="M30.2307 219.91H22.7207V227.5H30.2307V219.91Z" fill="#EAD32D"/>
<path d="M30.2307 212.33H22.7207V219.91H30.2307V212.33Z" fill="#FFEF56"/>
<path d="M30.2307 204.8H22.7207V212.32H30.2307V204.8Z" fill="#FFEF56"/>
<path d="M30.2307 197.23H22.7207V204.81H30.2307V197.23Z" fill="#FFEF56"/>
<path d="M30.2307 189.71H22.7207V197.22H30.2307V189.71Z" fill="#FFEF56"/>
<path d="M30.2307 182.12H22.7207V189.71H30.2307V182.12Z" fill="#FFEF56"/>
<path d="M30.2307 174.61H22.7207V182.12H30.2307V174.61Z" fill="#FFEF56"/>
<path d="M30.2307 167.02H22.7207V174.61H30.2307V167.02Z" fill="#FFEF56"/>
<path d="M30.2307 159.44H22.7207V167.02H30.2307V159.44Z" fill="#FFEF56"/>
<path d="M30.2307 151.92H22.7207V159.43H30.2307V151.92Z" fill="#FFEF56"/>
<path d="M30.2307 144.33H22.7207V151.92H30.2307V144.33Z" fill="#FFEF56"/>
<path d="M30.2307 136.81H22.7207V144.32H30.2307V136.81Z" fill="#FFEF56"/>
<path d="M30.2307 129.22H22.7207V136.81H30.2307V129.22Z" fill="#FFEF56"/>
<path d="M30.2307 121.71H22.7207V129.22H30.2307V121.71Z" fill="#FFEF56"/>
<path d="M30.2307 114.12H22.7207V121.71H30.2307V114.12Z" fill="#FFEF56"/>
<path d="M30.2307 106.61H22.7207V114.12H30.2307V106.61Z" fill="#FFEF56"/>
<path d="M30.2307 99.02H22.7207V106.61H30.2307V99.02Z" fill="#FFEF56"/>
<path d="M30.2307 91.4297H22.7207V99.0197H30.2307V91.4297Z" fill="#FFEF56"/>
<path d="M30.2307 83.9199H22.7207V91.4299H30.2307V83.9199Z" fill="#EAD32D"/>
<path d="M30.2307 76.3296H22.7207V83.9196H30.2307V76.3296Z" fill="#EAD32D"/>
<path d="M30.2307 68.8198H22.7207V76.3298H30.2307V68.8198Z" fill="#EAD32D"/>
<path d="M30.2307 61.23H22.7207V68.82H30.2307V61.23Z" fill="black"/>
<path d="M30.2307 53.7197H22.7207V61.2297H30.2307V53.7197Z" fill="black"/>
<path d="M22.7199 242.6H15.1299V250.11H22.7199V242.6Z" fill="black"/>
<path d="M22.7199 235.01H15.1299V242.6H22.7199V235.01Z" fill="#EAD32D"/>
<path d="M22.7199 227.5H15.1299V235.01H22.7199V227.5Z" fill="#EAD32D"/>
<path d="M22.7199 219.91H15.1299V227.5H22.7199V219.91Z" fill="#EAD32D"/>
<path d="M22.7199 212.33H15.1299V219.91H22.7199V212.33Z" fill="#EAD32D"/>
<path d="M22.7199 204.8H15.1299V212.32H22.7199V204.8Z" fill="#EAD32D"/>
<path d="M22.7199 197.23H15.1299V204.81H22.7199V197.23Z" fill="#FFEF56"/>
<path d="M22.7199 189.71H15.1299V197.22H22.7199V189.71Z" fill="#FFEF56"/>
<path d="M22.7199 182.12H15.1299V189.71H22.7199V182.12Z" fill="#FFEF56"/>
<path d="M22.7199 174.61H15.1299V182.12H22.7199V174.61Z" fill="#FFEF56"/>
<path d="M22.7199 167.02H15.1299V174.61H22.7199V167.02Z" fill="#FFEF56"/>
<path d="M22.7199 159.44H15.1299V167.02H22.7199V159.44Z" fill="#FFEF56"/>
<path d="M22.7199 151.92H15.1299V159.43H22.7199V151.92Z" fill="#FFEF56"/>
<path d="M22.7199 144.33H15.1299V151.92H22.7199V144.33Z" fill="#FFEF56"/>
<path d="M22.7199 136.81H15.1299V144.32H22.7199V136.81Z" fill="#FFEF56"/>
<path d="M22.7199 129.22H15.1299V136.81H22.7199V129.22Z" fill="#FFEF56"/>
<path d="M22.7199 121.71H15.1299V129.22H22.7199V121.71Z" fill="#FFEF56"/>
<path d="M22.7199 114.12H15.1299V121.71H22.7199V114.12Z" fill="#FFEF56"/>
<path d="M22.7199 106.61H15.1299V114.12H22.7199V106.61Z" fill="#FFEF56"/>
<path d="M22.7199 99.02H15.1299V106.61H22.7199V99.02Z" fill="#FFEF56"/>
<path d="M22.7199 91.4297H15.1299V99.0197H22.7199V91.4297Z" fill="#FFEF56"/>
<path d="M22.7199 83.9199H15.1299V91.4299H22.7199V83.9199Z" fill="#FFEF56"/>
<path d="M22.7199 76.3296H15.1299V83.9196H22.7199V76.3296Z" fill="#EAD32D"/>
<path d="M22.7199 68.8198H15.1299V76.3298H22.7199V68.8198Z" fill="black"/>
<path d="M15.1301 242.6H7.62012V250.11H15.1301V242.6Z" fill="black"/>
<path d="M15.1301 235.01H7.62012V242.6H15.1301V235.01Z" fill="#EAD32D"/>
<path d="M15.1301 227.5H7.62012V235.01H15.1301V227.5Z" fill="#EAD32D"/>
<path d="M15.1301 219.91H7.62012V227.5H15.1301V219.91Z" fill="#EAD32D"/>
<path d="M15.1301 212.33H7.62012V219.91H15.1301V212.33Z" fill="#EAD32D"/>
<path d="M15.1301 204.8H7.62012V212.32H15.1301V204.8Z" fill="#EAD32D"/>
<path d="M15.1301 197.23H7.62012V204.81H15.1301V197.23Z" fill="#EAD32D"/>
<path d="M15.1301 189.71H7.62012V197.22H15.1301V189.71Z" fill="#FFEF56"/>
<path d="M15.1301 182.12H7.62012V189.71H15.1301V182.12Z" fill="#FFEF56"/>
<path d="M15.1301 174.61H7.62012V182.12H15.1301V174.61Z" fill="#FFEF56"/>
<path d="M15.1301 167.02H7.62012V174.61H15.1301V167.02Z" fill="#FFEF56"/>
<path d="M15.1301 159.44H7.62012V167.02H15.1301V159.44Z" fill="#FFEF56"/>
<path d="M15.1301 151.92H7.62012V159.43H15.1301V151.92Z" fill="#FFEF56"/>
<path d="M15.1301 144.33H7.62012V151.92H15.1301V144.33Z" fill="#FFEF56"/>
<path d="M15.1301 136.81H7.62012V144.32H15.1301V136.81Z" fill="#FFEF56"/>
<path d="M15.1301 129.22H7.62012V136.81H15.1301V129.22Z" fill="#FFEF56"/>
<path d="M15.1301 121.71H7.62012V129.22H15.1301V121.71Z" fill="#FFEF56"/>
<path d="M15.1301 114.12H7.62012V121.71H15.1301V114.12Z" fill="#FFEF56"/>
<path d="M15.1301 106.61H7.62012V114.12H15.1301V106.61Z" fill="#FFEF56"/>
<path d="M15.1301 99.02H7.62012V106.61H15.1301V99.02Z" fill="#FFEF56"/>
<path d="M15.1301 91.4297H7.62012V99.0197H15.1301V91.4297Z" fill="#FFEF56"/>
<path d="M15.1301 83.9199H7.62012V91.4299H15.1301V83.9199Z" fill="#EAD32D"/>
<path d="M15.1301 76.3296H7.62012V83.9196H15.1301V76.3296Z" fill="black"/>
<path d="M15.1301 68.8198H7.62012V76.3298H15.1301V68.8198Z" fill="black"/>
<path d="M7.62027 242.6H0.0302734V250.11H7.62027V242.6Z" fill="black"/>
<path d="M7.62027 235.01H0.0302734V242.6H7.62027V235.01Z" fill="black"/>
<path d="M7.62027 227.5H0.0302734V235.01H7.62027V227.5Z" fill="black"/>
<path d="M7.62027 219.91H0.0302734V227.5H7.62027V219.91Z" fill="black"/>
<path d="M7.62027 212.33H0.0302734V219.91H7.62027V212.33Z" fill="black"/>
<path d="M7.62027 204.8H0.0302734V212.32H7.62027V204.8Z" fill="black"/>
<path d="M7.62027 197.23H0.0302734V204.81H7.62027V197.23Z" fill="black"/>
<path d="M7.62027 189.71H0.0302734V197.22H7.62027V189.71Z" fill="black"/>
<path d="M7.62027 182.12H0.0302734V189.71H7.62027V182.12Z" fill="black"/>
<path d="M7.62027 174.61H0.0302734V182.12H7.62027V174.61Z" fill="black"/>
<path d="M7.62027 167.02H0.0302734V174.61H7.62027V167.02Z" fill="black"/>
<path d="M7.62027 159.44H0.0302734V167.02H7.62027V159.44Z" fill="black"/>
<path d="M7.62027 151.92H0.0302734V159.43H7.62027V151.92Z" fill="black"/>
<path d="M7.62027 144.33H0.0302734V151.92H7.62027V144.33Z" fill="black"/>
<path d="M7.62027 136.81H0.0302734V144.32H7.62027V136.81Z" fill="black"/>
<path d="M7.62027 129.22H0.0302734V136.81H7.62027V129.22Z" fill="black"/>
<path d="M7.62027 121.71H0.0302734V129.22H7.62027V121.71Z" fill="black"/>
<path d="M7.62027 114.12H0.0302734V121.71H7.62027V114.12Z" fill="black"/>
<path d="M7.62027 106.61H0.0302734V114.12H7.62027V106.61Z" fill="black"/>
<path d="M7.62027 99.02H0.0302734V106.61H7.62027V99.02Z" fill="black"/>
<path d="M7.62027 91.4297H0.0302734V99.0197H7.62027V91.4297Z" fill="black"/>
<path d="M7.62027 83.9199H0.0302734V91.4299H7.62027V83.9199Z" fill="black"/>
</svg>
