<svg width="155" height="232" viewBox="0 0 155 232" fill="none" xmlns="http://www.w3.org/2000/svg">
<path d="M154.63 224.96H147.59V231.94H154.63V224.96Z" fill="black"/>
<path d="M154.63 217.91H147.59V224.96H154.63V217.91Z" fill="black"/>
<path d="M154.63 210.93H147.59V217.91H154.63V210.93Z" fill="black"/>
<path d="M154.63 203.88H147.59V210.93H154.63V203.88Z" fill="black"/>
<path d="M154.63 196.83H147.59V203.87H154.63V196.83Z" fill="black"/>
<path d="M154.63 189.84H147.59V196.83H154.63V189.84Z" fill="black"/>
<path d="M154.63 182.8H147.59V189.84H154.63V182.8Z" fill="black"/>
<path d="M154.63 147.69H147.59V154.73H154.63V147.69Z" fill="black"/>
<path d="M154.63 140.7H147.59V147.68H154.63V140.7Z" fill="black"/>
<path d="M154.63 133.65H147.59V140.7H154.63V133.65Z" fill="black"/>
<path d="M154.63 126.67H147.59V133.65H154.63V126.67Z" fill="black"/>
<path d="M154.63 119.62H147.59V126.67H154.63V119.62Z" fill="black"/>
<path d="M154.63 112.64H147.59V119.62H154.63V112.64Z" fill="black"/>
<path d="M154.63 105.59H147.59V112.64H154.63V105.59Z" fill="black"/>
<path d="M154.63 98.6099H147.59V105.59H154.63V98.6099Z" fill="black"/>
<path d="M154.63 91.5601H147.59V98.6101H154.63V91.5601Z" fill="black"/>
<path d="M154.63 7.30029H147.59V14.3503H154.63V7.30029Z" fill="#F20000"/>
<path d="M154.63 0.330078H147.59V7.31007H154.63V0.330078Z" fill="#F20000"/>
<path d="M147.591 224.96H140.611V231.94H147.591V224.96Z" fill="black"/>
<path d="M147.591 217.91H140.611V224.96H147.591V217.91Z" fill="#3C4360"/>
<path d="M147.591 210.93H140.611V217.91H147.591V210.93Z" fill="#3C4360"/>
<path d="M147.591 203.88H140.611V210.93H147.591V203.88Z" fill="#3C4360"/>
<path d="M147.591 196.83H140.611V203.87H147.591V196.83Z" fill="black"/>
<path d="M147.591 189.84H140.611V196.83H147.591V189.84Z" fill="#3C4360"/>
<path d="M147.591 182.8H140.611V189.84H147.591V182.8Z" fill="black"/>
<path d="M147.591 175.82H140.611V182.8H147.591V175.82Z" fill="black"/>
<path d="M147.591 168.76H140.611V175.81H147.591V168.76Z" fill="black"/>
<path d="M147.591 161.79H140.611V168.77H147.591V161.79Z" fill="black"/>
<path d="M147.591 154.73H140.611V161.78H147.591V154.73Z" fill="black"/>
<path d="M147.591 147.69H140.611V154.73H147.591V147.69Z" fill="#F49364"/>
<path d="M147.591 140.7H140.611V147.68H147.591V140.7Z" fill="#AD17AD"/>
<path d="M147.591 133.65H140.611V140.7H147.591V133.65Z" fill="#AD17AD"/>
<path d="M147.591 126.67H140.611V133.65H147.591V126.67Z" fill="#AD17AD"/>
<path d="M147.591 119.62H140.611V126.67H147.591V119.62Z" fill="#AD17AD"/>
<path d="M147.591 112.64H140.611V119.62H147.591V112.64Z" fill="#AD17AD"/>
<path d="M147.591 105.59H140.611V112.64H147.591V105.59Z" fill="#AD17AD"/>
<path d="M147.591 98.6099H140.611V105.59H147.591V98.6099Z" fill="#AD17AD"/>
<path d="M147.591 91.5601H140.611V98.6101H147.591V91.5601Z" fill="#8A0391"/>
<path d="M147.591 84.5103H140.611V91.5603H147.591V84.5103Z" fill="black"/>
<path d="M147.591 28.3901H140.611V35.3701H147.591V28.3901Z" fill="black"/>
<path d="M147.591 21.3398H140.611V28.3898H147.591V21.3398Z" fill="black"/>
<path d="M147.591 14.3599H140.611V21.3399H147.591V14.3599Z" fill="#F20000"/>
<path d="M147.591 7.30029H140.611V14.3503H147.591V7.30029Z" fill="#F20000"/>
<path d="M147.591 0.330078H140.611V7.31007H147.591V0.330078Z" fill="#F20000"/>
<path d="M140.601 224.96H133.551V231.94H140.601V224.96Z" fill="black"/>
<path d="M140.601 217.91H133.551V224.96H140.601V217.91Z" fill="#3C4360"/>
<path d="M140.601 210.93H133.551V217.91H140.601V210.93Z" fill="#3C4360"/>
<path d="M140.601 203.88H133.551V210.93H140.601V203.88Z" fill="#3C4360"/>
<path d="M140.601 196.83H133.551V203.87H140.601V196.83Z" fill="black"/>
<path d="M140.601 189.84H133.551V196.83H140.601V189.84Z" fill="#3C4360"/>
<path d="M140.601 182.8H133.551V189.84H140.601V182.8Z" fill="#8A0391"/>
<path d="M140.601 175.82H133.551V182.8H140.601V175.82Z" fill="#8A0391"/>
<path d="M140.601 168.76H133.551V175.81H140.601V168.76Z" fill="#8A0391"/>
<path d="M140.601 161.79H133.551V168.77H140.601V161.79Z" fill="#8A0391"/>
<path d="M140.601 154.73H133.551V161.78H140.601V154.73Z" fill="black"/>
<path d="M140.601 147.69H133.551V154.73H140.601V147.69Z" fill="#F49364"/>
<path d="M140.601 140.7H133.551V147.68H140.601V140.7Z" fill="#AD17AD"/>
<path d="M140.601 133.65H133.551V140.7H140.601V133.65Z" fill="#AD17AD"/>
<path d="M140.601 126.67H133.551V133.65H140.601V126.67Z" fill="#AD17AD"/>
<path d="M140.601 119.62H133.551V126.67H140.601V119.62Z" fill="#AD17AD"/>
<path d="M140.601 112.64H133.551V119.62H140.601V112.64Z" fill="#AD17AD"/>
<path d="M140.601 105.59H133.551V112.64H140.601V105.59Z" fill="#AD17AD"/>
<path d="M140.601 98.6099H133.551V105.59H140.601V98.6099Z" fill="#AD17AD"/>
<path d="M140.601 91.5601H133.551V98.6101H140.601V91.5601Z" fill="#AD17AD"/>
<path d="M140.601 84.5103H133.551V91.5603H140.601V84.5103Z" fill="#500256"/>
<path d="M140.601 77.5303H133.551V84.5103H140.601V77.5303Z" fill="black"/>
<path d="M140.601 63.5H133.551V70.48H140.601V63.5Z" fill="black"/>
<path d="M140.601 56.4502H133.551V63.5002H140.601V56.4502Z" fill="black"/>
<path d="M140.601 49.4702H133.551V56.4502H140.601V49.4702Z" fill="black"/>
<path d="M140.601 42.4199H133.551V49.4699H140.601V42.4199Z" fill="black"/>
<path d="M140.601 35.3701H133.551V42.4201H140.601V35.3701Z" fill="black"/>
<path d="M140.601 28.3901H133.551V35.3701H140.601V28.3901Z" fill="#8A0391"/>
<path d="M140.601 21.3398H133.551V28.3898H140.601V21.3398Z" fill="#F20000"/>
<path d="M140.601 14.3599H133.551V21.3399H140.601V14.3599Z" fill="#F20000"/>
<path d="M140.601 7.30029H133.551V14.3503H140.601V7.30029Z" fill="#F20000"/>
<path d="M133.55 224.96H126.57V231.94H133.55V224.96Z" fill="black"/>
<path d="M133.55 217.91H126.57V224.96H133.55V217.91Z" fill="#3C4360"/>
<path d="M133.55 210.93H126.57V217.91H133.55V210.93Z" fill="black"/>
<path d="M133.55 203.88H126.57V210.93H133.55V203.88Z" fill="black"/>
<path d="M133.55 196.83H126.57V203.87H133.55V196.83Z" fill="black"/>
<path d="M133.55 189.84H126.57V196.83H133.55V189.84Z" fill="#3C4360"/>
<path d="M133.55 182.8H126.57V189.84H133.55V182.8Z" fill="#8A0391"/>
<path d="M133.55 175.82H126.57V182.8H133.55V175.82Z" fill="#8A0391"/>
<path d="M133.55 168.76H126.57V175.81H133.55V168.76Z" fill="#AD17AD"/>
<path d="M133.55 161.79H126.57V168.77H133.55V161.79Z" fill="#AD17AD"/>
<path d="M133.55 154.73H126.57V161.78H133.55V154.73Z" fill="#AD17AD"/>
<path d="M133.55 147.69H126.57V154.73H133.55V147.69Z" fill="#B8602D"/>
<path d="M133.55 140.7H126.57V147.68H133.55V140.7Z" fill="#AD17AD"/>
<path d="M133.55 133.65H126.57V140.7H133.55V133.65Z" fill="#AD17AD"/>
<path d="M133.55 126.67H126.57V133.65H133.55V126.67Z" fill="#AD17AD"/>
<path d="M133.55 119.62H126.57V126.67H133.55V119.62Z" fill="#AD17AD"/>
<path d="M133.55 112.64H126.57V119.62H133.55V112.64Z" fill="#AD17AD"/>
<path d="M133.55 105.59H126.57V112.64H133.55V105.59Z" fill="#AD17AD"/>
<path d="M133.55 98.6099H126.57V105.59H133.55V98.6099Z" fill="#AD17AD"/>
<path d="M133.55 91.5601H126.57V98.6101H133.55V91.5601Z" fill="#500256"/>
<path d="M133.55 84.5103H126.57V91.5603H133.55V84.5103Z" fill="#63036D"/>
<path d="M133.55 77.5303H126.57V84.5103H133.55V77.5303Z" fill="black"/>
<path d="M133.55 70.48H126.57V77.53H133.55V70.48Z" fill="black"/>
<path d="M133.55 63.5H126.57V70.48H133.55V63.5Z" fill="#873810"/>
<path d="M133.55 56.4502H126.57V63.5002H133.55V56.4502Z" fill="#873810"/>
<path d="M133.55 49.4702H126.57V56.4502H133.55V49.4702Z" fill="#873810"/>
<path d="M133.55 42.4199H126.57V49.4699H133.55V42.4199Z" fill="black"/>
<path d="M133.55 35.3701H126.57V42.4201H133.55V35.3701Z" fill="#AD17AD"/>
<path d="M133.55 28.3901H126.57V35.3701H133.55V28.3901Z" fill="#AD17AD"/>
<path d="M133.55 21.3398H126.57V28.3898H133.55V21.3398Z" fill="#F20000"/>
<path d="M133.55 14.3599H126.57V21.3399H133.55V14.3599Z" fill="#F20000"/>
<path d="M133.55 7.30029H126.57V14.3503H133.55V7.30029Z" fill="black"/>
<path d="M126.57 224.96H119.52V231.94H126.57V224.96Z" fill="black"/>
<path d="M126.57 217.91H119.52V224.96H126.57V217.91Z" fill="black"/>
<path d="M126.57 189.84H119.52V196.83H126.57V189.84Z" fill="black"/>
<path d="M126.57 182.8H119.52V189.84H126.57V182.8Z" fill="#8A0391"/>
<path d="M126.57 175.82H119.52V182.8H126.57V175.82Z" fill="#8A0391"/>
<path d="M126.57 168.76H119.52V175.81H126.57V168.76Z" fill="#AD17AD"/>
<path d="M126.57 161.79H119.52V168.77H126.57V161.79Z" fill="#AD17AD"/>
<path d="M126.57 154.73H119.52V161.78H126.57V154.73Z" fill="#AD17AD"/>
<path d="M126.57 147.69H119.52V154.73H126.57V147.69Z" fill="#AD17AD"/>
<path d="M126.57 140.7H119.52V147.68H126.57V140.7Z" fill="#AD17AD"/>
<path d="M126.57 133.65H119.52V140.7H126.57V133.65Z" fill="#500256"/>
<path d="M126.57 126.67H119.52V133.65H126.57V126.67Z" fill="#500256"/>
<path d="M126.57 119.62H119.52V126.67H126.57V119.62Z" fill="#500256"/>
<path d="M126.57 112.64H119.52V119.62H126.57V112.64Z" fill="#500256"/>
<path d="M126.57 105.59H119.52V112.64H126.57V105.59Z" fill="#500256"/>
<path d="M126.57 98.6099H119.52V105.59H126.57V98.6099Z" fill="#500256"/>
<path d="M126.57 91.5601H119.52V98.6101H126.57V91.5601Z" fill="#63036D"/>
<path d="M126.57 84.5103H119.52V91.5603H126.57V84.5103Z" fill="#63036D"/>
<path d="M126.57 77.5303H119.52V84.5103H126.57V77.5303Z" fill="black"/>
<path d="M126.57 70.48H119.52V77.53H126.57V70.48Z" fill="#873810"/>
<path d="M126.57 63.5H119.52V70.48H126.57V63.5Z" fill="#F49364"/>
<path d="M126.57 56.4502H119.52V63.5002H126.57V56.4502Z" fill="#F49364"/>
<path d="M126.57 49.4702H119.52V56.4502H126.57V49.4702Z" fill="#873810"/>
<path d="M126.57 42.4199H119.52V49.4699H126.57V42.4199Z" fill="black"/>
<path d="M126.57 35.3701H119.52V42.4201H126.57V35.3701Z" fill="#AD17AD"/>
<path d="M126.57 28.3901H119.52V35.3701H126.57V28.3901Z" fill="#AD17AD"/>
<path d="M126.57 21.3398H119.52V28.3898H126.57V21.3398Z" fill="#8A0391"/>
<path d="M126.57 14.3599H119.52V21.3399H126.57V14.3599Z" fill="#AD17AD"/>
<path d="M126.57 7.30029H119.52V14.3503H126.57V7.30029Z" fill="#AD17AD"/>
<path d="M126.57 0.330078H119.52V7.31007H126.57V0.330078Z" fill="black"/>
<path d="M119.521 182.8H112.541V189.84H119.521V182.8Z" fill="#570459"/>
<path d="M119.521 175.82H112.541V182.8H119.521V175.82Z" fill="#8A0391"/>
<path d="M119.521 168.76H112.541V175.81H119.521V168.76Z" fill="#AD17AD"/>
<path d="M119.521 161.79H112.541V168.77H119.521V161.79Z" fill="#AD17AD"/>
<path d="M119.521 154.73H112.541V161.78H119.521V154.73Z" fill="#AD17AD"/>
<path d="M119.521 147.69H112.541V154.73H119.521V147.69Z" fill="#AD17AD"/>
<path d="M119.521 140.7H112.541V147.68H119.521V140.7Z" fill="#AD17AD"/>
<path d="M119.521 133.65H112.541V140.7H119.521V133.65Z" fill="#500256"/>
<path d="M119.521 126.67H112.541V133.65H119.521V126.67Z" fill="#63036D"/>
<path d="M119.521 119.62H112.541V126.67H119.521V119.62Z" fill="#500256"/>
<path d="M119.521 112.64H112.541V119.62H119.521V112.64Z" fill="#63036D"/>
<path d="M119.521 105.59H112.541V112.64H119.521V105.59Z" fill="#63036D"/>
<path d="M119.521 98.6099H112.541V105.59H119.521V98.6099Z" fill="#63036D"/>
<path d="M119.521 91.5601H112.541V98.6101H119.521V91.5601Z" fill="#63036D"/>
<path d="M119.521 84.5103H112.541V91.5603H119.521V84.5103Z" fill="black"/>
<path d="M119.521 77.5303H112.541V84.5103H119.521V77.5303Z" fill="#873810"/>
<path d="M119.521 70.48H112.541V77.53H119.521V70.48Z" fill="#F49364"/>
<path d="M119.521 63.5H112.541V70.48H119.521V63.5Z" fill="#FFEFD3"/>
<path d="M119.521 56.4502H112.541V63.5002H119.521V56.4502Z" fill="#FFEFD3"/>
<path d="M119.521 49.4702H112.541V56.4502H119.521V49.4702Z" fill="#F49364"/>
<path d="M119.521 42.4199H112.541V49.4699H119.521V42.4199Z" fill="black"/>
<path d="M119.521 35.3701H112.541V42.4201H119.521V35.3701Z" fill="#AD17AD"/>
<path d="M119.521 28.3901H112.541V35.3701H119.521V28.3901Z" fill="#AD17AD"/>
<path d="M119.521 21.3398H112.541V28.3898H119.521V21.3398Z" fill="#AD17AD"/>
<path d="M119.521 14.3599H112.541V21.3399H119.521V14.3599Z" fill="#AD17AD"/>
<path d="M119.521 7.30029H112.541V14.3503H119.521V7.30029Z" fill="#AD17AD"/>
<path d="M119.521 0.330078H112.541V7.31007H119.521V0.330078Z" fill="black"/>
<path d="M112.54 224.96H105.49V231.94H112.54V224.96Z" fill="black"/>
<path d="M112.54 217.91H105.49V224.96H112.54V217.91Z" fill="black"/>
<path d="M112.54 210.93H105.49V217.91H112.54V210.93Z" fill="black"/>
<path d="M112.54 203.88H105.49V210.93H112.54V203.88Z" fill="black"/>
<path d="M112.54 196.83H105.49V203.87H112.54V196.83Z" fill="black"/>
<path d="M112.54 189.84H105.49V196.83H112.54V189.84Z" fill="black"/>
<path d="M112.54 182.8H105.49V189.84H112.54V182.8Z" fill="black"/>
<path d="M112.54 175.82H105.49V182.8H112.54V175.82Z" fill="#570459"/>
<path d="M112.54 168.76H105.49V175.81H112.54V168.76Z" fill="#8A0391"/>
<path d="M112.54 161.79H105.49V168.77H112.54V161.79Z" fill="#AD17AD"/>
<path d="M112.54 154.73H105.49V161.78H112.54V154.73Z" fill="#AD17AD"/>
<path d="M112.54 147.69H105.49V154.73H112.54V147.69Z" fill="#AD17AD"/>
<path d="M112.54 140.7H105.49V147.68H112.54V140.7Z" fill="#AD17AD"/>
<path d="M112.54 133.65H105.49V140.7H112.54V133.65Z" fill="#500256"/>
<path d="M112.54 126.67H105.49V133.65H112.54V126.67Z" fill="#63036D"/>
<path d="M112.54 119.62H105.49V126.67H112.54V119.62Z" fill="#500256"/>
<path d="M112.54 112.64H105.49V119.62H112.54V112.64Z" fill="#63036D"/>
<path d="M112.54 105.59H105.49V112.64H112.54V105.59Z" fill="#63036D"/>
<path d="M112.54 98.6099H105.49V105.59H112.54V98.6099Z" fill="#63036D"/>
<path d="M112.54 91.5601H105.49V98.6101H112.54V91.5601Z" fill="black"/>
<path d="M112.54 84.5103H105.49V91.5603H112.54V84.5103Z" fill="#F49364"/>
<path d="M112.54 77.5303H105.49V84.5103H112.54V77.5303Z" fill="#873810"/>
<path d="M112.54 70.48H105.49V77.53H112.54V70.48Z" fill="#FFEFD3"/>
<path d="M112.54 63.5H105.49V70.48H112.54V63.5Z" fill="#FFEFD3"/>
<path d="M112.54 56.4502H105.49V63.5002H112.54V56.4502Z" fill="#FFEFD3"/>
<path d="M112.54 49.4702H105.49V56.4502H112.54V49.4702Z" fill="black"/>
<path d="M112.54 42.4199H105.49V49.4699H112.54V42.4199Z" fill="#AD17AD"/>
<path d="M112.54 35.3701H105.49V42.4201H112.54V35.3701Z" fill="#AD17AD"/>
<path d="M112.54 28.3901H105.49V35.3701H112.54V28.3901Z" fill="#AD17AD"/>
<path d="M112.54 21.3398H105.49V28.3898H112.54V21.3398Z" fill="#AD17AD"/>
<path d="M112.54 14.3599H105.49V21.3399H112.54V14.3599Z" fill="#AD17AD"/>
<path d="M112.54 7.30029H105.49V14.3503H112.54V7.30029Z" fill="#AD17AD"/>
<path d="M112.54 0.330078H105.49V7.31007H112.54V0.330078Z" fill="black"/>
<path d="M105.49 224.96H98.5098V231.94H105.49V224.96Z" fill="black"/>
<path d="M105.49 217.91H98.5098V224.96H105.49V217.91Z" fill="#3C4360"/>
<path d="M105.49 210.93H98.5098V217.91H105.49V210.93Z" fill="#3C4360"/>
<path d="M105.49 203.88H98.5098V210.93H105.49V203.88Z" fill="#3C4360"/>
<path d="M105.49 196.83H98.5098V203.87H105.49V196.83Z" fill="black"/>
<path d="M105.49 189.84H98.5098V196.83H105.49V189.84Z" fill="#3C4360"/>
<path d="M105.49 182.8H98.5098V189.84H105.49V182.8Z" fill="#570459"/>
<path d="M105.49 175.82H98.5098V182.8H105.49V175.82Z" fill="#8A0391"/>
<path d="M105.49 168.76H98.5098V175.81H105.49V168.76Z" fill="#570459"/>
<path d="M105.49 161.79H98.5098V168.77H105.49V161.79Z" fill="#8A0391"/>
<path d="M105.49 154.73H98.5098V161.78H105.49V154.73Z" fill="#AD17AD"/>
<path d="M105.49 147.69H98.5098V154.73H105.49V147.69Z" fill="#AD17AD"/>
<path d="M105.49 140.7H98.5098V147.68H105.49V140.7Z" fill="#AD17AD"/>
<path d="M105.49 133.65H98.5098V140.7H105.49V133.65Z" fill="#500256"/>
<path d="M105.49 126.67H98.5098V133.65H105.49V126.67Z" fill="#500256"/>
<path d="M105.49 119.62H98.5098V126.67H105.49V119.62Z" fill="#500256"/>
<path d="M105.49 112.64H98.5098V119.62H105.49V112.64Z" fill="#500256"/>
<path d="M105.49 105.59H98.5098V112.64H105.49V105.59Z" fill="#500256"/>
<path d="M105.49 98.6099H98.5098V105.59H105.49V98.6099Z" fill="#500256"/>
<path d="M105.49 91.5601H98.5098V98.6101H105.49V91.5601Z" fill="black"/>
<path d="M105.49 84.5103H98.5098V91.5603H105.49V84.5103Z" fill="#F49364"/>
<path d="M105.49 77.5303H98.5098V84.5103H105.49V77.5303Z" fill="#873810"/>
<path d="M105.49 70.48H98.5098V77.53H105.49V70.48Z" fill="#FFEFD3"/>
<path d="M105.49 63.5H98.5098V70.48H105.49V63.5Z" fill="#FFEFD3"/>
<path d="M105.49 56.4502H98.5098V63.5002H105.49V56.4502Z" fill="#FFEFD3"/>
<path d="M105.49 49.4702H98.5098V56.4502H105.49V49.4702Z" fill="black"/>
<path d="M105.49 42.4199H98.5098V49.4699H105.49V42.4199Z" fill="#AD17AD"/>
<path d="M105.49 35.3701H98.5098V42.4201H105.49V35.3701Z" fill="#AD17AD"/>
<path d="M105.49 28.3901H98.5098V35.3701H105.49V28.3901Z" fill="#8A0391"/>
<path d="M105.49 21.3398H98.5098V28.3898H105.49V21.3398Z" fill="#AD17AD"/>
<path d="M105.49 14.3599H98.5098V21.3399H105.49V14.3599Z" fill="#AD17AD"/>
<path d="M105.49 7.30029H98.5098V14.3503H105.49V7.30029Z" fill="#AD17AD"/>
<path d="M105.49 0.330078H98.5098V7.31007H105.49V0.330078Z" fill="black"/>
<path d="M98.5109 224.96H91.4609V231.94H98.5109V224.96Z" fill="black"/>
<path d="M98.5109 217.91H91.4609V224.96H98.5109V217.91Z" fill="#3C4360"/>
<path d="M98.5109 210.93H91.4609V217.91H98.5109V210.93Z" fill="#3C4360"/>
<path d="M98.5109 203.88H91.4609V210.93H98.5109V203.88Z" fill="#3C4360"/>
<path d="M98.5109 196.83H91.4609V203.87H98.5109V196.83Z" fill="black"/>
<path d="M98.5109 189.84H91.4609V196.83H98.5109V189.84Z" fill="#3C4360"/>
<path d="M98.5109 182.8H91.4609V189.84H98.5109V182.8Z" fill="#570459"/>
<path d="M98.5109 175.82H91.4609V182.8H98.5109V175.82Z" fill="#8A0391"/>
<path d="M98.5109 168.76H91.4609V175.81H98.5109V168.76Z" fill="#AD17AD"/>
<path d="M98.5109 161.79H91.4609V168.77H98.5109V161.79Z" fill="#570459"/>
<path d="M98.5109 154.73H91.4609V161.78H98.5109V154.73Z" fill="#570459"/>
<path d="M98.5109 147.69H91.4609V154.73H98.5109V147.69Z" fill="#AD17AD"/>
<path d="M98.5109 140.7H91.4609V147.68H98.5109V140.7Z" fill="#AD17AD"/>
<path d="M98.5109 133.65H91.4609V140.7H98.5109V133.65Z" fill="#500256"/>
<path d="M98.5109 126.67H91.4609V133.65H98.5109V126.67Z" fill="#500256"/>
<path d="M98.5109 119.62H91.4609V126.67H98.5109V119.62Z" fill="#500256"/>
<path d="M98.5109 112.64H91.4609V119.62H98.5109V112.64Z" fill="#500256"/>
<path d="M98.5109 105.59H91.4609V112.64H98.5109V105.59Z" fill="#500256"/>
<path d="M98.5109 98.6099H91.4609V105.59H98.5109V98.6099Z" fill="#500256"/>
<path d="M98.5109 91.5601H91.4609V98.6101H98.5109V91.5601Z" fill="black"/>
<path d="M98.5109 84.5103H91.4609V91.5603H98.5109V84.5103Z" fill="#500256"/>
<path d="M98.5109 77.5303H91.4609V84.5103H98.5109V77.5303Z" fill="black"/>
<path d="M98.5109 70.48H91.4609V77.53H98.5109V70.48Z" fill="#FFEFD3"/>
<path d="M98.5109 63.5H91.4609V70.48H98.5109V63.5Z" fill="#FFEFD3"/>
<path d="M98.5109 56.4502H91.4609V63.5002H98.5109V56.4502Z" fill="#FFEFD3"/>
<path d="M98.5109 49.4702H91.4609V56.4502H98.5109V49.4702Z" fill="black"/>
<path d="M98.5109 42.4199H91.4609V49.4699H98.5109V42.4199Z" fill="#AD17AD"/>
<path d="M98.5109 35.3701H91.4609V42.4201H98.5109V35.3701Z" fill="#AD17AD"/>
<path d="M98.5109 28.3901H91.4609V35.3701H98.5109V28.3901Z" fill="#8A0391"/>
<path d="M98.5109 21.3398H91.4609V28.3898H98.5109V21.3398Z" fill="#AD17AD"/>
<path d="M98.5109 14.3599H91.4609V21.3399H98.5109V14.3599Z" fill="#AD17AD"/>
<path d="M98.5109 7.30029H91.4609V14.3503H98.5109V7.30029Z" fill="black"/>
<path d="M91.4602 224.96H84.4102V231.94H91.4602V224.96Z" fill="black"/>
<path d="M91.4602 217.91H84.4102V224.96H91.4602V217.91Z" fill="#3C4360"/>
<path d="M91.4602 210.93H84.4102V217.91H91.4602V210.93Z" fill="black"/>
<path d="M91.4602 203.88H84.4102V210.93H91.4602V203.88Z" fill="black"/>
<path d="M91.4602 196.83H84.4102V203.87H91.4602V196.83Z" fill="black"/>
<path d="M91.4602 189.84H84.4102V196.83H91.4602V189.84Z" fill="#3C4360"/>
<path d="M91.4602 182.8H84.4102V189.84H91.4602V182.8Z" fill="#570459"/>
<path d="M91.4602 175.82H84.4102V182.8H91.4602V175.82Z" fill="#8A0391"/>
<path d="M91.4602 168.76H84.4102V175.81H91.4602V168.76Z" fill="#AD17AD"/>
<path d="M91.4602 161.79H84.4102V168.77H91.4602V161.79Z" fill="#AD17AD"/>
<path d="M91.4602 154.73H84.4102V161.78H91.4602V154.73Z" fill="#AD17AD"/>
<path d="M91.4602 147.69H84.4102V154.73H91.4602V147.69Z" fill="#AD17AD"/>
<path d="M91.4602 140.7H84.4102V147.68H91.4602V140.7Z" fill="#AD17AD"/>
<path d="M91.4602 133.65H84.4102V140.7H91.4602V133.65Z" fill="#500256"/>
<path d="M91.4602 126.67H84.4102V133.65H91.4602V126.67Z" fill="#500256"/>
<path d="M91.4602 119.62H84.4102V126.67H91.4602V119.62Z" fill="#500256"/>
<path d="M91.4602 112.64H84.4102V119.62H91.4602V112.64Z" fill="#500256"/>
<path d="M91.4602 105.59H84.4102V112.64H91.4602V105.59Z" fill="#500256"/>
<path d="M91.4602 98.6099H84.4102V105.59H91.4602V98.6099Z" fill="#500256"/>
<path d="M91.4602 91.5601H84.4102V98.6101H91.4602V91.5601Z" fill="#500256"/>
<path d="M91.4602 84.5103H84.4102V91.5603H91.4602V84.5103Z" fill="black"/>
<path d="M91.4602 77.5303H84.4102V84.5103H91.4602V77.5303Z" fill="black"/>
<path d="M91.4602 70.48H84.4102V77.53H91.4602V70.48Z" fill="black"/>
<path d="M91.4602 63.5H84.4102V70.48H91.4602V63.5Z" fill="black"/>
<path d="M91.4602 56.4502H84.4102V63.5002H91.4602V56.4502Z" fill="black"/>
<path d="M91.4602 49.4702H84.4102V56.4502H91.4602V49.4702Z" fill="black"/>
<path d="M91.4602 42.4199H84.4102V49.4699H91.4602V42.4199Z" fill="#AD17AD"/>
<path d="M91.4602 35.3701H84.4102V42.4201H91.4602V35.3701Z" fill="#AD17AD"/>
<path d="M91.4602 28.3901H84.4102V35.3701H91.4602V28.3901Z" fill="#8A0391"/>
<path d="M91.4602 21.3398H84.4102V28.3898H91.4602V21.3398Z" fill="#AD17AD"/>
<path d="M91.4602 14.3599H84.4102V21.3399H91.4602V14.3599Z" fill="black"/>
<path d="M84.4097 224.96H77.4297V231.94H84.4097V224.96Z" fill="black"/>
<path d="M84.4097 217.91H77.4297V224.96H84.4097V217.91Z" fill="black"/>
<path d="M84.4097 189.84H77.4297V196.83H84.4097V189.84Z" fill="black"/>
<path d="M84.4097 182.8H77.4297V189.84H84.4097V182.8Z" fill="black"/>
<path d="M84.4097 175.82H77.4297V182.8H84.4097V175.82Z" fill="#8A0391"/>
<path d="M84.4097 168.76H77.4297V175.81H84.4097V168.76Z" fill="#AD17AD"/>
<path d="M84.4097 161.79H77.4297V168.77H84.4097V161.79Z" fill="#AD17AD"/>
<path d="M84.4097 154.73H77.4297V161.78H84.4097V154.73Z" fill="#AD17AD"/>
<path d="M84.4097 147.69H77.4297V154.73H84.4097V147.69Z" fill="#AD17AD"/>
<path d="M84.4097 140.7H77.4297V147.68H84.4097V140.7Z" fill="#AD17AD"/>
<path d="M84.4097 133.65H77.4297V140.7H84.4097V133.65Z" fill="black"/>
<path d="M84.4097 126.67H77.4297V133.65H84.4097V126.67Z" fill="black"/>
<path d="M84.4097 119.62H77.4297V126.67H84.4097V119.62Z" fill="black"/>
<path d="M84.4097 112.64H77.4297V119.62H84.4097V112.64Z" fill="black"/>
<path d="M84.4097 105.59H77.4297V112.64H84.4097V105.59Z" fill="black"/>
<path d="M84.4097 98.6099H77.4297V105.59H84.4097V98.6099Z" fill="black"/>
<path d="M84.4097 91.5601H77.4297V98.6101H84.4097V91.5601Z" fill="black"/>
<path d="M84.4097 84.5103H77.4297V91.5603H84.4097V84.5103Z" fill="black"/>
<path d="M84.4097 49.4702H77.4297V56.4502H84.4097V49.4702Z" fill="black"/>
<path d="M84.4097 42.4199H77.4297V49.4699H84.4097V42.4199Z" fill="#AD17AD"/>
<path d="M84.4097 35.3701H77.4297V42.4201H84.4097V35.3701Z" fill="#AD17AD"/>
<path d="M84.4097 28.3901H77.4297V35.3701H84.4097V28.3901Z" fill="#8A0391"/>
<path d="M84.4097 21.3398H77.4297V28.3898H84.4097V21.3398Z" fill="black"/>
<path d="M77.4308 175.82H70.3809V182.8H77.4308V175.82Z" fill="black"/>
<path d="M77.4308 168.76H70.3809V175.81H77.4308V168.76Z" fill="black"/>
<path d="M77.4308 161.79H70.3809V168.77H77.4308V161.79Z" fill="black"/>
<path d="M77.4308 154.73H70.3809V161.78H77.4308V154.73Z" fill="black"/>
<path d="M77.4308 147.69H70.3809V154.73H77.4308V147.69Z" fill="black"/>
<path d="M77.4308 140.7H70.3809V147.68H77.4308V140.7Z" fill="black"/>
<path d="M77.4308 119.62H70.3809V126.67H77.4308V119.62Z" fill="black"/>
<path d="M77.4308 112.64H70.3809V119.62H77.4308V112.64Z" fill="#8A0391"/>
<path d="M77.4308 105.59H70.3809V112.64H77.4308V105.59Z" fill="#8A0391"/>
<path d="M77.4308 98.6099H70.3809V105.59H77.4308V98.6099Z" fill="#8A0391"/>
<path d="M77.4308 91.5601H70.3809V98.6101H77.4308V91.5601Z" fill="black"/>
<path d="M77.4308 49.4702H70.3809V56.4502H77.4308V49.4702Z" fill="black"/>
<path d="M77.4308 42.4199H70.3809V49.4699H77.4308V42.4199Z" fill="#AD17AD"/>
<path d="M77.4308 35.3701H70.3809V42.4201H77.4308V35.3701Z" fill="#AD17AD"/>
<path d="M77.4308 28.3901H70.3809V35.3701H77.4308V28.3901Z" fill="black"/>
<path d="M70.3804 126.67H63.4004V133.65H70.3804V126.67Z" fill="black"/>
<path d="M70.3804 119.62H63.4004V126.67H70.3804V119.62Z" fill="#8A0391"/>
<path d="M70.3804 112.64H63.4004V119.62H70.3804V112.64Z" fill="#8A0391"/>
<path d="M70.3804 105.59H63.4004V112.64H70.3804V105.59Z" fill="#8A0391"/>
<path d="M70.3804 98.6099H63.4004V105.59H70.3804V98.6099Z" fill="black"/>
<path d="M70.3804 42.4199H63.4004V49.4699H70.3804V42.4199Z" fill="black"/>
<path d="M70.3804 35.3701H63.4004V42.4201H70.3804V35.3701Z" fill="black"/>
<path d="M63.3996 196.83H56.3496V203.87H63.3996V196.83Z" fill="black"/>
<path d="M63.3996 189.84H56.3496V196.83H63.3996V189.84Z" fill="black"/>
<path d="M63.3996 126.67H56.3496V133.65H63.3996V126.67Z" fill="black"/>
<path d="M63.3996 119.62H56.3496V126.67H63.3996V119.62Z" fill="#8A0391"/>
<path d="M63.3996 112.64H56.3496V119.62H63.3996V112.64Z" fill="#8A0391"/>
<path d="M63.3996 105.59H56.3496V112.64H63.3996V105.59Z" fill="black"/>
<path d="M63.3996 21.3398H56.3496V28.3898H63.3996V21.3398Z" fill="black"/>
<path d="M63.3996 14.3599H56.3496V21.3399H63.3996V14.3599Z" fill="black"/>
<path d="M56.3511 203.88H49.3711V210.93H56.3511V203.88Z" fill="black"/>
<path d="M56.3511 196.83H49.3711V203.87H56.3511V196.83Z" fill="#B8602D"/>
<path d="M56.3511 189.84H49.3711V196.83H56.3511V189.84Z" fill="#FFEFD3"/>
<path d="M56.3511 182.8H49.3711V189.84H56.3511V182.8Z" fill="#FFEFD3"/>
<path d="M56.3511 175.82H49.3711V182.8H56.3511V175.82Z" fill="#FFEFD3"/>
<path d="M56.3511 168.76H49.3711V175.81H56.3511V168.76Z" fill="#FFEFD3"/>
<path d="M56.3511 161.79H49.3711V168.77H56.3511V161.79Z" fill="#FFEFD3"/>
<path d="M56.3511 154.73H49.3711V161.78H56.3511V154.73Z" fill="#FFEFD3"/>
<path d="M56.3511 147.69H49.3711V154.73H56.3511V147.69Z" fill="#FFEFD3"/>
<path d="M56.3511 140.7H49.3711V147.68H56.3511V140.7Z" fill="#FFEFD3"/>
<path d="M56.3511 133.65H49.3711V140.7H56.3511V133.65Z" fill="#FFEFD3"/>
<path d="M56.3511 126.67H49.3711V133.65H56.3511V126.67Z" fill="#FFEFD3"/>
<path d="M56.3511 119.62H49.3711V126.67H56.3511V119.62Z" fill="#FFEFD3"/>
<path d="M56.3511 112.64H49.3711V119.62H56.3511V112.64Z" fill="#FFEFD3"/>
<path d="M56.3511 105.59H49.3711V112.64H56.3511V105.59Z" fill="#FFEFD3"/>
<path d="M56.3511 98.6099H49.3711V105.59H56.3511V98.6099Z" fill="#FFEFD3"/>
<path d="M56.3511 91.5601H49.3711V98.6101H56.3511V91.5601Z" fill="#FFEFD3"/>
<path d="M56.3511 84.5103H49.3711V91.5603H56.3511V84.5103Z" fill="#FFEFD3"/>
<path d="M56.3511 77.5303H49.3711V84.5103H56.3511V77.5303Z" fill="#FFEFD3"/>
<path d="M56.3511 70.48H49.3711V77.53H56.3511V70.48Z" fill="#FFEFD3"/>
<path d="M56.3511 63.5H49.3711V70.48H56.3511V63.5Z" fill="#FFEFD3"/>
<path d="M56.3511 56.4502H49.3711V63.5002H56.3511V56.4502Z" fill="#FFEFD3"/>
<path d="M56.3511 49.4702H49.3711V56.4502H56.3511V49.4702Z" fill="#FFEFD3"/>
<path d="M56.3511 42.4199H49.3711V49.4699H56.3511V42.4199Z" fill="#FFEFD3"/>
<path d="M56.3511 35.3701H49.3711V42.4201H56.3511V35.3701Z" fill="#FFEFD3"/>
<path d="M56.3511 28.3901H49.3711V35.3701H56.3511V28.3901Z" fill="#FFEFD3"/>
<path d="M56.3511 21.3398H49.3711V28.3898H56.3511V21.3398Z" fill="#FFEFD3"/>
<path d="M56.3511 14.3599H49.3711V21.3399H56.3511V14.3599Z" fill="#B8602D"/>
<path d="M56.3511 7.30029H49.3711V14.3503H56.3511V7.30029Z" fill="black"/>
<path d="M49.3703 196.83H42.3203V203.87H49.3703V196.83Z" fill="black"/>
<path d="M49.3703 189.84H42.3203V196.83H49.3703V189.84Z" fill="black"/>
<path d="M49.3703 182.8H42.3203V189.84H49.3703V182.8Z" fill="#B8602D"/>
<path d="M49.3703 175.82H42.3203V182.8H49.3703V175.82Z" fill="#B8602D"/>
<path d="M49.3703 168.76H42.3203V175.81H49.3703V168.76Z" fill="black"/>
<path d="M49.3703 126.67H42.3203V133.65H49.3703V126.67Z" fill="black"/>
<path d="M49.3703 119.62H42.3203V126.67H49.3703V119.62Z" fill="#8A0391"/>
<path d="M49.3703 112.64H42.3203V119.62H49.3703V112.64Z" fill="#8A0391"/>
<path d="M49.3703 105.59H42.3203V112.64H49.3703V105.59Z" fill="black"/>
<path d="M49.3703 42.4199H42.3203V49.4699H49.3703V42.4199Z" fill="black"/>
<path d="M49.3703 35.3701H42.3203V42.4201H49.3703V35.3701Z" fill="#B8602D"/>
<path d="M49.3703 28.3901H42.3203V35.3701H49.3703V28.3901Z" fill="#B8602D"/>
<path d="M49.3703 21.3398H42.3203V28.3898H49.3703V21.3398Z" fill="black"/>
<path d="M49.3703 14.3599H42.3203V21.3399H49.3703V14.3599Z" fill="black"/>
<path d="M42.3195 182.8H35.2695V189.84H42.3195V182.8Z" fill="black"/>
<path d="M42.3195 175.82H35.2695V182.8H42.3195V175.82Z" fill="#B8602D"/>
<path d="M42.3195 168.76H35.2695V175.81H42.3195V168.76Z" fill="#B8602D"/>
<path d="M42.3195 161.79H35.2695V168.77H42.3195V161.79Z" fill="black"/>
<path d="M42.3195 126.67H35.2695V133.65H42.3195V126.67Z" fill="black"/>
<path d="M42.3195 119.62H35.2695V126.67H42.3195V119.62Z" fill="#873810"/>
<path d="M42.3195 112.64H35.2695V119.62H42.3195V112.64Z" fill="black"/>
<path d="M42.3195 105.59H35.2695V112.64H42.3195V105.59Z" fill="#873810"/>
<path d="M42.3195 49.4702H35.2695V56.4502H42.3195V49.4702Z" fill="black"/>
<path d="M42.3195 42.4199H35.2695V49.4699H42.3195V42.4199Z" fill="#B8602D"/>
<path d="M42.3195 35.3701H35.2695V42.4201H42.3195V35.3701Z" fill="#B8602D"/>
<path d="M42.3195 28.3901H35.2695V35.3701H42.3195V28.3901Z" fill="black"/>
<path d="M35.271 175.82H28.291V182.8H35.271V175.82Z" fill="black"/>
<path d="M35.271 168.76H28.291V175.81H35.271V168.76Z" fill="#B8602D"/>
<path d="M35.271 161.79H28.291V168.77H35.271V161.79Z" fill="#B8602D"/>
<path d="M35.271 154.73H28.291V161.78H35.271V154.73Z" fill="black"/>
<path d="M35.271 147.69H28.291V154.73H35.271V147.69Z" fill="black"/>
<path d="M35.271 126.67H28.291V133.65H35.271V126.67Z" fill="black"/>
<path d="M35.271 119.62H28.291V126.67H35.271V119.62Z" fill="#873810"/>
<path d="M35.271 112.64H28.291V119.62H35.271V112.64Z" fill="#F49364"/>
<path d="M35.271 105.59H28.291V112.64H35.271V105.59Z" fill="black"/>
<path d="M35.271 63.5H28.291V70.48H35.271V63.5Z" fill="black"/>
<path d="M35.271 56.4502H28.291V63.5002H35.271V56.4502Z" fill="black"/>
<path d="M35.271 49.4702H28.291V56.4502H35.271V49.4702Z" fill="#B8602D"/>
<path d="M35.271 42.4199H28.291V49.4699H35.271V42.4199Z" fill="#B8602D"/>
<path d="M35.271 35.3701H28.291V42.4201H35.271V35.3701Z" fill="black"/>
<path d="M28.2902 168.76H21.2402V175.81H28.2902V168.76Z" fill="black"/>
<path d="M28.2902 161.79H21.2402V168.77H28.2902V161.79Z" fill="#B8602D"/>
<path d="M28.2902 154.73H21.2402V161.78H28.2902V154.73Z" fill="#B8602D"/>
<path d="M28.2902 147.69H21.2402V154.73H28.2902V147.69Z" fill="#B8602D"/>
<path d="M28.2902 140.7H21.2402V147.68H28.2902V140.7Z" fill="black"/>
<path d="M28.2902 133.65H21.2402V140.7H28.2902V133.65Z" fill="black"/>
<path d="M28.2902 126.67H21.2402V133.65H28.2902V126.67Z" fill="black"/>
<path d="M28.2902 119.62H21.2402V126.67H28.2902V119.62Z" fill="black"/>
<path d="M28.2902 112.64H21.2402V119.62H28.2902V112.64Z" fill="#873810"/>
<path d="M28.2902 105.59H21.2402V112.64H28.2902V105.59Z" fill="#F49364"/>
<path d="M28.2902 98.6099H21.2402V105.59H28.2902V98.6099Z" fill="black"/>
<path d="M28.2902 91.5601H21.2402V98.6101H28.2902V91.5601Z" fill="black"/>
<path d="M28.2902 84.5103H21.2402V91.5603H28.2902V84.5103Z" fill="black"/>
<path d="M28.2902 77.5303H21.2402V84.5103H28.2902V77.5303Z" fill="black"/>
<path d="M28.2902 70.48H21.2402V77.53H28.2902V70.48Z" fill="black"/>
<path d="M28.2902 63.5H21.2402V70.48H28.2902V63.5Z" fill="#B8602D"/>
<path d="M28.2902 56.4502H21.2402V63.5002H28.2902V56.4502Z" fill="#B8602D"/>
<path d="M28.2902 49.4702H21.2402V56.4502H28.2902V49.4702Z" fill="#B8602D"/>
<path d="M28.2902 42.4199H21.2402V49.4699H28.2902V42.4199Z" fill="black"/>
<path d="M21.2398 161.79H14.2598V168.77H21.2398V161.79Z" fill="black"/>
<path d="M21.2398 154.73H14.2598V161.78H21.2398V154.73Z" fill="black"/>
<path d="M21.2398 147.69H14.2598V154.73H21.2398V147.69Z" fill="#B8602D"/>
<path d="M21.2398 140.7H14.2598V147.68H21.2398V140.7Z" fill="#B8602D"/>
<path d="M21.2398 133.65H14.2598V140.7H21.2398V133.65Z" fill="#B8602D"/>
<path d="M21.2398 126.67H14.2598V133.65H21.2398V126.67Z" fill="#B8602D"/>
<path d="M21.2398 119.62H14.2598V126.67H21.2398V119.62Z" fill="#B8602D"/>
<path d="M21.2398 112.64H14.2598V119.62H21.2398V112.64Z" fill="#873810"/>
<path d="M21.2398 105.59H14.2598V112.64H21.2398V105.59Z" fill="#873810"/>
<path d="M21.2398 98.6099H14.2598V105.59H21.2398V98.6099Z" fill="#B8602D"/>
<path d="M21.2398 91.5601H14.2598V98.6101H21.2398V91.5601Z" fill="#B8602D"/>
<path d="M21.2398 84.5103H14.2598V91.5603H21.2398V84.5103Z" fill="#B8602D"/>
<path d="M21.2398 77.5303H14.2598V84.5103H21.2398V77.5303Z" fill="#B8602D"/>
<path d="M21.2398 70.48H14.2598V77.53H21.2398V70.48Z" fill="#B8602D"/>
<path d="M21.2398 63.5H14.2598V70.48H21.2398V63.5Z" fill="#B8602D"/>
<path d="M21.2398 56.4502H14.2598V63.5002H21.2398V56.4502Z" fill="black"/>
<path d="M21.2398 49.4702H14.2598V56.4502H21.2398V49.4702Z" fill="black"/>
<path d="M14.2609 147.69H7.21094V154.73H14.2609V147.69Z" fill="black"/>
<path d="M14.2609 140.7H7.21094V147.68H14.2609V140.7Z" fill="black"/>
<path d="M14.2609 133.65H7.21094V140.7H14.2609V133.65Z" fill="black"/>
<path d="M14.2609 126.67H7.21094V133.65H14.2609V126.67Z" fill="black"/>
<path d="M14.2609 119.62H7.21094V126.67H14.2609V119.62Z" fill="#F49364"/>
<path d="M14.2609 112.64H7.21094V119.62H14.2609V112.64Z" fill="#F49364"/>
<path d="M14.2609 105.59H7.21094V112.64H14.2609V105.59Z" fill="#F49364"/>
<path d="M14.2609 98.6099H7.21094V105.59H14.2609V98.6099Z" fill="black"/>
<path d="M14.2609 91.5601H7.21094V98.6101H14.2609V91.5601Z" fill="black"/>
<path d="M14.2609 84.5103H7.21094V91.5603H14.2609V84.5103Z" fill="black"/>
<path d="M14.2609 77.5303H7.21094V84.5103H14.2609V77.5303Z" fill="black"/>
<path d="M14.2609 70.48H7.21094V77.53H14.2609V70.48Z" fill="black"/>
<path d="M14.2609 63.5H7.21094V70.48H14.2609V63.5Z" fill="black"/>
<path d="M7.21046 119.62H0.230469V126.67H7.21046V119.62Z" fill="black"/>
<path d="M7.21046 112.64H0.230469V119.62H7.21046V112.64Z" fill="black"/>
<path d="M7.21046 105.59H0.230469V112.64H7.21046V105.59Z" fill="black"/>
</svg>
