<svg width="284" height="222" viewBox="0 0 284 222" fill="none" xmlns="http://www.w3.org/2000/svg">
<path d="M283.07 159.17H276.16V166.02H283.07V159.17Z" fill="black"/>
<path d="M276.17 166.01H269.32V172.92H276.17V166.01Z" fill="black"/>
<path d="M276.17 159.17H269.32V166.02H276.17V159.17Z" fill="#1E2A3F"/>
<path d="M276.17 152.25H269.32V159.16H276.17V152.25Z" fill="black"/>
<path d="M269.31 172.93H262.4V179.78H269.31V172.93Z" fill="black"/>
<path d="M269.31 166.01H262.4V172.92H269.31V166.01Z" fill="#2F384C"/>
<path d="M269.31 159.17H262.4V166.02H269.31V159.17Z" fill="#1E2A3F"/>
<path d="M269.31 152.25H262.4V159.16H269.31V152.25Z" fill="#1E2A3F"/>
<path d="M269.31 145.35H262.4V152.26H269.31V145.35Z" fill="black"/>
<path d="M262.411 166.01H255.561V172.92H262.411V166.01Z" fill="black"/>
<path d="M262.411 159.17H255.561V166.02H262.411V159.17Z" fill="#2F384C"/>
<path d="M262.411 152.25H255.561V159.16H262.411V152.25Z" fill="black"/>
<path d="M255.551 179.77H248.641V186.68H255.551V179.77Z" fill="black"/>
<path d="M255.551 172.93H248.641V179.78H255.551V172.93Z" fill="black"/>
<path d="M255.551 166.01H248.641V172.92H255.551V166.01Z" fill="#2F384C"/>
<path d="M255.551 159.17H248.641V166.02H255.551V159.17Z" fill="#2F384C"/>
<path d="M255.551 152.25H248.641V159.16H255.551V152.25Z" fill="#1E2A3F"/>
<path d="M255.551 145.35H248.641V152.26H255.551V145.35Z" fill="black"/>
<path d="M255.551 138.51H248.641V145.36H255.551V138.51Z" fill="black"/>
<path d="M248.661 186.69H241.811V193.54H248.661V186.69Z" fill="black"/>
<path d="M248.661 179.77H241.811V186.68H248.661V179.77Z" fill="#2F384C"/>
<path d="M248.661 172.93H241.811V179.78H248.661V172.93Z" fill="#2F384C"/>
<path d="M248.661 166.01H241.811V172.92H248.661V166.01Z" fill="#2F384C"/>
<path d="M248.661 159.17H241.811V166.02H248.661V159.17Z" fill="#2F384C"/>
<path d="M248.661 152.25H241.811V159.16H248.661V152.25Z" fill="#2F384C"/>
<path d="M248.661 145.35H241.811V152.26H248.661V145.35Z" fill="#1E2A3F"/>
<path d="M248.661 138.51H241.811V145.36H248.661V138.51Z" fill="#1E2A3F"/>
<path d="M248.661 131.59H241.811V138.5H248.661V131.59Z" fill="black"/>
<path d="M241.81 179.77H234.9V186.68H241.81V179.77Z" fill="black"/>
<path d="M241.81 172.93H234.9V179.78H241.81V172.93Z" fill="black"/>
<path d="M241.81 166.01H234.9V172.92H241.81V166.01Z" fill="black"/>
<path d="M241.81 159.17H234.9V166.02H241.81V159.17Z" fill="#2F384C"/>
<path d="M241.81 152.25H234.9V159.16H241.81V152.25Z" fill="black"/>
<path d="M241.81 145.35H234.9V152.26H241.81V145.35Z" fill="black"/>
<path d="M241.81 138.51H234.9V145.36H241.81V138.51Z" fill="black"/>
<path d="M234.901 166.01H228.051V172.92H234.901V166.01Z" fill="black"/>
<path d="M234.901 159.17H228.051V166.02H234.901V159.17Z" fill="#2F384C"/>
<path d="M234.901 152.25H228.051V159.16H234.901V152.25Z" fill="black"/>
<path d="M228.051 166.01H221.141V172.92H228.051V166.01Z" fill="black"/>
<path d="M228.051 159.17H221.141V166.02H228.051V159.17Z" fill="#2F384C"/>
<path d="M228.051 152.25H221.141V159.16H228.051V152.25Z" fill="black"/>
<path d="M228.051 97.2402H221.141V104.09H228.051V97.2402Z" fill="black"/>
<path d="M221.131 166.01H214.221V172.92H221.131V166.01Z" fill="black"/>
<path d="M221.131 159.17H214.221V166.02H221.131V159.17Z" fill="#2F384C"/>
<path d="M221.131 152.25H214.221V159.16H221.131V152.25Z" fill="black"/>
<path d="M221.131 104.09H214.221V111H221.131V104.09Z" fill="black"/>
<path d="M221.131 97.2402H214.221V104.09H221.131V97.2402Z" fill="#B25212"/>
<path d="M221.131 90.3301H214.221V97.2401H221.131V90.3301Z" fill="black"/>
<path d="M221.131 83.4102H214.221V90.3202H221.131V83.4102Z" fill="black"/>
<path d="M221.131 76.5698H214.221V83.4198H221.131V76.5698Z" fill="black"/>
<path d="M214.241 166.01H207.391V172.92H214.241V166.01Z" fill="black"/>
<path d="M214.241 159.17H207.391V166.02H214.241V159.17Z" fill="#2F384C"/>
<path d="M214.241 152.25H207.391V159.16H214.241V152.25Z" fill="black"/>
<path d="M214.241 138.51H207.391V145.36H214.241V138.51Z" fill="black"/>
<path d="M214.241 131.59H207.391V138.5H214.241V131.59Z" fill="black"/>
<path d="M214.241 124.75H207.391V131.6H214.241V124.75Z" fill="black"/>
<path d="M214.241 117.83H207.391V124.74H214.241V117.83Z" fill="black"/>
<path d="M214.241 104.09H207.391V111H214.241V104.09Z" fill="black"/>
<path d="M214.241 97.2402H207.391V104.09H214.241V97.2402Z" fill="#B25212"/>
<path d="M214.241 90.3301H207.391V97.2401H214.241V90.3301Z" fill="black"/>
<path d="M214.241 83.4102H207.391V90.3202H214.241V83.4102Z" fill="#404E89"/>
<path d="M214.241 76.5698H207.391V83.4198H214.241V76.5698Z" fill="#404E89"/>
<path d="M214.241 69.6699H207.391V76.5799H214.241V69.6699Z" fill="black"/>
<path d="M214.241 62.8198H207.391V69.6698H214.241V62.8198Z" fill="black"/>
<path d="M207.39 166.01H200.48V172.92H207.39V166.01Z" fill="black"/>
<path d="M207.39 159.17H200.48V166.02H207.39V159.17Z" fill="black"/>
<path d="M207.39 152.25H200.48V159.16H207.39V152.25Z" fill="black"/>
<path d="M207.39 145.35H200.48V152.26H207.39V145.35Z" fill="black"/>
<path d="M207.39 138.51H200.48V145.36H207.39V138.51Z" fill="#B25212"/>
<path d="M207.39 131.59H200.48V138.5H207.39V131.59Z" fill="#C1811B"/>
<path d="M207.39 124.75H200.48V131.6H207.39V124.75Z" fill="black"/>
<path d="M207.39 117.83H200.48V124.74H207.39V117.83Z" fill="#626CA0"/>
<path d="M207.39 111H200.48V117.85H207.39V111Z" fill="black"/>
<path d="M207.39 104.09H200.48V111H207.39V104.09Z" fill="#B25212"/>
<path d="M207.39 97.2402H200.48V104.09H207.39V97.2402Z" fill="#C1811B"/>
<path d="M207.39 90.3301H200.48V97.2401H207.39V90.3301Z" fill="black"/>
<path d="M207.39 83.4102H200.48V90.3202H207.39V83.4102Z" fill="#404E89"/>
<path d="M207.39 76.5698H200.48V83.4198H207.39V76.5698Z" fill="#626CA0"/>
<path d="M207.39 69.6699H200.48V76.5799H207.39V69.6699Z" fill="#626CA0"/>
<path d="M207.39 62.8198H200.48V69.6698H207.39V62.8198Z" fill="#5364AD"/>
<path d="M207.39 55.9102H200.48V62.8202H207.39V55.9102Z" fill="black"/>
<path d="M207.39 49.0601H200.48V55.9101H207.39V49.0601Z" fill="black"/>
<path d="M207.39 42.1499H200.48V49.0599H207.39V42.1499Z" fill="black"/>
<path d="M207.39 35.2402H200.48V42.1502H207.39V35.2402Z" fill="black"/>
<path d="M200.481 166.01H193.631V172.92H200.481V166.01Z" fill="black"/>
<path d="M200.481 159.17H193.631V166.02H200.481V159.17Z" fill="#B25212"/>
<path d="M200.481 152.25H193.631V159.16H200.481V152.25Z" fill="black"/>
<path d="M200.481 145.35H193.631V152.26H200.481V145.35Z" fill="#C1811B"/>
<path d="M200.481 138.51H193.631V145.36H200.481V138.51Z" fill="#B25212"/>
<path d="M200.481 131.59H193.631V138.5H200.481V131.59Z" fill="#C1811B"/>
<path d="M200.481 124.75H193.631V131.6H200.481V124.75Z" fill="black"/>
<path d="M200.481 117.83H193.631V124.74H200.481V117.83Z" fill="#626CA0"/>
<path d="M200.481 111H193.631V117.85H200.481V111Z" fill="black"/>
<path d="M200.481 104.09H193.631V111H200.481V104.09Z" fill="#B25212"/>
<path d="M200.481 97.2402H193.631V104.09H200.481V97.2402Z" fill="#DBAB65"/>
<path d="M200.481 90.3301H193.631V97.2401H200.481V90.3301Z" fill="#626CA0"/>
<path d="M200.481 83.4102H193.631V90.3202H200.481V83.4102Z" fill="#626CA0"/>
<path d="M200.481 76.5698H193.631V83.4198H200.481V76.5698Z" fill="#626CA0"/>
<path d="M200.481 69.6699H193.631V76.5799H200.481V69.6699Z" fill="#626CA0"/>
<path d="M200.481 62.8198H193.631V69.6698H200.481V62.8198Z" fill="#5364AD"/>
<path d="M200.481 55.9102H193.631V62.8202H200.481V55.9102Z" fill="#5364AD"/>
<path d="M200.481 49.0601H193.631V55.9101H200.481V49.0601Z" fill="#5364AD"/>
<path d="M200.481 42.1499H193.631V49.0599H200.481V42.1499Z" fill="#5364AD"/>
<path d="M200.481 35.2402H193.631V42.1502H200.481V35.2402Z" fill="#626CA0"/>
<path d="M200.481 28.3999H193.631V35.2499H200.481V28.3999Z" fill="black"/>
<path d="M193.631 172.93H186.721V179.78H193.631V172.93Z" fill="black"/>
<path d="M193.631 166.01H186.721V172.92H193.631V166.01Z" fill="#B25212"/>
<path d="M193.631 159.17H186.721V166.02H193.631V159.17Z" fill="#C1811B"/>
<path d="M193.631 152.25H186.721V159.16H193.631V152.25Z" fill="black"/>
<path d="M193.631 145.35H186.721V152.26H193.631V145.35Z" fill="#C1811B"/>
<path d="M193.631 138.51H186.721V145.36H193.631V138.51Z" fill="#C1811B"/>
<path d="M193.631 131.59H186.721V138.5H193.631V131.59Z" fill="#B25212"/>
<path d="M193.631 124.75H186.721V131.6H193.631V124.75Z" fill="black"/>
<path d="M193.631 117.83H186.721V124.74H193.631V117.83Z" fill="#626CA0"/>
<path d="M193.631 111H186.721V117.85H193.631V111Z" fill="black"/>
<path d="M193.631 104.09H186.721V111H193.631V104.09Z" fill="#B25212"/>
<path d="M193.631 97.2402H186.721V104.09H193.631V97.2402Z" fill="#DBAB65"/>
<path d="M193.631 90.3301H186.721V97.2401H193.631V90.3301Z" fill="black"/>
<path d="M193.631 83.4102H186.721V90.3202H193.631V83.4102Z" fill="#404E89"/>
<path d="M193.631 76.5698H186.721V83.4198H193.631V76.5698Z" fill="#626CA0"/>
<path d="M193.631 69.6699H186.721V76.5799H193.631V69.6699Z" fill="#626CA0"/>
<path d="M193.631 62.8198H186.721V69.6698H193.631V62.8198Z" fill="#626CA0"/>
<path d="M193.631 55.9102H186.721V62.8202H193.631V55.9102Z" fill="#626CA0"/>
<path d="M193.631 49.0601H186.721V55.9101H193.631V49.0601Z" fill="#5364AD"/>
<path d="M193.631 42.1499H186.721V49.0599H193.631V42.1499Z" fill="#626CA0"/>
<path d="M193.631 35.2402H186.721V42.1502H193.631V35.2402Z" fill="#5364AD"/>
<path d="M193.631 28.3999H186.721V35.2499H193.631V28.3999Z" fill="black"/>
<path d="M186.719 172.93H179.869V179.78H186.719V172.93Z" fill="black"/>
<path d="M186.719 166.01H179.869V172.92H186.719V166.01Z" fill="#C1811B"/>
<path d="M186.719 159.17H179.869V166.02H186.719V159.17Z" fill="#DBAB65"/>
<path d="M186.719 152.25H179.869V159.16H186.719V152.25Z" fill="#DBAB65"/>
<path d="M186.719 145.35H179.869V152.26H186.719V145.35Z" fill="black"/>
<path d="M186.719 138.51H179.869V145.36H186.719V138.51Z" fill="#C1811B"/>
<path d="M186.719 131.59H179.869V138.5H186.719V131.59Z" fill="black"/>
<path d="M186.719 124.75H179.869V131.6H186.719V124.75Z" fill="#626CA0"/>
<path d="M186.719 117.83H179.869V124.74H186.719V117.83Z" fill="#626CA0"/>
<path d="M186.719 111H179.869V117.85H186.719V111Z" fill="#5364AD"/>
<path d="M186.719 104.09H179.869V111H186.719V104.09Z" fill="black"/>
<path d="M186.719 97.2402H179.869V104.09H186.719V97.2402Z" fill="#C1811B"/>
<path d="M186.719 90.3301H179.869V97.2401H186.719V90.3301Z" fill="black"/>
<path d="M186.719 83.4102H179.869V90.3202H186.719V83.4102Z" fill="#404E89"/>
<path d="M186.719 76.5698H179.869V83.4198H186.719V76.5698Z" fill="#404E89"/>
<path d="M186.719 69.6699H179.869V76.5799H186.719V69.6699Z" fill="#626CA0"/>
<path d="M186.719 62.8198H179.869V69.6698H186.719V62.8198Z" fill="#626CA0"/>
<path d="M186.719 55.9102H179.869V62.8202H186.719V55.9102Z" fill="#626CA0"/>
<path d="M186.719 49.0601H179.869V55.9101H186.719V49.0601Z" fill="#626CA0"/>
<path d="M186.719 42.1499H179.869V49.0599H186.719V42.1499Z" fill="#626CA0"/>
<path d="M186.719 35.2402H179.869V42.1502H186.719V35.2402Z" fill="#626CA0"/>
<path d="M186.719 28.3999H179.869V35.2499H186.719V28.3999Z" fill="black"/>
<path d="M179.871 172.93H172.961V179.78H179.871V172.93Z" fill="black"/>
<path d="M179.871 166.01H172.961V172.92H179.871V166.01Z" fill="#DBAB65"/>
<path d="M179.871 159.17H172.961V166.02H179.871V159.17Z" fill="#DBAB65"/>
<path d="M179.871 152.25H172.961V159.16H179.871V152.25Z" fill="#DBAB65"/>
<path d="M179.871 145.35H172.961V152.26H179.871V145.35Z" fill="black"/>
<path d="M179.871 138.51H172.961V145.36H179.871V138.51Z" fill="#C1811B"/>
<path d="M179.871 131.59H172.961V138.5H179.871V131.59Z" fill="black"/>
<path d="M179.871 124.75H172.961V131.6H179.871V124.75Z" fill="#5364AD"/>
<path d="M179.871 117.83H172.961V124.74H179.871V117.83Z" fill="#5364AD"/>
<path d="M179.871 111H172.961V117.85H179.871V111Z" fill="#5364AD"/>
<path d="M179.871 104.09H172.961V111H179.871V104.09Z" fill="black"/>
<path d="M179.871 97.2402H172.961V104.09H179.871V97.2402Z" fill="#B25212"/>
<path d="M179.871 90.3301H172.961V97.2401H179.871V90.3301Z" fill="#C1811B"/>
<path d="M179.871 83.4102H172.961V90.3202H179.871V83.4102Z" fill="black"/>
<path d="M179.871 76.5698H172.961V83.4198H179.871V76.5698Z" fill="#404E89"/>
<path d="M179.871 69.6699H172.961V76.5799H179.871V69.6699Z" fill="#626CA0"/>
<path d="M179.871 62.8198H172.961V69.6698H179.871V62.8198Z" fill="#626CA0"/>
<path d="M179.871 55.9102H172.961V62.8202H179.871V55.9102Z" fill="#626CA0"/>
<path d="M179.871 49.0601H172.961V55.9101H179.871V49.0601Z" fill="#626CA0"/>
<path d="M179.871 42.1499H172.961V49.0599H179.871V42.1499Z" fill="black"/>
<path d="M179.871 35.2402H172.961V42.1502H179.871V35.2402Z" fill="black"/>
<path d="M179.871 28.3999H172.961V35.2499H179.871V28.3999Z" fill="black"/>
<path d="M172.971 214.19H166.061V221.1H172.971V214.19Z" fill="black"/>
<path d="M172.971 207.35H166.061V214.2H172.971V207.35Z" fill="black"/>
<path d="M172.971 200.43H166.061V207.34H172.971V200.43Z" fill="black"/>
<path d="M172.971 193.52H166.061V200.43H172.971V193.52Z" fill="black"/>
<path d="M172.971 186.69H166.061V193.54H172.971V186.69Z" fill="black"/>
<path d="M172.971 172.93H166.061V179.78H172.971V172.93Z" fill="black"/>
<path d="M172.971 166.01H166.061V172.92H172.971V166.01Z" fill="#B25212"/>
<path d="M172.971 159.17H166.061V166.02H172.971V159.17Z" fill="#DBAB65"/>
<path d="M172.971 152.25H166.061V159.16H172.971V152.25Z" fill="#DBAB65"/>
<path d="M172.971 145.35H166.061V152.26H172.971V145.35Z" fill="#C1811B"/>
<path d="M172.971 138.51H166.061V145.36H172.971V138.51Z" fill="black"/>
<path d="M172.971 131.59H166.061V138.5H172.971V131.59Z" fill="black"/>
<path d="M172.971 124.75H166.061V131.6H172.971V124.75Z" fill="black"/>
<path d="M172.971 117.83H166.061V124.74H172.971V117.83Z" fill="black"/>
<path d="M172.971 111H166.061V117.85H172.971V111Z" fill="#5364AD"/>
<path d="M172.971 104.09H166.061V111H172.971V104.09Z" fill="#5364AD"/>
<path d="M172.971 97.2402H166.061V104.09H172.971V97.2402Z" fill="black"/>
<path d="M172.971 90.3301H166.061V97.2401H172.971V90.3301Z" fill="#B25212"/>
<path d="M172.971 83.4102H166.061V90.3202H172.971V83.4102Z" fill="#C1811B"/>
<path d="M172.971 76.5698H166.061V83.4198H172.971V76.5698Z" fill="black"/>
<path d="M172.971 69.6699H166.061V76.5799H172.971V69.6699Z" fill="black"/>
<path d="M172.971 62.8198H166.061V69.6698H172.971V62.8198Z" fill="#5364AD"/>
<path d="M172.971 55.9102H166.061V62.8202H172.971V55.9102Z" fill="#5364AD"/>
<path d="M172.971 49.0601H166.061V55.9101H172.971V49.0601Z" fill="black"/>
<path d="M172.971 42.1499H166.061V49.0599H172.971V42.1499Z" fill="black"/>
<path d="M166.061 214.19H159.211V221.1H166.061V214.19Z" fill="black"/>
<path d="M166.061 207.35H159.211V214.2H166.061V207.35Z" fill="#404E89"/>
<path d="M166.061 200.43H159.211V207.34H166.061V200.43Z" fill="#404E89"/>
<path d="M166.061 193.52H159.211V200.43H166.061V193.52Z" fill="#404E89"/>
<path d="M166.061 186.69H159.211V193.54H166.061V186.69Z" fill="black"/>
<path d="M166.061 179.77H159.211V186.68H166.061V179.77Z" fill="black"/>
<path d="M166.061 172.93H159.211V179.78H166.061V172.93Z" fill="black"/>
<path d="M166.061 166.01H159.211V172.92H166.061V166.01Z" fill="black"/>
<path d="M166.061 159.17H159.211V166.02H166.061V159.17Z" fill="#C1811B"/>
<path d="M166.061 152.25H159.211V159.16H166.061V152.25Z" fill="#C1811B"/>
<path d="M166.061 145.35H159.211V152.26H166.061V145.35Z" fill="#C1811B"/>
<path d="M166.061 138.51H159.211V145.36H166.061V138.51Z" fill="black"/>
<path d="M166.061 131.59H159.211V138.5H166.061V131.59Z" fill="#344A91"/>
<path d="M166.061 124.75H159.211V131.6H166.061V124.75Z" fill="#344A91"/>
<path d="M166.061 117.83H159.211V124.74H166.061V117.83Z" fill="#C1811B"/>
<path d="M166.061 111H159.211V117.85H166.061V111Z" fill="black"/>
<path d="M166.061 104.09H159.211V111H166.061V104.09Z" fill="black"/>
<path d="M166.061 97.2402H159.211V104.09H166.061V97.2402Z" fill="#626CA0"/>
<path d="M166.061 90.3301H159.211V97.2401H166.061V90.3301Z" fill="black"/>
<path d="M166.061 83.4102H159.211V90.3202H166.061V83.4102Z" fill="#B25212"/>
<path d="M166.061 76.5698H159.211V83.4198H166.061V76.5698Z" fill="#C1811B"/>
<path d="M166.061 69.6699H159.211V76.5799H166.061V69.6699Z" fill="#DBAB65"/>
<path d="M166.061 62.8198H159.211V69.6698H166.061V62.8198Z" fill="black"/>
<path d="M166.061 55.9102H159.211V62.8202H166.061V55.9102Z" fill="#5364AD"/>
<path d="M166.061 49.0601H159.211V55.9101H166.061V49.0601Z" fill="black"/>
<path d="M166.061 42.1499H159.211V49.0599H166.061V42.1499Z" fill="black"/>
<path d="M166.061 35.2402H159.211V42.1502H166.061V35.2402Z" fill="black"/>
<path d="M166.061 28.3999H159.211V35.2499H166.061V28.3999Z" fill="black"/>
<path d="M166.061 21.4902H159.211V28.4002H166.061V21.4902Z" fill="black"/>
<path d="M166.061 14.6401H159.211V21.4901H166.061V14.6401Z" fill="black"/>
<path d="M166.061 7.72998H159.211V14.64H166.061V7.72998Z" fill="black"/>
<path d="M159.211 214.19H152.301V221.1H159.211V214.19Z" fill="black"/>
<path d="M159.211 207.35H152.301V214.2H159.211V207.35Z" fill="#404E89"/>
<path d="M159.211 200.43H152.301V207.34H159.211V200.43Z" fill="#626CA0"/>
<path d="M159.211 193.52H152.301V200.43H159.211V193.52Z" fill="#626CA0"/>
<path d="M159.211 186.69H152.301V193.54H159.211V186.69Z" fill="#404E89"/>
<path d="M159.211 179.77H152.301V186.68H159.211V179.77Z" fill="#404E89"/>
<path d="M159.211 172.93H152.301V179.78H159.211V172.93Z" fill="#404E89"/>
<path d="M159.211 166.01H152.301V172.92H159.211V166.01Z" fill="black"/>
<path d="M159.211 159.17H152.301V166.02H159.211V159.17Z" fill="black"/>
<path d="M159.211 152.25H152.301V159.16H159.211V152.25Z" fill="black"/>
<path d="M159.211 145.35H152.301V152.26H159.211V145.35Z" fill="black"/>
<path d="M159.211 138.51H152.301V145.36H159.211V138.51Z" fill="black"/>
<path d="M159.211 131.59H152.301V138.5H159.211V131.59Z" fill="black"/>
<path d="M159.211 124.75H152.301V131.6H159.211V124.75Z" fill="#42578E"/>
<path d="M159.211 117.83H152.301V124.74H159.211V117.83Z" fill="black"/>
<path d="M159.211 111H152.301V117.85H159.211V111Z" fill="#C1811B"/>
<path d="M159.211 104.09H152.301V111H159.211V104.09Z" fill="black"/>
<path d="M159.211 97.2402H152.301V104.09H159.211V97.2402Z" fill="#626CA0"/>
<path d="M159.211 90.3301H152.301V97.2401H159.211V90.3301Z" fill="#626CA0"/>
<path d="M159.211 83.4102H152.301V90.3202H159.211V83.4102Z" fill="black"/>
<path d="M159.211 76.5698H152.301V83.4198H159.211V76.5698Z" fill="#B25212"/>
<path d="M159.211 69.6699H152.301V76.5799H159.211V69.6699Z" fill="#C1811B"/>
<path d="M159.211 62.8198H152.301V69.6698H159.211V62.8198Z" fill="#B25212"/>
<path d="M159.211 55.9102H152.301V62.8202H159.211V55.9102Z" fill="black"/>
<path d="M159.211 49.0601H152.301V55.9101H159.211V49.0601Z" fill="#404E89"/>
<path d="M159.211 42.1499H152.301V49.0599H159.211V42.1499Z" fill="#404E89"/>
<path d="M159.211 35.2402H152.301V42.1502H159.211V35.2402Z" fill="#626CA0"/>
<path d="M159.211 28.3999H152.301V35.2499H159.211V28.3999Z" fill="#626CA0"/>
<path d="M159.211 21.4902H152.301V28.4002H159.211V21.4902Z" fill="#404E89"/>
<path d="M159.211 14.6401H152.301V21.4901H159.211V14.6401Z" fill="#404E89"/>
<path d="M159.211 7.72998H152.301V14.64H159.211V7.72998Z" fill="#404E89"/>
<path d="M159.211 0.890137H152.301V7.74014H159.211V0.890137Z" fill="black"/>
<path d="M152.299 214.19H145.449V221.1H152.299V214.19Z" fill="black"/>
<path d="M152.299 207.35H145.449V214.2H152.299V207.35Z" fill="#404E89"/>
<path d="M152.299 200.43H145.449V207.34H152.299V200.43Z" fill="#C1811B"/>
<path d="M152.299 193.52H145.449V200.43H152.299V193.52Z" fill="#B25212"/>
<path d="M152.299 186.69H145.449V193.54H152.299V186.69Z" fill="#626CA0"/>
<path d="M152.299 179.77H145.449V186.68H152.299V179.77Z" fill="black"/>
<path d="M152.299 172.93H145.449V179.78H152.299V172.93Z" fill="black"/>
<path d="M152.299 166.01H145.449V172.92H152.299V166.01Z" fill="black"/>
<path d="M152.299 159.17H145.449V166.02H152.299V159.17Z" fill="#2F384C"/>
<path d="M152.299 152.25H145.449V159.16H152.299V152.25Z" fill="black"/>
<path d="M152.299 145.35H145.449V152.26H152.299V145.35Z" fill="#344A91"/>
<path d="M152.299 138.51H145.449V145.36H152.299V138.51Z" fill="#42578E"/>
<path d="M152.299 131.59H145.449V138.5H152.299V131.59Z" fill="black"/>
<path d="M152.299 124.75H145.449V131.6H152.299V124.75Z" fill="#42578E"/>
<path d="M152.299 117.83H145.449V124.74H152.299V117.83Z" fill="black"/>
<path d="M152.299 111H145.449V117.85H152.299V111Z" fill="#B25212"/>
<path d="M152.299 104.09H145.449V111H152.299V104.09Z" fill="black"/>
<path d="M152.299 97.2402H145.449V104.09H152.299V97.2402Z" fill="#404E89"/>
<path d="M152.299 90.3301H145.449V97.2401H152.299V90.3301Z" fill="black"/>
<path d="M152.299 83.4102H145.449V90.3202H152.299V83.4102Z" fill="#C1811B"/>
<path d="M152.299 76.5698H145.449V83.4198H152.299V76.5698Z" fill="black"/>
<path d="M152.299 69.6699H145.449V76.5799H152.299V69.6699Z" fill="black"/>
<path d="M152.299 62.8198H145.449V69.6698H152.299V62.8198Z" fill="black"/>
<path d="M152.299 55.9102H145.449V62.8202H152.299V55.9102Z" fill="#404E89"/>
<path d="M152.299 49.0601H145.449V55.9101H152.299V49.0601Z" fill="#404E89"/>
<path d="M152.299 42.1499H145.449V49.0599H152.299V42.1499Z" fill="#626CA0"/>
<path d="M152.299 35.2402H145.449V42.1502H152.299V35.2402Z" fill="#626CA0"/>
<path d="M152.299 28.3999H145.449V35.2499H152.299V28.3999Z" fill="#626CA0"/>
<path d="M152.299 21.4902H145.449V28.4002H152.299V21.4902Z" fill="#626CA0"/>
<path d="M152.299 14.6401H145.449V21.4901H152.299V14.6401Z" fill="#626CA0"/>
<path d="M152.299 7.72998H145.449V14.64H152.299V7.72998Z" fill="#404E89"/>
<path d="M152.299 0.890137H145.449V7.74014H152.299V0.890137Z" fill="black"/>
<path d="M145.449 214.19H138.539V221.1H145.449V214.19Z" fill="black"/>
<path d="M145.449 207.35H138.539V214.2H145.449V207.35Z" fill="#404E89"/>
<path d="M145.449 200.43H138.539V207.34H145.449V200.43Z" fill="black"/>
<path d="M145.449 193.52H138.539V200.43H145.449V193.52Z" fill="black"/>
<path d="M145.449 186.69H138.539V193.54H145.449V186.69Z" fill="#B25212"/>
<path d="M145.449 179.77H138.539V186.68H145.449V179.77Z" fill="#B25212"/>
<path d="M145.449 172.93H138.539V179.78H145.449V172.93Z" fill="black"/>
<path d="M145.449 166.01H138.539V172.92H145.449V166.01Z" fill="black"/>
<path d="M145.449 159.17H138.539V166.02H145.449V159.17Z" fill="#2F384C"/>
<path d="M145.449 152.25H138.539V159.16H145.449V152.25Z" fill="black"/>
<path d="M145.449 145.35H138.539V152.26H145.449V145.35Z" fill="#344A91"/>
<path d="M145.449 138.51H138.539V145.36H145.449V138.51Z" fill="#344A91"/>
<path d="M145.449 131.59H138.539V138.5H145.449V131.59Z" fill="#42578E"/>
<path d="M145.449 124.75H138.539V131.6H145.449V124.75Z" fill="black"/>
<path d="M145.449 117.83H138.539V124.74H145.449V117.83Z" fill="#B25212"/>
<path d="M145.449 111H138.539V117.85H145.449V111Z" fill="#B25212"/>
<path d="M145.449 104.09H138.539V111H145.449V104.09Z" fill="black"/>
<path d="M145.449 97.2402H138.539V104.09H145.449V97.2402Z" fill="#404E89"/>
<path d="M145.449 90.3301H138.539V97.2401H145.449V90.3301Z" fill="black"/>
<path d="M145.449 83.4102H138.539V90.3202H145.449V83.4102Z" fill="#C1811B"/>
<path d="M145.449 76.5698H138.539V83.4198H145.449V76.5698Z" fill="#404E89"/>
<path d="M145.449 69.6699H138.539V76.5799H145.449V69.6699Z" fill="#404E89"/>
<path d="M145.449 62.8198H138.539V69.6698H145.449V62.8198Z" fill="black"/>
<path d="M145.449 55.9102H138.539V62.8202H145.449V55.9102Z" fill="#404E89"/>
<path d="M145.449 49.0601H138.539V55.9101H145.449V49.0601Z" fill="#626CA0"/>
<path d="M145.449 42.1499H138.539V49.0599H145.449V42.1499Z" fill="#626CA0"/>
<path d="M145.449 35.2402H138.539V42.1502H145.449V35.2402Z" fill="#626CA0"/>
<path d="M145.449 28.3999H138.539V35.2499H145.449V28.3999Z" fill="#626CA0"/>
<path d="M145.449 21.4902H138.539V28.4002H145.449V21.4902Z" fill="#626CA0"/>
<path d="M145.449 14.6401H138.539V21.4901H145.449V14.6401Z" fill="#626CA0"/>
<path d="M145.449 7.72998H138.539V14.64H145.449V7.72998Z" fill="#626CA0"/>
<path d="M145.449 0.890137H138.539V7.74014H145.449V0.890137Z" fill="black"/>
<path d="M138.549 214.19H131.699V221.1H138.549V214.19Z" fill="black"/>
<path d="M138.549 207.35H131.699V214.2H138.549V207.35Z" fill="#C1811B"/>
<path d="M138.549 200.43H131.699V207.34H138.549V200.43Z" fill="#DBAB65"/>
<path d="M138.549 193.52H131.699V200.43H138.549V193.52Z" fill="#C1811B"/>
<path d="M138.549 186.69H131.699V193.54H138.549V186.69Z" fill="black"/>
<path d="M138.549 179.77H131.699V186.68H138.549V179.77Z" fill="#C1811B"/>
<path d="M138.549 172.93H131.699V179.78H138.549V172.93Z" fill="#626CA0"/>
<path d="M138.549 166.01H131.699V172.92H138.549V166.01Z" fill="black"/>
<path d="M138.549 159.17H131.699V166.02H138.549V159.17Z" fill="#2F384C"/>
<path d="M138.549 152.25H131.699V159.16H138.549V152.25Z" fill="black"/>
<path d="M138.549 145.35H131.699V152.26H138.549V145.35Z" fill="#344A91"/>
<path d="M138.549 138.51H131.699V145.36H138.549V138.51Z" fill="#42578E"/>
<path d="M138.549 131.59H131.699V138.5H138.549V131.59Z" fill="#42578E"/>
<path d="M138.549 124.75H131.699V131.6H138.549V124.75Z" fill="black"/>
<path d="M138.549 117.83H131.699V124.74H138.549V117.83Z" fill="#B25212"/>
<path d="M138.549 111H131.699V117.85H138.549V111Z" fill="black"/>
<path d="M138.549 104.09H131.699V111H138.549V104.09Z" fill="#404E89"/>
<path d="M138.549 97.2402H131.699V104.09H138.549V97.2402Z" fill="black"/>
<path d="M138.549 90.3301H131.699V97.2401H138.549V90.3301Z" fill="#C1811B"/>
<path d="M138.549 83.4102H131.699V90.3202H138.549V83.4102Z" fill="#404E89"/>
<path d="M138.549 76.5698H131.699V83.4198H138.549V76.5698Z" fill="#404E89"/>
<path d="M138.549 69.6699H131.699V76.5799H138.549V69.6699Z" fill="#404E89"/>
<path d="M138.549 62.8198H131.699V69.6698H138.549V62.8198Z" fill="black"/>
<path d="M138.549 55.9102H131.699V62.8202H138.549V55.9102Z" fill="#404E89"/>
<path d="M138.549 49.0601H131.699V55.9101H138.549V49.0601Z" fill="#626CA0"/>
<path d="M138.549 42.1499H131.699V49.0599H138.549V42.1499Z" fill="#626CA0"/>
<path d="M138.549 35.2402H131.699V42.1502H138.549V35.2402Z" fill="#5364AD"/>
<path d="M138.549 28.3999H131.699V35.2499H138.549V28.3999Z" fill="#5364AD"/>
<path d="M138.549 21.4902H131.699V28.4002H138.549V21.4902Z" fill="#626CA0"/>
<path d="M138.549 14.6401H131.699V21.4901H138.549V14.6401Z" fill="#626CA0"/>
<path d="M138.549 7.72998H131.699V14.64H138.549V7.72998Z" fill="#626CA0"/>
<path d="M138.549 0.890137H131.699V7.74014H138.549V0.890137Z" fill="black"/>
<path d="M131.699 214.19H124.789V221.1H131.699V214.19Z" fill="black"/>
<path d="M131.699 207.35H124.789V214.2H131.699V207.35Z" fill="#DBAB65"/>
<path d="M131.699 200.43H124.789V207.34H131.699V200.43Z" fill="black"/>
<path d="M131.699 193.52H124.789V200.43H131.699V193.52Z" fill="black"/>
<path d="M131.699 186.69H124.789V193.54H131.699V186.69Z" fill="black"/>
<path d="M131.699 179.77H124.789V186.68H131.699V179.77Z" fill="black"/>
<path d="M131.699 172.93H124.789V179.78H131.699V172.93Z" fill="#626CA0"/>
<path d="M131.699 166.01H124.789V172.92H131.699V166.01Z" fill="black"/>
<path d="M131.699 159.17H124.789V166.02H131.699V159.17Z" fill="#2F384C"/>
<path d="M131.699 152.25H124.789V159.16H131.699V152.25Z" fill="black"/>
<path d="M131.699 145.35H124.789V152.26H131.699V145.35Z" fill="#42578E"/>
<path d="M131.699 138.51H124.789V145.36H131.699V138.51Z" fill="#42578E"/>
<path d="M131.699 131.59H124.789V138.5H131.699V131.59Z" fill="#42578E"/>
<path d="M131.699 124.75H124.789V131.6H131.699V124.75Z" fill="black"/>
<path d="M131.699 117.83H124.789V124.74H131.699V117.83Z" fill="#C1811B"/>
<path d="M131.699 111H124.789V117.85H131.699V111Z" fill="black"/>
<path d="M131.699 104.09H124.789V111H131.699V104.09Z" fill="#404E89"/>
<path d="M131.699 97.2402H124.789V104.09H131.699V97.2402Z" fill="black"/>
<path d="M131.699 90.3301H124.789V97.2401H131.699V90.3301Z" fill="#404E89"/>
<path d="M131.699 83.4102H124.789V90.3202H131.699V83.4102Z" fill="#404E89"/>
<path d="M131.699 76.5698H124.789V83.4198H131.699V76.5698Z" fill="#626CA0"/>
<path d="M131.699 69.6699H124.789V76.5799H131.699V69.6699Z" fill="black"/>
<path d="M131.699 62.8198H124.789V69.6698H131.699V62.8198Z" fill="#404E89"/>
<path d="M131.699 55.9102H124.789V62.8202H131.699V55.9102Z" fill="#404E89"/>
<path d="M131.699 49.0601H124.789V55.9101H131.699V49.0601Z" fill="#626CA0"/>
<path d="M131.699 42.1499H124.789V49.0599H131.699V42.1499Z" fill="#5364AD"/>
<path d="M131.699 35.2402H124.789V42.1502H131.699V35.2402Z" fill="#5364AD"/>
<path d="M131.699 28.3999H124.789V35.2499H131.699V28.3999Z" fill="black"/>
<path d="M131.699 21.4902H124.789V28.4002H131.699V21.4902Z" fill="#626CA0"/>
<path d="M131.699 14.6401H124.789V21.4901H131.699V14.6401Z" fill="#626CA0"/>
<path d="M131.699 7.72998H124.789V14.64H131.699V7.72998Z" fill="#626CA0"/>
<path d="M131.699 0.890137H124.789V7.74014H131.699V0.890137Z" fill="black"/>
<path d="M124.789 214.19H117.939V221.1H124.789V214.19Z" fill="black"/>
<path d="M124.789 207.35H117.939V214.2H124.789V207.35Z" fill="#C1811B"/>
<path d="M124.789 200.43H117.939V207.34H124.789V200.43Z" fill="black"/>
<path d="M124.789 193.52H117.939V200.43H124.789V193.52Z" fill="#C1811B"/>
<path d="M124.789 186.69H117.939V193.54H124.789V186.69Z" fill="black"/>
<path d="M124.789 179.77H117.939V186.68H124.789V179.77Z" fill="#C1811B"/>
<path d="M124.789 172.93H117.939V179.78H124.789V172.93Z" fill="black"/>
<path d="M124.789 166.01H117.939V172.92H124.789V166.01Z" fill="black"/>
<path d="M124.789 159.17H117.939V166.02H124.789V159.17Z" fill="#2F384C"/>
<path d="M124.789 152.25H117.939V159.16H124.789V152.25Z" fill="black"/>
<path d="M124.789 145.35H117.939V152.26H124.789V145.35Z" fill="#42578E"/>
<path d="M124.789 138.51H117.939V145.36H124.789V138.51Z" fill="#344A91"/>
<path d="M124.789 131.59H117.939V138.5H124.789V131.59Z" fill="black"/>
<path d="M124.789 124.75H117.939V131.6H124.789V124.75Z" fill="black"/>
<path d="M124.789 117.83H117.939V124.74H124.789V117.83Z" fill="#C1811B"/>
<path d="M124.789 111H117.939V117.85H124.789V111Z" fill="black"/>
<path d="M124.789 104.09H117.939V111H124.789V104.09Z" fill="#404E89"/>
<path d="M124.789 97.2402H117.939V104.09H124.789V97.2402Z" fill="black"/>
<path d="M124.789 90.3301H117.939V97.2401H124.789V90.3301Z" fill="#626CA0"/>
<path d="M124.789 83.4102H117.939V90.3202H124.789V83.4102Z" fill="#404E89"/>
<path d="M124.789 76.5698H117.939V83.4198H124.789V76.5698Z" fill="#626CA0"/>
<path d="M124.789 69.6699H117.939V76.5799H124.789V69.6699Z" fill="black"/>
<path d="M124.789 62.8198H117.939V69.6698H124.789V62.8198Z" fill="#404E89"/>
<path d="M124.789 55.9102H117.939V62.8202H124.789V55.9102Z" fill="#404E89"/>
<path d="M124.789 49.0601H117.939V55.9101H124.789V49.0601Z" fill="#5364AD"/>
<path d="M124.789 42.1499H117.939V49.0599H124.789V42.1499Z" fill="#5364AD"/>
<path d="M124.789 35.2402H117.939V42.1502H124.789V35.2402Z" fill="black"/>
<path d="M124.789 28.3999H117.939V35.2499H124.789V28.3999Z" fill="black"/>
<path d="M124.789 21.4902H117.939V28.4002H124.789V21.4902Z" fill="#626CA0"/>
<path d="M124.789 14.6401H117.939V21.4901H124.789V14.6401Z" fill="#626CA0"/>
<path d="M124.789 7.72998H117.939V14.64H124.789V7.72998Z" fill="#5364AD"/>
<path d="M124.789 0.890137H117.939V7.74014H124.789V0.890137Z" fill="black"/>
<path d="M117.939 214.19H111.029V221.1H117.939V214.19Z" fill="black"/>
<path d="M117.939 207.35H111.029V214.2H117.939V207.35Z" fill="black"/>
<path d="M117.939 200.43H111.029V207.34H117.939V200.43Z" fill="#C1811B"/>
<path d="M117.939 193.52H111.029V200.43H117.939V193.52Z" fill="#DBAB65"/>
<path d="M117.939 186.69H111.029V193.54H117.939V186.69Z" fill="#C1811B"/>
<path d="M117.939 179.77H111.029V186.68H117.939V179.77Z" fill="black"/>
<path d="M117.939 172.93H111.029V179.78H117.939V172.93Z" fill="#5364AD"/>
<path d="M117.939 166.01H111.029V172.92H117.939V166.01Z" fill="black"/>
<path d="M117.939 159.17H111.029V166.02H117.939V159.17Z" fill="#2F384C"/>
<path d="M117.939 152.25H111.029V159.16H117.939V152.25Z" fill="black"/>
<path d="M117.939 145.35H111.029V152.26H117.939V145.35Z" fill="#344A91"/>
<path d="M117.939 138.51H111.029V145.36H117.939V138.51Z" fill="black"/>
<path d="M117.939 131.59H111.029V138.5H117.939V131.59Z" fill="#42578E"/>
<path d="M117.939 124.75H111.029V131.6H117.939V124.75Z" fill="#344A91"/>
<path d="M117.939 117.83H111.029V124.74H117.939V117.83Z" fill="black"/>
<path d="M117.939 111H111.029V117.85H117.939V111Z" fill="#C1811B"/>
<path d="M117.939 104.09H111.029V111H117.939V104.09Z" fill="black"/>
<path d="M117.939 97.2402H111.029V104.09H117.939V97.2402Z" fill="black"/>
<path d="M117.939 90.3301H111.029V97.2401H117.939V90.3301Z" fill="#626CA0"/>
<path d="M117.939 83.4102H111.029V90.3202H117.939V83.4102Z" fill="#404E89"/>
<path d="M117.939 76.5698H111.029V83.4198H117.939V76.5698Z" fill="#626CA0"/>
<path d="M117.939 69.6699H111.029V76.5799H117.939V69.6699Z" fill="black"/>
<path d="M117.939 62.8198H111.029V69.6698H117.939V62.8198Z" fill="#404E89"/>
<path d="M117.939 55.9102H111.029V62.8202H117.939V55.9102Z" fill="#5364AD"/>
<path d="M117.939 49.0601H111.029V55.9101H117.939V49.0601Z" fill="black"/>
<path d="M117.939 42.1499H111.029V49.0599H117.939V42.1499Z" fill="black"/>
<path d="M117.939 35.2402H111.029V42.1502H117.939V35.2402Z" fill="black"/>
<path d="M117.939 28.3999H111.029V35.2499H117.939V28.3999Z" fill="black"/>
<path d="M117.939 21.4902H111.029V28.4002H117.939V21.4902Z" fill="#5364AD"/>
<path d="M117.939 14.6401H111.029V21.4901H117.939V14.6401Z" fill="#5364AD"/>
<path d="M117.939 7.72998H111.029V14.64H117.939V7.72998Z" fill="#5364AD"/>
<path d="M117.939 0.890137H111.029V7.74014H117.939V0.890137Z" fill="black"/>
<path d="M111.029 214.19H104.119V221.1H111.029V214.19Z" fill="black"/>
<path d="M111.029 207.35H104.119V214.2H111.029V207.35Z" fill="#DBAB65"/>
<path d="M111.029 200.43H104.119V207.34H111.029V200.43Z" fill="#C1811B"/>
<path d="M111.029 193.52H104.119V200.43H111.029V193.52Z" fill="black"/>
<path d="M111.029 186.69H104.119V193.54H111.029V186.69Z" fill="black"/>
<path d="M111.029 179.77H104.119V186.68H111.029V179.77Z" fill="black"/>
<path d="M111.029 172.93H104.119V179.78H111.029V172.93Z" fill="black"/>
<path d="M111.029 166.01H104.119V172.92H111.029V166.01Z" fill="black"/>
<path d="M111.029 159.17H104.119V166.02H111.029V159.17Z" fill="#2F384C"/>
<path d="M111.029 152.25H104.119V159.16H111.029V152.25Z" fill="black"/>
<path d="M111.029 145.35H104.119V152.26H111.029V145.35Z" fill="black"/>
<path d="M111.029 138.51H104.119V145.36H111.029V138.51Z" fill="black"/>
<path d="M111.029 131.59H104.119V138.5H111.029V131.59Z" fill="black"/>
<path d="M111.029 124.75H104.119V131.6H111.029V124.75Z" fill="black"/>
<path d="M111.029 117.83H104.119V124.74H111.029V117.83Z" fill="black"/>
<path d="M111.029 111H104.119V117.85H111.029V111Z" fill="black"/>
<path d="M111.029 104.09H104.119V111H111.029V104.09Z" fill="black"/>
<path d="M111.029 97.2402H104.119V104.09H111.029V97.2402Z" fill="#404E89"/>
<path d="M111.029 90.3301H104.119V97.2401H111.029V90.3301Z" fill="black"/>
<path d="M111.029 83.4102H104.119V90.3202H111.029V83.4102Z" fill="#626CA0"/>
<path d="M111.029 76.5698H104.119V83.4198H111.029V76.5698Z" fill="#626CA0"/>
<path d="M111.029 69.6699H104.119V76.5799H111.029V69.6699Z" fill="black"/>
<path d="M111.029 62.8198H104.119V69.6698H111.029V62.8198Z" fill="black"/>
<path d="M111.029 55.9102H104.119V62.8202H111.029V55.9102Z" fill="black"/>
<path d="M111.029 49.0601H104.119V55.9101H111.029V49.0601Z" fill="black"/>
<path d="M111.029 42.1499H104.119V49.0599H111.029V42.1499Z" fill="black"/>
<path d="M111.029 35.2402H104.119V42.1502H111.029V35.2402Z" fill="black"/>
<path d="M111.029 28.3999H104.119V35.2499H111.029V28.3999Z" fill="black"/>
<path d="M111.029 21.4902H104.119V28.4002H111.029V21.4902Z" fill="black"/>
<path d="M111.029 14.6401H104.119V21.4901H111.029V14.6401Z" fill="black"/>
<path d="M111.029 7.72998H104.119V14.64H111.029V7.72998Z" fill="black"/>
<path d="M104.12 214.19H97.2695V221.1H104.12V214.19Z" fill="black"/>
<path d="M104.12 207.35H97.2695V214.2H104.12V207.35Z" fill="#DBAB65"/>
<path d="M104.12 200.43H97.2695V207.34H104.12V200.43Z" fill="black"/>
<path d="M104.12 166.01H97.2695V172.92H104.12V166.01Z" fill="black"/>
<path d="M104.12 159.17H97.2695V166.02H104.12V159.17Z" fill="#2F384C"/>
<path d="M104.12 152.25H97.2695V159.16H104.12V152.25Z" fill="black"/>
<path d="M104.12 145.35H97.2695V152.26H104.12V145.35Z" fill="#DBAB65"/>
<path d="M104.12 138.51H97.2695V145.36H104.12V138.51Z" fill="black"/>
<path d="M104.12 131.59H97.2695V138.5H104.12V131.59Z" fill="#DBAB65"/>
<path d="M104.12 124.75H97.2695V131.6H104.12V124.75Z" fill="#B25212"/>
<path d="M104.12 117.83H97.2695V124.74H104.12V117.83Z" fill="#C1811B"/>
<path d="M104.12 111H97.2695V117.85H104.12V111Z" fill="black"/>
<path d="M104.12 104.09H97.2695V111H104.12V104.09Z" fill="black"/>
<path d="M104.12 97.2402H97.2695V104.09H104.12V97.2402Z" fill="black"/>
<path d="M104.12 90.3301H97.2695V97.2401H104.12V90.3301Z" fill="black"/>
<path d="M104.12 83.4102H97.2695V90.3202H104.12V83.4102Z" fill="black"/>
<path d="M104.12 76.5698H97.2695V83.4198H104.12V76.5698Z" fill="black"/>
<path d="M104.12 69.6699H97.2695V76.5799H104.12V69.6699Z" fill="#404E89"/>
<path d="M104.12 62.8198H97.2695V69.6698H104.12V62.8198Z" fill="#404E89"/>
<path d="M104.12 55.9102H97.2695V62.8202H104.12V55.9102Z" fill="#626CA0"/>
<path d="M104.12 49.0601H97.2695V55.9101H104.12V49.0601Z" fill="#626CA0"/>
<path d="M104.12 42.1499H97.2695V49.0599H104.12V42.1499Z" fill="#626CA0"/>
<path d="M104.12 35.2402H97.2695V42.1502H104.12V35.2402Z" fill="black"/>
<path d="M97.2791 214.19H90.3691V221.1H97.2791V214.19Z" fill="black"/>
<path d="M97.2791 207.35H90.3691V214.2H97.2791V207.35Z" fill="#C1811B"/>
<path d="M97.2791 200.43H90.3691V207.34H97.2791V200.43Z" fill="black"/>
<path d="M97.2791 166.01H90.3691V172.92H97.2791V166.01Z" fill="black"/>
<path d="M97.2791 159.17H90.3691V166.02H97.2791V159.17Z" fill="#2F384C"/>
<path d="M97.2791 152.25H90.3691V159.16H97.2791V152.25Z" fill="black"/>
<path d="M97.2791 145.35H90.3691V152.26H97.2791V145.35Z" fill="#DBAB65"/>
<path d="M97.2791 138.51H90.3691V145.36H97.2791V138.51Z" fill="#C1811B"/>
<path d="M97.2791 131.59H90.3691V138.5H97.2791V131.59Z" fill="black"/>
<path d="M97.2791 124.75H90.3691V131.6H97.2791V124.75Z" fill="black"/>
<path d="M97.2791 117.83H90.3691V124.74H97.2791V117.83Z" fill="black"/>
<path d="M97.2791 111H90.3691V117.85H97.2791V111Z" fill="black"/>
<path d="M97.2791 104.09H90.3691V111H97.2791V104.09Z" fill="black"/>
<path d="M97.2791 97.2402H90.3691V104.09H97.2791V97.2402Z" fill="black"/>
<path d="M97.2791 90.3301H90.3691V97.2401H97.2791V90.3301Z" fill="#C1811B"/>
<path d="M97.2791 83.4102H90.3691V90.3202H97.2791V83.4102Z" fill="black"/>
<path d="M97.2791 76.5698H90.3691V83.4198H97.2791V76.5698Z" fill="#404E89"/>
<path d="M97.2791 69.6699H90.3691V76.5799H97.2791V69.6699Z" fill="#404E89"/>
<path d="M97.2791 62.8198H90.3691V69.6698H97.2791V62.8198Z" fill="#626CA0"/>
<path d="M97.2791 55.9102H90.3691V62.8202H97.2791V55.9102Z" fill="#5364AD"/>
<path d="M97.2791 49.0601H90.3691V55.9101H97.2791V49.0601Z" fill="#5364AD"/>
<path d="M97.2791 42.1499H90.3691V49.0599H97.2791V42.1499Z" fill="#626CA0"/>
<path d="M97.2791 35.2402H90.3691V42.1502H97.2791V35.2402Z" fill="black"/>
<path d="M90.3695 214.19H83.5195V221.1H90.3695V214.19Z" fill="black"/>
<path d="M90.3695 207.35H83.5195V214.2H90.3695V207.35Z" fill="black"/>
<path d="M90.3695 166.01H83.5195V172.92H90.3695V166.01Z" fill="black"/>
<path d="M90.3695 159.17H83.5195V166.02H90.3695V159.17Z" fill="#2F384C"/>
<path d="M90.3695 152.25H83.5195V159.16H90.3695V152.25Z" fill="black"/>
<path d="M90.3695 145.35H83.5195V152.26H90.3695V145.35Z" fill="#C1811B"/>
<path d="M90.3695 138.51H83.5195V145.36H90.3695V138.51Z" fill="#C1811B"/>
<path d="M90.3695 131.59H83.5195V138.5H90.3695V131.59Z" fill="black"/>
<path d="M90.3695 90.3301H83.5195V97.2401H90.3695V90.3301Z" fill="black"/>
<path d="M90.3695 83.4102H83.5195V90.3202H90.3695V83.4102Z" fill="#C1811B"/>
<path d="M90.3695 76.5698H83.5195V83.4198H90.3695V76.5698Z" fill="black"/>
<path d="M90.3695 69.6699H83.5195V76.5799H90.3695V69.6699Z" fill="#404E89"/>
<path d="M90.3695 62.8198H83.5195V69.6698H90.3695V62.8198Z" fill="#5364AD"/>
<path d="M90.3695 55.9102H83.5195V62.8202H90.3695V55.9102Z" fill="black"/>
<path d="M90.3695 49.0601H83.5195V55.9101H90.3695V49.0601Z" fill="black"/>
<path d="M90.3695 42.1499H83.5195V49.0599H90.3695V42.1499Z" fill="black"/>
<path d="M83.5194 166.01H76.6094V172.92H83.5194V166.01Z" fill="black"/>
<path d="M83.5194 159.17H76.6094V166.02H83.5194V159.17Z" fill="#2F384C"/>
<path d="M83.5194 152.25H76.6094V159.16H83.5194V152.25Z" fill="black"/>
<path d="M83.5194 145.35H76.6094V152.26H83.5194V145.35Z" fill="black"/>
<path d="M83.5194 138.51H76.6094V145.36H83.5194V138.51Z" fill="black"/>
<path d="M83.5194 83.4102H76.6094V90.3202H83.5194V83.4102Z" fill="black"/>
<path d="M83.5194 76.5698H76.6094V83.4198H83.5194V76.5698Z" fill="black"/>
<path d="M83.5194 69.6699H76.6094V76.5799H83.5194V69.6699Z" fill="black"/>
<path d="M83.5194 62.8198H76.6094V69.6698H83.5194V62.8198Z" fill="black"/>
<path d="M76.6195 166.01H69.7695V172.92H76.6195V166.01Z" fill="black"/>
<path d="M76.6195 159.17H69.7695V166.02H76.6195V159.17Z" fill="#2F384C"/>
<path d="M76.6195 152.25H69.7695V159.16H76.6195V152.25Z" fill="black"/>
<path d="M69.7596 166.01H62.8496V172.92H69.7596V166.01Z" fill="black"/>
<path d="M69.7596 159.17H62.8496V166.02H69.7596V159.17Z" fill="#2F384C"/>
<path d="M69.7596 152.25H62.8496V159.16H69.7596V152.25Z" fill="black"/>
<path d="M62.8495 193.52H55.9395V200.43H62.8495V193.52Z" fill="black"/>
<path d="M62.8495 186.69H55.9395V193.54H62.8495V186.69Z" fill="black"/>
<path d="M62.8495 166.01H55.9395V172.92H62.8495V166.01Z" fill="black"/>
<path d="M62.8495 159.17H55.9395V166.02H62.8495V159.17Z" fill="#2D3D54"/>
<path d="M62.8495 152.25H55.9395V159.16H62.8495V152.25Z" fill="black"/>
<path d="M62.8495 131.59H55.9395V138.5H62.8495V131.59Z" fill="black"/>
<path d="M62.8495 124.75H55.9395V131.6H62.8495V124.75Z" fill="black"/>
<path d="M55.9496 200.43H49.0996V207.34H55.9496V200.43Z" fill="black"/>
<path d="M55.9496 193.52H49.0996V200.43H55.9496V193.52Z" fill="#4A5A7F"/>
<path d="M55.9496 186.69H49.0996V193.54H55.9496V186.69Z" fill="#4A5A7F"/>
<path d="M55.9496 179.77H49.0996V186.68H55.9496V179.77Z" fill="black"/>
<path d="M55.9496 172.93H49.0996V179.78H55.9496V172.93Z" fill="black"/>
<path d="M55.9496 166.01H49.0996V172.92H55.9496V166.01Z" fill="#1C2C3F"/>
<path d="M55.9496 159.17H49.0996V166.02H55.9496V159.17Z" fill="#1C2C3F"/>
<path d="M55.9496 152.25H49.0996V159.16H55.9496V152.25Z" fill="#1C2C3F"/>
<path d="M55.9496 145.35H49.0996V152.26H55.9496V145.35Z" fill="black"/>
<path d="M55.9496 138.51H49.0996V145.36H55.9496V138.51Z" fill="black"/>
<path d="M55.9496 131.59H49.0996V138.5H55.9496V131.59Z" fill="#54679B"/>
<path d="M55.9496 124.75H49.0996V131.6H55.9496V124.75Z" fill="#4A5A7F"/>
<path d="M55.9496 117.83H49.0996V124.74H55.9496V117.83Z" fill="black"/>
<path d="M49.0994 207.35H42.1895V214.2H49.0994V207.35Z" fill="black"/>
<path d="M49.0994 200.43H42.1895V207.34H49.0994V200.43Z" fill="#54679B"/>
<path d="M49.0994 193.52H42.1895V200.43H49.0994V193.52Z" fill="#54679B"/>
<path d="M49.0994 186.69H42.1895V193.54H49.0994V186.69Z" fill="#4A5A7F"/>
<path d="M49.0994 179.77H42.1895V186.68H49.0994V179.77Z" fill="#4A5A7F"/>
<path d="M49.0994 172.93H42.1895V179.78H49.0994V172.93Z" fill="black"/>
<path d="M49.0994 166.01H42.1895V172.92H49.0994V166.01Z" fill="#2D3D54"/>
<path d="M49.0994 159.17H42.1895V166.02H49.0994V159.17Z" fill="#1C2C3F"/>
<path d="M49.0994 152.25H42.1895V159.16H49.0994V152.25Z" fill="#1C2C3F"/>
<path d="M49.0994 145.35H42.1895V152.26H49.0994V145.35Z" fill="black"/>
<path d="M49.0994 138.51H42.1895V145.36H49.0994V138.51Z" fill="#54679B"/>
<path d="M49.0994 131.59H42.1895V138.5H49.0994V131.59Z" fill="#54679B"/>
<path d="M49.0994 124.75H42.1895V131.6H49.0994V124.75Z" fill="#4A5A7F"/>
<path d="M49.0994 117.83H42.1895V124.74H49.0994V117.83Z" fill="#4A5A7F"/>
<path d="M49.0994 111H42.1895V117.85H49.0994V111Z" fill="black"/>
<path d="M42.1996 207.35H35.3496V214.2H42.1996V207.35Z" fill="black"/>
<path d="M42.1996 200.43H35.3496V207.34H42.1996V200.43Z" fill="#54679B"/>
<path d="M42.1996 193.52H35.3496V200.43H42.1996V193.52Z" fill="#54679B"/>
<path d="M42.1996 186.69H35.3496V193.54H42.1996V186.69Z" fill="#54679B"/>
<path d="M42.1996 179.77H35.3496V186.68H42.1996V179.77Z" fill="#4A5A7F"/>
<path d="M42.1996 172.93H35.3496V179.78H42.1996V172.93Z" fill="black"/>
<path d="M42.1996 166.01H35.3496V172.92H42.1996V166.01Z" fill="#2D3D54"/>
<path d="M42.1996 159.17H35.3496V166.02H42.1996V159.17Z" fill="#2D3D54"/>
<path d="M42.1996 152.25H35.3496V159.16H42.1996V152.25Z" fill="#1C2C3F"/>
<path d="M42.1996 145.35H35.3496V152.26H42.1996V145.35Z" fill="black"/>
<path d="M42.1996 138.51H35.3496V145.36H42.1996V138.51Z" fill="#54679B"/>
<path d="M42.1996 131.59H35.3496V138.5H42.1996V131.59Z" fill="#54679B"/>
<path d="M42.1996 124.75H35.3496V131.6H42.1996V124.75Z" fill="#54679B"/>
<path d="M42.1996 117.83H35.3496V124.74H42.1996V117.83Z" fill="#4A5A7F"/>
<path d="M42.1996 111H35.3496V117.85H42.1996V111Z" fill="black"/>
<path d="M35.3397 207.35H28.4297V214.2H35.3397V207.35Z" fill="black"/>
<path d="M35.3397 200.43H28.4297V207.34H35.3397V200.43Z" fill="#4A5A7F"/>
<path d="M35.3397 193.52H28.4297V200.43H35.3397V193.52Z" fill="#54679B"/>
<path d="M35.3397 186.69H28.4297V193.54H35.3397V186.69Z" fill="black"/>
<path d="M35.3397 179.77H28.4297V186.68H35.3397V179.77Z" fill="black"/>
<path d="M35.3397 172.93H28.4297V179.78H35.3397V172.93Z" fill="black"/>
<path d="M35.3397 166.01H28.4297V172.92H35.3397V166.01Z" fill="#2D3D54"/>
<path d="M35.3397 159.17H28.4297V166.02H35.3397V159.17Z" fill="#2D3D54"/>
<path d="M35.3397 152.25H28.4297V159.16H35.3397V152.25Z" fill="#1C2C3F"/>
<path d="M35.3397 145.35H28.4297V152.26H35.3397V145.35Z" fill="black"/>
<path d="M35.3397 138.51H28.4297V145.36H35.3397V138.51Z" fill="black"/>
<path d="M35.3397 131.59H28.4297V138.5H35.3397V131.59Z" fill="black"/>
<path d="M35.3397 124.75H28.4297V131.6H35.3397V124.75Z" fill="#54679B"/>
<path d="M35.3397 117.83H28.4297V124.74H35.3397V117.83Z" fill="#4A5A7F"/>
<path d="M35.3397 111H28.4297V117.85H35.3397V111Z" fill="black"/>
<path d="M28.4398 207.35H21.5898V214.2H28.4398V207.35Z" fill="black"/>
<path d="M28.4398 200.43H21.5898V207.34H28.4398V200.43Z" fill="#4A5A7F"/>
<path d="M28.4398 193.52H21.5898V200.43H28.4398V193.52Z" fill="black"/>
<path d="M28.4398 166.01H21.5898V172.92H28.4398V166.01Z" fill="black"/>
<path d="M28.4398 159.17H21.5898V166.02H28.4398V159.17Z" fill="#1C2C3F"/>
<path d="M28.4398 152.25H21.5898V159.16H28.4398V152.25Z" fill="black"/>
<path d="M28.4398 124.75H21.5898V131.6H28.4398V124.75Z" fill="black"/>
<path d="M28.4398 117.83H21.5898V124.74H28.4398V117.83Z" fill="#4A5A7F"/>
<path d="M28.4398 111H21.5898V117.85H28.4398V111Z" fill="black"/>
<path d="M21.5897 207.35H14.6797V214.2H21.5897V207.35Z" fill="black"/>
<path d="M21.5897 200.43H14.6797V207.34H21.5897V200.43Z" fill="black"/>
<path d="M21.5897 172.93H14.6797V179.78H21.5897V172.93Z" fill="black"/>
<path d="M21.5897 166.01H14.6797V172.92H21.5897V166.01Z" fill="#2D3D54"/>
<path d="M21.5897 159.17H14.6797V166.02H21.5897V159.17Z" fill="#2D3D54"/>
<path d="M21.5897 152.25H14.6797V159.16H21.5897V152.25Z" fill="#1C2C3F"/>
<path d="M21.5897 145.35H14.6797V152.26H21.5897V145.35Z" fill="black"/>
<path d="M21.5897 117.83H14.6797V124.74H21.5897V117.83Z" fill="black"/>
<path d="M21.5897 111H14.6797V117.85H21.5897V111Z" fill="black"/>
<path d="M14.6898 166.01H7.83984V172.92H14.6898V166.01Z" fill="black"/>
<path d="M14.6898 159.17H7.83984V166.02H14.6898V159.17Z" fill="#2D3D54"/>
<path d="M14.6898 152.25H7.83984V159.16H14.6898V152.25Z" fill="black"/>
<path d="M7.83968 159.17H0.929688V166.02H7.83968V159.17Z" fill="black"/>
</svg>
