<svg width="96" height="96" viewBox="0 0 96 96" fill="none" xmlns="http://www.w3.org/2000/svg">
<path d="M76 46C76 53.73 70.63 60 64 60C57.37 60 52 53.73 52 46" stroke="#FF3864" stroke-width="2"/>
<path d="M52.1797 37.91C52.6669 35.1288 54.1192 32.6085 56.2811 30.7924C58.4431 28.9763 61.1762 27.9807 63.9997 27.9807C66.8232 27.9807 69.5563 28.9763 71.7182 30.7924C73.8802 32.6085 75.3325 35.1288 75.8197 37.91" stroke="#FF3864" stroke-width="2"/>
<path d="M80 44L64 52L48 44V40L64 32L80 40V44Z" stroke="#FF3864" stroke-width="2"/>
<path d="M64 28V52" stroke="#FF3864" stroke-width="2"/>
<path d="M74 40V44" stroke="#FF3864" stroke-width="2"/>
<path d="M54 40V44" stroke="#FF3864" stroke-width="2"/>
<path d="M59 38.5V45.5" stroke="#FF3864" stroke-width="2"/>
<path d="M69 38.5V45.5" stroke="#FF3864" stroke-width="2"/>
<path d="M72 56C72 56 72 60 80 64C72 72 64 88 64 88C64 88 56 72 48 64C56 60 56 56 56 56" stroke="#FF3864" stroke-width="2"/>
<path d="M64 71C65.6569 71 67 69.6569 67 68C67 66.3431 65.6569 65 64 65C62.3431 65 61 66.3431 61 68C61 69.6569 62.3431 71 64 71Z" stroke="#FF3864" stroke-width="2"/>
<path d="M64 88V71" stroke="#FF3864" stroke-width="2"/>
<path d="M59.9999 28.68V20.4C59.961 17.2058 61.1704 14.1225 63.3705 11.8066C65.5707 9.4906 68.5879 8.12483 71.7799 8C73.3742 7.97077 74.9583 8.25957 76.4397 8.84952C77.9211 9.43948 79.2701 10.3188 80.4078 11.436C81.5455 12.5532 82.4491 13.886 83.0659 15.3564C83.6827 16.8268 84.0002 18.4055 83.9999 20" stroke="#FF3864" stroke-width="2"/>
<path d="M84 20V24C84 25.0609 84.4214 26.0783 85.1716 26.8284C85.9217 27.5786 86.9391 28 88 28C88 30.1217 87.1571 32.1566 85.6569 33.6569C84.1566 35.1571 82.1217 36 80 36" stroke="#FF3864" stroke-width="2"/>
<path d="M68 28.68V24C68 23.4696 68.2107 22.9609 68.5858 22.5858C68.9609 22.2107 69.4696 22 70 22C70.5304 22 71.0391 22.2107 71.4142 22.5858C71.7893 22.9609 72 23.4696 72 24V31.05" stroke="#FF3864" stroke-width="2"/>
<path d="M56 88H8" stroke="#FF3864" stroke-width="2"/>
<path d="M88 88H72" stroke="#FF3864" stroke-width="2"/>
<path d="M20 32L16 16L24 8L32 16L28 32" stroke="#FF3864" stroke-width="2"/>
<path d="M18 32H30V36H18V32Z" stroke="#FF3864" stroke-width="2"/>
<path d="M24 36V68" stroke="#FF3864" stroke-width="2"/>
<path d="M24 80V88" stroke="#FF3864" stroke-width="2"/>
<path d="M24 8V32" stroke="#FF3864" stroke-width="2"/>
<path d="M22 80H26C27.1046 80 28 79.1046 28 78V70C28 68.8954 27.1046 68 26 68H22C20.8954 68 20 68.8954 20 70V78C20 79.1046 20.8954 80 22 80Z" stroke="#FF3864" stroke-width="2"/>
<path d="M24 68H30C30.5304 68 31.0391 68.2107 31.4142 68.5858C31.7893 68.9609 32 69.4696 32 70V74C32 74.5304 31.7893 75.0391 31.4142 75.4142C31.0391 75.7893 30.5304 76 30 76H28" stroke="#FF3864" stroke-width="2"/>
<path d="M48 64C36 52 24 60 24 68" stroke="#FF3864" stroke-width="2"/>
<path d="M48 88C40 72 32 72 32 72" stroke="#FF3864" stroke-width="2"/>
</svg>
