<svg width="231" height="250" viewBox="0 0 231 250" fill="none" xmlns="http://www.w3.org/2000/svg">
<path d="M230.02 177.52H223.43V184.05H230.02V177.52Z" fill="black"/>
<path d="M230.02 170.93H223.43V177.52H230.02V170.93Z" fill="black"/>
<path d="M230.02 164.4H223.43V170.93H230.02V164.4Z" fill="black"/>
<path d="M223.43 177.52H216.9V184.05H223.43V177.52Z" fill="black"/>
<path d="M223.43 170.93H216.9V177.52H223.43V170.93Z" fill="#BC9311"/>
<path d="M223.43 164.4H216.9V170.93H223.43V164.4Z" fill="#BC9311"/>
<path d="M223.43 157.81H216.9V164.4H223.43V157.81Z" fill="black"/>
<path d="M216.89 177.52H210.3V184.05H216.89V177.52Z" fill="black"/>
<path d="M216.89 170.93H210.3V177.52H216.89V170.93Z" fill="#BC9311"/>
<path d="M216.89 164.4H210.3V170.93H216.89V164.4Z" fill="#FFCE17"/>
<path d="M216.89 157.81H210.3V164.4H216.89V157.81Z" fill="#BC9311"/>
<path d="M216.89 151.22H210.3V157.81H216.89V151.22Z" fill="black"/>
<path d="M210.3 177.52H203.77V184.05H210.3V177.52Z" fill="black"/>
<path d="M210.3 170.93H203.77V177.52H210.3V170.93Z" fill="#FFCE17"/>
<path d="M210.3 164.4H203.77V170.93H210.3V164.4Z" fill="#D8B8B8"/>
<path d="M210.3 157.81H203.77V164.4H210.3V157.81Z" fill="#D8B8B8"/>
<path d="M210.3 151.22H203.77V157.81H210.3V151.22Z" fill="#BA9595"/>
<path d="M210.3 144.69H203.77V151.22H210.3V144.69Z" fill="black"/>
<path d="M210.3 138.09H203.77V144.68H210.3V138.09Z" fill="black"/>
<path d="M203.77 210.36H197.18V216.89H203.77V210.36Z" fill="black"/>
<path d="M203.77 203.77H197.18V210.36H203.77V203.77Z" fill="black"/>
<path d="M203.77 197.18H197.18V203.77H203.77V197.18Z" fill="black"/>
<path d="M203.77 190.64H197.18V197.17H203.77V190.64Z" fill="black"/>
<path d="M203.77 184.06H197.18V190.65H203.77V184.06Z" fill="black"/>
<path d="M203.77 177.52H197.18V184.05H203.77V177.52Z" fill="black"/>
<path d="M203.77 170.93H197.18V177.52H203.77V170.93Z" fill="#FFCE17"/>
<path d="M203.77 164.4H197.18V170.93H203.77V164.4Z" fill="#D8B8B8"/>
<path d="M203.77 157.81H197.18V164.4H203.77V157.81Z" fill="#D8B8B8"/>
<path d="M203.77 151.22H197.18V157.81H203.77V151.22Z" fill="#D8B8B8"/>
<path d="M203.77 144.69H197.18V151.22H203.77V144.69Z" fill="#D8B8B8"/>
<path d="M203.77 138.09H197.18V144.68H203.77V138.09Z" fill="#D8B8B8"/>
<path d="M203.77 131.56H197.18V138.09H203.77V131.56Z" fill="black"/>
<path d="M203.77 124.97H197.18V131.56H203.77V124.97Z" fill="black"/>
<path d="M197.18 210.36H190.59V216.89H197.18V210.36Z" fill="black"/>
<path d="M197.18 203.77H190.59V210.36H197.18V203.77Z" fill="#BC9311"/>
<path d="M197.18 197.18H190.59V203.77H197.18V197.18Z" fill="#BC9311"/>
<path d="M197.18 190.64H190.59V197.17H197.18V190.64Z" fill="#BC9311"/>
<path d="M197.18 184.06H190.59V190.65H197.18V184.06Z" fill="#FFCE17"/>
<path d="M197.18 177.52H190.59V184.05H197.18V177.52Z" fill="#FFCE17"/>
<path d="M197.18 170.93H190.59V177.52H197.18V170.93Z" fill="#D8B8B8"/>
<path d="M197.18 164.4H190.59V170.93H197.18V164.4Z" fill="#D8B8B8"/>
<path d="M197.18 157.81H190.59V164.4H197.18V157.81Z" fill="#D8B8B8"/>
<path d="M197.18 151.22H190.59V157.81H197.18V151.22Z" fill="#D8B8B8"/>
<path d="M197.18 144.69H190.59V151.22H197.18V144.69Z" fill="#D8B8B8"/>
<path d="M197.18 138.09H190.59V144.68H197.18V138.09Z" fill="#D8B8B8"/>
<path d="M197.18 131.56H190.59V138.09H197.18V131.56Z" fill="#D8B8B8"/>
<path d="M197.18 124.97H190.59V131.56H197.18V124.97Z" fill="#D8B8B8"/>
<path d="M197.18 118.44H190.59V124.97H197.18V118.44Z" fill="black"/>
<path d="M197.18 111.85H190.59V118.44H197.18V111.85Z" fill="black"/>
<path d="M197.18 92.1299H190.59V98.7199H197.18V92.1299Z" fill="black"/>
<path d="M197.18 85.5996H190.59V92.1296H197.18V85.5996Z" fill="black"/>
<path d="M197.18 79.0098H190.59V85.5998H197.18V79.0098Z" fill="black"/>
<path d="M190.58 216.89H184.05V223.48H190.58V216.89Z" fill="black"/>
<path d="M190.58 210.36H184.05V216.89H190.58V210.36Z" fill="#A05252"/>
<path d="M190.58 203.77H184.05V210.36H190.58V203.77Z" fill="black"/>
<path d="M190.58 197.18H184.05V203.77H190.58V197.18Z" fill="#BC9311"/>
<path d="M190.58 190.64H184.05V197.17H190.58V190.64Z" fill="#FFCE17"/>
<path d="M190.58 184.06H184.05V190.65H190.58V184.06Z" fill="#D8B8B8"/>
<path d="M190.58 177.52H184.05V184.05H190.58V177.52Z" fill="#D8B8B8"/>
<path d="M190.58 170.93H184.05V177.52H190.58V170.93Z" fill="#D8B8B8"/>
<path d="M190.58 164.4H184.05V170.93H190.58V164.4Z" fill="#D8B8B8"/>
<path d="M190.58 157.81H184.05V164.4H190.58V157.81Z" fill="#D8B8B8"/>
<path d="M190.58 151.22H184.05V157.81H190.58V151.22Z" fill="#D8B8B8"/>
<path d="M190.58 144.69H184.05V151.22H190.58V144.69Z" fill="#D8B8B8"/>
<path d="M190.58 138.09H184.05V144.68H190.58V138.09Z" fill="#D8B8B8"/>
<path d="M190.58 131.56H184.05V138.09H190.58V131.56Z" fill="#D8B8B8"/>
<path d="M190.58 124.97H184.05V131.56H190.58V124.97Z" fill="#D8B8B8"/>
<path d="M190.58 118.44H184.05V124.97H190.58V118.44Z" fill="#D8B8B8"/>
<path d="M190.58 111.85H184.05V118.44H190.58V111.85Z" fill="#D8B8B8"/>
<path d="M190.58 105.32H184.05V111.85H190.58V105.32Z" fill="black"/>
<path d="M190.58 98.7197H184.05V105.31H190.58V98.7197Z" fill="black"/>
<path d="M190.58 92.1299H184.05V98.7199H190.58V92.1299Z" fill="black"/>
<path d="M190.58 85.5996H184.05V92.1296H190.58V85.5996Z" fill="#844141"/>
<path d="M190.58 79.0098H184.05V85.5998H190.58V79.0098Z" fill="#A05252"/>
<path d="M190.58 72.48H184.05V79.01H190.58V72.48Z" fill="black"/>
<path d="M190.58 65.8896H184.05V72.4796H190.58V65.8896Z" fill="black"/>
<path d="M184.06 216.89H177.47V223.48H184.06V216.89Z" fill="black"/>
<path d="M184.06 210.36H177.47V216.89H184.06V210.36Z" fill="#A05252"/>
<path d="M184.06 203.77H177.47V210.36H184.06V203.77Z" fill="#A05252"/>
<path d="M184.06 197.18H177.47V203.77H184.06V197.18Z" fill="black"/>
<path d="M184.06 190.64H177.47V197.17H184.06V190.64Z" fill="#FFCE17"/>
<path d="M184.06 184.06H177.47V190.65H184.06V184.06Z" fill="#D8B8B8"/>
<path d="M184.06 177.52H177.47V184.05H184.06V177.52Z" fill="#D8B8B8"/>
<path d="M184.06 170.93H177.47V177.52H184.06V170.93Z" fill="#D8B8B8"/>
<path d="M184.06 164.4H177.47V170.93H184.06V164.4Z" fill="#D8B8B8"/>
<path d="M184.06 157.81H177.47V164.4H184.06V157.81Z" fill="#D8B8B8"/>
<path d="M184.06 151.22H177.47V157.81H184.06V151.22Z" fill="#D8B8B8"/>
<path d="M184.06 144.69H177.47V151.22H184.06V144.69Z" fill="#D8B8B8"/>
<path d="M184.06 138.09H177.47V144.68H184.06V138.09Z" fill="#D8B8B8"/>
<path d="M184.06 131.56H177.47V138.09H184.06V131.56Z" fill="#D8B8B8"/>
<path d="M184.06 124.97H177.47V131.56H184.06V124.97Z" fill="#D8B8B8"/>
<path d="M184.06 118.44H177.47V124.97H184.06V118.44Z" fill="#D8B8B8"/>
<path d="M184.06 111.85H177.47V118.44H184.06V111.85Z" fill="#D8B8B8"/>
<path d="M184.06 105.32H177.47V111.85H184.06V105.32Z" fill="#D8B8B8"/>
<path d="M184.06 98.7197H177.47V105.31H184.06V98.7197Z" fill="#BA9595"/>
<path d="M184.06 92.1299H177.47V98.7199H184.06V92.1299Z" fill="#844141"/>
<path d="M184.06 85.5996H177.47V92.1296H184.06V85.5996Z" fill="#844141"/>
<path d="M184.06 79.0098H177.47V85.5998H184.06V79.0098Z" fill="#A05252"/>
<path d="M184.06 72.48H177.47V79.01H184.06V72.48Z" fill="#A05252"/>
<path d="M184.06 65.8896H177.47V72.4796H184.06V65.8896Z" fill="#A05252"/>
<path d="M184.06 59.3599H177.47V65.8899H184.06V59.3599Z" fill="black"/>
<path d="M177.47 223.48H170.94V230.01H177.47V223.48Z" fill="black"/>
<path d="M177.47 216.89H170.94V223.48H177.47V216.89Z" fill="#A05252"/>
<path d="M177.47 210.36H170.94V216.89H177.47V210.36Z" fill="#A05252"/>
<path d="M177.47 203.77H170.94V210.36H177.47V203.77Z" fill="#A05252"/>
<path d="M177.47 197.18H170.94V203.77H177.47V197.18Z" fill="#A05252"/>
<path d="M177.47 190.64H170.94V197.17H177.47V190.64Z" fill="black"/>
<path d="M177.47 184.06H170.94V190.65H177.47V184.06Z" fill="black"/>
<path d="M177.47 177.52H170.94V184.05H177.47V177.52Z" fill="#D8B8B8"/>
<path d="M177.47 170.93H170.94V177.52H177.47V170.93Z" fill="#D8B8B8"/>
<path d="M177.47 164.4H170.94V170.93H177.47V164.4Z" fill="#D8B8B8"/>
<path d="M177.47 157.81H170.94V164.4H177.47V157.81Z" fill="#D8B8B8"/>
<path d="M177.47 151.22H170.94V157.81H177.47V151.22Z" fill="#D8B8B8"/>
<path d="M177.47 144.69H170.94V151.22H177.47V144.69Z" fill="#D8B8B8"/>
<path d="M177.47 138.09H170.94V144.68H177.47V138.09Z" fill="#D8B8B8"/>
<path d="M177.47 131.56H170.94V138.09H177.47V131.56Z" fill="#D8B8B8"/>
<path d="M177.47 124.97H170.94V131.56H177.47V124.97Z" fill="#D8B8B8"/>
<path d="M177.47 118.44H170.94V124.97H177.47V118.44Z" fill="#D8B8B8"/>
<path d="M177.47 111.85H170.94V118.44H177.47V111.85Z" fill="#D8B8B8"/>
<path d="M177.47 105.32H170.94V111.85H177.47V105.32Z" fill="#BA9595"/>
<path d="M177.47 98.7197H170.94V105.31H177.47V98.7197Z" fill="#BA9595"/>
<path d="M177.47 92.1299H170.94V98.7199H177.47V92.1299Z" fill="#844141"/>
<path d="M177.47 85.5996H170.94V92.1296H177.47V85.5996Z" fill="#A05252"/>
<path d="M177.47 79.0098H170.94V85.5998H177.47V79.0098Z" fill="#A05252"/>
<path d="M177.47 72.48H170.94V79.01H177.47V72.48Z" fill="#A05252"/>
<path d="M177.47 65.8896H170.94V72.4796H177.47V65.8896Z" fill="#A05252"/>
<path d="M177.47 59.3599H170.94V65.8899H177.47V59.3599Z" fill="#BA9595"/>
<path d="M177.47 52.7598H170.94V59.3498H177.47V52.7598Z" fill="black"/>
<path d="M170.93 243.14H164.34V249.73H170.93V243.14Z" fill="black"/>
<path d="M170.93 236.6H164.34V243.13H170.93V236.6Z" fill="black"/>
<path d="M170.93 223.48H164.34V230.01H170.93V223.48Z" fill="black"/>
<path d="M170.93 216.89H164.34V223.48H170.93V216.89Z" fill="#A05252"/>
<path d="M170.93 210.36H164.34V216.89H170.93V210.36Z" fill="#A05252"/>
<path d="M170.93 203.77H164.34V210.36H170.93V203.77Z" fill="black"/>
<path d="M170.93 197.18H164.34V203.77H170.93V197.18Z" fill="black"/>
<path d="M170.93 190.64H164.34V197.17H170.93V190.64Z" fill="#FFCE17"/>
<path d="M170.93 184.06H164.34V190.65H170.93V184.06Z" fill="#FFCE17"/>
<path d="M170.93 177.52H164.34V184.05H170.93V177.52Z" fill="#D8B8B8"/>
<path d="M170.93 170.93H164.34V177.52H170.93V170.93Z" fill="#D8B8B8"/>
<path d="M170.93 164.4H164.34V170.93H170.93V164.4Z" fill="#D8B8B8"/>
<path d="M170.93 157.81H164.34V164.4H170.93V157.81Z" fill="#D8B8B8"/>
<path d="M170.93 151.22H164.34V157.81H170.93V151.22Z" fill="#D8B8B8"/>
<path d="M170.93 144.69H164.34V151.22H170.93V144.69Z" fill="#D8B8B8"/>
<path d="M170.93 138.09H164.34V144.68H170.93V138.09Z" fill="#D8B8B8"/>
<path d="M170.93 131.56H164.34V138.09H170.93V131.56Z" fill="#D8B8B8"/>
<path d="M170.93 124.97H164.34V131.56H170.93V124.97Z" fill="#D8B8B8"/>
<path d="M170.93 118.44H164.34V124.97H170.93V118.44Z" fill="#D8B8B8"/>
<path d="M170.93 111.85H164.34V118.44H170.93V111.85Z" fill="#D8B8B8"/>
<path d="M170.93 105.32H164.34V111.85H170.93V105.32Z" fill="#BA9595"/>
<path d="M170.93 98.7197H164.34V105.31H170.93V98.7197Z" fill="#844141"/>
<path d="M170.93 92.1299H164.34V98.7199H170.93V92.1299Z" fill="#844141"/>
<path d="M170.93 85.5996H164.34V92.1296H170.93V85.5996Z" fill="#A05252"/>
<path d="M170.93 79.0098H164.34V85.5998H170.93V79.0098Z" fill="#A05252"/>
<path d="M170.93 72.48H164.34V79.01H170.93V72.48Z" fill="#A05252"/>
<path d="M170.93 65.8896H164.34V72.4796H170.93V65.8896Z" fill="#BA9595"/>
<path d="M170.93 59.3599H164.34V65.8899H170.93V59.3599Z" fill="#BA9595"/>
<path d="M170.93 52.7598H164.34V59.3498H170.93V52.7598Z" fill="black"/>
<path d="M164.34 243.14H157.81V249.73H164.34V243.14Z" fill="black"/>
<path d="M164.34 236.6H157.81V243.13H164.34V236.6Z" fill="#7F4E4E"/>
<path d="M164.34 230.02H157.81V236.61H164.34V230.02Z" fill="black"/>
<path d="M164.34 223.48H157.81V230.01H164.34V223.48Z" fill="black"/>
<path d="M164.34 216.89H157.81V223.48H164.34V216.89Z" fill="#A05252"/>
<path d="M164.34 210.36H157.81V216.89H164.34V210.36Z" fill="black"/>
<path d="M164.34 203.77H157.81V210.36H164.34V203.77Z" fill="#BC9311"/>
<path d="M164.34 197.18H157.81V203.77H164.34V197.18Z" fill="#BC9311"/>
<path d="M164.34 190.64H157.81V197.17H164.34V190.64Z" fill="#FFCE17"/>
<path d="M164.34 184.06H157.81V190.65H164.34V184.06Z" fill="#D8B8B8"/>
<path d="M164.34 177.52H157.81V184.05H164.34V177.52Z" fill="#D8B8B8"/>
<path d="M164.34 170.93H157.81V177.52H164.34V170.93Z" fill="#D8B8B8"/>
<path d="M164.34 164.4H157.81V170.93H164.34V164.4Z" fill="#D8B8B8"/>
<path d="M164.34 157.81H157.81V164.4H164.34V157.81Z" fill="#D8B8B8"/>
<path d="M164.34 151.22H157.81V157.81H164.34V151.22Z" fill="#D8B8B8"/>
<path d="M164.34 144.69H157.81V151.22H164.34V144.69Z" fill="#D8B8B8"/>
<path d="M164.34 138.09H157.81V144.68H164.34V138.09Z" fill="#D8B8B8"/>
<path d="M164.34 131.56H157.81V138.09H164.34V131.56Z" fill="#D8B8B8"/>
<path d="M164.34 124.97H157.81V131.56H164.34V124.97Z" fill="#D8B8B8"/>
<path d="M164.34 118.44H157.81V124.97H164.34V118.44Z" fill="#D8B8B8"/>
<path d="M164.34 111.85H157.81V118.44H164.34V111.85Z" fill="#D8B8B8"/>
<path d="M164.34 105.32H157.81V111.85H164.34V105.32Z" fill="#BA9595"/>
<path d="M164.34 98.7197H157.81V105.31H164.34V98.7197Z" fill="#844141"/>
<path d="M164.34 92.1299H157.81V98.7199H164.34V92.1299Z" fill="#A05252"/>
<path d="M164.34 85.5996H157.81V92.1296H164.34V85.5996Z" fill="#A05252"/>
<path d="M164.34 79.0098H157.81V85.5998H164.34V79.0098Z" fill="#A05252"/>
<path d="M164.34 72.48H157.81V79.01H164.34V72.48Z" fill="#A05252"/>
<path d="M164.34 65.8896H157.81V72.4796H164.34V65.8896Z" fill="#D8B8B8"/>
<path d="M164.34 59.3599H157.81V65.8899H164.34V59.3599Z" fill="#BA9595"/>
<path d="M164.34 52.7598H157.81V59.3498H164.34V52.7598Z" fill="#BA9595"/>
<path d="M164.34 46.1699H157.81V52.7599H164.34V46.1699Z" fill="black"/>
<path d="M157.81 243.14H151.22V249.73H157.81V243.14Z" fill="black"/>
<path d="M157.81 236.6H151.22V243.13H157.81V236.6Z" fill="#7F4E4E"/>
<path d="M157.81 230.02H151.22V236.61H157.81V230.02Z" fill="#7F4E4E"/>
<path d="M157.81 223.48H151.22V230.01H157.81V223.48Z" fill="black"/>
<path d="M157.81 216.89H151.22V223.48H157.81V216.89Z" fill="#A05252"/>
<path d="M157.81 210.36H151.22V216.89H157.81V210.36Z" fill="black"/>
<path d="M157.81 203.77H151.22V210.36H157.81V203.77Z" fill="black"/>
<path d="M157.81 197.18H151.22V203.77H157.81V197.18Z" fill="black"/>
<path d="M157.81 190.64H151.22V197.17H157.81V190.64Z" fill="black"/>
<path d="M157.81 184.06H151.22V190.65H157.81V184.06Z" fill="black"/>
<path d="M157.81 177.52H151.22V184.05H157.81V177.52Z" fill="#FFCE17"/>
<path d="M157.81 170.93H151.22V177.52H157.81V170.93Z" fill="#BA9595"/>
<path d="M157.81 164.4H151.22V170.93H157.81V164.4Z" fill="#BA9595"/>
<path d="M157.81 157.81H151.22V164.4H157.81V157.81Z" fill="#BA9595"/>
<path d="M157.81 151.22H151.22V157.81H157.81V151.22Z" fill="#BA9595"/>
<path d="M157.81 144.69H151.22V151.22H157.81V144.69Z" fill="#BA9595"/>
<path d="M157.81 138.09H151.22V144.68H157.81V138.09Z" fill="#BA9595"/>
<path d="M157.81 131.56H151.22V138.09H157.81V131.56Z" fill="#D8B8B8"/>
<path d="M157.81 124.97H151.22V131.56H157.81V124.97Z" fill="#D8B8B8"/>
<path d="M157.81 118.44H151.22V124.97H157.81V118.44Z" fill="#D8B8B8"/>
<path d="M157.81 111.85H151.22V118.44H157.81V111.85Z" fill="#BA9595"/>
<path d="M157.81 105.32H151.22V111.85H157.81V105.32Z" fill="#BA9595"/>
<path d="M157.81 98.7197H151.22V105.31H157.81V98.7197Z" fill="#844141"/>
<path d="M157.81 92.1299H151.22V98.7199H157.81V92.1299Z" fill="#A05252"/>
<path d="M157.81 85.5996H151.22V92.1296H157.81V85.5996Z" fill="#A05252"/>
<path d="M157.81 79.0098H151.22V85.5998H157.81V79.0098Z" fill="#A05252"/>
<path d="M157.81 72.48H151.22V79.01H157.81V72.48Z" fill="#A05252"/>
<path d="M157.81 65.8896H151.22V72.4796H157.81V65.8896Z" fill="#D8B8B8"/>
<path d="M157.81 59.3599H151.22V65.8899H157.81V59.3599Z" fill="#D8B8B8"/>
<path d="M157.81 52.7598H151.22V59.3498H157.81V52.7598Z" fill="#BA9595"/>
<path d="M157.81 46.1699H151.22V52.7599H157.81V46.1699Z" fill="black"/>
<path d="M157.81 39.6396H151.22V46.1696H157.81V39.6396Z" fill="black"/>
<path d="M157.81 33.0498H151.22V39.6398H157.81V33.0498Z" fill="black"/>
<path d="M151.22 243.14H144.63V249.73H151.22V243.14Z" fill="black"/>
<path d="M151.22 236.6H144.63V243.13H151.22V236.6Z" fill="#7F4E4E"/>
<path d="M151.22 230.02H144.63V236.61H151.22V230.02Z" fill="black"/>
<path d="M151.22 223.48H144.63V230.01H151.22V223.48Z" fill="#A05252"/>
<path d="M151.22 216.89H144.63V223.48H151.22V216.89Z" fill="#A05252"/>
<path d="M151.22 210.36H144.63V216.89H151.22V210.36Z" fill="#A05252"/>
<path d="M151.22 203.77H144.63V210.36H151.22V203.77Z" fill="#A05252"/>
<path d="M151.22 197.18H144.63V203.77H151.22V197.18Z" fill="black"/>
<path d="M151.22 190.64H144.63V197.17H151.22V190.64Z" fill="#BC9311"/>
<path d="M151.22 184.06H144.63V190.65H151.22V184.06Z" fill="#BC9311"/>
<path d="M151.22 177.52H144.63V184.05H151.22V177.52Z" fill="#FFCE17"/>
<path d="M151.22 170.93H144.63V177.52H151.22V170.93Z" fill="#FFCE17"/>
<path d="M151.22 164.4H144.63V170.93H151.22V164.4Z" fill="#BA9595"/>
<path d="M151.22 157.81H144.63V164.4H151.22V157.81Z" fill="#BA9595"/>
<path d="M151.22 151.22H144.63V157.81H151.22V151.22Z" fill="#BA9595"/>
<path d="M151.22 144.69H144.63V151.22H151.22V144.69Z" fill="#BA9595"/>
<path d="M151.22 138.09H144.63V144.68H151.22V138.09Z" fill="#BA9595"/>
<path d="M151.22 131.56H144.63V138.09H151.22V131.56Z" fill="#BA9595"/>
<path d="M151.22 124.97H144.63V131.56H151.22V124.97Z" fill="#BA9595"/>
<path d="M151.22 118.44H144.63V124.97H151.22V118.44Z" fill="#BA9595"/>
<path d="M151.22 111.85H144.63V118.44H151.22V111.85Z" fill="#BA9595"/>
<path d="M151.22 105.32H144.63V111.85H151.22V105.32Z" fill="#844141"/>
<path d="M151.22 98.7197H144.63V105.31H151.22V98.7197Z" fill="#844141"/>
<path d="M151.22 92.1299H144.63V98.7199H151.22V92.1299Z" fill="#A05252"/>
<path d="M151.22 85.5996H144.63V92.1296H151.22V85.5996Z" fill="#A05252"/>
<path d="M151.22 79.0098H144.63V85.5998H151.22V79.0098Z" fill="#A05252"/>
<path d="M151.22 72.48H144.63V79.01H151.22V72.48Z" fill="#D8B8B8"/>
<path d="M151.22 65.8896H144.63V72.4796H151.22V65.8896Z" fill="#D8B8B8"/>
<path d="M151.22 59.3599H144.63V65.8899H151.22V59.3599Z" fill="#D8B8B8"/>
<path d="M151.22 52.7598H144.63V59.3498H151.22V52.7598Z" fill="#BA9595"/>
<path d="M151.22 46.1699H144.63V52.7599H151.22V46.1699Z" fill="#BA9595"/>
<path d="M151.22 39.6396H144.63V46.1696H151.22V39.6396Z" fill="#BA9595"/>
<path d="M151.22 33.0498H144.63V39.6398H151.22V33.0498Z" fill="#BA9595"/>
<path d="M151.22 26.52H144.63V33.05H151.22V26.52Z" fill="black"/>
<path d="M151.22 19.9199H144.63V26.5099H151.22V19.9199Z" fill="black"/>
<path d="M144.63 243.14H138.1V249.73H144.63V243.14Z" fill="black"/>
<path d="M144.63 236.6H138.1V243.13H144.63V236.6Z" fill="#7F4E4E"/>
<path d="M144.63 230.02H138.1V236.61H144.63V230.02Z" fill="black"/>
<path d="M144.63 223.48H138.1V230.01H144.63V223.48Z" fill="#A05252"/>
<path d="M144.63 216.89H138.1V223.48H144.63V216.89Z" fill="#A05252"/>
<path d="M144.63 210.36H138.1V216.89H144.63V210.36Z" fill="#A05252"/>
<path d="M144.63 203.77H138.1V210.36H144.63V203.77Z" fill="#A05252"/>
<path d="M144.63 197.18H138.1V203.77H144.63V197.18Z" fill="black"/>
<path d="M144.63 190.64H138.1V197.17H144.63V190.64Z" fill="black"/>
<path d="M144.63 184.06H138.1V190.65H144.63V184.06Z" fill="black"/>
<path d="M144.63 177.52H138.1V184.05H144.63V177.52Z" fill="black"/>
<path d="M144.63 170.93H138.1V177.52H144.63V170.93Z" fill="black"/>
<path d="M144.63 164.4H138.1V170.93H144.63V164.4Z" fill="black"/>
<path d="M144.63 157.81H138.1V164.4H144.63V157.81Z" fill="black"/>
<path d="M144.63 151.22H138.1V157.81H144.63V151.22Z" fill="black"/>
<path d="M144.63 144.69H138.1V151.22H144.63V144.69Z" fill="black"/>
<path d="M144.63 138.09H138.1V144.68H144.63V138.09Z" fill="black"/>
<path d="M144.63 131.56H138.1V138.09H144.63V131.56Z" fill="#BA9595"/>
<path d="M144.63 124.97H138.1V131.56H144.63V124.97Z" fill="#BA9595"/>
<path d="M144.63 118.44H138.1V124.97H144.63V118.44Z" fill="#BA9595"/>
<path d="M144.63 111.85H138.1V118.44H144.63V111.85Z" fill="#BA9595"/>
<path d="M144.63 105.32H138.1V111.85H144.63V105.32Z" fill="#844141"/>
<path d="M144.63 98.7197H138.1V105.31H144.63V98.7197Z" fill="#A05252"/>
<path d="M144.63 92.1299H138.1V98.7199H144.63V92.1299Z" fill="#A05252"/>
<path d="M144.63 85.5996H138.1V92.1296H144.63V85.5996Z" fill="#A05252"/>
<path d="M144.63 79.0098H138.1V85.5998H144.63V79.0098Z" fill="#A05252"/>
<path d="M144.63 72.48H138.1V79.01H144.63V72.48Z" fill="#D8B8B8"/>
<path d="M144.63 65.8896H138.1V72.4796H144.63V65.8896Z" fill="#D8B8B8"/>
<path d="M144.63 59.3599H138.1V65.8899H144.63V59.3599Z" fill="#D8B8B8"/>
<path d="M144.63 52.7598H138.1V59.3498H144.63V52.7598Z" fill="#D8B8B8"/>
<path d="M144.63 46.1699H138.1V52.7599H144.63V46.1699Z" fill="#844141"/>
<path d="M144.63 39.6396H138.1V46.1696H144.63V39.6396Z" fill="#844141"/>
<path d="M144.63 33.0498H138.1V39.6398H144.63V33.0498Z" fill="#844141"/>
<path d="M144.63 26.52H138.1V33.05H144.63V26.52Z" fill="#BA9595"/>
<path d="M144.63 19.9199H138.1V26.5099H144.63V19.9199Z" fill="#BA9595"/>
<path d="M144.63 13.3999H138.1V19.9299H144.63V13.3999Z" fill="black"/>
<path d="M138.09 243.14H131.5V249.73H138.09V243.14Z" fill="black"/>
<path d="M138.09 236.6H131.5V243.13H138.09V236.6Z" fill="black"/>
<path d="M138.09 230.02H131.5V236.61H138.09V230.02Z" fill="black"/>
<path d="M138.09 223.48H131.5V230.01H138.09V223.48Z" fill="#A05252"/>
<path d="M138.09 216.89H131.5V223.48H138.09V216.89Z" fill="#A05252"/>
<path d="M138.09 210.36H131.5V216.89H138.09V210.36Z" fill="#A05252"/>
<path d="M138.09 203.77H131.5V210.36H138.09V203.77Z" fill="#BA9595"/>
<path d="M138.09 197.18H131.5V203.77H138.09V197.18Z" fill="#BA9595"/>
<path d="M138.09 190.64H131.5V197.17H138.09V190.64Z" fill="#BA9595"/>
<path d="M138.09 184.06H131.5V190.65H138.09V184.06Z" fill="#BA9595"/>
<path d="M138.09 177.52H131.5V184.05H138.09V177.52Z" fill="#BA9595"/>
<path d="M138.09 170.93H131.5V177.52H138.09V170.93Z" fill="#BA9595"/>
<path d="M138.09 164.4H131.5V170.93H138.09V164.4Z" fill="#BA9595"/>
<path d="M138.09 157.81H131.5V164.4H138.09V157.81Z" fill="#BA9595"/>
<path d="M138.09 151.22H131.5V157.81H138.09V151.22Z" fill="#BA9595"/>
<path d="M138.09 144.69H131.5V151.22H138.09V144.69Z" fill="#BA9595"/>
<path d="M138.09 138.09H131.5V144.68H138.09V138.09Z" fill="#BA9595"/>
<path d="M138.09 131.56H131.5V138.09H138.09V131.56Z" fill="black"/>
<path d="M138.09 124.97H131.5V131.56H138.09V124.97Z" fill="black"/>
<path d="M138.09 118.44H131.5V124.97H138.09V118.44Z" fill="black"/>
<path d="M138.09 111.85H131.5V118.44H138.09V111.85Z" fill="black"/>
<path d="M138.09 105.32H131.5V111.85H138.09V105.32Z" fill="#844141"/>
<path d="M138.09 98.7197H131.5V105.31H138.09V98.7197Z" fill="#A05252"/>
<path d="M138.09 92.1299H131.5V98.7199H138.09V92.1299Z" fill="#A05252"/>
<path d="M138.09 85.5996H131.5V92.1296H138.09V85.5996Z" fill="#A05252"/>
<path d="M138.09 79.0098H131.5V85.5998H138.09V79.0098Z" fill="#A05252"/>
<path d="M138.09 72.48H131.5V79.01H138.09V72.48Z" fill="#D8B8B8"/>
<path d="M138.09 65.8896H131.5V72.4796H138.09V65.8896Z" fill="#D8B8B8"/>
<path d="M138.09 59.3599H131.5V65.8899H138.09V59.3599Z" fill="#D8B8B8"/>
<path d="M138.09 52.7598H131.5V59.3498H138.09V52.7598Z" fill="#844141"/>
<path d="M138.09 46.1699H131.5V52.7599H138.09V46.1699Z" fill="#A05252"/>
<path d="M138.09 39.6396H131.5V46.1696H138.09V39.6396Z" fill="#A05252"/>
<path d="M138.09 33.0498H131.5V39.6398H138.09V33.0498Z" fill="#A05252"/>
<path d="M138.09 26.52H131.5V33.05H138.09V26.52Z" fill="#844141"/>
<path d="M138.09 19.9199H131.5V26.5099H138.09V19.9199Z" fill="#BA9595"/>
<path d="M138.09 13.3999H131.5V19.9299H138.09V13.3999Z" fill="#BA9595"/>
<path d="M138.09 6.7998H131.5V13.3898H138.09V6.7998Z" fill="black"/>
<path d="M131.509 230.02H124.979V236.61H131.509V230.02Z" fill="black"/>
<path d="M131.509 223.48H124.979V230.01H131.509V223.48Z" fill="#A05252"/>
<path d="M131.509 216.89H124.979V223.48H131.509V216.89Z" fill="#A05252"/>
<path d="M131.509 210.36H124.979V216.89H131.509V210.36Z" fill="#A05252"/>
<path d="M131.509 203.77H124.979V210.36H131.509V203.77Z" fill="#D8B8B8"/>
<path d="M131.509 197.18H124.979V203.77H131.509V197.18Z" fill="#D8B8B8"/>
<path d="M131.509 190.64H124.979V197.17H131.509V190.64Z" fill="#D8B8B8"/>
<path d="M131.509 184.06H124.979V190.65H131.509V184.06Z" fill="#D8B8B8"/>
<path d="M131.509 177.52H124.979V184.05H131.509V177.52Z" fill="#D8B8B8"/>
<path d="M131.509 170.93H124.979V177.52H131.509V170.93Z" fill="#D8B8B8"/>
<path d="M131.509 164.4H124.979V170.93H131.509V164.4Z" fill="#D8B8B8"/>
<path d="M131.509 157.81H124.979V164.4H131.509V157.81Z" fill="#D8B8B8"/>
<path d="M131.509 151.22H124.979V157.81H131.509V151.22Z" fill="#D8B8B8"/>
<path d="M131.509 144.69H124.979V151.22H131.509V144.69Z" fill="#D8B8B8"/>
<path d="M131.509 138.09H124.979V144.68H131.509V138.09Z" fill="#D8B8B8"/>
<path d="M131.509 131.56H124.979V138.09H131.509V131.56Z" fill="#BA9595"/>
<path d="M131.509 124.97H124.979V131.56H131.509V124.97Z" fill="#BA9595"/>
<path d="M131.509 118.44H124.979V124.97H131.509V118.44Z" fill="#BA9595"/>
<path d="M131.509 111.85H124.979V118.44H131.509V111.85Z" fill="#BA9595"/>
<path d="M131.509 105.32H124.979V111.85H131.509V105.32Z" fill="#844141"/>
<path d="M131.509 98.7197H124.979V105.31H131.509V98.7197Z" fill="#A05252"/>
<path d="M131.509 92.1299H124.979V98.7199H131.509V92.1299Z" fill="#A05252"/>
<path d="M131.509 85.5996H124.979V92.1296H131.509V85.5996Z" fill="#A05252"/>
<path d="M131.509 79.0098H124.979V85.5998H131.509V79.0098Z" fill="#D8B8B8"/>
<path d="M131.509 72.48H124.979V79.01H131.509V72.48Z" fill="#D8B8B8"/>
<path d="M131.509 65.8896H124.979V72.4796H131.509V65.8896Z" fill="#D8B8B8"/>
<path d="M131.509 59.3599H124.979V65.8899H131.509V59.3599Z" fill="#844141"/>
<path d="M131.509 52.7598H124.979V59.3498H131.509V52.7598Z" fill="#A05252"/>
<path d="M131.509 46.1699H124.979V52.7599H131.509V46.1699Z" fill="#E5B798"/>
<path d="M131.509 39.6396H124.979V46.1696H131.509V39.6396Z" fill="#603C28"/>
<path d="M131.509 33.0498H124.979V39.6398H131.509V33.0498Z" fill="#603C28"/>
<path d="M131.509 26.52H124.979V33.05H131.509V26.52Z" fill="#A05252"/>
<path d="M131.509 19.9199H124.979V26.5099H131.509V19.9199Z" fill="#844141"/>
<path d="M131.509 13.3999H124.979V19.9299H131.509V13.3999Z" fill="#BA9595"/>
<path d="M131.509 6.7998H124.979V13.3898H131.509V6.7998Z" fill="#BA9595"/>
<path d="M131.509 0.279785H124.979V6.80978H131.509V0.279785Z" fill="black"/>
<path d="M124.97 230.02H118.38V236.61H124.97V230.02Z" fill="black"/>
<path d="M124.97 223.48H118.38V230.01H124.97V223.48Z" fill="#A05252"/>
<path d="M124.97 216.89H118.38V223.48H124.97V216.89Z" fill="#A05252"/>
<path d="M124.97 210.36H118.38V216.89H124.97V210.36Z" fill="#A05252"/>
<path d="M124.97 203.77H118.38V210.36H124.97V203.77Z" fill="#FFCE17"/>
<path d="M124.97 197.18H118.38V203.77H124.97V197.18Z" fill="#FFCE17"/>
<path d="M124.97 190.64H118.38V197.17H124.97V190.64Z" fill="#FFCE17"/>
<path d="M124.97 184.06H118.38V190.65H124.97V184.06Z" fill="#FFCE17"/>
<path d="M124.97 177.52H118.38V184.05H124.97V177.52Z" fill="#FFCE17"/>
<path d="M124.97 170.93H118.38V177.52H124.97V170.93Z" fill="#D8B8B8"/>
<path d="M124.97 164.4H118.38V170.93H124.97V164.4Z" fill="#D8B8B8"/>
<path d="M124.97 157.81H118.38V164.4H124.97V157.81Z" fill="#D8B8B8"/>
<path d="M124.97 151.22H118.38V157.81H124.97V151.22Z" fill="#D8B8B8"/>
<path d="M124.97 144.69H118.38V151.22H124.97V144.69Z" fill="#D8B8B8"/>
<path d="M124.97 138.09H118.38V144.68H124.97V138.09Z" fill="#D8B8B8"/>
<path d="M124.97 131.56H118.38V138.09H124.97V131.56Z" fill="#D8B8B8"/>
<path d="M124.97 124.97H118.38V131.56H124.97V124.97Z" fill="#BA9595"/>
<path d="M124.97 118.44H118.38V124.97H124.97V118.44Z" fill="#BA9595"/>
<path d="M124.97 111.85H118.38V118.44H124.97V111.85Z" fill="#BA9595"/>
<path d="M124.97 105.32H118.38V111.85H124.97V105.32Z" fill="#844141"/>
<path d="M124.97 98.7197H118.38V105.31H124.97V98.7197Z" fill="#A05252"/>
<path d="M124.97 92.1299H118.38V98.7199H124.97V92.1299Z" fill="#A05252"/>
<path d="M124.97 85.5996H118.38V92.1296H124.97V85.5996Z" fill="#A05252"/>
<path d="M124.97 79.0098H118.38V85.5998H124.97V79.0098Z" fill="#D8B8B8"/>
<path d="M124.97 72.48H118.38V79.01H124.97V72.48Z" fill="#D8B8B8"/>
<path d="M124.97 65.8896H118.38V72.4796H124.97V65.8896Z" fill="#D8B8B8"/>
<path d="M124.97 59.3599H118.38V65.8899H124.97V59.3599Z" fill="#844141"/>
<path d="M124.97 52.7598H118.38V59.3498H124.97V52.7598Z" fill="#A05252"/>
<path d="M124.97 46.1699H118.38V52.7599H124.97V46.1699Z" fill="#E5B798"/>
<path d="M124.97 39.6396H118.38V46.1696H124.97V39.6396Z" fill="#B28364"/>
<path d="M124.97 33.0498H118.38V39.6398H124.97V33.0498Z" fill="#603C28"/>
<path d="M124.97 26.52H118.38V33.05H124.97V26.52Z" fill="#A05252"/>
<path d="M124.97 19.9199H118.38V26.5099H124.97V19.9199Z" fill="#A05252"/>
<path d="M124.97 13.3999H118.38V19.9299H124.97V13.3999Z" fill="#844141"/>
<path d="M124.97 6.7998H118.38V13.3898H124.97V6.7998Z" fill="#BA9595"/>
<path d="M124.97 0.279785H118.38V6.80978H124.97V0.279785Z" fill="black"/>
<path d="M118.38 230.02H111.85V236.61H118.38V230.02Z" fill="black"/>
<path d="M118.38 223.48H111.85V230.01H118.38V223.48Z" fill="black"/>
<path d="M118.38 216.89H111.85V223.48H118.38V216.89Z" fill="black"/>
<path d="M118.38 210.36H111.85V216.89H118.38V210.36Z" fill="black"/>
<path d="M118.38 203.77H111.85V210.36H118.38V203.77Z" fill="black"/>
<path d="M118.38 197.18H111.85V203.77H118.38V197.18Z" fill="black"/>
<path d="M118.38 190.64H111.85V197.17H118.38V190.64Z" fill="black"/>
<path d="M118.38 184.06H111.85V190.65H118.38V184.06Z" fill="black"/>
<path d="M118.38 177.52H111.85V184.05H118.38V177.52Z" fill="black"/>
<path d="M118.38 170.93H111.85V177.52H118.38V170.93Z" fill="#FFCE17"/>
<path d="M118.38 164.4H111.85V170.93H118.38V164.4Z" fill="#FFCE17"/>
<path d="M118.38 157.81H111.85V164.4H118.38V157.81Z" fill="#FFCE17"/>
<path d="M118.38 151.22H111.85V157.81H118.38V151.22Z" fill="#FFCE17"/>
<path d="M118.38 144.69H111.85V151.22H118.38V144.69Z" fill="#FFCE17"/>
<path d="M118.38 138.09H111.85V144.68H118.38V138.09Z" fill="#FFCE17"/>
<path d="M118.38 131.56H111.85V138.09H118.38V131.56Z" fill="#FFCE17"/>
<path d="M118.38 124.97H111.85V131.56H118.38V124.97Z" fill="#BC9311"/>
<path d="M118.38 118.44H111.85V124.97H118.38V118.44Z" fill="#BC9311"/>
<path d="M118.38 111.85H111.85V118.44H118.38V111.85Z" fill="#BC9311"/>
<path d="M118.38 105.32H111.85V111.85H118.38V105.32Z" fill="#844141"/>
<path d="M118.38 98.7197H111.85V105.31H118.38V98.7197Z" fill="#A05252"/>
<path d="M118.38 92.1299H111.85V98.7199H118.38V92.1299Z" fill="#A05252"/>
<path d="M118.38 85.5996H111.85V92.1296H118.38V85.5996Z" fill="#A05252"/>
<path d="M118.38 79.0098H111.85V85.5998H118.38V79.0098Z" fill="#D8B8B8"/>
<path d="M118.38 72.48H111.85V79.01H118.38V72.48Z" fill="#D8B8B8"/>
<path d="M118.38 65.8896H111.85V72.4796H118.38V65.8896Z" fill="#D8B8B8"/>
<path d="M118.38 59.3599H111.85V65.8899H118.38V59.3599Z" fill="#844141"/>
<path d="M118.38 52.7598H111.85V59.3498H118.38V52.7598Z" fill="#A05252"/>
<path d="M118.38 46.1699H111.85V52.7599H118.38V46.1699Z" fill="#E5B798"/>
<path d="M118.38 39.6396H111.85V46.1696H118.38V39.6396Z" fill="#B28364"/>
<path d="M118.38 33.0498H111.85V39.6398H118.38V33.0498Z" fill="#603C28"/>
<path d="M118.38 26.52H111.85V33.05H118.38V26.52Z" fill="#A05252"/>
<path d="M118.38 19.9199H111.85V26.5099H118.38V19.9199Z" fill="#A05252"/>
<path d="M118.38 13.3999H111.85V19.9299H118.38V13.3999Z" fill="#A05252"/>
<path d="M118.38 6.7998H111.85V13.3898H118.38V6.7998Z" fill="#844141"/>
<path d="M118.38 0.279785H111.85V6.80978H118.38V0.279785Z" fill="black"/>
<path d="M111.85 223.48H105.26V230.01H111.85V223.48Z" fill="black"/>
<path d="M111.85 216.89H105.26V223.48H111.85V216.89Z" fill="#BC9311"/>
<path d="M111.85 210.36H105.26V216.89H111.85V210.36Z" fill="#BC9311"/>
<path d="M111.85 203.77H105.26V210.36H111.85V203.77Z" fill="#BA9595"/>
<path d="M111.85 197.18H105.26V203.77H111.85V197.18Z" fill="#BA9595"/>
<path d="M111.85 190.64H105.26V197.17H111.85V190.64Z" fill="#BA9595"/>
<path d="M111.85 184.06H105.26V190.65H111.85V184.06Z" fill="#BA9595"/>
<path d="M111.85 177.52H105.26V184.05H111.85V177.52Z" fill="#BA9595"/>
<path d="M111.85 170.93H105.26V177.52H111.85V170.93Z" fill="black"/>
<path d="M111.85 164.4H105.26V170.93H111.85V164.4Z" fill="black"/>
<path d="M111.85 157.81H105.26V164.4H111.85V157.81Z" fill="black"/>
<path d="M111.85 151.22H105.26V157.81H111.85V151.22Z" fill="black"/>
<path d="M111.85 144.69H105.26V151.22H111.85V144.69Z" fill="black"/>
<path d="M111.85 138.09H105.26V144.68H111.85V138.09Z" fill="black"/>
<path d="M111.85 131.56H105.26V138.09H111.85V131.56Z" fill="black"/>
<path d="M111.85 124.97H105.26V131.56H111.85V124.97Z" fill="black"/>
<path d="M111.85 118.44H105.26V124.97H111.85V118.44Z" fill="black"/>
<path d="M111.85 111.85H105.26V118.44H111.85V111.85Z" fill="black"/>
<path d="M111.85 105.32H105.26V111.85H111.85V105.32Z" fill="#844141"/>
<path d="M111.85 98.7197H105.26V105.31H111.85V98.7197Z" fill="#A05252"/>
<path d="M111.85 92.1299H105.26V98.7199H111.85V92.1299Z" fill="#A05252"/>
<path d="M111.85 85.5996H105.26V92.1296H111.85V85.5996Z" fill="#A05252"/>
<path d="M111.85 79.0098H105.26V85.5998H111.85V79.0098Z" fill="#D8B8B8"/>
<path d="M111.85 72.48H105.26V79.01H111.85V72.48Z" fill="#D8B8B8"/>
<path d="M111.85 65.8896H105.26V72.4796H111.85V65.8896Z" fill="#D8B8B8"/>
<path d="M111.85 59.3599H105.26V65.8899H111.85V59.3599Z" fill="#844141"/>
<path d="M111.85 52.7598H105.26V59.3498H111.85V52.7598Z" fill="#A05252"/>
<path d="M111.85 46.1699H105.26V52.7599H111.85V46.1699Z" fill="#E5B798"/>
<path d="M111.85 39.6396H105.26V46.1696H111.85V39.6396Z" fill="#B28364"/>
<path d="M111.85 33.0498H105.26V39.6398H111.85V33.0498Z" fill="#603C28"/>
<path d="M111.85 26.52H105.26V33.05H111.85V26.52Z" fill="#A05252"/>
<path d="M111.85 19.9199H105.26V26.5099H111.85V19.9199Z" fill="#A05252"/>
<path d="M111.85 13.3999H105.26V19.9299H111.85V13.3999Z" fill="#844141"/>
<path d="M111.85 6.7998H105.26V13.3898H111.85V6.7998Z" fill="black"/>
<path d="M105.259 243.14H98.7295V249.73H105.259V243.14Z" fill="black"/>
<path d="M105.259 236.6H98.7295V243.13H105.259V236.6Z" fill="black"/>
<path d="M105.259 230.02H98.7295V236.61H105.259V230.02Z" fill="black"/>
<path d="M105.259 223.48H98.7295V230.01H105.259V223.48Z" fill="black"/>
<path d="M105.259 216.89H98.7295V223.48H105.259V216.89Z" fill="#BC9311"/>
<path d="M105.259 210.36H98.7295V216.89H105.259V210.36Z" fill="#BC9311"/>
<path d="M105.259 203.77H98.7295V210.36H105.259V203.77Z" fill="#BA9595"/>
<path d="M105.259 197.18H98.7295V203.77H105.259V197.18Z" fill="#BA9595"/>
<path d="M105.259 190.64H98.7295V197.17H105.259V190.64Z" fill="#BA9595"/>
<path d="M105.259 184.06H98.7295V190.65H105.259V184.06Z" fill="#BA9595"/>
<path d="M105.259 177.52H98.7295V184.05H105.259V177.52Z" fill="#BA9595"/>
<path d="M105.259 170.93H98.7295V177.52H105.259V170.93Z" fill="#BA9595"/>
<path d="M105.259 164.4H98.7295V170.93H105.259V164.4Z" fill="#BA9595"/>
<path d="M105.259 157.81H98.7295V164.4H105.259V157.81Z" fill="#BA9595"/>
<path d="M105.259 151.22H98.7295V157.81H105.259V151.22Z" fill="#BA9595"/>
<path d="M105.259 144.69H98.7295V151.22H105.259V144.69Z" fill="#BA9595"/>
<path d="M105.259 138.09H98.7295V144.68H105.259V138.09Z" fill="#BA9595"/>
<path d="M105.259 131.56H98.7295V138.09H105.259V131.56Z" fill="#BA9595"/>
<path d="M105.259 124.97H98.7295V131.56H105.259V124.97Z" fill="#BA9595"/>
<path d="M105.259 118.44H98.7295V124.97H105.259V118.44Z" fill="#BA9595"/>
<path d="M105.259 111.85H98.7295V118.44H105.259V111.85Z" fill="#BA9595"/>
<path d="M105.259 105.32H98.7295V111.85H105.259V105.32Z" fill="#844141"/>
<path d="M105.259 98.7197H98.7295V105.31H105.259V98.7197Z" fill="#A05252"/>
<path d="M105.259 92.1299H98.7295V98.7199H105.259V92.1299Z" fill="#A05252"/>
<path d="M105.259 85.5996H98.7295V92.1296H105.259V85.5996Z" fill="#A05252"/>
<path d="M105.259 79.0098H98.7295V85.5998H105.259V79.0098Z" fill="#D8B8B8"/>
<path d="M105.259 72.48H98.7295V79.01H105.259V72.48Z" fill="#D8B8B8"/>
<path d="M105.259 65.8896H98.7295V72.4796H105.259V65.8896Z" fill="#D8B8B8"/>
<path d="M105.259 59.3599H98.7295V65.8899H105.259V59.3599Z" fill="#844141"/>
<path d="M105.259 52.7598H98.7295V59.3498H105.259V52.7598Z" fill="#A05252"/>
<path d="M105.259 46.1699H98.7295V52.7599H105.259V46.1699Z" fill="#B28364"/>
<path d="M105.259 39.6396H98.7295V46.1696H105.259V39.6396Z" fill="#B28364"/>
<path d="M105.259 33.0498H98.7295V39.6398H105.259V33.0498Z" fill="#603C28"/>
<path d="M105.259 26.52H98.7295V33.05H105.259V26.52Z" fill="#A05252"/>
<path d="M105.259 19.9199H98.7295V26.5099H105.259V19.9199Z" fill="#A05252"/>
<path d="M105.259 13.3999H98.7295V19.9299H105.259V13.3999Z" fill="#844141"/>
<path d="M105.259 6.7998H98.7295V13.3898H105.259V6.7998Z" fill="black"/>
<path d="M98.7296 243.14H92.1396V249.73H98.7296V243.14Z" fill="black"/>
<path d="M98.7296 236.6H92.1396V243.13H98.7296V236.6Z" fill="#7F4E4E"/>
<path d="M98.7296 230.02H92.1396V236.61H98.7296V230.02Z" fill="#7F4E4E"/>
<path d="M98.7296 223.48H92.1396V230.01H98.7296V223.48Z" fill="black"/>
<path d="M98.7296 216.89H92.1396V223.48H98.7296V216.89Z" fill="#BC9311"/>
<path d="M98.7296 210.36H92.1396V216.89H98.7296V210.36Z" fill="#BC9311"/>
<path d="M98.7296 203.77H92.1396V210.36H98.7296V203.77Z" fill="#BA9595"/>
<path d="M98.7296 197.18H92.1396V203.77H98.7296V197.18Z" fill="#BA9595"/>
<path d="M98.7296 190.64H92.1396V197.17H98.7296V190.64Z" fill="#BA9595"/>
<path d="M98.7296 184.06H92.1396V190.65H98.7296V184.06Z" fill="#D8B8B8"/>
<path d="M98.7296 177.52H92.1396V184.05H98.7296V177.52Z" fill="#D8B8B8"/>
<path d="M98.7296 170.93H92.1396V177.52H98.7296V170.93Z" fill="#D8B8B8"/>
<path d="M98.7296 164.4H92.1396V170.93H98.7296V164.4Z" fill="#D8B8B8"/>
<path d="M98.7296 157.81H92.1396V164.4H98.7296V157.81Z" fill="#D8B8B8"/>
<path d="M98.7296 151.22H92.1396V157.81H98.7296V151.22Z" fill="#D8B8B8"/>
<path d="M98.7296 144.69H92.1396V151.22H98.7296V144.69Z" fill="#D8B8B8"/>
<path d="M98.7296 138.09H92.1396V144.68H98.7296V138.09Z" fill="#D8B8B8"/>
<path d="M98.7296 131.56H92.1396V138.09H98.7296V131.56Z" fill="#D8B8B8"/>
<path d="M98.7296 124.97H92.1396V131.56H98.7296V124.97Z" fill="#D8B8B8"/>
<path d="M98.7296 118.44H92.1396V124.97H98.7296V118.44Z" fill="#D8B8B8"/>
<path d="M98.7296 111.85H92.1396V118.44H98.7296V111.85Z" fill="#BA9595"/>
<path d="M98.7296 105.32H92.1396V111.85H98.7296V105.32Z" fill="#844141"/>
<path d="M98.7296 98.7197H92.1396V105.31H98.7296V98.7197Z" fill="#A05252"/>
<path d="M98.7296 92.1299H92.1396V98.7199H98.7296V92.1299Z" fill="#A05252"/>
<path d="M98.7296 85.5996H92.1396V92.1296H98.7296V85.5996Z" fill="#A05252"/>
<path d="M98.7296 79.0098H92.1396V85.5998H98.7296V79.0098Z" fill="#D8B8B8"/>
<path d="M98.7296 72.48H92.1396V79.01H98.7296V72.48Z" fill="#D8B8B8"/>
<path d="M98.7296 65.8896H92.1396V72.4796H98.7296V65.8896Z" fill="#BA9595"/>
<path d="M98.7296 59.3599H92.1396V65.8899H98.7296V59.3599Z" fill="#844141"/>
<path d="M98.7296 52.7598H92.1396V59.3498H98.7296V52.7598Z" fill="#844141"/>
<path d="M98.7296 46.1699H92.1396V52.7599H98.7296V46.1699Z" fill="#A05252"/>
<path d="M98.7296 39.6396H92.1396V46.1696H98.7296V39.6396Z" fill="#A05252"/>
<path d="M98.7296 33.0498H92.1396V39.6398H98.7296V33.0498Z" fill="#A05252"/>
<path d="M98.7296 26.52H92.1396V33.05H98.7296V26.52Z" fill="#A05252"/>
<path d="M98.7296 19.9199H92.1396V26.5099H98.7296V19.9199Z" fill="#844141"/>
<path d="M98.7296 13.3999H92.1396V19.9299H98.7296V13.3999Z" fill="black"/>
<path d="M92.1301 243.14H85.54V249.73H92.1301V243.14Z" fill="black"/>
<path d="M92.1301 236.6H85.54V243.13H92.1301V236.6Z" fill="#7F4E4E"/>
<path d="M92.1301 230.02H85.54V236.61H92.1301V230.02Z" fill="#7F4E4E"/>
<path d="M92.1301 223.48H85.54V230.01H92.1301V223.48Z" fill="black"/>
<path d="M92.1301 216.89H85.54V223.48H92.1301V216.89Z" fill="#FFCE17"/>
<path d="M92.1301 210.36H85.54V216.89H92.1301V210.36Z" fill="#FFCE17"/>
<path d="M92.1301 203.77H85.54V210.36H92.1301V203.77Z" fill="#D8B8B8"/>
<path d="M92.1301 197.18H85.54V203.77H92.1301V197.18Z" fill="#D8B8B8"/>
<path d="M92.1301 190.64H85.54V197.17H92.1301V190.64Z" fill="#D8B8B8"/>
<path d="M92.1301 184.06H85.54V190.65H92.1301V184.06Z" fill="#D8B8B8"/>
<path d="M92.1301 177.52H85.54V184.05H92.1301V177.52Z" fill="#D8B8B8"/>
<path d="M92.1301 170.93H85.54V177.52H92.1301V170.93Z" fill="#D8B8B8"/>
<path d="M92.1301 164.4H85.54V170.93H92.1301V164.4Z" fill="#D8B8B8"/>
<path d="M92.1301 157.81H85.54V164.4H92.1301V157.81Z" fill="#D8B8B8"/>
<path d="M92.1301 151.22H85.54V157.81H92.1301V151.22Z" fill="#D8B8B8"/>
<path d="M92.1301 144.69H85.54V151.22H92.1301V144.69Z" fill="#D8B8B8"/>
<path d="M92.1301 138.09H85.54V144.68H92.1301V138.09Z" fill="#D8B8B8"/>
<path d="M92.1301 131.56H85.54V138.09H92.1301V131.56Z" fill="#D8B8B8"/>
<path d="M92.1301 124.97H85.54V131.56H92.1301V124.97Z" fill="#D8B8B8"/>
<path d="M92.1301 118.44H85.54V124.97H92.1301V118.44Z" fill="#D8B8B8"/>
<path d="M92.1301 111.85H85.54V118.44H92.1301V111.85Z" fill="#BA9595"/>
<path d="M92.1301 105.32H85.54V111.85H92.1301V105.32Z" fill="#844141"/>
<path d="M92.1301 98.7197H85.54V105.31H92.1301V98.7197Z" fill="#A05252"/>
<path d="M92.1301 92.1299H85.54V98.7199H92.1301V92.1299Z" fill="#A05252"/>
<path d="M92.1301 85.5996H85.54V92.1296H92.1301V85.5996Z" fill="#A05252"/>
<path d="M92.1301 79.0098H85.54V85.5998H92.1301V79.0098Z" fill="#D8B8B8"/>
<path d="M92.1301 72.48H85.54V79.01H92.1301V72.48Z" fill="#BA9595"/>
<path d="M92.1301 65.8896H85.54V72.4796H92.1301V65.8896Z" fill="#BA9595"/>
<path d="M92.1301 59.3599H85.54V65.8899H92.1301V59.3599Z" fill="#BA9595"/>
<path d="M92.1301 52.7598H85.54V59.3498H92.1301V52.7598Z" fill="#844141"/>
<path d="M92.1301 46.1699H85.54V52.7599H92.1301V46.1699Z" fill="#844141"/>
<path d="M92.1301 39.6396H85.54V46.1696H92.1301V39.6396Z" fill="#844141"/>
<path d="M92.1301 33.0498H85.54V39.6398H92.1301V33.0498Z" fill="#844141"/>
<path d="M92.1301 26.52H85.54V33.05H92.1301V26.52Z" fill="#844141"/>
<path d="M92.1301 19.9199H85.54V26.5099H92.1301V19.9199Z" fill="black"/>
<path d="M85.5398 243.14H79.0098V249.73H85.5398V243.14Z" fill="black"/>
<path d="M85.5398 236.6H79.0098V243.13H85.5398V236.6Z" fill="#7F4E4E"/>
<path d="M85.5398 230.02H79.0098V236.61H85.5398V230.02Z" fill="#7F4E4E"/>
<path d="M85.5398 223.48H79.0098V230.01H85.5398V223.48Z" fill="black"/>
<path d="M85.5398 216.89H79.0098V223.48H85.5398V216.89Z" fill="#FFCE17"/>
<path d="M85.5398 210.36H79.0098V216.89H85.5398V210.36Z" fill="#FFCE17"/>
<path d="M85.5398 203.77H79.0098V210.36H85.5398V203.77Z" fill="#D8B8B8"/>
<path d="M85.5398 197.18H79.0098V203.77H85.5398V197.18Z" fill="#D8B8B8"/>
<path d="M85.5398 190.64H79.0098V197.17H85.5398V190.64Z" fill="#D8B8B8"/>
<path d="M85.5398 184.06H79.0098V190.65H85.5398V184.06Z" fill="#D8B8B8"/>
<path d="M85.5398 177.52H79.0098V184.05H85.5398V177.52Z" fill="#BA9595"/>
<path d="M85.5398 170.93H79.0098V177.52H85.5398V170.93Z" fill="#BA9595"/>
<path d="M85.5398 164.4H79.0098V170.93H85.5398V164.4Z" fill="#BA9595"/>
<path d="M85.5398 157.81H79.0098V164.4H85.5398V157.81Z" fill="#BA9595"/>
<path d="M85.5398 151.22H79.0098V157.81H85.5398V151.22Z" fill="#BA9595"/>
<path d="M85.5398 144.69H79.0098V151.22H85.5398V144.69Z" fill="#BA9595"/>
<path d="M85.5398 138.09H79.0098V144.68H85.5398V138.09Z" fill="#BA9595"/>
<path d="M85.5398 131.56H79.0098V138.09H85.5398V131.56Z" fill="#BA9595"/>
<path d="M85.5398 124.97H79.0098V131.56H85.5398V124.97Z" fill="#BA9595"/>
<path d="M85.5398 118.44H79.0098V124.97H85.5398V118.44Z" fill="#BA9595"/>
<path d="M85.5398 111.85H79.0098V118.44H85.5398V111.85Z" fill="#BA9595"/>
<path d="M85.5398 105.32H79.0098V111.85H85.5398V105.32Z" fill="#BA9595"/>
<path d="M85.5398 98.7197H79.0098V105.31H85.5398V98.7197Z" fill="#844141"/>
<path d="M85.5398 92.1299H79.0098V98.7199H85.5398V92.1299Z" fill="#A05252"/>
<path d="M85.5398 85.5996H79.0098V92.1296H85.5398V85.5996Z" fill="#A05252"/>
<path d="M85.5398 79.0098H79.0098V85.5998H85.5398V79.0098Z" fill="#BA9595"/>
<path d="M85.5398 72.48H79.0098V79.01H85.5398V72.48Z" fill="#BA9595"/>
<path d="M85.5398 65.8896H79.0098V72.4796H85.5398V65.8896Z" fill="#BA9595"/>
<path d="M85.5398 59.3599H79.0098V65.8899H85.5398V59.3599Z" fill="#BA9595"/>
<path d="M85.5398 52.7598H79.0098V59.3498H85.5398V52.7598Z" fill="#BA9595"/>
<path d="M85.5398 46.1699H79.0098V52.7599H85.5398V46.1699Z" fill="black"/>
<path d="M85.5398 39.6396H79.0098V46.1696H85.5398V39.6396Z" fill="black"/>
<path d="M85.5398 33.0498H79.0098V39.6398H85.5398V33.0498Z" fill="black"/>
<path d="M85.5398 26.52H79.0098V33.05H85.5398V26.52Z" fill="black"/>
<path d="M79.0099 243.14H72.4199V249.73H79.0099V243.14Z" fill="black"/>
<path d="M79.0099 236.6H72.4199V243.13H79.0099V236.6Z" fill="#7F4E4E"/>
<path d="M79.0099 230.02H72.4199V236.61H79.0099V230.02Z" fill="black"/>
<path d="M79.0099 223.48H72.4199V230.01H79.0099V223.48Z" fill="black"/>
<path d="M79.0099 216.89H72.4199V223.48H79.0099V216.89Z" fill="#BC9311"/>
<path d="M79.0099 210.36H72.4199V216.89H79.0099V210.36Z" fill="#BC9311"/>
<path d="M79.0099 203.77H72.4199V210.36H79.0099V203.77Z" fill="#BA9595"/>
<path d="M79.0099 197.18H72.4199V203.77H79.0099V197.18Z" fill="#BA9595"/>
<path d="M79.0099 190.64H72.4199V197.17H79.0099V190.64Z" fill="#BA9595"/>
<path d="M79.0099 184.06H72.4199V190.65H79.0099V184.06Z" fill="#BA9595"/>
<path d="M79.0099 177.52H72.4199V184.05H79.0099V177.52Z" fill="#BA9595"/>
<path d="M79.0099 170.93H72.4199V177.52H79.0099V170.93Z" fill="#BA9595"/>
<path d="M79.0099 164.4H72.4199V170.93H79.0099V164.4Z" fill="#BA9595"/>
<path d="M79.0099 157.81H72.4199V164.4H79.0099V157.81Z" fill="#BC9311"/>
<path d="M79.0099 151.22H72.4199V157.81H79.0099V151.22Z" fill="#BC9311"/>
<path d="M79.0099 144.69H72.4199V151.22H79.0099V144.69Z" fill="#BC9311"/>
<path d="M79.0099 138.09H72.4199V144.68H79.0099V138.09Z" fill="#BC9311"/>
<path d="M79.0099 131.56H72.4199V138.09H79.0099V131.56Z" fill="#BC9311"/>
<path d="M79.0099 124.97H72.4199V131.56H79.0099V124.97Z" fill="#BC9311"/>
<path d="M79.0099 118.44H72.4199V124.97H79.0099V118.44Z" fill="#BC9311"/>
<path d="M79.0099 111.85H72.4199V118.44H79.0099V111.85Z" fill="#BC9311"/>
<path d="M79.0099 105.32H72.4199V111.85H79.0099V105.32Z" fill="#BC9311"/>
<path d="M79.0099 98.7197H72.4199V105.31H79.0099V98.7197Z" fill="#BC9311"/>
<path d="M79.0099 92.1299H72.4199V98.7199H79.0099V92.1299Z" fill="#844141"/>
<path d="M79.0099 85.5996H72.4199V92.1296H79.0099V85.5996Z" fill="#A05252"/>
<path d="M79.0099 79.0098H72.4199V85.5998H79.0099V79.0098Z" fill="#A05252"/>
<path d="M79.0099 72.48H72.4199V79.01H79.0099V72.48Z" fill="#A05252"/>
<path d="M79.0099 65.8896H72.4199V72.4796H79.0099V65.8896Z" fill="#A05252"/>
<path d="M79.0099 59.3599H72.4199V65.8899H79.0099V59.3599Z" fill="#A05252"/>
<path d="M79.0099 52.7598H72.4199V59.3498H79.0099V52.7598Z" fill="#A05252"/>
<path d="M79.0099 46.1699H72.4199V52.7599H79.0099V46.1699Z" fill="black"/>
<path d="M72.4196 243.14H65.8896V249.73H72.4196V243.14Z" fill="black"/>
<path d="M72.4196 236.6H65.8896V243.13H72.4196V236.6Z" fill="black"/>
<path d="M72.4196 223.48H65.8896V230.01H72.4196V223.48Z" fill="black"/>
<path d="M72.4196 216.89H65.8896V223.48H72.4196V216.89Z" fill="#BC9311"/>
<path d="M72.4196 210.36H65.8896V216.89H72.4196V210.36Z" fill="#BC9311"/>
<path d="M72.4196 203.77H65.8896V210.36H72.4196V203.77Z" fill="#BA9595"/>
<path d="M72.4196 197.18H65.8896V203.77H72.4196V197.18Z" fill="#BA9595"/>
<path d="M72.4196 190.64H65.8896V197.17H72.4196V190.64Z" fill="#BA9595"/>
<path d="M72.4196 184.06H65.8896V190.65H72.4196V184.06Z" fill="#BC9311"/>
<path d="M72.4196 177.52H65.8896V184.05H72.4196V177.52Z" fill="#BC9311"/>
<path d="M72.4196 170.93H65.8896V177.52H72.4196V170.93Z" fill="#BC9311"/>
<path d="M72.4196 164.4H65.8896V170.93H72.4196V164.4Z" fill="#BC9311"/>
<path d="M72.4196 157.81H65.8896V164.4H72.4196V157.81Z" fill="black"/>
<path d="M72.4196 151.22H65.8896V157.81H72.4196V151.22Z" fill="black"/>
<path d="M72.4196 144.69H65.8896V151.22H72.4196V144.69Z" fill="black"/>
<path d="M72.4196 138.09H65.8896V144.68H72.4196V138.09Z" fill="black"/>
<path d="M72.4196 131.56H65.8896V138.09H72.4196V131.56Z" fill="black"/>
<path d="M72.4196 124.97H65.8896V131.56H72.4196V124.97Z" fill="black"/>
<path d="M72.4196 118.44H65.8896V124.97H72.4196V118.44Z" fill="black"/>
<path d="M72.4196 111.85H65.8896V118.44H72.4196V111.85Z" fill="black"/>
<path d="M72.4196 105.32H65.8896V111.85H72.4196V105.32Z" fill="black"/>
<path d="M72.4196 98.7197H65.8896V105.31H72.4196V98.7197Z" fill="black"/>
<path d="M72.4196 92.1299H65.8896V98.7199H72.4196V92.1299Z" fill="#844141"/>
<path d="M72.4196 85.5996H65.8896V92.1296H72.4196V85.5996Z" fill="#844141"/>
<path d="M72.4196 79.0098H65.8896V85.5998H72.4196V79.0098Z" fill="#844141"/>
<path d="M72.4196 72.48H65.8896V79.01H72.4196V72.48Z" fill="#A05252"/>
<path d="M72.4196 65.8896H65.8896V72.4796H72.4196V65.8896Z" fill="#A05252"/>
<path d="M72.4196 59.3599H65.8896V65.8899H72.4196V59.3599Z" fill="#A05252"/>
<path d="M72.4196 52.7598H65.8896V59.3498H72.4196V52.7598Z" fill="black"/>
<path d="M65.8898 223.48H59.2998V230.01H65.8898V223.48Z" fill="black"/>
<path d="M65.8898 216.89H59.2998V223.48H65.8898V216.89Z" fill="#BC9311"/>
<path d="M65.8898 210.36H59.2998V216.89H65.8898V210.36Z" fill="#BC9311"/>
<path d="M65.8898 203.77H59.2998V210.36H65.8898V203.77Z" fill="#BA9595"/>
<path d="M65.8898 197.18H59.2998V203.77H65.8898V197.18Z" fill="#BC9311"/>
<path d="M65.8898 190.64H59.2998V197.17H65.8898V190.64Z" fill="#BC9311"/>
<path d="M65.8898 184.06H59.2998V190.65H65.8898V184.06Z" fill="black"/>
<path d="M65.8898 177.52H59.2998V184.05H65.8898V177.52Z" fill="black"/>
<path d="M65.8898 170.93H59.2998V177.52H65.8898V170.93Z" fill="black"/>
<path d="M65.8898 164.4H59.2998V170.93H65.8898V164.4Z" fill="black"/>
<path d="M65.8898 157.81H59.2998V164.4H65.8898V157.81Z" fill="#844141"/>
<path d="M65.8898 151.22H59.2998V157.81H65.8898V151.22Z" fill="#844141"/>
<path d="M65.8898 144.69H59.2998V151.22H65.8898V144.69Z" fill="#844141"/>
<path d="M65.8898 138.09H59.2998V144.68H65.8898V138.09Z" fill="#844141"/>
<path d="M65.8898 131.56H59.2998V138.09H65.8898V131.56Z" fill="#844141"/>
<path d="M65.8898 124.97H59.2998V131.56H65.8898V124.97Z" fill="#844141"/>
<path d="M65.8898 118.44H59.2998V124.97H65.8898V118.44Z" fill="black"/>
<path d="M65.8898 111.85H59.2998V118.44H65.8898V111.85Z" fill="black"/>
<path d="M65.8898 105.32H59.2998V111.85H65.8898V105.32Z" fill="#BA9595"/>
<path d="M65.8898 98.7197H59.2998V105.31H65.8898V98.7197Z" fill="#BA9595"/>
<path d="M65.8898 92.1299H59.2998V98.7199H65.8898V92.1299Z" fill="#BA9595"/>
<path d="M65.8898 85.5996H59.2998V92.1296H65.8898V85.5996Z" fill="#BA9595"/>
<path d="M65.8898 79.0098H59.2998V85.5998H65.8898V79.0098Z" fill="#BA9595"/>
<path d="M65.8898 72.48H59.2998V79.01H65.8898V72.48Z" fill="#844141"/>
<path d="M65.8898 65.8896H59.2998V72.4796H65.8898V65.8896Z" fill="#844141"/>
<path d="M65.8898 59.3599H59.2998V65.8899H65.8898V59.3599Z" fill="black"/>
<path d="M59.2995 223.48H52.7695V230.01H59.2995V223.48Z" fill="black"/>
<path d="M59.2995 216.89H52.7695V223.48H59.2995V216.89Z" fill="#BC9311"/>
<path d="M59.2995 210.36H52.7695V216.89H59.2995V210.36Z" fill="#BC9311"/>
<path d="M59.2995 203.77H52.7695V210.36H59.2995V203.77Z" fill="#BC9311"/>
<path d="M59.2995 197.18H52.7695V203.77H59.2995V197.18Z" fill="black"/>
<path d="M59.2995 190.64H52.7695V197.17H59.2995V190.64Z" fill="black"/>
<path d="M59.2995 184.06H52.7695V190.65H59.2995V184.06Z" fill="#844141"/>
<path d="M59.2995 177.52H52.7695V184.05H59.2995V177.52Z" fill="#844141"/>
<path d="M59.2995 170.93H52.7695V177.52H59.2995V170.93Z" fill="#844141"/>
<path d="M59.2995 164.4H52.7695V170.93H59.2995V164.4Z" fill="#844141"/>
<path d="M59.2995 157.81H52.7695V164.4H59.2995V157.81Z" fill="#844141"/>
<path d="M59.2995 151.22H52.7695V157.81H59.2995V151.22Z" fill="#844141"/>
<path d="M59.2995 144.69H52.7695V151.22H59.2995V144.69Z" fill="#844141"/>
<path d="M59.2995 138.09H52.7695V144.68H59.2995V138.09Z" fill="#844141"/>
<path d="M59.2995 131.56H52.7695V138.09H59.2995V131.56Z" fill="black"/>
<path d="M59.2995 124.97H52.7695V131.56H59.2995V124.97Z" fill="black"/>
<path d="M59.2995 118.44H52.7695V124.97H59.2995V118.44Z" fill="#D8B8B8"/>
<path d="M59.2995 111.85H52.7695V118.44H59.2995V111.85Z" fill="#D8B8B8"/>
<path d="M59.2995 105.32H52.7695V111.85H59.2995V105.32Z" fill="#D8B8B8"/>
<path d="M59.2995 98.7197H52.7695V105.31H59.2995V98.7197Z" fill="#D8B8B8"/>
<path d="M59.2995 92.1299H52.7695V98.7199H59.2995V92.1299Z" fill="#D8B8B8"/>
<path d="M59.2995 85.5996H52.7695V92.1296H59.2995V85.5996Z" fill="#BA9595"/>
<path d="M59.2995 79.0098H52.7695V85.5998H59.2995V79.0098Z" fill="black"/>
<path d="M59.2995 72.48H52.7695V79.01H59.2995V72.48Z" fill="black"/>
<path d="M59.2995 65.8896H52.7695V72.4796H59.2995V65.8896Z" fill="black"/>
<path d="M52.7697 223.48H46.1797V230.01H52.7697V223.48Z" fill="black"/>
<path d="M52.7697 216.89H46.1797V223.48H52.7697V216.89Z" fill="#BC9311"/>
<path d="M52.7697 210.36H46.1797V216.89H52.7697V210.36Z" fill="black"/>
<path d="M52.7697 203.77H46.1797V210.36H52.7697V203.77Z" fill="black"/>
<path d="M52.7697 197.18H46.1797V203.77H52.7697V197.18Z" fill="black"/>
<path d="M52.7697 190.64H46.1797V197.17H52.7697V190.64Z" fill="#844141"/>
<path d="M52.7697 184.06H46.1797V190.65H52.7697V184.06Z" fill="#844141"/>
<path d="M52.7697 177.52H46.1797V184.05H52.7697V177.52Z" fill="#844141"/>
<path d="M52.7697 170.93H46.1797V177.52H52.7697V170.93Z" fill="#844141"/>
<path d="M52.7697 164.4H46.1797V170.93H52.7697V164.4Z" fill="#844141"/>
<path d="M52.7697 157.81H46.1797V164.4H52.7697V157.81Z" fill="#844141"/>
<path d="M52.7697 151.22H46.1797V157.81H52.7697V151.22Z" fill="#844141"/>
<path d="M52.7697 144.69H46.1797V151.22H52.7697V144.69Z" fill="black"/>
<path d="M52.7697 138.09H46.1797V144.68H52.7697V138.09Z" fill="black"/>
<path d="M52.7697 131.56H46.1797V138.09H52.7697V131.56Z" fill="#D8B8B8"/>
<path d="M52.7697 124.97H46.1797V131.56H52.7697V124.97Z" fill="#D8B8B8"/>
<path d="M52.7697 118.44H46.1797V124.97H52.7697V118.44Z" fill="#D8B8B8"/>
<path d="M52.7697 111.85H46.1797V118.44H52.7697V111.85Z" fill="#D8B8B8"/>
<path d="M52.7697 105.32H46.1797V111.85H52.7697V105.32Z" fill="black"/>
<path d="M52.7697 98.7197H46.1797V105.31H52.7697V98.7197Z" fill="black"/>
<path d="M52.7697 92.1299H46.1797V98.7199H52.7697V92.1299Z" fill="black"/>
<path d="M52.7697 85.5996H46.1797V92.1296H52.7697V85.5996Z" fill="black"/>
<path d="M46.1701 223.48H39.5801V230.01H46.1701V223.48Z" fill="black"/>
<path d="M46.1701 216.89H39.5801V223.48H46.1701V216.89Z" fill="black"/>
<path d="M46.1701 210.36H39.5801V216.89H46.1701V210.36Z" fill="black"/>
<path d="M46.1701 197.18H39.5801V203.77H46.1701V197.18Z" fill="black"/>
<path d="M46.1701 190.64H39.5801V197.17H46.1701V190.64Z" fill="#844141"/>
<path d="M46.1701 184.06H39.5801V190.65H46.1701V184.06Z" fill="#844141"/>
<path d="M46.1701 177.52H39.5801V184.05H46.1701V177.52Z" fill="#844141"/>
<path d="M46.1701 170.93H39.5801V177.52H46.1701V170.93Z" fill="#844141"/>
<path d="M46.1701 164.4H39.5801V170.93H46.1701V164.4Z" fill="#844141"/>
<path d="M46.1701 157.81H39.5801V164.4H46.1701V157.81Z" fill="black"/>
<path d="M46.1701 151.22H39.5801V157.81H46.1701V151.22Z" fill="black"/>
<path d="M46.1701 144.69H39.5801V151.22H46.1701V144.69Z" fill="#D8B8B8"/>
<path d="M46.1701 138.09H39.5801V144.68H46.1701V138.09Z" fill="#D8B8B8"/>
<path d="M46.1701 131.56H39.5801V138.09H46.1701V131.56Z" fill="#D8B8B8"/>
<path d="M46.1701 124.97H39.5801V131.56H46.1701V124.97Z" fill="#D8B8B8"/>
<path d="M46.1701 118.44H39.5801V124.97H46.1701V118.44Z" fill="#D8B8B8"/>
<path d="M46.1701 111.85H39.5801V118.44H46.1701V111.85Z" fill="black"/>
<path d="M39.5798 197.18H33.0498V203.77H39.5798V197.18Z" fill="black"/>
<path d="M39.5798 190.64H33.0498V197.17H39.5798V190.64Z" fill="#844141"/>
<path d="M39.5798 184.06H33.0498V190.65H39.5798V184.06Z" fill="#844141"/>
<path d="M39.5798 177.52H33.0498V184.05H39.5798V177.52Z" fill="black"/>
<path d="M39.5798 170.93H33.0498V177.52H39.5798V170.93Z" fill="black"/>
<path d="M39.5798 164.4H33.0498V170.93H39.5798V164.4Z" fill="black"/>
<path d="M39.5798 157.81H33.0498V164.4H39.5798V157.81Z" fill="#D8B8B8"/>
<path d="M39.5798 151.22H33.0498V157.81H39.5798V151.22Z" fill="#D8B8B8"/>
<path d="M39.5798 144.69H33.0498V151.22H39.5798V144.69Z" fill="#D8B8B8"/>
<path d="M39.5798 138.09H33.0498V144.68H39.5798V138.09Z" fill="#D8B8B8"/>
<path d="M39.5798 131.56H33.0498V138.09H39.5798V131.56Z" fill="#D8B8B8"/>
<path d="M39.5798 124.97H33.0498V131.56H39.5798V124.97Z" fill="#D8B8B8"/>
<path d="M39.5798 118.44H33.0498V124.97H39.5798V118.44Z" fill="black"/>
<path d="M33.05 197.18H26.46V203.77H33.05V197.18Z" fill="black"/>
<path d="M33.05 190.64H26.46V197.17H33.05V190.64Z" fill="black"/>
<path d="M33.05 184.06H26.46V190.65H33.05V184.06Z" fill="black"/>
<path d="M33.05 177.52H26.46V184.05H33.05V177.52Z" fill="#D8B8B8"/>
<path d="M33.05 170.93H26.46V177.52H33.05V170.93Z" fill="#D8B8B8"/>
<path d="M33.05 164.4H26.46V170.93H33.05V164.4Z" fill="#D8B8B8"/>
<path d="M33.05 157.81H26.46V164.4H33.05V157.81Z" fill="#D8B8B8"/>
<path d="M33.05 151.22H26.46V157.81H33.05V151.22Z" fill="#D8B8B8"/>
<path d="M33.05 144.69H26.46V151.22H33.05V144.69Z" fill="#D8B8B8"/>
<path d="M33.05 138.09H26.46V144.68H33.05V138.09Z" fill="black"/>
<path d="M33.05 131.56H26.46V138.09H33.05V131.56Z" fill="black"/>
<path d="M33.05 124.97H26.46V131.56H33.05V124.97Z" fill="black"/>
<path d="M26.4597 210.36H19.9297V216.89H26.4597V210.36Z" fill="black"/>
<path d="M26.4597 203.77H19.9297V210.36H26.4597V203.77Z" fill="black"/>
<path d="M26.4597 197.18H19.9297V203.77H26.4597V197.18Z" fill="black"/>
<path d="M26.4597 190.64H19.9297V197.17H26.4597V190.64Z" fill="#A05252"/>
<path d="M26.4597 184.06H19.9297V190.65H26.4597V184.06Z" fill="#A05252"/>
<path d="M26.4597 177.52H19.9297V184.05H26.4597V177.52Z" fill="#D8B8B8"/>
<path d="M26.4597 170.93H19.9297V177.52H26.4597V170.93Z" fill="#D8B8B8"/>
<path d="M26.4597 164.4H19.9297V170.93H26.4597V164.4Z" fill="#D8B8B8"/>
<path d="M26.4597 157.81H19.9297V164.4H26.4597V157.81Z" fill="#D8B8B8"/>
<path d="M26.4597 151.22H19.9297V157.81H26.4597V151.22Z" fill="#D8B8B8"/>
<path d="M26.4597 144.69H19.9297V151.22H26.4597V144.69Z" fill="black"/>
<path d="M19.9298 210.36H13.3398V216.89H19.9298V210.36Z" fill="black"/>
<path d="M19.9298 203.77H13.3398V210.36H19.9298V203.77Z" fill="#A05252"/>
<path d="M19.9298 197.18H13.3398V203.77H19.9298V197.18Z" fill="#A05252"/>
<path d="M19.9298 190.64H13.3398V197.17H19.9298V190.64Z" fill="#A05252"/>
<path d="M19.9298 184.06H13.3398V190.65H19.9298V184.06Z" fill="#A05252"/>
<path d="M19.9298 177.52H13.3398V184.05H19.9298V177.52Z" fill="#A05252"/>
<path d="M19.9298 170.93H13.3398V177.52H19.9298V170.93Z" fill="#D8B8B8"/>
<path d="M19.9298 164.4H13.3398V170.93H19.9298V164.4Z" fill="#D8B8B8"/>
<path d="M19.9298 157.81H13.3398V164.4H19.9298V157.81Z" fill="black"/>
<path d="M19.9298 151.22H13.3398V157.81H19.9298V151.22Z" fill="black"/>
<path d="M13.3396 203.77H6.80957V210.36H13.3396V203.77Z" fill="black"/>
<path d="M13.3396 197.18H6.80957V203.77H13.3396V197.18Z" fill="#A05252"/>
<path d="M13.3396 190.64H6.80957V197.17H13.3396V190.64Z" fill="#A05252"/>
<path d="M13.3396 184.06H6.80957V190.65H13.3396V184.06Z" fill="#A05252"/>
<path d="M13.3396 177.52H6.80957V184.05H13.3396V177.52Z" fill="#A05252"/>
<path d="M13.3396 170.93H6.80957V177.52H13.3396V170.93Z" fill="black"/>
<path d="M13.3396 164.4H6.80957V170.93H13.3396V164.4Z" fill="black"/>
<path d="M6.79996 197.18H0.209961V203.77H6.79996V197.18Z" fill="black"/>
<path d="M6.79996 190.64H0.209961V197.17H6.79996V190.64Z" fill="black"/>
<path d="M6.79996 184.06H0.209961V190.65H6.79996V184.06Z" fill="black"/>
<path d="M6.79996 177.52H0.209961V184.05H6.79996V177.52Z" fill="black"/>
</svg>
