<svg width="237" height="231" viewBox="0 0 237 231" fill="none" xmlns="http://www.w3.org/2000/svg">
<path d="M236.769 108.76H230.359V115.17H236.769V108.76Z" fill="black"/>
<path d="M236.769 102.42H230.359V108.77H236.769V102.42Z" fill="black"/>
<path d="M230.349 121.52H223.939V127.93H230.349V121.52Z" fill="black"/>
<path d="M230.349 115.18H223.939V121.53H230.349V115.18Z" fill="black"/>
<path d="M230.349 96H223.939V102.41H230.349V96Z" fill="black"/>
<path d="M223.95 153.46H217.6V159.87H223.95V153.46Z" fill="black"/>
<path d="M223.95 127.94H217.6V134.29H223.95V127.94Z" fill="black"/>
<path d="M223.95 121.52H217.6V127.93H223.95V121.52Z" fill="black"/>
<path d="M223.95 89.5898H217.6V95.9998H223.95V89.5898Z" fill="black"/>
<path d="M223.95 76.8301H217.6V83.2401H223.95V76.8301Z" fill="black"/>
<path d="M217.59 217.32H211.18V223.67H217.59V217.32Z" fill="black"/>
<path d="M217.59 210.91H211.18V217.32H217.59V210.91Z" fill="black"/>
<path d="M217.59 159.87H211.18V166.22H217.59V159.87Z" fill="black"/>
<path d="M217.59 147.05H211.18V153.46H217.59V147.05Z" fill="black"/>
<path d="M217.59 140.7H211.18V147.05H217.59V140.7Z" fill="black"/>
<path d="M217.59 134.28H211.18V140.69H217.59V134.28Z" fill="black"/>
<path d="M217.59 127.94H211.18V134.29H217.59V127.94Z" fill="black"/>
<path d="M217.59 83.2397H211.18V89.5897H217.59V83.2397Z" fill="black"/>
<path d="M217.59 70.48H211.18V76.83H217.59V70.48Z" fill="black"/>
<path d="M211.179 223.68H204.829V230.09H211.179V223.68Z" fill="black"/>
<path d="M211.179 204.56H204.829V210.91H211.179V204.56Z" fill="black"/>
<path d="M211.179 191.74H204.829V198.15H211.179V191.74Z" fill="black"/>
<path d="M211.179 185.38H204.829V191.73H211.179V185.38Z" fill="black"/>
<path d="M211.179 178.98H204.829V185.39H211.179V178.98Z" fill="black"/>
<path d="M211.179 159.87H204.829V166.22H211.179V159.87Z" fill="black"/>
<path d="M211.179 140.7H204.829V147.05H211.179V140.7Z" fill="black"/>
<path d="M211.179 89.5898H204.829V95.9998H211.179V89.5898Z" fill="black"/>
<path d="M211.179 64.0698H204.829V70.4798H211.179V64.0698Z" fill="black"/>
<path d="M204.83 223.68H198.42V230.09H204.83V223.68Z" fill="black"/>
<path d="M204.83 198.15H198.42V204.56H204.83V198.15Z" fill="black"/>
<path d="M204.83 191.74H198.42V198.15H204.83V191.74Z" fill="black"/>
<path d="M204.83 178.98H198.42V185.39H204.83V178.98Z" fill="black"/>
<path d="M204.83 172.63H198.42V178.98H204.83V172.63Z" fill="black"/>
<path d="M204.83 166.22H198.42V172.63H204.83V166.22Z" fill="black"/>
<path d="M204.83 159.87H198.42V166.22H204.83V159.87Z" fill="black"/>
<path d="M204.83 134.28H198.42V140.69H204.83V134.28Z" fill="black"/>
<path d="M204.83 115.18H198.42V121.53H204.83V115.18Z" fill="black"/>
<path d="M204.83 108.76H198.42V115.17H204.83V108.76Z" fill="black"/>
<path d="M204.83 102.42H198.42V108.77H204.83V102.42Z" fill="black"/>
<path d="M204.83 96H198.42V102.41H204.83V96Z" fill="black"/>
<path d="M204.83 64.0698H198.42V70.4798H204.83V64.0698Z" fill="black"/>
<path d="M204.83 57.7197H198.42V64.0697H204.83V57.7197Z" fill="black"/>
<path d="M198.419 223.68H192.069V230.09H198.419V223.68Z" fill="black"/>
<path d="M198.419 191.74H192.069V198.15H198.419V191.74Z" fill="black"/>
<path d="M198.419 178.98H192.069V185.39H198.419V178.98Z" fill="black"/>
<path d="M198.419 153.46H192.069V159.87H198.419V153.46Z" fill="black"/>
<path d="M198.419 134.28H192.069V140.69H198.419V134.28Z" fill="black"/>
<path d="M198.419 127.94H192.069V134.29H198.419V127.94Z" fill="black"/>
<path d="M198.419 121.52H192.069V127.93H198.419V121.52Z" fill="black"/>
<path d="M198.419 51.3101H192.069V57.7201H198.419V51.3101Z" fill="black"/>
<path d="M192.08 223.68H185.67V230.09H192.08V223.68Z" fill="black"/>
<path d="M192.08 191.74H185.67V198.15H192.08V191.74Z" fill="black"/>
<path d="M192.08 178.98H185.67V185.39H192.08V178.98Z" fill="black"/>
<path d="M192.08 147.05H185.67V153.46H192.08V147.05Z" fill="black"/>
<path d="M192.08 140.7H185.67V147.05H192.08V140.7Z" fill="black"/>
<path d="M192.08 57.7197H185.67V64.0697H192.08V57.7197Z" fill="black"/>
<path d="M185.66 223.68H179.25V230.09H185.66V223.68Z" fill="black"/>
<path d="M185.66 191.74H179.25V198.15H185.66V191.74Z" fill="black"/>
<path d="M185.66 178.98H179.25V185.39H185.66V178.98Z" fill="black"/>
<path d="M185.66 147.05H179.25V153.46H185.66V147.05Z" fill="black"/>
<path d="M185.66 51.3101H179.25V57.7201H185.66V51.3101Z" fill="black"/>
<path d="M179.249 223.68H172.899V230.09H179.249V223.68Z" fill="black"/>
<path d="M179.249 198.15H172.899V204.56H179.249V198.15Z" fill="black"/>
<path d="M179.249 191.74H172.899V198.15H179.249V191.74Z" fill="black"/>
<path d="M179.249 178.98H172.899V185.39H179.249V178.98Z" fill="black"/>
<path d="M179.249 153.46H172.899V159.87H179.249V153.46Z" fill="black"/>
<path d="M179.249 44.8999H172.899V51.3099H179.249V44.8999Z" fill="black"/>
<path d="M179.249 38.5498H172.899V44.8998H179.249V38.5498Z" fill="black"/>
<path d="M179.249 32.1396H172.899V38.5497H179.249V32.1396Z" fill="black"/>
<path d="M172.899 217.32H166.489V223.67H172.899V217.32Z" fill="black"/>
<path d="M172.899 210.91H166.489V217.32H172.899V210.91Z" fill="black"/>
<path d="M172.899 204.56H166.489V210.91H172.899V204.56Z" fill="black"/>
<path d="M172.899 191.74H166.489V198.15H172.899V191.74Z" fill="black"/>
<path d="M172.899 185.38H166.489V191.73H172.899V185.38Z" fill="black"/>
<path d="M172.899 178.98H166.489V185.39H172.899V178.98Z" fill="black"/>
<path d="M172.899 172.63H166.489V178.98H172.899V172.63Z" fill="black"/>
<path d="M172.899 166.22H166.489V172.63H172.899V166.22Z" fill="black"/>
<path d="M172.899 159.87H166.489V166.22H172.899V159.87Z" fill="black"/>
<path d="M172.899 44.8999H166.489V51.3099H172.899V44.8999Z" fill="black"/>
<path d="M172.899 25.79H166.489V32.14H172.899V25.79Z" fill="black"/>
<path d="M166.49 166.22H160.14V172.63H166.49V166.22Z" fill="black"/>
<path d="M166.49 51.3101H160.14V57.7201H166.49V51.3101Z" fill="black"/>
<path d="M166.49 19.3799H160.14V25.7899H166.49V19.3799Z" fill="black"/>
<path d="M160.139 217.32H153.729V223.67H160.139V217.32Z" fill="black"/>
<path d="M160.139 210.91H153.729V217.32H160.139V210.91Z" fill="black"/>
<path d="M160.139 204.56H153.729V210.91H160.139V204.56Z" fill="black"/>
<path d="M160.139 198.15H153.729V204.56H160.139V198.15Z" fill="black"/>
<path d="M160.139 191.74H153.729V198.15H160.139V191.74Z" fill="black"/>
<path d="M160.139 185.38H153.729V191.73H160.139V185.38Z" fill="black"/>
<path d="M160.139 178.98H153.729V185.39H160.139V178.98Z" fill="black"/>
<path d="M160.139 172.63H153.729V178.98H160.139V172.63Z" fill="black"/>
<path d="M160.139 51.3101H153.729V57.7201H160.139V51.3101Z" fill="black"/>
<path d="M160.139 19.3799H153.729V25.7899H160.139V19.3799Z" fill="black"/>
<path d="M153.719 223.68H147.369V230.09H153.719V223.68Z" fill="black"/>
<path d="M153.719 191.74H147.369V198.15H153.719V191.74Z" fill="black"/>
<path d="M153.719 178.98H147.369V185.39H153.719V178.98Z" fill="black"/>
<path d="M153.719 166.22H147.369V172.63H153.719V166.22Z" fill="black"/>
<path d="M153.719 159.87H147.369V166.22H153.719V159.87Z" fill="black"/>
<path d="M153.719 153.46H147.369V159.87H153.719V153.46Z" fill="black"/>
<path d="M153.719 51.3101H147.369V57.7201H153.719V51.3101Z" fill="black"/>
<path d="M153.719 19.3799H147.369V25.7899H153.719V19.3799Z" fill="black"/>
<path d="M147.389 223.68H140.979V230.09H147.389V223.68Z" fill="black"/>
<path d="M147.389 191.74H140.979V198.15H147.389V191.74Z" fill="black"/>
<path d="M147.389 178.98H140.979V185.39H147.389V178.98Z" fill="black"/>
<path d="M147.389 147.05H140.979V153.46H147.389V147.05Z" fill="black"/>
<path d="M147.389 51.3101H140.979V57.7201H147.389V51.3101Z" fill="black"/>
<path d="M147.389 19.3799H140.979V25.7899H147.389V19.3799Z" fill="black"/>
<path d="M140.959 223.68H134.609V230.09H140.959V223.68Z" fill="black"/>
<path d="M140.959 191.74H134.609V198.15H140.959V191.74Z" fill="black"/>
<path d="M140.959 178.98H134.609V185.39H140.959V178.98Z" fill="black"/>
<path d="M140.959 140.7H134.609V147.05H140.959V140.7Z" fill="black"/>
<path d="M140.959 51.3101H134.609V57.7201H140.959V51.3101Z" fill="black"/>
<path d="M140.959 19.3799H134.609V25.7899H140.959V19.3799Z" fill="black"/>
<path d="M134.62 223.68H128.21V230.09H134.62V223.68Z" fill="black"/>
<path d="M134.62 191.74H128.21V198.15H134.62V191.74Z" fill="black"/>
<path d="M134.62 178.98H128.21V185.39H134.62V178.98Z" fill="black"/>
<path d="M134.62 140.7H128.21V147.05H134.62V140.7Z" fill="black"/>
<path d="M134.62 51.3101H128.21V57.7201H134.62V51.3101Z" fill="black"/>
<path d="M134.62 25.79H128.21V32.14H134.62V25.79Z" fill="black"/>
<path d="M128.21 223.68H121.8V230.09H128.21V223.68Z" fill="black"/>
<path d="M128.21 204.56H121.8V210.91H128.21V204.56Z" fill="black"/>
<path d="M128.21 198.15H121.8V204.56H128.21V198.15Z" fill="black"/>
<path d="M128.21 191.74H121.8V198.15H128.21V191.74Z" fill="black"/>
<path d="M128.21 178.98H121.8V185.39H128.21V178.98Z" fill="black"/>
<path d="M128.21 172.63H121.8V178.98H128.21V172.63Z" fill="black"/>
<path d="M128.21 166.22H121.8V172.63H128.21V166.22Z" fill="black"/>
<path d="M128.21 159.87H121.8V166.22H128.21V159.87Z" fill="black"/>
<path d="M128.21 153.46H121.8V159.87H128.21V153.46Z" fill="black"/>
<path d="M128.21 147.05H121.8V153.46H128.21V147.05Z" fill="black"/>
<path d="M128.21 57.7197H121.8V64.0697H128.21V57.7197Z" fill="black"/>
<path d="M128.21 32.1396H121.8V38.5497H128.21V32.1396Z" fill="black"/>
<path d="M121.799 223.68H115.449V230.09H121.799V223.68Z" fill="black"/>
<path d="M121.799 204.56H115.449V210.91H121.799V204.56Z" fill="black"/>
<path d="M121.799 191.74H115.449V198.15H121.799V191.74Z" fill="black"/>
<path d="M121.799 185.38H115.449V191.73H121.799V185.38Z" fill="black"/>
<path d="M121.799 178.98H115.449V185.39H121.799V178.98Z" fill="black"/>
<path d="M121.799 153.46H115.449V159.87H121.799V153.46Z" fill="black"/>
<path d="M121.799 134.28H115.449V140.69H121.799V134.28Z" fill="black"/>
<path d="M121.799 127.94H115.449V134.29H121.799V127.94Z" fill="black"/>
<path d="M121.799 76.8301H115.449V83.2401H121.799V76.8301Z" fill="black"/>
<path d="M121.799 70.48H115.449V76.83H121.799V70.48Z" fill="black"/>
<path d="M121.799 64.0698H115.449V70.4798H121.799V64.0698Z" fill="black"/>
<path d="M121.799 57.7197H115.449V64.0697H121.799V57.7197Z" fill="black"/>
<path d="M121.799 51.3101H115.449V57.7201H121.799V51.3101Z" fill="black"/>
<path d="M121.799 44.8999H115.449V51.3099H121.799V44.8999Z" fill="black"/>
<path d="M121.799 38.5498H115.449V44.8998H121.799V38.5498Z" fill="black"/>
<path d="M115.45 223.68H109.04V230.09H115.45V223.68Z" fill="black"/>
<path d="M115.45 204.56H109.04V210.91H115.45V204.56Z" fill="black"/>
<path d="M115.45 147.05H109.04V153.46H115.45V147.05Z" fill="black"/>
<path d="M115.45 140.7H109.04V147.05H115.45V140.7Z" fill="black"/>
<path d="M115.45 121.52H109.04V127.93H115.45V121.52Z" fill="black"/>
<path d="M115.45 115.18H109.04V121.53H115.45V115.18Z" fill="black"/>
<path d="M115.45 108.76H109.04V115.17H115.45V108.76Z" fill="black"/>
<path d="M115.45 102.42H109.04V108.77H115.45V102.42Z" fill="black"/>
<path d="M115.45 96H109.04V102.41H115.45V96Z" fill="black"/>
<path d="M115.45 89.5898H109.04V95.9998H115.45V89.5898Z" fill="black"/>
<path d="M115.45 83.2397H109.04V89.5897H115.45V83.2397Z" fill="black"/>
<path d="M115.45 64.0698H109.04V70.4798H115.45V64.0698Z" fill="black"/>
<path d="M109.039 217.32H102.689V223.67H109.039V217.32Z" fill="black"/>
<path d="M109.039 210.91H102.689V217.32H109.039V210.91Z" fill="black"/>
<path d="M109.039 108.76H102.689V115.17H109.039V108.76Z" fill="black"/>
<path d="M109.039 70.48H102.689V76.83H109.039V70.48Z" fill="black"/>
<path d="M102.68 115.18H96.2695V121.53H102.68V115.18Z" fill="black"/>
<path d="M102.68 76.8301H96.2695V83.2401H102.68V76.8301Z" fill="black"/>
<path d="M96.2699 115.18H89.9199V121.53H96.2699V115.18Z" fill="black"/>
<path d="M96.2699 96H89.9199V102.41H96.2699V96Z" fill="black"/>
<path d="M96.2699 89.5898H89.9199V95.9998H96.2699V89.5898Z" fill="black"/>
<path d="M96.2699 83.2397H89.9199V89.5897H96.2699V83.2397Z" fill="black"/>
<path d="M96.2699 70.48H89.9199V76.83H96.2699V70.48Z" fill="black"/>
<path d="M96.2699 64.0698H89.9199V70.4798H96.2699V64.0698Z" fill="black"/>
<path d="M96.2699 57.7197H89.9199V64.0697H96.2699V57.7197Z" fill="black"/>
<path d="M96.2699 51.3101H89.9199V57.7201H96.2699V51.3101Z" fill="black"/>
<path d="M96.2699 44.8999H89.9199V51.3099H96.2699V44.8999Z" fill="black"/>
<path d="M96.2699 38.5498H89.9199V44.8998H96.2699V38.5498Z" fill="black"/>
<path d="M89.9295 121.52H83.5195V127.93H89.9295V121.52Z" fill="black"/>
<path d="M89.9295 96H83.5195V102.41H89.9295V96Z" fill="black"/>
<path d="M89.9295 76.8301H83.5195V83.2401H89.9295V76.8301Z" fill="black"/>
<path d="M89.9295 32.1396H83.5195V38.5497H89.9295V32.1396Z" fill="black"/>
<path d="M83.5096 121.52H77.0996V127.93H83.5096V121.52Z" fill="black"/>
<path d="M83.5096 102.42H77.0996V108.77H83.5096V102.42Z" fill="black"/>
<path d="M83.5096 70.48H77.0996V76.83H83.5096V70.48Z" fill="black"/>
<path d="M83.5096 38.5498H77.0996V44.8998H83.5096V38.5498Z" fill="black"/>
<path d="M77.1098 178.98H70.7598V185.39H77.1098V178.98Z" fill="black"/>
<path d="M77.1098 172.63H70.7598V178.98H77.1098V172.63Z" fill="black"/>
<path d="M77.1098 127.94H70.7598V134.29H77.1098V127.94Z" fill="black"/>
<path d="M77.1098 108.76H70.7598V115.17H77.1098V108.76Z" fill="black"/>
<path d="M77.1098 64.0698H70.7598V70.4798H77.1098V64.0698Z" fill="black"/>
<path d="M77.1098 44.8999H70.7598V51.3099H77.1098V44.8999Z" fill="black"/>
<path d="M77.1098 25.79H70.7598V32.14H77.1098V25.79Z" fill="black"/>
<path d="M70.7498 185.38H64.3398V191.73H70.7498V185.38Z" fill="black"/>
<path d="M70.7498 166.22H64.3398V172.63H70.7498V166.22Z" fill="black"/>
<path d="M70.7498 159.87H64.3398V166.22H70.7498V159.87Z" fill="black"/>
<path d="M70.7498 153.46H64.3398V159.87H70.7498V153.46Z" fill="black"/>
<path d="M70.7498 147.05H64.3398V153.46H70.7498V147.05Z" fill="black"/>
<path d="M70.7498 140.7H64.3398V147.05H70.7498V140.7Z" fill="black"/>
<path d="M70.7498 134.28H64.3398V140.69H70.7498V134.28Z" fill="black"/>
<path d="M70.7498 102.42H64.3398V108.77H70.7498V102.42Z" fill="black"/>
<path d="M70.7498 96H64.3398V102.41H70.7498V96Z" fill="black"/>
<path d="M70.7498 89.5898H64.3398V95.9998H70.7498V89.5898Z" fill="black"/>
<path d="M70.7498 83.2397H64.3398V89.5897H70.7498V83.2397Z" fill="black"/>
<path d="M70.7498 76.8301H64.3398V83.2401H70.7498V76.8301Z" fill="black"/>
<path d="M70.7498 70.48H64.3398V76.83H70.7498V70.48Z" fill="black"/>
<path d="M70.7498 64.0698H64.3398V70.4798H70.7498V64.0698Z" fill="black"/>
<path d="M70.7498 57.7197H64.3398V64.0697H70.7498V57.7197Z" fill="black"/>
<path d="M70.7498 51.3101H64.3398V57.7201H70.7498V51.3101Z" fill="black"/>
<path d="M70.7498 44.8999H64.3398V51.3099H70.7498V44.8999Z" fill="black"/>
<path d="M70.7498 38.5498H64.3398V44.8998H70.7498V38.5498Z" fill="black"/>
<path d="M70.7498 32.1396H64.3398V38.5497H70.7498V32.1396Z" fill="black"/>
<path d="M70.7498 19.3799H64.3398V25.7899H70.7498V19.3799Z" fill="black"/>
<path d="M64.3392 191.74H57.9893V198.15H64.3392V191.74Z" fill="black"/>
<path d="M64.3392 134.28H57.9893V140.69H64.3392V134.28Z" fill="black"/>
<path d="M64.3392 96H57.9893V102.41H64.3392V96Z" fill="black"/>
<path d="M64.3392 19.3799H57.9893V25.7899H64.3392V19.3799Z" fill="black"/>
<path d="M57.9891 185.38H51.5791V191.73H57.9891V185.38Z" fill="black"/>
<path d="M57.9891 166.22H51.5791V172.63H57.9891V166.22Z" fill="black"/>
<path d="M57.9891 159.87H51.5791V166.22H57.9891V159.87Z" fill="black"/>
<path d="M57.9891 153.46H51.5791V159.87H57.9891V153.46Z" fill="black"/>
<path d="M57.9891 147.05H51.5791V153.46H57.9891V147.05Z" fill="black"/>
<path d="M57.9891 140.7H51.5791V147.05H57.9891V140.7Z" fill="black"/>
<path d="M57.9891 134.28H51.5791V140.69H57.9891V134.28Z" fill="black"/>
<path d="M57.9891 96H51.5791V102.41H57.9891V96Z" fill="black"/>
<path d="M57.9891 89.5898H51.5791V95.9998H57.9891V89.5898Z" fill="black"/>
<path d="M57.9891 83.2397H51.5791V89.5897H57.9891V83.2397Z" fill="black"/>
<path d="M57.9891 76.8301H51.5791V83.2401H57.9891V76.8301Z" fill="black"/>
<path d="M57.9891 70.48H51.5791V76.83H57.9891V70.48Z" fill="black"/>
<path d="M57.9891 64.0698H51.5791V70.4798H57.9891V64.0698Z" fill="black"/>
<path d="M57.9891 57.7197H51.5791V64.0697H57.9891V57.7197Z" fill="black"/>
<path d="M57.9891 51.3101H51.5791V57.7201H57.9891V51.3101Z" fill="black"/>
<path d="M57.9891 44.8999H51.5791V51.3099H57.9891V44.8999Z" fill="black"/>
<path d="M57.9891 38.5498H51.5791V44.8998H57.9891V38.5498Z" fill="black"/>
<path d="M57.9891 32.1396H51.5791V38.5497H57.9891V32.1396Z" fill="black"/>
<path d="M57.9891 19.3799H51.5791V25.7899H57.9891V19.3799Z" fill="black"/>
<path d="M51.5795 178.98H45.2295V185.39H51.5795V178.98Z" fill="black"/>
<path d="M51.5795 172.63H45.2295V178.98H51.5795V172.63Z" fill="black"/>
<path d="M51.5795 127.94H45.2295V134.29H51.5795V127.94Z" fill="black"/>
<path d="M51.5795 121.52H45.2295V127.93H51.5795V121.52Z" fill="black"/>
<path d="M51.5795 115.18H45.2295V121.53H51.5795V115.18Z" fill="black"/>
<path d="M51.5795 108.76H45.2295V115.17H51.5795V108.76Z" fill="black"/>
<path d="M51.5795 102.42H45.2295V108.77H51.5795V102.42Z" fill="black"/>
<path d="M51.5795 64.0698H45.2295V70.4798H51.5795V64.0698Z" fill="black"/>
<path d="M51.5795 44.8999H45.2295V51.3099H51.5795V44.8999Z" fill="black"/>
<path d="M51.5795 25.79H45.2295V32.14H51.5795V25.79Z" fill="black"/>
<path d="M45.2293 64.0698H38.8193V70.4798H45.2293V64.0698Z" fill="black"/>
<path d="M45.2293 44.8999H38.8193V51.3099H45.2293V44.8999Z" fill="black"/>
<path d="M38.8197 70.48H32.4697V76.83H38.8197V70.48Z" fill="black"/>
<path d="M38.8197 38.5498H32.4697V44.8998H38.8197V38.5498Z" fill="black"/>
<path d="M32.4696 83.2397H26.0596V89.5897H32.4696V83.2397Z" fill="black"/>
<path d="M32.4696 76.8301H26.0596V83.2401H32.4696V76.8301Z" fill="black"/>
<path d="M32.4696 32.1396H26.0596V38.5497H32.4696V32.1396Z" fill="black"/>
<path d="M32.4696 25.79H26.0596V32.14H32.4696V25.79Z" fill="black"/>
<path d="M230.329 108.76H223.979V115.17H230.329V108.76Z" fill="#373370"/>
<path d="M230.329 102.42H223.979V108.77H230.329V102.42Z" fill="#373370"/>
<path d="M223.989 115.18H217.579V121.53H223.989V115.18Z" fill="#373370"/>
<path d="M223.989 108.76H217.579V115.17H223.989V108.76Z" fill="#373370"/>
<path d="M223.989 102.42H217.579V108.77H223.989V102.42Z" fill="#373370"/>
<path d="M223.989 96H217.579V102.41H223.989V96Z" fill="#373370"/>
<path d="M217.57 153.46H211.22V159.87H217.57V153.46Z" fill="#E2A066"/>
<path d="M217.57 121.52H211.22V127.93H217.57V121.52Z" fill="#373370"/>
<path d="M217.57 115.18H211.22V121.53H217.57V115.18Z" fill="#373370"/>
<path d="M217.57 108.76H211.22V115.17H217.57V108.76Z" fill="#453D7C"/>
<path d="M217.57 102.42H211.22V108.77H217.57V102.42Z" fill="#453D7C"/>
<path d="M217.57 96H211.22V102.41H217.57V96Z" fill="#373370"/>
<path d="M217.57 89.5898H211.22V95.9998H217.57V89.5898Z" fill="#373370"/>
<path d="M217.57 76.8301H211.22V83.2401H217.57V76.8301Z" fill="#CFAA18"/>
<path d="M211.22 217.32H204.81V223.67H211.22V217.32Z" fill="#7C6916"/>
<path d="M211.22 210.91H204.81V217.32H211.22V210.91Z" fill="#7C6916"/>
<path d="M211.22 153.46H204.81V159.87H211.22V153.46Z" fill="#E2A066"/>
<path d="M211.22 147.05H204.81V153.46H211.22V147.05Z" fill="#E2A066"/>
<path d="M211.22 134.28H204.81V140.69H211.22V134.28Z" fill="#453D7C"/>
<path d="M211.22 127.94H204.81V134.29H211.22V127.94Z" fill="#453D7C"/>
<path d="M211.22 121.52H204.81V127.93H211.22V121.52Z" fill="#453D7C"/>
<path d="M211.22 115.18H204.81V121.53H211.22V115.18Z" fill="#453D7C"/>
<path d="M211.22 108.76H204.81V115.17H211.22V108.76Z" fill="#453D7C"/>
<path d="M211.22 102.42H204.81V108.77H211.22V102.42Z" fill="#453D7C"/>
<path d="M211.22 96H204.81V102.41H211.22V96Z" fill="#453D7C"/>
<path d="M211.22 83.2402H204.81V89.5902H211.22V83.2402Z" fill="#CFAA18"/>
<path d="M211.22 76.8301H204.81V83.2401H211.22V76.8301Z" fill="#CFAA18"/>
<path d="M211.22 70.48H204.81V76.83H211.22V70.48Z" fill="#CFAA18"/>
<path d="M204.81 217.32H198.46V223.67H204.81V217.32Z" fill="#7C6916"/>
<path d="M204.81 210.91H198.46V217.32H204.81V210.91Z" fill="#7C6916"/>
<path d="M204.81 204.56H198.46V210.91H204.81V204.56Z" fill="#7C6916"/>
<path d="M204.81 185.38H198.46V191.73H204.81V185.38Z" fill="#7C6916"/>
<path d="M204.81 153.46H198.46V159.87H204.81V153.46Z" fill="#E2A066"/>
<path d="M204.81 147.05H198.46V153.46H204.81V147.05Z" fill="#E2A066"/>
<path d="M204.81 140.7H198.46V147.05H204.81V140.7Z" fill="#E2A066"/>
<path d="M204.81 127.94H198.46V134.29H204.81V127.94Z" fill="#453D7C"/>
<path d="M204.81 121.52H198.46V127.93H204.81V121.52Z" fill="#453D7C"/>
<path d="M204.81 89.5898H198.46V95.9998H204.81V89.5898Z" fill="#CFAA18"/>
<path d="M204.81 83.2402H198.46V89.5902H204.81V83.2402Z" fill="#B28A0D"/>
<path d="M204.81 76.8301H198.46V83.2401H204.81V76.8301Z" fill="#B28A0D"/>
<path d="M204.81 70.48H198.46V76.83H204.81V70.48Z" fill="#CFAA18"/>
<path d="M198.46 217.32H192.05V223.67H198.46V217.32Z" fill="#A18824"/>
<path d="M198.46 210.91H192.05V217.32H198.46V210.91Z" fill="#7C6916"/>
<path d="M198.46 204.56H192.05V210.91H198.46V204.56Z" fill="#7C6916"/>
<path d="M198.46 198.15H192.05V204.56H198.46V198.15Z" fill="#7C6916"/>
<path d="M198.46 185.38H192.05V191.73H198.46V185.38Z" fill="#7C6916"/>
<path d="M198.46 172.63H192.05V178.98H198.46V172.63Z" fill="#373370"/>
<path d="M198.46 166.22H192.05V172.63H198.46V166.22Z" fill="#373370"/>
<path d="M198.46 159.87H192.05V166.22H198.46V159.87Z" fill="#373370"/>
<path d="M198.46 147.05H192.05V153.46H198.46V147.05Z" fill="#E2A066"/>
<path d="M198.46 140.7H192.05V147.05H198.46V140.7Z" fill="#E2A066"/>
<path d="M198.46 115.18H192.05V121.53H198.46V115.18Z" fill="#CFAA18"/>
<path d="M198.46 108.76H192.05V115.17H198.46V108.76Z" fill="#CFAA18"/>
<path d="M198.46 102.42H192.05V108.77H198.46V102.42Z" fill="#CFAA18"/>
<path d="M198.46 96H192.05V102.41H198.46V96Z" fill="#CFAA18"/>
<path d="M198.46 89.5898H192.05V95.9998H198.46V89.5898Z" fill="#CFAA18"/>
<path d="M198.46 83.2402H192.05V89.5902H198.46V83.2402Z" fill="#CFAA18"/>
<path d="M198.46 76.8301H192.05V83.2401H198.46V76.8301Z" fill="#B28A0D"/>
<path d="M198.46 70.48H192.05V76.83H198.46V70.48Z" fill="#B28A0D"/>
<path d="M198.46 64.0698H192.05V70.4798H198.46V64.0698Z" fill="#CFAA18"/>
<path d="M198.46 57.7202H192.05V64.0702H198.46V57.7202Z" fill="#CFAA18"/>
<path d="M192.05 217.32H185.64V223.67H192.05V217.32Z" fill="#A18824"/>
<path d="M192.05 210.91H185.64V217.32H192.05V210.91Z" fill="#A18824"/>
<path d="M192.05 204.56H185.64V210.91H192.05V204.56Z" fill="#A18824"/>
<path d="M192.05 198.15H185.64V204.56H192.05V198.15Z" fill="#A18824"/>
<path d="M192.05 185.38H185.64V191.73H192.05V185.38Z" fill="#7C6916"/>
<path d="M192.05 172.63H185.64V178.98H192.05V172.63Z" fill="#373370"/>
<path d="M192.05 166.22H185.64V172.63H192.05V166.22Z" fill="#373370"/>
<path d="M192.05 159.87H185.64V166.22H192.05V159.87Z" fill="#373370"/>
<path d="M192.05 153.46H185.64V159.87H192.05V153.46Z" fill="#373370"/>
<path d="M192.05 134.28H185.64V140.69H192.05V134.28Z" fill="#CFAA18"/>
<path d="M192.05 127.94H185.64V134.29H192.05V127.94Z" fill="#CFAA18"/>
<path d="M192.05 121.52H185.64V127.93H192.05V121.52Z" fill="#CFAA18"/>
<path d="M192.05 115.18H185.64V121.53H192.05V115.18Z" fill="#CFAA18"/>
<path d="M192.05 108.76H185.64V115.17H192.05V108.76Z" fill="#CFAA18"/>
<path d="M192.05 102.42H185.64V108.77H192.05V102.42Z" fill="#B28A0D"/>
<path d="M192.05 96H185.64V102.41H192.05V96Z" fill="#B28A0D"/>
<path d="M192.05 89.5898H185.64V95.9998H192.05V89.5898Z" fill="#CFAA18"/>
<path d="M192.05 83.2402H185.64V89.5902H192.05V83.2402Z" fill="#CFAA18"/>
<path d="M192.05 76.8301H185.64V83.2401H192.05V76.8301Z" fill="#CFAA18"/>
<path d="M192.05 70.48H185.64V76.83H192.05V70.48Z" fill="#CFAA18"/>
<path d="M192.05 64.0698H185.64V70.4798H192.05V64.0698Z" fill="#CFAA18"/>
<path d="M192.05 19.3799H185.64V25.7899H192.05V19.3799Z" fill="black"/>
<path d="M192.05 13.0298H185.64V19.3798H192.05V13.0298Z" fill="black"/>
<path d="M192.05 6.62012H185.64V13.0301H192.05V6.62012Z" fill="black"/>
<path d="M192.05 0.27002H185.64V6.62003H192.05V0.27002Z" fill="black"/>
<path d="M185.629 217.32H179.279V223.67H185.629V217.32Z" fill="#A18824"/>
<path d="M185.629 210.91H179.279V217.32H185.629V210.91Z" fill="#A18824"/>
<path d="M185.629 204.56H179.279V210.91H185.629V204.56Z" fill="#A18824"/>
<path d="M185.629 198.15H179.279V204.56H185.629V198.15Z" fill="#A18824"/>
<path d="M185.629 185.38H179.279V191.73H185.629V185.38Z" fill="#A18824"/>
<path d="M185.629 172.63H179.279V178.98H185.629V172.63Z" fill="#453D7C"/>
<path d="M185.629 166.22H179.279V172.63H185.629V166.22Z" fill="#453D7C"/>
<path d="M185.629 159.87H179.279V166.22H185.629V159.87Z" fill="#453D7C"/>
<path d="M185.629 153.46H179.279V159.87H185.629V153.46Z" fill="#373370"/>
<path d="M185.629 140.7H179.279V147.05H185.629V140.7Z" fill="#CFAA18"/>
<path d="M185.629 134.28H179.279V140.69H185.629V134.28Z" fill="#CFAA18"/>
<path d="M185.629 127.94H179.279V134.29H185.629V127.94Z" fill="#CFAA18"/>
<path d="M185.629 121.52H179.279V127.93H185.629V121.52Z" fill="#CFAA18"/>
<path d="M185.629 115.18H179.279V121.53H185.629V115.18Z" fill="#B28A0D"/>
<path d="M185.629 108.76H179.279V115.17H185.629V108.76Z" fill="#B28A0D"/>
<path d="M185.629 102.42H179.279V108.77H185.629V102.42Z" fill="#CFAA18"/>
<path d="M185.629 96H179.279V102.41H185.629V96Z" fill="#CFAA18"/>
<path d="M185.629 89.5898H179.279V95.9998H185.629V89.5898Z" fill="#CFAA18"/>
<path d="M185.629 83.2402H179.279V89.5902H185.629V83.2402Z" fill="#CFAA18"/>
<path d="M185.629 76.8301H179.279V83.2401H185.629V76.8301Z" fill="#CFAA18"/>
<path d="M185.629 70.48H179.279V76.83H185.629V70.48Z" fill="#CFAA18"/>
<path d="M185.629 64.0698H179.279V70.4798H185.629V64.0698Z" fill="#CFAA18"/>
<path d="M185.629 57.7202H179.279V64.0702H185.629V57.7202Z" fill="#CFAA18"/>
<path d="M185.629 25.79H179.279V32.14H185.629V25.79Z" fill="black"/>
<path d="M185.629 19.3799H179.279V25.7899H185.629V19.3799Z" fill="#CFAA18"/>
<path d="M185.629 13.0298H179.279V19.3798H185.629V13.0298Z" fill="#CFAA18"/>
<path d="M185.629 6.62012H179.279V13.0301H185.629V6.62012Z" fill="black"/>
<path d="M179.29 217.32H172.88V223.67H179.29V217.32Z" fill="#A18824"/>
<path d="M179.29 210.91H172.88V217.32H179.29V210.91Z" fill="#A18824"/>
<path d="M179.29 204.56H172.88V210.91H179.29V204.56Z" fill="#A18824"/>
<path d="M179.29 185.38H172.88V191.73H179.29V185.38Z" fill="#A18824"/>
<path d="M179.29 172.63H172.88V178.98H179.29V172.63Z" fill="#453D7C"/>
<path d="M179.29 166.22H172.88V172.63H179.29V166.22Z" fill="#453D7C"/>
<path d="M179.29 159.87H172.88V166.22H179.29V159.87Z" fill="#453D7C"/>
<path d="M179.29 147.05H172.88V153.46H179.29V147.05Z" fill="#CFAA18"/>
<path d="M179.29 140.7H172.88V147.05H179.29V140.7Z" fill="#CFAA18"/>
<path d="M179.29 134.28H172.88V140.69H179.29V134.28Z" fill="#CFAA18"/>
<path d="M179.29 127.94H172.88V134.29H179.29V127.94Z" fill="#B28A0D"/>
<path d="M179.29 121.52H172.88V127.93H179.29V121.52Z" fill="#CFAA18"/>
<path d="M179.29 115.18H172.88V121.53H179.29V115.18Z" fill="#CFAA18"/>
<path d="M179.29 108.76H172.88V115.17H179.29V108.76Z" fill="#B28A0D"/>
<path d="M179.29 102.42H172.88V108.77H179.29V102.42Z" fill="#B28A0D"/>
<path d="M179.29 96H172.88V102.41H179.29V96Z" fill="#CFAA18"/>
<path d="M179.29 89.5898H172.88V95.9998H179.29V89.5898Z" fill="#CFAA18"/>
<path d="M179.29 83.2402H172.88V89.5902H179.29V83.2402Z" fill="#B28A0D"/>
<path d="M179.29 76.8301H172.88V83.2401H179.29V76.8301Z" fill="#B28A0D"/>
<path d="M179.29 70.48H172.88V76.83H179.29V70.48Z" fill="#CFAA18"/>
<path d="M179.29 64.0698H172.88V70.4798H179.29V64.0698Z" fill="#B28A0D"/>
<path d="M179.29 57.7202H172.88V64.0702H179.29V57.7202Z" fill="#CFAA18"/>
<path d="M179.29 51.3101H172.88V57.7201H179.29V51.3101Z" fill="#CFAA18"/>
<path d="M179.29 25.79H172.88V32.14H179.29V25.79Z" fill="#CFAA18"/>
<path d="M179.29 19.3799H172.88V25.7899H179.29V19.3799Z" fill="#CFAA18"/>
<path d="M179.29 13.0298H172.88V19.3798H179.29V13.0298Z" fill="black"/>
<path d="M172.879 153.46H166.529V159.87H172.879V153.46Z" fill="#CFAA18"/>
<path d="M172.879 147.05H166.529V153.46H172.879V147.05Z" fill="#CFAA18"/>
<path d="M172.879 140.7H166.529V147.05H172.879V140.7Z" fill="#CFAA18"/>
<path d="M172.879 134.28H166.529V140.69H172.879V134.28Z" fill="#CFAA18"/>
<path d="M172.879 127.94H166.529V134.29H172.879V127.94Z" fill="#CFAA18"/>
<path d="M172.879 121.52H166.529V127.93H172.879V121.52Z" fill="#B28A0D"/>
<path d="M172.879 115.18H166.529V121.53H172.879V115.18Z" fill="#CFAA18"/>
<path d="M172.879 108.76H166.529V115.17H172.879V108.76Z" fill="#CFAA18"/>
<path d="M172.879 102.42H166.529V108.77H172.879V102.42Z" fill="#CFAA18"/>
<path d="M172.879 96H166.529V102.41H172.879V96Z" fill="#CFAA18"/>
<path d="M172.879 89.5898H166.529V95.9998H172.879V89.5898Z" fill="#CFAA18"/>
<path d="M172.879 83.2402H166.529V89.5902H172.879V83.2402Z" fill="#CFAA18"/>
<path d="M172.879 76.8301H166.529V83.2401H172.879V76.8301Z" fill="#CFAA18"/>
<path d="M172.879 70.48H166.529V76.83H172.879V70.48Z" fill="#B28A0D"/>
<path d="M172.879 64.0698H166.529V70.4798H172.879V64.0698Z" fill="#B28A0D"/>
<path d="M172.879 57.7202H166.529V64.0702H172.879V57.7202Z" fill="#CE8A57"/>
<path d="M172.879 51.3101H166.529V57.7201H172.879V51.3101Z" fill="#CE8A57"/>
<path d="M172.879 38.5498H166.529V44.8998H172.879V38.5498Z" fill="#2C2E3A"/>
<path d="M172.879 32.1401H166.529V38.5501H172.879V32.1401Z" fill="#091442"/>
<path d="M172.879 19.3799H166.529V25.7899H172.879V19.3799Z" fill="black"/>
<path d="M166.529 159.87H160.119V166.22H166.529V159.87Z" fill="#CFAA18"/>
<path d="M166.529 153.46H160.119V159.87H166.529V153.46Z" fill="#B28A0D"/>
<path d="M166.529 147.05H160.119V153.46H166.529V147.05Z" fill="#B28A0D"/>
<path d="M166.529 140.7H160.119V147.05H166.529V140.7Z" fill="#CFAA18"/>
<path d="M166.529 134.28H160.119V140.69H166.529V134.28Z" fill="#CFAA18"/>
<path d="M166.529 127.94H160.119V134.29H166.529V127.94Z" fill="#CFAA18"/>
<path d="M166.529 121.52H160.119V127.93H166.529V121.52Z" fill="#CFAA18"/>
<path d="M166.529 115.18H160.119V121.53H166.529V115.18Z" fill="#B28A0D"/>
<path d="M166.529 108.76H160.119V115.17H166.529V108.76Z" fill="#B28A0D"/>
<path d="M166.529 102.42H160.119V108.77H166.529V102.42Z" fill="#CFAA18"/>
<path d="M166.529 96H160.119V102.41H166.529V96Z" fill="#CFAA18"/>
<path d="M166.529 89.5898H160.119V95.9998H166.529V89.5898Z" fill="#B28A0D"/>
<path d="M166.529 83.2402H160.119V89.5902H166.529V83.2402Z" fill="#CFAA18"/>
<path d="M166.529 76.8301H160.119V83.2401H166.529V76.8301Z" fill="#CFAA18"/>
<path d="M166.529 70.48H160.119V76.83H166.529V70.48Z" fill="#CFAA18"/>
<path d="M166.529 64.0698H160.119V70.4798H166.529V64.0698Z" fill="#CE8A57"/>
<path d="M166.529 57.7202H160.119V64.0702H166.529V57.7202Z" fill="#E2A066"/>
<path d="M166.529 44.8999H160.119V51.3099H166.529V44.8999Z" fill="#091442"/>
<path d="M166.529 38.5498H160.119V44.8998H166.529V38.5498Z" fill="#091442"/>
<path d="M166.529 32.1401H160.119V38.5501H166.529V32.1401Z" fill="#091442"/>
<path d="M166.529 25.79H160.119V32.14H166.529V25.79Z" fill="#091442"/>
<path d="M160.12 166.22H153.77V172.63H160.12V166.22Z" fill="#CFAA18"/>
<path d="M160.12 159.87H153.77V166.22H160.12V159.87Z" fill="#CFAA18"/>
<path d="M160.12 153.46H153.77V159.87H160.12V153.46Z" fill="#CFAA18"/>
<path d="M160.12 147.05H153.77V153.46H160.12V147.05Z" fill="#CFAA18"/>
<path d="M160.12 140.7H153.77V147.05H160.12V140.7Z" fill="#CFAA18"/>
<path d="M160.12 134.28H153.77V140.69H160.12V134.28Z" fill="#B28A0D"/>
<path d="M160.12 127.94H153.77V134.29H160.12V127.94Z" fill="#CFAA18"/>
<path d="M160.12 121.52H153.77V127.93H160.12V121.52Z" fill="#CFAA18"/>
<path d="M160.12 115.18H153.77V121.53H160.12V115.18Z" fill="#CFAA18"/>
<path d="M160.12 108.76H153.77V115.17H160.12V108.76Z" fill="#B28A0D"/>
<path d="M160.12 102.42H153.77V108.77H160.12V102.42Z" fill="#CFAA18"/>
<path d="M160.12 96H153.77V102.41H160.12V96Z" fill="#CFAA18"/>
<path d="M160.12 89.5898H153.77V95.9998H160.12V89.5898Z" fill="#B28A0D"/>
<path d="M160.12 83.2402H153.77V89.5902H160.12V83.2402Z" fill="#CFAA18"/>
<path d="M160.12 76.8301H153.77V83.2401H160.12V76.8301Z" fill="#CFAA18"/>
<path d="M160.12 70.48H153.77V76.83H160.12V70.48Z" fill="#FFC78F"/>
<path d="M160.12 64.0698H153.77V70.4798H160.12V64.0698Z" fill="#FFC78F"/>
<path d="M160.12 57.7202H153.77V64.0702H160.12V57.7202Z" fill="#E2A066"/>
<path d="M160.12 44.8999H153.77V51.3099H160.12V44.8999Z" fill="#2C2E3A"/>
<path d="M160.12 38.5498H153.77V44.8998H160.12V38.5498Z" fill="#101A54"/>
<path d="M160.12 32.1401H153.77V38.5501H160.12V32.1401Z" fill="#101A54"/>
<path d="M160.12 25.79H153.77V32.14H160.12V25.79Z" fill="#091442"/>
<path d="M153.769 217.32H147.359V223.67H153.769V217.32Z" fill="#7C6916"/>
<path d="M153.769 210.91H147.359V217.32H153.769V210.91Z" fill="#7C6916"/>
<path d="M153.769 204.56H147.359V210.91H153.769V204.56Z" fill="#7C6916"/>
<path d="M153.769 198.15H147.359V204.56H153.769V198.15Z" fill="#7C6916"/>
<path d="M153.769 185.38H147.359V191.73H153.769V185.38Z" fill="#7C6916"/>
<path d="M153.769 172.63H147.359V178.98H153.769V172.63Z" fill="#373370"/>
<path d="M153.769 147.05H147.359V153.46H153.769V147.05Z" fill="#CFAA18"/>
<path d="M153.769 140.7H147.359V147.05H153.769V140.7Z" fill="#CFAA18"/>
<path d="M153.769 134.28H147.359V140.69H153.769V134.28Z" fill="#B28A0D"/>
<path d="M153.769 127.94H147.359V134.29H153.769V127.94Z" fill="#B28A0D"/>
<path d="M153.769 121.52H147.359V127.93H153.769V121.52Z" fill="#B28A0D"/>
<path d="M153.769 115.18H147.359V121.53H153.769V115.18Z" fill="#CFAA18"/>
<path d="M153.769 108.76H147.359V115.17H153.769V108.76Z" fill="#CFAA18"/>
<path d="M153.769 102.42H147.359V108.77H153.769V102.42Z" fill="#B28A0D"/>
<path d="M153.769 96H147.359V102.41H153.769V96Z" fill="#CFAA18"/>
<path d="M153.769 89.5898H147.359V95.9998H153.769V89.5898Z" fill="#CFAA18"/>
<path d="M153.769 83.2402H147.359V89.5902H153.769V83.2402Z" fill="#B28A0D"/>
<path d="M153.769 76.8301H147.359V83.2401H153.769V76.8301Z" fill="#CFAA18"/>
<path d="M153.769 70.48H147.359V76.83H153.769V70.48Z" fill="#FFC78F"/>
<path d="M153.769 64.0698H147.359V70.4798H153.769V64.0698Z" fill="#FFC78F"/>
<path d="M153.769 57.7202H147.359V64.0702H153.769V57.7202Z" fill="#E2A066"/>
<path d="M153.769 44.8999H147.359V51.3099H153.769V44.8999Z" fill="#101A54"/>
<path d="M153.769 38.5498H147.359V44.8998H153.769V38.5498Z" fill="#101A54"/>
<path d="M153.769 32.1401H147.359V38.5501H153.769V32.1401Z" fill="#101A54"/>
<path d="M153.769 25.79H147.359V32.14H153.769V25.79Z" fill="#101A54"/>
<path d="M147.359 217.32H140.949V223.67H147.359V217.32Z" fill="#A18824"/>
<path d="M147.359 210.91H140.949V217.32H147.359V210.91Z" fill="#7C6916"/>
<path d="M147.359 204.56H140.949V210.91H147.359V204.56Z" fill="#7C6916"/>
<path d="M147.359 198.15H140.949V204.56H147.359V198.15Z" fill="#7C6916"/>
<path d="M147.359 185.38H140.949V191.73H147.359V185.38Z" fill="#7C6916"/>
<path d="M147.359 172.63H140.949V178.98H147.359V172.63Z" fill="#373370"/>
<path d="M147.359 166.22H140.949V172.63H147.359V166.22Z" fill="#373370"/>
<path d="M147.359 159.87H140.949V166.22H147.359V159.87Z" fill="#373370"/>
<path d="M147.359 153.46H140.949V159.87H147.359V153.46Z" fill="#373370"/>
<path d="M147.359 140.7H140.949V147.05H147.359V140.7Z" fill="#CFAA18"/>
<path d="M147.359 134.28H140.949V140.69H147.359V134.28Z" fill="#CFAA18"/>
<path d="M147.359 127.94H140.949V134.29H147.359V127.94Z" fill="#CFAA18"/>
<path d="M147.359 121.52H140.949V127.93H147.359V121.52Z" fill="#B28A0D"/>
<path d="M147.359 115.18H140.949V121.53H147.359V115.18Z" fill="#CFAA18"/>
<path d="M147.359 108.76H140.949V115.17H147.359V108.76Z" fill="#CFAA18"/>
<path d="M147.359 102.42H140.949V108.77H147.359V102.42Z" fill="#CFAA18"/>
<path d="M147.359 96H140.949V102.41H147.359V96Z" fill="#CFAA18"/>
<path d="M147.359 89.5898H140.949V95.9998H147.359V89.5898Z" fill="#B28A0D"/>
<path d="M147.359 83.2402H140.949V89.5902H147.359V83.2402Z" fill="#CFAA18"/>
<path d="M147.359 76.8301H140.949V83.2401H147.359V76.8301Z" fill="#CFAA18"/>
<path d="M147.359 70.48H140.949V76.83H147.359V70.48Z" fill="#FFC78F"/>
<path d="M147.359 64.0698H140.949V70.4798H147.359V64.0698Z" fill="#FFC78F"/>
<path d="M147.359 57.7202H140.949V64.0702H147.359V57.7202Z" fill="#E2A066"/>
<path d="M147.359 44.8999H140.949V51.3099H147.359V44.8999Z" fill="#2C2E3A"/>
<path d="M147.359 38.5498H140.949V44.8998H147.359V38.5498Z" fill="#101A54"/>
<path d="M147.359 32.1401H140.949V38.5501H147.359V32.1401Z" fill="#101A54"/>
<path d="M147.359 25.79H140.949V32.14H147.359V25.79Z" fill="#101A54"/>
<path d="M140.95 217.32H134.6V223.67H140.95V217.32Z" fill="#A18824"/>
<path d="M140.95 210.91H134.6V217.32H140.95V210.91Z" fill="#A18824"/>
<path d="M140.95 204.56H134.6V210.91H140.95V204.56Z" fill="#7C6916"/>
<path d="M140.95 198.15H134.6V204.56H140.95V198.15Z" fill="#7C6916"/>
<path d="M140.95 185.38H134.6V191.73H140.95V185.38Z" fill="#7C6916"/>
<path d="M140.95 172.63H134.6V178.98H140.95V172.63Z" fill="#453D7C"/>
<path d="M140.95 166.22H134.6V172.63H140.95V166.22Z" fill="#453D7C"/>
<path d="M140.95 159.87H134.6V166.22H140.95V159.87Z" fill="#453D7C"/>
<path d="M140.95 153.46H134.6V159.87H140.95V153.46Z" fill="#373370"/>
<path d="M140.95 147.05H134.6V153.46H140.95V147.05Z" fill="#373370"/>
<path d="M140.95 134.28H134.6V140.69H140.95V134.28Z" fill="#CFAA18"/>
<path d="M140.95 127.94H134.6V134.29H140.95V127.94Z" fill="#CFAA18"/>
<path d="M140.95 121.52H134.6V127.93H140.95V121.52Z" fill="#CFAA18"/>
<path d="M140.95 115.18H134.6V121.53H140.95V115.18Z" fill="#CFAA18"/>
<path d="M140.95 108.76H134.6V115.17H140.95V108.76Z" fill="#CFAA18"/>
<path d="M140.95 102.42H134.6V108.77H140.95V102.42Z" fill="#CFAA18"/>
<path d="M140.95 96H134.6V102.41H140.95V96Z" fill="#CFAA18"/>
<path d="M140.95 89.5898H134.6V95.9998H140.95V89.5898Z" fill="#B28A0D"/>
<path d="M140.95 83.2402H134.6V89.5902H140.95V83.2402Z" fill="#CFAA18"/>
<path d="M140.95 76.8301H134.6V83.2401H140.95V76.8301Z" fill="#CFAA18"/>
<path d="M140.95 70.48H134.6V76.83H140.95V70.48Z" fill="#FFC78F"/>
<path d="M140.95 64.0698H134.6V70.4798H140.95V64.0698Z" fill="#FFC78F"/>
<path d="M140.95 57.7202H134.6V64.0702H140.95V57.7202Z" fill="#E2A066"/>
<path d="M140.95 44.8999H134.6V51.3099H140.95V44.8999Z" fill="#101A54"/>
<path d="M140.95 38.5498H134.6V44.8998H140.95V38.5498Z" fill="#101A54"/>
<path d="M140.95 32.1401H134.6V38.5501H140.95V32.1401Z" fill="#101A54"/>
<path d="M140.95 25.79H134.6V32.14H140.95V25.79Z" fill="#101A54"/>
<path d="M134.59 217.32H128.18V223.67H134.59V217.32Z" fill="#A18824"/>
<path d="M134.59 210.91H128.18V217.32H134.59V210.91Z" fill="#A18824"/>
<path d="M134.59 204.56H128.18V210.91H134.59V204.56Z" fill="#A18824"/>
<path d="M134.59 198.15H128.18V204.56H134.59V198.15Z" fill="#A18824"/>
<path d="M134.59 185.38H128.18V191.73H134.59V185.38Z" fill="#7C6916"/>
<path d="M134.59 172.63H128.18V178.98H134.59V172.63Z" fill="#453D7C"/>
<path d="M134.59 166.22H128.18V172.63H134.59V166.22Z" fill="#453D7C"/>
<path d="M134.59 159.87H128.18V166.22H134.59V159.87Z" fill="#453D7C"/>
<path d="M134.59 153.46H128.18V159.87H134.59V153.46Z" fill="#453D7C"/>
<path d="M134.59 147.05H128.18V153.46H134.59V147.05Z" fill="#373370"/>
<path d="M134.59 134.28H128.18V140.69H134.59V134.28Z" fill="#CFAA18"/>
<path d="M134.59 127.94H128.18V134.29H134.59V127.94Z" fill="#CFAA18"/>
<path d="M134.59 121.52H128.18V127.93H134.59V121.52Z" fill="#CFAA18"/>
<path d="M134.59 115.18H128.18V121.53H134.59V115.18Z" fill="#B28A0D"/>
<path d="M134.59 108.76H128.18V115.17H134.59V108.76Z" fill="#B28A0D"/>
<path d="M134.59 102.42H128.18V108.77H134.59V102.42Z" fill="#B28A0D"/>
<path d="M134.59 96H128.18V102.41H134.59V96Z" fill="#B28A0D"/>
<path d="M134.59 89.5898H128.18V95.9998H134.59V89.5898Z" fill="#CFAA18"/>
<path d="M134.59 83.2402H128.18V89.5902H134.59V83.2402Z" fill="#B28A0D"/>
<path d="M134.59 76.8301H128.18V83.2401H134.59V76.8301Z" fill="#B28A0D"/>
<path d="M134.59 70.48H128.18V76.83H134.59V70.48Z" fill="#CFAA18"/>
<path d="M134.59 64.0698H128.18V70.4798H134.59V64.0698Z" fill="#FFC78F"/>
<path d="M134.59 57.7202H128.18V64.0702H134.59V57.7202Z" fill="#E2A066"/>
<path d="M134.59 44.8999H128.18V51.3099H134.59V44.8999Z" fill="#2C2E3A"/>
<path d="M134.59 38.5498H128.18V44.8998H134.59V38.5498Z" fill="#101A54"/>
<path d="M134.59 32.1401H128.18V38.5501H134.59V32.1401Z" fill="#101A54"/>
<path d="M134.59 19.3799H128.18V25.7899H134.59V19.3799Z" fill="black"/>
<path d="M128.179 217.32H121.829V223.67H128.179V217.32Z" fill="#A18824"/>
<path d="M128.179 210.91H121.829V217.32H128.179V210.91Z" fill="#A18824"/>
<path d="M128.179 185.38H121.829V191.73H128.179V185.38Z" fill="#A18824"/>
<path d="M128.179 140.7H121.829V147.05H128.179V140.7Z" fill="#CFAA18"/>
<path d="M128.179 134.28H121.829V140.69H128.179V134.28Z" fill="#CFAA18"/>
<path d="M128.179 127.94H121.829V134.29H128.179V127.94Z" fill="#CFAA18"/>
<path d="M128.179 121.52H121.829V127.93H128.179V121.52Z" fill="#B28A0D"/>
<path d="M128.179 115.18H121.829V121.53H128.179V115.18Z" fill="#B28A0D"/>
<path d="M128.179 108.76H121.829V115.17H128.179V108.76Z" fill="#CFAA18"/>
<path d="M128.179 102.42H121.829V108.77H128.179V102.42Z" fill="#CFAA18"/>
<path d="M128.179 96H121.829V102.41H128.179V96Z" fill="#B28A0D"/>
<path d="M128.179 89.5898H121.829V95.9998H128.179V89.5898Z" fill="#B28A0D"/>
<path d="M128.179 83.2402H121.829V89.5902H128.179V83.2402Z" fill="#CFAA18"/>
<path d="M128.179 76.8301H121.829V83.2401H128.179V76.8301Z" fill="#CFAA18"/>
<path d="M128.179 70.48H121.829V76.83H128.179V70.48Z" fill="#CFAA18"/>
<path d="M128.179 64.0698H121.829V70.4798H128.179V64.0698Z" fill="#CFAA18"/>
<path d="M128.179 51.3101H121.829V57.7201H128.179V51.3101Z" fill="#2C2E3A"/>
<path d="M128.179 44.8999H121.829V51.3099H128.179V44.8999Z" fill="#101A54"/>
<path d="M128.179 38.5498H121.829V44.8998H128.179V38.5498Z" fill="#101A54"/>
<path d="M128.179 25.79H121.829V32.14H128.179V25.79Z" fill="#CFAA18"/>
<path d="M128.179 19.3799H121.829V25.7899H128.179V19.3799Z" fill="#CFAA18"/>
<path d="M128.179 13.0298H121.829V19.3798H128.179V13.0298Z" fill="black"/>
<path d="M121.83 217.32H115.42V223.67H121.83V217.32Z" fill="#A18824"/>
<path d="M121.83 210.91H115.42V217.32H121.83V210.91Z" fill="#A18824"/>
<path d="M121.83 147.05H115.42V153.46H121.83V147.05Z" fill="#CFAA18"/>
<path d="M121.83 140.7H115.42V147.05H121.83V140.7Z" fill="#CFAA18"/>
<path d="M121.83 121.52H115.42V127.93H121.83V121.52Z" fill="#CFAA18"/>
<path d="M121.83 115.18H115.42V121.53H121.83V115.18Z" fill="#CFAA18"/>
<path d="M121.83 108.76H115.42V115.17H121.83V108.76Z" fill="#CFAA18"/>
<path d="M121.83 102.42H115.42V108.77H121.83V102.42Z" fill="#CFAA18"/>
<path d="M121.83 96H115.42V102.41H121.83V96Z" fill="#CFAA18"/>
<path d="M121.83 89.5898H115.42V95.9998H121.83V89.5898Z" fill="#A18824"/>
<path d="M121.83 83.2402H115.42V89.5902H121.83V83.2402Z" fill="#CFAA18"/>
<path d="M121.83 32.1401H115.42V38.5501H121.83V32.1401Z" fill="black"/>
<path d="M121.83 25.79H115.42V32.14H121.83V25.79Z" fill="black"/>
<path d="M121.83 19.3799H115.42V25.7899H121.83V19.3799Z" fill="#CFAA18"/>
<path d="M121.83 13.0298H115.42V19.3798H121.83V13.0298Z" fill="#CFAA18"/>
<path d="M121.83 6.62012H115.42V13.0301H121.83V6.62012Z" fill="black"/>
<path d="M115.419 217.32H109.069V223.67H115.419V217.32Z" fill="#A18824"/>
<path d="M115.419 210.91H109.069V217.32H115.419V210.91Z" fill="#A18824"/>
<path d="M115.419 76.8301H109.069V83.2401H115.419V76.8301Z" fill="#373370"/>
<path d="M115.419 70.48H109.069V76.83H115.419V70.48Z" fill="#373370"/>
<path d="M115.419 25.79H109.069V32.14H115.419V25.79Z" fill="black"/>
<path d="M115.419 19.3799H109.069V25.7899H115.419V19.3799Z" fill="black"/>
<path d="M115.419 13.0298H109.069V19.3798H115.419V13.0298Z" fill="black"/>
<path d="M115.419 6.62012H109.069V13.0301H115.419V6.62012Z" fill="black"/>
<path d="M115.419 0.27002H109.069V6.62003H115.419V0.27002Z" fill="black"/>
<path d="M109.069 102.42H102.659V108.77H109.069V102.42Z" fill="#373370"/>
<path d="M109.069 96H102.659V102.41H109.069V96Z" fill="#373370"/>
<path d="M109.069 89.5898H102.659V95.9998H109.069V89.5898Z" fill="#373370"/>
<path d="M109.069 83.2402H102.659V89.5902H109.069V83.2402Z" fill="#373370"/>
<path d="M109.069 76.8301H102.659V83.2401H109.069V76.8301Z" fill="#373370"/>
<path d="M102.66 108.76H96.3096V115.17H102.66V108.76Z" fill="#373370"/>
<path d="M102.66 102.42H96.3096V108.77H102.66V102.42Z" fill="#373370"/>
<path d="M102.66 96H96.3096V102.41H102.66V96Z" fill="#373370"/>
<path d="M102.66 89.5898H96.3096V95.9998H102.66V89.5898Z" fill="#373370"/>
<path d="M102.66 83.2402H96.3096V89.5902H102.66V83.2402Z" fill="#373370"/>
<path d="M96.3094 108.76H89.8994V115.17H96.3094V108.76Z" fill="#373370"/>
<path d="M96.3094 102.42H89.8994V108.77H96.3094V102.42Z" fill="#373370"/>
<path d="M89.8992 115.18H83.4893V121.53H89.8992V115.18Z" fill="#373370"/>
<path d="M89.8992 108.76H83.4893V115.17H89.8992V108.76Z" fill="#373370"/>
<path d="M89.8992 102.42H83.4893V108.77H89.8992V102.42Z" fill="#373370"/>
<path d="M89.8992 70.48H83.4893V76.83H89.8992V70.48Z" fill="#5C5C7A"/>
<path d="M89.8992 64.0698H83.4893V70.4798H89.8992V64.0698Z" fill="#5C5C7A"/>
<path d="M89.8992 57.7202H83.4893V64.0702H89.8992V57.7202Z" fill="#5C5C7A"/>
<path d="M89.8992 51.3101H83.4893V57.7201H89.8992V51.3101Z" fill="#5C5C7A"/>
<path d="M89.8992 44.8999H83.4893V51.3099H89.8992V44.8999Z" fill="#5C5C7A"/>
<path d="M89.8992 38.5498H83.4893V44.8998H89.8992V38.5498Z" fill="#5C5C7A"/>
<path d="M83.4897 115.18H77.1396V121.53H83.4897V115.18Z" fill="#373370"/>
<path d="M83.4897 108.76H77.1396V115.17H83.4897V108.76Z" fill="#373370"/>
<path d="M83.4897 64.0698H77.1396V70.4798H83.4897V64.0698Z" fill="#727296"/>
<path d="M83.4897 57.7202H77.1396V64.0702H83.4897V57.7202Z" fill="#727296"/>
<path d="M83.4897 51.3101H77.1396V57.7201H83.4897V51.3101Z" fill="#727296"/>
<path d="M83.4897 44.8999H77.1396V51.3099H83.4897V44.8999Z" fill="#727296"/>
<path d="M77.1395 121.52H70.7295V127.93H77.1395V121.52Z" fill="#242D63"/>
<path d="M77.1395 115.18H70.7295V121.53H77.1395V115.18Z" fill="#242D63"/>
<path d="M77.1395 57.7202H70.7295V64.0702H77.1395V57.7202Z" fill="#727296"/>
<path d="M77.1395 51.3101H70.7295V57.7201H77.1395V51.3101Z" fill="#727296"/>
<path d="M70.7299 178.98H64.3799V185.39H70.7299V178.98Z" fill="#5C5C7A"/>
<path d="M70.7299 172.63H64.3799V178.98H70.7299V172.63Z" fill="#5C5C7A"/>
<path d="M70.7299 127.94H64.3799V134.29H70.7299V127.94Z" fill="#E2A066"/>
<path d="M70.7299 121.52H64.3799V127.93H70.7299V121.52Z" fill="#E2A066"/>
<path d="M70.7299 115.18H64.3799V121.53H70.7299V115.18Z" fill="#E2A066"/>
<path d="M70.7299 108.76H64.3799V115.17H70.7299V108.76Z" fill="#E2A066"/>
<path d="M70.7299 25.79H64.3799V32.14H70.7299V25.79Z" fill="#5C5C7A"/>
<path d="M64.3797 185.38H57.9697V191.73H64.3797V185.38Z" fill="#727296"/>
<path d="M64.3797 178.98H57.9697V185.39H64.3797V178.98Z" fill="#727296"/>
<path d="M64.3797 172.63H57.9697V178.98H64.3797V172.63Z" fill="#5C5C7A"/>
<path d="M64.3797 166.22H57.9697V172.63H64.3797V166.22Z" fill="#773725"/>
<path d="M64.3797 159.87H57.9697V166.22H64.3797V159.87Z" fill="#773725"/>
<path d="M64.3797 153.46H57.9697V159.87H64.3797V153.46Z" fill="#773725"/>
<path d="M64.3797 147.05H57.9697V153.46H64.3797V147.05Z" fill="#773725"/>
<path d="M64.3797 140.7H57.9697V147.05H64.3797V140.7Z" fill="#773725"/>
<path d="M64.3797 127.94H57.9697V134.29H64.3797V127.94Z" fill="#E2A066"/>
<path d="M64.3797 121.52H57.9697V127.93H64.3797V121.52Z" fill="#E2A066"/>
<path d="M64.3797 115.18H57.9697V121.53H64.3797V115.18Z" fill="#E2A066"/>
<path d="M64.3797 108.76H57.9697V115.17H64.3797V108.76Z" fill="#E2A066"/>
<path d="M64.3797 102.42H57.9697V108.77H64.3797V102.42Z" fill="#E2A066"/>
<path d="M64.3797 89.5898H57.9697V95.9998H64.3797V89.5898Z" fill="#773725"/>
<path d="M64.3797 83.2402H57.9697V89.5902H64.3797V83.2402Z" fill="#773725"/>
<path d="M64.3797 76.8301H57.9697V83.2401H64.3797V76.8301Z" fill="#773725"/>
<path d="M64.3797 70.48H57.9697V76.83H64.3797V70.48Z" fill="#773725"/>
<path d="M64.3797 64.0698H57.9697V70.4798H64.3797V64.0698Z" fill="#773725"/>
<path d="M64.3797 57.7202H57.9697V64.0702H64.3797V57.7202Z" fill="#773725"/>
<path d="M64.3797 51.3101H57.9697V57.7201H64.3797V51.3101Z" fill="#773725"/>
<path d="M64.3797 44.8999H57.9697V51.3099H64.3797V44.8999Z" fill="#773725"/>
<path d="M64.3797 38.5498H57.9697V44.8998H64.3797V38.5498Z" fill="#773725"/>
<path d="M64.3797 32.1401H57.9697V38.5501H64.3797V32.1401Z" fill="#773725"/>
<path d="M64.3797 25.79H57.9697V32.14H64.3797V25.79Z" fill="#5C5C7A"/>
<path d="M57.9691 178.98H51.6191V185.39H57.9691V178.98Z" fill="#727296"/>
<path d="M57.9691 172.63H51.6191V178.98H57.9691V172.63Z" fill="#727296"/>
<path d="M57.9691 127.94H51.6191V134.29H57.9691V127.94Z" fill="#E2A066"/>
<path d="M57.9691 121.52H51.6191V127.93H57.9691V121.52Z" fill="#E2A066"/>
<path d="M57.9691 115.18H51.6191V121.53H57.9691V115.18Z" fill="#E2A066"/>
<path d="M57.9691 108.76H51.6191V115.17H57.9691V108.76Z" fill="#E2A066"/>
<path d="M57.9691 102.42H51.6191V108.77H57.9691V102.42Z" fill="#E2A066"/>
<path d="M57.9691 25.79H51.6191V32.14H57.9691V25.79Z" fill="#727296"/>
<path d="M51.62 57.7202H45.21V64.0702H51.62V57.7202Z" fill="#5C5C7A"/>
<path d="M51.62 51.3101H45.21V57.7201H51.62V51.3101Z" fill="#5C5C7A"/>
<path d="M45.2098 57.7202H38.7998V64.0702H45.2098V57.7202Z" fill="#5C5C7A"/>
<path d="M45.2098 51.3101H38.7998V57.7201H45.2098V51.3101Z" fill="#5C5C7A"/>
<path d="M38.7992 64.0698H32.4492V70.4798H38.7992V64.0698Z" fill="#5C5C7A"/>
<path d="M38.7992 57.7202H32.4492V64.0702H38.7992V57.7202Z" fill="#5C5C7A"/>
<path d="M38.7992 51.3101H32.4492V57.7201H38.7992V51.3101Z" fill="#5C5C7A"/>
<path d="M38.7992 44.8999H32.4492V51.3099H38.7992V44.8999Z" fill="#5C5C7A"/>
<path d="M32.4491 70.48H26.0391V76.83H32.4491V70.48Z" fill="#5C5C7A"/>
<path d="M32.4491 64.0698H26.0391V70.4798H32.4491V64.0698Z" fill="#5C5C7A"/>
<path d="M32.4491 57.7202H26.0391V64.0702H32.4491V57.7202Z" fill="#5C5C7A"/>
<path d="M32.4491 51.3101H26.0391V57.7201H32.4491V51.3101Z" fill="#5C5C7A"/>
<path d="M32.4491 44.8999H26.0391V51.3099H32.4491V44.8999Z" fill="#5C5C7A"/>
<path d="M32.4491 38.5498H26.0391V44.8998H32.4491V38.5498Z" fill="#5C5C7A"/>
<path d="M26.0395 89.5898H19.6895V95.9998H26.0395V89.5898Z" fill="black"/>
<path d="M26.0395 83.2402H19.6895V89.5902H26.0395V83.2402Z" fill="#727296"/>
<path d="M26.0395 76.8301H19.6895V83.2401H26.0395V76.8301Z" fill="#727296"/>
<path d="M26.0395 70.48H19.6895V76.83H26.0395V70.48Z" fill="#727296"/>
<path d="M26.0395 64.0698H19.6895V70.4798H26.0395V64.0698Z" fill="#5C5C7A"/>
<path d="M26.0395 57.7202H19.6895V64.0702H26.0395V57.7202Z" fill="#5C5C7A"/>
<path d="M26.0395 51.3101H19.6895V57.7201H26.0395V51.3101Z" fill="#5C5C7A"/>
<path d="M26.0395 44.8999H19.6895V51.3099H26.0395V44.8999Z" fill="#5C5C7A"/>
<path d="M26.0395 38.5498H19.6895V44.8998H26.0395V38.5498Z" fill="#727296"/>
<path d="M26.0395 32.1401H19.6895V38.5501H26.0395V32.1401Z" fill="#727296"/>
<path d="M26.0395 25.79H19.6895V32.14H26.0395V25.79Z" fill="#727296"/>
<path d="M26.0395 19.3799H19.6895V25.7899H26.0395V19.3799Z" fill="black"/>
<path d="M19.6893 83.2402H13.2793V89.5902H19.6893V83.2402Z" fill="black"/>
<path d="M19.6893 76.8301H13.2793V83.2401H19.6893V76.8301Z" fill="#727296"/>
<path d="M19.6893 70.48H13.2793V76.83H19.6893V70.48Z" fill="#727296"/>
<path d="M19.6893 64.0698H13.2793V70.4798H19.6893V64.0698Z" fill="#727296"/>
<path d="M19.6893 57.7202H13.2793V64.0702H19.6893V57.7202Z" fill="#727296"/>
<path d="M19.6893 51.3101H13.2793V57.7201H19.6893V51.3101Z" fill="#727296"/>
<path d="M19.6893 44.8999H13.2793V51.3099H19.6893V44.8999Z" fill="#727296"/>
<path d="M19.6893 38.5498H13.2793V44.8998H19.6893V38.5498Z" fill="#727296"/>
<path d="M19.6893 32.1401H13.2793V38.5501H19.6893V32.1401Z" fill="#727296"/>
<path d="M19.6893 25.79H13.2793V32.14H19.6893V25.79Z" fill="black"/>
<path d="M13.2797 76.8301H6.92969V83.2401H13.2797V76.8301Z" fill="black"/>
<path d="M13.2797 70.48H6.92969V76.83H13.2797V70.48Z" fill="#727296"/>
<path d="M13.2797 64.0698H6.92969V70.4798H13.2797V64.0698Z" fill="#727296"/>
<path d="M13.2797 57.7202H6.92969V64.0702H13.2797V57.7202Z" fill="#727296"/>
<path d="M13.2797 51.3101H6.92969V57.7201H13.2797V51.3101Z" fill="#727296"/>
<path d="M13.2797 44.8999H6.92969V51.3099H13.2797V44.8999Z" fill="#727296"/>
<path d="M13.2797 38.5498H6.92969V44.8998H13.2797V38.5498Z" fill="#727296"/>
<path d="M13.2797 32.1401H6.92969V38.5501H13.2797V32.1401Z" fill="black"/>
<path d="M6.92953 70.48H0.519531V76.83H6.92953V70.48Z" fill="black"/>
<path d="M6.92953 64.0698H0.519531V70.4798H6.92953V64.0698Z" fill="black"/>
<path d="M6.92953 57.7202H0.519531V64.0702H6.92953V57.7202Z" fill="black"/>
<path d="M6.92953 51.3101H0.519531V57.7201H6.92953V51.3101Z" fill="black"/>
<path d="M6.92953 44.8999H0.519531V51.3099H6.92953V44.8999Z" fill="black"/>
<path d="M6.92953 38.5498H0.519531V44.8998H6.92953V38.5498Z" fill="black"/>
</svg>
