<svg width="96" height="96" viewBox="0 0 96 96" fill="none" xmlns="http://www.w3.org/2000/svg">
<path d="M20 16L35.03 44.67" stroke="#FF3864" stroke-width="2"/>
<path d="M30.2804 61.33L22.6504 37.53L27.4004 20.87C31.2004 7.54 45.4804 7.99999 45.4804 7.99999L22.6804 88" stroke="#FF3864" stroke-width="2"/>
<path d="M24.58 81.33C27.43 71.33 16 60.87 16 60.87L20.75 44.2L30.28 61.33" stroke="#FF3864" stroke-width="2"/>
<path d="M30.2803 61.33L47.4203 51.8" stroke="#FF3864" stroke-width="2"/>
<path d="M33.1301 51.33L50.2701 41.8L42.6701 68.47C42.6701 68.47 27.4301 71.33 24.5801 81.33" stroke="#FF3864" stroke-width="2"/>
<path d="M43.5799 14.67C43.5799 14.67 56.9099 18.47 54.0699 28.47L52.1699 35.13L33.1699 51.33" stroke="#FF3864" stroke-width="2"/>
<path d="M30.2804 61.33L20.8604 66.58" stroke="#FF3864" stroke-width="2"/>
<path d="M84 46.34V44H60V46.34C60.0004 46.8654 59.8973 47.3858 59.6965 47.8714C59.4958 48.357 59.2013 48.7982 58.83 49.17L57.17 50.83C56.7987 51.2018 56.5042 51.643 56.3035 52.1286C56.1027 52.6142 55.9996 53.1346 56 53.66V68C56 69.0609 56.4214 70.0783 57.1716 70.8284C57.9217 71.5786 58.9391 72 60 72H84C85.0609 72 86.0783 71.5786 86.8284 70.8284C87.5786 70.0783 88 69.0609 88 68V53.66C88.0004 53.1346 87.8973 52.6142 87.6966 52.1286C87.4958 51.643 87.2013 51.2018 86.83 50.83L85.17 49.17C84.7987 48.7982 84.5042 48.357 84.3035 47.8714C84.1027 47.3858 83.9996 46.8654 84 46.34V46.34Z" stroke="#FF3864" stroke-width="2"/>
<path d="M86 36H58C56.8954 36 56 36.8954 56 38V42C56 43.1046 56.8954 44 58 44H86C87.1046 44 88 43.1046 88 42V38C88 36.8954 87.1046 36 86 36Z" stroke="#FF3864" stroke-width="2"/>
<path d="M80 36V30H64V36" stroke="#FF3864" stroke-width="2"/>
<path d="M56 64H48" stroke="#FF3864" stroke-width="2"/>
<path d="M20 76L8 88H64L80 72" stroke="#FF3864" stroke-width="2"/>
<path d="M47.53 29.52C49.2034 29.52 50.56 28.1634 50.56 26.49C50.56 24.8166 49.2034 23.46 47.53 23.46C45.8566 23.46 44.5 24.8166 44.5 26.49C44.5 28.1634 45.8566 29.52 47.53 29.52Z" stroke="#FF3864" stroke-width="2"/>
<path d="M36 84L44 76" stroke="#FF3864" stroke-width="2"/>
<path d="M44 84L48 80" stroke="#FF3864" stroke-width="2"/>
<path d="M52 84L56 80" stroke="#FF3864" stroke-width="2"/>
<path d="M72 88L84 76" stroke="#FF3864" stroke-width="2"/>
<path d="M80 88L88 80" stroke="#FF3864" stroke-width="2"/>
<path d="M80 50L64 66" stroke="#FF3864" stroke-width="2"/>
<path d="M80 66L64 50" stroke="#FF3864" stroke-width="2"/>
<path d="M78 58C78 59.5913 77.3679 61.1174 76.2426 62.2426C75.1174 63.3679 73.5913 64 72 64C70.4087 64 68.8826 63.3679 67.7574 62.2426C66.6321 61.1174 66 59.5913 66 58" stroke="#FF3864" stroke-width="2"/>
</svg>
