<svg width="96" height="96" viewBox="0 0 96 96" fill="none" xmlns="http://www.w3.org/2000/svg">
<path d="M8 68H16V60H22.58" stroke="#FF3864" stroke-width="2"/>
<path d="M40 84V76H48V68" stroke="#FF3864" stroke-width="2"/>
<path d="M87.9999 68H79.9999V60H73.4199" stroke="#FF3864" stroke-width="2"/>
<path d="M72 88C76.4183 88 80 84.4183 80 80C80 75.5817 76.4183 72 72 72C67.5817 72 64 75.5817 64 80C64 84.4183 67.5817 88 72 88Z" stroke="#FF3864" stroke-width="2"/>
<path d="M72 83C73.6569 83 75 81.6569 75 80C75 78.3431 73.6569 77 72 77C70.3431 77 69 78.3431 69 80C69 81.6569 70.3431 83 72 83Z" stroke="#FF3864" stroke-width="2"/>
<path d="M66.3398 74.34L58.7598 66.76" stroke="#FF3864" stroke-width="2"/>
<path d="M32 80C32 78.4178 31.5308 76.871 30.6518 75.5554C29.7727 74.2398 28.5233 73.2145 27.0615 72.609C25.5997 72.0035 23.9911 71.845 22.4393 72.1537C20.8874 72.4624 19.462 73.2243 18.3431 74.3432C17.2243 75.462 16.4624 76.8874 16.1537 78.4393C15.845 79.9911 16.0035 81.5997 16.609 83.0615C17.2145 84.5233 18.2399 85.7727 19.5554 86.6518C20.871 87.5308 22.4178 88 24 88" stroke="#FF3864" stroke-width="2"/>
<path d="M29.6602 74.34L37.2402 66.76" stroke="#FF3864" stroke-width="2"/>
<path d="M87.9999 28H79.9999V36H73.4199" stroke="#FF3864" stroke-width="2"/>
<path d="M56 12V20H48V28" stroke="#FF3864" stroke-width="2"/>
<path d="M8 28H16V36H22.58" stroke="#FF3864" stroke-width="2"/>
<path d="M39.4103 61.5C37.1388 60.055 35.2687 58.0603 33.973 55.7005C32.6773 53.3407 31.998 50.6921 31.998 48C31.998 45.3079 32.6773 42.6593 33.973 40.2995C35.2687 37.9397 37.1388 35.945 39.4103 34.5" stroke="#FF3864" stroke-width="2"/>
<path d="M56.5898 34.5C58.8613 35.945 60.7315 37.9397 62.0271 40.2995C63.3228 42.6593 64.0021 45.3079 64.0021 48C64.0021 50.6921 63.3228 53.3407 62.0271 55.7005C60.7315 58.0603 58.8613 60.055 56.5898 61.5" stroke="#FF3864" stroke-width="2"/>
<path d="M48 62C67.8823 62 84 55.732 84 48C84 40.268 67.8823 34 48 34C28.1177 34 12 40.268 12 48C12 55.732 28.1177 62 48 62Z" stroke="#FF3864" stroke-width="2"/>
<path d="M48 68C67.8823 68 84 59.0457 84 48C84 36.9543 67.8823 28 48 28C28.1177 28 12 36.9543 12 48C12 59.0457 28.1177 68 48 68Z" stroke="#FF3864" stroke-width="2"/>
<path d="M24 24C28.4183 24 32 20.4183 32 16C32 11.5817 28.4183 8 24 8C19.5817 8 16 11.5817 16 16C16 20.4183 19.5817 24 24 24Z" stroke="#FF3864" stroke-width="2"/>
<path d="M24 19C25.6569 19 27 17.6569 27 16C27 14.3431 25.6569 13 24 13C22.3431 13 21 14.3431 21 16C21 17.6569 22.3431 19 24 19Z" stroke="#FF3864" stroke-width="2"/>
<path d="M29.6602 21.66L37.2402 29.24" stroke="#FF3864" stroke-width="2"/>
<path d="M64 16C64 17.5823 64.4692 19.129 65.3482 20.4446C66.2273 21.7602 67.4767 22.7855 68.9385 23.391C70.4003 23.9965 72.0089 24.155 73.5607 23.8463C75.1126 23.5376 76.538 22.7757 77.6569 21.6569C78.7757 20.538 79.5376 19.1126 79.8463 17.5607C80.155 16.0089 79.9965 14.4003 79.391 12.9385C78.7855 11.4767 77.7602 10.2273 76.4446 9.34824C75.129 8.46919 73.5823 8 72 8" stroke="#FF3864" stroke-width="2"/>
<path d="M66.3398 21.66L58.7598 29.24" stroke="#FF3864" stroke-width="2"/>
<path d="M47.2197 51.92L46.4297 55.84" stroke="#FF3864" stroke-width="2"/>
<path d="M48.7803 44.08L49.5703 40.16" stroke="#FF3864" stroke-width="2"/>
<path d="M44.0802 47.22L40.1602 46.43" stroke="#FF3864" stroke-width="2"/>
<path d="M51.9199 48.78L55.8399 49.57" stroke="#FF3864" stroke-width="2"/>
<path d="M44.6698 50.22L41.3398 52.44" stroke="#FF3864" stroke-width="2"/>
<path d="M51.3301 45.78L54.6601 43.56" stroke="#FF3864" stroke-width="2"/>
<path d="M45.7796 44.67L43.5596 41.34" stroke="#FF3864" stroke-width="2"/>
<path d="M50.2197 51.33L52.4397 54.66" stroke="#FF3864" stroke-width="2"/>
<path d="M24 77C24.5933 77 25.1734 77.1759 25.6667 77.5056C26.1601 77.8352 26.5446 78.3038 26.7716 78.852C26.9987 79.4001 27.0581 80.0033 26.9424 80.5853C26.8266 81.1672 26.5409 81.7018 26.1213 82.1213C25.7018 82.5409 25.1672 82.8266 24.5853 82.9424C24.0033 83.0581 23.4001 82.9987 22.8519 82.7716C22.3038 82.5446 21.8352 82.1601 21.5056 81.6667C21.1759 81.1734 21 80.5933 21 80" stroke="#FF3864" stroke-width="2"/>
<path d="M72 19C71.4067 19 70.8266 18.8241 70.3333 18.4944C69.8399 18.1648 69.4554 17.6962 69.2284 17.1481C69.0013 16.5999 68.9419 15.9967 69.0576 15.4147C69.1734 14.8328 69.4591 14.2982 69.8787 13.8787C70.2982 13.4591 70.8328 13.1734 71.4147 13.0576C71.9967 12.9419 72.5999 13.0013 73.148 13.2284C73.6962 13.4554 74.1648 13.8399 74.4944 14.3333C74.824 14.8266 75 15.4067 75 16" stroke="#FF3864" stroke-width="2"/>
</svg>
