<svg width="172" height="258" viewBox="0 0 172 258" fill="none" xmlns="http://www.w3.org/2000/svg">
<path d="M171.61 193.21H164.52V200.3H171.61V193.21Z" fill="black"/>
<path d="M171.61 186.04H164.52V193.2H171.61V186.04Z" fill="black"/>
<path d="M164.5 207.47H157.34V214.56H164.5V207.47Z" fill="black"/>
<path d="M164.5 200.31H157.34V207.47H164.5V200.31Z" fill="black"/>
<path d="M164.5 193.21H157.34V200.3H164.5V193.21Z" fill="#FF5290"/>
<path d="M164.5 186.04H157.34V193.2H164.5V186.04Z" fill="#FF5290"/>
<path d="M164.5 178.95H157.34V186.04H164.5V178.95Z" fill="black"/>
<path d="M157.34 214.57H150.18V221.73H157.34V214.57Z" fill="black"/>
<path d="M157.34 207.47H150.18V214.56H157.34V207.47Z" fill="#FF5290"/>
<path d="M157.34 200.31H150.18V207.47H157.34V200.31Z" fill="#FF5290"/>
<path d="M157.34 193.21H150.18V200.3H157.34V193.21Z" fill="#FF5290"/>
<path d="M157.34 186.04H150.18V193.2H157.34V186.04Z" fill="#FF5290"/>
<path d="M157.34 178.95H150.18V186.04H157.34V178.95Z" fill="black"/>
<path d="M150.18 214.57H143.09V221.73H150.18V214.57Z" fill="black"/>
<path d="M150.18 207.47H143.09V214.56H150.18V207.47Z" fill="#FF5290"/>
<path d="M150.18 200.31H143.09V207.47H150.18V200.31Z" fill="#FF5A8D"/>
<path d="M150.18 193.21H143.09V200.3H150.18V193.21Z" fill="#FF5A8D"/>
<path d="M150.18 186.04H143.09V193.2H150.18V186.04Z" fill="#FF5290"/>
<path d="M150.18 178.95H143.09V186.04H150.18V178.95Z" fill="black"/>
<path d="M150.18 50.4502H143.09V57.6102H150.18V50.4502Z" fill="black"/>
<path d="M150.18 36.1899H143.09V43.3499H150.18V36.1899Z" fill="black"/>
<path d="M143.08 221.73H135.92V228.89H143.08V221.73Z" fill="black"/>
<path d="M143.08 214.57H135.92V221.73H143.08V214.57Z" fill="#FF5290"/>
<path d="M143.08 207.47H135.92V214.56H143.08V207.47Z" fill="#FF5A8D"/>
<path d="M143.08 200.31H135.92V207.47H143.08V200.31Z" fill="#FF5A8D"/>
<path d="M143.08 193.21H135.92V200.3H143.08V193.21Z" fill="#FF5A8D"/>
<path d="M143.08 186.04H135.92V193.2H143.08V186.04Z" fill="#FF5290"/>
<path d="M143.08 178.95H135.92V186.04H143.08V178.95Z" fill="black"/>
<path d="M143.08 93.3101H135.92V100.4H143.08V93.3101Z" fill="black"/>
<path d="M143.08 86.1401H135.92V93.3001H143.08V86.1401Z" fill="black"/>
<path d="M143.08 57.6201H135.92V64.7801H143.08V57.6201Z" fill="black"/>
<path d="M143.08 50.4502H135.92V57.6102H143.08V50.4502Z" fill="#CCBE58"/>
<path d="M143.08 43.3599H135.92V50.4499H143.08V43.3599Z" fill="black"/>
<path d="M143.08 36.1899H135.92V43.3499H143.08V36.1899Z" fill="#CCBE58"/>
<path d="M143.08 29.1001H135.92V36.1901H143.08V29.1001Z" fill="black"/>
<path d="M135.91 236H128.82V243.16H135.91V236Z" fill="black"/>
<path d="M135.91 228.9H128.82V235.99H135.91V228.9Z" fill="black"/>
<path d="M135.91 221.73H128.82V228.89H135.91V221.73Z" fill="#FF5A8D"/>
<path d="M135.91 214.57H128.82V221.73H135.91V214.57Z" fill="#FF5A8D"/>
<path d="M135.91 207.47H128.82V214.56H135.91V207.47Z" fill="#FF5A8D"/>
<path d="M135.91 200.31H128.82V207.47H135.91V200.31Z" fill="#FF5A8D"/>
<path d="M135.91 193.21H128.82V200.3H135.91V193.21Z" fill="#FF5A8D"/>
<path d="M135.91 186.04H128.82V193.2H135.91V186.04Z" fill="#FF5A8D"/>
<path d="M135.91 178.95H128.82V186.04H135.91V178.95Z" fill="black"/>
<path d="M135.91 100.41H128.82V107.57H135.91V100.41Z" fill="black"/>
<path d="M135.91 93.3101H128.82V100.4H135.91V93.3101Z" fill="#FF5290"/>
<path d="M135.91 86.1401H128.82V93.3001H135.91V86.1401Z" fill="#FF5290"/>
<path d="M135.91 79.0498H128.82V86.1398H135.91V79.0498Z" fill="black"/>
<path d="M135.91 57.6201H128.82V64.7801H135.91V57.6201Z" fill="black"/>
<path d="M135.91 50.4502H128.82V57.6102H135.91V50.4502Z" fill="#CCBE58"/>
<path d="M135.91 43.3599H128.82V50.4499H135.91V43.3599Z" fill="#CCBB69"/>
<path d="M135.91 36.1899H128.82V43.3499H135.91V36.1899Z" fill="#CCBE58"/>
<path d="M135.91 29.1001H128.82V36.1901H135.91V29.1001Z" fill="#CCBE58"/>
<path d="M135.91 21.9302H128.82V29.0902H135.91V21.9302Z" fill="black"/>
<path d="M128.82 243.16H121.66V250.25H128.82V243.16Z" fill="black"/>
<path d="M128.82 236H121.66V243.16H128.82V236Z" fill="#FF5290"/>
<path d="M128.82 228.9H121.66V235.99H128.82V228.9Z" fill="#FF5290"/>
<path d="M128.82 221.73H121.66V228.89H128.82V221.73Z" fill="#FF5A8D"/>
<path d="M128.82 214.57H121.66V221.73H128.82V214.57Z" fill="#FF5A8D"/>
<path d="M128.82 207.47H121.66V214.56H128.82V207.47Z" fill="#FF5A8D"/>
<path d="M128.82 200.31H121.66V207.47H128.82V200.31Z" fill="#FF5A8D"/>
<path d="M128.82 193.21H121.66V200.3H128.82V193.21Z" fill="#FF5A8D"/>
<path d="M128.82 186.04H121.66V193.2H128.82V186.04Z" fill="#FF5A8D"/>
<path d="M128.82 178.95H121.66V186.04H128.82V178.95Z" fill="black"/>
<path d="M128.82 107.57H121.66V114.73H128.82V107.57Z" fill="black"/>
<path d="M128.82 100.41H121.66V107.57H128.82V100.41Z" fill="#FF5A8D"/>
<path d="M128.82 93.3101H121.66V100.4H128.82V93.3101Z" fill="#FF5A8D"/>
<path d="M128.82 86.1401H121.66V93.3001H128.82V86.1401Z" fill="#FF5290"/>
<path d="M128.82 79.0498H121.66V86.1398H128.82V79.0498Z" fill="black"/>
<path d="M128.82 64.7798H121.66V71.8698H128.82V64.7798Z" fill="black"/>
<path d="M128.82 57.6201H121.66V64.7801H128.82V57.6201Z" fill="#CCBE58"/>
<path d="M128.82 50.4502H121.66V57.6102H128.82V50.4502Z" fill="#DBD38B"/>
<path d="M128.82 43.3599H121.66V50.4499H128.82V43.3599Z" fill="#CCBB69"/>
<path d="M128.82 36.1899H121.66V43.3499H128.82V36.1899Z" fill="#CCBB69"/>
<path d="M128.82 29.1001H121.66V36.1901H128.82V29.1001Z" fill="#CCBE58"/>
<path d="M128.82 21.9302H121.66V29.0902H128.82V21.9302Z" fill="#CCBE58"/>
<path d="M128.82 14.8301H121.66V21.9201H128.82V14.8301Z" fill="black"/>
<path d="M121.651 243.16H114.561V250.25H121.651V243.16Z" fill="black"/>
<path d="M121.651 236H114.561V243.16H121.651V236Z" fill="#FF5290"/>
<path d="M121.651 228.9H114.561V235.99H121.651V228.9Z" fill="#FF749A"/>
<path d="M121.651 221.73H114.561V228.89H121.651V221.73Z" fill="#FF749A"/>
<path d="M121.651 214.57H114.561V221.73H121.651V214.57Z" fill="#FF5A8D"/>
<path d="M121.651 207.47H114.561V214.56H121.651V207.47Z" fill="#FF5A8D"/>
<path d="M121.651 200.31H114.561V207.47H121.651V200.31Z" fill="#FF5A8D"/>
<path d="M121.651 193.21H114.561V200.3H121.651V193.21Z" fill="#FF5A8D"/>
<path d="M121.651 186.04H114.561V193.2H121.651V186.04Z" fill="#FF5A8D"/>
<path d="M121.651 178.95H114.561V186.04H121.651V178.95Z" fill="black"/>
<path d="M121.651 107.57H114.561V114.73H121.651V107.57Z" fill="black"/>
<path d="M121.651 100.41H114.561V107.57H121.651V100.41Z" fill="#FF5A8D"/>
<path d="M121.651 93.3101H114.561V100.4H121.651V93.3101Z" fill="#FF749A"/>
<path d="M121.651 86.1401H114.561V93.3001H121.651V86.1401Z" fill="#FF5A8D"/>
<path d="M121.651 79.0498H114.561V86.1398H121.651V79.0498Z" fill="black"/>
<path d="M121.651 71.8799H114.561V79.0399H121.651V71.8799Z" fill="black"/>
<path d="M121.651 64.7798H114.561V71.8698H121.651V64.7798Z" fill="#CCBE58"/>
<path d="M121.651 57.6201H114.561V64.7801H121.651V57.6201Z" fill="#DBD38B"/>
<path d="M121.651 50.4502H114.561V57.6102H121.651V50.4502Z" fill="#DBD38B"/>
<path d="M121.651 43.3599H114.561V50.4499H121.651V43.3599Z" fill="#DBD38B"/>
<path d="M121.651 36.1899H114.561V43.3499H121.651V36.1899Z" fill="#CCBB69"/>
<path d="M121.651 29.1001H114.561V36.1901H121.651V29.1001Z" fill="#CCBB69"/>
<path d="M121.651 21.9302H114.561V29.0902H121.651V21.9302Z" fill="#CCBE58"/>
<path d="M121.651 14.8301H114.561V21.9201H121.651V14.8301Z" fill="black"/>
<path d="M114.56 243.16H107.4V250.25H114.56V243.16Z" fill="black"/>
<path d="M114.56 236H107.4V243.16H114.56V236Z" fill="#FF5A8D"/>
<path d="M114.56 228.9H107.4V235.99H114.56V228.9Z" fill="#FF749A"/>
<path d="M114.56 221.73H107.4V228.89H114.56V221.73Z" fill="#FF749A"/>
<path d="M114.56 214.57H107.4V221.73H114.56V214.57Z" fill="#FF749A"/>
<path d="M114.56 207.47H107.4V214.56H114.56V207.47Z" fill="#FF5A8D"/>
<path d="M114.56 200.31H107.4V207.47H114.56V200.31Z" fill="#FF5A8D"/>
<path d="M114.56 193.21H107.4V200.3H114.56V193.21Z" fill="#FF5A8D"/>
<path d="M114.56 186.04H107.4V193.2H114.56V186.04Z" fill="black"/>
<path d="M114.56 100.41H107.4V107.57H114.56V100.41Z" fill="black"/>
<path d="M114.56 93.3101H107.4V100.4H114.56V93.3101Z" fill="#FF749A"/>
<path d="M114.56 86.1401H107.4V93.3001H114.56V86.1401Z" fill="#FF5A8D"/>
<path d="M114.56 79.0498H107.4V86.1398H114.56V79.0498Z" fill="black"/>
<path d="M114.56 71.8799H107.4V79.0399H114.56V71.8799Z" fill="#FF5290"/>
<path d="M114.56 64.7798H107.4V71.8698H114.56V64.7798Z" fill="#FF5290"/>
<path d="M114.56 57.6201H107.4V64.7801H114.56V57.6201Z" fill="#DBD38B"/>
<path d="M114.56 50.4502H107.4V57.6102H114.56V50.4502Z" fill="#DBD38B"/>
<path d="M114.56 43.3599H107.4V50.4499H114.56V43.3599Z" fill="#DBD38B"/>
<path d="M114.56 36.1899H107.4V43.3499H114.56V36.1899Z" fill="#DBD38B"/>
<path d="M114.56 29.1001H107.4V36.1901H114.56V29.1001Z" fill="#CCBB69"/>
<path d="M114.56 21.9302H107.4V29.0902H114.56V21.9302Z" fill="#CCBE58"/>
<path d="M114.56 14.8301H107.4V21.9201H114.56V14.8301Z" fill="black"/>
<path d="M107.39 250.26H100.23V257.42H107.39V250.26Z" fill="black"/>
<path d="M107.39 243.16H100.23V250.25H107.39V243.16Z" fill="#FF5290"/>
<path d="M107.39 236H100.23V243.16H107.39V236Z" fill="#FF749A"/>
<path d="M107.39 228.9H100.23V235.99H107.39V228.9Z" fill="#FF749A"/>
<path d="M107.39 221.73H100.23V228.89H107.39V221.73Z" fill="#FF749A"/>
<path d="M107.39 214.57H100.23V221.73H107.39V214.57Z" fill="#FF749A"/>
<path d="M107.39 207.47H100.23V214.56H107.39V207.47Z" fill="#FF749A"/>
<path d="M107.39 200.31H100.23V207.47H107.39V200.31Z" fill="#FF5A8D"/>
<path d="M107.39 193.21H100.23V200.3H107.39V193.21Z" fill="black"/>
<path d="M107.39 107.57H100.23V114.73H107.39V107.57Z" fill="black"/>
<path d="M107.39 100.41H100.23V107.57H107.39V100.41Z" fill="#FF749A"/>
<path d="M107.39 93.3101H100.23V100.4H107.39V93.3101Z" fill="#FF749A"/>
<path d="M107.39 86.1401H100.23V93.3001H107.39V86.1401Z" fill="#FF749A"/>
<path d="M107.39 79.0498H100.23V86.1398H107.39V79.0498Z" fill="#FF5A8D"/>
<path d="M107.39 71.8799H100.23V79.0399H107.39V71.8799Z" fill="#FF5A8D"/>
<path d="M107.39 64.7798H100.23V71.8698H107.39V64.7798Z" fill="#FF5290"/>
<path d="M107.39 57.6201H100.23V64.7801H107.39V57.6201Z" fill="#DBD38B"/>
<path d="M107.39 50.4502H100.23V57.6102H107.39V50.4502Z" fill="#DBD38B"/>
<path d="M107.39 43.3599H100.23V50.4499H107.39V43.3599Z" fill="#DBD38B"/>
<path d="M107.39 36.1899H100.23V43.3499H107.39V36.1899Z" fill="#DBD38B"/>
<path d="M107.39 29.1001H100.23V36.1901H107.39V29.1001Z" fill="#CCBB69"/>
<path d="M107.39 21.9302H100.23V29.0902H107.39V21.9302Z" fill="#CCBE58"/>
<path d="M107.39 14.8301H100.23V21.9201H107.39V14.8301Z" fill="black"/>
<path d="M100.221 250.26H93.1309V257.42H100.221V250.26Z" fill="black"/>
<path d="M100.221 243.16H93.1309V250.25H100.221V243.16Z" fill="#FF5290"/>
<path d="M100.221 236H93.1309V243.16H100.221V236Z" fill="#FF749A"/>
<path d="M100.221 228.9H93.1309V235.99H100.221V228.9Z" fill="#FF749A"/>
<path d="M100.221 221.73H93.1309V228.89H100.221V221.73Z" fill="#FF749A"/>
<path d="M100.221 214.57H93.1309V221.73H100.221V214.57Z" fill="#FF749A"/>
<path d="M100.221 207.47H93.1309V214.56H100.221V207.47Z" fill="#FF749A"/>
<path d="M100.221 200.31H93.1309V207.47H100.221V200.31Z" fill="#FF5A8D"/>
<path d="M100.221 193.21H93.1309V200.3H100.221V193.21Z" fill="black"/>
<path d="M100.221 150.36H93.1309V157.52H100.221V150.36Z" fill="black"/>
<path d="M100.221 143.26H93.1309V150.35H100.221V143.26Z" fill="black"/>
<path d="M100.221 136.09H93.1309V143.25H100.221V136.09Z" fill="black"/>
<path d="M100.221 129H93.1309V136.09H100.221V129Z" fill="black"/>
<path d="M100.221 107.57H93.1309V114.73H100.221V107.57Z" fill="black"/>
<path d="M100.221 100.41H93.1309V107.57H100.221V100.41Z" fill="#FF749A"/>
<path d="M100.221 93.3101H93.1309V100.4H100.221V93.3101Z" fill="#FF749A"/>
<path d="M100.221 86.1401H93.1309V93.3001H100.221V86.1401Z" fill="#FF749A"/>
<path d="M100.221 79.0498H93.1309V86.1398H100.221V79.0498Z" fill="#FF749A"/>
<path d="M100.221 71.8799H93.1309V79.0399H100.221V71.8799Z" fill="#FF5A8D"/>
<path d="M100.221 64.7798H93.1309V71.8698H100.221V64.7798Z" fill="#FF5A8D"/>
<path d="M100.221 57.6201H93.1309V64.7801H100.221V57.6201Z" fill="#DBD38B"/>
<path d="M100.221 50.4502H93.1309V57.6102H100.221V50.4502Z" fill="#DBD38B"/>
<path d="M100.221 43.3599H93.1309V50.4499H100.221V43.3599Z" fill="#DBD38B"/>
<path d="M100.221 36.1899H93.1309V43.3499H100.221V36.1899Z" fill="#DBD38B"/>
<path d="M100.221 29.1001H93.1309V36.1901H100.221V29.1001Z" fill="#DBD38B"/>
<path d="M100.221 21.9302H93.1309V29.0902H100.221V21.9302Z" fill="#CCBB69"/>
<path d="M100.221 14.8301H93.1309V21.9201H100.221V14.8301Z" fill="black"/>
<path d="M93.1307 250.26H85.9707V257.42H93.1307V250.26Z" fill="black"/>
<path d="M93.1307 243.16H85.9707V250.25H93.1307V243.16Z" fill="#FF5A8D"/>
<path d="M93.1307 236H85.9707V243.16H93.1307V236Z" fill="#FF749A"/>
<path d="M93.1307 228.9H85.9707V235.99H93.1307V228.9Z" fill="#FF749A"/>
<path d="M93.1307 221.73H85.9707V228.89H93.1307V221.73Z" fill="#FF749A"/>
<path d="M93.1307 214.57H85.9707V221.73H93.1307V214.57Z" fill="#FF749A"/>
<path d="M93.1307 207.47H85.9707V214.56H93.1307V207.47Z" fill="#FF749A"/>
<path d="M93.1307 200.31H85.9707V207.47H93.1307V200.31Z" fill="#FF5A8D"/>
<path d="M93.1307 193.21H85.9707V200.3H93.1307V193.21Z" fill="black"/>
<path d="M93.1307 186.04H85.9707V193.2H93.1307V186.04Z" fill="black"/>
<path d="M93.1307 178.95H85.9707V186.04H93.1307V178.95Z" fill="black"/>
<path d="M93.1307 171.79H85.9707V178.95H93.1307V171.79Z" fill="black"/>
<path d="M93.1307 164.61H85.9707V171.77H93.1307V164.61Z" fill="black"/>
<path d="M93.1307 157.52H85.9707V164.61H93.1307V157.52Z" fill="black"/>
<path d="M93.1307 150.36H85.9707V157.52H93.1307V150.36Z" fill="#FF5A8D"/>
<path d="M93.1307 143.26H85.9707V150.35H93.1307V143.26Z" fill="#FF5A8D"/>
<path d="M93.1307 136.09H85.9707V143.25H93.1307V136.09Z" fill="#FF5A8D"/>
<path d="M93.1307 129H85.9707V136.09H93.1307V129Z" fill="#FF5290"/>
<path d="M93.1307 121.84H85.9707V129H93.1307V121.84Z" fill="black"/>
<path d="M93.1307 114.73H85.9707V121.82H93.1307V114.73Z" fill="black"/>
<path d="M93.1307 107.57H85.9707V114.73H93.1307V107.57Z" fill="black"/>
<path d="M93.1307 100.41H85.9707V107.57H93.1307V100.41Z" fill="#FF749A"/>
<path d="M93.1307 93.3101H85.9707V100.4H93.1307V93.3101Z" fill="#FF749A"/>
<path d="M93.1307 86.1401H85.9707V93.3001H93.1307V86.1401Z" fill="#FF749A"/>
<path d="M93.1307 79.0498H85.9707V86.1398H93.1307V79.0498Z" fill="#FF5A8D"/>
<path d="M93.1307 71.8799H85.9707V79.0399H93.1307V71.8799Z" fill="#FF5A8D"/>
<path d="M93.1307 64.7798H85.9707V71.8698H93.1307V64.7798Z" fill="black"/>
<path d="M93.1307 57.6201H85.9707V64.7801H93.1307V57.6201Z" fill="black"/>
<path d="M93.1307 50.4502H85.9707V57.6102H93.1307V50.4502Z" fill="#EF997B"/>
<path d="M93.1307 43.3599H85.9707V50.4499H93.1307V43.3599Z" fill="#DBD38B"/>
<path d="M93.1307 36.1899H85.9707V43.3499H93.1307V36.1899Z" fill="#DBD38B"/>
<path d="M93.1307 29.1001H85.9707V36.1901H93.1307V29.1001Z" fill="#DBD38B"/>
<path d="M93.1307 21.9302H85.9707V29.0902H93.1307V21.9302Z" fill="#CCBB69"/>
<path d="M93.1307 14.8301H85.9707V21.9201H93.1307V14.8301Z" fill="black"/>
<path d="M85.9592 250.26H78.8691V257.42H85.9592V250.26Z" fill="black"/>
<path d="M85.9592 243.16H78.8691V250.25H85.9592V243.16Z" fill="#FF749A"/>
<path d="M85.9592 236H78.8691V243.16H85.9592V236Z" fill="#FF749A"/>
<path d="M85.9592 228.9H78.8691V235.99H85.9592V228.9Z" fill="#FF749A"/>
<path d="M85.9592 221.73H78.8691V228.89H85.9592V221.73Z" fill="#FF749A"/>
<path d="M85.9592 214.57H78.8691V221.73H85.9592V214.57Z" fill="#FF749A"/>
<path d="M85.9592 207.47H78.8691V214.56H85.9592V207.47Z" fill="#FF749A"/>
<path d="M85.9592 200.31H78.8691V207.47H85.9592V200.31Z" fill="#FF749A"/>
<path d="M85.9592 193.21H78.8691V200.3H85.9592V193.21Z" fill="#FF5A8D"/>
<path d="M85.9592 186.04H78.8691V193.2H85.9592V186.04Z" fill="#FF5A8D"/>
<path d="M85.9592 178.95H78.8691V186.04H85.9592V178.95Z" fill="#FF5A8D"/>
<path d="M85.9592 171.79H78.8691V178.95H85.9592V171.79Z" fill="#FF5A8D"/>
<path d="M85.9592 164.61H78.8691V171.77H85.9592V164.61Z" fill="#FF5A8D"/>
<path d="M85.9592 157.52H78.8691V164.61H85.9592V157.52Z" fill="#FF5A8D"/>
<path d="M85.9592 150.36H78.8691V157.52H85.9592V150.36Z" fill="#FF749A"/>
<path d="M85.9592 143.26H78.8691V150.35H85.9592V143.26Z" fill="#FF749A"/>
<path d="M85.9592 136.09H78.8691V143.25H85.9592V136.09Z" fill="#FF5A8D"/>
<path d="M85.9592 129H78.8691V136.09H85.9592V129Z" fill="#FF5290"/>
<path d="M85.9592 121.84H78.8691V129H85.9592V121.84Z" fill="#FF5290"/>
<path d="M85.9592 114.73H78.8691V121.82H85.9592V114.73Z" fill="#72512D"/>
<path d="M85.9592 107.57H78.8691V114.73H85.9592V107.57Z" fill="#72512D"/>
<path d="M85.9592 100.41H78.8691V107.57H85.9592V100.41Z" fill="#FF749A"/>
<path d="M85.9592 93.3101H78.8691V100.4H85.9592V93.3101Z" fill="#FF749A"/>
<path d="M85.9592 86.1401H78.8691V93.3001H85.9592V86.1401Z" fill="#FF5A8D"/>
<path d="M85.9592 79.0498H78.8691V86.1398H85.9592V79.0498Z" fill="#EF997B"/>
<path d="M85.9592 71.8799H78.8691V79.0399H85.9592V71.8799Z" fill="#EF997B"/>
<path d="M85.9592 64.7798H78.8691V71.8698H85.9592V64.7798Z" fill="#EF997B"/>
<path d="M85.9592 57.6201H78.8691V64.7801H85.9592V57.6201Z" fill="#EF997B"/>
<path d="M85.9592 50.4502H78.8691V57.6102H85.9592V50.4502Z" fill="#EF997B"/>
<path d="M85.9592 43.3599H78.8691V50.4499H85.9592V43.3599Z" fill="#EF997B"/>
<path d="M85.9592 36.1899H78.8691V43.3499H85.9592V36.1899Z" fill="#DBD38B"/>
<path d="M85.9592 29.1001H78.8691V36.1901H85.9592V29.1001Z" fill="#DBD38B"/>
<path d="M85.9592 21.9302H78.8691V29.0902H85.9592V21.9302Z" fill="#DBD38B"/>
<path d="M85.9592 14.8301H78.8691V21.9201H85.9592V14.8301Z" fill="black"/>
<path d="M78.8592 250.26H71.6992V257.42H78.8592V250.26Z" fill="black"/>
<path d="M78.8592 243.16H71.6992V250.25H78.8592V243.16Z" fill="#FF5A8D"/>
<path d="M78.8592 236H71.6992V243.16H78.8592V236Z" fill="#FF749A"/>
<path d="M78.8592 228.9H71.6992V235.99H78.8592V228.9Z" fill="#FF749A"/>
<path d="M78.8592 221.73H71.6992V228.89H78.8592V221.73Z" fill="#FF749A"/>
<path d="M78.8592 214.57H71.6992V221.73H78.8592V214.57Z" fill="#FF749A"/>
<path d="M78.8592 207.47H71.6992V214.56H78.8592V207.47Z" fill="#FF749A"/>
<path d="M78.8592 200.31H71.6992V207.47H78.8592V200.31Z" fill="#FF749A"/>
<path d="M78.8592 193.21H71.6992V200.3H78.8592V193.21Z" fill="#FF749A"/>
<path d="M78.8592 186.04H71.6992V193.2H78.8592V186.04Z" fill="#FF749A"/>
<path d="M78.8592 178.95H71.6992V186.04H78.8592V178.95Z" fill="#FF749A"/>
<path d="M78.8592 171.79H71.6992V178.95H78.8592V171.79Z" fill="#FF749A"/>
<path d="M78.8592 164.61H71.6992V171.77H78.8592V164.61Z" fill="#FF749A"/>
<path d="M78.8592 157.52H71.6992V164.61H78.8592V157.52Z" fill="#FF749A"/>
<path d="M78.8592 150.36H71.6992V157.52H78.8592V150.36Z" fill="#FF749A"/>
<path d="M78.8592 143.26H71.6992V150.35H78.8592V143.26Z" fill="#FF749A"/>
<path d="M78.8592 136.09H71.6992V143.25H78.8592V136.09Z" fill="#FF749A"/>
<path d="M78.8592 129H71.6992V136.09H78.8592V129Z" fill="#FF5A8D"/>
<path d="M78.8592 121.84H71.6992V129H78.8592V121.84Z" fill="#FF5A8D"/>
<path d="M78.8592 114.73H71.6992V121.82H78.8592V114.73Z" fill="#7A5A34"/>
<path d="M78.8592 107.57H71.6992V114.73H78.8592V107.57Z" fill="#72512D"/>
<path d="M78.8592 100.41H71.6992V107.57H78.8592V100.41Z" fill="#FF749A"/>
<path d="M78.8592 93.3101H71.6992V100.4H78.8592V93.3101Z" fill="#FF5A8D"/>
<path d="M78.8592 86.1401H71.6992V93.3001H78.8592V86.1401Z" fill="#FF5A8D"/>
<path d="M78.8592 79.0498H71.6992V86.1398H78.8592V79.0498Z" fill="#EF997B"/>
<path d="M78.8592 71.8799H71.6992V79.0399H78.8592V71.8799Z" fill="#EF997B"/>
<path d="M78.8592 64.7798H71.6992V71.8698H78.8592V64.7798Z" fill="#EF997B"/>
<path d="M78.8592 57.6201H71.6992V64.7801H78.8592V57.6201Z" fill="#EF997B"/>
<path d="M78.8592 50.4502H71.6992V57.6102H78.8592V50.4502Z" fill="#C6C4C6"/>
<path d="M78.8592 43.3599H71.6992V50.4499H78.8592V43.3599Z" fill="#EF997B"/>
<path d="M78.8592 36.1899H71.6992V43.3499H78.8592V36.1899Z" fill="#DBD38B"/>
<path d="M78.8592 29.1001H71.6992V36.1901H78.8592V29.1001Z" fill="#DBD38B"/>
<path d="M78.8592 21.9302H71.6992V29.0902H78.8592V21.9302Z" fill="#DBD38B"/>
<path d="M78.8592 14.8301H71.6992V21.9201H78.8592V14.8301Z" fill="black"/>
<path d="M71.6994 250.26H64.6094V257.42H71.6994V250.26Z" fill="black"/>
<path d="M71.6994 243.16H64.6094V250.25H71.6994V243.16Z" fill="#FF5A8D"/>
<path d="M71.6994 236H64.6094V243.16H71.6994V236Z" fill="#FF5A8D"/>
<path d="M71.6994 228.9H64.6094V235.99H71.6994V228.9Z" fill="#FF749A"/>
<path d="M71.6994 221.73H64.6094V228.89H71.6994V221.73Z" fill="#FF749A"/>
<path d="M71.6994 214.57H64.6094V221.73H71.6994V214.57Z" fill="#FF749A"/>
<path d="M71.6994 207.47H64.6094V214.56H71.6994V207.47Z" fill="#FF749A"/>
<path d="M71.6994 200.31H64.6094V207.47H71.6994V200.31Z" fill="#FF749A"/>
<path d="M71.6994 193.21H64.6094V200.3H71.6994V193.21Z" fill="#FF749A"/>
<path d="M71.6994 186.04H64.6094V193.2H71.6994V186.04Z" fill="#FF749A"/>
<path d="M71.6994 178.95H64.6094V186.04H71.6994V178.95Z" fill="#FF749A"/>
<path d="M71.6994 171.79H64.6094V178.95H71.6994V171.79Z" fill="#FF749A"/>
<path d="M71.6994 164.61H64.6094V171.77H71.6994V164.61Z" fill="#FF749A"/>
<path d="M71.6994 157.52H64.6094V164.61H71.6994V157.52Z" fill="#FF749A"/>
<path d="M71.6994 150.36H64.6094V157.52H71.6994V150.36Z" fill="#FF749A"/>
<path d="M71.6994 143.26H64.6094V150.35H71.6994V143.26Z" fill="#FF749A"/>
<path d="M71.6994 136.09H64.6094V143.25H71.6994V136.09Z" fill="#FF749A"/>
<path d="M71.6994 129H64.6094V136.09H71.6994V129Z" fill="#FF749A"/>
<path d="M71.6994 121.84H64.6094V129H71.6994V121.84Z" fill="#FF5A8D"/>
<path d="M71.6994 114.73H64.6094V121.82H71.6994V114.73Z" fill="#7A5A34"/>
<path d="M71.6994 107.57H64.6094V114.73H71.6994V107.57Z" fill="#7A5A34"/>
<path d="M71.6994 100.41H64.6094V107.57H71.6994V100.41Z" fill="#FF5A8D"/>
<path d="M71.6994 93.3101H64.6094V100.4H71.6994V93.3101Z" fill="#EF997B"/>
<path d="M71.6994 86.1401H64.6094V93.3001H71.6994V86.1401Z" fill="#FF749A"/>
<path d="M71.6994 79.0498H64.6094V86.1398H71.6994V79.0498Z" fill="#EF997B"/>
<path d="M71.6994 71.8799H64.6094V79.0399H71.6994V71.8799Z" fill="black"/>
<path d="M71.6994 64.7798H64.6094V71.8698H71.6994V64.7798Z" fill="#EF997B"/>
<path d="M71.6994 57.6201H64.6094V64.7801H71.6994V57.6201Z" fill="#EF997B"/>
<path d="M71.6994 50.4502H64.6094V57.6102H71.6994V50.4502Z" fill="#EF997B"/>
<path d="M71.6994 43.3599H64.6094V50.4499H71.6994V43.3599Z" fill="#EF997B"/>
<path d="M71.6994 36.1899H64.6094V43.3499H71.6994V36.1899Z" fill="#DBD38B"/>
<path d="M71.6994 29.1001H64.6094V36.1901H71.6994V29.1001Z" fill="#DBD38B"/>
<path d="M71.6994 21.9302H64.6094V29.0902H71.6994V21.9302Z" fill="#DBD38B"/>
<path d="M71.6994 14.8301H64.6094V21.9201H71.6994V14.8301Z" fill="black"/>
<path d="M64.6092 243.16H57.4492V250.25H64.6092V243.16Z" fill="black"/>
<path d="M64.6092 236H57.4492V243.16H64.6092V236Z" fill="#FF5A8D"/>
<path d="M64.6092 228.9H57.4492V235.99H64.6092V228.9Z" fill="#FF749A"/>
<path d="M64.6092 221.73H57.4492V228.89H64.6092V221.73Z" fill="#FF749A"/>
<path d="M64.6092 214.57H57.4492V221.73H64.6092V214.57Z" fill="#FF5A8D"/>
<path d="M64.6092 207.47H57.4492V214.56H64.6092V207.47Z" fill="black"/>
<path d="M64.6092 200.31H57.4492V207.47H64.6092V200.31Z" fill="black"/>
<path d="M64.6092 193.21H57.4492V200.3H64.6092V193.21Z" fill="black"/>
<path d="M64.6092 186.04H57.4492V193.2H64.6092V186.04Z" fill="black"/>
<path d="M64.6092 178.95H57.4492V186.04H64.6092V178.95Z" fill="black"/>
<path d="M64.6092 171.79H57.4492V178.95H64.6092V171.79Z" fill="black"/>
<path d="M64.6092 164.61H57.4492V171.77H64.6092V164.61Z" fill="#FF5A8D"/>
<path d="M64.6092 157.52H57.4492V164.61H64.6092V157.52Z" fill="#FF5A8D"/>
<path d="M64.6092 150.36H57.4492V157.52H64.6092V150.36Z" fill="#FF749A"/>
<path d="M64.6092 143.26H57.4492V150.35H64.6092V143.26Z" fill="#FF749A"/>
<path d="M64.6092 136.09H57.4492V143.25H64.6092V136.09Z" fill="#FF749A"/>
<path d="M64.6092 129H57.4492V136.09H64.6092V129Z" fill="#FF749A"/>
<path d="M64.6092 121.84H57.4492V129H64.6092V121.84Z" fill="#FF5A8D"/>
<path d="M64.6092 114.73H57.4492V121.82H64.6092V114.73Z" fill="#7A5A34"/>
<path d="M64.6092 107.57H57.4492V114.73H64.6092V107.57Z" fill="#7A5A34"/>
<path d="M64.6092 100.41H57.4492V107.57H64.6092V100.41Z" fill="#FF749A"/>
<path d="M64.6092 93.3101H57.4492V100.4H64.6092V93.3101Z" fill="#EF997B"/>
<path d="M64.6092 86.1401H57.4492V93.3001H64.6092V86.1401Z" fill="#FF749A"/>
<path d="M64.6092 79.0498H57.4492V86.1398H64.6092V79.0498Z" fill="#FF749A"/>
<path d="M64.6092 71.8799H57.4492V79.0399H64.6092V71.8799Z" fill="black"/>
<path d="M64.6092 64.7798H57.4492V71.8698H64.6092V64.7798Z" fill="black"/>
<path d="M64.6092 57.6201H57.4492V64.7801H64.6092V57.6201Z" fill="#EF997B"/>
<path d="M64.6092 50.4502H57.4492V57.6102H64.6092V50.4502Z" fill="#C6C4C6"/>
<path d="M64.6092 43.3599H57.4492V50.4499H64.6092V43.3599Z" fill="#EF997B"/>
<path d="M64.6092 36.1899H57.4492V43.3499H64.6092V36.1899Z" fill="#DBD38B"/>
<path d="M64.6092 29.1001H57.4492V36.1901H64.6092V29.1001Z" fill="#CCBB69"/>
<path d="M64.6092 21.9302H57.4492V29.0902H64.6092V21.9302Z" fill="black"/>
<path d="M57.4298 243.16H50.3398V250.25H57.4298V243.16Z" fill="black"/>
<path d="M57.4298 236H50.3398V243.16H57.4298V236Z" fill="#FF5A8D"/>
<path d="M57.4298 228.9H50.3398V235.99H57.4298V228.9Z" fill="#FF749A"/>
<path d="M57.4298 221.73H50.3398V228.89H57.4298V221.73Z" fill="#FF5A8D"/>
<path d="M57.4298 214.57H50.3398V221.73H57.4298V214.57Z" fill="black"/>
<path d="M57.4298 164.61H50.3398V171.77H57.4298V164.61Z" fill="black"/>
<path d="M57.4298 157.52H50.3398V164.61H57.4298V157.52Z" fill="black"/>
<path d="M57.4298 150.36H50.3398V157.52H57.4298V150.36Z" fill="black"/>
<path d="M57.4298 143.26H50.3398V150.35H57.4298V143.26Z" fill="#FF749A"/>
<path d="M57.4298 136.09H50.3398V143.25H57.4298V136.09Z" fill="#FF749A"/>
<path d="M57.4298 129H50.3398V136.09H57.4298V129Z" fill="#FF749A"/>
<path d="M57.4298 121.84H50.3398V129H57.4298V121.84Z" fill="black"/>
<path d="M57.4298 114.73H50.3398V121.82H57.4298V114.73Z" fill="black"/>
<path d="M57.4298 107.57H50.3398V114.73H57.4298V107.57Z" fill="#EF997B"/>
<path d="M57.4298 100.41H50.3398V107.57H57.4298V100.41Z" fill="black"/>
<path d="M57.4298 93.3101H50.3398V100.4H57.4298V93.3101Z" fill="#EF997B"/>
<path d="M57.4298 86.1401H50.3398V93.3001H57.4298V86.1401Z" fill="#FF749A"/>
<path d="M57.4298 79.0498H50.3398V86.1398H57.4298V79.0498Z" fill="black"/>
<path d="M57.4298 57.6201H50.3398V64.7801H57.4298V57.6201Z" fill="black"/>
<path d="M57.4298 50.4502H50.3398V57.6102H57.4298V50.4502Z" fill="black"/>
<path d="M57.4298 43.3599H50.3398V50.4499H57.4298V43.3599Z" fill="#CCBB69"/>
<path d="M57.4298 36.1899H50.3398V43.3499H57.4298V36.1899Z" fill="#CCBB69"/>
<path d="M57.4298 29.1001H50.3398V36.1901H57.4298V29.1001Z" fill="black"/>
<path d="M50.3397 243.16H43.1797V250.25H50.3397V243.16Z" fill="black"/>
<path d="M50.3397 236H43.1797V243.16H50.3397V236Z" fill="#FF5A8D"/>
<path d="M50.3397 228.9H43.1797V235.99H50.3397V228.9Z" fill="#FF749A"/>
<path d="M50.3397 221.73H43.1797V228.89H50.3397V221.73Z" fill="black"/>
<path d="M50.3397 143.26H43.1797V150.35H50.3397V143.26Z" fill="black"/>
<path d="M50.3397 136.09H43.1797V143.25H50.3397V136.09Z" fill="black"/>
<path d="M50.3397 129H43.1797V136.09H50.3397V129Z" fill="black"/>
<path d="M50.3397 121.84H43.1797V129H50.3397V121.84Z" fill="black"/>
<path d="M50.3397 114.73H43.1797V121.82H50.3397V114.73Z" fill="#EF997B"/>
<path d="M50.3397 107.57H43.1797V114.73H50.3397V107.57Z" fill="#EF997B"/>
<path d="M50.3397 100.41H43.1797V107.57H50.3397V100.41Z" fill="black"/>
<path d="M50.3397 93.3101H43.1797V100.4H50.3397V93.3101Z" fill="#EF997B"/>
<path d="M50.3397 86.1401H43.1797V93.3001H50.3397V86.1401Z" fill="black"/>
<path d="M50.3397 43.3599H43.1797V50.4499H50.3397V43.3599Z" fill="black"/>
<path d="M50.3397 36.1899H43.1797V43.3499H50.3397V36.1899Z" fill="black"/>
<path d="M43.1795 243.16H36.0195V250.25H43.1795V243.16Z" fill="black"/>
<path d="M43.1795 236H36.0195V243.16H43.1795V236Z" fill="#FF5A8D"/>
<path d="M43.1795 228.9H36.0195V235.99H43.1795V228.9Z" fill="#FF5A8D"/>
<path d="M43.1795 221.73H36.0195V228.89H43.1795V221.73Z" fill="black"/>
<path d="M43.1795 121.84H36.0195V129H43.1795V121.84Z" fill="black"/>
<path d="M43.1795 114.73H36.0195V121.82H43.1795V114.73Z" fill="#EF997B"/>
<path d="M43.1795 107.57H36.0195V114.73H43.1795V107.57Z" fill="black"/>
<path d="M43.1795 100.41H36.0195V107.57H43.1795V100.41Z" fill="black"/>
<path d="M43.1795 93.3101H36.0195V100.4H43.1795V93.3101Z" fill="#EF997B"/>
<path d="M43.1795 86.1401H36.0195V93.3001H43.1795V86.1401Z" fill="black"/>
<path d="M36.0197 236H28.9297V243.16H36.0197V236Z" fill="black"/>
<path d="M36.0197 228.9H28.9297V235.99H36.0197V228.9Z" fill="black"/>
<path d="M36.0197 129H28.9297V136.09H36.0197V129Z" fill="black"/>
<path d="M36.0197 121.84H28.9297V129H36.0197V121.84Z" fill="#EF997B"/>
<path d="M36.0197 114.73H28.9297V121.82H36.0197V114.73Z" fill="#EF997B"/>
<path d="M36.0197 107.57H28.9297V114.73H36.0197V107.57Z" fill="black"/>
<path d="M36.0197 100.41H28.9297V107.57H36.0197V100.41Z" fill="black"/>
<path d="M36.0197 93.3101H28.9297V100.4H36.0197V93.3101Z" fill="#EF997B"/>
<path d="M36.0197 86.1401H28.9297V93.3001H36.0197V86.1401Z" fill="#EF997B"/>
<path d="M36.0197 79.0498H28.9297V86.1398H36.0197V79.0498Z" fill="black"/>
<path d="M36.0197 36.1899H28.9297V43.3499H36.0197V36.1899Z" fill="#751545"/>
<path d="M36.0197 29.1001H28.9297V36.1901H36.0197V29.1001Z" fill="#751545"/>
<path d="M36.0197 21.9302H28.9297V29.0902H36.0197V21.9302Z" fill="#751545"/>
<path d="M36.0197 14.8301H28.9297V21.9201H36.0197V14.8301Z" fill="#751545"/>
<path d="M28.91 228.9H21.75V235.99H28.91V228.9Z" fill="#751545"/>
<path d="M28.91 221.73H21.75V228.89H28.91V221.73Z" fill="#751545"/>
<path d="M28.91 214.57H21.75V221.73H28.91V214.57Z" fill="#751545"/>
<path d="M28.91 207.47H21.75V214.56H28.91V207.47Z" fill="#751545"/>
<path d="M28.91 200.31H21.75V207.47H28.91V200.31Z" fill="#751545"/>
<path d="M28.91 193.21H21.75V200.3H28.91V193.21Z" fill="#751545"/>
<path d="M28.91 186.04H21.75V193.2H28.91V186.04Z" fill="#751545"/>
<path d="M28.91 178.95H21.75V186.04H28.91V178.95Z" fill="#751545"/>
<path d="M28.91 171.79H21.75V178.95H28.91V171.79Z" fill="#751545"/>
<path d="M28.91 164.61H21.75V171.77H28.91V164.61Z" fill="#751545"/>
<path d="M28.91 157.52H21.75V164.61H28.91V157.52Z" fill="#751545"/>
<path d="M28.91 150.36H21.75V157.52H28.91V150.36Z" fill="#751545"/>
<path d="M28.91 143.26H21.75V150.35H28.91V143.26Z" fill="#751545"/>
<path d="M28.91 136.09H21.75V143.25H28.91V136.09Z" fill="#751545"/>
<path d="M28.91 129H21.75V136.09H28.91V129Z" fill="#751545"/>
<path d="M28.91 121.84H21.75V129H28.91V121.84Z" fill="#751545"/>
<path d="M28.91 114.73H21.75V121.82H28.91V114.73Z" fill="#751545"/>
<path d="M28.91 107.57H21.75V114.73H28.91V107.57Z" fill="#751545"/>
<path d="M28.91 100.41H21.75V107.57H28.91V100.41Z" fill="black"/>
<path d="M28.91 93.3101H21.75V100.4H28.91V93.3101Z" fill="#EF997B"/>
<path d="M28.91 86.1401H21.75V93.3001H28.91V86.1401Z" fill="#EF997B"/>
<path d="M28.91 79.0498H21.75V86.1398H28.91V79.0498Z" fill="#751545"/>
<path d="M28.91 71.8799H21.75V79.0399H28.91V71.8799Z" fill="#751545"/>
<path d="M28.91 64.7798H21.75V71.8698H28.91V64.7798Z" fill="#751545"/>
<path d="M28.91 57.6201H21.75V64.7801H28.91V57.6201Z" fill="#751545"/>
<path d="M28.91 50.4502H21.75V57.6102H28.91V50.4502Z" fill="#751545"/>
<path d="M28.91 43.3599H21.75V50.4499H28.91V43.3599Z" fill="#751545"/>
<path d="M28.91 36.1899H21.75V43.3499H28.91V36.1899Z" fill="#751545"/>
<path d="M28.91 29.1001H21.75V36.1901H28.91V29.1001Z" fill="#751545"/>
<path d="M28.91 21.9302H21.75V29.0902H28.91V21.9302Z" fill="#751545"/>
<path d="M28.91 14.8301H21.75V21.9201H28.91V14.8301Z" fill="#751545"/>
<path d="M28.91 7.66992H21.75V14.8299H28.91V7.66992Z" fill="#751545"/>
<path d="M21.7502 121.84H14.6602V129H21.7502V121.84Z" fill="black"/>
<path d="M21.7502 114.73H14.6602V121.82H21.7502V114.73Z" fill="black"/>
<path d="M21.7502 93.3101H14.6602V100.4H21.7502V93.3101Z" fill="black"/>
<path d="M21.7502 86.1401H14.6602V93.3001H21.7502V86.1401Z" fill="black"/>
<path d="M21.7502 71.8799H14.6602V79.0399H21.7502V71.8799Z" fill="#751545"/>
<path d="M21.7502 64.7798H14.6602V71.8698H21.7502V64.7798Z" fill="#751545"/>
<path d="M21.7502 57.6201H14.6602V64.7801H21.7502V57.6201Z" fill="#751545"/>
<path d="M21.7502 50.4502H14.6602V57.6102H21.7502V50.4502Z" fill="#751545"/>
<path d="M21.7502 43.3599H14.6602V50.4499H21.7502V43.3599Z" fill="#751545"/>
<path d="M21.7502 36.1899H14.6602V43.3499H21.7502V36.1899Z" fill="#751545"/>
<path d="M21.7502 29.1001H14.6602V36.1901H21.7502V29.1001Z" fill="#06E1F7"/>
<path d="M21.7502 21.9302H14.6602V29.0902H21.7502V21.9302Z" fill="#06E1F7"/>
<path d="M21.7502 14.8301H14.6602V21.9201H21.7502V14.8301Z" fill="#751545"/>
<path d="M21.7502 7.66992H14.6602V14.8299H21.7502V7.66992Z" fill="#751545"/>
<path d="M21.7502 0.569824H14.6602V7.65983H21.7502V0.569824Z" fill="#751545"/>
<path d="M14.66 50.4502H7.5V57.6102H14.66V50.4502Z" fill="#751545"/>
<path d="M14.66 43.3599H7.5V50.4499H14.66V43.3599Z" fill="#751545"/>
<path d="M14.66 36.1899H7.5V43.3499H14.66V36.1899Z" fill="#751545"/>
<path d="M14.66 29.1001H7.5V36.1901H14.66V29.1001Z" fill="#06E1F7"/>
<path d="M14.66 21.9302H7.5V29.0902H14.66V21.9302Z" fill="#06E1F7"/>
<path d="M14.66 14.8301H7.5V21.9201H14.66V14.8301Z" fill="#751545"/>
<path d="M14.66 7.66992H7.5V14.8299H14.66V7.66992Z" fill="#751545"/>
<path d="M14.66 0.569824H7.5V7.65983H14.66V0.569824Z" fill="#751545"/>
<path d="M7.48062 36.1899H0.390625V43.3499H7.48062V36.1899Z" fill="#751545"/>
<path d="M7.48062 29.1001H0.390625V36.1901H7.48062V29.1001Z" fill="#751545"/>
<path d="M7.48062 21.9302H0.390625V29.0902H7.48062V21.9302Z" fill="#751545"/>
<path d="M7.48062 14.8301H0.390625V21.9201H7.48062V14.8301Z" fill="#751545"/>
<path d="M7.48062 7.66992H0.390625V14.8299H7.48062V7.66992Z" fill="#751545"/>
</svg>
