<svg width="216" height="214" viewBox="0 0 216 214" fill="none" xmlns="http://www.w3.org/2000/svg">
<path d="M120.889 195.97H115.109V201.7H120.889V195.97Z" fill="#6B1F01"/>
<path d="M120.889 201.7H115.109V207.48H120.889V201.7Z" fill="#6B1F01"/>
<path d="M120.889 172.97H115.109V178.69H120.889V172.97Z" fill="#6B1F01"/>
<path d="M120.889 167.19H115.109V172.97H120.889V167.19Z" fill="#6B1F01"/>
<path d="M120.889 178.69H115.109V184.47H120.889V178.69Z" fill="#6B1F01"/>
<path d="M120.889 184.47H115.109V190.19H120.889V184.47Z" fill="#6B1F01"/>
<path d="M115.11 190.2H109.39V195.98H115.11V190.2Z" fill="#7C2A05"/>
<path d="M109.389 201.7H103.609V207.48H109.389V201.7Z" fill="#7C2A05"/>
<path d="M115.11 178.69H109.39V184.47H115.11V178.69Z" fill="#6B1F01"/>
<path d="M109.389 195.97H103.609V201.7H109.389V195.97Z" fill="#7C2A05"/>
<path d="M109.389 178.69H103.609V184.47H109.389V178.69Z" fill="#7C2A05"/>
<path d="M115.11 172.97H109.39V178.69H115.11V172.97Z" fill="#7C2A05"/>
<path d="M115.11 184.47H109.39V190.19H115.11V184.47Z" fill="#7C2A05"/>
<path d="M115.11 167.19H109.39V172.97H115.11V167.19Z" fill="#6B1F01"/>
<path d="M109.389 190.2H103.609V195.98H109.389V190.2Z" fill="#7C2A05"/>
<path d="M109.389 184.47H103.609V190.19H109.389V184.47Z" fill="#7C2A05"/>
<path d="M109.389 167.19H103.609V172.97H109.389V167.19Z" fill="#7C2A05"/>
<path d="M109.389 172.97H103.609V178.69H109.389V172.97Z" fill="#7C2A05"/>
<path d="M86.3196 201.7H80.5996V207.48H86.3196V201.7Z" fill="#6B1F01"/>
<path d="M92.1003 161.41H86.3203V167.19H92.1003V161.41Z" fill="#7C2A05"/>
<path d="M92.1003 178.69H86.3203V184.47H92.1003V178.69Z" fill="#7C2A05"/>
<path d="M92.1003 167.19H86.3203V172.97H92.1003V167.19Z" fill="#7C2A05"/>
<path d="M92.1003 172.97H86.3203V178.69H92.1003V172.97Z" fill="#7C2A05"/>
<path d="M92.1003 184.47H86.3203V190.19H92.1003V184.47Z" fill="#6B1F01"/>
<path d="M86.3196 167.19H80.5996V172.97H86.3196V167.19Z" fill="#7C2A05"/>
<path d="M86.3196 178.69H80.5996V184.47H86.3196V178.69Z" fill="#6B1F01"/>
<path d="M86.3196 184.47H80.5996V190.19H86.3196V184.47Z" fill="#6B1F01"/>
<path d="M86.3196 172.97H80.5996V178.69H86.3196V172.97Z" fill="#7C2A05"/>
<path d="M86.3196 161.41H80.5996V167.19H86.3196V161.41Z" fill="#7C2A05"/>
<path d="M97.8796 201.7H92.0996V207.48H97.8796V201.7Z" fill="#6B1F01"/>
<path d="M92.1003 195.97H86.3203V201.7H92.1003V195.97Z" fill="#6B1F01"/>
<path d="M97.8796 195.97H92.0996V201.7H97.8796V195.97Z" fill="#7C2A05"/>
<path d="M97.8796 178.69H92.0996V184.47H97.8796V178.69Z" fill="#7C2A05"/>
<path d="M97.8796 190.2H92.0996V195.98H97.8796V190.2Z" fill="#7C2A05"/>
<path d="M97.8796 184.47H92.0996V190.19H97.8796V184.47Z" fill="#7C2A05"/>
<path d="M97.8796 167.19H92.0996V172.97H97.8796V167.19Z" fill="#7C2A05"/>
<path d="M97.8796 172.97H92.0996V178.69H97.8796V172.97Z" fill="#7C2A05"/>
<path d="M92.1003 190.2H86.3203V195.98H92.1003V190.2Z" fill="#6B1F01"/>
<path d="M178.41 207.48H172.68V213.2H178.41V207.48Z" fill="black"/>
<path d="M178.41 201.7H172.68V207.48H178.41V201.7Z" fill="black"/>
<path d="M178.41 195.97H172.68V201.7H178.41V195.97Z" fill="black"/>
<path d="M178.41 190.2H172.68V195.98H178.41V190.2Z" fill="black"/>
<path d="M178.41 184.47H172.68V190.19H178.41V184.47Z" fill="black"/>
<path d="M178.41 178.69H172.68V184.47H178.41V178.69Z" fill="black"/>
<path d="M178.41 172.97H172.68V178.69H178.41V172.97Z" fill="black"/>
<path d="M178.41 167.19H172.68V172.97H178.41V167.19Z" fill="black"/>
<path d="M178.41 161.41H172.68V167.19H178.41V161.41Z" fill="black"/>
<path d="M178.41 155.68H172.68V161.41H178.41V155.68Z" fill="black"/>
<path d="M178.41 149.91H172.68V155.69H178.41V149.91Z" fill="black"/>
<path d="M178.41 144.18H172.68V149.9H178.41V144.18Z" fill="black"/>
<path d="M178.41 138.4H172.68V144.18H178.41V138.4Z" fill="black"/>
<path d="M178.41 132.68H172.68V138.4H178.41V132.68Z" fill="black"/>
<path d="M178.41 126.9H172.68V132.68H178.41V126.9Z" fill="black"/>
<path d="M178.41 121.12H172.68V126.9H178.41V121.12Z" fill="black"/>
<path d="M178.41 115.39H172.68V121.11H178.41V115.39Z" fill="black"/>
<path d="M178.41 109.61H172.68V115.39H178.41V109.61Z" fill="black"/>
<path d="M178.41 103.89H172.68V109.61H178.41V103.89Z" fill="black"/>
<path d="M178.41 98.1099H172.68V103.89H178.41V98.1099Z" fill="black"/>
<path d="M178.41 92.3901H172.68V98.1101H178.41V92.3901Z" fill="black"/>
<path d="M178.41 86.6099H172.68V92.3899H178.41V86.6099Z" fill="black"/>
<path d="M178.41 80.8799H172.68V86.5999H178.41V80.8799Z" fill="black"/>
<path d="M172.69 207.48H166.91V213.2H172.69V207.48Z" fill="black"/>
<path d="M172.69 201.7H166.91V207.48H172.69V201.7Z" fill="#DB4B03"/>
<path d="M172.69 195.97H166.91V201.7H172.69V195.97Z" fill="#DB4B03"/>
<path d="M172.69 190.2H166.91V195.98H172.69V190.2Z" fill="#DB4B03"/>
<path d="M172.69 184.47H166.91V190.19H172.69V184.47Z" fill="#DB4B03"/>
<path d="M172.69 178.69H166.91V184.47H172.69V178.69Z" fill="#DB4B03"/>
<path d="M172.69 172.97H166.91V178.69H172.69V172.97Z" fill="#DB4B03"/>
<path d="M172.69 167.19H166.91V172.97H172.69V167.19Z" fill="#DB4B03"/>
<path d="M172.69 161.41H166.91V167.19H172.69V161.41Z" fill="#DB4B03"/>
<path d="M172.69 155.68H166.91V161.41H172.69V155.68Z" fill="#DB4B03"/>
<path d="M172.69 149.91H166.91V155.69H172.69V149.91Z" fill="#FF5A00"/>
<path d="M172.69 144.18H166.91V149.9H172.69V144.18Z" fill="#FF5A00"/>
<path d="M172.69 138.4H166.91V144.18H172.69V138.4Z" fill="#FF5A00"/>
<path d="M172.69 132.68H166.91V138.4H172.69V132.68Z" fill="#FF5A00"/>
<path d="M172.69 126.9H166.91V132.68H172.69V126.9Z" fill="#FF5A00"/>
<path d="M172.69 121.12H166.91V126.9H172.69V121.12Z" fill="#FF5A00"/>
<path d="M172.69 115.39H166.91V121.11H172.69V115.39Z" fill="#FF5A00"/>
<path d="M172.69 109.61H166.91V115.39H172.69V109.61Z" fill="#FF5A00"/>
<path d="M172.69 103.89H166.91V109.61H172.69V103.89Z" fill="#FF5A00"/>
<path d="M172.69 98.1099H166.91V103.89H172.69V98.1099Z" fill="#FF5A00"/>
<path d="M172.69 92.3901H166.91V98.1101H172.69V92.3901Z" fill="#DB4B03"/>
<path d="M172.69 86.6099H166.91V92.3899H172.69V86.6099Z" fill="#DB4B03"/>
<path d="M172.69 80.8799H166.91V86.5999H172.69V80.8799Z" fill="#DB4B03"/>
<path d="M172.69 75.1001H166.91V80.8801H172.69V75.1001Z" fill="black"/>
<path d="M172.69 69.3203H166.91V75.1003H172.69V69.3203Z" fill="black"/>
<path d="M166.9 201.7H161.18V207.48H166.9V201.7Z" fill="black"/>
<path d="M166.9 195.97H161.18V201.7H166.9V195.97Z" fill="#DB4B03"/>
<path d="M166.9 190.2H161.18V195.98H166.9V190.2Z" fill="#DB4B03"/>
<path d="M166.9 184.47H161.18V190.19H166.9V184.47Z" fill="#DB4B03"/>
<path d="M166.9 178.69H161.18V184.47H166.9V178.69Z" fill="#DB4B03"/>
<path d="M166.9 172.97H161.18V178.69H166.9V172.97Z" fill="#DB4B03"/>
<path d="M166.9 167.19H161.18V172.97H166.9V167.19Z" fill="#FF5A00"/>
<path d="M166.9 161.41H161.18V167.19H166.9V161.41Z" fill="#FF5A00"/>
<path d="M166.9 155.68H161.18V161.41H166.9V155.68Z" fill="#FF5A00"/>
<path d="M166.9 149.91H161.18V155.69H166.9V149.91Z" fill="#FF5A00"/>
<path d="M166.9 144.18H161.18V149.9H166.9V144.18Z" fill="#FF5A00"/>
<path d="M166.9 138.4H161.18V144.18H166.9V138.4Z" fill="#FF5A00"/>
<path d="M166.9 132.68H161.18V138.4H166.9V132.68Z" fill="#FF5A00"/>
<path d="M166.9 126.9H161.18V132.68H166.9V126.9Z" fill="#FF5A00"/>
<path d="M166.9 121.12H161.18V126.9H166.9V121.12Z" fill="#FF5A00"/>
<path d="M166.9 115.39H161.18V121.11H166.9V115.39Z" fill="#FF5A00"/>
<path d="M166.9 109.61H161.18V115.39H166.9V109.61Z" fill="#FF5A00"/>
<path d="M166.9 103.89H161.18V109.61H166.9V103.89Z" fill="#FF5A00"/>
<path d="M166.9 98.1099H161.18V103.89H166.9V98.1099Z" fill="#FF5A00"/>
<path d="M166.9 92.3901H161.18V98.1101H166.9V92.3901Z" fill="#FF5A00"/>
<path d="M166.9 86.6099H161.18V92.3899H166.9V86.6099Z" fill="#FF5A00"/>
<path d="M166.9 80.8799H161.18V86.5999H166.9V80.8799Z" fill="#DB4B03"/>
<path d="M166.9 75.1001H161.18V80.8801H166.9V75.1001Z" fill="#DB4B03"/>
<path d="M166.9 69.3203H161.18V75.1003H166.9V69.3203Z" fill="black"/>
<path d="M166.9 63.6001H161.18V69.3201H166.9V63.6001Z" fill="black"/>
<path d="M161.179 207.48H155.399V213.2H161.179V207.48Z" fill="black"/>
<path d="M161.179 201.7H155.399V207.48H161.179V201.7Z" fill="#DB4B03"/>
<path d="M161.179 195.97H155.399V201.7H161.179V195.97Z" fill="#DB4B03"/>
<path d="M161.179 190.2H155.399V195.98H161.179V190.2Z" fill="#DB4B03"/>
<path d="M161.179 184.47H155.399V190.19H161.179V184.47Z" fill="#DB4B03"/>
<path d="M161.179 178.69H155.399V184.47H161.179V178.69Z" fill="#DB4B03"/>
<path d="M161.179 172.97H155.399V178.69H161.179V172.97Z" fill="#FF5A00"/>
<path d="M161.179 167.19H155.399V172.97H161.179V167.19Z" fill="#FF5A00"/>
<path d="M161.179 161.41H155.399V167.19H161.179V161.41Z" fill="#FF5A00"/>
<path d="M161.179 155.68H155.399V161.41H161.179V155.68Z" fill="#FF5A00"/>
<path d="M161.179 149.91H155.399V155.69H161.179V149.91Z" fill="#FF5A00"/>
<path d="M161.179 144.18H155.399V149.9H161.179V144.18Z" fill="#FF5A00"/>
<path d="M161.179 138.4H155.399V144.18H161.179V138.4Z" fill="#FF5A00"/>
<path d="M161.179 132.68H155.399V138.4H161.179V132.68Z" fill="#FF5A00"/>
<path d="M161.179 126.9H155.399V132.68H161.179V126.9Z" fill="#FF5A00"/>
<path d="M161.179 121.12H155.399V126.9H161.179V121.12Z" fill="#FF5A00"/>
<path d="M161.179 115.39H155.399V121.11H161.179V115.39Z" fill="#FF5A00"/>
<path d="M161.179 109.61H155.399V115.39H161.179V109.61Z" fill="#FF5A00"/>
<path d="M161.179 103.89H155.399V109.61H161.179V103.89Z" fill="#FF5A00"/>
<path d="M161.179 98.1099H155.399V103.89H161.179V98.1099Z" fill="#FF5A00"/>
<path d="M161.179 92.3901H155.399V98.1101H161.179V92.3901Z" fill="#FF5A00"/>
<path d="M161.179 86.6099H155.399V92.3899H161.179V86.6099Z" fill="#FF5A00"/>
<path d="M161.179 80.8799H155.399V86.5999H161.179V80.8799Z" fill="#FF5A00"/>
<path d="M161.179 75.1001H155.399V80.8801H161.179V75.1001Z" fill="#DB4B03"/>
<path d="M161.179 69.3203H155.399V75.1003H161.179V69.3203Z" fill="#DB4B03"/>
<path d="M161.179 63.6001H155.399V69.3201H161.179V63.6001Z" fill="black"/>
<path d="M161.179 57.8203H155.399V63.6003H161.179V57.8203Z" fill="black"/>
<path d="M161.179 52.1001H155.399V57.8201H161.179V52.1001Z" fill="black"/>
<path d="M161.179 46.3203H155.399V52.1003H161.179V46.3203Z" fill="black"/>
<path d="M155.4 207.48H149.68V213.2H155.4V207.48Z" fill="black"/>
<path d="M155.4 201.7H149.68V207.48H155.4V201.7Z" fill="#DB4B03"/>
<path d="M155.4 195.97H149.68V201.7H155.4V195.97Z" fill="#DB4B03"/>
<path d="M155.4 190.2H149.68V195.98H155.4V190.2Z" fill="#DB4B03"/>
<path d="M155.4 184.47H149.68V190.19H155.4V184.47Z" fill="#DB4B03"/>
<path d="M155.4 178.69H149.68V184.47H155.4V178.69Z" fill="#FF5A00"/>
<path d="M155.4 172.97H149.68V178.69H155.4V172.97Z" fill="#FF5A00"/>
<path d="M155.4 167.19H149.68V172.97H155.4V167.19Z" fill="#FF5A00"/>
<path d="M155.4 161.41H149.68V167.19H155.4V161.41Z" fill="#FF5A00"/>
<path d="M155.4 155.68H149.68V161.41H155.4V155.68Z" fill="#FF5A00"/>
<path d="M155.4 149.91H149.68V155.69H155.4V149.91Z" fill="#FF5A00"/>
<path d="M155.4 144.18H149.68V149.9H155.4V144.18Z" fill="#FF5A00"/>
<path d="M155.4 138.4H149.68V144.18H155.4V138.4Z" fill="#FF5A00"/>
<path d="M155.4 132.68H149.68V138.4H155.4V132.68Z" fill="#FF5A00"/>
<path d="M155.4 126.9H149.68V132.68H155.4V126.9Z" fill="#FF5A00"/>
<path d="M155.4 121.12H149.68V126.9H155.4V121.12Z" fill="#FF5A00"/>
<path d="M155.4 115.39H149.68V121.11H155.4V115.39Z" fill="#FF5A00"/>
<path d="M155.4 109.61H149.68V115.39H155.4V109.61Z" fill="#FF5A00"/>
<path d="M155.4 103.89H149.68V109.61H155.4V103.89Z" fill="#FF5A00"/>
<path d="M155.4 98.1099H149.68V103.89H155.4V98.1099Z" fill="#FF5A00"/>
<path d="M155.4 92.3901H149.68V98.1101H155.4V92.3901Z" fill="#FF5A00"/>
<path d="M155.4 86.6099H149.68V92.3899H155.4V86.6099Z" fill="#FF5A00"/>
<path d="M155.4 80.8799H149.68V86.5999H155.4V80.8799Z" fill="#FF5A00"/>
<path d="M155.4 75.1001H149.68V80.8801H155.4V75.1001Z" fill="#FF5A00"/>
<path d="M155.4 69.3203H149.68V75.1003H155.4V69.3203Z" fill="#DB4B03"/>
<path d="M155.4 63.6001H149.68V69.3201H155.4V63.6001Z" fill="#DB4B03"/>
<path d="M155.4 57.8203H149.68V63.6003H155.4V57.8203Z" fill="black"/>
<path d="M155.4 52.1001H149.68V57.8201H155.4V52.1001Z" fill="#DB4B03"/>
<path d="M155.4 46.3203H149.68V52.1003H155.4V46.3203Z" fill="#DB4B03"/>
<path d="M155.4 40.5898H149.68V46.3098H155.4V40.5898Z" fill="black"/>
<path d="M149.679 207.48H143.899V213.2H149.679V207.48Z" fill="black"/>
<path d="M149.679 201.7H143.899V207.48H149.679V201.7Z" fill="#DB4B03"/>
<path d="M149.679 195.97H143.899V201.7H149.679V195.97Z" fill="#DB4B03"/>
<path d="M149.679 190.2H143.899V195.98H149.679V190.2Z" fill="#DB4B03"/>
<path d="M149.679 184.47H143.899V190.19H149.679V184.47Z" fill="#FF5A00"/>
<path d="M149.679 178.69H143.899V184.47H149.679V178.69Z" fill="#FF5A00"/>
<path d="M149.679 172.97H143.899V178.69H149.679V172.97Z" fill="#FF5A00"/>
<path d="M149.679 167.19H143.899V172.97H149.679V167.19Z" fill="#FF5A00"/>
<path d="M149.679 161.41H143.899V167.19H149.679V161.41Z" fill="#FF5A00"/>
<path d="M149.679 155.68H143.899V161.41H149.679V155.68Z" fill="#FF5A00"/>
<path d="M149.679 149.91H143.899V155.69H149.679V149.91Z" fill="#FF5A00"/>
<path d="M149.679 144.18H143.899V149.9H149.679V144.18Z" fill="#FF5A00"/>
<path d="M149.679 138.4H143.899V144.18H149.679V138.4Z" fill="#FF5A00"/>
<path d="M149.679 132.68H143.899V138.4H149.679V132.68Z" fill="#FF5A00"/>
<path d="M149.679 126.9H143.899V132.68H149.679V126.9Z" fill="#FF5A00"/>
<path d="M149.679 121.12H143.899V126.9H149.679V121.12Z" fill="#FF5A00"/>
<path d="M149.679 115.39H143.899V121.11H149.679V115.39Z" fill="#FF5A00"/>
<path d="M149.679 109.61H143.899V115.39H149.679V109.61Z" fill="#FF5A00"/>
<path d="M149.679 103.89H143.899V109.61H149.679V103.89Z" fill="#FF5A00"/>
<path d="M149.679 98.1099H143.899V103.89H149.679V98.1099Z" fill="#FF5A00"/>
<path d="M149.679 92.3901H143.899V98.1101H149.679V92.3901Z" fill="#FF5A00"/>
<path d="M149.679 86.6099H143.899V92.3899H149.679V86.6099Z" fill="#FF5A00"/>
<path d="M149.679 80.8799H143.899V86.5999H149.679V80.8799Z" fill="#FF5A00"/>
<path d="M149.679 75.1001H143.899V80.8801H149.679V75.1001Z" fill="#FF5A00"/>
<path d="M149.679 69.3203H143.899V75.1003H149.679V69.3203Z" fill="#DB4B03"/>
<path d="M149.679 63.6001H143.899V69.3201H149.679V63.6001Z" fill="black"/>
<path d="M149.679 57.8203H143.899V63.6003H149.679V57.8203Z" fill="#DB4B03"/>
<path d="M149.679 52.1001H143.899V57.8201H149.679V52.1001Z" fill="#FF5A00"/>
<path d="M149.679 46.3203H143.899V52.1003H149.679V46.3203Z" fill="#DB4B03"/>
<path d="M149.679 40.5898H143.899V46.3098H149.679V40.5898Z" fill="#DB4B03"/>
<path d="M149.679 34.8101H143.899V40.5901H149.679V34.8101Z" fill="black"/>
<path d="M149.679 29.0303H143.899V34.8103H149.679V29.0303Z" fill="black"/>
<path d="M143.9 207.48H138.12V213.2H143.9V207.48Z" fill="black"/>
<path d="M143.9 201.7H138.12V207.48H143.9V201.7Z" fill="#DB4B03"/>
<path d="M143.9 195.97H138.12V201.7H143.9V195.97Z" fill="#DB4B03"/>
<path d="M143.9 190.2H138.12V195.98H143.9V190.2Z" fill="#FF5A00"/>
<path d="M143.9 184.47H138.12V190.19H143.9V184.47Z" fill="#FF5A00"/>
<path d="M143.9 178.69H138.12V184.47H143.9V178.69Z" fill="#FF5A00"/>
<path d="M143.9 172.97H138.12V178.69H143.9V172.97Z" fill="#FF5A00"/>
<path d="M143.9 167.19H138.12V172.97H143.9V167.19Z" fill="#FF5A00"/>
<path d="M143.9 161.41H138.12V167.19H143.9V161.41Z" fill="#FF5A00"/>
<path d="M143.9 155.68H138.12V161.41H143.9V155.68Z" fill="#FF5A00"/>
<path d="M143.9 149.91H138.12V155.69H143.9V149.91Z" fill="#FF5A00"/>
<path d="M143.9 144.18H138.12V149.9H143.9V144.18Z" fill="#FF5A00"/>
<path d="M143.9 138.4H138.12V144.18H143.9V138.4Z" fill="#FF5A00"/>
<path d="M143.9 132.68H138.12V138.4H143.9V132.68Z" fill="#FF5A00"/>
<path d="M143.9 126.9H138.12V132.68H143.9V126.9Z" fill="#FF5A00"/>
<path d="M143.9 121.12H138.12V126.9H143.9V121.12Z" fill="#FF5A00"/>
<path d="M143.9 115.39H138.12V121.11H143.9V115.39Z" fill="#FF5A00"/>
<path d="M143.9 109.61H138.12V115.39H143.9V109.61Z" fill="#FF5A00"/>
<path d="M143.9 103.89H138.12V109.61H143.9V103.89Z" fill="#FF5A00"/>
<path d="M143.9 98.1099H138.12V103.89H143.9V98.1099Z" fill="#FF5A00"/>
<path d="M143.9 92.3901H138.12V98.1101H143.9V92.3901Z" fill="#FF5A00"/>
<path d="M143.9 86.6099H138.12V92.3899H143.9V86.6099Z" fill="#FF5A00"/>
<path d="M143.9 80.8799H138.12V86.5999H143.9V80.8799Z" fill="#DB4B03"/>
<path d="M143.9 75.1001H138.12V80.8801H143.9V75.1001Z" fill="#DB4B03"/>
<path d="M143.9 69.3203H138.12V75.1003H143.9V69.3203Z" fill="black"/>
<path d="M143.9 63.6001H138.12V69.3201H143.9V63.6001Z" fill="#DB4B03"/>
<path d="M143.9 57.8203H138.12V63.6003H143.9V57.8203Z" fill="#FF5A00"/>
<path d="M143.9 52.1001H138.12V57.8201H143.9V52.1001Z" fill="#FF5A00"/>
<path d="M143.9 46.3203H138.12V52.1003H143.9V46.3203Z" fill="#FF5A00"/>
<path d="M143.9 40.5898H138.12V46.3098H143.9V40.5898Z" fill="#DB4B03"/>
<path d="M143.9 34.8101H138.12V40.5901H143.9V34.8101Z" fill="#DB4B03"/>
<path d="M143.9 29.0303H138.12V34.8103H143.9V29.0303Z" fill="#DB4B03"/>
<path d="M143.9 23.3101H138.12V29.0301H143.9V23.3101Z" fill="black"/>
<path d="M143.9 17.5303H138.12V23.3103H143.9V17.5303Z" fill="black"/>
<path d="M138.11 207.48H132.39V213.2H138.11V207.48Z" fill="black"/>
<path d="M138.11 201.7H132.39V207.48H138.11V201.7Z" fill="#DB4B03"/>
<path d="M138.11 195.97H132.39V201.7H138.11V195.97Z" fill="#DB4B03"/>
<path d="M138.11 190.2H132.39V195.98H138.11V190.2Z" fill="#FF5A00"/>
<path d="M138.11 184.47H132.39V190.19H138.11V184.47Z" fill="#FF5A00"/>
<path d="M138.11 178.69H132.39V184.47H138.11V178.69Z" fill="#FF5A00"/>
<path d="M138.11 172.97H132.39V178.69H138.11V172.97Z" fill="#FF5A00"/>
<path d="M138.11 167.19H132.39V172.97H138.11V167.19Z" fill="#FF5A00"/>
<path d="M138.11 161.41H132.39V167.19H138.11V161.41Z" fill="#FF5A00"/>
<path d="M138.11 155.68H132.39V161.41H138.11V155.68Z" fill="#FF5A00"/>
<path d="M138.11 149.91H132.39V155.69H138.11V149.91Z" fill="#FF5A00"/>
<path d="M138.11 144.18H132.39V149.9H138.11V144.18Z" fill="#FF5A00"/>
<path d="M138.11 138.4H132.39V144.18H138.11V138.4Z" fill="#FF5A00"/>
<path d="M138.11 132.68H132.39V138.4H138.11V132.68Z" fill="#FF5A00"/>
<path d="M138.11 126.9H132.39V132.68H138.11V126.9Z" fill="#FF5A00"/>
<path d="M138.11 121.12H132.39V126.9H138.11V121.12Z" fill="#FF5A00"/>
<path d="M138.11 115.39H132.39V121.11H138.11V115.39Z" fill="#FF5A00"/>
<path d="M138.11 109.61H132.39V115.39H138.11V109.61Z" fill="#FF5A00"/>
<path d="M138.11 103.89H132.39V109.61H138.11V103.89Z" fill="#FF5A00"/>
<path d="M138.11 98.1099H132.39V103.89H138.11V98.1099Z" fill="#FF5A00"/>
<path d="M138.11 92.3901H132.39V98.1101H138.11V92.3901Z" fill="#FF5A00"/>
<path d="M138.11 86.6099H132.39V92.3899H138.11V86.6099Z" fill="#DB4B03"/>
<path d="M138.11 80.8799H132.39V86.5999H138.11V80.8799Z" fill="black"/>
<path d="M138.11 75.1001H132.39V80.8801H138.11V75.1001Z" fill="black"/>
<path d="M138.11 69.3203H132.39V75.1003H138.11V69.3203Z" fill="#FF5A00"/>
<path d="M138.11 63.6001H132.39V69.3201H138.11V63.6001Z" fill="black"/>
<path d="M138.11 57.8203H132.39V63.6003H138.11V57.8203Z" fill="#FF5A00"/>
<path d="M138.11 52.1001H132.39V57.8201H138.11V52.1001Z" fill="#FF5A00"/>
<path d="M138.11 46.3203H132.39V52.1003H138.11V46.3203Z" fill="#FF5A00"/>
<path d="M138.11 40.5898H132.39V46.3098H138.11V40.5898Z" fill="#FF5A00"/>
<path d="M138.11 34.8101H132.39V40.5901H138.11V34.8101Z" fill="#DB4B03"/>
<path d="M138.11 29.0303H132.39V34.8103H138.11V29.0303Z" fill="#DB4B03"/>
<path d="M138.11 23.3101H132.39V29.0301H138.11V23.3101Z" fill="#DB4B03"/>
<path d="M138.11 17.5303H132.39V23.3103H138.11V17.5303Z" fill="black"/>
<path d="M138.11 11.8101H132.39V17.5301H138.11V11.8101Z" fill="black"/>
<path d="M138.11 6.03027H132.39V11.8103H138.11V6.03027Z" fill="black"/>
<path d="M132.389 207.48H126.609V213.2H132.389V207.48Z" fill="black"/>
<path d="M132.389 201.7H126.609V207.48H132.389V201.7Z" fill="#DB4B03"/>
<path d="M132.389 195.97H126.609V201.7H132.389V195.97Z" fill="#FF5A00"/>
<path d="M132.389 190.2H126.609V195.98H132.389V190.2Z" fill="#FF5A00"/>
<path d="M132.389 184.47H126.609V190.19H132.389V184.47Z" fill="#FF5A00"/>
<path d="M132.389 178.69H126.609V184.47H132.389V178.69Z" fill="#FF5A00"/>
<path d="M132.389 172.97H126.609V178.69H132.389V172.97Z" fill="#FF5A00"/>
<path d="M132.389 167.19H126.609V172.97H132.389V167.19Z" fill="#FF5A00"/>
<path d="M132.389 161.41H126.609V167.19H132.389V161.41Z" fill="#FF5A00"/>
<path d="M132.389 155.68H126.609V161.41H132.389V155.68Z" fill="#FF5A00"/>
<path d="M132.389 149.91H126.609V155.69H132.389V149.91Z" fill="#FF5A00"/>
<path d="M132.389 144.18H126.609V149.9H132.389V144.18Z" fill="#FF5A00"/>
<path d="M132.389 138.4H126.609V144.18H132.389V138.4Z" fill="#FF5A00"/>
<path d="M132.389 132.68H126.609V138.4H132.389V132.68Z" fill="#FF5A00"/>
<path d="M132.389 126.9H126.609V132.68H132.389V126.9Z" fill="#FF5A00"/>
<path d="M132.389 121.12H126.609V126.9H132.389V121.12Z" fill="#FF5A00"/>
<path d="M132.389 115.39H126.609V121.11H132.389V115.39Z" fill="#FF5A00"/>
<path d="M132.389 109.61H126.609V115.39H132.389V109.61Z" fill="#DB4B03"/>
<path d="M132.389 103.89H126.609V109.61H132.389V103.89Z" fill="#DB4B03"/>
<path d="M132.389 98.1099H126.609V103.89H132.389V98.1099Z" fill="#DB4B03"/>
<path d="M132.389 92.3901H126.609V98.1101H132.389V92.3901Z" fill="#DB4B03"/>
<path d="M132.389 86.6099H126.609V92.3899H132.389V86.6099Z" fill="#6B1F01"/>
<path d="M132.389 80.8799H126.609V86.5999H132.389V80.8799Z" fill="#6B1F01"/>
<path d="M132.389 75.1001H126.609V80.8801H132.389V75.1001Z" fill="black"/>
<path d="M132.389 69.3203H126.609V75.1003H132.389V69.3203Z" fill="#FF5A00"/>
<path d="M132.389 63.6001H126.609V69.3201H132.389V63.6001Z" fill="black"/>
<path d="M132.389 57.8203H126.609V63.6003H132.389V57.8203Z" fill="black"/>
<path d="M132.389 52.1001H126.609V57.8201H132.389V52.1001Z" fill="#FF5A00"/>
<path d="M132.389 46.3203H126.609V52.1003H132.389V46.3203Z" fill="#FF5A00"/>
<path d="M132.389 40.5898H126.609V46.3098H132.389V40.5898Z" fill="#FF5A00"/>
<path d="M132.389 34.8101H126.609V40.5901H132.389V34.8101Z" fill="#FF5A00"/>
<path d="M132.389 29.0303H126.609V34.8103H132.389V29.0303Z" fill="#FF5A00"/>
<path d="M132.389 23.3101H126.609V29.0301H132.389V23.3101Z" fill="#DB4B03"/>
<path d="M132.389 17.5303H126.609V23.3103H132.389V17.5303Z" fill="#DB4B03"/>
<path d="M132.389 11.8101H126.609V17.5301H132.389V11.8101Z" fill="#FF5A00"/>
<path d="M132.389 6.03027H126.609V11.8103H132.389V6.03027Z" fill="black"/>
<path d="M126.61 207.48H120.89V213.2H126.61V207.48Z" fill="black"/>
<path d="M126.61 201.7H120.89V207.48H126.61V201.7Z" fill="black"/>
<path d="M126.61 195.97H120.89V201.7H126.61V195.97Z" fill="black"/>
<path d="M126.61 190.2H120.89V195.98H126.61V190.2Z" fill="black"/>
<path d="M126.61 184.47H120.89V190.19H126.61V184.47Z" fill="black"/>
<path d="M126.61 178.69H120.89V184.47H126.61V178.69Z" fill="black"/>
<path d="M126.61 172.97H120.89V178.69H126.61V172.97Z" fill="black"/>
<path d="M126.61 167.19H120.89V172.97H126.61V167.19Z" fill="black"/>
<path d="M126.61 161.41H120.89V167.19H126.61V161.41Z" fill="black"/>
<path d="M126.61 155.68H120.89V161.41H126.61V155.68Z" fill="black"/>
<path d="M126.61 149.91H120.89V155.69H126.61V149.91Z" fill="black"/>
<path d="M126.61 144.18H120.89V149.9H126.61V144.18Z" fill="black"/>
<path d="M126.61 138.4H120.89V144.18H126.61V138.4Z" fill="black"/>
<path d="M126.61 132.68H120.89V138.4H126.61V132.68Z" fill="black"/>
<path d="M126.61 126.9H120.89V132.68H126.61V126.9Z" fill="black"/>
<path d="M126.61 121.12H120.89V126.9H126.61V121.12Z" fill="black"/>
<path d="M126.61 115.39H120.89V121.11H126.61V115.39Z" fill="black"/>
<path d="M126.61 109.61H120.89V115.39H126.61V109.61Z" fill="black"/>
<path d="M126.61 103.89H120.89V109.61H126.61V103.89Z" fill="black"/>
<path d="M126.61 98.1099H120.89V103.89H126.61V98.1099Z" fill="black"/>
<path d="M126.61 92.3901H120.89V98.1101H126.61V92.3901Z" fill="black"/>
<path d="M126.61 86.6099H120.89V92.3899H126.61V86.6099Z" fill="#200621"/>
<path d="M126.61 80.8799H120.89V86.5999H126.61V80.8799Z" fill="#6B1F01"/>
<path d="M126.61 75.1001H120.89V80.8801H126.61V75.1001Z" fill="black"/>
<path d="M126.61 69.3203H120.89V75.1003H126.61V69.3203Z" fill="black"/>
<path d="M126.61 63.6001H120.89V69.3201H126.61V63.6001Z" fill="#200621"/>
<path d="M126.61 57.8203H120.89V63.6003H126.61V57.8203Z" fill="#200621"/>
<path d="M126.61 52.1001H120.89V57.8201H126.61V52.1001Z" fill="black"/>
<path d="M126.61 46.3203H120.89V52.1003H126.61V46.3203Z" fill="#FF5A00"/>
<path d="M126.61 40.5898H120.89V46.3098H126.61V40.5898Z" fill="#FF5A00"/>
<path d="M126.61 34.8101H120.89V40.5901H126.61V34.8101Z" fill="#FF5A00"/>
<path d="M126.61 29.0303H120.89V34.8103H126.61V29.0303Z" fill="#FF5A00"/>
<path d="M126.61 23.3101H120.89V29.0301H126.61V23.3101Z" fill="#FF5A00"/>
<path d="M126.61 17.5303H120.89V23.3103H126.61V17.5303Z" fill="#DB4B03"/>
<path d="M126.61 11.8101H120.89V17.5301H126.61V11.8101Z" fill="#DB4B03"/>
<path d="M126.61 6.03027H120.89V11.8103H126.61V6.03027Z" fill="#DB4B03"/>
<path d="M126.61 0.310059H120.89V6.03006H126.61V0.310059Z" fill="black"/>
<path d="M120.889 207.48H115.109V213.2H120.889V207.48Z" fill="black"/>
<path d="M120.889 190.2H115.109V195.98H120.889V190.2Z" fill="black"/>
<path d="M120.889 161.41H115.109V167.19H120.889V161.41Z" fill="#200621"/>
<path d="M120.889 155.68H115.109V161.41H120.889V155.68Z" fill="#6B1F01"/>
<path d="M120.889 149.91H115.109V155.69H120.889V149.91Z" fill="#6B1F01"/>
<path d="M120.889 144.18H115.109V149.9H120.889V144.18Z" fill="#6B1F01"/>
<path d="M120.889 138.4H115.109V144.18H120.889V138.4Z" fill="#6B1F01"/>
<path d="M120.889 132.68H115.109V138.4H120.889V132.68Z" fill="#6B1F01"/>
<path d="M120.889 126.9H115.109V132.68H120.889V126.9Z" fill="#200621"/>
<path d="M120.889 121.12H115.109V126.9H120.889V121.12Z" fill="#6B1F01"/>
<path d="M120.889 115.39H115.109V121.11H120.889V115.39Z" fill="#6B1F01"/>
<path d="M120.889 109.61H115.109V115.39H120.889V109.61Z" fill="#6B1F01"/>
<path d="M120.889 103.89H115.109V109.61H120.889V103.89Z" fill="#6B1F01"/>
<path d="M120.889 98.1099H115.109V103.89H120.889V98.1099Z" fill="#6B1F01"/>
<path d="M120.889 92.3901H115.109V98.1101H120.889V92.3901Z" fill="#6B1F01"/>
<path d="M120.889 86.6099H115.109V92.3899H120.889V86.6099Z" fill="#200621"/>
<path d="M120.889 80.8799H115.109V86.5999H120.889V80.8799Z" fill="#6B1F01"/>
<path d="M120.889 75.1001H115.109V80.8801H120.889V75.1001Z" fill="black"/>
<path d="M120.889 69.3203H115.109V75.1003H120.889V69.3203Z" fill="#200621"/>
<path d="M120.889 63.6001H115.109V69.3201H120.889V63.6001Z" fill="#200621"/>
<path d="M120.889 57.8203H115.109V63.6003H120.889V57.8203Z" fill="#200621"/>
<path d="M120.889 52.1001H115.109V57.8201H120.889V52.1001Z" fill="#200621"/>
<path d="M120.889 46.3203H115.109V52.1003H120.889V46.3203Z" fill="black"/>
<path d="M120.889 40.5898H115.109V46.3098H120.889V40.5898Z" fill="#FF5A00"/>
<path d="M120.889 34.8101H115.109V40.5901H120.889V34.8101Z" fill="#FF5A00"/>
<path d="M120.889 29.0303H115.109V34.8103H120.889V29.0303Z" fill="#FF5A00"/>
<path d="M120.889 23.3101H115.109V29.0301H120.889V23.3101Z" fill="#FF5A00"/>
<path d="M120.889 17.5303H115.109V23.3103H120.889V17.5303Z" fill="#FF5A00"/>
<path d="M120.889 11.8101H115.109V17.5301H120.889V11.8101Z" fill="#FF5A00"/>
<path d="M120.889 6.03027H115.109V11.8103H120.889V6.03027Z" fill="#DB4B03"/>
<path d="M120.889 0.310059H115.109V6.03006H120.889V0.310059Z" fill="black"/>
<path d="M115.11 207.48H109.39V213.2H115.11V207.48Z" fill="black"/>
<path d="M115.11 201.7H109.39V207.48H115.11V201.7Z" fill="black"/>
<path d="M115.11 195.97H109.39V201.7H115.11V195.97Z" fill="black"/>
<path d="M115.11 161.41H109.39V167.19H115.11V161.41Z" fill="#200621"/>
<path d="M115.11 155.68H109.39V161.41H115.11V155.68Z" fill="#7C2A05"/>
<path d="M115.11 149.91H109.39V155.69H115.11V149.91Z" fill="#6B1F01"/>
<path d="M115.11 144.18H109.39V149.9H115.11V144.18Z" fill="#6B1F01"/>
<path d="M115.11 138.4H109.39V144.18H115.11V138.4Z" fill="#6B1F01"/>
<path d="M115.11 132.68H109.39V138.4H115.11V132.68Z" fill="#6B1F01"/>
<path d="M115.11 126.9H109.39V132.68H115.11V126.9Z" fill="#200621"/>
<path d="M115.11 121.12H109.39V126.9H115.11V121.12Z" fill="#200621"/>
<path d="M115.11 115.39H109.39V121.11H115.11V115.39Z" fill="#7C2A05"/>
<path d="M115.11 109.61H109.39V115.39H115.11V109.61Z" fill="#7C2A05"/>
<path d="M115.11 103.89H109.39V109.61H115.11V103.89Z" fill="#6B1F01"/>
<path d="M115.11 98.1099H109.39V103.89H115.11V98.1099Z" fill="#6B1F01"/>
<path d="M115.11 92.3901H109.39V98.1101H115.11V92.3901Z" fill="#6B1F01"/>
<path d="M115.11 86.6099H109.39V92.3899H115.11V86.6099Z" fill="#200621"/>
<path d="M115.11 80.8799H109.39V86.5999H115.11V80.8799Z" fill="#7C2A05"/>
<path d="M115.11 75.1001H109.39V80.8801H115.11V75.1001Z" fill="#6B1F01"/>
<path d="M115.11 69.3203H109.39V75.1003H115.11V69.3203Z" fill="#200621"/>
<path d="M115.11 63.6001H109.39V69.3201H115.11V63.6001Z" fill="#200621"/>
<path d="M115.11 57.8203H109.39V63.6003H115.11V57.8203Z" fill="#200621"/>
<path d="M115.11 52.1001H109.39V57.8201H115.11V52.1001Z" fill="#200621"/>
<path d="M115.11 46.3203H109.39V52.1003H115.11V46.3203Z" fill="#200621"/>
<path d="M115.11 40.5898H109.39V46.3098H115.11V40.5898Z" fill="black"/>
<path d="M115.11 34.8101H109.39V40.5901H115.11V34.8101Z" fill="#FF5A00"/>
<path d="M115.11 29.0303H109.39V34.8103H115.11V29.0303Z" fill="#FF5A00"/>
<path d="M115.11 23.3101H109.39V29.0301H115.11V23.3101Z" fill="#FF5A00"/>
<path d="M115.11 17.5303H109.39V23.3103H115.11V17.5303Z" fill="#FF5A00"/>
<path d="M115.11 11.8101H109.39V17.5301H115.11V11.8101Z" fill="#FF5A00"/>
<path d="M115.11 6.03027H109.39V11.8103H115.11V6.03027Z" fill="#FF5A00"/>
<path d="M115.11 0.310059H109.39V6.03006H115.11V0.310059Z" fill="black"/>
<path d="M109.389 207.48H103.609V213.2H109.389V207.48Z" fill="black"/>
<path d="M109.389 161.41H103.609V167.19H109.389V161.41Z" fill="#200621"/>
<path d="M109.389 155.68H103.609V161.41H109.389V155.68Z" fill="#7C2A05"/>
<path d="M109.389 149.91H103.609V155.69H109.389V149.91Z" fill="#7C2A05"/>
<path d="M109.389 144.18H103.609V149.9H109.389V144.18Z" fill="#7C2A05"/>
<path d="M109.389 138.4H103.609V144.18H109.389V138.4Z" fill="#6B1F01"/>
<path d="M109.389 132.68H103.609V138.4H109.389V132.68Z" fill="#6B1F01"/>
<path d="M109.389 126.9H103.609V132.68H109.389V126.9Z" fill="#6B1F01"/>
<path d="M109.389 121.12H103.609V126.9H109.389V121.12Z" fill="#200621"/>
<path d="M109.389 115.39H103.609V121.11H109.389V115.39Z" fill="#7C2A05"/>
<path d="M109.389 109.61H103.609V115.39H109.389V109.61Z" fill="#7C2A05"/>
<path d="M109.389 103.89H103.609V109.61H109.389V103.89Z" fill="#7C2A05"/>
<path d="M109.389 98.1099H103.609V103.89H109.389V98.1099Z" fill="#6B1F01"/>
<path d="M109.389 92.3901H103.609V98.1101H109.389V92.3901Z" fill="#6B1F01"/>
<path d="M109.389 86.6099H103.609V92.3899H109.389V86.6099Z" fill="#200621"/>
<path d="M109.389 80.8799H103.609V86.5999H109.389V80.8799Z" fill="#7C2A05"/>
<path d="M109.389 75.1001H103.609V80.8801H109.389V75.1001Z" fill="#200621"/>
<path d="M109.389 69.3203H103.609V75.1003H109.389V69.3203Z" fill="#200621"/>
<path d="M109.389 63.6001H103.609V69.3201H109.389V63.6001Z" fill="#200621"/>
<path d="M109.389 57.8203H103.609V63.6003H109.389V57.8203Z" fill="#200621"/>
<path d="M109.389 52.1001H103.609V57.8201H109.389V52.1001Z" fill="#200621"/>
<path d="M109.389 46.3203H103.609V52.1003H109.389V46.3203Z" fill="#200621"/>
<path d="M109.389 40.5898H103.609V46.3098H109.389V40.5898Z" fill="#200621"/>
<path d="M109.389 34.8101H103.609V40.5901H109.389V34.8101Z" fill="black"/>
<path d="M109.389 29.0303H103.609V34.8103H109.389V29.0303Z" fill="#FF5A00"/>
<path d="M109.389 23.3101H103.609V29.0301H109.389V23.3101Z" fill="#FF5A00"/>
<path d="M109.389 17.5303H103.609V23.3103H109.389V17.5303Z" fill="#FF5A00"/>
<path d="M109.389 11.8101H103.609V17.5301H109.389V11.8101Z" fill="#FF5A00"/>
<path d="M109.389 6.03027H103.609V11.8103H109.389V6.03027Z" fill="#FF5A00"/>
<path d="M109.389 0.310059H103.609V6.03006H109.389V0.310059Z" fill="black"/>
<path d="M103.6 207.48H97.8799V213.2H103.6V207.48Z" fill="black"/>
<path d="M103.6 201.7H97.8799V207.48H103.6V201.7Z" fill="black"/>
<path d="M103.6 195.97H97.8799V201.7H103.6V195.97Z" fill="#200621"/>
<path d="M103.6 190.2H97.8799V195.98H103.6V190.2Z" fill="#200621"/>
<path d="M103.6 184.47H97.8799V190.19H103.6V184.47Z" fill="#200621"/>
<path d="M103.6 178.69H97.8799V184.47H103.6V178.69Z" fill="#200621"/>
<path d="M103.6 172.97H97.8799V178.69H103.6V172.97Z" fill="#200621"/>
<path d="M103.6 167.19H97.8799V172.97H103.6V167.19Z" fill="#200621"/>
<path d="M103.6 161.41H97.8799V167.19H103.6V161.41Z" fill="#7C2A05"/>
<path d="M103.6 155.68H97.8799V161.41H103.6V155.68Z" fill="#7C2A05"/>
<path d="M103.6 149.91H97.8799V155.69H103.6V149.91Z" fill="#7C2A05"/>
<path d="M103.6 144.18H97.8799V149.9H103.6V144.18Z" fill="#7C2A05"/>
<path d="M103.6 138.4H97.8799V144.18H103.6V138.4Z" fill="#7C2A05"/>
<path d="M103.6 132.68H97.8799V138.4H103.6V132.68Z" fill="#7C2A05"/>
<path d="M103.6 126.9H97.8799V132.68H103.6V126.9Z" fill="#6B1F01"/>
<path d="M103.6 121.12H97.8799V126.9H103.6V121.12Z" fill="#200621"/>
<path d="M103.6 115.39H97.8799V121.11H103.6V115.39Z" fill="#200621"/>
<path d="M103.6 109.61H97.8799V115.39H103.6V109.61Z" fill="#7C2A05"/>
<path d="M103.6 103.89H97.8799V109.61H103.6V103.89Z" fill="#7C2A05"/>
<path d="M103.6 98.1099H97.8799V103.89H103.6V98.1099Z" fill="#7C2A05"/>
<path d="M103.6 92.3901H97.8799V98.1101H103.6V92.3901Z" fill="#6B1F01"/>
<path d="M103.6 86.6099H97.8799V92.3899H103.6V86.6099Z" fill="#200621"/>
<path d="M103.6 80.8799H97.8799V86.5999H103.6V80.8799Z" fill="#7C2A05"/>
<path d="M103.6 75.1001H97.8799V80.8801H103.6V75.1001Z" fill="#200621"/>
<path d="M103.6 69.3203H97.8799V75.1003H103.6V69.3203Z" fill="#200621"/>
<path d="M103.6 63.6001H97.8799V69.3201H103.6V63.6001Z" fill="#200621"/>
<path d="M103.6 57.8203H97.8799V63.6003H103.6V57.8203Z" fill="#200621"/>
<path d="M103.6 52.1001H97.8799V57.8201H103.6V52.1001Z" fill="#200621"/>
<path d="M103.6 46.3203H97.8799V52.1003H103.6V46.3203Z" fill="#200621"/>
<path d="M103.6 40.5898H97.8799V46.3098H103.6V40.5898Z" fill="#200621"/>
<path d="M103.6 34.8101H97.8799V40.5901H103.6V34.8101Z" fill="black"/>
<path d="M103.6 29.0303H97.8799V34.8103H103.6V29.0303Z" fill="black"/>
<path d="M103.6 23.3101H97.8799V29.0301H103.6V23.3101Z" fill="#FF5A00"/>
<path d="M103.6 17.5303H97.8799V23.3103H103.6V17.5303Z" fill="#FF5A00"/>
<path d="M103.6 11.8101H97.8799V17.5301H103.6V11.8101Z" fill="#FF5A00"/>
<path d="M103.6 6.03027H97.8799V11.8103H103.6V6.03027Z" fill="#FF5A00"/>
<path d="M103.6 0.310059H97.8799V6.03006H103.6V0.310059Z" fill="black"/>
<path d="M97.8796 207.48H92.0996V213.2H97.8796V207.48Z" fill="black"/>
<path d="M97.8796 161.41H92.0996V167.19H97.8796V161.41Z" fill="#200621"/>
<path d="M97.8796 155.68H92.0996V161.41H97.8796V155.68Z" fill="#7C2A05"/>
<path d="M97.8796 149.91H92.0996V155.69H97.8796V149.91Z" fill="#7C2A05"/>
<path d="M97.8796 144.18H92.0996V149.9H97.8796V144.18Z" fill="#7C2A05"/>
<path d="M97.8796 138.4H92.0996V144.18H97.8796V138.4Z" fill="#7C2A05"/>
<path d="M97.8796 132.68H92.0996V138.4H97.8796V132.68Z" fill="#7C2A05"/>
<path d="M97.8796 126.9H92.0996V132.68H97.8796V126.9Z" fill="#7C2A05"/>
<path d="M97.8796 121.12H92.0996V126.9H97.8796V121.12Z" fill="#7C2A05"/>
<path d="M97.8796 115.39H92.0996V121.11H97.8796V115.39Z" fill="#200621"/>
<path d="M97.8796 109.61H92.0996V115.39H97.8796V109.61Z" fill="#6B1F01"/>
<path d="M97.8796 103.89H92.0996V109.61H97.8796V103.89Z" fill="#7C2A05"/>
<path d="M97.8796 98.1099H92.0996V103.89H97.8796V98.1099Z" fill="#7C2A05"/>
<path d="M97.8796 92.3901H92.0996V98.1101H97.8796V92.3901Z" fill="#7C2A05"/>
<path d="M97.8796 86.6099H92.0996V92.3899H97.8796V86.6099Z" fill="#200621"/>
<path d="M97.8796 80.8799H92.0996V86.5999H97.8796V80.8799Z" fill="#200621"/>
<path d="M97.8796 75.1001H92.0996V80.8801H97.8796V75.1001Z" fill="#200621"/>
<path d="M97.8796 69.3203H92.0996V75.1003H97.8796V69.3203Z" fill="#200621"/>
<path d="M97.8796 63.6001H92.0996V69.3201H97.8796V63.6001Z" fill="#200621"/>
<path d="M97.8796 57.8203H92.0996V63.6003H97.8796V57.8203Z" fill="#200621"/>
<path d="M97.8796 52.1001H92.0996V57.8201H97.8796V52.1001Z" fill="#200621"/>
<path d="M97.8796 46.3203H92.0996V52.1003H97.8796V46.3203Z" fill="#200621"/>
<path d="M97.8796 40.5898H92.0996V46.3098H97.8796V40.5898Z" fill="#200621"/>
<path d="M97.8796 34.8101H92.0996V40.5901H97.8796V34.8101Z" fill="#200621"/>
<path d="M97.8796 29.0303H92.0996V34.8103H97.8796V29.0303Z" fill="black"/>
<path d="M97.8796 23.3101H92.0996V29.0301H97.8796V23.3101Z" fill="#FF5A00"/>
<path d="M97.8796 17.5303H92.0996V23.3103H97.8796V17.5303Z" fill="#FF5A00"/>
<path d="M97.8796 11.8101H92.0996V17.5301H97.8796V11.8101Z" fill="#FF5A00"/>
<path d="M97.8796 6.03027H92.0996V11.8103H97.8796V6.03027Z" fill="black"/>
<path d="M92.1003 207.48H86.3203V213.2H92.1003V207.48Z" fill="black"/>
<path d="M92.1003 201.7H86.3203V207.48H92.1003V201.7Z" fill="black"/>
<path d="M92.1003 155.68H86.3203V161.41H92.1003V155.68Z" fill="#200621"/>
<path d="M92.1003 149.91H86.3203V155.69H92.1003V149.91Z" fill="#6B1F01"/>
<path d="M92.1003 144.18H86.3203V149.9H92.1003V144.18Z" fill="#7C2A05"/>
<path d="M92.1003 138.4H86.3203V144.18H92.1003V138.4Z" fill="#7C2A05"/>
<path d="M92.1003 132.68H86.3203V138.4H92.1003V132.68Z" fill="#7C2A05"/>
<path d="M92.1003 126.9H86.3203V132.68H92.1003V126.9Z" fill="#7C2A05"/>
<path d="M92.1003 121.12H86.3203V126.9H92.1003V121.12Z" fill="#6B1F01"/>
<path d="M92.1003 115.39H86.3203V121.11H92.1003V115.39Z" fill="#200621"/>
<path d="M92.1003 109.61H86.3203V115.39H92.1003V109.61Z" fill="#6B1F01"/>
<path d="M92.1003 103.89H86.3203V109.61H92.1003V103.89Z" fill="#200621"/>
<path d="M92.1003 98.1099H86.3203V103.89H92.1003V98.1099Z" fill="#200621"/>
<path d="M92.1003 92.3901H86.3203V98.1101H92.1003V92.3901Z" fill="#200621"/>
<path d="M92.1003 86.6099H86.3203V92.3899H92.1003V86.6099Z" fill="#6B1F01"/>
<path d="M92.1003 80.8799H86.3203V86.5999H92.1003V80.8799Z" fill="#200621"/>
<path d="M92.1003 75.1001H86.3203V80.8801H92.1003V75.1001Z" fill="#200621"/>
<path d="M92.1003 69.3203H86.3203V75.1003H92.1003V69.3203Z" fill="#200621"/>
<path d="M92.1003 63.6001H86.3203V69.3201H92.1003V63.6001Z" fill="#200621"/>
<path d="M92.1003 57.8203H86.3203V63.6003H92.1003V57.8203Z" fill="#200621"/>
<path d="M92.1003 52.1001H86.3203V57.8201H92.1003V52.1001Z" fill="#200621"/>
<path d="M92.1003 46.3203H86.3203V52.1003H92.1003V46.3203Z" fill="#200621"/>
<path d="M92.1003 40.5898H86.3203V46.3098H92.1003V40.5898Z" fill="#200621"/>
<path d="M92.1003 34.8101H86.3203V40.5901H92.1003V34.8101Z" fill="#200621"/>
<path d="M92.1003 29.0303H86.3203V34.8103H92.1003V29.0303Z" fill="black"/>
<path d="M92.1003 23.3101H86.3203V29.0301H92.1003V23.3101Z" fill="#FF5A00"/>
<path d="M92.1003 17.5303H86.3203V23.3103H92.1003V17.5303Z" fill="#FF5A00"/>
<path d="M92.1003 11.8101H86.3203V17.5301H92.1003V11.8101Z" fill="#FF5A00"/>
<path d="M92.1003 6.03027H86.3203V11.8103H92.1003V6.03027Z" fill="black"/>
<path d="M86.3196 207.48H80.5996V213.2H86.3196V207.48Z" fill="black"/>
<path d="M86.3196 195.97H80.5996V201.7H86.3196V195.97Z" fill="black"/>
<path d="M86.3196 190.2H80.5996V195.98H86.3196V190.2Z" fill="black"/>
<path d="M86.3196 155.68H80.5996V161.41H86.3196V155.68Z" fill="#200621"/>
<path d="M86.3196 149.91H80.5996V155.69H86.3196V149.91Z" fill="#6B1F01"/>
<path d="M86.3196 144.18H80.5996V149.9H86.3196V144.18Z" fill="#7C2A05"/>
<path d="M86.3196 138.4H80.5996V144.18H86.3196V138.4Z" fill="#7C2A05"/>
<path d="M86.3196 132.68H80.5996V138.4H86.3196V132.68Z" fill="#6B1F01"/>
<path d="M86.3196 126.9H80.5996V132.68H86.3196V126.9Z" fill="#6B1F01"/>
<path d="M86.3196 121.12H80.5996V126.9H86.3196V121.12Z" fill="#6B1F01"/>
<path d="M86.3196 115.39H80.5996V121.11H86.3196V115.39Z" fill="#6B1F01"/>
<path d="M86.3196 109.61H80.5996V115.39H86.3196V109.61Z" fill="#200621"/>
<path d="M86.3196 103.89H80.5996V109.61H86.3196V103.89Z" fill="#7C2A05"/>
<path d="M86.3196 98.1099H80.5996V103.89H86.3196V98.1099Z" fill="#7C2A05"/>
<path d="M86.3196 92.3901H80.5996V98.1101H86.3196V92.3901Z" fill="#7C2A05"/>
<path d="M86.3196 86.6099H80.5996V92.3899H86.3196V86.6099Z" fill="black"/>
<path d="M86.3196 80.8799H80.5996V86.5999H86.3196V80.8799Z" fill="black"/>
<path d="M86.3196 75.1001H80.5996V80.8801H86.3196V75.1001Z" fill="black"/>
<path d="M86.3196 69.3203H80.5996V75.1003H86.3196V69.3203Z" fill="black"/>
<path d="M86.3196 63.6001H80.5996V69.3201H86.3196V63.6001Z" fill="#200621"/>
<path d="M86.3196 57.8203H80.5996V63.6003H86.3196V57.8203Z" fill="#200621"/>
<path d="M86.3196 52.1001H80.5996V57.8201H86.3196V52.1001Z" fill="#200621"/>
<path d="M86.3196 46.3203H80.5996V52.1003H86.3196V46.3203Z" fill="#200621"/>
<path d="M86.3196 40.5898H80.5996V46.3098H86.3196V40.5898Z" fill="#200621"/>
<path d="M86.3196 34.8101H80.5996V40.5901H86.3196V34.8101Z" fill="#200621"/>
<path d="M86.3196 29.0303H80.5996V34.8103H86.3196V29.0303Z" fill="black"/>
<path d="M86.3196 23.3101H80.5996V29.0301H86.3196V23.3101Z" fill="#DB4B03"/>
<path d="M86.3196 17.5303H80.5996V23.3103H86.3196V17.5303Z" fill="#DB4B03"/>
<path d="M86.3196 11.8101H80.5996V17.5301H86.3196V11.8101Z" fill="black"/>
<path d="M80.6003 207.48H74.8203V213.2H80.6003V207.48Z" fill="black"/>
<path d="M80.6003 201.7H74.8203V207.48H80.6003V201.7Z" fill="black"/>
<path d="M80.6003 195.97H74.8203V201.7H80.6003V195.97Z" fill="black"/>
<path d="M80.6003 190.2H74.8203V195.98H80.6003V190.2Z" fill="black"/>
<path d="M80.6003 184.47H74.8203V190.19H80.6003V184.47Z" fill="black"/>
<path d="M80.6003 178.69H74.8203V184.47H80.6003V178.69Z" fill="black"/>
<path d="M80.6003 172.97H74.8203V178.69H80.6003V172.97Z" fill="black"/>
<path d="M80.6003 167.19H74.8203V172.97H80.6003V167.19Z" fill="black"/>
<path d="M80.6003 161.41H74.8203V167.19H80.6003V161.41Z" fill="black"/>
<path d="M80.6003 155.68H74.8203V161.41H80.6003V155.68Z" fill="black"/>
<path d="M80.6003 149.91H74.8203V155.69H80.6003V149.91Z" fill="black"/>
<path d="M80.6003 144.18H74.8203V149.9H80.6003V144.18Z" fill="black"/>
<path d="M80.6003 138.4H74.8203V144.18H80.6003V138.4Z" fill="black"/>
<path d="M80.6003 132.68H74.8203V138.4H80.6003V132.68Z" fill="black"/>
<path d="M80.6003 126.9H74.8203V132.68H80.6003V126.9Z" fill="black"/>
<path d="M80.6003 121.12H74.8203V126.9H80.6003V121.12Z" fill="black"/>
<path d="M80.6003 115.39H74.8203V121.11H80.6003V115.39Z" fill="black"/>
<path d="M80.6003 109.61H74.8203V115.39H80.6003V109.61Z" fill="black"/>
<path d="M80.6003 103.89H74.8203V109.61H80.6003V103.89Z" fill="black"/>
<path d="M80.6003 98.1099H74.8203V103.89H80.6003V98.1099Z" fill="#7C2A05"/>
<path d="M80.6003 92.3901H74.8203V98.1101H80.6003V92.3901Z" fill="black"/>
<path d="M80.6003 86.6099H74.8203V92.3899H80.6003V86.6099Z" fill="#DB4B03"/>
<path d="M80.6003 80.8799H74.8203V86.5999H80.6003V80.8799Z" fill="#DB4B03"/>
<path d="M80.6003 75.1001H74.8203V80.8801H80.6003V75.1001Z" fill="black"/>
<path d="M80.6003 63.6001H74.8203V69.3201H80.6003V63.6001Z" fill="black"/>
<path d="M80.6003 57.8203H74.8203V63.6003H80.6003V57.8203Z" fill="black"/>
<path d="M80.6003 52.1001H74.8203V57.8201H80.6003V52.1001Z" fill="#200621"/>
<path d="M80.6003 46.3203H74.8203V52.1003H80.6003V46.3203Z" fill="black"/>
<path d="M80.6003 40.5898H74.8203V46.3098H80.6003V40.5898Z" fill="black"/>
<path d="M80.6003 34.8101H74.8203V40.5901H80.6003V34.8101Z" fill="black"/>
<path d="M80.6003 29.0303H74.8203V34.8103H80.6003V29.0303Z" fill="#DB4B03"/>
<path d="M80.6003 23.3101H74.8203V29.0301H80.6003V23.3101Z" fill="#DB4B03"/>
<path d="M80.6003 17.5303H74.8203V23.3103H80.6003V17.5303Z" fill="black"/>
<path d="M74.8196 207.48H69.0996V213.2H74.8196V207.48Z" fill="black"/>
<path d="M74.8196 201.7H69.0996V207.48H74.8196V201.7Z" fill="#DB4B03"/>
<path d="M74.8196 195.97H69.0996V201.7H74.8196V195.97Z" fill="#DB4B03"/>
<path d="M74.8196 190.2H69.0996V195.98H74.8196V190.2Z" fill="#E54A05"/>
<path d="M74.8196 184.47H69.0996V190.19H74.8196V184.47Z" fill="#E54A05"/>
<path d="M74.8196 178.69H69.0996V184.47H74.8196V178.69Z" fill="#E54A05"/>
<path d="M74.8196 172.97H69.0996V178.69H74.8196V172.97Z" fill="#E54A05"/>
<path d="M74.8196 167.19H69.0996V172.97H74.8196V167.19Z" fill="#E54A05"/>
<path d="M74.8196 161.41H69.0996V167.19H74.8196V161.41Z" fill="#FF5A00"/>
<path d="M74.8196 155.68H69.0996V161.41H74.8196V155.68Z" fill="#FF5A00"/>
<path d="M74.8196 149.91H69.0996V155.69H74.8196V149.91Z" fill="#FF5A00"/>
<path d="M74.8196 144.18H69.0996V149.9H74.8196V144.18Z" fill="#FF5A00"/>
<path d="M74.8196 138.4H69.0996V144.18H74.8196V138.4Z" fill="#FF5A00"/>
<path d="M74.8196 132.68H69.0996V138.4H74.8196V132.68Z" fill="#FF5A00"/>
<path d="M74.8196 126.9H69.0996V132.68H74.8196V126.9Z" fill="#FF5A00"/>
<path d="M74.8196 121.12H69.0996V126.9H74.8196V121.12Z" fill="#FF5A00"/>
<path d="M74.8196 115.39H69.0996V121.11H74.8196V115.39Z" fill="#FF5A00"/>
<path d="M74.8196 109.61H69.0996V115.39H74.8196V109.61Z" fill="#FF5A00"/>
<path d="M74.8196 103.89H69.0996V109.61H74.8196V103.89Z" fill="#FF5A00"/>
<path d="M74.8196 98.1099H69.0996V103.89H74.8196V98.1099Z" fill="black"/>
<path d="M74.8196 92.3901H69.0996V98.1101H74.8196V92.3901Z" fill="#DB4B03"/>
<path d="M74.8196 86.6099H69.0996V92.3899H74.8196V86.6099Z" fill="#FF5A00"/>
<path d="M74.8196 80.8799H69.0996V86.5999H74.8196V80.8799Z" fill="#DB4B03"/>
<path d="M74.8196 75.1001H69.0996V80.8801H74.8196V75.1001Z" fill="black"/>
<path d="M74.8196 52.1001H69.0996V57.8201H74.8196V52.1001Z" fill="black"/>
<path d="M74.8196 46.3203H69.0996V52.1003H74.8196V46.3203Z" fill="black"/>
<path d="M74.8196 40.5898H69.0996V46.3098H74.8196V40.5898Z" fill="#DB4B03"/>
<path d="M74.8196 34.8101H69.0996V40.5901H74.8196V34.8101Z" fill="#DB4B03"/>
<path d="M74.8196 29.0303H69.0996V34.8103H74.8196V29.0303Z" fill="black"/>
<path d="M74.8196 23.3101H69.0996V29.0301H74.8196V23.3101Z" fill="black"/>
<path d="M69.1003 207.48H63.3203V213.2H69.1003V207.48Z" fill="black"/>
<path d="M69.1003 201.7H63.3203V207.48H69.1003V201.7Z" fill="#DB4B03"/>
<path d="M69.1003 195.97H63.3203V201.7H69.1003V195.97Z" fill="#DB4B03"/>
<path d="M69.1003 190.2H63.3203V195.98H69.1003V190.2Z" fill="#E54A05"/>
<path d="M69.1003 184.47H63.3203V190.19H69.1003V184.47Z" fill="#E54A05"/>
<path d="M69.1003 178.69H63.3203V184.47H69.1003V178.69Z" fill="#FF5A00"/>
<path d="M69.1003 172.97H63.3203V178.69H69.1003V172.97Z" fill="#FF5A00"/>
<path d="M69.1003 167.19H63.3203V172.97H69.1003V167.19Z" fill="#FF5A00"/>
<path d="M69.1003 161.41H63.3203V167.19H69.1003V161.41Z" fill="#FF5A00"/>
<path d="M69.1003 155.68H63.3203V161.41H69.1003V155.68Z" fill="#FF5A00"/>
<path d="M69.1003 149.91H63.3203V155.69H69.1003V149.91Z" fill="#FF5A00"/>
<path d="M69.1003 144.18H63.3203V149.9H69.1003V144.18Z" fill="#FF5A00"/>
<path d="M69.1003 138.4H63.3203V144.18H69.1003V138.4Z" fill="#FF5A00"/>
<path d="M69.1003 132.68H63.3203V138.4H69.1003V132.68Z" fill="#FF5A00"/>
<path d="M69.1003 126.9H63.3203V132.68H69.1003V126.9Z" fill="#FF5A00"/>
<path d="M69.1003 121.12H63.3203V126.9H69.1003V121.12Z" fill="#FF5A00"/>
<path d="M69.1003 115.39H63.3203V121.11H69.1003V115.39Z" fill="#FF5A00"/>
<path d="M69.1003 109.61H63.3203V115.39H69.1003V109.61Z" fill="#FF5A00"/>
<path d="M69.1003 103.89H63.3203V109.61H69.1003V103.89Z" fill="#DB4B03"/>
<path d="M69.1003 98.1099H63.3203V103.89H69.1003V98.1099Z" fill="#DB4B03"/>
<path d="M69.1003 92.3901H63.3203V98.1101H69.1003V92.3901Z" fill="#DB4B03"/>
<path d="M69.1003 86.6099H63.3203V92.3899H69.1003V86.6099Z" fill="#DB4B03"/>
<path d="M69.1003 80.8799H63.3203V86.5999H69.1003V80.8799Z" fill="black"/>
<path d="M69.1003 40.5898H63.3203V46.3098H69.1003V40.5898Z" fill="black"/>
<path d="M69.1003 34.8101H63.3203V40.5901H69.1003V34.8101Z" fill="black"/>
<path d="M63.3098 207.48H57.5898V213.2H63.3098V207.48Z" fill="black"/>
<path d="M63.3098 201.7H57.5898V207.48H63.3098V201.7Z" fill="black"/>
<path d="M63.3098 195.97H57.5898V201.7H63.3098V195.97Z" fill="black"/>
<path d="M63.3098 190.2H57.5898V195.98H63.3098V190.2Z" fill="black"/>
<path d="M63.3098 184.47H57.5898V190.19H63.3098V184.47Z" fill="black"/>
<path d="M63.3098 178.69H57.5898V184.47H63.3098V178.69Z" fill="black"/>
<path d="M63.3098 172.97H57.5898V178.69H63.3098V172.97Z" fill="black"/>
<path d="M63.3098 167.19H57.5898V172.97H63.3098V167.19Z" fill="black"/>
<path d="M63.3098 161.41H57.5898V167.19H63.3098V161.41Z" fill="black"/>
<path d="M63.3098 155.68H57.5898V161.41H63.3098V155.68Z" fill="black"/>
<path d="M63.3098 149.91H57.5898V155.69H63.3098V149.91Z" fill="black"/>
<path d="M63.3098 144.18H57.5898V149.9H63.3098V144.18Z" fill="black"/>
<path d="M63.3098 138.4H57.5898V144.18H63.3098V138.4Z" fill="black"/>
<path d="M63.3098 132.68H57.5898V138.4H63.3098V132.68Z" fill="black"/>
<path d="M63.3098 126.9H57.5898V132.68H63.3098V126.9Z" fill="black"/>
<path d="M63.3098 121.12H57.5898V126.9H63.3098V121.12Z" fill="black"/>
<path d="M63.3098 115.39H57.5898V121.11H63.3098V115.39Z" fill="black"/>
<path d="M63.3098 109.61H57.5898V115.39H63.3098V109.61Z" fill="black"/>
<path d="M63.3098 103.89H57.5898V109.61H63.3098V103.89Z" fill="black"/>
<path d="M63.3098 98.1099H57.5898V103.89H63.3098V98.1099Z" fill="black"/>
<path d="M63.3098 92.3901H57.5898V98.1101H63.3098V92.3901Z" fill="black"/>
<path d="M63.3098 86.6099H57.5898V92.3899H63.3098V86.6099Z" fill="black"/>
<path d="M104.899 61.6499H101.949V64.5999H104.899V61.6499Z" fill="#E80037"/>
<path d="M104.899 64.6001H101.949V67.4901H104.899V64.6001Z" fill="#E80037"/>
<path d="M96.1697 70.3799H93.2197V73.3299H96.1697V70.3799Z" fill="#E80037"/>
<path d="M101.95 67.4897H99.0596V70.3797H101.95V67.4897Z" fill="#E80037"/>
<path d="M99.0599 70.3799H96.1699V73.3299H99.0599V70.3799Z" fill="#E80037"/>
<path d="M93.2191 67.4897H90.3291V70.3797H93.2191V67.4897Z" fill="#E80037"/>
<path d="M96.1697 67.4897H93.2197V70.3797H96.1697V67.4897Z" fill="#E80037"/>
<path d="M99.0599 67.4897H96.1699V70.3797H99.0599V67.4897Z" fill="#E80037"/>
<path d="M93.2191 64.6001H90.3291V67.4901H93.2191V64.6001Z" fill="#E80037"/>
<path d="M90.3299 61.6499H87.3799V64.5999H90.3299V61.6499Z" fill="#E80037"/>
<path d="M90.3299 64.6001H87.3799V67.4901H90.3299V64.6001Z" fill="#E80037"/>
<path d="M96.1697 64.6001H93.2197V67.4901H96.1697V64.6001Z" fill="#E80037"/>
<path d="M101.95 64.6001H99.0596V67.4901H101.95V64.6001Z" fill="#E80037"/>
<path d="M99.0599 64.6001H96.1699V67.4901H99.0599V64.6001Z" fill="#E80037"/>
<path d="M84.4896 47.0801H81.5996V50.0301H84.4896V47.0801Z" fill="#E80037"/>
<path d="M81.5994 50.0298H78.6494V52.9198H81.5994V50.0298Z" fill="#E80037"/>
<path d="M81.5994 47.0801H78.6494V50.0301H81.5994V47.0801Z" fill="#E80037"/>
<path d="M84.4896 50.0298H81.5996V52.9198H84.4896V50.0298Z" fill="#E80037"/>
<path d="M87.3793 50.0298H84.4893V52.9198H87.3793V50.0298Z" fill="#E80037"/>
<path d="M110.739 44.1899H107.789V47.0799H110.739V44.1899Z" fill="#E80037"/>
<path d="M107.789 44.1899H104.899V47.0799H107.789V44.1899Z" fill="#E80037"/>
<path d="M104.899 44.1899H101.949V47.0799H104.899V44.1899Z" fill="#E80037"/>
<path d="M107.789 47.0801H104.899V50.0301H107.789V47.0801Z" fill="#E80037"/>
<path d="M104.899 50.0298H101.949V52.9198H104.899V50.0298Z" fill="#E80037"/>
<path d="M104.899 47.0801H101.949V50.0301H104.899V47.0801Z" fill="#E80037"/>
<path d="M101.95 50.0298H99.0596V52.9198H101.95V50.0298Z" fill="#E80037"/>
<path d="M101.95 47.0801H99.0596V50.0301H101.95V47.0801Z" fill="#E80037"/>
<path d="M99.0599 50.0298H96.1699V52.9198H99.0599V50.0298Z" fill="#E80037"/>
<path d="M206.829 20.8901H203.949V23.7801H206.829V20.8901Z" fill="#360066"/>
<path d="M203.95 23.7798H201V26.7298H203.95V23.7798Z" fill="#360066"/>
<path d="M200.999 26.73H198.109V29.62H200.999V26.73Z" fill="#360066"/>
<path d="M198.11 29.6201H195.22V32.5701H198.11V29.6201Z" fill="#360066"/>
<path d="M195.22 32.5698H192.27V35.4598H195.22V32.5698Z" fill="#360066"/>
<path d="M192.27 35.46H189.38V38.35H192.27V35.46Z" fill="#360066"/>
<path d="M192.27 41.2998H189.38V44.1898H192.27V41.2998Z" fill="#270947"/>
<path d="M209.79 23.7798H206.84V26.7298H209.79V23.7798Z" fill="#270947"/>
<path d="M209.79 18H206.84V20.89H209.79V18Z" fill="#360066"/>
<path d="M209.79 20.8901H206.84V23.7801H209.79V20.8901Z" fill="#360066"/>
<path d="M206.829 26.73H203.949V29.62H206.829V26.73Z" fill="#270947"/>
<path d="M206.829 23.7798H203.949V26.7298H206.829V23.7798Z" fill="#360066"/>
<path d="M203.95 29.6201H201V32.5701H203.95V29.6201Z" fill="#270947"/>
<path d="M203.95 26.73H201V29.62H203.95V26.73Z" fill="#360066"/>
<path d="M200.999 32.5698H198.109V35.4598H200.999V32.5698Z" fill="#270947"/>
<path d="M200.999 29.6201H198.109V32.5701H200.999V29.6201Z" fill="#360066"/>
<path d="M198.11 32.5698H195.22V35.4598H198.11V32.5698Z" fill="#360066"/>
<path d="M198.11 35.46H195.22V38.35H198.11V35.46Z" fill="#270947"/>
<path d="M195.22 38.3501H192.27V41.3001H195.22V38.3501Z" fill="#270947"/>
<path d="M195.22 35.46H192.27V38.35H195.22V35.46Z" fill="#360066"/>
<path d="M192.27 38.3501H189.38V41.3001H192.27V38.3501Z" fill="#360066"/>
<path d="M189.38 38.3501H186.43V41.3001H189.38V38.3501Z" fill="#360066"/>
<path d="M186.419 41.2998H183.539V44.1898H186.419V41.2998Z" fill="#360066"/>
<path d="M183.539 44.1899H180.649V47.0799H183.539V44.1899Z" fill="#360066"/>
<path d="M180.649 52.9199H177.699V55.8699H180.649V52.9199Z" fill="#270947"/>
<path d="M180.649 47.0801H177.699V50.0301H180.649V47.0801Z" fill="#360066"/>
<path d="M177.7 55.8701H174.81V58.7601H177.7V55.8701Z" fill="#270947"/>
<path d="M189.38 44.1899H186.43V47.0799H189.38V44.1899Z" fill="#270947"/>
<path d="M189.38 41.2998H186.43V44.1898H189.38V41.2998Z" fill="#360066"/>
<path d="M186.419 47.0801H183.539V50.0301H186.419V47.0801Z" fill="#270947"/>
<path d="M186.419 44.1899H183.539V47.0799H186.419V44.1899Z" fill="#360066"/>
<path d="M183.539 47.0801H180.649V50.0301H183.539V47.0801Z" fill="#360066"/>
<path d="M183.539 50.0298H180.649V52.9198H183.539V50.0298Z" fill="#270947"/>
<path d="M180.649 50.0298H177.699V52.9198H180.649V50.0298Z" fill="#360066"/>
<path d="M177.7 50.0298H174.81V52.9198H177.7V50.0298Z" fill="#360066"/>
<path d="M177.7 52.9199H174.81V55.8699H177.7V52.9199Z" fill="#360066"/>
<path d="M174.81 55.8701H171.92V58.7601H174.81V55.8701Z" fill="#360066"/>
<path d="M174.81 52.9199H171.92V55.8699H174.81V52.9199Z" fill="#360066"/>
<path d="M174.81 58.7598H171.92V61.6498H174.81V58.7598Z" fill="#270947"/>
<path d="M171.92 61.6499H168.97V64.5999H171.92V61.6499Z" fill="#270947"/>
<path d="M171.92 58.7598H168.97V61.6498H171.92V58.7598Z" fill="#360066"/>
<path d="M171.92 55.8701H168.97V58.7601H171.92V55.8701Z" fill="#360066"/>
<path d="M168.959 61.6499H166.079V64.5999H168.959V61.6499Z" fill="#360066"/>
<path d="M168.959 58.7598H166.079V61.6498H168.959V58.7598Z" fill="#360066"/>
<path d="M215.57 35.46H212.68V38.35H215.57V35.46Z" fill="black"/>
<path d="M215.57 29.6201H212.68V32.5701H215.57V29.6201Z" fill="black"/>
<path d="M212.679 38.3501H209.789V41.3001H212.679V38.3501Z" fill="black"/>
<path d="M212.679 35.46H209.789V38.35H212.679V35.46Z" fill="black"/>
<path d="M212.679 32.5698H209.789V35.4598H212.679V32.5698Z" fill="black"/>
<path d="M212.679 29.6201H209.789V32.5701H212.679V29.6201Z" fill="black"/>
<path d="M212.679 26.73H209.789V29.62H212.679V26.73Z" fill="black"/>
<path d="M212.679 23.7798H209.789V26.7298H212.679V23.7798Z" fill="black"/>
<path d="M212.679 20.8901H209.789V23.7801H212.679V20.8901Z" fill="black"/>
<path d="M212.679 18H209.789V20.89H212.679V18Z" fill="black"/>
<path d="M212.679 15.0498H209.789V17.9998H212.679V15.0498Z" fill="black"/>
<path d="M212.679 12.1602H209.789V15.0502H212.679V12.1602Z" fill="black"/>
<path d="M209.79 26.73H206.84V29.62H209.79V26.73Z" fill="black"/>
<path d="M209.79 15.0498H206.84V17.9998H209.79V15.0498Z" fill="black"/>
<path d="M209.79 12.1602H206.84V15.0502H209.79V12.1602Z" fill="black"/>
<path d="M209.79 9.20996H206.84V12.16H209.79V9.20996Z" fill="black"/>
<path d="M206.829 44.1899H203.949V47.0799H206.829V44.1899Z" fill="black"/>
<path d="M206.829 35.46H203.949V38.35H206.829V35.46Z" fill="black"/>
<path d="M206.829 29.6201H203.949V32.5701H206.829V29.6201Z" fill="black"/>
<path d="M206.829 18H203.949V20.89H206.829V18Z" fill="black"/>
<path d="M203.95 44.1899H201V47.0799H203.95V44.1899Z" fill="black"/>
<path d="M203.95 41.2998H201V44.1898H203.95V41.2998Z" fill="black"/>
<path d="M203.95 38.3501H201V41.3001H203.95V38.3501Z" fill="black"/>
<path d="M203.95 35.46H201V38.35H203.95V35.46Z" fill="black"/>
<path d="M203.95 32.5698H201V35.4598H203.95V32.5698Z" fill="black"/>
<path d="M203.95 20.8901H201V23.7801H203.95V20.8901Z" fill="black"/>
<path d="M200.999 35.46H198.109V38.35H200.999V35.46Z" fill="black"/>
<path d="M200.999 23.7798H198.109V26.7298H200.999V23.7798Z" fill="black"/>
<path d="M198.11 50.0298H195.22V52.9198H198.11V50.0298Z" fill="black"/>
<path d="M198.11 44.1899H195.22V47.0799H198.11V44.1899Z" fill="black"/>
<path d="M198.11 38.3501H195.22V41.3001H198.11V38.3501Z" fill="black"/>
<path d="M198.11 26.73H195.22V29.62H198.11V26.73Z" fill="black"/>
<path d="M195.22 178.22H192.27V181.11H195.22V178.22Z" fill="black"/>
<path d="M195.22 175.27H192.27V178.22H195.22V175.27Z" fill="black"/>
<path d="M195.22 52.9199H192.27V55.8699H195.22V52.9199Z" fill="black"/>
<path d="M195.22 50.0298H192.27V52.9198H195.22V50.0298Z" fill="black"/>
<path d="M195.22 47.0801H192.27V50.0301H195.22V47.0801Z" fill="black"/>
<path d="M195.22 44.1899H192.27V47.0799H195.22V44.1899Z" fill="black"/>
<path d="M195.22 41.2998H192.27V44.1898H195.22V41.2998Z" fill="black"/>
<path d="M195.22 29.6201H192.27V32.5701H195.22V29.6201Z" fill="black"/>
<path d="M192.27 178.22H189.38V181.11H192.27V178.22Z" fill="black"/>
<path d="M192.27 175.27H189.38V178.22H192.27V175.27Z" fill="#525D6D"/>
<path d="M192.27 172.38H189.38V175.27H192.27V172.38Z" fill="black"/>
<path d="M192.27 73.3301H189.38V76.2201H192.27V73.3301Z" fill="black"/>
<path d="M192.27 67.4897H189.38V70.3797H192.27V67.4897Z" fill="black"/>
<path d="M192.27 61.6499H189.38V64.5999H192.27V61.6499Z" fill="black"/>
<path d="M192.27 44.1899H189.38V47.0799H192.27V44.1899Z" fill="black"/>
<path d="M192.27 32.5698H189.38V35.4598H192.27V32.5698Z" fill="black"/>
<path d="M189.38 175.27H186.43V178.22H189.38V175.27Z" fill="black"/>
<path d="M189.38 172.38H186.43V175.27H189.38V172.38Z" fill="#525D6D"/>
<path d="M189.38 169.43H186.43V172.38H189.38V169.43Z" fill="black"/>
<path d="M189.38 76.2197H186.43V79.1697H189.38V76.2197Z" fill="black"/>
<path d="M189.38 73.3301H186.43V76.2201H189.38V73.3301Z" fill="black"/>
<path d="M189.38 70.3799H186.43V73.3299H189.38V70.3799Z" fill="black"/>
<path d="M189.38 67.4897H186.43V70.3797H189.38V67.4897Z" fill="black"/>
<path d="M189.38 64.6001H186.43V67.4901H189.38V64.6001Z" fill="black"/>
<path d="M189.38 61.6499H186.43V64.5999H189.38V61.6499Z" fill="black"/>
<path d="M189.38 58.7598H186.43V61.6498H189.38V58.7598Z" fill="black"/>
<path d="M189.38 55.8701H186.43V58.7601H189.38V55.8701Z" fill="black"/>
<path d="M189.38 52.9199H186.43V55.8699H189.38V52.9199Z" fill="black"/>
<path d="M189.38 50.0298H186.43V52.9198H189.38V50.0298Z" fill="black"/>
<path d="M189.38 47.0801H186.43V50.0301H189.38V47.0801Z" fill="black"/>
<path d="M189.38 35.46H186.43V38.35H189.38V35.46Z" fill="black"/>
<path d="M186.419 172.38H183.539V175.27H186.419V172.38Z" fill="black"/>
<path d="M186.419 169.43H183.539V172.38H186.419V169.43Z" fill="#525D6D"/>
<path d="M186.419 166.54H183.539V169.42H186.419V166.54Z" fill="black"/>
<path d="M186.419 50.0298H183.539V52.9198H186.419V50.0298Z" fill="black"/>
<path d="M186.419 38.3501H183.539V41.3001H186.419V38.3501Z" fill="black"/>
<path d="M183.539 169.43H180.649V172.38H183.539V169.43Z" fill="black"/>
<path d="M183.539 166.54H180.649V169.42H183.539V166.54Z" fill="#525D6D"/>
<path d="M183.539 163.65H180.649V166.54H183.539V163.65Z" fill="black"/>
<path d="M183.539 52.9199H180.649V55.8699H183.539V52.9199Z" fill="black"/>
<path d="M183.539 41.2998H180.649V44.1898H183.539V41.2998Z" fill="black"/>
<path d="M180.649 166.54H177.699V169.42H180.649V166.54Z" fill="black"/>
<path d="M180.649 163.65H177.699V166.54H180.649V163.65Z" fill="#525D6D"/>
<path d="M180.649 160.7H177.699V163.65H180.649V160.7Z" fill="black"/>
<path d="M180.649 55.8701H177.699V58.7601H180.649V55.8701Z" fill="black"/>
<path d="M180.649 44.1899H177.699V47.0799H180.649V44.1899Z" fill="black"/>
<path d="M177.7 58.7598H174.81V61.6498H177.7V58.7598Z" fill="black"/>
<path d="M177.7 47.0801H174.81V50.0301H177.7V47.0801Z" fill="black"/>
<path d="M174.81 61.6499H171.92V64.5999H174.81V61.6499Z" fill="black"/>
<path d="M174.81 50.0298H171.92V52.9198H174.81V50.0298Z" fill="black"/>
<path d="M171.92 67.4897H168.97V70.3797H171.92V67.4897Z" fill="black"/>
<path d="M171.92 64.6001H168.97V67.4901H171.92V64.6001Z" fill="black"/>
<path d="M171.92 52.9199H168.97V55.8699H171.92V52.9199Z" fill="black"/>
<path d="M168.959 67.4897H166.079V70.3797H168.959V67.4897Z" fill="black"/>
<path d="M168.959 64.6001H166.079V67.4901H168.959V64.6001Z" fill="black"/>
<path d="M168.959 55.8701H166.079V58.7601H168.959V55.8701Z" fill="black"/>
<path d="M166.08 61.6499H163.13V64.5999H166.08V61.6499Z" fill="black"/>
<path d="M166.08 58.7598H163.13V61.6498H166.08V58.7598Z" fill="black"/>
<path d="M163.129 61.6499H160.239V64.5999H163.129V61.6499Z" fill="black"/>
<path d="M72.8699 73.3301H69.9199V76.2201H72.8699V73.3301Z" fill="black"/>
<path d="M69.9193 76.2197H67.0293V79.1697H69.9193V76.2197Z" fill="black"/>
<path d="M69.9193 73.3301H67.0293V76.2201H69.9193V73.3301Z" fill="#525D6D"/>
<path d="M69.9193 70.3799H67.0293V73.3299H69.9193V70.3799Z" fill="black"/>
<path d="M67.0291 73.3301H64.0791V76.2201H67.0291V73.3301Z" fill="black"/>
<path d="M67.0291 70.3799H64.0791V73.3299H67.0291V70.3799Z" fill="#525D6D"/>
<path d="M67.0291 67.4897H64.0791V70.3797H67.0291V67.4897Z" fill="black"/>
<path d="M64.0795 70.3799H61.1895V73.3299H64.0795V70.3799Z" fill="black"/>
<path d="M64.0795 67.4897H61.1895V70.3797H64.0795V67.4897Z" fill="#525D6D"/>
<path d="M64.0795 64.6001H61.1895V67.4901H64.0795V64.6001Z" fill="black"/>
<path d="M61.1898 67.4897H58.2998V70.3797H61.1898V67.4897Z" fill="black"/>
<path d="M61.1898 64.6001H58.2998V67.4901H61.1898V64.6001Z" fill="#525D6D"/>
<path d="M61.1898 61.6499H58.2998V64.5999H61.1898V61.6499Z" fill="black"/>
<path d="M58.2996 178.22H55.3496V181.11H58.2996V178.22Z" fill="black"/>
<path d="M58.2996 175.27H55.3496V178.22H58.2996V175.27Z" fill="#360066"/>
<path d="M58.2996 172.38H55.3496V175.27H58.2996V172.38Z" fill="#360066"/>
<path d="M58.2996 169.43H55.3496V172.38H58.2996V169.43Z" fill="#360066"/>
<path d="M58.2996 166.54H55.3496V169.42H58.2996V166.54Z" fill="black"/>
<path d="M58.2996 64.6001H55.3496V67.4901H58.2996V64.6001Z" fill="black"/>
<path d="M58.2996 61.6499H55.3496V64.5999H58.2996V61.6499Z" fill="#525D6D"/>
<path d="M58.2996 58.7598H55.3496V61.6498H58.2996V58.7598Z" fill="black"/>
<path d="M55.35 178.22H52.46V181.11H55.35V178.22Z" fill="black"/>
<path d="M55.35 175.27H52.46V178.22H55.35V175.27Z" fill="#360066"/>
<path d="M55.35 172.38H52.46V175.27H55.35V172.38Z" fill="#360066"/>
<path d="M55.35 169.43H52.46V172.38H55.35V169.43Z" fill="#360066"/>
<path d="M55.35 166.54H52.46V169.42H55.35V166.54Z" fill="black"/>
<path d="M55.35 64.6001H52.46V67.4901H55.35V64.6001Z" fill="black"/>
<path d="M55.35 61.6499H52.46V64.5999H55.35V61.6499Z" fill="black"/>
<path d="M55.35 58.7598H52.46V61.6498H55.35V58.7598Z" fill="#525D6D"/>
<path d="M55.35 55.8701H52.46V58.7601H55.35V55.8701Z" fill="black"/>
<path d="M52.4593 184H49.5693V186.95H52.4593V184Z" fill="black"/>
<path d="M52.4593 181.11H49.5693V184H52.4593V181.11Z" fill="black"/>
<path d="M52.4593 178.22H49.5693V181.11H52.4593V178.22Z" fill="black"/>
<path d="M52.4593 175.27H49.5693V178.22H52.4593V175.27Z" fill="#360066"/>
<path d="M52.4593 172.38H49.5693V175.27H52.4593V172.38Z" fill="#360066"/>
<path d="M52.4593 169.43H49.5693V172.38H52.4593V169.43Z" fill="#360066"/>
<path d="M52.4593 166.54H49.5693V169.42H52.4593V166.54Z" fill="black"/>
<path d="M52.4593 64.6001H49.5693V67.4901H52.4593V64.6001Z" fill="black"/>
<path d="M52.4593 61.6499H49.5693V64.5999H52.4593V61.6499Z" fill="#4A535E"/>
<path d="M52.4593 58.7598H49.5693V61.6498H52.4593V58.7598Z" fill="black"/>
<path d="M52.4593 55.8701H49.5693V58.7601H52.4593V55.8701Z" fill="#525D6D"/>
<path d="M52.4593 52.9199H49.5693V55.8699H52.4593V52.9199Z" fill="black"/>
<path d="M49.5692 184H46.6191V186.95H49.5692V184Z" fill="black"/>
<path d="M49.5692 181.11H46.6191V184H49.5692V181.11Z" fill="#360066"/>
<path d="M49.5692 178.22H46.6191V181.11H49.5692V178.22Z" fill="black"/>
<path d="M49.5692 175.27H46.6191V178.22H49.5692V175.27Z" fill="black"/>
<path d="M49.5692 172.38H46.6191V175.27H49.5692V172.38Z" fill="black"/>
<path d="M49.5692 169.43H46.6191V172.38H49.5692V169.43Z" fill="black"/>
<path d="M49.5692 166.54H46.6191V169.42H49.5692V166.54Z" fill="black"/>
<path d="M49.5692 146.13H46.6191V149.08H49.5692V146.13Z" fill="black"/>
<path d="M49.5692 64.6001H46.6191V67.4901H49.5692V64.6001Z" fill="black"/>
<path d="M49.5692 61.6499H46.6191V64.5999H49.5692V61.6499Z" fill="#4A535E"/>
<path d="M49.5692 58.7598H46.6191V61.6498H49.5692V58.7598Z" fill="#5F646D"/>
<path d="M49.5692 55.8701H46.6191V58.7601H49.5692V55.8701Z" fill="black"/>
<path d="M49.5692 52.9199H46.6191V55.8699H49.5692V52.9199Z" fill="#525D6D"/>
<path d="M49.5692 50.0298H46.6191V52.9198H49.5692V50.0298Z" fill="black"/>
<path d="M46.6195 184H43.7295V186.95H46.6195V184Z" fill="black"/>
<path d="M46.6195 181.11H43.7295V184H46.6195V181.11Z" fill="#360066"/>
<path d="M46.6195 178.22H43.7295V181.11H46.6195V178.22Z" fill="#360066"/>
<path d="M46.6195 175.27H43.7295V178.22H46.6195V175.27Z" fill="#360066"/>
<path d="M46.6195 172.38H43.7295V175.27H46.6195V172.38Z" fill="black"/>
<path d="M46.6195 146.13H43.7295V149.08H46.6195V146.13Z" fill="black"/>
<path d="M46.6195 143.24H43.7295V146.13H46.6195V143.24Z" fill="black"/>
<path d="M46.6195 67.4897H43.7295V70.3797H46.6195V67.4897Z" fill="black"/>
<path d="M46.6195 64.6001H43.7295V67.4901H46.6195V64.6001Z" fill="#4A535E"/>
<path d="M46.6195 61.6499H43.7295V64.5999H46.6195V61.6499Z" fill="#4A535E"/>
<path d="M46.6195 58.7598H43.7295V61.6498H46.6195V58.7598Z" fill="#5F646D"/>
<path d="M46.6195 55.8701H43.7295V58.7601H46.6195V55.8701Z" fill="#5F646D"/>
<path d="M46.6195 52.9199H43.7295V55.8699H46.6195V52.9199Z" fill="black"/>
<path d="M46.6195 50.0298H43.7295V52.9198H46.6195V50.0298Z" fill="#525D6D"/>
<path d="M46.6195 47.0801H43.7295V50.0301H46.6195V47.0801Z" fill="black"/>
<path d="M43.7293 184H40.7793V186.95H43.7293V184Z" fill="black"/>
<path d="M43.7293 181.11H40.7793V184H43.7293V181.11Z" fill="black"/>
<path d="M43.7293 178.22H40.7793V181.11H43.7293V178.22Z" fill="black"/>
<path d="M43.7293 175.27H40.7793V178.22H43.7293V175.27Z" fill="black"/>
<path d="M43.7293 172.38H40.7793V175.27H43.7293V172.38Z" fill="black"/>
<path d="M43.7293 146.13H40.7793V149.08H43.7293V146.13Z" fill="black"/>
<path d="M43.7293 143.24H40.7793V146.13H43.7293V143.24Z" fill="#4A535E"/>
<path d="M43.7293 140.35H40.7793V143.24H43.7293V140.35Z" fill="black"/>
<path d="M43.7293 67.4897H40.7793V70.3797H43.7293V67.4897Z" fill="black"/>
<path d="M43.7293 64.6001H40.7793V67.4901H43.7293V64.6001Z" fill="#4A535E"/>
<path d="M43.7293 61.6499H40.7793V64.5999H43.7293V61.6499Z" fill="#5F646D"/>
<path d="M43.7293 58.7598H40.7793V61.6498H43.7293V58.7598Z" fill="#5F646D"/>
<path d="M43.7293 55.8701H40.7793V58.7601H43.7293V55.8701Z" fill="#5F646D"/>
<path d="M43.7293 52.9199H40.7793V55.8699H43.7293V52.9199Z" fill="black"/>
<path d="M43.7293 50.0298H40.7793V52.9198H43.7293V50.0298Z" fill="black"/>
<path d="M43.7293 47.0801H40.7793V50.0301H43.7293V47.0801Z" fill="#525D6D"/>
<path d="M43.7293 44.1899H40.7793V47.0799H43.7293V44.1899Z" fill="black"/>
<path d="M40.7796 146.13H37.8896V149.08H40.7796V146.13Z" fill="black"/>
<path d="M40.7796 143.24H37.8896V146.13H40.7796V143.24Z" fill="#4A535E"/>
<path d="M40.7796 140.35H37.8896V143.24H40.7796V140.35Z" fill="#4A535E"/>
<path d="M40.7796 137.4H37.8896V140.35H40.7796V137.4Z" fill="black"/>
<path d="M40.7796 70.3799H37.8896V73.3299H40.7796V70.3799Z" fill="black"/>
<path d="M40.7796 67.4897H37.8896V70.3797H40.7796V67.4897Z" fill="#4A535E"/>
<path d="M40.7796 64.6001H37.8896V67.4901H40.7796V64.6001Z" fill="#4A535E"/>
<path d="M40.7796 61.6499H37.8896V64.5999H40.7796V61.6499Z" fill="#5F646D"/>
<path d="M40.7796 58.7598H37.8896V61.6498H40.7796V58.7598Z" fill="#5F646D"/>
<path d="M40.7796 55.8701H37.8896V58.7601H40.7796V55.8701Z" fill="#5F646D"/>
<path d="M40.7796 52.9199H37.8896V55.8699H40.7796V52.9199Z" fill="#4A535E"/>
<path d="M40.7796 50.0298H37.8896V52.9198H40.7796V50.0298Z" fill="black"/>
<path d="M40.7796 47.0801H37.8896V50.0301H40.7796V47.0801Z" fill="#525D6D"/>
<path d="M40.7796 44.1899H37.8896V47.0799H40.7796V44.1899Z" fill="black"/>
<path d="M37.89 143.24H35V146.13H37.89V143.24Z" fill="black"/>
<path d="M37.89 140.35H35V143.24H37.89V140.35Z" fill="#4A535E"/>
<path d="M37.89 137.4H35V140.35H37.89V137.4Z" fill="#4A535E"/>
<path d="M37.89 134.51H35V137.4H37.89V134.51Z" fill="black"/>
<path d="M37.89 131.62H35V134.5H37.89V131.62Z" fill="black"/>
<path d="M37.89 70.3799H35V73.3299H37.89V70.3799Z" fill="black"/>
<path d="M37.89 67.4897H35V70.3797H37.89V67.4897Z" fill="#4A535E"/>
<path d="M37.89 64.6001H35V67.4901H37.89V64.6001Z" fill="#5F646D"/>
<path d="M37.89 61.6499H35V64.5999H37.89V61.6499Z" fill="#5F646D"/>
<path d="M37.89 58.7598H35V61.6498H37.89V58.7598Z" fill="#5F646D"/>
<path d="M37.89 55.8701H35V58.7601H37.89V55.8701Z" fill="#5F646D"/>
<path d="M37.89 52.9199H35V55.8699H37.89V52.9199Z" fill="#4A535E"/>
<path d="M37.89 50.0298H35V52.9198H37.89V50.0298Z" fill="black"/>
<path d="M37.89 47.0801H35V50.0301H37.89V47.0801Z" fill="#525D6D"/>
<path d="M37.89 44.1899H35V47.0799H37.89V44.1899Z" fill="black"/>
<path d="M34.9998 143.24H32.0498V146.13H34.9998V143.24Z" fill="black"/>
<path d="M34.9998 140.35H32.0498V143.24H34.9998V140.35Z" fill="#4A535E"/>
<path d="M34.9998 137.4H32.0498V140.35H34.9998V137.4Z" fill="#4A535E"/>
<path d="M34.9998 134.51H32.0498V137.4H34.9998V134.51Z" fill="#4A535E"/>
<path d="M34.9998 131.62H32.0498V134.5H34.9998V131.62Z" fill="#4A535E"/>
<path d="M34.9998 128.67H32.0498V131.62H34.9998V128.67Z" fill="black"/>
<path d="M34.9998 125.78H32.0498V128.67H34.9998V125.78Z" fill="black"/>
<path d="M34.9998 73.3301H32.0498V76.2201H34.9998V73.3301Z" fill="black"/>
<path d="M34.9998 70.3799H32.0498V73.3299H34.9998V70.3799Z" fill="#4A535E"/>
<path d="M34.9998 67.4897H32.0498V70.3797H34.9998V67.4897Z" fill="#4A535E"/>
<path d="M34.9998 64.6001H32.0498V67.4901H34.9998V64.6001Z" fill="#5F646D"/>
<path d="M34.9998 61.6499H32.0498V64.5999H34.9998V61.6499Z" fill="#5F646D"/>
<path d="M34.9998 58.7598H32.0498V61.6498H34.9998V58.7598Z" fill="#5F646D"/>
<path d="M34.9998 55.8701H32.0498V58.7601H34.9998V55.8701Z" fill="#5F646D"/>
<path d="M34.9998 52.9199H32.0498V55.8699H34.9998V52.9199Z" fill="#4A535E"/>
<path d="M34.9998 50.0298H32.0498V52.9198H34.9998V50.0298Z" fill="#4A535E"/>
<path d="M34.9998 47.0801H32.0498V50.0301H34.9998V47.0801Z" fill="black"/>
<path d="M32.0492 143.24H29.1592V146.13H32.0492V143.24Z" fill="black"/>
<path d="M32.0492 140.35H29.1592V143.24H32.0492V140.35Z" fill="#4A535E"/>
<path d="M32.0492 137.4H29.1592V140.35H32.0492V137.4Z" fill="#4A535E"/>
<path d="M32.0492 134.51H29.1592V137.4H32.0492V134.51Z" fill="#5F646D"/>
<path d="M32.0492 131.62H29.1592V134.5H32.0492V131.62Z" fill="#4A535E"/>
<path d="M32.0492 128.67H29.1592V131.62H32.0492V128.67Z" fill="#4A535E"/>
<path d="M32.0492 125.78H29.1592V128.67H32.0492V125.78Z" fill="#4A535E"/>
<path d="M32.0492 122.83H29.1592V125.78H32.0492V122.83Z" fill="black"/>
<path d="M32.0492 119.94H29.1592V122.83H32.0492V119.94Z" fill="black"/>
<path d="M32.0492 76.2197H29.1592V79.1697H32.0492V76.2197Z" fill="black"/>
<path d="M32.0492 73.3301H29.1592V76.2201H32.0492V73.3301Z" fill="#4A535E"/>
<path d="M32.0492 70.3799H29.1592V73.3299H32.0492V70.3799Z" fill="#4A535E"/>
<path d="M32.0492 67.4897H29.1592V70.3797H32.0492V67.4897Z" fill="#5F646D"/>
<path d="M32.0492 64.6001H29.1592V67.4901H32.0492V64.6001Z" fill="#5F646D"/>
<path d="M32.0492 61.6499H29.1592V64.5999H32.0492V61.6499Z" fill="#5F646D"/>
<path d="M32.0492 58.7598H29.1592V61.6498H32.0492V58.7598Z" fill="#5F646D"/>
<path d="M32.0492 55.8701H29.1592V58.7601H32.0492V55.8701Z" fill="#5F646D"/>
<path d="M32.0492 52.9199H29.1592V55.8699H32.0492V52.9199Z" fill="#4A535E"/>
<path d="M32.0492 50.0298H29.1592V52.9198H32.0492V50.0298Z" fill="#4A535E"/>
<path d="M32.0492 47.0801H29.1592V50.0301H32.0492V47.0801Z" fill="black"/>
<path d="M29.16 140.35H26.21V143.24H29.16V140.35Z" fill="black"/>
<path d="M29.16 137.4H26.21V140.35H29.16V137.4Z" fill="#4A535E"/>
<path d="M29.16 134.51H26.21V137.4H29.16V134.51Z" fill="#5F646D"/>
<path d="M29.16 131.62H26.21V134.5H29.16V131.62Z" fill="#5F646D"/>
<path d="M29.16 128.67H26.21V131.62H29.16V128.67Z" fill="#5F646D"/>
<path d="M29.16 125.78H26.21V128.67H29.16V125.78Z" fill="#4A535E"/>
<path d="M29.16 122.83H26.21V125.78H29.16V122.83Z" fill="#5F646D"/>
<path d="M29.16 119.94H26.21V122.83H29.16V119.94Z" fill="#5F646D"/>
<path d="M29.16 117.05H26.21V119.94H29.16V117.05Z" fill="black"/>
<path d="M29.16 114.1H26.21V117.05H29.16V114.1Z" fill="black"/>
<path d="M29.16 79.1699H26.21V82.0599H29.16V79.1699Z" fill="black"/>
<path d="M29.16 76.2197H26.21V79.1697H29.16V76.2197Z" fill="#4A535E"/>
<path d="M29.16 73.3301H26.21V76.2201H29.16V73.3301Z" fill="#4A535E"/>
<path d="M29.16 70.3799H26.21V73.3299H29.16V70.3799Z" fill="#5F646D"/>
<path d="M29.16 67.4897H26.21V70.3797H29.16V67.4897Z" fill="#5F646D"/>
<path d="M29.16 64.6001H26.21V67.4901H29.16V64.6001Z" fill="#5F646D"/>
<path d="M29.16 61.6499H26.21V64.5999H29.16V61.6499Z" fill="#5F646D"/>
<path d="M29.16 58.7598H26.21V61.6498H29.16V58.7598Z" fill="#4A535E"/>
<path d="M29.16 55.8701H26.21V58.7601H29.16V55.8701Z" fill="#4A535E"/>
<path d="M29.16 52.9199H26.21V55.8699H29.16V52.9199Z" fill="#4A535E"/>
<path d="M29.16 50.0298H26.21V52.9198H29.16V50.0298Z" fill="black"/>
<path d="M26.2093 140.35H23.3193V143.24H26.2093V140.35Z" fill="black"/>
<path d="M26.2093 137.4H23.3193V140.35H26.2093V137.4Z" fill="#4A535E"/>
<path d="M26.2093 134.51H23.3193V137.4H26.2093V134.51Z" fill="#4A535E"/>
<path d="M26.2093 131.62H23.3193V134.5H26.2093V131.62Z" fill="#5F646D"/>
<path d="M26.2093 128.67H23.3193V131.62H26.2093V128.67Z" fill="#5F646D"/>
<path d="M26.2093 125.78H23.3193V128.67H26.2093V125.78Z" fill="#5F646D"/>
<path d="M26.2093 122.83H23.3193V125.78H26.2093V122.83Z" fill="#5F646D"/>
<path d="M26.2093 119.94H23.3193V122.83H26.2093V119.94Z" fill="#5F646D"/>
<path d="M26.2093 117.05H23.3193V119.94H26.2093V117.05Z" fill="#5F646D"/>
<path d="M26.2093 114.1H23.3193V117.05H26.2093V114.1Z" fill="#5F646D"/>
<path d="M26.2093 111.21H23.3193V114.09H26.2093V111.21Z" fill="black"/>
<path d="M26.2093 108.26H23.3193V111.21H26.2093V108.26Z" fill="black"/>
<path d="M26.2093 105.37H23.3193V108.26H26.2093V105.37Z" fill="black"/>
<path d="M26.2093 82.0601H23.3193V84.9501H26.2093V82.0601Z" fill="black"/>
<path d="M26.2093 79.1699H23.3193V82.0599H26.2093V79.1699Z" fill="#4A535E"/>
<path d="M26.2093 76.2197H23.3193V79.1697H26.2093V76.2197Z" fill="#4A535E"/>
<path d="M26.2093 73.3301H23.3193V76.2201H26.2093V73.3301Z" fill="#4A535E"/>
<path d="M26.2093 70.3799H23.3193V73.3299H26.2093V70.3799Z" fill="#5F646D"/>
<path d="M26.2093 67.4897H23.3193V70.3797H26.2093V67.4897Z" fill="#5F646D"/>
<path d="M26.2093 64.6001H23.3193V67.4901H26.2093V64.6001Z" fill="#5F646D"/>
<path d="M26.2093 61.6499H23.3193V64.5999H26.2093V61.6499Z" fill="#5F646D"/>
<path d="M26.2093 58.7598H23.3193V61.6498H26.2093V58.7598Z" fill="#4A535E"/>
<path d="M26.2093 55.8701H23.3193V58.7601H26.2093V55.8701Z" fill="#4A535E"/>
<path d="M26.2093 52.9199H23.3193V55.8699H26.2093V52.9199Z" fill="black"/>
<path d="M23.3197 137.4H20.4297V140.35H23.3197V137.4Z" fill="black"/>
<path d="M23.3197 134.51H20.4297V137.4H23.3197V134.51Z" fill="black"/>
<path d="M23.3197 131.62H20.4297V134.5H23.3197V131.62Z" fill="#4A535E"/>
<path d="M23.3197 128.67H20.4297V131.62H23.3197V128.67Z" fill="#5F646D"/>
<path d="M23.3197 125.78H20.4297V128.67H23.3197V125.78Z" fill="#5F646D"/>
<path d="M23.3197 122.83H20.4297V125.78H23.3197V122.83Z" fill="#5F646D"/>
<path d="M23.3197 119.94H20.4297V122.83H23.3197V119.94Z" fill="#5F646D"/>
<path d="M23.3197 117.05H20.4297V119.94H23.3197V117.05Z" fill="#5F646D"/>
<path d="M23.3197 114.1H20.4297V117.05H23.3197V114.1Z" fill="#5F646D"/>
<path d="M23.3197 111.21H20.4297V114.09H23.3197V111.21Z" fill="#5F646D"/>
<path d="M23.3197 108.26H20.4297V111.21H23.3197V108.26Z" fill="#4A535E"/>
<path d="M23.3197 105.37H20.4297V108.26H23.3197V105.37Z" fill="#5F646D"/>
<path d="M23.3197 102.47H20.4297V105.36H23.3197V102.47Z" fill="black"/>
<path d="M23.3197 99.5298H20.4297V102.48H23.3197V99.5298Z" fill="black"/>
<path d="M23.3197 90.79H20.4297V93.7401H23.3197V90.79Z" fill="black"/>
<path d="M23.3197 87.8999H20.4297V90.7899H23.3197V87.8999Z" fill="black"/>
<path d="M23.3197 84.9502H20.4297V87.9002H23.3197V84.9502Z" fill="black"/>
<path d="M23.3197 82.0601H20.4297V84.9501H23.3197V82.0601Z" fill="#4A535E"/>
<path d="M23.3197 79.1699H20.4297V82.0599H23.3197V79.1699Z" fill="#4A535E"/>
<path d="M23.3197 76.2197H20.4297V79.1697H23.3197V76.2197Z" fill="#5F646D"/>
<path d="M23.3197 73.3301H20.4297V76.2201H23.3197V73.3301Z" fill="#5F646D"/>
<path d="M23.3197 70.3799H20.4297V73.3299H23.3197V70.3799Z" fill="#5F646D"/>
<path d="M23.3197 67.4897H20.4297V70.3797H23.3197V67.4897Z" fill="#5F646D"/>
<path d="M23.3197 64.6001H20.4297V67.4901H23.3197V64.6001Z" fill="#5F646D"/>
<path d="M23.3197 61.6499H20.4297V64.5999H23.3197V61.6499Z" fill="#4A535E"/>
<path d="M23.3197 58.7598H20.4297V61.6498H23.3197V58.7598Z" fill="#4A535E"/>
<path d="M23.3197 55.8701H20.4297V58.7601H23.3197V55.8701Z" fill="#4A535E"/>
<path d="M23.3197 52.9199H20.4297V55.8699H23.3197V52.9199Z" fill="black"/>
<path d="M20.4295 134.51H17.4795V137.4H20.4295V134.51Z" fill="black"/>
<path d="M20.4295 131.62H17.4795V134.5H20.4295V131.62Z" fill="#4A535E"/>
<path d="M20.4295 128.67H17.4795V131.62H20.4295V128.67Z" fill="#4A535E"/>
<path d="M20.4295 125.78H17.4795V128.67H20.4295V125.78Z" fill="#5F646D"/>
<path d="M20.4295 122.83H17.4795V125.78H20.4295V122.83Z" fill="#5F646D"/>
<path d="M20.4295 119.94H17.4795V122.83H20.4295V119.94Z" fill="#5F646D"/>
<path d="M20.4295 117.05H17.4795V119.94H20.4295V117.05Z" fill="#5F646D"/>
<path d="M20.4295 114.1H17.4795V117.05H20.4295V114.1Z" fill="#5F646D"/>
<path d="M20.4295 111.21H17.4795V114.09H20.4295V111.21Z" fill="#5F646D"/>
<path d="M20.4295 108.26H17.4795V111.21H20.4295V108.26Z" fill="#5F646D"/>
<path d="M20.4295 105.37H17.4795V108.26H20.4295V105.37Z" fill="#5F646D"/>
<path d="M20.4295 102.47H17.4795V105.36H20.4295V102.47Z" fill="#4A535E"/>
<path d="M20.4295 99.5298H17.4795V102.48H20.4295V99.5298Z" fill="#4A535E"/>
<path d="M20.4295 96.6299H17.4795V99.5199H20.4295V96.6299Z" fill="black"/>
<path d="M20.4295 93.7397H17.4795V96.6297H20.4295V93.7397Z" fill="black"/>
<path d="M20.4295 90.79H17.4795V93.7401H20.4295V90.79Z" fill="#4A535E"/>
<path d="M20.4295 87.8999H17.4795V90.7899H20.4295V87.8999Z" fill="#4A535E"/>
<path d="M20.4295 84.9502H17.4795V87.9002H20.4295V84.9502Z" fill="#4A535E"/>
<path d="M20.4295 82.0601H17.4795V84.9501H20.4295V82.0601Z" fill="#4A535E"/>
<path d="M20.4295 79.1699H17.4795V82.0599H20.4295V79.1699Z" fill="#5F646D"/>
<path d="M20.4295 76.2197H17.4795V79.1697H20.4295V76.2197Z" fill="#5F646D"/>
<path d="M20.4295 73.3301H17.4795V76.2201H20.4295V73.3301Z" fill="#5F646D"/>
<path d="M20.4295 70.3799H17.4795V73.3299H20.4295V70.3799Z" fill="#5F646D"/>
<path d="M20.4295 67.4897H17.4795V70.3797H20.4295V67.4897Z" fill="#5F646D"/>
<path d="M20.4295 64.6001H17.4795V67.4901H20.4295V64.6001Z" fill="#4A535E"/>
<path d="M20.4295 61.6499H17.4795V64.5999H20.4295V61.6499Z" fill="#4A535E"/>
<path d="M20.4295 58.7598H17.4795V61.6498H20.4295V58.7598Z" fill="black"/>
<path d="M20.4295 55.8701H17.4795V58.7601H20.4295V55.8701Z" fill="black"/>
<path d="M17.4799 131.62H14.5898V134.5H17.4799V131.62Z" fill="black"/>
<path d="M17.4799 128.67H14.5898V131.62H17.4799V128.67Z" fill="black"/>
<path d="M17.4799 125.78H14.5898V128.67H17.4799V125.78Z" fill="#5F646D"/>
<path d="M17.4799 122.83H14.5898V125.78H17.4799V122.83Z" fill="#5F646D"/>
<path d="M17.4799 119.94H14.5898V122.83H17.4799V119.94Z" fill="#5F646D"/>
<path d="M17.4799 117.05H14.5898V119.94H17.4799V117.05Z" fill="#5F646D"/>
<path d="M17.4799 114.1H14.5898V117.05H17.4799V114.1Z" fill="#5F646D"/>
<path d="M17.4799 111.21H14.5898V114.09H17.4799V111.21Z" fill="#5F646D"/>
<path d="M17.4799 108.26H14.5898V111.21H17.4799V108.26Z" fill="#5F646D"/>
<path d="M17.4799 105.37H14.5898V108.26H17.4799V105.37Z" fill="#5F646D"/>
<path d="M17.4799 102.47H14.5898V105.36H17.4799V102.47Z" fill="#5F646D"/>
<path d="M17.4799 99.5298H14.5898V102.48H17.4799V99.5298Z" fill="#4A535E"/>
<path d="M17.4799 96.6299H14.5898V99.5199H17.4799V96.6299Z" fill="#4A535E"/>
<path d="M17.4799 93.7397H14.5898V96.6297H17.4799V93.7397Z" fill="#4A535E"/>
<path d="M17.4799 90.79H14.5898V93.7401H17.4799V90.79Z" fill="#4A535E"/>
<path d="M17.4799 87.8999H14.5898V90.7899H17.4799V87.8999Z" fill="#4A535E"/>
<path d="M17.4799 84.9502H14.5898V87.9002H17.4799V84.9502Z" fill="#5F646D"/>
<path d="M17.4799 82.0601H14.5898V84.9501H17.4799V82.0601Z" fill="#5F646D"/>
<path d="M17.4799 79.1699H14.5898V82.0599H17.4799V79.1699Z" fill="#5F646D"/>
<path d="M17.4799 76.2197H14.5898V79.1697H17.4799V76.2197Z" fill="#5F646D"/>
<path d="M17.4799 73.3301H14.5898V76.2201H17.4799V73.3301Z" fill="#5F646D"/>
<path d="M17.4799 70.3799H14.5898V73.3299H17.4799V70.3799Z" fill="#5F646D"/>
<path d="M17.4799 67.4897H14.5898V70.3797H17.4799V67.4897Z" fill="#4A535E"/>
<path d="M17.4799 64.6001H14.5898V67.4901H17.4799V64.6001Z" fill="#4A535E"/>
<path d="M17.4799 61.6499H14.5898V64.5999H17.4799V61.6499Z" fill="black"/>
<path d="M17.4799 58.7598H14.5898V61.6498H17.4799V58.7598Z" fill="black"/>
<path d="M14.5892 128.67H11.6992V131.62H14.5892V128.67Z" fill="black"/>
<path d="M14.5892 125.78H11.6992V128.67H14.5892V125.78Z" fill="black"/>
<path d="M14.5892 122.83H11.6992V125.78H14.5892V122.83Z" fill="#5F646D"/>
<path d="M14.5892 119.94H11.6992V122.83H14.5892V119.94Z" fill="#5F646D"/>
<path d="M14.5892 117.05H11.6992V119.94H14.5892V117.05Z" fill="#5F646D"/>
<path d="M14.5892 114.1H11.6992V117.05H14.5892V114.1Z" fill="#5F646D"/>
<path d="M14.5892 111.21H11.6992V114.09H14.5892V111.21Z" fill="#5F646D"/>
<path d="M14.5892 108.26H11.6992V111.21H14.5892V108.26Z" fill="#5F646D"/>
<path d="M14.5892 105.37H11.6992V108.26H14.5892V105.37Z" fill="#5F646D"/>
<path d="M14.5892 102.47H11.6992V105.36H14.5892V102.47Z" fill="#5F646D"/>
<path d="M14.5892 99.5298H11.6992V102.48H14.5892V99.5298Z" fill="#5F646D"/>
<path d="M14.5892 96.6299H11.6992V99.5199H14.5892V96.6299Z" fill="#5F646D"/>
<path d="M14.5892 93.7397H11.6992V96.6297H14.5892V93.7397Z" fill="#5F646D"/>
<path d="M14.5892 90.79H11.6992V93.7401H14.5892V90.79Z" fill="#5F646D"/>
<path d="M14.5892 87.8999H11.6992V90.7899H14.5892V87.8999Z" fill="#5F646D"/>
<path d="M14.5892 84.9502H11.6992V87.9002H14.5892V84.9502Z" fill="#5F646D"/>
<path d="M14.5892 82.0601H11.6992V84.9501H14.5892V82.0601Z" fill="#5F646D"/>
<path d="M14.5892 79.1699H11.6992V82.0599H14.5892V79.1699Z" fill="#5F646D"/>
<path d="M14.5892 76.2197H11.6992V79.1697H14.5892V76.2197Z" fill="#5F646D"/>
<path d="M14.5892 73.3301H11.6992V76.2201H14.5892V73.3301Z" fill="#5F646D"/>
<path d="M14.5892 70.3799H11.6992V73.3299H14.5892V70.3799Z" fill="#4A535E"/>
<path d="M14.5892 67.4897H11.6992V70.3797H14.5892V67.4897Z" fill="#4A535E"/>
<path d="M14.5892 64.6001H11.6992V67.4901H14.5892V64.6001Z" fill="black"/>
<path d="M14.5892 61.6499H11.6992V64.5999H14.5892V61.6499Z" fill="black"/>
<path d="M11.7 122.83H8.75V125.78H11.7V122.83Z" fill="black"/>
<path d="M11.7 119.94H8.75V122.83H11.7V119.94Z" fill="#5F646D"/>
<path d="M11.7 117.05H8.75V119.94H11.7V117.05Z" fill="#5F646D"/>
<path d="M11.7 114.1H8.75V117.05H11.7V114.1Z" fill="#5F646D"/>
<path d="M11.7 111.21H8.75V114.09H11.7V111.21Z" fill="#5F646D"/>
<path d="M11.7 108.26H8.75V111.21H11.7V108.26Z" fill="#5F646D"/>
<path d="M11.7 105.37H8.75V108.26H11.7V105.37Z" fill="#5F646D"/>
<path d="M11.7 102.47H8.75V105.36H11.7V102.47Z" fill="#5F646D"/>
<path d="M11.7 99.5298H8.75V102.48H11.7V99.5298Z" fill="#5F646D"/>
<path d="M11.7 96.6299H8.75V99.5199H11.7V96.6299Z" fill="#5F646D"/>
<path d="M11.7 93.7397H8.75V96.6297H11.7V93.7397Z" fill="#5F646D"/>
<path d="M11.7 90.79H8.75V93.7401H11.7V90.79Z" fill="#5F646D"/>
<path d="M11.7 87.8999H8.75V90.7899H11.7V87.8999Z" fill="#5F646D"/>
<path d="M11.7 84.9502H8.75V87.9002H11.7V84.9502Z" fill="#5F646D"/>
<path d="M11.7 82.0601H8.75V84.9501H11.7V82.0601Z" fill="#5F646D"/>
<path d="M11.7 79.1699H8.75V82.0599H11.7V79.1699Z" fill="#5F646D"/>
<path d="M11.7 76.2197H8.75V79.1697H11.7V76.2197Z" fill="#5F646D"/>
<path d="M11.7 73.3301H8.75V76.2201H11.7V73.3301Z" fill="#4A535E"/>
<path d="M11.7 70.3799H8.75V73.3299H11.7V70.3799Z" fill="#4A535E"/>
<path d="M11.7 67.4897H8.75V70.3797H11.7V67.4897Z" fill="black"/>
<path d="M11.7 64.6001H8.75V67.4901H11.7V64.6001Z" fill="black"/>
<path d="M8.74937 122.83H5.85938V125.78H8.74937V122.83Z" fill="black"/>
<path d="M8.74937 119.94H5.85938V122.83H8.74937V119.94Z" fill="black"/>
<path d="M8.74937 117.05H5.85938V119.94H8.74937V117.05Z" fill="black"/>
<path d="M8.74937 114.1H5.85938V117.05H8.74937V114.1Z" fill="black"/>
<path d="M8.74937 111.21H5.85938V114.09H8.74937V111.21Z" fill="#4A535E"/>
<path d="M8.74937 108.26H5.85938V111.21H8.74937V108.26Z" fill="#4A535E"/>
<path d="M8.74937 105.37H5.85938V108.26H8.74937V105.37Z" fill="#4A535E"/>
<path d="M8.74937 102.47H5.85938V105.36H8.74937V102.47Z" fill="#4A535E"/>
<path d="M8.74937 99.5298H5.85938V102.48H8.74937V99.5298Z" fill="#4A535E"/>
<path d="M8.74937 96.6299H5.85938V99.5199H8.74937V96.6299Z" fill="#5F646D"/>
<path d="M8.74937 93.7397H5.85938V96.6297H8.74937V93.7397Z" fill="#5F646D"/>
<path d="M8.74937 90.79H5.85938V93.7401H8.74937V90.79Z" fill="#5F646D"/>
<path d="M8.74937 87.8999H5.85938V90.7899H8.74937V87.8999Z" fill="#5F646D"/>
<path d="M8.74937 84.9502H5.85938V87.9002H8.74937V84.9502Z" fill="#5F646D"/>
<path d="M8.74937 82.0601H5.85938V84.9501H8.74937V82.0601Z" fill="#4A535E"/>
<path d="M8.74937 79.1699H5.85938V82.0599H8.74937V79.1699Z" fill="#4A535E"/>
<path d="M8.74937 76.2197H5.85938V79.1697H8.74937V76.2197Z" fill="#4A535E"/>
<path d="M8.74937 73.3301H5.85938V76.2201H8.74937V73.3301Z" fill="#4A535E"/>
<path d="M8.74937 70.3799H5.85938V73.3299H8.74937V70.3799Z" fill="black"/>
<path d="M8.74937 67.4897H5.85938V70.3797H8.74937V67.4897Z" fill="black"/>
<path d="M5.85918 114.1H2.90918V117.05H5.85918V114.1Z" fill="black"/>
<path d="M5.85918 111.21H2.90918V114.09H5.85918V111.21Z" fill="black"/>
<path d="M5.85918 108.26H2.90918V111.21H5.85918V108.26Z" fill="black"/>
<path d="M5.85918 105.37H2.90918V108.26H5.85918V105.37Z" fill="black"/>
<path d="M5.85918 102.47H2.90918V105.36H5.85918V102.47Z" fill="black"/>
<path d="M5.85918 99.5298H2.90918V102.48H5.85918V99.5298Z" fill="#4A535E"/>
<path d="M5.85918 96.6299H2.90918V99.5199H5.85918V96.6299Z" fill="#4A535E"/>
<path d="M5.85918 93.7397H2.90918V96.6297H5.85918V93.7397Z" fill="#4A535E"/>
<path d="M5.85918 90.79H2.90918V93.7401H5.85918V90.79Z" fill="#4A535E"/>
<path d="M5.85918 87.8999H2.90918V90.7899H5.85918V87.8999Z" fill="#4A535E"/>
<path d="M5.85918 84.9502H2.90918V87.9002H5.85918V84.9502Z" fill="#4A535E"/>
<path d="M5.85918 82.0601H2.90918V84.9501H5.85918V82.0601Z" fill="black"/>
<path d="M5.85918 79.1699H2.90918V82.0599H5.85918V79.1699Z" fill="black"/>
<path d="M5.85918 76.2197H2.90918V79.1697H5.85918V76.2197Z" fill="black"/>
<path d="M5.85918 73.3301H2.90918V76.2201H5.85918V73.3301Z" fill="black"/>
<path d="M5.85918 70.3799H2.90918V73.3299H5.85918V70.3799Z" fill="black"/>
<path d="M2.90954 102.47H0.0195312V105.36H2.90954V102.47Z" fill="black"/>
<path d="M2.90954 99.5298H0.0195312V102.48H2.90954V99.5298Z" fill="black"/>
<path d="M2.90954 96.6299H0.0195312V99.5199H2.90954V96.6299Z" fill="black"/>
<path d="M2.90954 93.7397H0.0195312V96.6297H2.90954V93.7397Z" fill="black"/>
<path d="M2.90954 90.79H0.0195312V93.7401H2.90954V90.79Z" fill="black"/>
<path d="M2.90954 87.8999H0.0195312V90.7899H2.90954V87.8999Z" fill="black"/>
<path d="M2.90954 84.9502H0.0195312V87.9002H2.90954V84.9502Z" fill="black"/>
<path d="M2.90954 82.0601H0.0195312V84.9501H2.90954V82.0601Z" fill="black"/>
</svg>
