<svg width="96" height="96" viewBox="0 0 96 96" fill="none" xmlns="http://www.w3.org/2000/svg">
<path d="M82 24H88V76H8V24H14" stroke="#FF3864" stroke-width="2"/>
<path d="M8 70H88" stroke="#FF3864" stroke-width="2"/>
<path d="M36 16H42C43.5913 16 45.1174 16.6321 46.2426 17.7574C47.3679 18.8826 48 20.4087 48 22" stroke="#FF3864" stroke-width="2"/>
<path d="M48 22C48 20.4087 48.6321 18.8826 49.7574 17.7574C50.8826 16.6321 52.4087 16 54 16H82V64H14V16H16" stroke="#FF3864" stroke-width="2"/>
<path d="M48 64C48 62.4087 47.3679 60.8826 46.2426 59.7574C45.1174 58.6321 43.5913 58 42 58H20" stroke="#FF3864" stroke-width="2"/>
<path d="M76 58H54C52.4087 58 50.8826 58.6321 49.7574 59.7574C48.6321 60.8826 48 62.4087 48 64" stroke="#FF3864" stroke-width="2"/>
<path d="M20 48H38" stroke="#FF3864" stroke-width="2"/>
<path d="M20 42H38" stroke="#FF3864" stroke-width="2"/>
<path d="M58 48H66" stroke="#FF3864" stroke-width="2"/>
<path d="M68 48H76" stroke="#FF3864" stroke-width="2"/>
<path d="M58 44H66" stroke="#FF3864" stroke-width="2"/>
<path d="M68 44H76" stroke="#FF3864" stroke-width="2"/>
<path d="M20 28H28" stroke="#FF3864" stroke-width="2"/>
<path d="M20 36H38" stroke="#FF3864" stroke-width="2"/>
<path d="M74 23L60 37" stroke="#FF3864" stroke-width="2"/>
<path d="M74 37L60 23" stroke="#FF3864" stroke-width="2"/>
<path d="M72.25 30C72.25 31.3924 71.6969 32.7277 70.7123 33.7123C69.7277 34.6969 68.3924 35.25 67 35.25C65.6076 35.25 64.2723 34.6969 63.2877 33.7123C62.3031 32.7277 61.75 31.3924 61.75 30" stroke="#FF3864" stroke-width="2"/>
<path d="M48 36V22" stroke="#FF3864" stroke-width="2"/>
<path d="M48 44V64" stroke="#FF3864" stroke-width="2"/>
<path d="M43.9932 40.003L47.9952 36.001L51.9982 40.003L47.9952 44.005L43.9932 40.003Z" stroke="#FF3864" stroke-width="2"/>
<path d="M20.0078 14.005L26.0108 8L32.0148 14.004L26.0108 20.007L20.0078 14.005Z" stroke="#FF3864" stroke-width="2"/>
<path d="M40 76C40 76 40 84 34 88" stroke="#FF3864" stroke-width="2"/>
<path d="M56 76C56 76 56 84 62 88" stroke="#FF3864" stroke-width="2"/>
<path d="M16 88V80" stroke="#FF3864" stroke-width="2"/>
<path d="M12 84H20" stroke="#FF3864" stroke-width="2"/>
<path d="M76 81V87" stroke="#FF3864" stroke-width="2"/>
<path d="M73 84H79" stroke="#FF3864" stroke-width="2"/>
<path d="M64 8V12" stroke="#FF3864" stroke-width="2"/>
</svg>
