<svg width="96" height="96" viewBox="0 0 96 96" fill="none" xmlns="http://www.w3.org/2000/svg">
<path d="M24 88C28.4183 88 32 84.4183 32 80C32 75.5817 28.4183 72 24 72C19.5817 72 16 75.5817 16 80C16 84.4183 19.5817 88 24 88Z" stroke="#FF3864" stroke-width="2"/>
<path d="M72 88C76.4183 88 80 84.4183 80 80C80 75.5817 76.4183 72 72 72C67.5817 72 64 75.5817 64 80C64 84.4183 67.5817 88 72 88Z" stroke="#FF3864" stroke-width="2"/>
<path d="M23 80H25" stroke="#FF3864" stroke-width="2"/>
<path d="M71 80H73" stroke="#FF3864" stroke-width="2"/>
<path d="M16 80H8V20H88V80H80" stroke="#FF3864" stroke-width="2"/>
<path d="M60 64H88" stroke="#FF3864" stroke-width="2"/>
<path d="M8 64H36" stroke="#FF3864" stroke-width="2"/>
<path d="M8 44H16C17.0609 44 18.0783 44.4214 18.8284 45.1716C19.5786 45.9217 20 46.9391 20 48C20 49.0609 19.5786 50.0783 18.8284 50.8284C18.0783 51.5786 17.0609 52 16 52H8" stroke="#FF3864" stroke-width="2"/>
<path d="M88 52H80C78.9391 52 77.9217 51.5786 77.1716 50.8284C76.4214 50.0783 76 49.0609 76 48C76 46.9391 76.4214 45.9217 77.1716 45.1716C77.9217 44.4214 78.9391 44 80 44H88" stroke="#FF3864" stroke-width="2"/>
<path d="M19.9996 20L17.0996 44.15" stroke="#FF3864" stroke-width="2"/>
<path d="M72 20L78.42 44.32" stroke="#FF3864" stroke-width="2"/>
<path d="M17.79 51.58L20 64" stroke="#FF3864" stroke-width="2"/>
<path d="M78.21 51.58L76 64" stroke="#FF3864" stroke-width="2"/>
<path d="M18.5801 56H77.4201" stroke="#FF3864" stroke-width="2"/>
<path d="M32 80H64" stroke="#FF3864" stroke-width="2"/>
<path d="M52.4805 41.38C53.5633 42.1119 54.4504 43.0981 55.064 44.2521C55.6776 45.4061 55.9992 46.693 56.0005 48V56" stroke="#FF3864" stroke-width="2"/>
<path d="M40 56V48C40.0013 46.693 40.3228 45.4061 40.9365 44.2521C41.5501 43.0981 42.4371 42.1119 43.52 41.38" stroke="#FF3864" stroke-width="2"/>
<path d="M48 43C51.866 43 55 39.866 55 36C55 32.134 51.866 29 48 29C44.134 29 41 32.134 41 36C41 39.866 44.134 43 48 43Z" stroke="#FF3864" stroke-width="2"/>
<path d="M72.0004 48L64.0004 40L54.4004 43.2" stroke="#FF3864" stroke-width="2"/>
<path d="M24 44L32 36L42.02 42.68" stroke="#FF3864" stroke-width="2"/>
<path d="M36 38.67V20" stroke="#FF3864" stroke-width="2"/>
<path d="M68 44V20" stroke="#FF3864" stroke-width="2"/>
<path d="M28 40V20" stroke="#FF3864" stroke-width="2"/>
<path d="M60 20V41.33" stroke="#FF3864" stroke-width="2"/>
<path d="M48 20V29" stroke="#FF3864" stroke-width="2"/>
<path d="M56 60L40 76" stroke="#FF3864" stroke-width="2"/>
<path d="M56 76L40 60" stroke="#FF3864" stroke-width="2"/>
<path d="M54 68C54 69.5913 53.3679 71.1174 52.2426 72.2426C51.1174 73.3679 49.5913 74 48 74C46.4087 74 44.8826 73.3679 43.7574 72.2426C42.6321 71.1174 42 69.5913 42 68" stroke="#FF3864" stroke-width="2"/>
<path d="M8.00001 20V13.8C7.99873 13.2157 8.15355 12.6417 8.44844 12.1373C8.74333 11.633 9.1676 11.2165 9.67738 10.931C10.1872 10.6455 10.7639 10.5014 11.3481 10.5135C11.9322 10.5257 12.5025 10.6936 13 11V11C13.5111 11.3047 14.095 11.4656 14.69 11.4656C15.285 11.4656 15.8689 11.3047 16.38 11L19.67 9C20.1752 8.70476 20.7499 8.54917 21.335 8.54917C21.9202 8.54917 22.4948 8.70476 23 9L26.29 11C26.8011 11.3047 27.385 11.4656 27.98 11.4656C28.575 11.4656 29.1589 11.3047 29.67 11L33 9C33.5111 8.69529 34.095 8.53441 34.69 8.53441C35.285 8.53441 35.869 8.69529 36.38 9L39.66 11C40.1664 11.2971 40.7429 11.4538 41.33 11.4538C41.9171 11.4538 42.4936 11.2971 43 11L46.3 9C46.8111 8.69529 47.395 8.53441 47.99 8.53441C48.585 8.53441 49.1689 8.69529 49.68 9L53 11C53.5111 11.3047 54.095 11.4656 54.69 11.4656C55.285 11.4656 55.869 11.3047 56.38 11L59.67 9C60.1752 8.70476 60.7499 8.54917 61.335 8.54917C61.9202 8.54917 62.4948 8.70476 63 9L66.28 11C66.7911 11.3047 67.375 11.4656 67.97 11.4656C68.565 11.4656 69.149 11.3047 69.66 11L73 9C73.5111 8.69529 74.095 8.53441 74.69 8.53441C75.285 8.53441 75.8689 8.69529 76.38 9L79.68 11C80.1837 11.2944 80.7566 11.4495 81.34 11.4495C81.9234 11.4495 82.4963 11.2944 83 11C83.4989 10.6927 84.0711 10.5247 84.657 10.5134C85.2428 10.5021 85.821 10.648 86.3314 10.9358C86.8418 11.2237 87.2658 11.6431 87.5592 12.1503C87.8527 12.6575 88.0049 13.234 88 13.82V20" stroke="#FF3864" stroke-width="2"/>
</svg>
