<svg width="162" height="254" viewBox="0 0 162 254" fill="none" xmlns="http://www.w3.org/2000/svg">
<path d="M161.53 245.86H153.83V253.56H161.53V245.86Z" fill="#28AF5F"/>
<path d="M161.53 238.23H153.83V245.86H161.53V238.23Z" fill="#28AF5F"/>
<path d="M161.53 77.1602H153.83V84.7901H161.53V77.1602Z" fill="#28AF5F"/>
<path d="M161.53 69.4502H153.83V77.1502H161.53V69.4502Z" fill="#28AF5F"/>
<path d="M161.53 61.8301H153.83V69.4601H161.53V61.8301Z" fill="#28AF5F"/>
<path d="M153.83 245.86H146.2V253.56H153.83V245.86Z" fill="#28AF5F"/>
<path d="M153.83 238.23H146.2V245.86H153.83V238.23Z" fill="#28AF5F"/>
<path d="M153.83 230.53H146.2V238.23H153.83V230.53Z" fill="#28AF5F"/>
<path d="M153.83 222.9H146.2V230.53H153.83V222.9Z" fill="#28AF5F"/>
<path d="M153.83 215.2H146.2V222.9H153.83V215.2Z" fill="#28AF5F"/>
<path d="M153.83 84.7798H146.2V92.4798H153.83V84.7798Z" fill="#298E52"/>
<path d="M153.83 77.1602H146.2V84.7901H153.83V77.1602Z" fill="#EA8634"/>
<path d="M153.83 69.4502H146.2V77.1502H153.83V69.4502Z" fill="#E5A870"/>
<path d="M153.83 61.8301H146.2V69.4601H153.83V61.8301Z" fill="#EA8634"/>
<path d="M153.83 54.1201H146.2V61.8201H153.83V54.1201Z" fill="#28AF5F"/>
<path d="M153.83 23.4702H146.2V31.1002H153.83V23.4702Z" fill="#4C2501"/>
<path d="M153.83 15.77H146.2V23.47H153.83V15.77Z" fill="#4C2501"/>
<path d="M153.83 8.14014H146.2V15.7701H153.83V8.14014Z" fill="#4C2501"/>
<path d="M146.2 245.86H138.5V253.56H146.2V245.86Z" fill="#28AF5F"/>
<path d="M146.2 238.23H138.5V245.86H146.2V238.23Z" fill="#2ECC71"/>
<path d="M146.2 230.53H138.5V238.23H146.2V230.53Z" fill="#2ECC71"/>
<path d="M146.2 222.9H138.5V230.53H146.2V222.9Z" fill="#2ECC71"/>
<path d="M146.2 215.2H138.5V222.9H146.2V215.2Z" fill="#2ECC71"/>
<path d="M146.2 207.49H138.5V215.19H146.2V207.49Z" fill="#28AF5F"/>
<path d="M146.2 199.87H138.5V207.5H146.2V199.87Z" fill="#28AF5F"/>
<path d="M146.2 192.16H138.5V199.86H146.2V192.16Z" fill="#28AF5F"/>
<path d="M146.2 184.53H138.5V192.16H146.2V184.53Z" fill="#28AF5F"/>
<path d="M146.2 84.7798H138.5V92.4798H146.2V84.7798Z" fill="#298E52"/>
<path d="M146.2 77.1602H138.5V84.7901H146.2V77.1602Z" fill="#E5A870"/>
<path d="M146.2 69.4502H138.5V77.1502H146.2V69.4502Z" fill="#E5A870"/>
<path d="M146.2 61.8301H138.5V69.4601H146.2V61.8301Z" fill="#EA8634"/>
<path d="M146.2 54.1201H138.5V61.8201H146.2V54.1201Z" fill="#EA8634"/>
<path d="M146.2 46.5098H138.5V54.1398H146.2V46.5098Z" fill="#28AF5F"/>
<path d="M146.2 31.1001H138.5V38.8001H146.2V31.1001Z" fill="#4C2501"/>
<path d="M146.2 8.14014H138.5V15.7701H146.2V8.14014Z" fill="#4C2501"/>
<path d="M138.49 245.86H130.79V253.56H138.49V245.86Z" fill="#28AF5F"/>
<path d="M138.49 238.23H130.79V245.86H138.49V238.23Z" fill="#28AF5F"/>
<path d="M138.49 230.53H130.79V238.23H138.49V230.53Z" fill="#28AF5F"/>
<path d="M138.49 222.9H130.79V230.53H138.49V222.9Z" fill="#2ECC71"/>
<path d="M138.49 215.2H130.79V222.9H138.49V215.2Z" fill="#2ECC71"/>
<path d="M138.49 207.49H130.79V215.19H138.49V207.49Z" fill="#2ECC71"/>
<path d="M138.49 199.87H130.79V207.5H138.49V199.87Z" fill="#2ECC71"/>
<path d="M138.49 192.16H130.79V199.86H138.49V192.16Z" fill="#2ECC71"/>
<path d="M138.49 184.53H130.79V192.16H138.49V184.53Z" fill="#2ECC71"/>
<path d="M138.49 176.83H130.79V184.53H138.49V176.83Z" fill="#28AF5F"/>
<path d="M138.49 169.22H130.79V176.85H138.49V169.22Z" fill="#28AF5F"/>
<path d="M138.49 84.7798H130.79V92.4798H138.49V84.7798Z" fill="#298E52"/>
<path d="M138.49 77.1602H130.79V84.7901H138.49V77.1602Z" fill="#E5A870"/>
<path d="M138.49 69.4502H130.79V77.1502H138.49V69.4502Z" fill="#E5A870"/>
<path d="M138.49 61.8301H130.79V69.4601H138.49V61.8301Z" fill="#E5A870"/>
<path d="M138.49 54.1201H130.79V61.8201H138.49V54.1201Z" fill="#E5A870"/>
<path d="M138.49 46.5098H130.79V54.1398H138.49V46.5098Z" fill="#EA8634"/>
<path d="M138.49 38.7998H130.79V46.4998H138.49V38.7998Z" fill="#EA8634"/>
<path d="M138.49 31.1001H130.79V38.8001H138.49V31.1001Z" fill="#EA8634"/>
<path d="M138.49 15.77H130.79V23.47H138.49V15.77Z" fill="#4C2501"/>
<path d="M130.81 245.86H123.18V253.56H130.81V245.86Z" fill="#28AF5F"/>
<path d="M130.81 238.23H123.18V245.86H130.81V238.23Z" fill="#28AF5F"/>
<path d="M130.81 230.53H123.18V238.23H130.81V230.53Z" fill="#28AF5F"/>
<path d="M130.81 222.9H123.18V230.53H130.81V222.9Z" fill="#28AF5F"/>
<path d="M130.81 215.2H123.18V222.9H130.81V215.2Z" fill="#2ECC71"/>
<path d="M130.81 207.49H123.18V215.19H130.81V207.49Z" fill="#2ECC71"/>
<path d="M130.81 199.87H123.18V207.5H130.81V199.87Z" fill="#2ECC71"/>
<path d="M130.81 192.16H123.18V199.86H130.81V192.16Z" fill="#2ECC71"/>
<path d="M130.81 184.53H123.18V192.16H130.81V184.53Z" fill="#2ECC71"/>
<path d="M130.81 176.83H123.18V184.53H130.81V176.83Z" fill="#2ECC71"/>
<path d="M130.81 169.22H123.18V176.85H130.81V169.22Z" fill="#2ECC71"/>
<path d="M130.81 161.5H123.18V169.2H130.81V161.5Z" fill="#28AF5F"/>
<path d="M130.81 153.8H123.18V161.5H130.81V153.8Z" fill="#28AF5F"/>
<path d="M130.81 92.4902H123.18V100.19H130.81V92.4902Z" fill="#298E52"/>
<path d="M130.81 84.7798H123.18V92.4798H130.81V84.7798Z" fill="#298E52"/>
<path d="M130.81 77.1602H123.18V84.7901H130.81V77.1602Z" fill="#298E52"/>
<path d="M130.81 69.4502H123.18V77.1502H130.81V69.4502Z" fill="#298E52"/>
<path d="M130.81 61.8301H123.18V69.4601H130.81V61.8301Z" fill="#E5A870"/>
<path d="M130.81 54.1201H123.18V61.8201H130.81V54.1201Z" fill="#E5A870"/>
<path d="M130.81 46.5098H123.18V54.1398H130.81V46.5098Z" fill="#E5A870"/>
<path d="M130.81 38.7998H123.18V46.4998H130.81V38.7998Z" fill="#E5A870"/>
<path d="M130.81 31.1001H123.18V38.8001H130.81V31.1001Z" fill="#E5A870"/>
<path d="M130.81 23.4702H123.18V31.1002H130.81V23.4702Z" fill="#4C2501"/>
<path d="M123.18 245.86H115.48V253.56H123.18V245.86Z" fill="#28AF5F"/>
<path d="M123.18 238.23H115.48V245.86H123.18V238.23Z" fill="#28AF5F"/>
<path d="M123.18 230.53H115.48V238.23H123.18V230.53Z" fill="#2ECC71"/>
<path d="M123.18 222.9H115.48V230.53H123.18V222.9Z" fill="#28AF5F"/>
<path d="M123.18 215.2H115.48V222.9H123.18V215.2Z" fill="#28AF5F"/>
<path d="M123.18 207.49H115.48V215.19H123.18V207.49Z" fill="#2ECC71"/>
<path d="M123.18 199.87H115.48V207.5H123.18V199.87Z" fill="#2ECC71"/>
<path d="M123.18 192.16H115.48V199.86H123.18V192.16Z" fill="#2ECC71"/>
<path d="M123.18 184.53H115.48V192.16H123.18V184.53Z" fill="#2ECC71"/>
<path d="M123.18 176.83H115.48V184.53H123.18V176.83Z" fill="#2ECC71"/>
<path d="M123.18 169.22H115.48V176.85H123.18V169.22Z" fill="#2ECC71"/>
<path d="M123.18 161.5H115.48V169.2H123.18V161.5Z" fill="#2ECC71"/>
<path d="M123.18 153.8H115.48V161.5H123.18V153.8Z" fill="#2ECC71"/>
<path d="M123.18 146.18H115.48V153.81H123.18V146.18Z" fill="#28AF5F"/>
<path d="M123.18 138.48H115.48V146.18H123.18V138.48Z" fill="#28AF5F"/>
<path d="M123.18 130.85H115.48V138.48H123.18V130.85Z" fill="#28AF5F"/>
<path d="M123.18 100.19H115.48V107.82H123.18V100.19Z" fill="#298E52"/>
<path d="M123.18 92.4902H115.48V100.19H123.18V92.4902Z" fill="#28AF5F"/>
<path d="M123.18 84.7798H115.48V92.4798H123.18V84.7798Z" fill="#28AF5F"/>
<path d="M123.18 77.1602H115.48V84.7901H123.18V77.1602Z" fill="#298E52"/>
<path d="M123.18 69.4502H115.48V77.1502H123.18V69.4502Z" fill="#298E52"/>
<path d="M123.18 61.8301H115.48V69.4601H123.18V61.8301Z" fill="#298E52"/>
<path d="M123.18 54.1201H115.48V61.8201H123.18V54.1201Z" fill="#4C2501"/>
<path d="M123.18 46.5098H115.48V54.1398H123.18V46.5098Z" fill="#E5A870"/>
<path d="M123.18 38.7998H115.48V46.4998H123.18V38.7998Z" fill="#E5A870"/>
<path d="M123.18 31.1001H115.48V38.8001H123.18V31.1001Z" fill="#E5A870"/>
<path d="M115.48 245.86H107.85V253.56H115.48V245.86Z" fill="#28AF5F"/>
<path d="M115.48 238.23H107.85V245.86H115.48V238.23Z" fill="#28AF5F"/>
<path d="M115.48 230.53H107.85V238.23H115.48V230.53Z" fill="#2ECC71"/>
<path d="M115.48 222.9H107.85V230.53H115.48V222.9Z" fill="#28AF5F"/>
<path d="M115.48 215.2H107.85V222.9H115.48V215.2Z" fill="#28AF5F"/>
<path d="M115.48 207.49H107.85V215.19H115.48V207.49Z" fill="#2ECC71"/>
<path d="M115.48 199.87H107.85V207.5H115.48V199.87Z" fill="#2ECC71"/>
<path d="M115.48 192.16H107.85V199.86H115.48V192.16Z" fill="#2ECC71"/>
<path d="M115.48 184.53H107.85V192.16H115.48V184.53Z" fill="#2ECC71"/>
<path d="M115.48 176.83H107.85V184.53H115.48V176.83Z" fill="#2ECC71"/>
<path d="M115.48 169.22H107.85V176.85H115.48V169.22Z" fill="#2ECC71"/>
<path d="M115.48 161.5H107.85V169.2H115.48V161.5Z" fill="#2ECC71"/>
<path d="M115.48 153.8H107.85V161.5H115.48V153.8Z" fill="#2ECC71"/>
<path d="M115.48 146.18H107.85V153.81H115.48V146.18Z" fill="#2ECC71"/>
<path d="M115.48 138.48H107.85V146.18H115.48V138.48Z" fill="#2ECC71"/>
<path d="M115.48 130.85H107.85V138.48H115.48V130.85Z" fill="#2ECC71"/>
<path d="M115.48 123.15H107.85V130.85H115.48V123.15Z" fill="#298E52"/>
<path d="M115.48 115.52H107.85V123.15H115.48V115.52Z" fill="#025624"/>
<path d="M115.48 107.82H107.85V115.52H115.48V107.82Z" fill="#298E52"/>
<path d="M115.48 100.19H107.85V107.82H115.48V100.19Z" fill="#28AF5F"/>
<path d="M115.48 92.4902H107.85V100.19H115.48V92.4902Z" fill="#28AF5F"/>
<path d="M115.48 84.7798H107.85V92.4798H115.48V84.7798Z" fill="#28AF5F"/>
<path d="M115.48 77.1602H107.85V84.7901H115.48V77.1602Z" fill="#28AF5F"/>
<path d="M115.48 69.4502H107.85V77.1502H115.48V69.4502Z" fill="#4C2501"/>
<path d="M115.48 61.8301H107.85V69.4601H115.48V61.8301Z" fill="#4C2501"/>
<path d="M115.48 54.1201H107.85V61.8201H115.48V54.1201Z" fill="#298E52"/>
<path d="M115.48 46.5098H107.85V54.1398H115.48V46.5098Z" fill="#298E52"/>
<path d="M115.48 38.7998H107.85V46.4998H115.48V38.7998Z" fill="#298E52"/>
<path d="M107.84 245.86H100.14V253.56H107.84V245.86Z" fill="#28AF5F"/>
<path d="M107.84 238.23H100.14V245.86H107.84V238.23Z" fill="#28AF5F"/>
<path d="M107.84 230.53H100.14V238.23H107.84V230.53Z" fill="#28AF5F"/>
<path d="M107.84 222.9H100.14V230.53H107.84V222.9Z" fill="#2ECC71"/>
<path d="M107.84 215.2H100.14V222.9H107.84V215.2Z" fill="#28AF5F"/>
<path d="M107.84 207.49H100.14V215.19H107.84V207.49Z" fill="#28AF5F"/>
<path d="M107.84 199.87H100.14V207.5H107.84V199.87Z" fill="#2ECC71"/>
<path d="M107.84 192.16H100.14V199.86H107.84V192.16Z" fill="#2ECC71"/>
<path d="M107.84 184.53H100.14V192.16H107.84V184.53Z" fill="#2ECC71"/>
<path d="M107.84 176.83H100.14V184.53H107.84V176.83Z" fill="#2ECC71"/>
<path d="M107.84 169.22H100.14V176.85H107.84V169.22Z" fill="#2ECC71"/>
<path d="M107.84 161.5H100.14V169.2H107.84V161.5Z" fill="#2ECC71"/>
<path d="M107.84 153.8H100.14V161.5H107.84V153.8Z" fill="#2ECC71"/>
<path d="M107.84 146.18H100.14V153.81H107.84V146.18Z" fill="#2ECC71"/>
<path d="M107.84 138.48H100.14V146.18H107.84V138.48Z" fill="#2ECC71"/>
<path d="M107.84 130.85H100.14V138.48H107.84V130.85Z" fill="#2ECC71"/>
<path d="M107.84 123.15H100.14V130.85H107.84V123.15Z" fill="#298E52"/>
<path d="M107.84 115.52H100.14V123.15H107.84V115.52Z" fill="#025624"/>
<path d="M107.84 107.82H100.14V115.52H107.84V107.82Z" fill="#28AF5F"/>
<path d="M107.84 100.19H100.14V107.82H107.84V100.19Z" fill="#28AF5F"/>
<path d="M107.84 92.4902H100.14V100.19H107.84V92.4902Z" fill="#2ECC71"/>
<path d="M107.84 84.7798H100.14V92.4798H107.84V84.7798Z" fill="#28AF5F"/>
<path d="M107.84 77.1602H100.14V84.7901H107.84V77.1602Z" fill="#28AF5F"/>
<path d="M107.84 69.4502H100.14V77.1502H107.84V69.4502Z" fill="#28AF5F"/>
<path d="M107.84 61.8301H100.14V69.4601H107.84V61.8301Z" fill="#298E52"/>
<path d="M107.84 54.1201H100.14V61.8201H107.84V54.1201Z" fill="#2ECC71"/>
<path d="M107.84 46.5098H100.14V54.1398H107.84V46.5098Z" fill="#28AF5F"/>
<path d="M107.84 38.7998H100.14V46.4998H107.84V38.7998Z" fill="#298E52"/>
<path d="M107.84 23.4702H100.14V31.1002H107.84V23.4702Z" fill="#5B5957"/>
<path d="M107.84 15.77H100.14V23.47H107.84V15.77Z" fill="#878481"/>
<path d="M107.84 8.14014H100.14V15.7701H107.84V8.14014Z" fill="#878481"/>
<path d="M100.15 245.86H92.5195V253.56H100.15V245.86Z" fill="#28AF5F"/>
<path d="M100.15 238.23H92.5195V245.86H100.15V238.23Z" fill="#28AF5F"/>
<path d="M100.15 230.53H92.5195V238.23H100.15V230.53Z" fill="#28AF5F"/>
<path d="M100.15 222.9H92.5195V230.53H100.15V222.9Z" fill="#2ECC71"/>
<path d="M100.15 215.2H92.5195V222.9H100.15V215.2Z" fill="#28AF5F"/>
<path d="M100.15 207.49H92.5195V215.19H100.15V207.49Z" fill="#28AF5F"/>
<path d="M100.15 199.87H92.5195V207.5H100.15V199.87Z" fill="#2ECC71"/>
<path d="M100.15 192.16H92.5195V199.86H100.15V192.16Z" fill="#2ECC71"/>
<path d="M100.15 184.53H92.5195V192.16H100.15V184.53Z" fill="#2ECC71"/>
<path d="M100.15 176.83H92.5195V184.53H100.15V176.83Z" fill="#2ECC71"/>
<path d="M100.15 169.22H92.5195V176.85H100.15V169.22Z" fill="#2ECC71"/>
<path d="M100.15 161.5H92.5195V169.2H100.15V161.5Z" fill="#2ECC71"/>
<path d="M100.15 153.8H92.5195V161.5H100.15V153.8Z" fill="#2ECC71"/>
<path d="M100.15 146.18H92.5195V153.81H100.15V146.18Z" fill="#2ECC71"/>
<path d="M100.15 138.48H92.5195V146.18H100.15V138.48Z" fill="#2ECC71"/>
<path d="M100.15 130.85H92.5195V138.48H100.15V130.85Z" fill="#28AF5F"/>
<path d="M100.15 123.15H92.5195V130.85H100.15V123.15Z" fill="#025624"/>
<path d="M100.15 115.52H92.5195V123.15H100.15V115.52Z" fill="#298E52"/>
<path d="M100.15 107.82H92.5195V115.52H100.15V107.82Z" fill="#28AF5F"/>
<path d="M100.15 100.19H92.5195V107.82H100.15V100.19Z" fill="#2ECC71"/>
<path d="M100.15 92.4902H92.5195V100.19H100.15V92.4902Z" fill="#2ECC71"/>
<path d="M100.15 84.7798H92.5195V92.4798H100.15V84.7798Z" fill="#2ECC71"/>
<path d="M100.15 77.1602H92.5195V84.7901H100.15V77.1602Z" fill="#28AF5F"/>
<path d="M100.15 69.4502H92.5195V77.1502H100.15V69.4502Z" fill="#28AF5F"/>
<path d="M100.15 61.8301H92.5195V69.4601H100.15V61.8301Z" fill="#28AF5F"/>
<path d="M100.15 54.1201H92.5195V61.8201H100.15V54.1201Z" fill="#2ECC71"/>
<path d="M100.15 46.5098H92.5195V54.1398H100.15V46.5098Z" fill="#2ECC71"/>
<path d="M100.15 38.7998H92.5195V46.4998H100.15V38.7998Z" fill="#28AF5F"/>
<path d="M100.15 31.1001H92.5195V38.8001H100.15V31.1001Z" fill="#EFAD65"/>
<path d="M100.15 23.4702H92.5195V31.1002H100.15V23.4702Z" fill="#5B5957"/>
<path d="M100.15 15.77H92.5195V23.47H100.15V15.77Z" fill="#878481"/>
<path d="M100.15 8.14014H92.5195V15.7701H100.15V8.14014Z" fill="#878481"/>
<path d="M100.15 0.439941H92.5195V8.13994H100.15V0.439941Z" fill="#EFAD65"/>
<path d="M92.5096 245.86H84.8096V253.56H92.5096V245.86Z" fill="#28AF5F"/>
<path d="M92.5096 238.23H84.8096V245.86H92.5096V238.23Z" fill="#28AF5F"/>
<path d="M92.5096 230.53H84.8096V238.23H92.5096V230.53Z" fill="#28AF5F"/>
<path d="M92.5096 222.9H84.8096V230.53H92.5096V222.9Z" fill="#28AF5F"/>
<path d="M92.5096 215.2H84.8096V222.9H92.5096V215.2Z" fill="#2ECC71"/>
<path d="M92.5096 207.49H84.8096V215.19H92.5096V207.49Z" fill="#28AF5F"/>
<path d="M92.5096 199.87H84.8096V207.5H92.5096V199.87Z" fill="#28AF5F"/>
<path d="M92.5096 192.16H84.8096V199.86H92.5096V192.16Z" fill="#2ECC71"/>
<path d="M92.5096 184.53H84.8096V192.16H92.5096V184.53Z" fill="#025624"/>
<path d="M92.5096 176.83H84.8096V184.53H92.5096V176.83Z" fill="#025624"/>
<path d="M92.5096 169.22H84.8096V176.85H92.5096V169.22Z" fill="#025624"/>
<path d="M92.5096 161.5H84.8096V169.2H92.5096V161.5Z" fill="#2ECC71"/>
<path d="M92.5096 153.8H84.8096V161.5H92.5096V153.8Z" fill="#2ECC71"/>
<path d="M92.5096 146.18H84.8096V153.81H92.5096V146.18Z" fill="#2ECC71"/>
<path d="M92.5096 138.48H84.8096V146.18H92.5096V138.48Z" fill="#2ECC71"/>
<path d="M92.5096 130.85H84.8096V138.48H92.5096V130.85Z" fill="#28AF5F"/>
<path d="M92.5096 123.15H84.8096V130.85H92.5096V123.15Z" fill="#025624"/>
<path d="M92.5096 115.52H84.8096V123.15H92.5096V115.52Z" fill="#28AF5F"/>
<path d="M92.5096 107.82H84.8096V115.52H92.5096V107.82Z" fill="#28AF5F"/>
<path d="M92.5096 100.19H84.8096V107.82H92.5096V100.19Z" fill="#28AF5F"/>
<path d="M92.5096 92.4902H84.8096V100.19H92.5096V92.4902Z" fill="#28AF5F"/>
<path d="M92.5096 84.7798H84.8096V92.4798H92.5096V84.7798Z" fill="#2ECC71"/>
<path d="M92.5096 77.1602H84.8096V84.7901H92.5096V77.1602Z" fill="#2ECC71"/>
<path d="M92.5096 69.4502H84.8096V77.1502H92.5096V69.4502Z" fill="#2ECC71"/>
<path d="M92.5096 61.8301H84.8096V69.4601H92.5096V61.8301Z" fill="#2ECC71"/>
<path d="M92.5096 54.1201H84.8096V61.8201H92.5096V54.1201Z" fill="#2ECC71"/>
<path d="M92.5096 46.5098H84.8096V54.1398H92.5096V46.5098Z" fill="#28AF5F"/>
<path d="M92.5096 38.7998H84.8096V46.4998H92.5096V38.7998Z" fill="#EFAD65"/>
<path d="M92.5096 31.1001H84.8096V38.8001H92.5096V31.1001Z" fill="#EFAD65"/>
<path d="M92.5096 23.4702H84.8096V31.1002H92.5096V23.4702Z" fill="#EFAD65"/>
<path d="M92.5096 15.77H84.8096V23.47H92.5096V15.77Z" fill="#5B5957"/>
<path d="M92.5096 8.14014H84.8096V15.7701H92.5096V8.14014Z" fill="#878481"/>
<path d="M92.5096 0.439941H84.8096V8.13994H92.5096V0.439941Z" fill="#EFAD65"/>
<path d="M84.8204 245.86H77.1904V253.56H84.8204V245.86Z" fill="#28AF5F"/>
<path d="M84.8204 238.23H77.1904V245.86H84.8204V238.23Z" fill="#28AF5F"/>
<path d="M84.8204 230.53H77.1904V238.23H84.8204V230.53Z" fill="#28AF5F"/>
<path d="M84.8204 222.9H77.1904V230.53H84.8204V222.9Z" fill="#28AF5F"/>
<path d="M84.8204 215.2H77.1904V222.9H84.8204V215.2Z" fill="#2ECC71"/>
<path d="M84.8204 207.49H77.1904V215.19H84.8204V207.49Z" fill="#28AF5F"/>
<path d="M84.8204 199.87H77.1904V207.5H84.8204V199.87Z" fill="#28AF5F"/>
<path d="M84.8204 192.16H77.1904V199.86H84.8204V192.16Z" fill="#2ECC71"/>
<path d="M84.8204 184.53H77.1904V192.16H84.8204V184.53Z" fill="#2ECC71"/>
<path d="M84.8204 176.83H77.1904V184.53H84.8204V176.83Z" fill="#2ECC71"/>
<path d="M84.8204 169.22H77.1904V176.85H84.8204V169.22Z" fill="#2ECC71"/>
<path d="M84.8204 161.5H77.1904V169.2H84.8204V161.5Z" fill="#025624"/>
<path d="M84.8204 153.8H77.1904V161.5H84.8204V153.8Z" fill="#025624"/>
<path d="M84.8204 146.18H77.1904V153.81H84.8204V146.18Z" fill="#025624"/>
<path d="M84.8204 138.48H77.1904V146.18H84.8204V138.48Z" fill="#025624"/>
<path d="M84.8204 130.85H77.1904V138.48H84.8204V130.85Z" fill="#28AF5F"/>
<path d="M84.8204 123.15H77.1904V130.85H84.8204V123.15Z" fill="#025624"/>
<path d="M84.8204 115.52H77.1904V123.15H84.8204V115.52Z" fill="#28AF5F"/>
<path d="M84.8204 107.82H77.1904V115.52H84.8204V107.82Z" fill="#28AF5F"/>
<path d="M84.8204 100.19H77.1904V107.82H84.8204V100.19Z" fill="#28AF5F"/>
<path d="M84.8204 92.4902H77.1904V100.19H84.8204V92.4902Z" fill="#28AF5F"/>
<path d="M84.8204 84.7798H77.1904V92.4798H84.8204V84.7798Z" fill="#28AF5F"/>
<path d="M84.8204 77.1602H77.1904V84.7901H84.8204V77.1602Z" fill="#2ECC71"/>
<path d="M84.8204 69.4502H77.1904V77.1502H84.8204V69.4502Z" fill="#2ECC71"/>
<path d="M84.8204 61.8301H77.1904V69.4601H84.8204V61.8301Z" fill="#2ECC71"/>
<path d="M84.8204 54.1201H77.1904V61.8201H84.8204V54.1201Z" fill="#2ECC71"/>
<path d="M84.8204 46.5098H77.1904V54.1398H84.8204V46.5098Z" fill="#28AF5F"/>
<path d="M84.8204 38.7998H77.1904V46.4998H84.8204V38.7998Z" fill="#EFAD65"/>
<path d="M84.8204 31.1001H77.1904V38.8001H84.8204V31.1001Z" fill="#EFAD65"/>
<path d="M84.8204 23.4702H77.1904V31.1002H84.8204V23.4702Z" fill="#EFAD65"/>
<path d="M84.8204 15.77H77.1904V23.47H84.8204V15.77Z" fill="#EFAD65"/>
<path d="M84.8204 8.14014H77.1904V15.7701H84.8204V8.14014Z" fill="#EFAD65"/>
<path d="M84.8204 0.439941H77.1904V8.13994H84.8204V0.439941Z" fill="#EFAD65"/>
<path d="M77.1805 245.86H69.4805V253.56H77.1805V245.86Z" fill="#28AF5F"/>
<path d="M77.1805 238.23H69.4805V245.86H77.1805V238.23Z" fill="#28AF5F"/>
<path d="M77.1805 230.53H69.4805V238.23H77.1805V230.53Z" fill="#28AF5F"/>
<path d="M77.1805 222.9H69.4805V230.53H77.1805V222.9Z" fill="#28AF5F"/>
<path d="M77.1805 215.2H69.4805V222.9H77.1805V215.2Z" fill="#28AF5F"/>
<path d="M77.1805 207.49H69.4805V215.19H77.1805V207.49Z" fill="#2ECC71"/>
<path d="M77.1805 199.87H69.4805V207.5H77.1805V199.87Z" fill="#28AF5F"/>
<path d="M77.1805 192.16H69.4805V199.86H77.1805V192.16Z" fill="#2ECC71"/>
<path d="M77.1805 184.53H69.4805V192.16H77.1805V184.53Z" fill="#2ECC71"/>
<path d="M77.1805 176.83H69.4805V184.53H77.1805V176.83Z" fill="#2ECC71"/>
<path d="M77.1805 169.22H69.4805V176.85H77.1805V169.22Z" fill="#2ECC71"/>
<path d="M77.1805 161.5H69.4805V169.2H77.1805V161.5Z" fill="#2ECC71"/>
<path d="M77.1805 153.8H69.4805V161.5H77.1805V153.8Z" fill="#2ECC71"/>
<path d="M77.1805 146.18H69.4805V153.81H77.1805V146.18Z" fill="#2ECC71"/>
<path d="M77.1805 138.48H69.4805V146.18H77.1805V138.48Z" fill="#28AF5F"/>
<path d="M77.1805 130.85H69.4805V138.48H77.1805V130.85Z" fill="#025624"/>
<path d="M77.1805 123.15H69.4805V130.85H77.1805V123.15Z" fill="#025624"/>
<path d="M77.1805 115.52H69.4805V123.15H77.1805V115.52Z" fill="#28AF5F"/>
<path d="M77.1805 107.82H69.4805V115.52H77.1805V107.82Z" fill="#28AF5F"/>
<path d="M77.1805 100.19H69.4805V107.82H77.1805V100.19Z" fill="#28AF5F"/>
<path d="M77.1805 92.4902H69.4805V100.19H77.1805V92.4902Z" fill="#28AF5F"/>
<path d="M77.1805 84.7798H69.4805V92.4798H77.1805V84.7798Z" fill="#28AF5F"/>
<path d="M77.1805 77.1602H69.4805V84.7901H77.1805V77.1602Z" fill="#28AF5F"/>
<path d="M77.1805 69.4502H69.4805V77.1502H77.1805V69.4502Z" fill="#2ECC71"/>
<path d="M77.1805 61.8301H69.4805V69.4601H77.1805V61.8301Z" fill="#2ECC71"/>
<path d="M77.1805 54.1201H69.4805V61.8201H77.1805V54.1201Z" fill="#2ECC71"/>
<path d="M77.1805 46.5098H69.4805V54.1398H77.1805V46.5098Z" fill="#28AF5F"/>
<path d="M77.1805 38.7998H69.4805V46.4998H77.1805V38.7998Z" fill="#EFAD65"/>
<path d="M77.1805 31.1001H69.4805V38.8001H77.1805V31.1001Z" fill="#EFAD65"/>
<path d="M77.1805 23.4702H69.4805V31.1002H77.1805V23.4702Z" fill="#EFAD65"/>
<path d="M77.1805 15.77H69.4805V23.47H77.1805V15.77Z" fill="#EFAD65"/>
<path d="M77.1805 8.14014H69.4805V15.7701H77.1805V8.14014Z" fill="#EFAD65"/>
<path d="M77.1805 0.439941H69.4805V8.13994H77.1805V0.439941Z" fill="#EFAD65"/>
<path d="M69.4803 245.86H61.7803V253.56H69.4803V245.86Z" fill="#28AF5F"/>
<path d="M69.4803 238.23H61.7803V245.86H69.4803V238.23Z" fill="#28AF5F"/>
<path d="M69.4803 230.53H61.7803V238.23H69.4803V230.53Z" fill="#28AF5F"/>
<path d="M69.4803 222.9H61.7803V230.53H69.4803V222.9Z" fill="#28AF5F"/>
<path d="M69.4803 215.2H61.7803V222.9H69.4803V215.2Z" fill="#28AF5F"/>
<path d="M69.4803 207.49H61.7803V215.19H69.4803V207.49Z" fill="#2ECC71"/>
<path d="M69.4803 199.87H61.7803V207.5H69.4803V199.87Z" fill="#28AF5F"/>
<path d="M69.4803 192.16H61.7803V199.86H69.4803V192.16Z" fill="#2ECC71"/>
<path d="M69.4803 184.53H61.7803V192.16H69.4803V184.53Z" fill="#025624"/>
<path d="M69.4803 176.83H61.7803V184.53H69.4803V176.83Z" fill="#025624"/>
<path d="M69.4803 169.22H61.7803V176.85H69.4803V169.22Z" fill="#025624"/>
<path d="M69.4803 161.5H61.7803V169.2H69.4803V161.5Z" fill="#025624"/>
<path d="M69.4803 153.8H61.7803V161.5H69.4803V153.8Z" fill="#025624"/>
<path d="M69.4803 146.18H61.7803V153.81H69.4803V146.18Z" fill="#025624"/>
<path d="M69.4803 138.48H61.7803V146.18H69.4803V138.48Z" fill="#025624"/>
<path d="M69.4803 130.85H61.7803V138.48H69.4803V130.85Z" fill="#28AF5F"/>
<path d="M69.4803 123.15H61.7803V130.85H69.4803V123.15Z" fill="#28AF5F"/>
<path d="M69.4803 115.52H61.7803V123.15H69.4803V115.52Z" fill="#025624"/>
<path d="M69.4803 107.82H61.7803V115.52H69.4803V107.82Z" fill="#2ECC71"/>
<path d="M69.4803 100.19H61.7803V107.82H69.4803V100.19Z" fill="#2ECC71"/>
<path d="M69.4803 92.4902H61.7803V100.19H69.4803V92.4902Z" fill="#2ECC71"/>
<path d="M69.4803 84.7798H61.7803V92.4798H69.4803V84.7798Z" fill="#2ECC71"/>
<path d="M69.4803 77.1602H61.7803V84.7901H69.4803V77.1602Z" fill="#2ECC71"/>
<path d="M69.4803 69.4502H61.7803V77.1502H69.4803V69.4502Z" fill="#2ECC71"/>
<path d="M69.4803 61.8301H61.7803V69.4601H69.4803V61.8301Z" fill="#2ECC71"/>
<path d="M69.4803 54.1201H61.7803V61.8201H69.4803V54.1201Z" fill="#28AF5F"/>
<path d="M69.4803 46.5098H61.7803V54.1398H69.4803V46.5098Z" fill="#28AF5F"/>
<path d="M69.4803 38.7998H61.7803V46.4998H69.4803V38.7998Z" fill="#EFAD65"/>
<path d="M69.4803 31.1001H61.7803V38.8001H69.4803V31.1001Z" fill="#EA8634"/>
<path d="M69.4803 23.4702H61.7803V31.1002H69.4803V23.4702Z" fill="#EA8634"/>
<path d="M69.4803 15.77H61.7803V23.47H69.4803V15.77Z" fill="#EFAD65"/>
<path d="M69.4803 8.14014H61.7803V15.7701H69.4803V8.14014Z" fill="#EFAD65"/>
<path d="M61.7804 245.86H54.1504V253.56H61.7804V245.86Z" fill="#28AF5F"/>
<path d="M61.7804 238.23H54.1504V245.86H61.7804V238.23Z" fill="#28AF5F"/>
<path d="M61.7804 230.53H54.1504V238.23H61.7804V230.53Z" fill="#28AF5F"/>
<path d="M61.7804 222.9H54.1504V230.53H61.7804V222.9Z" fill="#28AF5F"/>
<path d="M61.7804 215.2H54.1504V222.9H61.7804V215.2Z" fill="#28AF5F"/>
<path d="M61.7804 207.49H54.1504V215.19H61.7804V207.49Z" fill="#28AF5F"/>
<path d="M61.7804 199.87H54.1504V207.5H61.7804V199.87Z" fill="#28AF5F"/>
<path d="M61.7804 192.16H54.1504V199.86H61.7804V192.16Z" fill="#28AF5F"/>
<path d="M61.7804 184.53H54.1504V192.16H61.7804V184.53Z" fill="#28AF5F"/>
<path d="M61.7804 176.83H54.1504V184.53H61.7804V176.83Z" fill="#2ECC71"/>
<path d="M61.7804 169.22H54.1504V176.85H61.7804V169.22Z" fill="#2ECC71"/>
<path d="M61.7804 161.5H54.1504V169.2H61.7804V161.5Z" fill="#2ECC71"/>
<path d="M61.7804 153.8H54.1504V161.5H61.7804V153.8Z" fill="#2ECC71"/>
<path d="M61.7804 146.18H54.1504V153.81H61.7804V146.18Z" fill="#28AF5F"/>
<path d="M61.7804 107.82H54.1504V115.52H61.7804V107.82Z" fill="#28AF5F"/>
<path d="M61.7804 100.19H54.1504V107.82H61.7804V100.19Z" fill="#2ECC71"/>
<path d="M61.7804 92.4902H54.1504V100.19H61.7804V92.4902Z" fill="#2ECC71"/>
<path d="M61.7804 84.7798H54.1504V92.4798H61.7804V84.7798Z" fill="#2ECC71"/>
<path d="M61.7804 77.1602H54.1504V84.7901H61.7804V77.1602Z" fill="#28AF5F"/>
<path d="M61.7804 69.4502H54.1504V77.1502H61.7804V69.4502Z" fill="#28AF5F"/>
<path d="M61.7804 61.8301H54.1504V69.4601H61.7804V61.8301Z" fill="#28AF5F"/>
<path d="M54.1502 245.86H46.4502V253.56H54.1502V245.86Z" fill="#28AF5F"/>
<path d="M54.1502 238.23H46.4502V245.86H54.1502V238.23Z" fill="#28AF5F"/>
<path d="M54.1502 230.53H46.4502V238.23H54.1502V230.53Z" fill="#28AF5F"/>
<path d="M54.1502 222.9H46.4502V230.53H54.1502V222.9Z" fill="#28AF5F"/>
<path d="M54.1502 215.2H46.4502V222.9H54.1502V215.2Z" fill="#28AF5F"/>
<path d="M54.1502 207.49H46.4502V215.19H54.1502V207.49Z" fill="#28AF5F"/>
<path d="M54.1502 199.87H46.4502V207.5H54.1502V199.87Z" fill="#2ECC71"/>
<path d="M54.1502 192.16H46.4502V199.86H54.1502V192.16Z" fill="#2ECC71"/>
<path d="M54.1502 184.53H46.4502V192.16H54.1502V184.53Z" fill="#2ECC71"/>
<path d="M54.1502 176.83H46.4502V184.53H54.1502V176.83Z" fill="#2ECC71"/>
<path d="M54.1502 169.22H46.4502V176.85H54.1502V169.22Z" fill="#2ECC71"/>
<path d="M54.1502 161.5H46.4502V169.2H54.1502V161.5Z" fill="#28AF5F"/>
<path d="M54.1502 153.8H46.4502V161.5H54.1502V153.8Z" fill="#28AF5F"/>
<path d="M54.1502 107.82H46.4502V115.52H54.1502V107.82Z" fill="#28AF5F"/>
<path d="M54.1502 100.19H46.4502V107.82H54.1502V100.19Z" fill="#28AF5F"/>
<path d="M54.1502 92.4902H46.4502V100.19H54.1502V92.4902Z" fill="#28AF5F"/>
<path d="M54.1502 84.7798H46.4502V92.4798H54.1502V84.7798Z" fill="#28AF5F"/>
<path d="M54.1502 77.1602H46.4502V84.7901H54.1502V77.1602Z" fill="#28AF5F"/>
<path d="M46.4503 245.86H38.8203V253.56H46.4503V245.86Z" fill="#28AF5F"/>
<path d="M46.4503 238.23H38.8203V245.86H46.4503V238.23Z" fill="#2ECC71"/>
<path d="M46.4503 230.53H38.8203V238.23H46.4503V230.53Z" fill="#2ECC71"/>
<path d="M46.4503 222.9H38.8203V230.53H46.4503V222.9Z" fill="#2ECC71"/>
<path d="M46.4503 215.2H38.8203V222.9H46.4503V215.2Z" fill="#2ECC71"/>
<path d="M46.4503 207.49H38.8203V215.19H46.4503V207.49Z" fill="#2ECC71"/>
<path d="M46.4503 199.87H38.8203V207.5H46.4503V199.87Z" fill="#2ECC71"/>
<path d="M46.4503 192.16H38.8203V199.86H46.4503V192.16Z" fill="#2ECC71"/>
<path d="M46.4503 184.53H38.8203V192.16H46.4503V184.53Z" fill="#28AF5F"/>
<path d="M46.4503 176.83H38.8203V184.53H46.4503V176.83Z" fill="#28AF5F"/>
<path d="M46.4503 169.22H38.8203V176.85H46.4503V169.22Z" fill="#28AF5F"/>
<path d="M46.4503 115.52H38.8203V123.15H46.4503V115.52Z" fill="#28AF5F"/>
<path d="M46.4503 107.82H38.8203V115.52H46.4503V107.82Z" fill="#28AF5F"/>
<path d="M46.4503 100.19H38.8203V107.82H46.4503V100.19Z" fill="#28AF5F"/>
<path d="M46.4503 92.4902H38.8203V100.19H46.4503V92.4902Z" fill="#28AF5F"/>
<path d="M38.8201 245.86H31.1201V253.56H38.8201V245.86Z" fill="#28AF5F"/>
<path d="M38.8201 238.23H31.1201V245.86H38.8201V238.23Z" fill="#28AF5F"/>
<path d="M38.8201 230.53H31.1201V238.23H38.8201V230.53Z" fill="#28AF5F"/>
<path d="M38.8201 222.9H31.1201V230.53H38.8201V222.9Z" fill="#28AF5F"/>
<path d="M38.8201 215.2H31.1201V222.9H38.8201V215.2Z" fill="#28AF5F"/>
<path d="M38.8201 207.49H31.1201V215.19H38.8201V207.49Z" fill="#28AF5F"/>
<path d="M38.8201 199.87H31.1201V207.5H38.8201V199.87Z" fill="#28AF5F"/>
<path d="M38.8201 192.16H31.1201V199.86H38.8201V192.16Z" fill="#28AF5F"/>
<path d="M38.8201 184.53H31.1201V192.16H38.8201V184.53Z" fill="#28AF5F"/>
<path d="M38.8201 115.52H31.1201V123.15H38.8201V115.52Z" fill="#EFAD65"/>
<path d="M38.8201 107.82H31.1201V115.52H38.8201V107.82Z" fill="#EFAD65"/>
<path d="M38.8201 100.19H31.1201V107.82H38.8201V100.19Z" fill="#EFAD65"/>
<path d="M38.8201 92.4902H31.1201V100.19H38.8201V92.4902Z" fill="#28AF5F"/>
<path d="M31.13 115.52H23.5V123.15H31.13V115.52Z" fill="#EFAD65"/>
<path d="M31.13 107.82H23.5V115.52H31.13V107.82Z" fill="#EFAD65"/>
<path d="M31.13 100.19H23.5V107.82H31.13V100.19Z" fill="#EFAD65"/>
<path d="M23.4998 107.82H15.7998V115.52H23.4998V107.82Z" fill="#EFAD65"/>
<path d="M23.4998 100.19H15.7998V107.82H23.4998V100.19Z" fill="#EFAD65"/>
<path d="M23.4998 92.4902H15.7998V100.19H23.4998V92.4902Z" fill="#EFAD65"/>
<path d="M23.4998 31.1001H15.7998V38.8001H23.4998V31.1001Z" fill="#5E320A"/>
<path d="M23.4998 23.4702H15.7998V31.1002H23.4998V23.4702Z" fill="#5E320A"/>
<path d="M23.4998 15.77H15.7998V23.47H23.4998V15.77Z" fill="#5E320A"/>
<path d="M23.4998 8.14014H15.7998V15.7701H23.4998V8.14014Z" fill="#5E320A"/>
<path d="M15.7996 222.9H8.09961V230.53H15.7996V222.9Z" fill="#492807"/>
<path d="M15.7996 215.2H8.09961V222.9H15.7996V215.2Z" fill="#492807"/>
<path d="M15.7996 207.49H8.09961V215.19H15.7996V207.49Z" fill="#492807"/>
<path d="M15.7996 199.87H8.09961V207.5H15.7996V199.87Z" fill="#492807"/>
<path d="M15.7996 192.16H8.09961V199.86H15.7996V192.16Z" fill="#492807"/>
<path d="M15.7996 184.53H8.09961V192.16H15.7996V184.53Z" fill="#492807"/>
<path d="M15.7996 176.83H8.09961V184.53H15.7996V176.83Z" fill="#492807"/>
<path d="M15.7996 169.22H8.09961V176.85H15.7996V169.22Z" fill="#492807"/>
<path d="M15.7996 161.5H8.09961V169.2H15.7996V161.5Z" fill="#492807"/>
<path d="M15.7996 153.8H8.09961V161.5H15.7996V153.8Z" fill="#492807"/>
<path d="M15.7996 146.18H8.09961V153.81H15.7996V146.18Z" fill="#492807"/>
<path d="M15.7996 138.48H8.09961V146.18H15.7996V138.48Z" fill="#492807"/>
<path d="M15.7996 130.85H8.09961V138.48H15.7996V130.85Z" fill="#492807"/>
<path d="M15.7996 123.15H8.09961V130.85H15.7996V123.15Z" fill="#492807"/>
<path d="M15.7996 115.52H8.09961V123.15H15.7996V115.52Z" fill="#492807"/>
<path d="M15.7996 107.82H8.09961V115.52H15.7996V107.82Z" fill="#EFAD65"/>
<path d="M15.7996 100.19H8.09961V107.82H15.7996V100.19Z" fill="#EFAD65"/>
<path d="M15.7996 92.4902H8.09961V100.19H15.7996V92.4902Z" fill="#EFAD65"/>
<path d="M15.7996 84.7798H8.09961V92.4798H15.7996V84.7798Z" fill="#492807"/>
<path d="M15.7996 77.1602H8.09961V84.7901H15.7996V77.1602Z" fill="#492807"/>
<path d="M15.7996 69.4502H8.09961V77.1502H15.7996V69.4502Z" fill="#492807"/>
<path d="M15.7996 61.8301H8.09961V69.4601H15.7996V61.8301Z" fill="#492807"/>
<path d="M15.7996 54.1201H8.09961V61.8201H15.7996V54.1201Z" fill="#492807"/>
<path d="M15.7996 46.5098H8.09961V54.1398H15.7996V46.5098Z" fill="#492807"/>
<path d="M15.7996 38.7998H8.09961V46.4998H15.7996V38.7998Z" fill="#492807"/>
<path d="M15.7996 31.1001H8.09961V38.8001H15.7996V31.1001Z" fill="#5E320A"/>
<path d="M15.7996 23.4702H8.09961V31.1002H15.7996V23.4702Z" fill="#723B0E"/>
<path d="M15.7996 15.77H8.09961V23.47H15.7996V15.77Z" fill="#723B0E"/>
<path d="M8.09972 100.19H0.469727V107.82H8.09972V100.19Z" fill="#EFAD65"/>
<path d="M8.09972 92.4902H0.469727V100.19H8.09972V92.4902Z" fill="#EFAD65"/>
<path d="M8.09972 38.7998H0.469727V46.4998H8.09972V38.7998Z" fill="#5E320A"/>
<path d="M8.09972 31.1001H0.469727V38.8001H8.09972V31.1001Z" fill="#723B0E"/>
<path d="M8.09972 23.4702H0.469727V31.1002H8.09972V23.4702Z" fill="#84400D"/>
</svg>
