<svg width="206" height="249" viewBox="0 0 206 249" fill="none" xmlns="http://www.w3.org/2000/svg">
<path d="M205.349 155.77H199.109V161.95H205.349V155.77Z" fill="#455360"/>
<path d="M205.349 149.53H199.109V155.77H205.349V149.53Z" fill="#455360"/>
<path d="M205.349 143.29H199.109V149.53H205.349V143.29Z" fill="#455360"/>
<path d="M205.349 137.1H199.109V143.28H205.349V137.1Z" fill="#455360"/>
<path d="M199.11 161.96H192.93V168.2H199.11V161.96Z" fill="#455379"/>
<path d="M199.11 130.86H192.93V137.1H199.11V130.86Z" fill="black"/>
<path d="M192.929 155.77H186.689V161.95H192.929V155.77Z" fill="#455360"/>
<path d="M192.929 149.53H186.689V155.77H192.929V149.53Z" fill="#455360"/>
<path d="M192.929 143.29H186.689V149.53H192.929V143.29Z" fill="#455360"/>
<path d="M192.929 137.1H186.689V143.28H192.929V137.1Z" fill="black"/>
<path d="M192.929 130.86H186.689V137.1H192.929V130.86Z" fill="black"/>
<path d="M192.929 124.68H186.689V130.86H192.929V124.68Z" fill="black"/>
<path d="M186.689 161.96H180.449V168.2H186.689V161.96Z" fill="#455379"/>
<path d="M186.689 137.1H180.449V143.28H186.689V137.1Z" fill="black"/>
<path d="M186.689 130.86H180.449V137.1H186.689V130.86Z" fill="black"/>
<path d="M186.689 124.68H180.449V130.86H186.689V124.68Z" fill="black"/>
<path d="M180.44 130.86H174.25V137.1H180.44V130.86Z" fill="black"/>
<path d="M180.44 124.68H174.25V130.86H180.44V124.68Z" fill="black"/>
<path d="M174.26 149.53H168.02V155.77H174.26V149.53Z" fill="#455360"/>
<path d="M174.26 143.29H168.02V149.53H174.26V143.29Z" fill="#455360"/>
<path d="M174.26 137.1H168.02V143.28H174.26V137.1Z" fill="#455360"/>
<path d="M174.26 130.86H168.02V137.1H174.26V130.86Z" fill="black"/>
<path d="M174.26 124.68H168.02V130.86H174.26V124.68Z" fill="black"/>
<path d="M174.26 118.43H168.02V124.67H174.26V118.43Z" fill="black"/>
<path d="M174.26 112.25H168.02V118.43H174.26V112.25Z" fill="black"/>
<path d="M174.26 106.01H168.02V112.25H174.26V106.01Z" fill="black"/>
<path d="M168.01 155.77H161.83V161.95H168.01V155.77Z" fill="#455379"/>
<path d="M168.01 124.68H161.83V130.86H168.01V124.68Z" fill="black"/>
<path d="M168.01 118.43H161.83V124.67H168.01V118.43Z" fill="#2D1212"/>
<path d="M168.01 112.25H161.83V118.43H168.01V112.25Z" fill="#2D1212"/>
<path d="M168.01 106.01H161.83V112.25H168.01V106.01Z" fill="#2D1212"/>
<path d="M168.01 99.8301H161.83V106.01H168.01V99.8301Z" fill="black"/>
<path d="M168.01 93.5801H161.83V99.8201H168.01V93.5801Z" fill="black"/>
<path d="M168.01 87.3398H161.83V93.5798H168.01V87.3398Z" fill="black"/>
<path d="M161.83 118.43H155.59V124.67H161.83V118.43Z" fill="black"/>
<path d="M161.83 112.25H155.59V118.43H161.83V112.25Z" fill="#2D1212"/>
<path d="M161.83 106.01H155.59V112.25H161.83V106.01Z" fill="#2D1212"/>
<path d="M161.83 99.8301H155.59V106.01H161.83V99.8301Z" fill="#2D1212"/>
<path d="M161.83 93.5801H155.59V99.8201H161.83V93.5801Z" fill="#2D1212"/>
<path d="M161.83 87.3398H155.59V93.5798H161.83V87.3398Z" fill="#2D1212"/>
<path d="M161.83 81.1597H155.59V87.3397H161.83V81.1597Z" fill="black"/>
<path d="M155.59 112.25H149.41V118.43H155.59V112.25Z" fill="black"/>
<path d="M155.59 106.01H149.41V112.25H155.59V106.01Z" fill="#2D1212"/>
<path d="M155.59 99.8301H149.41V106.01H155.59V99.8301Z" fill="#2D1212"/>
<path d="M155.59 93.5801H149.41V99.8201H155.59V93.5801Z" fill="#2D1212"/>
<path d="M155.59 87.3398H149.41V93.5798H155.59V87.3398Z" fill="#2D1212"/>
<path d="M155.59 81.1597H149.41V87.3397H155.59V81.1597Z" fill="#2D1212"/>
<path d="M155.59 74.9097H149.41V81.1497H155.59V74.9097Z" fill="black"/>
<path d="M149.4 236.57H143.16V242.75H149.4V236.57Z" fill="#CE0505"/>
<path d="M149.4 230.34H143.16V236.58H149.4V230.34Z" fill="#CE0505"/>
<path d="M149.4 224.14H143.16V230.33H149.4V224.14Z" fill="#CE0505"/>
<path d="M149.4 217.91H143.16V224.15H149.4V217.91Z" fill="#E80C0C"/>
<path d="M149.4 211.72H143.16V217.9H149.4V211.72Z" fill="#E80C0C"/>
<path d="M149.4 205.48H143.16V211.72H149.4V205.48Z" fill="#E80C0C"/>
<path d="M149.4 199.3H143.16V205.48H149.4V199.3Z" fill="black"/>
<path d="M149.4 186.81H143.16V193.05H149.4V186.81Z" fill="black"/>
<path d="M149.4 180.62H143.16V186.81H149.4V180.62Z" fill="black"/>
<path d="M149.4 130.86H143.16V137.1H149.4V130.86Z" fill="black"/>
<path d="M149.4 124.68H143.16V130.86H149.4V124.68Z" fill="black"/>
<path d="M149.4 118.43H143.16V124.67H149.4V118.43Z" fill="black"/>
<path d="M149.4 112.25H143.16V118.43H149.4V112.25Z" fill="black"/>
<path d="M149.4 106.01H143.16V112.25H149.4V106.01Z" fill="black"/>
<path d="M149.4 99.8301H143.16V106.01H149.4V99.8301Z" fill="#2D1212"/>
<path d="M149.4 93.5801H143.16V99.8201H149.4V93.5801Z" fill="#2D1212"/>
<path d="M149.4 87.3398H143.16V93.5798H149.4V87.3398Z" fill="#2D1212"/>
<path d="M149.4 81.1597H143.16V87.3397H149.4V81.1597Z" fill="#2D1212"/>
<path d="M149.4 74.9097H143.16V81.1497H149.4V74.9097Z" fill="black"/>
<path d="M149.4 62.48H143.16V68.72H149.4V62.48Z" fill="black"/>
<path d="M149.4 56.2998H143.16V62.4798H149.4V56.2998Z" fill="black"/>
<path d="M149.4 50.0601H143.16V56.3001H149.4V50.0601Z" fill="black"/>
<path d="M149.4 43.8101H143.16V50.0501H149.4V43.8101Z" fill="black"/>
<path d="M149.4 37.6299H143.16V43.8099H149.4V37.6299Z" fill="black"/>
<path d="M143.16 211.72H136.92V217.9H143.16V211.72Z" fill="#E80C0C"/>
<path d="M143.16 205.48H136.92V211.72H143.16V205.48Z" fill="#E80C0C"/>
<path d="M143.16 199.3H136.92V205.48H143.16V199.3Z" fill="#FF0000"/>
<path d="M143.16 193.05H136.92V199.29H143.16V193.05Z" fill="black"/>
<path d="M143.16 186.81H136.92V193.05H143.16V186.81Z" fill="#2D1212"/>
<path d="M143.16 180.62H136.92V186.81H143.16V180.62Z" fill="black"/>
<path d="M143.16 174.39H136.92V180.63H143.16V174.39Z" fill="black"/>
<path d="M143.16 168.2H136.92V174.38H143.16V168.2Z" fill="black"/>
<path d="M143.16 161.96H136.92V168.2H143.16V161.96Z" fill="black"/>
<path d="M143.16 155.77H136.92V161.95H143.16V155.77Z" fill="black"/>
<path d="M143.16 99.8301H136.92V106.01H143.16V99.8301Z" fill="black"/>
<path d="M143.16 93.5801H136.92V99.8201H143.16V93.5801Z" fill="#2D1212"/>
<path d="M143.16 87.3398H136.92V93.5798H143.16V87.3398Z" fill="#2D1212"/>
<path d="M143.16 81.1597H136.92V87.3397H143.16V81.1597Z" fill="#2D1212"/>
<path d="M143.16 74.9097H136.92V81.1497H143.16V74.9097Z" fill="#2D1212"/>
<path d="M143.16 68.73H136.92V74.91H143.16V68.73Z" fill="black"/>
<path d="M143.16 56.2998H136.92V62.4798H143.16V56.2998Z" fill="black"/>
<path d="M143.16 50.0601H136.92V56.3001H143.16V50.0601Z" fill="#2D1212"/>
<path d="M143.16 43.8101H136.92V50.0501H143.16V43.8101Z" fill="#2D1212"/>
<path d="M143.16 37.6299H136.92V43.8099H143.16V37.6299Z" fill="#2D1212"/>
<path d="M143.16 31.3896H136.92V37.6296H143.16V31.3896Z" fill="black"/>
<path d="M143.16 25.21H136.92V31.39H143.16V25.21Z" fill="black"/>
<path d="M136.92 224.14H130.74V230.33H136.92V224.14Z" fill="#C40505"/>
<path d="M136.92 217.91H130.74V224.15H136.92V217.91Z" fill="#CE0505"/>
<path d="M136.92 211.72H130.74V217.9H136.92V211.72Z" fill="#CE0505"/>
<path d="M136.92 205.48H130.74V211.72H136.92V205.48Z" fill="#2D1212"/>
<path d="M136.92 199.3H130.74V205.48H136.92V199.3Z" fill="#2D1212"/>
<path d="M136.92 193.05H130.74V199.29H136.92V193.05Z" fill="#FF0000"/>
<path d="M136.92 186.81H130.74V193.05H136.92V186.81Z" fill="#2D1212"/>
<path d="M136.92 180.62H130.74V186.81H136.92V180.62Z" fill="#2D1212"/>
<path d="M136.92 174.39H130.74V180.63H136.92V174.39Z" fill="#2D1212"/>
<path d="M136.92 168.2H130.74V174.38H136.92V168.2Z" fill="#2D1212"/>
<path d="M136.92 161.96H130.74V168.2H136.92V161.96Z" fill="#2D1212"/>
<path d="M136.92 155.77H130.74V161.95H136.92V155.77Z" fill="#2D1212"/>
<path d="M136.92 149.53H130.74V155.77H136.92V149.53Z" fill="black"/>
<path d="M136.92 143.29H130.74V149.53H136.92V143.29Z" fill="black"/>
<path d="M136.92 137.1H130.74V143.28H136.92V137.1Z" fill="black"/>
<path d="M136.92 130.86H130.74V137.1H136.92V130.86Z" fill="black"/>
<path d="M136.92 124.68H130.74V130.86H136.92V124.68Z" fill="black"/>
<path d="M136.92 118.43H130.74V124.67H136.92V118.43Z" fill="black"/>
<path d="M136.92 112.25H130.74V118.43H136.92V112.25Z" fill="black"/>
<path d="M136.92 106.01H130.74V112.25H136.92V106.01Z" fill="black"/>
<path d="M136.92 99.8301H130.74V106.01H136.92V99.8301Z" fill="#2D1212"/>
<path d="M136.92 93.5801H130.74V99.8201H136.92V93.5801Z" fill="#2D1212"/>
<path d="M136.92 87.3398H130.74V93.5798H136.92V87.3398Z" fill="#2D1212"/>
<path d="M136.92 81.1597H130.74V87.3397H136.92V81.1597Z" fill="#2D1212"/>
<path d="M136.92 74.9097H130.74V81.1497H136.92V74.9097Z" fill="#2D1212"/>
<path d="M136.92 68.73H130.74V74.91H136.92V68.73Z" fill="#2D1212"/>
<path d="M136.92 62.48H130.74V68.72H136.92V62.48Z" fill="black"/>
<path d="M136.92 50.0601H130.74V56.3001H136.92V50.0601Z" fill="black"/>
<path d="M136.92 43.8101H130.74V50.0501H136.92V43.8101Z" fill="#321E1E"/>
<path d="M136.92 37.6299H130.74V43.8099H136.92V37.6299Z" fill="#321E1E"/>
<path d="M136.92 31.3896H130.74V37.6296H136.92V31.3896Z" fill="#321E1E"/>
<path d="M136.92 25.21H130.74V31.39H136.92V25.21Z" fill="#321E1E"/>
<path d="M136.92 18.96H130.74V25.2H136.92V18.96Z" fill="black"/>
<path d="M130.73 211.72H124.49V217.9H130.73V211.72Z" fill="#C40505"/>
<path d="M130.73 205.48H124.49V211.72H130.73V205.48Z" fill="#321E1E"/>
<path d="M130.73 199.3H124.49V205.48H130.73V199.3Z" fill="#321E1E"/>
<path d="M130.73 193.05H124.49V199.29H130.73V193.05Z" fill="#2D1212"/>
<path d="M130.73 186.81H124.49V193.05H130.73V186.81Z" fill="#321E1E"/>
<path d="M130.73 180.62H124.49V186.81H130.73V180.62Z" fill="#321E1E"/>
<path d="M130.73 174.39H124.49V180.63H130.73V174.39Z" fill="#321E1E"/>
<path d="M130.73 168.2H124.49V174.38H130.73V168.2Z" fill="#321E1E"/>
<path d="M130.73 161.96H124.49V168.2H130.73V161.96Z" fill="#321E1E"/>
<path d="M130.73 155.77H124.49V161.95H130.73V155.77Z" fill="#2D1212"/>
<path d="M130.73 149.53H124.49V155.77H130.73V149.53Z" fill="#2D1212"/>
<path d="M130.73 143.29H124.49V149.53H130.73V143.29Z" fill="#2D1212"/>
<path d="M130.73 137.1H124.49V143.28H130.73V137.1Z" fill="#2D1212"/>
<path d="M130.73 130.86H124.49V137.1H130.73V130.86Z" fill="#2D1212"/>
<path d="M130.73 124.68H124.49V130.86H130.73V124.68Z" fill="#2D1212"/>
<path d="M130.73 118.43H124.49V124.67H130.73V118.43Z" fill="#2D1212"/>
<path d="M130.73 112.25H124.49V118.43H130.73V112.25Z" fill="#2D1212"/>
<path d="M130.73 106.01H124.49V112.25H130.73V106.01Z" fill="#2D1212"/>
<path d="M130.73 99.8301H124.49V106.01H130.73V99.8301Z" fill="#2D1212"/>
<path d="M130.73 93.5801H124.49V99.8201H130.73V93.5801Z" fill="#321E1E"/>
<path d="M130.73 87.3398H124.49V93.5798H130.73V87.3398Z" fill="#2D1212"/>
<path d="M130.73 81.1597H124.49V87.3397H130.73V81.1597Z" fill="#321E1E"/>
<path d="M130.73 74.9097H124.49V81.1497H130.73V74.9097Z" fill="#2D1212"/>
<path d="M130.73 68.73H124.49V74.91H130.73V68.73Z" fill="#2D1212"/>
<path d="M130.73 62.48H124.49V68.72H130.73V62.48Z" fill="#2D1212"/>
<path d="M130.73 56.2998H124.49V62.4798H130.73V56.2998Z" fill="black"/>
<path d="M130.73 50.0601H124.49V56.3001H130.73V50.0601Z" fill="#321E1E"/>
<path d="M130.73 43.8101H124.49V50.0501H130.73V43.8101Z" fill="#321E1E"/>
<path d="M130.73 37.6299H124.49V43.8099H130.73V37.6299Z" fill="#321E1E"/>
<path d="M130.73 31.3896H124.49V37.6296H130.73V31.3896Z" fill="#321E1E"/>
<path d="M130.73 25.21H124.49V31.39H130.73V25.21Z" fill="#321E1E"/>
<path d="M130.73 18.96H124.49V25.2H130.73V18.96Z" fill="#321E1E"/>
<path d="M130.73 12.7798H124.49V18.9598H130.73V12.7798Z" fill="black"/>
<path d="M124.491 217.91H118.311V224.15H124.491V217.91Z" fill="#C60606"/>
<path d="M124.491 211.72H118.311V217.9H124.491V211.72Z" fill="#CE0505"/>
<path d="M124.491 205.48H118.311V211.72H124.491V205.48Z" fill="#321E1E"/>
<path d="M124.491 199.3H118.311V205.48H124.491V199.3Z" fill="#CE0505"/>
<path d="M124.491 193.05H118.311V199.29H124.491V193.05Z" fill="#E80C0C"/>
<path d="M124.491 186.81H118.311V193.05H124.491V186.81Z" fill="#321E1E"/>
<path d="M124.491 180.62H118.311V186.81H124.491V180.62Z" fill="#321E1E"/>
<path d="M124.491 174.39H118.311V180.63H124.491V174.39Z" fill="#321E1E"/>
<path d="M124.491 168.2H118.311V174.38H124.491V168.2Z" fill="#321E1E"/>
<path d="M124.491 161.96H118.311V168.2H124.491V161.96Z" fill="#321E1E"/>
<path d="M124.491 155.77H118.311V161.95H124.491V155.77Z" fill="#321E1E"/>
<path d="M124.491 149.53H118.311V155.77H124.491V149.53Z" fill="#321E1E"/>
<path d="M124.491 143.29H118.311V149.53H124.491V143.29Z" fill="#321E1E"/>
<path d="M124.491 137.1H118.311V143.28H124.491V137.1Z" fill="#321E1E"/>
<path d="M124.491 130.86H118.311V137.1H124.491V130.86Z" fill="#321E1E"/>
<path d="M124.491 124.68H118.311V130.86H124.491V124.68Z" fill="#321E1E"/>
<path d="M124.491 118.43H118.311V124.67H124.491V118.43Z" fill="#321E1E"/>
<path d="M124.491 112.25H118.311V118.43H124.491V112.25Z" fill="#321E1E"/>
<path d="M124.491 106.01H118.311V112.25H124.491V106.01Z" fill="#321E1E"/>
<path d="M124.491 99.8301H118.311V106.01H124.491V99.8301Z" fill="#321E1E"/>
<path d="M124.491 93.5801H118.311V99.8201H124.491V93.5801Z" fill="#321E1E"/>
<path d="M124.491 87.3398H118.311V93.5798H124.491V87.3398Z" fill="#321E1E"/>
<path d="M124.491 81.1597H118.311V87.3397H124.491V81.1597Z" fill="#321E1E"/>
<path d="M124.491 74.9097H118.311V81.1497H124.491V74.9097Z" fill="#321E1E"/>
<path d="M124.491 68.73H118.311V74.91H124.491V68.73Z" fill="#2D1212"/>
<path d="M124.491 62.48H118.311V68.72H124.491V62.48Z" fill="#2D1212"/>
<path d="M124.491 56.2998H118.311V62.4798H124.491V56.2998Z" fill="#321E1E"/>
<path d="M124.491 50.0601H118.311V56.3001H124.491V50.0601Z" fill="#321E1E"/>
<path d="M124.491 43.8101H118.311V50.0501H124.491V43.8101Z" fill="#0C0C0C"/>
<path d="M124.491 37.6299H118.311V43.8099H124.491V37.6299Z" fill="#0C0C0C"/>
<path d="M124.491 31.3896H118.311V37.6296H124.491V31.3896Z" fill="#FF0000"/>
<path d="M124.491 25.21H118.311V31.39H124.491V25.21Z" fill="#0C0C0C"/>
<path d="M124.491 18.96H118.311V25.2H124.491V18.96Z" fill="#321E1E"/>
<path d="M124.491 12.7798H118.311V18.9598H124.491V12.7798Z" fill="#321E1E"/>
<path d="M124.491 6.54004H118.311V12.78H124.491V6.54004Z" fill="black"/>
<path d="M118.31 230.34H112.07V236.58H118.31V230.34Z" fill="#C40505"/>
<path d="M118.31 224.14H112.07V230.33H118.31V224.14Z" fill="#C60606"/>
<path d="M118.31 217.91H112.07V224.15H118.31V217.91Z" fill="#C60606"/>
<path d="M118.31 211.72H112.07V217.9H118.31V211.72Z" fill="#E50000"/>
<path d="M118.31 205.48H112.07V211.72H118.31V205.48Z" fill="#E80C0C"/>
<path d="M118.31 199.3H112.07V205.48H118.31V199.3Z" fill="#E80C0C"/>
<path d="M118.31 193.05H112.07V199.29H118.31V193.05Z" fill="#321E1E"/>
<path d="M118.31 186.81H112.07V193.05H118.31V186.81Z" fill="#321E1E"/>
<path d="M118.31 180.62H112.07V186.81H118.31V180.62Z" fill="#321E1E"/>
<path d="M118.31 174.39H112.07V180.63H118.31V174.39Z" fill="#321E1E"/>
<path d="M118.31 168.2H112.07V174.38H118.31V168.2Z" fill="#321E1E"/>
<path d="M118.31 161.96H112.07V168.2H118.31V161.96Z" fill="#321E1E"/>
<path d="M118.31 155.77H112.07V161.95H118.31V155.77Z" fill="#321E1E"/>
<path d="M118.31 149.53H112.07V155.77H118.31V149.53Z" fill="#321E1E"/>
<path d="M118.31 143.29H112.07V149.53H118.31V143.29Z" fill="#321E1E"/>
<path d="M118.31 137.1H112.07V143.28H118.31V137.1Z" fill="#321E1E"/>
<path d="M118.31 130.86H112.07V137.1H118.31V130.86Z" fill="#321E1E"/>
<path d="M118.31 124.68H112.07V130.86H118.31V124.68Z" fill="#321E1E"/>
<path d="M118.31 118.43H112.07V124.67H118.31V118.43Z" fill="#321E1E"/>
<path d="M118.31 112.25H112.07V118.43H118.31V112.25Z" fill="#321E1E"/>
<path d="M118.31 106.01H112.07V112.25H118.31V106.01Z" fill="#321E1E"/>
<path d="M118.31 99.8301H112.07V106.01H118.31V99.8301Z" fill="#321E1E"/>
<path d="M118.31 93.5801H112.07V99.8201H118.31V93.5801Z" fill="#321E1E"/>
<path d="M118.31 87.3398H112.07V93.5798H118.31V87.3398Z" fill="#321E1E"/>
<path d="M118.31 81.1597H112.07V87.3397H118.31V81.1597Z" fill="#321E1E"/>
<path d="M118.31 74.9097H112.07V81.1497H118.31V74.9097Z" fill="#321E1E"/>
<path d="M118.31 68.73H112.07V74.91H118.31V68.73Z" fill="#321E1E"/>
<path d="M118.31 62.48H112.07V68.72H118.31V62.48Z" fill="#2D1212"/>
<path d="M118.31 56.2998H112.07V62.4798H118.31V56.2998Z" fill="#321E1E"/>
<path d="M118.31 50.0601H112.07V56.3001H118.31V50.0601Z" fill="#0C0C0C"/>
<path d="M118.31 43.8101H112.07V50.0501H118.31V43.8101Z" fill="#0C0C0C"/>
<path d="M118.31 37.6299H112.07V43.8099H118.31V37.6299Z" fill="#0C0C0C"/>
<path d="M118.31 31.3896H112.07V37.6296H118.31V31.3896Z" fill="#FF0000"/>
<path d="M118.31 25.21H112.07V31.39H118.31V25.21Z" fill="#0C0C0C"/>
<path d="M118.31 18.96H112.07V25.2H118.31V18.96Z" fill="#0C0C0C"/>
<path d="M118.31 12.7798H112.07V18.9598H118.31V12.7798Z" fill="#321E1E"/>
<path d="M118.31 6.54004H112.07V12.78H118.31V6.54004Z" fill="black"/>
<path d="M118.31 0.359863H112.07V6.53986H118.31V0.359863Z" fill="black"/>
<path d="M112.071 230.34H105.891V236.58H112.071V230.34Z" fill="#C40505"/>
<path d="M112.071 224.14H105.891V230.33H112.071V224.14Z" fill="#E50000"/>
<path d="M112.071 217.91H105.891V224.15H112.071V217.91Z" fill="#E50000"/>
<path d="M112.071 211.72H105.891V217.9H112.071V211.72Z" fill="#E50000"/>
<path d="M112.071 205.48H105.891V211.72H112.071V205.48Z" fill="black"/>
<path d="M112.071 199.3H105.891V205.48H112.071V199.3Z" fill="#E80C0C"/>
<path d="M112.071 193.05H105.891V199.29H112.071V193.05Z" fill="#E80C0C"/>
<path d="M112.071 186.81H105.891V193.05H112.071V186.81Z" fill="#321E1E"/>
<path d="M112.071 180.62H105.891V186.81H112.071V180.62Z" fill="#321E1E"/>
<path d="M112.071 174.39H105.891V180.63H112.071V174.39Z" fill="#321E1E"/>
<path d="M112.071 168.2H105.891V174.38H112.071V168.2Z" fill="#321E1E"/>
<path d="M112.071 161.96H105.891V168.2H112.071V161.96Z" fill="#321E1E"/>
<path d="M112.071 155.77H105.891V161.95H112.071V155.77Z" fill="#321E1E"/>
<path d="M112.071 149.53H105.891V155.77H112.071V149.53Z" fill="#321E1E"/>
<path d="M112.071 143.29H105.891V149.53H112.071V143.29Z" fill="#321E1E"/>
<path d="M112.071 137.1H105.891V143.28H112.071V137.1Z" fill="#321E1E"/>
<path d="M112.071 130.86H105.891V137.1H112.071V130.86Z" fill="#321E1E"/>
<path d="M112.071 124.68H105.891V130.86H112.071V124.68Z" fill="#321E1E"/>
<path d="M112.071 118.43H105.891V124.67H112.071V118.43Z" fill="#321E1E"/>
<path d="M112.071 112.25H105.891V118.43H112.071V112.25Z" fill="#321E1E"/>
<path d="M112.071 106.01H105.891V112.25H112.071V106.01Z" fill="#321E1E"/>
<path d="M112.071 99.8301H105.891V106.01H112.071V99.8301Z" fill="#321E1E"/>
<path d="M112.071 93.5801H105.891V99.8201H112.071V93.5801Z" fill="#321E1E"/>
<path d="M112.071 87.3398H105.891V93.5798H112.071V87.3398Z" fill="#321E1E"/>
<path d="M112.071 81.1597H105.891V87.3397H112.071V81.1597Z" fill="#321E1E"/>
<path d="M112.071 74.9097H105.891V81.1497H112.071V74.9097Z" fill="#321E1E"/>
<path d="M112.071 68.73H105.891V74.91H112.071V68.73Z" fill="#321E1E"/>
<path d="M112.071 62.48H105.891V68.72H112.071V62.48Z" fill="#2D1212"/>
<path d="M112.071 56.2998H105.891V62.4798H112.071V56.2998Z" fill="#321E1E"/>
<path d="M112.071 50.0601H105.891V56.3001H112.071V50.0601Z" fill="#0C0C0C"/>
<path d="M112.071 43.8101H105.891V50.0501H112.071V43.8101Z" fill="#0C0C0C"/>
<path d="M112.071 37.6299H105.891V43.8099H112.071V37.6299Z" fill="#0C0C0C"/>
<path d="M112.071 31.3896H105.891V37.6296H112.071V31.3896Z" fill="#0C0C0C"/>
<path d="M112.071 25.21H105.891V31.39H112.071V25.21Z" fill="#0C0C0C"/>
<path d="M112.071 18.96H105.891V25.2H112.071V18.96Z" fill="#0C0C0C"/>
<path d="M112.071 12.7798H105.891V18.9598H112.071V12.7798Z" fill="black"/>
<path d="M112.071 6.54004H105.891V12.78H112.071V6.54004Z" fill="#321E1E"/>
<path d="M112.071 0.359863H105.891V6.53986H112.071V0.359863Z" fill="black"/>
<path d="M105.881 242.76H99.6406V249H105.881V242.76Z" fill="#C40505"/>
<path d="M105.881 236.57H99.6406V242.75H105.881V236.57Z" fill="#C40505"/>
<path d="M105.881 230.34H99.6406V236.58H105.881V230.34Z" fill="#E50000"/>
<path d="M105.881 224.14H99.6406V230.33H105.881V224.14Z" fill="#E50000"/>
<path d="M105.881 217.91H99.6406V224.15H105.881V217.91Z" fill="black"/>
<path d="M105.881 211.72H99.6406V217.9H105.881V211.72Z" fill="black"/>
<path d="M105.881 193.05H99.6406V199.29H105.881V193.05Z" fill="#2D1212"/>
<path d="M105.881 186.81H99.6406V193.05H105.881V186.81Z" fill="#2D1212"/>
<path d="M105.881 180.62H99.6406V186.81H105.881V180.62Z" fill="#321E1E"/>
<path d="M105.881 174.39H99.6406V180.63H105.881V174.39Z" fill="#321E1E"/>
<path d="M105.881 168.2H99.6406V174.38H105.881V168.2Z" fill="#321E1E"/>
<path d="M105.881 161.96H99.6406V168.2H105.881V161.96Z" fill="#321E1E"/>
<path d="M105.881 155.77H99.6406V161.95H105.881V155.77Z" fill="#321E1E"/>
<path d="M105.881 149.53H99.6406V155.77H105.881V149.53Z" fill="#321E1E"/>
<path d="M105.881 143.29H99.6406V149.53H105.881V143.29Z" fill="#321E1E"/>
<path d="M105.881 137.1H99.6406V143.28H105.881V137.1Z" fill="#321E1E"/>
<path d="M105.881 130.86H99.6406V137.1H105.881V130.86Z" fill="#321E1E"/>
<path d="M105.881 124.68H99.6406V130.86H105.881V124.68Z" fill="#321E1E"/>
<path d="M105.881 118.43H99.6406V124.67H105.881V118.43Z" fill="#321E1E"/>
<path d="M105.881 112.25H99.6406V118.43H105.881V112.25Z" fill="#321E1E"/>
<path d="M105.881 106.01H99.6406V112.25H105.881V106.01Z" fill="#321E1E"/>
<path d="M105.881 99.8301H99.6406V106.01H105.881V99.8301Z" fill="#321E1E"/>
<path d="M105.881 93.5801H99.6406V99.8201H105.881V93.5801Z" fill="#321E1E"/>
<path d="M105.881 87.3398H99.6406V93.5798H105.881V87.3398Z" fill="#321E1E"/>
<path d="M105.881 81.1597H99.6406V87.3397H105.881V81.1597Z" fill="#321E1E"/>
<path d="M105.881 74.9097H99.6406V81.1497H105.881V74.9097Z" fill="#321E1E"/>
<path d="M105.881 68.73H99.6406V74.91H105.881V68.73Z" fill="#321E1E"/>
<path d="M105.881 62.48H99.6406V68.72H105.881V62.48Z" fill="#2D1212"/>
<path d="M105.881 56.2998H99.6406V62.4798H105.881V56.2998Z" fill="#321E1E"/>
<path d="M105.881 50.0601H99.6406V56.3001H105.881V50.0601Z" fill="#0C0C0C"/>
<path d="M105.881 43.8101H99.6406V50.0501H105.881V43.8101Z" fill="#0C0C0C"/>
<path d="M105.881 37.6299H99.6406V43.8099H105.881V37.6299Z" fill="#0C0C0C"/>
<path d="M105.881 31.3896H99.6406V37.6296H105.881V31.3896Z" fill="black"/>
<path d="M105.881 25.21H99.6406V31.39H105.881V25.21Z" fill="#0C0C0C"/>
<path d="M105.881 18.96H99.6406V25.2H105.881V18.96Z" fill="#0C0C0C"/>
<path d="M105.881 12.7798H99.6406V18.9598H105.881V12.7798Z" fill="black"/>
<path d="M105.881 6.54004H99.6406V12.78H105.881V6.54004Z" fill="#321E1E"/>
<path d="M105.881 0.359863H99.6406V6.53986H105.881V0.359863Z" fill="black"/>
<path d="M99.639 199.3H93.459V205.48H99.639V199.3Z" fill="black"/>
<path d="M99.639 193.05H93.459V199.29H99.639V193.05Z" fill="#2D1212"/>
<path d="M99.639 186.81H93.459V193.05H99.639V186.81Z" fill="#321E1E"/>
<path d="M99.639 180.62H93.459V186.81H99.639V180.62Z" fill="#321E1E"/>
<path d="M99.639 174.39H93.459V180.63H99.639V174.39Z" fill="#321E1E"/>
<path d="M99.639 168.2H93.459V174.38H99.639V168.2Z" fill="#321E1E"/>
<path d="M99.639 161.96H93.459V168.2H99.639V161.96Z" fill="#321E1E"/>
<path d="M99.639 155.77H93.459V161.95H99.639V155.77Z" fill="#321E1E"/>
<path d="M99.639 149.53H93.459V155.77H99.639V149.53Z" fill="#321E1E"/>
<path d="M99.639 143.29H93.459V149.53H99.639V143.29Z" fill="#321E1E"/>
<path d="M99.639 137.1H93.459V143.28H99.639V137.1Z" fill="#321E1E"/>
<path d="M99.639 130.86H93.459V137.1H99.639V130.86Z" fill="#321E1E"/>
<path d="M99.639 124.68H93.459V130.86H99.639V124.68Z" fill="#321E1E"/>
<path d="M99.639 118.43H93.459V124.67H99.639V118.43Z" fill="#321E1E"/>
<path d="M99.639 112.25H93.459V118.43H99.639V112.25Z" fill="#321E1E"/>
<path d="M99.639 106.01H93.459V112.25H99.639V106.01Z" fill="#321E1E"/>
<path d="M99.639 99.8301H93.459V106.01H99.639V99.8301Z" fill="#321E1E"/>
<path d="M99.639 93.5801H93.459V99.8201H99.639V93.5801Z" fill="#321E1E"/>
<path d="M99.639 87.3398H93.459V93.5798H99.639V87.3398Z" fill="#321E1E"/>
<path d="M99.639 81.1597H93.459V87.3397H99.639V81.1597Z" fill="#321E1E"/>
<path d="M99.639 74.9097H93.459V81.1497H99.639V74.9097Z" fill="#321E1E"/>
<path d="M99.639 68.73H93.459V74.91H99.639V68.73Z" fill="#321E1E"/>
<path d="M99.639 62.48H93.459V68.72H99.639V62.48Z" fill="#2D1212"/>
<path d="M99.639 56.2998H93.459V62.4798H99.639V56.2998Z" fill="black"/>
<path d="M99.639 50.0601H93.459V56.3001H99.639V50.0601Z" fill="#321E1E"/>
<path d="M99.639 43.8101H93.459V50.0501H99.639V43.8101Z" fill="#0C0C0C"/>
<path d="M99.639 37.6299H93.459V43.8099H99.639V37.6299Z" fill="#0C0C0C"/>
<path d="M99.639 31.3896H93.459V37.6296H99.639V31.3896Z" fill="#FF0000"/>
<path d="M99.639 25.21H93.459V31.39H99.639V25.21Z" fill="#0C0C0C"/>
<path d="M99.639 18.96H93.459V25.2H99.639V18.96Z" fill="black"/>
<path d="M99.639 12.7798H93.459V18.9598H99.639V12.7798Z" fill="#321E1E"/>
<path d="M99.639 6.54004H93.459V12.78H99.639V6.54004Z" fill="black"/>
<path d="M93.449 230.34H87.209V236.58H93.449V230.34Z" fill="#CE0505"/>
<path d="M93.449 224.14H87.209V230.33H93.449V224.14Z" fill="#CE0505"/>
<path d="M93.449 217.91H87.209V224.15H93.449V217.91Z" fill="#CE0505"/>
<path d="M93.449 211.72H87.209V217.9H93.449V211.72Z" fill="black"/>
<path d="M93.449 205.48H87.209V211.72H93.449V205.48Z" fill="black"/>
<path d="M93.449 199.3H87.209V205.48H93.449V199.3Z" fill="#2D1212"/>
<path d="M93.449 193.05H87.209V199.29H93.449V193.05Z" fill="#E80C0C"/>
<path d="M93.449 186.81H87.209V193.05H93.449V186.81Z" fill="#E80C0C"/>
<path d="M93.449 180.62H87.209V186.81H93.449V180.62Z" fill="#321E1E"/>
<path d="M93.449 174.39H87.209V180.63H93.449V174.39Z" fill="#321E1E"/>
<path d="M93.449 168.2H87.209V174.38H93.449V168.2Z" fill="#321E1E"/>
<path d="M93.449 161.96H87.209V168.2H93.449V161.96Z" fill="#321E1E"/>
<path d="M93.449 155.77H87.209V161.95H93.449V155.77Z" fill="#321E1E"/>
<path d="M93.449 149.53H87.209V155.77H93.449V149.53Z" fill="#321E1E"/>
<path d="M93.449 143.29H87.209V149.53H93.449V143.29Z" fill="#321E1E"/>
<path d="M93.449 137.1H87.209V143.28H93.449V137.1Z" fill="#321E1E"/>
<path d="M93.449 130.86H87.209V137.1H93.449V130.86Z" fill="#321E1E"/>
<path d="M93.449 124.68H87.209V130.86H93.449V124.68Z" fill="#321E1E"/>
<path d="M93.449 118.43H87.209V124.67H93.449V118.43Z" fill="#321E1E"/>
<path d="M93.449 112.25H87.209V118.43H93.449V112.25Z" fill="#321E1E"/>
<path d="M93.449 106.01H87.209V112.25H93.449V106.01Z" fill="#321E1E"/>
<path d="M93.449 99.8301H87.209V106.01H93.449V99.8301Z" fill="#321E1E"/>
<path d="M93.449 93.5801H87.209V99.8201H93.449V93.5801Z" fill="#321E1E"/>
<path d="M93.449 87.3398H87.209V93.5798H93.449V87.3398Z" fill="#321E1E"/>
<path d="M93.449 81.1597H87.209V87.3397H93.449V81.1597Z" fill="#2D1212"/>
<path d="M93.449 74.9097H87.209V81.1497H93.449V74.9097Z" fill="#2D1212"/>
<path d="M93.449 68.73H87.209V74.91H93.449V68.73Z" fill="#2D1212"/>
<path d="M93.449 62.48H87.209V68.72H93.449V62.48Z" fill="black"/>
<path d="M93.449 50.0601H87.209V56.3001H93.449V50.0601Z" fill="black"/>
<path d="M93.449 43.8101H87.209V50.0501H93.449V43.8101Z" fill="#321E1E"/>
<path d="M93.449 37.6299H87.209V43.8099H93.449V37.6299Z" fill="#321E1E"/>
<path d="M93.449 31.3896H87.209V37.6296H93.449V31.3896Z" fill="#321E1E"/>
<path d="M93.449 25.21H87.209V31.39H93.449V25.21Z" fill="#321E1E"/>
<path d="M93.449 18.96H87.209V25.2H93.449V18.96Z" fill="#321E1E"/>
<path d="M93.449 12.7798H87.209V18.9598H93.449V12.7798Z" fill="black"/>
<path d="M93.449 6.54004H87.209V12.78H93.449V6.54004Z" fill="black"/>
<path d="M87.2107 217.91H80.9707V224.15H87.2107V217.91Z" fill="#CE0505"/>
<path d="M87.2107 211.72H80.9707V217.9H87.2107V211.72Z" fill="#2D1212"/>
<path d="M87.2107 205.48H80.9707V211.72H87.2107V205.48Z" fill="#2D1212"/>
<path d="M87.2107 199.3H80.9707V205.48H87.2107V199.3Z" fill="#E80C0C"/>
<path d="M87.2107 193.05H80.9707V199.29H87.2107V193.05Z" fill="#E80C0C"/>
<path d="M87.2107 186.81H80.9707V193.05H87.2107V186.81Z" fill="#321E1E"/>
<path d="M87.2107 180.62H80.9707V186.81H87.2107V180.62Z" fill="#321E1E"/>
<path d="M87.2107 174.39H80.9707V180.63H87.2107V174.39Z" fill="#321E1E"/>
<path d="M87.2107 168.2H80.9707V174.38H87.2107V168.2Z" fill="black"/>
<path d="M87.2107 161.96H80.9707V168.2H87.2107V161.96Z" fill="black"/>
<path d="M87.2107 155.77H80.9707V161.95H87.2107V155.77Z" fill="black"/>
<path d="M87.2107 149.53H80.9707V155.77H87.2107V149.53Z" fill="#2D1212"/>
<path d="M87.2107 143.29H80.9707V149.53H87.2107V143.29Z" fill="#2D1212"/>
<path d="M87.2107 137.1H80.9707V143.28H87.2107V137.1Z" fill="#2D1212"/>
<path d="M87.2107 130.86H80.9707V137.1H87.2107V130.86Z" fill="#2D1212"/>
<path d="M87.2107 124.68H80.9707V130.86H87.2107V124.68Z" fill="#2D1212"/>
<path d="M87.2107 118.43H80.9707V124.67H87.2107V118.43Z" fill="#2D1212"/>
<path d="M87.2107 112.25H80.9707V118.43H87.2107V112.25Z" fill="#2D1212"/>
<path d="M87.2107 106.01H80.9707V112.25H87.2107V106.01Z" fill="#2D1212"/>
<path d="M87.2107 99.8301H80.9707V106.01H87.2107V99.8301Z" fill="#2D1212"/>
<path d="M87.2107 93.5801H80.9707V99.8201H87.2107V93.5801Z" fill="#2D1212"/>
<path d="M87.2107 87.3398H80.9707V93.5798H87.2107V87.3398Z" fill="#2D1212"/>
<path d="M87.2107 81.1597H80.9707V87.3397H87.2107V81.1597Z" fill="#2D1212"/>
<path d="M87.2107 74.9097H80.9707V81.1497H87.2107V74.9097Z" fill="#2D1212"/>
<path d="M87.2107 68.73H80.9707V74.91H87.2107V68.73Z" fill="black"/>
<path d="M87.2107 43.8101H80.9707V50.0501H87.2107V43.8101Z" fill="black"/>
<path d="M87.2107 37.6299H80.9707V43.8099H87.2107V37.6299Z" fill="black"/>
<path d="M87.2107 31.3896H80.9707V37.6296H87.2107V31.3896Z" fill="black"/>
<path d="M87.2107 25.21H80.9707V31.39H87.2107V25.21Z" fill="black"/>
<path d="M87.2107 18.96H80.9707V25.2H87.2107V18.96Z" fill="black"/>
<path d="M80.9691 224.14H74.7891V230.33H80.9691V224.14Z" fill="#CE0505"/>
<path d="M80.9691 217.91H74.7891V224.15H80.9691V217.91Z" fill="#C60606"/>
<path d="M80.9691 211.72H74.7891V217.9H80.9691V211.72Z" fill="#C60606"/>
<path d="M80.9691 205.48H74.7891V211.72H80.9691V205.48Z" fill="#E80C0C"/>
<path d="M80.9691 199.3H74.7891V205.48H80.9691V199.3Z" fill="#E80C0C"/>
<path d="M80.9691 193.05H74.7891V199.29H80.9691V193.05Z" fill="#E80C0C"/>
<path d="M80.9691 186.81H74.7891V193.05H80.9691V186.81Z" fill="#E80C0C"/>
<path d="M80.9691 180.62H74.7891V186.81H80.9691V180.62Z" fill="black"/>
<path d="M80.9691 174.39H74.7891V180.63H80.9691V174.39Z" fill="black"/>
<path d="M80.9691 168.2H74.7891V174.38H80.9691V168.2Z" fill="black"/>
<path d="M80.9691 155.77H74.7891V161.95H80.9691V155.77Z" fill="black"/>
<path d="M80.9691 149.53H74.7891V155.77H80.9691V149.53Z" fill="black"/>
<path d="M80.9691 143.29H74.7891V149.53H80.9691V143.29Z" fill="black"/>
<path d="M80.9691 137.1H74.7891V143.28H80.9691V137.1Z" fill="black"/>
<path d="M80.9691 130.86H74.7891V137.1H80.9691V130.86Z" fill="black"/>
<path d="M80.9691 124.68H74.7891V130.86H80.9691V124.68Z" fill="black"/>
<path d="M80.9691 118.43H74.7891V124.67H80.9691V118.43Z" fill="black"/>
<path d="M80.9691 112.25H74.7891V118.43H80.9691V112.25Z" fill="#2D1212"/>
<path d="M80.9691 106.01H74.7891V112.25H80.9691V106.01Z" fill="#2D1212"/>
<path d="M80.9691 99.8301H74.7891V106.01H80.9691V99.8301Z" fill="#2D1212"/>
<path d="M80.9691 93.5801H74.7891V99.8201H80.9691V93.5801Z" fill="#2D1212"/>
<path d="M80.9691 87.3398H74.7891V93.5798H80.9691V87.3398Z" fill="#2D1212"/>
<path d="M80.9691 81.1597H74.7891V87.3397H80.9691V81.1597Z" fill="#2D1212"/>
<path d="M80.9691 74.9097H74.7891V81.1497H80.9691V74.9097Z" fill="black"/>
<path d="M74.7791 230.34H68.5391V236.58H74.7791V230.34Z" fill="#C60606"/>
<path d="M74.7791 224.14H68.5391V230.33H74.7791V224.14Z" fill="#C60606"/>
<path d="M74.7791 217.91H68.5391V224.15H74.7791V217.91Z" fill="#C60606"/>
<path d="M74.7791 211.72H68.5391V217.9H74.7791V211.72Z" fill="#C60606"/>
<path d="M74.7791 205.48H68.5391V211.72H74.7791V205.48Z" fill="#C60606"/>
<path d="M74.7791 199.3H68.5391V205.48H74.7791V199.3Z" fill="#C60606"/>
<path d="M74.7791 112.25H68.5391V118.43H74.7791V112.25Z" fill="black"/>
<path d="M74.7791 106.01H68.5391V112.25H74.7791V106.01Z" fill="#2D1212"/>
<path d="M74.7791 99.8301H68.5391V106.01H74.7791V99.8301Z" fill="#2D1212"/>
<path d="M74.7791 93.5801H68.5391V99.8201H74.7791V93.5801Z" fill="#2D1212"/>
<path d="M74.7791 87.3398H68.5391V93.5798H74.7791V87.3398Z" fill="#2D1212"/>
<path d="M74.7791 81.1597H68.5391V87.3397H74.7791V81.1597Z" fill="#2D1212"/>
<path d="M74.7791 74.9097H68.5391V81.1497H74.7791V74.9097Z" fill="black"/>
<path d="M68.5394 130.86H62.3594V137.1H68.5394V130.86Z" fill="black"/>
<path d="M68.5394 124.68H62.3594V130.86H68.5394V124.68Z" fill="black"/>
<path d="M68.5394 118.43H62.3594V124.67H68.5394V118.43Z" fill="black"/>
<path d="M68.5394 112.25H62.3594V118.43H68.5394V112.25Z" fill="#2D1212"/>
<path d="M68.5394 106.01H62.3594V112.25H68.5394V106.01Z" fill="#2D1212"/>
<path d="M68.5394 99.8301H62.3594V106.01H68.5394V99.8301Z" fill="#2D1212"/>
<path d="M68.5394 93.5801H62.3594V99.8201H68.5394V93.5801Z" fill="#301918"/>
<path d="M68.5394 87.3398H62.3594V93.5798H68.5394V87.3398Z" fill="black"/>
<path d="M68.5394 81.1597H62.3594V87.3397H68.5394V81.1597Z" fill="black"/>
<path d="M62.3591 118.43H56.1191V124.67H62.3591V118.43Z" fill="black"/>
<path d="M62.3591 112.25H56.1191V118.43H62.3591V112.25Z" fill="black"/>
<path d="M62.3591 106.01H56.1191V112.25H62.3591V106.01Z" fill="#2D1212"/>
<path d="M62.3591 99.8301H56.1191V106.01H62.3591V99.8301Z" fill="#301918"/>
<path d="M62.3591 93.5801H56.1191V99.8201H62.3591V93.5801Z" fill="#301918"/>
<path d="M62.3591 87.3398H56.1191V93.5798H62.3591V87.3398Z" fill="black"/>
<path d="M56.1194 112.25H49.9395V118.43H56.1194V112.25Z" fill="black"/>
<path d="M56.1194 106.01H49.9395V112.25H56.1194V106.01Z" fill="#301918"/>
<path d="M56.1194 99.8301H49.9395V106.01H56.1194V99.8301Z" fill="#301918"/>
<path d="M56.1194 93.5801H49.9395V99.8201H56.1194V93.5801Z" fill="#301918"/>
<path d="M56.1194 87.3398H49.9395V93.5798H56.1194V87.3398Z" fill="black"/>
<path d="M49.9294 130.86H43.6895V137.1H49.9294V130.86Z" fill="black"/>
<path d="M49.9294 124.68H43.6895V130.86H49.9294V124.68Z" fill="black"/>
<path d="M49.9294 118.43H43.6895V124.67H49.9294V118.43Z" fill="black"/>
<path d="M49.9294 112.25H43.6895V118.43H49.9294V112.25Z" fill="#301918"/>
<path d="M49.9294 106.01H43.6895V112.25H49.9294V106.01Z" fill="#301918"/>
<path d="M49.9294 99.8301H43.6895V106.01H49.9294V99.8301Z" fill="#301918"/>
<path d="M49.9294 93.5801H43.6895V99.8201H49.9294V93.5801Z" fill="black"/>
<path d="M43.6892 112.25H37.4492V118.43H43.6892V112.25Z" fill="black"/>
<path d="M43.6892 106.01H37.4492V112.25H43.6892V106.01Z" fill="#301918"/>
<path d="M43.6892 99.8301H37.4492V106.01H43.6892V99.8301Z" fill="#301918"/>
<path d="M43.6892 93.5801H37.4492V99.8201H43.6892V93.5801Z" fill="#301918"/>
<path d="M43.6892 87.3398H37.4492V93.5798H43.6892V87.3398Z" fill="black"/>
<path d="M37.4495 106.01H31.2695V112.25H37.4495V106.01Z" fill="black"/>
<path d="M37.4495 99.8301H31.2695V106.01H37.4495V99.8301Z" fill="#301918"/>
<path d="M37.4495 93.5801H31.2695V99.8201H37.4495V93.5801Z" fill="#301918"/>
<path d="M37.4495 87.3398H31.2695V93.5798H37.4495V87.3398Z" fill="black"/>
<path d="M37.4495 81.1597H31.2695V87.3397H37.4495V81.1597Z" fill="black"/>
<path d="M37.4495 31.3896H31.2695V37.6296H37.4495V31.3896Z" fill="#939393"/>
<path d="M37.4495 25.21H31.2695V31.39H37.4495V25.21Z" fill="#939393"/>
<path d="M37.4495 18.96H31.2695V25.2H37.4495V18.96Z" fill="#939393"/>
<path d="M31.2595 106.01H25.0195V112.25H31.2595V106.01Z" fill="black"/>
<path d="M31.2595 99.8301H25.0195V106.01H31.2595V99.8301Z" fill="black"/>
<path d="M31.2595 93.5801H25.0195V99.8201H31.2595V93.5801Z" fill="black"/>
<path d="M31.2595 87.3398H25.0195V93.5798H31.2595V87.3398Z" fill="black"/>
<path d="M31.2595 37.6299H25.0195V43.8099H31.2595V37.6299Z" fill="#939393"/>
<path d="M31.2595 31.3896H25.0195V37.6296H31.2595V31.3896Z" fill="#A7A7A8"/>
<path d="M31.2595 25.21H25.0195V31.39H31.2595V25.21Z" fill="#FF0000"/>
<path d="M31.2595 18.96H25.0195V25.2H31.2595V18.96Z" fill="black"/>
<path d="M31.2595 12.7798H25.0195V18.9598H31.2595V12.7798Z" fill="#939393"/>
<path d="M25.0199 199.3H18.8398V205.48H25.0199V199.3Z" fill="#E50000"/>
<path d="M25.0199 193.05H18.8398V199.29H25.0199V193.05Z" fill="#E50000"/>
<path d="M25.0199 186.81H18.8398V193.05H25.0199V186.81Z" fill="#E50000"/>
<path d="M25.0199 180.62H18.8398V186.81H25.0199V180.62Z" fill="#E50000"/>
<path d="M25.0199 174.39H18.8398V180.63H25.0199V174.39Z" fill="#E50000"/>
<path d="M25.0199 168.2H18.8398V174.38H25.0199V168.2Z" fill="#7A370A"/>
<path d="M25.0199 161.96H18.8398V168.2H25.0199V161.96Z" fill="#7A370A"/>
<path d="M25.0199 155.77H18.8398V161.95H25.0199V155.77Z" fill="#7A370A"/>
<path d="M25.0199 149.53H18.8398V155.77H25.0199V149.53Z" fill="#7A370A"/>
<path d="M25.0199 143.29H18.8398V149.53H25.0199V143.29Z" fill="#E50000"/>
<path d="M25.0199 137.1H18.8398V143.28H25.0199V137.1Z" fill="#E50000"/>
<path d="M25.0199 130.86H18.8398V137.1H25.0199V130.86Z" fill="#7A370A"/>
<path d="M25.0199 124.68H18.8398V130.86H25.0199V124.68Z" fill="#7A370A"/>
<path d="M25.0199 118.43H18.8398V124.67H25.0199V118.43Z" fill="#7A370A"/>
<path d="M25.0199 112.25H18.8398V118.43H25.0199V112.25Z" fill="#7A370A"/>
<path d="M25.0199 106.01H18.8398V112.25H25.0199V106.01Z" fill="#293D4C"/>
<path d="M25.0199 99.8301H18.8398V106.01H25.0199V99.8301Z" fill="#293D4C"/>
<path d="M25.0199 93.5801H18.8398V99.8201H25.0199V93.5801Z" fill="#7A370A"/>
<path d="M25.0199 87.3398H18.8398V93.5798H25.0199V87.3398Z" fill="#293D4C"/>
<path d="M25.0199 81.1597H18.8398V87.3397H25.0199V81.1597Z" fill="#E50000"/>
<path d="M25.0199 74.9097H18.8398V81.1497H25.0199V74.9097Z" fill="#7A370A"/>
<path d="M25.0199 68.73H18.8398V74.91H25.0199V68.73Z" fill="#7A370A"/>
<path d="M25.0199 62.48H18.8398V68.72H25.0199V62.48Z" fill="#7A370A"/>
<path d="M25.0199 56.2998H18.8398V62.4798H25.0199V56.2998Z" fill="#7A370A"/>
<path d="M25.0199 50.0601H18.8398V56.3001H25.0199V50.0601Z" fill="#7A370A"/>
<path d="M25.0199 43.8101H18.8398V50.0501H25.0199V43.8101Z" fill="#E50000"/>
<path d="M25.0199 37.6299H18.8398V43.8099H25.0199V37.6299Z" fill="#E50000"/>
<path d="M25.0199 31.3896H18.8398V37.6296H25.0199V31.3896Z" fill="black"/>
<path d="M25.0199 25.21H18.8398V31.39H25.0199V25.21Z" fill="#A7A7A8"/>
<path d="M25.0199 18.96H18.8398V25.2H25.0199V18.96Z" fill="#A7A7A8"/>
<path d="M25.0199 12.7798H18.8398V18.9598H25.0199V12.7798Z" fill="#A7A7A8"/>
<path d="M25.0199 6.54004H18.8398V12.78H25.0199V6.54004Z" fill="#FF0000"/>
<path d="M18.8396 217.91H12.5996V224.15H18.8396V217.91Z" fill="#E50000"/>
<path d="M18.8396 205.48H12.5996V211.72H18.8396V205.48Z" fill="#E50000"/>
<path d="M18.8396 199.3H12.5996V205.48H18.8396V199.3Z" fill="#E50000"/>
<path d="M18.8396 193.05H12.5996V199.29H18.8396V193.05Z" fill="#E50000"/>
<path d="M18.8396 186.81H12.5996V193.05H18.8396V186.81Z" fill="#E50000"/>
<path d="M18.8396 180.62H12.5996V186.81H18.8396V180.62Z" fill="#7A370A"/>
<path d="M18.8396 174.39H12.5996V180.63H18.8396V174.39Z" fill="#7A370A"/>
<path d="M18.8396 168.2H12.5996V174.38H18.8396V168.2Z" fill="#7A370A"/>
<path d="M18.8396 161.96H12.5996V168.2H18.8396V161.96Z" fill="#7A370A"/>
<path d="M18.8396 155.77H12.5996V161.95H18.8396V155.77Z" fill="#7A370A"/>
<path d="M18.8396 149.53H12.5996V155.77H18.8396V149.53Z" fill="#E50000"/>
<path d="M18.8396 143.29H12.5996V149.53H18.8396V143.29Z" fill="#E50000"/>
<path d="M18.8396 137.1H12.5996V143.28H18.8396V137.1Z" fill="#7A370A"/>
<path d="M18.8396 130.86H12.5996V137.1H18.8396V130.86Z" fill="#7A370A"/>
<path d="M18.8396 124.68H12.5996V130.86H18.8396V124.68Z" fill="#7A370A"/>
<path d="M18.8396 118.43H12.5996V124.67H18.8396V118.43Z" fill="#7A370A"/>
<path d="M18.8396 112.25H12.5996V118.43H18.8396V112.25Z" fill="black"/>
<path d="M18.8396 106.01H12.5996V112.25H18.8396V106.01Z" fill="#293D4C"/>
<path d="M18.8396 99.8301H12.5996V106.01H18.8396V99.8301Z" fill="#293D4C"/>
<path d="M18.8396 93.5801H12.5996V99.8201H18.8396V93.5801Z" fill="#293D4C"/>
<path d="M18.8396 87.3398H12.5996V93.5798H18.8396V87.3398Z" fill="#293D4C"/>
<path d="M18.8396 81.1597H12.5996V87.3397H18.8396V81.1597Z" fill="black"/>
<path d="M18.8396 74.9097H12.5996V81.1497H18.8396V74.9097Z" fill="#E50000"/>
<path d="M18.8396 68.73H12.5996V74.91H18.8396V68.73Z" fill="#7A370A"/>
<path d="M18.8396 62.48H12.5996V68.72H18.8396V62.48Z" fill="#7A370A"/>
<path d="M18.8396 56.2998H12.5996V62.4798H18.8396V56.2998Z" fill="#7A370A"/>
<path d="M18.8396 50.0601H12.5996V56.3001H18.8396V50.0601Z" fill="#7A370A"/>
<path d="M18.8396 43.8101H12.5996V50.0501H18.8396V43.8101Z" fill="#939393"/>
<path d="M18.8396 37.6299H12.5996V43.8099H18.8396V37.6299Z" fill="#A7A7A8"/>
<path d="M18.8396 31.3896H12.5996V37.6296H18.8396V31.3896Z" fill="black"/>
<path d="M18.8396 25.21H12.5996V31.39H18.8396V25.21Z" fill="#A7A7A8"/>
<path d="M18.8396 18.96H12.5996V25.2H18.8396V18.96Z" fill="#A7A7A8"/>
<path d="M18.8396 12.7798H12.5996V18.9598H18.8396V12.7798Z" fill="#A7A7A8"/>
<path d="M18.8396 6.54004H12.5996V12.78H18.8396V6.54004Z" fill="#FF0000"/>
<path d="M12.5901 106.01H6.41016V112.25H12.5901V106.01Z" fill="#455360"/>
<path d="M12.5901 99.8301H6.41016V106.01H12.5901V99.8301Z" fill="#455360"/>
<path d="M12.5901 93.5801H6.41016V99.8201H12.5901V93.5801Z" fill="#455360"/>
<path d="M12.5901 87.3398H6.41016V93.5798H12.5901V87.3398Z" fill="#455360"/>
<path d="M12.5901 37.6299H6.41016V43.8099H12.5901V37.6299Z" fill="#939393"/>
<path d="M12.5901 31.3896H6.41016V37.6296H12.5901V31.3896Z" fill="#A7A7A8"/>
<path d="M12.5901 25.21H6.41016V31.39H12.5901V25.21Z" fill="#A7A7A8"/>
<path d="M12.5901 18.96H6.41016V25.2H12.5901V18.96Z" fill="black"/>
<path d="M12.5901 12.7798H6.41016V18.9598H12.5901V12.7798Z" fill="#939393"/>
<path d="M6.40993 31.3896H0.169922V37.6296H6.40993V31.3896Z" fill="#939393"/>
<path d="M6.40993 25.21H0.169922V31.39H6.40993V25.21Z" fill="#939393"/>
<path d="M6.40993 18.96H0.169922V25.2H6.40993V18.96Z" fill="#939393"/>
</svg>
