<svg width="234" height="261" viewBox="0 0 234 261" fill="none" xmlns="http://www.w3.org/2000/svg">
<path d="M233.739 7.24023H227.289V13.7602H233.739V7.24023Z" fill="black"/>
<path d="M233.739 0.790039H227.289V7.24004H233.739V0.790039Z" fill="black"/>
<path d="M227.28 13.7603H220.77V20.2103H227.28V13.7603Z" fill="black"/>
<path d="M227.28 7.24023H220.77V13.7602H227.28V7.24023Z" fill="#416072"/>
<path d="M227.28 0.790039H220.77V7.24004H227.28V0.790039Z" fill="black"/>
<path d="M220.769 150.01H214.309V156.52H220.769V150.01Z" fill="black"/>
<path d="M220.769 20.2202H214.309V26.7402H220.769V20.2202Z" fill="black"/>
<path d="M220.769 13.7603H214.309V20.2103H220.769V13.7603Z" fill="#2E4851"/>
<path d="M220.769 7.24023H214.309V13.7602H220.769V7.24023Z" fill="#416072"/>
<path d="M220.769 0.790039H214.309V7.24004H220.769V0.790039Z" fill="black"/>
<path d="M214.309 156.52H207.799V163.04H214.309V156.52Z" fill="black"/>
<path d="M214.309 150.01H207.799V156.52H214.309V150.01Z" fill="#E7BD00"/>
<path d="M214.309 143.55H207.799V150H214.309V143.55Z" fill="black"/>
<path d="M214.309 26.7402H207.799V33.1902H214.309V26.7402Z" fill="black"/>
<path d="M214.309 20.2202H207.799V26.7402H214.309V20.2202Z" fill="#416072"/>
<path d="M214.309 13.7603H207.799V20.2103H214.309V13.7603Z" fill="#2E4851"/>
<path d="M214.309 7.24023H207.799V13.7602H214.309V7.24023Z" fill="#607C89"/>
<path d="M214.309 0.790039H207.799V7.24004H214.309V0.790039Z" fill="black"/>
<path d="M207.79 156.52H201.34V163.04H207.79V156.52Z" fill="black"/>
<path d="M207.79 150.01H201.34V156.52H207.79V150.01Z" fill="#E7BD00"/>
<path d="M207.79 143.55H201.34V150H207.79V143.55Z" fill="black"/>
<path d="M207.79 33.1899H201.34V39.7099H207.79V33.1899Z" fill="black"/>
<path d="M207.79 26.7402H201.34V33.1902H207.79V26.7402Z" fill="#416072"/>
<path d="M207.79 20.2202H201.34V26.7402H207.79V20.2202Z" fill="#416072"/>
<path d="M207.79 13.7603H201.34V20.2103H207.79V13.7603Z" fill="#2E4851"/>
<path d="M207.79 7.24023H201.34V13.7602H207.79V7.24023Z" fill="#607C89"/>
<path d="M207.79 0.790039H201.34V7.24004H207.79V0.790039Z" fill="black"/>
<path d="M201.34 156.52H194.82V163.04H201.34V156.52Z" fill="black"/>
<path d="M201.34 150.01H194.82V156.52H201.34V150.01Z" fill="black"/>
<path d="M201.34 124.06H194.82V130.58H201.34V124.06Z" fill="black"/>
<path d="M201.34 117.61H194.82V124.06H201.34V117.61Z" fill="black"/>
<path d="M201.34 111.09H194.82V117.61H201.34V111.09Z" fill="black"/>
<path d="M201.34 104.64H194.82V111.09H201.34V104.64Z" fill="black"/>
<path d="M201.34 33.1899H194.82V39.7099H201.34V33.1899Z" fill="black"/>
<path d="M201.34 26.7402H194.82V33.1902H201.34V26.7402Z" fill="#416072"/>
<path d="M201.34 20.2202H194.82V26.7402H201.34V20.2202Z" fill="#2E4851"/>
<path d="M201.34 13.7603H194.82V20.2103H201.34V13.7603Z" fill="#416072"/>
<path d="M201.34 7.24023H194.82V13.7602H201.34V7.24023Z" fill="#607C89"/>
<path d="M201.34 0.790039H194.82V7.24004H201.34V0.790039Z" fill="black"/>
<path d="M194.819 163.04H188.369V169.49H194.819V163.04Z" fill="black"/>
<path d="M194.819 156.52H188.369V163.04H194.819V156.52Z" fill="#0D561B"/>
<path d="M194.819 150.01H188.369V156.52H194.819V150.01Z" fill="#0D561B"/>
<path d="M194.819 143.55H188.369V150H194.819V143.55Z" fill="black"/>
<path d="M194.819 137.03H188.369V143.55H194.819V137.03Z" fill="black"/>
<path d="M194.819 130.58H188.369V137.03H194.819V130.58Z" fill="black"/>
<path d="M194.819 124.06H188.369V130.58H194.819V124.06Z" fill="#0D561B"/>
<path d="M194.819 117.61H188.369V124.06H194.819V117.61Z" fill="#0D561B"/>
<path d="M194.819 111.09H188.369V117.61H194.819V111.09Z" fill="#5DA34B"/>
<path d="M194.819 104.64H188.369V111.09H194.819V104.64Z" fill="#0C4913"/>
<path d="M194.819 98.1201H188.369V104.64H194.819V98.1201Z" fill="black"/>
<path d="M194.819 33.1899H188.369V39.7099H194.819V33.1899Z" fill="black"/>
<path d="M194.819 26.7402H188.369V33.1902H194.819V26.7402Z" fill="#416072"/>
<path d="M194.819 20.2202H188.369V26.7402H194.819V20.2202Z" fill="#2E4851"/>
<path d="M194.819 13.7603H188.369V20.2103H194.819V13.7603Z" fill="#416072"/>
<path d="M194.819 7.24023H188.369V13.7602H194.819V7.24023Z" fill="#607C89"/>
<path d="M194.819 0.790039H188.369V7.24004H194.819V0.790039Z" fill="black"/>
<path d="M188.37 253.85H181.85V260.37H188.37V253.85Z" fill="black"/>
<path d="M188.37 169.5H181.85V176.02H188.37V169.5Z" fill="black"/>
<path d="M188.37 163.04H181.85V169.49H188.37V163.04Z" fill="#0D561B"/>
<path d="M188.37 156.52H181.85V163.04H188.37V156.52Z" fill="#0D561B"/>
<path d="M188.37 150.01H181.85V156.52H188.37V150.01Z" fill="#0D561B"/>
<path d="M188.37 143.55H181.85V150H188.37V143.55Z" fill="#0D561B"/>
<path d="M188.37 137.03H181.85V143.55H188.37V137.03Z" fill="#0D561B"/>
<path d="M188.37 130.58H181.85V137.03H188.37V130.58Z" fill="#0D561B"/>
<path d="M188.37 124.06H181.85V130.58H188.37V124.06Z" fill="#0D561B"/>
<path d="M188.37 117.61H181.85V124.06H188.37V117.61Z" fill="#0D561B"/>
<path d="M188.37 111.09H181.85V117.61H188.37V111.09Z" fill="#5DA34B"/>
<path d="M188.37 104.64H181.85V111.09H188.37V104.64Z" fill="#0C4913"/>
<path d="M188.37 98.1201H181.85V104.64H188.37V98.1201Z" fill="#429331"/>
<path d="M188.37 91.6001H181.85V98.1201H188.37V91.6001Z" fill="black"/>
<path d="M188.37 85.1401H181.85V91.5901H188.37V85.1401Z" fill="black"/>
<path d="M188.37 33.1899H181.85V39.7099H188.37V33.1899Z" fill="black"/>
<path d="M188.37 26.7402H181.85V33.1902H188.37V26.7402Z" fill="#416072"/>
<path d="M188.37 20.2202H181.85V26.7402H188.37V20.2202Z" fill="#2E4851"/>
<path d="M188.37 13.7603H181.85V20.2103H188.37V13.7603Z" fill="#607C89"/>
<path d="M188.37 7.24023H181.85V13.7602H188.37V7.24023Z" fill="#607C89"/>
<path d="M188.37 0.790039H181.85V7.24004H188.37V0.790039Z" fill="black"/>
<path d="M181.85 253.85H175.34V260.37H181.85V253.85Z" fill="#429331"/>
<path d="M181.85 247.4H175.34V253.85H181.85V247.4Z" fill="black"/>
<path d="M181.85 169.5H175.34V176.02H181.85V169.5Z" fill="black"/>
<path d="M181.85 163.04H175.34V169.49H181.85V163.04Z" fill="#0D561B"/>
<path d="M181.85 156.52H175.34V163.04H181.85V156.52Z" fill="#0D561B"/>
<path d="M181.85 150.01H175.34V156.52H181.85V150.01Z" fill="#0D561B"/>
<path d="M181.85 143.55H175.34V150H181.85V143.55Z" fill="#0D561B"/>
<path d="M181.85 137.03H175.34V143.55H181.85V137.03Z" fill="#0D561B"/>
<path d="M181.85 130.58H175.34V137.03H181.85V130.58Z" fill="#0D561B"/>
<path d="M181.85 124.06H175.34V130.58H181.85V124.06Z" fill="#0D561B"/>
<path d="M181.85 117.61H175.34V124.06H181.85V117.61Z" fill="#5DA34B"/>
<path d="M181.85 111.09H175.34V117.61H181.85V111.09Z" fill="#0C4913"/>
<path d="M181.85 104.64H175.34V111.09H181.85V104.64Z" fill="#429331"/>
<path d="M181.85 98.1201H175.34V104.64H181.85V98.1201Z" fill="#429331"/>
<path d="M181.85 91.6001H175.34V98.1201H181.85V91.6001Z" fill="#5DA34B"/>
<path d="M181.85 85.1401H175.34V91.5901H181.85V85.1401Z" fill="#0C4913"/>
<path d="M181.85 78.6201H175.34V85.1401H181.85V78.6201Z" fill="black"/>
<path d="M181.85 72.1699H175.34V78.6199H181.85V72.1699Z" fill="black"/>
<path d="M181.85 39.71H175.34V46.16H181.85V39.71Z" fill="black"/>
<path d="M181.85 33.1899H175.34V39.7099H181.85V33.1899Z" fill="#416072"/>
<path d="M181.85 26.7402H175.34V33.1902H181.85V26.7402Z" fill="#2E4851"/>
<path d="M181.85 20.2202H175.34V26.7402H181.85V20.2202Z" fill="#416072"/>
<path d="M181.85 13.7603H175.34V20.2103H181.85V13.7603Z" fill="#607C89"/>
<path d="M181.85 7.24023H175.34V13.7602H181.85V7.24023Z" fill="black"/>
<path d="M175.329 253.85H168.869V260.37H175.329V253.85Z" fill="#5BAF43"/>
<path d="M175.329 247.4H168.869V253.85H175.329V247.4Z" fill="#429331"/>
<path d="M175.329 240.88H168.869V247.39H175.329V240.88Z" fill="black"/>
<path d="M175.329 234.42H168.869V240.88H175.329V234.42Z" fill="black"/>
<path d="M175.329 227.91H168.869V234.42H175.329V227.91Z" fill="black"/>
<path d="M175.329 169.5H168.869V176.02H175.329V169.5Z" fill="black"/>
<path d="M175.329 163.04H168.869V169.49H175.329V163.04Z" fill="black"/>
<path d="M175.329 156.52H168.869V163.04H175.329V156.52Z" fill="#0D561B"/>
<path d="M175.329 150.01H168.869V156.52H175.329V150.01Z" fill="black"/>
<path d="M175.329 143.55H168.869V150H175.329V143.55Z" fill="black"/>
<path d="M175.329 137.03H168.869V143.55H175.329V137.03Z" fill="black"/>
<path d="M175.329 130.58H168.869V137.03H175.329V130.58Z" fill="black"/>
<path d="M175.329 124.06H168.869V130.58H175.329V124.06Z" fill="black"/>
<path d="M175.329 117.61H168.869V124.06H175.329V117.61Z" fill="#0C4913"/>
<path d="M175.329 111.09H168.869V117.61H175.329V111.09Z" fill="#429331"/>
<path d="M175.329 104.64H168.869V111.09H175.329V104.64Z" fill="#429331"/>
<path d="M175.329 98.1201H168.869V104.64H175.329V98.1201Z" fill="#5DA34B"/>
<path d="M175.329 91.6001H168.869V98.1201H175.329V91.6001Z" fill="#5DA34B"/>
<path d="M175.329 85.1401H168.869V91.5901H175.329V85.1401Z" fill="#0C4913"/>
<path d="M175.329 78.6201H168.869V85.1401H175.329V78.6201Z" fill="#429331"/>
<path d="M175.329 72.1699H168.869V78.6199H175.329V72.1699Z" fill="#429331"/>
<path d="M175.329 65.6499H168.869V72.1699H175.329V65.6499Z" fill="black"/>
<path d="M175.329 39.71H168.869V46.16H175.329V39.71Z" fill="black"/>
<path d="M175.329 33.1899H168.869V39.7099H175.329V33.1899Z" fill="#416072"/>
<path d="M175.329 26.7402H168.869V33.1902H175.329V26.7402Z" fill="#2E4851"/>
<path d="M175.329 20.2202H168.869V26.7402H175.329V20.2202Z" fill="#416072"/>
<path d="M175.329 13.7603H168.869V20.2103H175.329V13.7603Z" fill="#607C89"/>
<path d="M175.329 7.24023H168.869V13.7602H175.329V7.24023Z" fill="black"/>
<path d="M168.879 253.85H162.369V260.37H168.879V253.85Z" fill="#5BAF43"/>
<path d="M168.879 247.4H162.369V253.85H168.879V247.4Z" fill="#429331"/>
<path d="M168.879 240.88H162.369V247.39H168.879V240.88Z" fill="#0C4913"/>
<path d="M168.879 234.42H162.369V240.88H168.879V234.42Z" fill="#429331"/>
<path d="M168.879 227.91H162.369V234.42H168.879V227.91Z" fill="#429331"/>
<path d="M168.879 221.45H162.369V227.9H168.879V221.45Z" fill="black"/>
<path d="M168.879 214.93H162.369V221.45H168.879V214.93Z" fill="black"/>
<path d="M168.879 208.48H162.369V214.93H168.879V208.48Z" fill="black"/>
<path d="M168.879 201.96H162.369V208.48H168.879V201.96Z" fill="black"/>
<path d="M168.879 195.45H162.369V201.96H168.879V195.45Z" fill="black"/>
<path d="M168.879 176.02H162.369V182.47H168.879V176.02Z" fill="black"/>
<path d="M168.879 169.5H162.369V176.02H168.879V169.5Z" fill="#E7BD00"/>
<path d="M168.879 163.04H162.369V169.49H168.879V163.04Z" fill="#E7BD00"/>
<path d="M168.879 156.52H162.369V163.04H168.879V156.52Z" fill="black"/>
<path d="M168.879 124.06H162.369V130.58H168.879V124.06Z" fill="black"/>
<path d="M168.879 117.61H162.369V124.06H168.879V117.61Z" fill="black"/>
<path d="M168.879 111.09H162.369V117.61H168.879V111.09Z" fill="black"/>
<path d="M168.879 104.64H162.369V111.09H168.879V104.64Z" fill="#5DA34B"/>
<path d="M168.879 98.1201H162.369V104.64H168.879V98.1201Z" fill="#5DA34B"/>
<path d="M168.879 91.6001H162.369V98.1201H168.879V91.6001Z" fill="#0C4913"/>
<path d="M168.879 85.1401H162.369V91.5901H168.879V85.1401Z" fill="#5DA34B"/>
<path d="M168.879 78.6201H162.369V85.1401H168.879V78.6201Z" fill="#429331"/>
<path d="M168.879 72.1699H162.369V78.6199H168.879V72.1699Z" fill="#429331"/>
<path d="M168.879 65.6499H162.369V72.1699H168.879V65.6499Z" fill="#0C4913"/>
<path d="M168.879 59.2002H162.369V65.6502H168.879V59.2002Z" fill="black"/>
<path d="M168.879 39.71H162.369V46.16H168.879V39.71Z" fill="black"/>
<path d="M168.879 33.1899H162.369V39.7099H168.879V33.1899Z" fill="#416072"/>
<path d="M168.879 26.7402H162.369V33.1902H168.879V26.7402Z" fill="#2E4851"/>
<path d="M168.879 20.2202H162.369V26.7402H168.879V20.2202Z" fill="#416072"/>
<path d="M168.879 13.7603H162.369V20.2103H168.879V13.7603Z" fill="#607C89"/>
<path d="M168.879 7.24023H162.369V13.7602H168.879V7.24023Z" fill="black"/>
<path d="M162.36 253.85H155.91V260.37H162.36V253.85Z" fill="#429331"/>
<path d="M162.36 247.4H155.91V253.85H162.36V247.4Z" fill="#0C4913"/>
<path d="M162.36 240.88H155.91V247.39H162.36V240.88Z" fill="#429331"/>
<path d="M162.36 234.42H155.91V240.88H162.36V234.42Z" fill="#429331"/>
<path d="M162.36 227.91H155.91V234.42H162.36V227.91Z" fill="#429331"/>
<path d="M162.36 221.45H155.91V227.9H162.36V221.45Z" fill="#0C4913"/>
<path d="M162.36 214.93H155.91V221.45H162.36V214.93Z" fill="#0C4913"/>
<path d="M162.36 208.48H155.91V214.93H162.36V208.48Z" fill="#0C4913"/>
<path d="M162.36 201.96H155.91V208.48H162.36V201.96Z" fill="#5BAF43"/>
<path d="M162.36 195.45H155.91V201.96H162.36V195.45Z" fill="#429331"/>
<path d="M162.36 188.98H155.91V195.44H162.36V188.98Z" fill="black"/>
<path d="M162.36 182.47H155.91V188.98H162.36V182.47Z" fill="black"/>
<path d="M162.36 176.02H155.91V182.47H162.36V176.02Z" fill="#416072"/>
<path d="M162.36 169.5H155.91V176.02H162.36V169.5Z" fill="#416072"/>
<path d="M162.36 163.04H155.91V169.49H162.36V163.04Z" fill="#E7BD00"/>
<path d="M162.36 156.52H155.91V163.04H162.36V156.52Z" fill="black"/>
<path d="M162.36 104.64H155.91V111.09H162.36V104.64Z" fill="black"/>
<path d="M162.36 98.1201H155.91V104.64H162.36V98.1201Z" fill="#0C4913"/>
<path d="M162.36 91.6001H155.91V98.1201H162.36V91.6001Z" fill="#5DA34B"/>
<path d="M162.36 85.1401H155.91V91.5901H162.36V85.1401Z" fill="#429331"/>
<path d="M162.36 78.6201H155.91V85.1401H162.36V78.6201Z" fill="#429331"/>
<path d="M162.36 72.1699H155.91V78.6199H162.36V72.1699Z" fill="#429331"/>
<path d="M162.36 65.6499H155.91V72.1699H162.36V65.6499Z" fill="#429331"/>
<path d="M162.36 59.2002H155.91V65.6502H162.36V59.2002Z" fill="black"/>
<path d="M162.36 46.1602H155.91V52.6802H162.36V46.1602Z" fill="black"/>
<path d="M162.36 39.71H155.91V46.16H162.36V39.71Z" fill="#416072"/>
<path d="M162.36 33.1899H155.91V39.7099H162.36V33.1899Z" fill="#2E4851"/>
<path d="M162.36 26.7402H155.91V33.1902H162.36V26.7402Z" fill="#416072"/>
<path d="M162.36 20.2202H155.91V26.7402H162.36V20.2202Z" fill="#607C89"/>
<path d="M162.36 13.7603H155.91V20.2103H162.36V13.7603Z" fill="black"/>
<path d="M155.909 253.85H149.389V260.37H155.909V253.85Z" fill="black"/>
<path d="M155.909 247.4H149.389V253.85H155.909V247.4Z" fill="black"/>
<path d="M155.909 240.88H149.389V247.39H155.909V240.88Z" fill="#429331"/>
<path d="M155.909 234.42H149.389V240.88H155.909V234.42Z" fill="#429331"/>
<path d="M155.909 227.91H149.389V234.42H155.909V227.91Z" fill="#429331"/>
<path d="M155.909 221.45H149.389V227.9H155.909V221.45Z" fill="#5BAF43"/>
<path d="M155.909 214.93H149.389V221.45H155.909V214.93Z" fill="#0C4913"/>
<path d="M155.909 208.48H149.389V214.93H155.909V208.48Z" fill="#5BAF43"/>
<path d="M155.909 201.96H149.389V208.48H155.909V201.96Z" fill="#5BAF43"/>
<path d="M155.909 195.45H149.389V201.96H155.909V195.45Z" fill="#429331"/>
<path d="M155.909 188.98H149.389V195.44H155.909V188.98Z" fill="#429331"/>
<path d="M155.909 182.47H149.389V188.98H155.909V182.47Z" fill="black"/>
<path d="M155.909 176.02H149.389V182.47H155.909V176.02Z" fill="#416072"/>
<path d="M155.909 169.5H149.389V176.02H155.909V169.5Z" fill="#416072"/>
<path d="M155.909 163.04H149.389V169.49H155.909V163.04Z" fill="black"/>
<path d="M155.909 156.52H149.389V163.04H155.909V156.52Z" fill="#0C4913"/>
<path d="M155.909 150.01H149.389V156.52H155.909V150.01Z" fill="black"/>
<path d="M155.909 143.55H149.389V150H155.909V143.55Z" fill="black"/>
<path d="M155.909 137.03H149.389V143.55H155.909V137.03Z" fill="black"/>
<path d="M155.909 130.58H149.389V137.03H155.909V130.58Z" fill="black"/>
<path d="M155.909 98.1201H149.389V104.64H155.909V98.1201Z" fill="black"/>
<path d="M155.909 91.6001H149.389V98.1201H155.909V91.6001Z" fill="#0C4913"/>
<path d="M155.909 85.1401H149.389V91.5901H155.909V85.1401Z" fill="#0C4913"/>
<path d="M155.909 78.6201H149.389V85.1401H155.909V78.6201Z" fill="#0C4913"/>
<path d="M155.909 72.1699H149.389V78.6199H155.909V72.1699Z" fill="#429331"/>
<path d="M155.909 65.6499H149.389V72.1699H155.909V65.6499Z" fill="#429331"/>
<path d="M155.909 59.2002H149.389V65.6502H155.909V59.2002Z" fill="black"/>
<path d="M155.909 46.1602H149.389V52.6802H155.909V46.1602Z" fill="black"/>
<path d="M155.909 39.71H149.389V46.16H155.909V39.71Z" fill="#416072"/>
<path d="M155.909 33.1899H149.389V39.7099H155.909V33.1899Z" fill="#2E4851"/>
<path d="M155.909 26.7402H149.389V33.1902H155.909V26.7402Z" fill="#416072"/>
<path d="M155.909 20.2202H149.389V26.7402H155.909V20.2202Z" fill="#607C89"/>
<path d="M155.909 13.7603H149.389V20.2103H155.909V13.7603Z" fill="black"/>
<path d="M149.38 240.88H142.93V247.39H149.38V240.88Z" fill="black"/>
<path d="M149.38 234.42H142.93V240.88H149.38V234.42Z" fill="black"/>
<path d="M149.38 227.91H142.93V234.42H149.38V227.91Z" fill="black"/>
<path d="M149.38 221.45H142.93V227.9H149.38V221.45Z" fill="#5BAF43"/>
<path d="M149.38 214.93H142.93V221.45H149.38V214.93Z" fill="#5BAF43"/>
<path d="M149.38 208.48H142.93V214.93H149.38V208.48Z" fill="#5BAF43"/>
<path d="M149.38 201.96H142.93V208.48H149.38V201.96Z" fill="#429331"/>
<path d="M149.38 195.45H142.93V201.96H149.38V195.45Z" fill="#429331"/>
<path d="M149.38 188.98H142.93V195.44H149.38V188.98Z" fill="black"/>
<path d="M149.38 182.47H142.93V188.98H149.38V182.47Z" fill="#416072"/>
<path d="M149.38 176.02H142.93V182.47H149.38V176.02Z" fill="#416072"/>
<path d="M149.38 169.5H142.93V176.02H149.38V169.5Z" fill="#2E4851"/>
<path d="M149.38 163.04H142.93V169.49H149.38V163.04Z" fill="black"/>
<path d="M149.38 156.52H142.93V163.04H149.38V156.52Z" fill="#0C4913"/>
<path d="M149.38 150.01H142.93V156.52H149.38V150.01Z" fill="#0D561B"/>
<path d="M149.38 143.55H142.93V150H149.38V143.55Z" fill="#14661E"/>
<path d="M149.38 137.03H142.93V143.55H149.38V137.03Z" fill="#1F7227"/>
<path d="M149.38 130.58H142.93V137.03H149.38V130.58Z" fill="black"/>
<path d="M149.38 124.06H142.93V130.58H149.38V124.06Z" fill="black"/>
<path d="M149.38 111.09H142.93V117.61H149.38V111.09Z" fill="black"/>
<path d="M149.38 104.64H142.93V111.09H149.38V104.64Z" fill="black"/>
<path d="M149.38 98.1201H142.93V104.64H149.38V98.1201Z" fill="#0C4913"/>
<path d="M149.38 91.6001H142.93V98.1201H149.38V91.6001Z" fill="#0C4913"/>
<path d="M149.38 85.1401H142.93V91.5901H149.38V85.1401Z" fill="#0C4913"/>
<path d="M149.38 78.6201H142.93V85.1401H149.38V78.6201Z" fill="#429331"/>
<path d="M149.38 72.1699H142.93V78.6199H149.38V72.1699Z" fill="#429331"/>
<path d="M149.38 65.6499H142.93V72.1699H149.38V65.6499Z" fill="#0C4913"/>
<path d="M149.38 59.2002H142.93V65.6502H149.38V59.2002Z" fill="#429331"/>
<path d="M149.38 52.6802H142.93V59.2002H149.38V52.6802Z" fill="black"/>
<path d="M149.38 46.1602H142.93V52.6802H149.38V46.1602Z" fill="black"/>
<path d="M149.38 39.71H142.93V46.16H149.38V39.71Z" fill="#416072"/>
<path d="M149.38 33.1899H142.93V39.7099H149.38V33.1899Z" fill="#2E4851"/>
<path d="M149.38 26.7402H142.93V33.1902H149.38V26.7402Z" fill="#416072"/>
<path d="M149.38 20.2202H142.93V26.7402H149.38V20.2202Z" fill="#607C89"/>
<path d="M149.38 13.7603H142.93V20.2103H149.38V13.7603Z" fill="black"/>
<path d="M142.94 221.45H136.42V227.9H142.94V221.45Z" fill="black"/>
<path d="M142.94 214.93H136.42V221.45H142.94V214.93Z" fill="black"/>
<path d="M142.94 208.48H136.42V214.93H142.94V208.48Z" fill="black"/>
<path d="M142.94 201.96H136.42V208.48H142.94V201.96Z" fill="#429331"/>
<path d="M142.94 195.45H136.42V201.96H142.94V195.45Z" fill="#429331"/>
<path d="M142.94 188.98H136.42V195.44H142.94V188.98Z" fill="black"/>
<path d="M142.94 182.47H136.42V188.98H142.94V182.47Z" fill="#416072"/>
<path d="M142.94 176.02H136.42V182.47H142.94V176.02Z" fill="#2E4851"/>
<path d="M142.94 169.5H136.42V176.02H142.94V169.5Z" fill="black"/>
<path d="M142.94 163.04H136.42V169.49H142.94V163.04Z" fill="#0C4913"/>
<path d="M142.94 156.52H136.42V163.04H142.94V156.52Z" fill="#0D561B"/>
<path d="M142.94 150.01H136.42V156.52H142.94V150.01Z" fill="#0D561B"/>
<path d="M142.94 143.55H136.42V150H142.94V143.55Z" fill="#14661E"/>
<path d="M142.94 137.03H136.42V143.55H142.94V137.03Z" fill="#14661E"/>
<path d="M142.94 130.58H136.42V137.03H142.94V130.58Z" fill="black"/>
<path d="M142.94 124.06H136.42V130.58H142.94V124.06Z" fill="#0C4913"/>
<path d="M142.94 117.61H136.42V124.06H142.94V117.61Z" fill="black"/>
<path d="M142.94 111.09H136.42V117.61H142.94V111.09Z" fill="#0C4913"/>
<path d="M142.94 104.64H136.42V111.09H142.94V104.64Z" fill="#0C4913"/>
<path d="M142.94 98.1201H136.42V104.64H142.94V98.1201Z" fill="#0C4913"/>
<path d="M142.94 91.6001H136.42V98.1201H142.94V91.6001Z" fill="#0C4913"/>
<path d="M142.94 85.1401H136.42V91.5901H142.94V85.1401Z" fill="#429331"/>
<path d="M142.94 78.6201H136.42V85.1401H142.94V78.6201Z" fill="#429331"/>
<path d="M142.94 72.1699H136.42V78.6199H142.94V72.1699Z" fill="#0C4913"/>
<path d="M142.94 65.6499H136.42V72.1699H142.94V65.6499Z" fill="#429331"/>
<path d="M142.94 59.2002H136.42V65.6502H142.94V59.2002Z" fill="#429331"/>
<path d="M142.94 52.6802H136.42V59.2002H142.94V52.6802Z" fill="black"/>
<path d="M142.94 46.1602H136.42V52.6802H142.94V46.1602Z" fill="black"/>
<path d="M142.94 39.71H136.42V46.16H142.94V39.71Z" fill="black"/>
<path d="M142.94 33.1899H136.42V39.7099H142.94V33.1899Z" fill="black"/>
<path d="M142.94 26.7402H136.42V33.1902H142.94V26.7402Z" fill="black"/>
<path d="M142.94 20.2202H136.42V26.7402H142.94V20.2202Z" fill="black"/>
<path d="M136.408 201.96H129.898V208.48H136.408V201.96Z" fill="black"/>
<path d="M136.408 195.45H129.898V201.96H136.408V195.45Z" fill="black"/>
<path d="M136.408 188.98H129.898V195.44H136.408V188.98Z" fill="black"/>
<path d="M136.408 182.47H129.898V188.98H136.408V182.47Z" fill="#416072"/>
<path d="M136.408 176.02H129.898V182.47H136.408V176.02Z" fill="#2E4851"/>
<path d="M136.408 169.5H129.898V176.02H136.408V169.5Z" fill="black"/>
<path d="M136.408 163.04H129.898V169.49H136.408V163.04Z" fill="#0C4913"/>
<path d="M136.408 156.52H129.898V163.04H136.408V156.52Z" fill="#0D561B"/>
<path d="M136.408 150.01H129.898V156.52H136.408V150.01Z" fill="#0D561B"/>
<path d="M136.408 143.55H129.898V150H136.408V143.55Z" fill="#0D561B"/>
<path d="M136.408 137.03H129.898V143.55H136.408V137.03Z" fill="#14661E"/>
<path d="M136.408 130.58H129.898V137.03H136.408V130.58Z" fill="black"/>
<path d="M136.408 124.06H129.898V130.58H136.408V124.06Z" fill="#0C4913"/>
<path d="M136.408 117.61H129.898V124.06H136.408V117.61Z" fill="#0C4913"/>
<path d="M136.408 111.09H129.898V117.61H136.408V111.09Z" fill="#0C4913"/>
<path d="M136.408 104.64H129.898V111.09H136.408V104.64Z" fill="#0C4913"/>
<path d="M136.408 98.1201H129.898V104.64H136.408V98.1201Z" fill="#429331"/>
<path d="M136.408 91.6001H129.898V98.1201H136.408V91.6001Z" fill="#429331"/>
<path d="M136.408 85.1401H129.898V91.5901H136.408V85.1401Z" fill="#0C4913"/>
<path d="M136.408 78.6201H129.898V85.1401H136.408V78.6201Z" fill="#0C4913"/>
<path d="M136.408 72.1699H129.898V78.6199H136.408V72.1699Z" fill="#0C4913"/>
<path d="M136.408 65.6499H129.898V72.1699H136.408V65.6499Z" fill="#429331"/>
<path d="M136.408 59.2002H129.898V65.6502H136.408V59.2002Z" fill="#0C4913"/>
<path d="M136.408 52.6802H129.898V59.2002H136.408V52.6802Z" fill="#0C4913"/>
<path d="M136.408 46.1602H129.898V52.6802H136.408V46.1602Z" fill="#0C4913"/>
<path d="M136.408 39.71H129.898V46.16H136.408V39.71Z" fill="black"/>
<path d="M136.408 33.1899H129.898V39.7099H136.408V33.1899Z" fill="#0C4913"/>
<path d="M136.408 26.7402H129.898V33.1902H136.408V26.7402Z" fill="black"/>
<path d="M136.408 20.2202H129.898V26.7402H136.408V20.2202Z" fill="#429331"/>
<path d="M136.408 13.7603H129.898V20.2103H136.408V13.7603Z" fill="black"/>
<path d="M129.889 195.45H123.439V201.96H129.889V195.45Z" fill="black"/>
<path d="M129.889 188.98H123.439V195.44H129.889V188.98Z" fill="#416072"/>
<path d="M129.889 182.47H123.439V188.98H129.889V182.47Z" fill="#2E4851"/>
<path d="M129.889 176.02H123.439V182.47H129.889V176.02Z" fill="#416072"/>
<path d="M129.889 169.5H123.439V176.02H129.889V169.5Z" fill="black"/>
<path d="M129.889 163.04H123.439V169.49H129.889V163.04Z" fill="#0C4913"/>
<path d="M129.889 156.52H123.439V163.04H129.889V156.52Z" fill="#0D561B"/>
<path d="M129.889 150.01H123.439V156.52H129.889V150.01Z" fill="#0D561B"/>
<path d="M129.889 143.55H123.439V150H129.889V143.55Z" fill="#14661E"/>
<path d="M129.889 137.03H123.439V143.55H129.889V137.03Z" fill="black"/>
<path d="M129.889 130.58H123.439V137.03H129.889V130.58Z" fill="#429331"/>
<path d="M129.889 124.06H123.439V130.58H129.889V124.06Z" fill="#429331"/>
<path d="M129.889 117.61H123.439V124.06H129.889V117.61Z" fill="#0C4913"/>
<path d="M129.889 111.09H123.439V117.61H129.889V111.09Z" fill="#0C4913"/>
<path d="M129.889 104.64H123.439V111.09H129.889V104.64Z" fill="#0C4913"/>
<path d="M129.889 98.1201H123.439V104.64H129.889V98.1201Z" fill="#5DA34B"/>
<path d="M129.889 91.6001H123.439V98.1201H129.889V91.6001Z" fill="#429331"/>
<path d="M129.889 85.1401H123.439V91.5901H129.889V85.1401Z" fill="#0C4913"/>
<path d="M129.889 78.6201H123.439V85.1401H129.889V78.6201Z" fill="#0C4913"/>
<path d="M129.889 72.1699H123.439V78.6199H129.889V72.1699Z" fill="#0C4913"/>
<path d="M129.889 65.6499H123.439V72.1699H129.889V65.6499Z" fill="#0C4913"/>
<path d="M129.889 59.2002H123.439V65.6502H129.889V59.2002Z" fill="#0C4913"/>
<path d="M129.889 52.6802H123.439V59.2002H129.889V52.6802Z" fill="#429331"/>
<path d="M129.889 46.1602H123.439V52.6802H129.889V46.1602Z" fill="#429331"/>
<path d="M129.889 39.71H123.439V46.16H129.889V39.71Z" fill="#429331"/>
<path d="M129.889 33.1899H123.439V39.7099H129.889V33.1899Z" fill="#429331"/>
<path d="M129.889 26.7402H123.439V33.1902H129.889V26.7402Z" fill="#429331"/>
<path d="M129.889 20.2202H123.439V26.7402H129.889V20.2202Z" fill="#429331"/>
<path d="M129.889 13.7603H123.439V20.2103H129.889V13.7603Z" fill="black"/>
<path d="M123.44 195.45H116.92V201.96H123.44V195.45Z" fill="black"/>
<path d="M123.44 188.98H116.92V195.44H123.44V188.98Z" fill="#416072"/>
<path d="M123.44 182.47H116.92V188.98H123.44V182.47Z" fill="#2E4851"/>
<path d="M123.44 176.02H116.92V182.47H123.44V176.02Z" fill="black"/>
<path d="M123.44 169.5H116.92V176.02H123.44V169.5Z" fill="#0C4913"/>
<path d="M123.44 163.04H116.92V169.49H123.44V163.04Z" fill="#0D561B"/>
<path d="M123.44 156.52H116.92V163.04H123.44V156.52Z" fill="#0D561B"/>
<path d="M123.44 150.01H116.92V156.52H123.44V150.01Z" fill="#0D561B"/>
<path d="M123.44 143.55H116.92V150H123.44V143.55Z" fill="#14661E"/>
<path d="M123.44 137.03H116.92V143.55H123.44V137.03Z" fill="black"/>
<path d="M123.44 130.58H116.92V137.03H123.44V130.58Z" fill="#429331"/>
<path d="M123.44 124.06H116.92V130.58H123.44V124.06Z" fill="#429331"/>
<path d="M123.44 117.61H116.92V124.06H123.44V117.61Z" fill="#429331"/>
<path d="M123.44 111.09H116.92V117.61H123.44V111.09Z" fill="#0C4913"/>
<path d="M123.44 104.64H116.92V111.09H123.44V104.64Z" fill="#0C4913"/>
<path d="M123.44 98.1201H116.92V104.64H123.44V98.1201Z" fill="#5DA34B"/>
<path d="M123.44 91.6001H116.92V98.1201H123.44V91.6001Z" fill="#429331"/>
<path d="M123.44 85.1401H116.92V91.5901H123.44V85.1401Z" fill="#0C4913"/>
<path d="M123.44 78.6201H116.92V85.1401H123.44V78.6201Z" fill="#073A0F"/>
<path d="M123.44 72.1699H116.92V78.6199H123.44V72.1699Z" fill="#073A0F"/>
<path d="M123.44 65.6499H116.92V72.1699H123.44V65.6499Z" fill="#429331"/>
<path d="M123.44 59.2002H116.92V65.6502H123.44V59.2002Z" fill="#429331"/>
<path d="M123.44 52.6802H116.92V59.2002H123.44V52.6802Z" fill="#0C4913"/>
<path d="M123.44 46.1602H116.92V52.6802H123.44V46.1602Z" fill="#429331"/>
<path d="M123.44 39.71H116.92V46.16H123.44V39.71Z" fill="black"/>
<path d="M123.44 33.1899H116.92V39.7099H123.44V33.1899Z" fill="#429331"/>
<path d="M123.44 26.7402H116.92V33.1902H123.44V26.7402Z" fill="black"/>
<path d="M123.44 20.2202H116.92V26.7402H123.44V20.2202Z" fill="#5BAF43"/>
<path d="M123.44 13.7603H116.92V20.2103H123.44V13.7603Z" fill="black"/>
<path d="M116.919 234.42H110.469V240.88H116.919V234.42Z" fill="black"/>
<path d="M116.919 227.91H110.469V234.42H116.919V227.91Z" fill="black"/>
<path d="M116.919 221.45H110.469V227.9H116.919V221.45Z" fill="black"/>
<path d="M116.919 214.93H110.469V221.45H116.919V214.93Z" fill="black"/>
<path d="M116.919 208.48H110.469V214.93H116.919V208.48Z" fill="black"/>
<path d="M116.919 201.96H110.469V208.48H116.919V201.96Z" fill="black"/>
<path d="M116.919 195.45H110.469V201.96H116.919V195.45Z" fill="black"/>
<path d="M116.919 188.98H110.469V195.44H116.919V188.98Z" fill="#416072"/>
<path d="M116.919 182.47H110.469V188.98H116.919V182.47Z" fill="#2E4851"/>
<path d="M116.919 176.02H110.469V182.47H116.919V176.02Z" fill="black"/>
<path d="M116.919 169.5H110.469V176.02H116.919V169.5Z" fill="#0C4913"/>
<path d="M116.919 163.04H110.469V169.49H116.919V163.04Z" fill="#0D561B"/>
<path d="M116.919 156.52H110.469V163.04H116.919V156.52Z" fill="#0D561B"/>
<path d="M116.919 150.01H110.469V156.52H116.919V150.01Z" fill="#0D561B"/>
<path d="M116.919 143.55H110.469V150H116.919V143.55Z" fill="#14661E"/>
<path d="M116.919 137.03H110.469V143.55H116.919V137.03Z" fill="black"/>
<path d="M116.919 130.58H110.469V137.03H116.919V130.58Z" fill="#0C4913"/>
<path d="M116.919 124.06H110.469V130.58H116.919V124.06Z" fill="#429331"/>
<path d="M116.919 117.61H110.469V124.06H116.919V117.61Z" fill="#429331"/>
<path d="M116.919 111.09H110.469V117.61H116.919V111.09Z" fill="#429331"/>
<path d="M116.919 104.64H110.469V111.09H116.919V104.64Z" fill="#0C4913"/>
<path d="M116.919 98.1201H110.469V104.64H116.919V98.1201Z" fill="#5DA34B"/>
<path d="M116.919 91.6001H110.469V98.1201H116.919V91.6001Z" fill="#5DA34B"/>
<path d="M116.919 85.1401H110.469V91.5901H116.919V85.1401Z" fill="#0C4913"/>
<path d="M116.919 78.6201H110.469V85.1401H116.919V78.6201Z" fill="#073A0F"/>
<path d="M116.919 72.1699H110.469V78.6199H116.919V72.1699Z" fill="#073A0F"/>
<path d="M116.919 65.6499H110.469V72.1699H116.919V65.6499Z" fill="#429331"/>
<path d="M116.919 59.2002H110.469V65.6502H116.919V59.2002Z" fill="#429331"/>
<path d="M116.919 52.6802H110.469V59.2002H116.919V52.6802Z" fill="#0C4913"/>
<path d="M116.919 46.1602H110.469V52.6802H116.919V46.1602Z" fill="#429331"/>
<path d="M116.919 39.71H110.469V46.16H116.919V39.71Z" fill="black"/>
<path d="M116.919 33.1899H110.469V39.7099H116.919V33.1899Z" fill="#429331"/>
<path d="M116.919 26.7402H110.469V33.1902H116.919V26.7402Z" fill="black"/>
<path d="M116.919 20.2202H110.469V26.7402H116.919V20.2202Z" fill="#5BAF43"/>
<path d="M116.919 13.7603H110.469V20.2103H116.919V13.7603Z" fill="black"/>
<path d="M110.469 253.85H103.949V260.37H110.469V253.85Z" fill="black"/>
<path d="M110.469 247.4H103.949V253.85H110.469V247.4Z" fill="black"/>
<path d="M110.469 240.88H103.949V247.39H110.469V240.88Z" fill="black"/>
<path d="M110.469 234.42H103.949V240.88H110.469V234.42Z" fill="#429331"/>
<path d="M110.469 227.91H103.949V234.42H110.469V227.91Z" fill="#429331"/>
<path d="M110.469 221.45H103.949V227.9H110.469V221.45Z" fill="#429331"/>
<path d="M110.469 214.93H103.949V221.45H110.469V214.93Z" fill="#429331"/>
<path d="M110.469 208.48H103.949V214.93H110.469V208.48Z" fill="#0C4913"/>
<path d="M110.469 201.96H103.949V208.48H110.469V201.96Z" fill="black"/>
<path d="M110.469 195.45H103.949V201.96H110.469V195.45Z" fill="#416072"/>
<path d="M110.469 188.98H103.949V195.44H110.469V188.98Z" fill="#2E4851"/>
<path d="M110.469 182.47H103.949V188.98H110.469V182.47Z" fill="#416072"/>
<path d="M110.469 176.02H103.949V182.47H110.469V176.02Z" fill="black"/>
<path d="M110.469 169.5H103.949V176.02H110.469V169.5Z" fill="#0C4913"/>
<path d="M110.469 163.04H103.949V169.49H110.469V163.04Z" fill="#0D561B"/>
<path d="M110.469 156.52H103.949V163.04H110.469V156.52Z" fill="#0D561B"/>
<path d="M110.469 150.01H103.949V156.52H110.469V150.01Z" fill="#0D561B"/>
<path d="M110.469 143.55H103.949V150H110.469V143.55Z" fill="#0D561B"/>
<path d="M110.469 137.03H103.949V143.55H110.469V137.03Z" fill="#14661E"/>
<path d="M110.469 130.58H103.949V137.03H110.469V130.58Z" fill="black"/>
<path d="M110.469 124.06H103.949V130.58H110.469V124.06Z" fill="#429331"/>
<path d="M110.469 117.61H103.949V124.06H110.469V117.61Z" fill="#429331"/>
<path d="M110.469 111.09H103.949V117.61H110.469V111.09Z" fill="#0C4913"/>
<path d="M110.469 104.64H103.949V111.09H110.469V104.64Z" fill="#0C4913"/>
<path d="M110.469 98.1201H103.949V104.64H110.469V98.1201Z" fill="#429331"/>
<path d="M110.469 91.6001H103.949V98.1201H110.469V91.6001Z" fill="#0C4913"/>
<path d="M110.469 85.1401H103.949V91.5901H110.469V85.1401Z" fill="#0C4913"/>
<path d="M110.469 78.6201H103.949V85.1401H110.469V78.6201Z" fill="#5DA34B"/>
<path d="M110.469 72.1699H103.949V78.6199H110.469V72.1699Z" fill="#073A0F"/>
<path d="M110.469 65.6499H103.949V72.1699H110.469V65.6499Z" fill="#429331"/>
<path d="M110.469 59.2002H103.949V65.6502H110.469V59.2002Z" fill="#429331"/>
<path d="M110.469 52.6802H103.949V59.2002H110.469V52.6802Z" fill="#0C4913"/>
<path d="M110.469 46.1602H103.949V52.6802H110.469V46.1602Z" fill="#0C4913"/>
<path d="M110.469 39.71H103.949V46.16H110.469V39.71Z" fill="#0C4913"/>
<path d="M110.469 33.1899H103.949V39.7099H110.469V33.1899Z" fill="#0C4913"/>
<path d="M110.469 26.7402H103.949V33.1902H110.469V26.7402Z" fill="#0C4913"/>
<path d="M110.469 20.2202H103.949V26.7402H110.469V20.2202Z" fill="#5BAF43"/>
<path d="M110.469 13.7603H103.949V20.2103H110.469V13.7603Z" fill="black"/>
<path d="M103.95 253.85H97.5V260.37H103.95V253.85Z" fill="#429331"/>
<path d="M103.95 247.4H97.5V253.85H103.95V247.4Z" fill="#0C4913"/>
<path d="M103.95 240.88H97.5V247.39H103.95V240.88Z" fill="#429331"/>
<path d="M103.95 234.42H97.5V240.88H103.95V234.42Z" fill="#429331"/>
<path d="M103.95 227.91H97.5V234.42H103.95V227.91Z" fill="#429331"/>
<path d="M103.95 221.45H97.5V227.9H103.95V221.45Z" fill="#429331"/>
<path d="M103.95 214.93H97.5V221.45H103.95V214.93Z" fill="#0C4913"/>
<path d="M103.95 208.48H97.5V214.93H103.95V208.48Z" fill="#0C4913"/>
<path d="M103.95 201.96H97.5V208.48H103.95V201.96Z" fill="black"/>
<path d="M103.95 195.45H97.5V201.96H103.95V195.45Z" fill="#416072"/>
<path d="M103.95 188.98H97.5V195.44H103.95V188.98Z" fill="#2E4851"/>
<path d="M103.95 182.47H97.5V188.98H103.95V182.47Z" fill="#416072"/>
<path d="M103.95 176.02H97.5V182.47H103.95V176.02Z" fill="black"/>
<path d="M103.95 169.5H97.5V176.02H103.95V169.5Z" fill="#0C4913"/>
<path d="M103.95 163.04H97.5V169.49H103.95V163.04Z" fill="#0D561B"/>
<path d="M103.95 156.52H97.5V163.04H103.95V156.52Z" fill="#0D561B"/>
<path d="M103.95 150.01H97.5V156.52H103.95V150.01Z" fill="#0D561B"/>
<path d="M103.95 143.55H97.5V150H103.95V143.55Z" fill="#14661E"/>
<path d="M103.95 137.03H97.5V143.55H103.95V137.03Z" fill="black"/>
<path d="M103.95 130.58H97.5V137.03H103.95V130.58Z" fill="#0C4913"/>
<path d="M103.95 124.06H97.5V130.58H103.95V124.06Z" fill="#0C4913"/>
<path d="M103.95 117.61H97.5V124.06H103.95V117.61Z" fill="#0C4913"/>
<path d="M103.95 111.09H97.5V117.61H103.95V111.09Z" fill="#0C4913"/>
<path d="M103.95 104.64H97.5V111.09H103.95V104.64Z" fill="#0C4913"/>
<path d="M103.95 98.1201H97.5V104.64H103.95V98.1201Z" fill="#429331"/>
<path d="M103.95 91.6001H97.5V98.1201H103.95V91.6001Z" fill="#0C4913"/>
<path d="M103.95 85.1401H97.5V91.5901H103.95V85.1401Z" fill="#0C4913"/>
<path d="M103.95 78.6201H97.5V85.1401H103.95V78.6201Z" fill="#5DA34B"/>
<path d="M103.95 72.1699H97.5V78.6199H103.95V72.1699Z" fill="#429331"/>
<path d="M103.95 65.6499H97.5V72.1699H103.95V65.6499Z" fill="#0C4913"/>
<path d="M103.95 59.2002H97.5V65.6502H103.95V59.2002Z" fill="#429331"/>
<path d="M103.95 52.6802H97.5V59.2002H103.95V52.6802Z" fill="black"/>
<path d="M103.95 46.1602H97.5V52.6802H103.95V46.1602Z" fill="black"/>
<path d="M103.95 39.71H97.5V46.16H103.95V39.71Z" fill="black"/>
<path d="M103.95 33.1899H97.5V39.7099H103.95V33.1899Z" fill="black"/>
<path d="M103.95 26.7402H97.5V33.1902H103.95V26.7402Z" fill="black"/>
<path d="M103.95 20.2202H97.5V26.7402H103.95V20.2202Z" fill="black"/>
<path d="M97.4985 253.85H90.9785V260.37H97.4985V253.85Z" fill="#429331"/>
<path d="M97.4985 247.4H90.9785V253.85H97.4985V247.4Z" fill="#429331"/>
<path d="M97.4985 240.88H90.9785V247.39H97.4985V240.88Z" fill="#0C4913"/>
<path d="M97.4985 234.42H90.9785V240.88H97.4985V234.42Z" fill="#5BAF43"/>
<path d="M97.4985 227.91H90.9785V234.42H97.4985V227.91Z" fill="#429331"/>
<path d="M97.4985 221.45H90.9785V227.9H97.4985V221.45Z" fill="#429331"/>
<path d="M97.4985 214.93H90.9785V221.45H97.4985V214.93Z" fill="#0C4913"/>
<path d="M97.4985 208.48H90.9785V214.93H97.4985V208.48Z" fill="#5BAF43"/>
<path d="M97.4985 201.96H90.9785V208.48H97.4985V201.96Z" fill="black"/>
<path d="M97.4985 195.45H90.9785V201.96H97.4985V195.45Z" fill="#416072"/>
<path d="M97.4985 188.98H90.9785V195.44H97.4985V188.98Z" fill="#2E4851"/>
<path d="M97.4985 182.47H90.9785V188.98H97.4985V182.47Z" fill="black"/>
<path d="M97.4985 176.02H90.9785V182.47H97.4985V176.02Z" fill="#0C4913"/>
<path d="M97.4985 169.5H90.9785V176.02H97.4985V169.5Z" fill="#0D561B"/>
<path d="M97.4985 163.04H90.9785V169.49H97.4985V163.04Z" fill="#0D561B"/>
<path d="M97.4985 156.52H90.9785V163.04H97.4985V156.52Z" fill="#0D561B"/>
<path d="M97.4985 150.01H90.9785V156.52H97.4985V150.01Z" fill="#14661E"/>
<path d="M97.4985 143.55H90.9785V150H97.4985V143.55Z" fill="black"/>
<path d="M97.4985 137.03H90.9785V143.55H97.4985V137.03Z" fill="black"/>
<path d="M97.4985 130.58H90.9785V137.03H97.4985V130.58Z" fill="black"/>
<path d="M97.4985 124.06H90.9785V130.58H97.4985V124.06Z" fill="black"/>
<path d="M97.4985 117.61H90.9785V124.06H97.4985V117.61Z" fill="#0C4913"/>
<path d="M97.4985 111.09H90.9785V117.61H97.4985V111.09Z" fill="black"/>
<path d="M97.4985 104.64H90.9785V111.09H97.4985V104.64Z" fill="#429331"/>
<path d="M97.4985 98.1201H90.9785V104.64H97.4985V98.1201Z" fill="#0C4913"/>
<path d="M97.4985 91.6001H90.9785V98.1201H97.4985V91.6001Z" fill="#0C4913"/>
<path d="M97.4985 85.1401H90.9785V91.5901H97.4985V85.1401Z" fill="#0C4913"/>
<path d="M97.4985 78.6201H90.9785V85.1401H97.4985V78.6201Z" fill="#0C4913"/>
<path d="M97.4985 72.1699H90.9785V78.6199H97.4985V72.1699Z" fill="#0C4913"/>
<path d="M97.4985 65.6499H90.9785V72.1699H97.4985V65.6499Z" fill="#0C4913"/>
<path d="M97.4985 59.2002H90.9785V65.6502H97.4985V59.2002Z" fill="black"/>
<path d="M97.4985 52.6802H90.9785V59.2002H97.4985V52.6802Z" fill="#102126"/>
<path d="M97.4985 46.1602H90.9785V52.6802H97.4985V46.1602Z" fill="#102126"/>
<path d="M97.4985 39.71H90.9785V46.16H97.4985V39.71Z" fill="#416072"/>
<path d="M97.4985 33.1899H90.9785V39.7099H97.4985V33.1899Z" fill="black"/>
<path d="M90.9793 253.85H84.5293V260.37H90.9793V253.85Z" fill="#429331"/>
<path d="M90.9793 247.4H84.5293V253.85H90.9793V247.4Z" fill="#0C4913"/>
<path d="M90.9793 240.88H84.5293V247.39H90.9793V240.88Z" fill="#5BAF43"/>
<path d="M90.9793 234.42H84.5293V240.88H90.9793V234.42Z" fill="black"/>
<path d="M90.9793 227.91H84.5293V234.42H90.9793V227.91Z" fill="black"/>
<path d="M90.9793 221.45H84.5293V227.9H90.9793V221.45Z" fill="black"/>
<path d="M90.9793 214.93H84.5293V221.45H90.9793V214.93Z" fill="black"/>
<path d="M90.9793 208.48H84.5293V214.93H90.9793V208.48Z" fill="black"/>
<path d="M90.9793 201.96H84.5293V208.48H90.9793V201.96Z" fill="black"/>
<path d="M90.9793 195.45H84.5293V201.96H90.9793V195.45Z" fill="#2E4851"/>
<path d="M90.9793 188.98H84.5293V195.44H90.9793V188.98Z" fill="#416072"/>
<path d="M90.9793 182.47H84.5293V188.98H90.9793V182.47Z" fill="black"/>
<path d="M90.9793 176.02H84.5293V182.47H90.9793V176.02Z" fill="black"/>
<path d="M90.9793 169.5H84.5293V176.02H90.9793V169.5Z" fill="#0C4913"/>
<path d="M90.9793 163.04H84.5293V169.49H90.9793V163.04Z" fill="#0D561B"/>
<path d="M90.9793 156.52H84.5293V163.04H90.9793V156.52Z" fill="#0D561B"/>
<path d="M90.9793 150.01H84.5293V156.52H90.9793V150.01Z" fill="black"/>
<path d="M90.9793 143.55H84.5293V150H90.9793V143.55Z" fill="black"/>
<path d="M90.9793 117.61H84.5293V124.06H90.9793V117.61Z" fill="black"/>
<path d="M90.9793 111.09H84.5293V117.61H90.9793V111.09Z" fill="black"/>
<path d="M90.9793 104.64H84.5293V111.09H90.9793V104.64Z" fill="black"/>
<path d="M90.9793 98.1201H84.5293V104.64H90.9793V98.1201Z" fill="#0C4913"/>
<path d="M90.9793 91.6001H84.5293V98.1201H90.9793V91.6001Z" fill="#0C4913"/>
<path d="M90.9793 85.1401H84.5293V91.5901H90.9793V85.1401Z" fill="#0C4913"/>
<path d="M90.9793 78.6201H84.5293V85.1401H90.9793V78.6201Z" fill="#429331"/>
<path d="M90.9793 72.1699H84.5293V78.6199H90.9793V72.1699Z" fill="#429331"/>
<path d="M90.9793 65.6499H84.5293V72.1699H90.9793V65.6499Z" fill="black"/>
<path d="M90.9793 59.2002H84.5293V65.6502H90.9793V59.2002Z" fill="#102126"/>
<path d="M90.9793 52.6802H84.5293V59.2002H90.9793V52.6802Z" fill="#102126"/>
<path d="M90.9793 46.1602H84.5293V52.6802H90.9793V46.1602Z" fill="#2E4851"/>
<path d="M90.9793 39.71H84.5293V46.16H90.9793V39.71Z" fill="#416072"/>
<path d="M90.9793 33.1899H84.5293V39.7099H90.9793V33.1899Z" fill="black"/>
<path d="M84.5298 253.85H78.0098V260.37H84.5298V253.85Z" fill="#429331"/>
<path d="M84.5298 247.4H78.0098V253.85H84.5298V247.4Z" fill="black"/>
<path d="M84.5298 240.88H78.0098V247.39H84.5298V240.88Z" fill="black"/>
<path d="M84.5298 208.48H78.0098V214.93H84.5298V208.48Z" fill="black"/>
<path d="M84.5298 201.96H78.0098V208.48H84.5298V201.96Z" fill="#416072"/>
<path d="M84.5298 195.45H78.0098V201.96H84.5298V195.45Z" fill="#2E4851"/>
<path d="M84.5298 188.98H78.0098V195.44H84.5298V188.98Z" fill="#416072"/>
<path d="M84.5298 182.47H78.0098V188.98H84.5298V182.47Z" fill="black"/>
<path d="M84.5298 169.5H78.0098V176.02H84.5298V169.5Z" fill="black"/>
<path d="M84.5298 163.04H78.0098V169.49H84.5298V163.04Z" fill="black"/>
<path d="M84.5298 156.52H78.0098V163.04H84.5298V156.52Z" fill="black"/>
<path d="M84.5298 124.06H78.0098V130.58H84.5298V124.06Z" fill="black"/>
<path d="M84.5298 117.61H78.0098V124.06H84.5298V117.61Z" fill="#429331"/>
<path d="M84.5298 111.09H78.0098V117.61H84.5298V111.09Z" fill="#429331"/>
<path d="M84.5298 104.64H78.0098V111.09H84.5298V104.64Z" fill="#0C4913"/>
<path d="M84.5298 98.1201H78.0098V104.64H84.5298V98.1201Z" fill="#0C4913"/>
<path d="M84.5298 91.6001H78.0098V98.1201H84.5298V91.6001Z" fill="#0C4913"/>
<path d="M84.5298 85.1401H78.0098V91.5901H84.5298V85.1401Z" fill="#429331"/>
<path d="M84.5298 78.6201H78.0098V85.1401H84.5298V78.6201Z" fill="#429331"/>
<path d="M84.5298 72.1699H78.0098V78.6199H84.5298V72.1699Z" fill="black"/>
<path d="M84.5298 65.6499H78.0098V72.1699H84.5298V65.6499Z" fill="#102126"/>
<path d="M84.5298 59.2002H78.0098V65.6502H84.5298V59.2002Z" fill="#102126"/>
<path d="M84.5298 52.6802H78.0098V59.2002H84.5298V52.6802Z" fill="#2E4851"/>
<path d="M84.5298 46.1602H78.0098V52.6802H84.5298V46.1602Z" fill="#416072"/>
<path d="M84.5298 39.71H78.0098V46.16H84.5298V39.71Z" fill="black"/>
<path d="M78.0102 253.85H71.4902V260.37H78.0102V253.85Z" fill="#5BAF43"/>
<path d="M78.0102 247.4H71.4902V253.85H78.0102V247.4Z" fill="black"/>
<path d="M78.0102 214.93H71.4902V221.45H78.0102V214.93Z" fill="black"/>
<path d="M78.0102 208.48H71.4902V214.93H78.0102V208.48Z" fill="#416072"/>
<path d="M78.0102 201.96H71.4902V208.48H78.0102V201.96Z" fill="#2E4851"/>
<path d="M78.0102 195.45H71.4902V201.96H78.0102V195.45Z" fill="#416072"/>
<path d="M78.0102 188.98H71.4902V195.44H78.0102V188.98Z" fill="#416072"/>
<path d="M78.0102 182.47H71.4902V188.98H78.0102V182.47Z" fill="black"/>
<path d="M78.0102 117.61H71.4902V124.06H78.0102V117.61Z" fill="black"/>
<path d="M78.0102 111.09H71.4902V117.61H78.0102V111.09Z" fill="black"/>
<path d="M78.0102 104.64H71.4902V111.09H78.0102V104.64Z" fill="#429331"/>
<path d="M78.0102 98.1201H71.4902V104.64H78.0102V98.1201Z" fill="#429331"/>
<path d="M78.0102 91.6001H71.4902V98.1201H78.0102V91.6001Z" fill="#429331"/>
<path d="M78.0102 85.1401H71.4902V91.5901H78.0102V85.1401Z" fill="#429331"/>
<path d="M78.0102 78.6201H71.4902V85.1401H78.0102V78.6201Z" fill="black"/>
<path d="M78.0102 72.1699H71.4902V78.6199H78.0102V72.1699Z" fill="#102126"/>
<path d="M78.0102 65.6499H71.4902V72.1699H78.0102V65.6499Z" fill="#102126"/>
<path d="M78.0102 59.2002H71.4902V65.6502H78.0102V59.2002Z" fill="#102126"/>
<path d="M78.0102 52.6802H71.4902V59.2002H78.0102V52.6802Z" fill="#2E4851"/>
<path d="M78.0102 46.1602H71.4902V52.6802H78.0102V46.1602Z" fill="#416072"/>
<path d="M78.0102 39.71H71.4902V46.16H78.0102V39.71Z" fill="black"/>
<path d="M71.4891 253.85H65.0391V260.37H71.4891V253.85Z" fill="black"/>
<path d="M71.4891 214.93H65.0391V221.45H71.4891V214.93Z" fill="black"/>
<path d="M71.4891 208.48H65.0391V214.93H71.4891V208.48Z" fill="#416072"/>
<path d="M71.4891 201.96H65.0391V208.48H71.4891V201.96Z" fill="#2E4851"/>
<path d="M71.4891 195.45H65.0391V201.96H71.4891V195.45Z" fill="#416072"/>
<path d="M71.4891 188.98H65.0391V195.44H71.4891V188.98Z" fill="black"/>
<path d="M71.4891 124.06H65.0391V130.58H71.4891V124.06Z" fill="black"/>
<path d="M71.4891 117.61H65.0391V124.06H71.4891V117.61Z" fill="black"/>
<path d="M71.4891 111.09H65.0391V117.61H71.4891V111.09Z" fill="#0C4913"/>
<path d="M71.4891 104.64H65.0391V111.09H71.4891V104.64Z" fill="#0C4913"/>
<path d="M71.4891 98.1201H65.0391V104.64H71.4891V98.1201Z" fill="#0C4913"/>
<path d="M71.4891 91.6001H65.0391V98.1201H71.4891V91.6001Z" fill="#0C4913"/>
<path d="M71.4891 85.1401H65.0391V91.5901H71.4891V85.1401Z" fill="black"/>
<path d="M71.4891 78.6201H65.0391V85.1401H71.4891V78.6201Z" fill="#102126"/>
<path d="M71.4891 72.1699H65.0391V78.6199H71.4891V72.1699Z" fill="#102126"/>
<path d="M71.4891 65.6499H65.0391V72.1699H71.4891V65.6499Z" fill="#102126"/>
<path d="M71.4891 59.2002H65.0391V65.6502H71.4891V59.2002Z" fill="#2F4B5B"/>
<path d="M71.4891 52.6802H65.0391V59.2002H71.4891V52.6802Z" fill="#2E4851"/>
<path d="M71.4891 46.1602H65.0391V52.6802H71.4891V46.1602Z" fill="#416072"/>
<path d="M71.4891 39.71H65.0391V46.16H71.4891V39.71Z" fill="black"/>
<path d="M65.0395 214.93H58.5195V221.45H65.0395V214.93Z" fill="black"/>
<path d="M65.0395 208.48H58.5195V214.93H65.0395V208.48Z" fill="#416072"/>
<path d="M65.0395 201.96H58.5195V208.48H65.0395V201.96Z" fill="#2E4851"/>
<path d="M65.0395 195.45H58.5195V201.96H65.0395V195.45Z" fill="#416072"/>
<path d="M65.0395 188.98H58.5195V195.44H65.0395V188.98Z" fill="black"/>
<path d="M65.0395 124.06H58.5195V130.58H65.0395V124.06Z" fill="black"/>
<path d="M65.0395 117.61H58.5195V124.06H65.0395V117.61Z" fill="#0C4913"/>
<path d="M65.0395 111.09H58.5195V117.61H65.0395V111.09Z" fill="#0C4913"/>
<path d="M65.0395 104.64H58.5195V111.09H65.0395V104.64Z" fill="#0C4913"/>
<path d="M65.0395 98.1201H58.5195V104.64H65.0395V98.1201Z" fill="#429331"/>
<path d="M65.0395 91.6001H58.5195V98.1201H65.0395V91.6001Z" fill="#0D561B"/>
<path d="M65.0395 85.1401H58.5195V91.5901H65.0395V85.1401Z" fill="#0D561B"/>
<path d="M65.0395 78.6201H58.5195V85.1401H65.0395V78.6201Z" fill="black"/>
<path d="M65.0395 72.1699H58.5195V78.6199H65.0395V72.1699Z" fill="#102126"/>
<path d="M65.0395 65.6499H58.5195V72.1699H65.0395V65.6499Z" fill="#2F4B5B"/>
<path d="M65.0395 59.2002H58.5195V65.6502H65.0395V59.2002Z" fill="#E7BD00"/>
<path d="M65.0395 52.6802H58.5195V59.2002H65.0395V52.6802Z" fill="#2E4851"/>
<path d="M65.0395 46.1602H58.5195V52.6802H65.0395V46.1602Z" fill="black"/>
<path d="M58.5086 214.93H52.0586V221.45H58.5086V214.93Z" fill="black"/>
<path d="M58.5086 208.48H52.0586V214.93H58.5086V208.48Z" fill="#416072"/>
<path d="M58.5086 201.96H52.0586V208.48H58.5086V201.96Z" fill="#2E4851"/>
<path d="M58.5086 195.45H52.0586V201.96H58.5086V195.45Z" fill="#416072"/>
<path d="M58.5086 188.98H52.0586V195.44H58.5086V188.98Z" fill="black"/>
<path d="M58.5086 124.06H52.0586V130.58H58.5086V124.06Z" fill="black"/>
<path d="M58.5086 117.61H52.0586V124.06H58.5086V117.61Z" fill="#0C4913"/>
<path d="M58.5086 111.09H52.0586V117.61H58.5086V111.09Z" fill="#0C4913"/>
<path d="M58.5086 104.64H52.0586V111.09H58.5086V104.64Z" fill="#429331"/>
<path d="M58.5086 98.1201H52.0586V104.64H58.5086V98.1201Z" fill="#0D561B"/>
<path d="M58.5086 91.6001H52.0586V98.1201H58.5086V91.6001Z" fill="#0D561B"/>
<path d="M58.5086 85.1401H52.0586V91.5901H58.5086V85.1401Z" fill="#0D561B"/>
<path d="M58.5086 78.6201H52.0586V85.1401H58.5086V78.6201Z" fill="#0D561B"/>
<path d="M58.5086 72.1699H52.0586V78.6199H58.5086V72.1699Z" fill="black"/>
<path d="M58.5086 65.6499H52.0586V72.1699H58.5086V65.6499Z" fill="#102126"/>
<path d="M58.5086 59.2002H52.0586V65.6502H58.5086V59.2002Z" fill="#E7BD00"/>
<path d="M58.5086 52.6802H52.0586V59.2002H58.5086V52.6802Z" fill="#E7BD00"/>
<path d="M58.5086 46.1602H52.0586V52.6802H58.5086V46.1602Z" fill="black"/>
<path d="M52.0591 214.93H45.5391V221.45H52.0591V214.93Z" fill="black"/>
<path d="M52.0591 208.48H45.5391V214.93H52.0591V208.48Z" fill="#416072"/>
<path d="M52.0591 201.96H45.5391V208.48H52.0591V201.96Z" fill="#2E4851"/>
<path d="M52.0591 195.45H45.5391V201.96H52.0591V195.45Z" fill="#416072"/>
<path d="M52.0591 188.98H45.5391V195.44H52.0591V188.98Z" fill="black"/>
<path d="M52.0591 117.61H45.5391V124.06H52.0591V117.61Z" fill="black"/>
<path d="M52.0591 111.09H45.5391V117.61H52.0591V111.09Z" fill="#0C4913"/>
<path d="M52.0591 104.64H45.5391V111.09H52.0591V104.64Z" fill="#429331"/>
<path d="M52.0591 98.1201H45.5391V104.64H52.0591V98.1201Z" fill="#0D561B"/>
<path d="M52.0591 91.6001H45.5391V98.1201H52.0591V91.6001Z" fill="#0D561B"/>
<path d="M52.0591 85.1401H45.5391V91.5901H52.0591V85.1401Z" fill="#0D561B"/>
<path d="M52.0591 78.6201H45.5391V85.1401H52.0591V78.6201Z" fill="#0D561B"/>
<path d="M52.0591 72.1699H45.5391V78.6199H52.0591V72.1699Z" fill="black"/>
<path d="M52.0591 65.6499H45.5391V72.1699H52.0591V65.6499Z" fill="black"/>
<path d="M52.0591 59.2002H45.5391V65.6502H52.0591V59.2002Z" fill="black"/>
<path d="M52.0591 52.6802H45.5391V59.2002H52.0591V52.6802Z" fill="black"/>
<path d="M45.5398 214.93H39.0898V221.45H45.5398V214.93Z" fill="black"/>
<path d="M45.5398 208.48H39.0898V214.93H45.5398V208.48Z" fill="#416072"/>
<path d="M45.5398 201.96H39.0898V208.48H45.5398V201.96Z" fill="#2E4851"/>
<path d="M45.5398 195.45H39.0898V201.96H45.5398V195.45Z" fill="#416072"/>
<path d="M45.5398 188.98H39.0898V195.44H45.5398V188.98Z" fill="black"/>
<path d="M45.5398 111.09H39.0898V117.61H45.5398V111.09Z" fill="black"/>
<path d="M45.5398 104.64H39.0898V111.09H45.5398V104.64Z" fill="black"/>
<path d="M45.5398 98.1201H39.0898V104.64H45.5398V98.1201Z" fill="black"/>
<path d="M45.5398 91.6001H39.0898V98.1201H45.5398V91.6001Z" fill="black"/>
<path d="M45.5398 85.1401H39.0898V91.5901H45.5398V85.1401Z" fill="#0D561B"/>
<path d="M45.5398 78.6201H39.0898V85.1401H45.5398V78.6201Z" fill="#0D561B"/>
<path d="M45.5398 72.1699H39.0898V78.6199H45.5398V72.1699Z" fill="black"/>
<path d="M45.5398 65.6499H39.0898V72.1699H45.5398V65.6499Z" fill="black"/>
<path d="M45.5398 59.2002H39.0898V65.6502H45.5398V59.2002Z" fill="black"/>
<path d="M45.5398 52.6802H39.0898V59.2002H45.5398V52.6802Z" fill="black"/>
<path d="M39.0903 208.48H32.5703V214.93H39.0903V208.48Z" fill="black"/>
<path d="M39.0903 201.96H32.5703V208.48H39.0903V201.96Z" fill="#416072"/>
<path d="M39.0903 195.45H32.5703V201.96H39.0903V195.45Z" fill="#416072"/>
<path d="M39.0903 188.98H32.5703V195.44H39.0903V188.98Z" fill="black"/>
<path d="M39.0903 91.6001H32.5703V98.1201H39.0903V91.6001Z" fill="black"/>
<path d="M39.0903 85.1401H32.5703V91.5901H39.0903V85.1401Z" fill="black"/>
<path d="M39.0903 78.6201H32.5703V85.1401H39.0903V78.6201Z" fill="black"/>
<path d="M39.0903 72.1699H32.5703V78.6199H39.0903V72.1699Z" fill="black"/>
<path d="M39.0903 65.6499H32.5703V72.1699H39.0903V65.6499Z" fill="#0D561B"/>
<path d="M39.0903 59.2002H32.5703V65.6502H39.0903V59.2002Z" fill="#0D561B"/>
<path d="M39.0903 52.6802H32.5703V59.2002H39.0903V52.6802Z" fill="black"/>
<path d="M32.5688 201.96H26.0488V208.48H32.5688V201.96Z" fill="black"/>
<path d="M32.5688 195.45H26.0488V201.96H32.5688V195.45Z" fill="#416072"/>
<path d="M32.5688 188.98H26.0488V195.44H32.5688V188.98Z" fill="black"/>
<path d="M32.5688 85.1401H26.0488V91.5901H32.5688V85.1401Z" fill="black"/>
<path d="M32.5688 78.6201H26.0488V85.1401H32.5688V78.6201Z" fill="black"/>
<path d="M32.5688 72.1699H26.0488V78.6199H32.5688V72.1699Z" fill="#0D561B"/>
<path d="M32.5688 65.6499H26.0488V72.1699H32.5688V65.6499Z" fill="#0D561B"/>
<path d="M32.5688 59.2002H26.0488V65.6502H32.5688V59.2002Z" fill="#0D561B"/>
<path d="M32.5688 52.6802H26.0488V59.2002H32.5688V52.6802Z" fill="black"/>
<path d="M26.0496 195.45H19.5996V201.96H26.0496V195.45Z" fill="black"/>
<path d="M26.0496 188.98H19.5996V195.44H26.0496V188.98Z" fill="black"/>
<path d="M26.0496 85.1401H19.5996V91.5901H26.0496V85.1401Z" fill="black"/>
<path d="M26.0496 78.6201H19.5996V85.1401H26.0496V78.6201Z" fill="black"/>
<path d="M26.0496 72.1699H19.5996V78.6199H26.0496V72.1699Z" fill="#0D561B"/>
<path d="M26.0496 65.6499H19.5996V72.1699H26.0496V65.6499Z" fill="#0D561B"/>
<path d="M26.0496 59.2002H19.5996V65.6502H26.0496V59.2002Z" fill="black"/>
<path d="M19.6001 85.1401H13.0801V91.5901H19.6001V85.1401Z" fill="black"/>
<path d="M19.6001 78.6201H13.0801V85.1401H19.6001V78.6201Z" fill="#E7BD00"/>
<path d="M19.6001 72.1699H13.0801V78.6199H19.6001V72.1699Z" fill="black"/>
<path d="M19.6001 65.6499H13.0801V72.1699H19.6001V65.6499Z" fill="black"/>
<path d="M13.0789 91.6001H6.62891V98.1201H13.0789V91.6001Z" fill="black"/>
<path d="M13.0789 85.1401H6.62891V91.5901H13.0789V85.1401Z" fill="#E7BD00"/>
<path d="M13.0789 78.6201H6.62891V85.1401H13.0789V78.6201Z" fill="black"/>
<path d="M6.62937 91.6001H0.109375V98.1201H6.62937V91.6001Z" fill="black"/>
<path d="M6.62937 85.1401H0.109375V91.5901H6.62937V85.1401Z" fill="black"/>
<path d="M6.62937 78.6201H0.109375V85.1401H6.62937V78.6201Z" fill="black"/>
</svg>
