<svg width="96" height="96" viewBox="0 0 96 96" fill="none" xmlns="http://www.w3.org/2000/svg">
<path d="M8 8L67.8 67.8" stroke="#FF3864" stroke-width="2"/>
<path d="M72.87 60.87L28 16L8 8L16 28L60.87 72.87" stroke="#FF3864" stroke-width="2"/>
<path d="M35.9999 48L23.1299 60.87" stroke="#FF3864" stroke-width="2"/>
<path d="M60 48L80 28L88 8L68 16L48 36" stroke="#FF3864" stroke-width="2"/>
<path d="M35.1299 72.87L47.9999 60" stroke="#FF3864" stroke-width="2"/>
<path d="M42.0002 54L28.2002 67.8" stroke="#FF3864" stroke-width="2"/>
<path d="M88 8L54 42" stroke="#FF3864" stroke-width="2"/>
<path d="M44 75.71C37.3365 74.7482 31.2427 71.4177 26.8349 66.3286C22.4272 61.2394 20.0007 54.7326 20 48H12C11.9894 56.083 14.7138 63.9318 19.73 70.27L8 82L14 88L25.73 76.27C30.9933 80.4388 37.3258 83.0383 44 83.77V75.71Z" stroke="#FF3864" stroke-width="2"/>
<path d="M88 82L76.27 70.27C81.2862 63.9318 84.0106 56.083 84 48H76C75.9993 54.7326 73.5728 61.2394 69.1651 66.3286C64.7573 71.4177 58.6635 74.7482 52 75.71V83.77C58.6742 83.0383 65.0067 80.4388 70.27 76.27L82 88L88 82Z" stroke="#FF3864" stroke-width="2"/>
</svg>
