<svg width="208" height="258" viewBox="0 0 208 258" fill="none" xmlns="http://www.w3.org/2000/svg">
<path d="M207.459 64.7798H200.359V71.8798H207.459V64.7798Z" fill="black"/>
<path d="M207.459 57.6099H200.359V64.7799H207.459V57.6099Z" fill="black"/>
<path d="M207.459 50.4399H200.359V57.6099H207.459V50.4399Z" fill="black"/>
<path d="M207.459 43.3398H200.359V50.4398H207.459V43.3398Z" fill="black"/>
<path d="M207.459 36.1899H200.359V43.3599H207.459V36.1899Z" fill="black"/>
<path d="M207.459 29.0898H200.359V36.1898H207.459V29.0898Z" fill="black"/>
<path d="M207.459 7.6499H200.359V14.8199H207.459V7.6499Z" fill="black"/>
<path d="M200.359 93.3101H193.189V100.41H200.359V93.3101Z" fill="black"/>
<path d="M200.359 86.1401H193.189V93.3101H200.359V86.1401Z" fill="black"/>
<path d="M200.359 79.04H193.189V86.14H200.359V79.04Z" fill="black"/>
<path d="M200.359 71.8701H193.189V79.0401H200.359V71.8701Z" fill="black"/>
<path d="M200.359 64.7798H193.189V71.8798H200.359V64.7798Z" fill="#3D3D3B"/>
<path d="M200.359 57.6099H193.189V64.7799H200.359V57.6099Z" fill="#3D3D3B"/>
<path d="M200.359 50.4399H193.189V57.6099H200.359V50.4399Z" fill="#3D3D3B"/>
<path d="M200.359 43.3398H193.189V50.4398H200.359V43.3398Z" fill="#3D3D3B"/>
<path d="M200.359 36.1899H193.189V43.3599H200.359V36.1899Z" fill="#3D3D3B"/>
<path d="M200.359 29.0898H193.189V36.1898H200.359V29.0898Z" fill="#3D3D3B"/>
<path d="M200.359 21.9199H193.189V29.0899H200.359V21.9199Z" fill="black"/>
<path d="M200.359 14.8198H193.189V21.9198H200.359V14.8198Z" fill="black"/>
<path d="M200.359 7.6499H193.189V14.8199H200.359V7.6499Z" fill="#3D3D3B"/>
<path d="M200.359 0.560059H193.189V7.66006H200.359V0.560059Z" fill="black"/>
<path d="M193.209 107.56H186.109V114.73H193.209V107.56Z" fill="black"/>
<path d="M193.209 100.39H186.109V107.56H193.209V100.39Z" fill="black"/>
<path d="M193.209 93.3101H186.109V100.41H193.209V93.3101Z" fill="#3D3D3B"/>
<path d="M193.209 86.1401H186.109V93.3101H193.209V86.1401Z" fill="#3D3D3B"/>
<path d="M193.209 79.04H186.109V86.14H193.209V79.04Z" fill="#3D3D3B"/>
<path d="M193.209 71.8701H186.109V79.0401H193.209V71.8701Z" fill="#3D3D3B"/>
<path d="M193.209 64.7798H186.109V71.8798H193.209V64.7798Z" fill="#2B2B2A"/>
<path d="M193.209 57.6099H186.109V64.7799H193.209V57.6099Z" fill="#2B2B2A"/>
<path d="M193.209 50.4399H186.109V57.6099H193.209V50.4399Z" fill="#2B2B2A"/>
<path d="M193.209 43.3398H186.109V50.4398H193.209V43.3398Z" fill="#2B2B2A"/>
<path d="M193.209 36.1899H186.109V43.3599H193.209V36.1899Z" fill="#2B2B2A"/>
<path d="M193.209 29.0898H186.109V36.1898H193.209V29.0898Z" fill="#2B2B2A"/>
<path d="M193.209 21.9199H186.109V29.0899H193.209V21.9199Z" fill="#3D3D3B"/>
<path d="M193.209 14.8198H186.109V21.9198H193.209V14.8198Z" fill="#3D3D3B"/>
<path d="M193.209 7.6499H186.109V14.8199H193.209V7.6499Z" fill="#2B2B2A"/>
<path d="M193.209 0.560059H186.109V7.66006H193.209V0.560059Z" fill="black"/>
<path d="M186.109 121.83H178.939V129H186.109V121.83Z" fill="black"/>
<path d="M186.109 114.73H178.939V121.83H186.109V114.73Z" fill="black"/>
<path d="M186.109 107.56H178.939V114.73H186.109V107.56Z" fill="#3D3D3B"/>
<path d="M186.109 100.39H178.939V107.56H186.109V100.39Z" fill="#2B2B2A"/>
<path d="M186.109 93.3101H178.939V100.41H186.109V93.3101Z" fill="#2B2B2A"/>
<path d="M186.109 86.1401H178.939V93.3101H186.109V86.1401Z" fill="#2B2B2A"/>
<path d="M186.109 79.04H178.939V86.14H186.109V79.04Z" fill="#2B2B2A"/>
<path d="M186.109 71.8701H178.939V79.0401H186.109V71.8701Z" fill="#2B2B2A"/>
<path d="M186.109 21.9199H178.939V29.0899H186.109V21.9199Z" fill="#2B2B2A"/>
<path d="M186.109 14.8198H178.939V21.9198H186.109V14.8198Z" fill="#2B2B2A"/>
<path d="M186.109 7.6499H178.939V14.8199H186.109V7.6499Z" fill="#8A8D8E"/>
<path d="M178.94 136.09H171.77V143.26H178.94V136.09Z" fill="black"/>
<path d="M178.94 129H171.77V136.1H178.94V129Z" fill="black"/>
<path d="M178.94 121.83H171.77V129H178.94V121.83Z" fill="#3D3D3B"/>
<path d="M178.94 114.73H171.77V121.83H178.94V114.73Z" fill="#2B2B2A"/>
<path d="M178.94 107.56H171.77V114.73H178.94V107.56Z" fill="#2B2B2A"/>
<path d="M178.94 14.8198H171.77V21.9198H178.94V14.8198Z" fill="#8A8D8E"/>
<path d="M171.77 143.26H164.67V150.36H171.77V143.26Z" fill="black"/>
<path d="M171.77 136.09H164.67V143.26H171.77V136.09Z" fill="#DD8976"/>
<path d="M171.77 129H164.67V136.1H171.77V129Z" fill="#DD8976"/>
<path d="M171.77 121.83H164.67V129H171.77V121.83Z" fill="#2B2B2A"/>
<path d="M171.77 21.9199H164.67V29.0899H171.77V21.9199Z" fill="#8A8D8E"/>
<path d="M164.67 150.36H157.5V157.53H164.67V150.36Z" fill="black"/>
<path d="M164.67 143.26H157.5V150.36H164.67V143.26Z" fill="#DD8976"/>
<path d="M164.67 136.09H157.5V143.26H164.67V136.09Z" fill="#DD8976"/>
<path d="M164.67 129H157.5V136.1H164.67V129Z" fill="#F7AB94"/>
<path d="M164.67 121.83H157.5V129H164.67V121.83Z" fill="black"/>
<path d="M164.67 114.73H157.5V121.83H164.67V114.73Z" fill="black"/>
<path d="M164.67 107.56H157.5V114.73H164.67V107.56Z" fill="black"/>
<path d="M164.67 29.0898H157.5V36.1898H164.67V29.0898Z" fill="#8A8D8E"/>
<path d="M157.51 243.17H150.41V250.27H157.51V243.17Z" fill="black"/>
<path d="M157.51 236H150.41V243.17H157.51V236Z" fill="black"/>
<path d="M157.51 150.36H150.41V157.53H157.51V150.36Z" fill="black"/>
<path d="M157.51 143.26H150.41V150.36H157.51V143.26Z" fill="#F7AB94"/>
<path d="M157.51 136.09H150.41V143.26H157.51V136.09Z" fill="#F7AB94"/>
<path d="M157.51 129H150.41V136.1H157.51V129Z" fill="#373801"/>
<path d="M157.51 121.83H150.41V129H157.51V121.83Z" fill="#373801"/>
<path d="M157.51 114.73H150.41V121.83H157.51V114.73Z" fill="#373801"/>
<path d="M157.51 107.56H150.41V114.73H157.51V107.56Z" fill="#373801"/>
<path d="M157.51 100.39H150.41V107.56H157.51V100.39Z" fill="black"/>
<path d="M157.51 93.3101H150.41V100.41H157.51V93.3101Z" fill="black"/>
<path d="M157.51 86.1401H150.41V93.3101H157.51V86.1401Z" fill="black"/>
<path d="M157.51 79.04H150.41V86.14H157.51V79.04Z" fill="black"/>
<path d="M157.51 71.8701H150.41V79.0401H157.51V71.8701Z" fill="black"/>
<path d="M157.51 36.1899H150.41V43.3599H157.51V36.1899Z" fill="#8A8D8E"/>
<path d="M150.41 243.17H143.24V250.27H150.41V243.17Z" fill="black"/>
<path d="M150.41 236H143.24V243.17H150.41V236Z" fill="#660801"/>
<path d="M150.41 228.91H143.24V236.01H150.41V228.91Z" fill="black"/>
<path d="M150.41 186.05H143.24V193.22H150.41V186.05Z" fill="black"/>
<path d="M150.41 178.95H143.24V186.05H150.41V178.95Z" fill="black"/>
<path d="M150.41 171.78H143.24V178.95H150.41V171.78Z" fill="black"/>
<path d="M150.41 157.52H143.24V164.62H150.41V157.52Z" fill="black"/>
<path d="M150.41 150.36H143.24V157.53H150.41V150.36Z" fill="#3D3D3B"/>
<path d="M150.41 143.26H143.24V150.36H150.41V143.26Z" fill="black"/>
<path d="M150.41 136.09H143.24V143.26H150.41V136.09Z" fill="#373801"/>
<path d="M150.41 129H143.24V136.1H150.41V129Z" fill="#373801"/>
<path d="M150.41 121.83H143.24V129H150.41V121.83Z" fill="#373801"/>
<path d="M150.41 114.73H143.24V121.83H150.41V114.73Z" fill="#5C6302"/>
<path d="M150.41 107.56H143.24V114.73H150.41V107.56Z" fill="#5C6302"/>
<path d="M150.41 100.39H143.24V107.56H150.41V100.39Z" fill="#5C6302"/>
<path d="M150.41 93.3101H143.24V100.41H150.41V93.3101Z" fill="#5C6302"/>
<path d="M150.41 86.1401H143.24V93.3101H150.41V86.1401Z" fill="black"/>
<path d="M150.41 79.04H143.24V86.14H150.41V79.04Z" fill="#2B2B2A"/>
<path d="M150.41 71.8701H143.24V79.0401H150.41V71.8701Z" fill="#2B2B2A"/>
<path d="M150.41 64.7798H143.24V71.8798H150.41V64.7798Z" fill="black"/>
<path d="M150.41 57.6099H143.24V64.7799H150.41V57.6099Z" fill="black"/>
<path d="M150.41 43.3398H143.24V50.4398H150.41V43.3398Z" fill="#8A8D8E"/>
<path d="M143.241 243.17H136.141V250.27H143.241V243.17Z" fill="black"/>
<path d="M143.241 236H136.141V243.17H143.241V236Z" fill="#660801"/>
<path d="M143.241 228.91H136.141V236.01H143.241V228.91Z" fill="#3F1401"/>
<path d="M143.241 221.74H136.141V228.91H143.241V221.74Z" fill="black"/>
<path d="M143.241 214.57H136.141V221.74H143.241V214.57Z" fill="black"/>
<path d="M143.241 207.48H136.141V214.58H143.241V207.48Z" fill="black"/>
<path d="M143.241 200.31H136.141V207.48H143.241V200.31Z" fill="black"/>
<path d="M143.241 193.22H136.141V200.32H143.241V193.22Z" fill="black"/>
<path d="M143.241 186.05H136.141V193.22H143.241V186.05Z" fill="#2B2B2A"/>
<path d="M143.241 178.95H136.141V186.05H143.241V178.95Z" fill="#2B2B2A"/>
<path d="M143.241 171.78H136.141V178.95H143.241V171.78Z" fill="#2B2B2A"/>
<path d="M143.241 164.61H136.141V171.78H143.241V164.61Z" fill="black"/>
<path d="M143.241 157.52H136.141V164.62H143.241V157.52Z" fill="black"/>
<path d="M143.241 150.36H136.141V157.53H143.241V150.36Z" fill="#3D3D3B"/>
<path d="M143.241 143.26H136.141V150.36H143.241V143.26Z" fill="#2B2B2A"/>
<path d="M143.241 136.09H136.141V143.26H143.241V136.09Z" fill="black"/>
<path d="M143.241 129H136.141V136.1H143.241V129Z" fill="#373801"/>
<path d="M143.241 121.83H136.141V129H143.241V121.83Z" fill="#5C6302"/>
<path d="M143.241 114.73H136.141V121.83H143.241V114.73Z" fill="#5C6302"/>
<path d="M143.241 107.56H136.141V114.73H143.241V107.56Z" fill="#5C6302"/>
<path d="M143.241 100.39H136.141V107.56H143.241V100.39Z" fill="#5C6302"/>
<path d="M143.241 93.3101H136.141V100.41H143.241V93.3101Z" fill="black"/>
<path d="M143.241 86.1401H136.141V93.3101H143.241V86.1401Z" fill="#3D3D3B"/>
<path d="M143.241 79.04H136.141V86.14H143.241V79.04Z" fill="#2B2B2A"/>
<path d="M143.241 71.8701H136.141V79.0401H143.241V71.8701Z" fill="#2B2B2A"/>
<path d="M143.241 64.7798H136.141V71.8798H143.241V64.7798Z" fill="#3D3D3B"/>
<path d="M143.241 57.6099H136.141V64.7799H143.241V57.6099Z" fill="black"/>
<path d="M143.241 50.4399H136.141V57.6099H143.241V50.4399Z" fill="#8A8D8E"/>
<path d="M143.241 43.3398H136.141V50.4398H143.241V43.3398Z" fill="black"/>
<path d="M143.241 36.1899H136.141V43.3599H143.241V36.1899Z" fill="black"/>
<path d="M143.241 14.8198H136.141V21.9198H143.241V14.8198Z" fill="black"/>
<path d="M143.241 7.6499H136.141V14.8199H143.241V7.6499Z" fill="black"/>
<path d="M143.241 0.560059H136.141V7.66006H143.241V0.560059Z" fill="black"/>
<path d="M136.15 243.17H128.98V250.27H136.15V243.17Z" fill="black"/>
<path d="M136.15 236H128.98V243.17H136.15V236Z" fill="#5B1E00"/>
<path d="M136.15 228.91H128.98V236.01H136.15V228.91Z" fill="#3F1401"/>
<path d="M136.15 221.74H128.98V228.91H136.15V221.74Z" fill="#3F1401"/>
<path d="M136.15 214.57H128.98V221.74H136.15V214.57Z" fill="#3F1401"/>
<path d="M136.15 207.48H128.98V214.58H136.15V207.48Z" fill="#3F1401"/>
<path d="M136.15 200.31H128.98V207.48H136.15V200.31Z" fill="#3F1401"/>
<path d="M136.15 193.22H128.98V200.32H136.15V193.22Z" fill="black"/>
<path d="M136.15 186.05H128.98V193.22H136.15V186.05Z" fill="#B5A518"/>
<path d="M136.15 178.95H128.98V186.05H136.15V178.95Z" fill="#2B2B2A"/>
<path d="M136.15 171.78H128.98V178.95H136.15V171.78Z" fill="#2B2B2A"/>
<path d="M136.15 164.61H128.98V171.78H136.15V164.61Z" fill="#2B2B2A"/>
<path d="M136.15 157.52H128.98V164.62H136.15V157.52Z" fill="black"/>
<path d="M136.15 150.36H128.98V157.53H136.15V150.36Z" fill="black"/>
<path d="M136.15 143.26H128.98V150.36H136.15V143.26Z" fill="black"/>
<path d="M136.15 136.09H128.98V143.26H136.15V136.09Z" fill="black"/>
<path d="M136.15 129H128.98V136.1H136.15V129Z" fill="black"/>
<path d="M136.15 121.83H128.98V129H136.15V121.83Z" fill="black"/>
<path d="M136.15 114.73H128.98V121.83H136.15V114.73Z" fill="black"/>
<path d="M136.15 107.56H128.98V114.73H136.15V107.56Z" fill="black"/>
<path d="M136.15 100.39H128.98V107.56H136.15V100.39Z" fill="black"/>
<path d="M136.15 93.3101H128.98V100.41H136.15V93.3101Z" fill="#373801"/>
<path d="M136.15 86.1401H128.98V93.3101H136.15V86.1401Z" fill="black"/>
<path d="M136.15 79.04H128.98V86.14H136.15V79.04Z" fill="black"/>
<path d="M136.15 71.8701H128.98V79.0401H136.15V71.8701Z" fill="#2B2B2A"/>
<path d="M136.15 64.7798H128.98V71.8798H136.15V64.7798Z" fill="#2B2B2A"/>
<path d="M136.15 57.6099H128.98V64.7799H136.15V57.6099Z" fill="#3D3D3B"/>
<path d="M136.15 50.4399H128.98V57.6099H136.15V50.4399Z" fill="black"/>
<path d="M136.15 43.3398H128.98V50.4398H136.15V43.3398Z" fill="black"/>
<path d="M136.15 36.1899H128.98V43.3599H136.15V36.1899Z" fill="#2B2B2A"/>
<path d="M136.15 29.0898H128.98V36.1898H136.15V29.0898Z" fill="black"/>
<path d="M136.15 21.9199H128.98V29.0899H136.15V21.9199Z" fill="black"/>
<path d="M136.15 14.8198H128.98V21.9198H136.15V14.8198Z" fill="#2B2B2A"/>
<path d="M136.15 7.6499H128.98V14.8199H136.15V7.6499Z" fill="#2B2B2A"/>
<path d="M136.15 0.560059H128.98V7.66006H136.15V0.560059Z" fill="black"/>
<path d="M128.981 243.17H121.811V250.27H128.981V243.17Z" fill="black"/>
<path d="M128.981 236H121.811V243.17H128.981V236Z" fill="#5B1E00"/>
<path d="M128.981 228.91H121.811V236.01H128.981V228.91Z" fill="#660801"/>
<path d="M128.981 221.74H121.811V228.91H128.981V221.74Z" fill="#660801"/>
<path d="M128.981 214.57H121.811V221.74H128.981V214.57Z" fill="#660801"/>
<path d="M128.981 207.48H121.811V214.58H128.981V207.48Z" fill="#3F1401"/>
<path d="M128.981 200.31H121.811V207.48H128.981V200.31Z" fill="#5B1E00"/>
<path d="M128.981 193.22H121.811V200.32H128.981V193.22Z" fill="black"/>
<path d="M128.981 186.05H121.811V193.22H128.981V186.05Z" fill="#B5A518"/>
<path d="M128.981 178.95H121.811V186.05H128.981V178.95Z" fill="#B5A518"/>
<path d="M128.981 171.78H121.811V178.95H128.981V171.78Z" fill="#2B2B2A"/>
<path d="M128.981 164.61H121.811V171.78H128.981V164.61Z" fill="#3D3D3B"/>
<path d="M128.981 157.52H121.811V164.62H128.981V157.52Z" fill="#2B2B2A"/>
<path d="M128.981 150.36H121.811V157.53H128.981V150.36Z" fill="black"/>
<path d="M128.981 143.26H121.811V150.36H128.981V143.26Z" fill="#373801"/>
<path d="M128.981 136.09H121.811V143.26H128.981V136.09Z" fill="#373801"/>
<path d="M128.981 129H121.811V136.1H128.981V129Z" fill="#5C6302"/>
<path d="M128.981 121.83H121.811V129H128.981V121.83Z" fill="#5C6302"/>
<path d="M128.981 114.73H121.811V121.83H128.981V114.73Z" fill="#5C6302"/>
<path d="M128.981 107.56H121.811V114.73H128.981V107.56Z" fill="#373801"/>
<path d="M128.981 100.39H121.811V107.56H128.981V100.39Z" fill="#373801"/>
<path d="M128.981 93.3101H121.811V100.41H128.981V93.3101Z" fill="#373801"/>
<path d="M128.981 86.1401H121.811V93.3101H128.981V86.1401Z" fill="#2B2B2A"/>
<path d="M128.981 79.04H121.811V86.14H128.981V79.04Z" fill="#3D3D3B"/>
<path d="M128.981 71.8701H121.811V79.0401H128.981V71.8701Z" fill="black"/>
<path d="M128.981 64.7798H121.811V71.8798H128.981V64.7798Z" fill="#2B2B2A"/>
<path d="M128.981 57.6099H121.811V64.7799H128.981V57.6099Z" fill="black"/>
<path d="M128.981 50.4399H121.811V57.6099H128.981V50.4399Z" fill="#2B2B2A"/>
<path d="M128.981 43.3398H121.811V50.4398H128.981V43.3398Z" fill="#2B2B2A"/>
<path d="M128.981 36.1899H121.811V43.3599H128.981V36.1899Z" fill="#2B2B2A"/>
<path d="M128.981 29.0898H121.811V36.1898H128.981V29.0898Z" fill="#2B2B2A"/>
<path d="M128.981 21.9199H121.811V29.0899H128.981V21.9199Z" fill="#2B2B2A"/>
<path d="M128.981 14.8198H121.811V21.9198H128.981V14.8198Z" fill="#2B2B2A"/>
<path d="M128.981 7.6499H121.811V14.8199H128.981V7.6499Z" fill="#2B2B2A"/>
<path d="M128.981 0.560059H121.811V7.66006H128.981V0.560059Z" fill="black"/>
<path d="M121.821 243.17H114.721V250.27H121.821V243.17Z" fill="black"/>
<path d="M121.821 236H114.721V243.17H121.821V236Z" fill="#5B1E00"/>
<path d="M121.821 228.91H114.721V236.01H121.821V228.91Z" fill="#5B1E00"/>
<path d="M121.821 221.74H114.721V228.91H121.821V221.74Z" fill="#660801"/>
<path d="M121.821 214.57H114.721V221.74H121.821V214.57Z" fill="#5B1E00"/>
<path d="M121.821 207.48H114.721V214.58H121.821V207.48Z" fill="#5B1E00"/>
<path d="M121.821 200.31H114.721V207.48H121.821V200.31Z" fill="#5B1E00"/>
<path d="M121.821 193.22H114.721V200.32H121.821V193.22Z" fill="black"/>
<path d="M121.821 186.05H114.721V193.22H121.821V186.05Z" fill="#B5A518"/>
<path d="M121.821 178.95H114.721V186.05H121.821V178.95Z" fill="#B5A518"/>
<path d="M121.821 171.78H114.721V178.95H121.821V171.78Z" fill="#B5A518"/>
<path d="M121.821 164.61H114.721V171.78H121.821V164.61Z" fill="#3D3D3B"/>
<path d="M121.821 157.52H114.721V164.62H121.821V157.52Z" fill="#3D3D3B"/>
<path d="M121.821 150.36H114.721V157.53H121.821V150.36Z" fill="#373801"/>
<path d="M121.821 143.26H114.721V150.36H121.821V143.26Z" fill="#373801"/>
<path d="M121.821 136.09H114.721V143.26H121.821V136.09Z" fill="#373801"/>
<path d="M121.821 129H114.721V136.1H121.821V129Z" fill="#5C6302"/>
<path d="M121.821 121.83H114.721V129H121.821V121.83Z" fill="#5C6302"/>
<path d="M121.821 114.73H114.721V121.83H121.821V114.73Z" fill="#5C6302"/>
<path d="M121.821 107.56H114.721V114.73H121.821V107.56Z" fill="#5C6302"/>
<path d="M121.821 100.39H114.721V107.56H121.821V100.39Z" fill="#373801"/>
<path d="M121.821 93.3101H114.721V100.41H121.821V93.3101Z" fill="#373801"/>
<path d="M121.821 86.1401H114.721V93.3101H121.821V86.1401Z" fill="#2B2B2A"/>
<path d="M121.821 79.04H114.721V86.14H121.821V79.04Z" fill="#2B2B2A"/>
<path d="M121.821 71.8701H114.721V79.0401H121.821V71.8701Z" fill="#2B2B2A"/>
<path d="M121.821 64.7798H114.721V71.8798H121.821V64.7798Z" fill="#2B2B2A"/>
<path d="M121.821 57.6099H114.721V64.7799H121.821V57.6099Z" fill="black"/>
<path d="M121.821 50.4399H114.721V57.6099H121.821V50.4399Z" fill="#2B2B2A"/>
<path d="M121.821 43.3398H114.721V50.4398H121.821V43.3398Z" fill="#2B2B2A"/>
<path d="M121.821 36.1899H114.721V43.3599H121.821V36.1899Z" fill="#2B2B2A"/>
<path d="M121.821 29.0898H114.721V36.1898H121.821V29.0898Z" fill="#2B2B2A"/>
<path d="M121.821 21.9199H114.721V29.0899H121.821V21.9199Z" fill="#2B2B2A"/>
<path d="M121.821 14.8198H114.721V21.9198H121.821V14.8198Z" fill="#2B2B2A"/>
<path d="M121.821 7.6499H114.721V14.8199H121.821V7.6499Z" fill="#2B2B2A"/>
<path d="M121.821 0.560059H114.721V7.66006H121.821V0.560059Z" fill="black"/>
<path d="M114.721 236H107.551V243.17H114.721V236Z" fill="black"/>
<path d="M114.721 228.91H107.551V236.01H114.721V228.91Z" fill="black"/>
<path d="M114.721 221.74H107.551V228.91H114.721V221.74Z" fill="black"/>
<path d="M114.721 214.57H107.551V221.74H114.721V214.57Z" fill="black"/>
<path d="M114.721 207.48H107.551V214.58H114.721V207.48Z" fill="black"/>
<path d="M114.721 200.31H107.551V207.48H114.721V200.31Z" fill="black"/>
<path d="M114.721 193.22H107.551V200.32H114.721V193.22Z" fill="black"/>
<path d="M114.721 186.05H107.551V193.22H114.721V186.05Z" fill="black"/>
<path d="M114.721 178.95H107.551V186.05H114.721V178.95Z" fill="black"/>
<path d="M114.721 171.78H107.551V178.95H114.721V171.78Z" fill="#B5A518"/>
<path d="M114.721 164.61H107.551V171.78H114.721V164.61Z" fill="#B5A518"/>
<path d="M114.721 157.52H107.551V164.62H114.721V157.52Z" fill="#B5A518"/>
<path d="M114.721 150.36H107.551V157.53H114.721V150.36Z" fill="#373801"/>
<path d="M114.721 143.26H107.551V150.36H114.721V143.26Z" fill="#B5A518"/>
<path d="M114.721 136.09H107.551V143.26H114.721V136.09Z" fill="#5C6302"/>
<path d="M114.721 129H107.551V136.1H114.721V129Z" fill="#5C6302"/>
<path d="M114.721 121.83H107.551V129H114.721V121.83Z" fill="#5C6302"/>
<path d="M114.721 114.73H107.551V121.83H114.721V114.73Z" fill="#5C6302"/>
<path d="M114.721 107.56H107.551V114.73H114.721V107.56Z" fill="#5C6302"/>
<path d="M114.721 100.39H107.551V107.56H114.721V100.39Z" fill="#B5A518"/>
<path d="M114.721 93.3101H107.551V100.41H114.721V93.3101Z" fill="#B5A518"/>
<path d="M114.721 86.1401H107.551V93.3101H114.721V86.1401Z" fill="#3D3D3B"/>
<path d="M114.721 79.04H107.551V86.14H114.721V79.04Z" fill="#2B2B2A"/>
<path d="M114.721 71.8701H107.551V79.0401H114.721V71.8701Z" fill="#3D3D3B"/>
<path d="M114.721 64.7798H107.551V71.8798H114.721V64.7798Z" fill="black"/>
<path d="M114.721 57.6099H107.551V64.7799H114.721V57.6099Z" fill="#F7AB94"/>
<path d="M114.721 50.4399H107.551V57.6099H114.721V50.4399Z" fill="#F7AB94"/>
<path d="M114.721 43.3398H107.551V50.4398H114.721V43.3398Z" fill="#F7AB94"/>
<path d="M114.721 36.1899H107.551V43.3599H114.721V36.1899Z" fill="#F7AB94"/>
<path d="M114.721 29.0898H107.551V36.1898H114.721V29.0898Z" fill="#2B2B2A"/>
<path d="M114.721 21.9199H107.551V29.0899H114.721V21.9199Z" fill="#2B2B2A"/>
<path d="M114.721 14.8198H107.551V21.9198H114.721V14.8198Z" fill="#2B2B2A"/>
<path d="M114.721 7.6499H107.551V14.8199H114.721V7.6499Z" fill="#3D3D3B"/>
<path d="M114.721 0.560059H107.551V7.66006H114.721V0.560059Z" fill="black"/>
<path d="M107.549 186.05H100.449V193.22H107.549V186.05Z" fill="black"/>
<path d="M107.549 178.95H100.449V186.05H107.549V178.95Z" fill="black"/>
<path d="M107.549 171.78H100.449V178.95H107.549V171.78Z" fill="black"/>
<path d="M107.549 164.61H100.449V171.78H107.549V164.61Z" fill="black"/>
<path d="M107.549 157.52H100.449V164.62H107.549V157.52Z" fill="black"/>
<path d="M107.549 150.36H100.449V157.53H107.549V150.36Z" fill="#373801"/>
<path d="M107.549 143.26H100.449V150.36H107.549V143.26Z" fill="#B5A518"/>
<path d="M107.549 136.09H100.449V143.26H107.549V136.09Z" fill="#B5A518"/>
<path d="M107.549 129H100.449V136.1H107.549V129Z" fill="#5C6302"/>
<path d="M107.549 121.83H100.449V129H107.549V121.83Z" fill="#5C6302"/>
<path d="M107.549 114.73H100.449V121.83H107.549V114.73Z" fill="#B5A518"/>
<path d="M107.549 107.56H100.449V114.73H107.549V107.56Z" fill="#B5A518"/>
<path d="M107.549 100.39H100.449V107.56H107.549V100.39Z" fill="#5C6302"/>
<path d="M107.549 93.3101H100.449V100.41H107.549V93.3101Z" fill="#2B2B2A"/>
<path d="M107.549 86.1401H100.449V93.3101H107.549V86.1401Z" fill="#3D3D3B"/>
<path d="M107.549 79.04H100.449V86.14H107.549V79.04Z" fill="#3D3D3B"/>
<path d="M107.549 71.8701H100.449V79.0401H107.549V71.8701Z" fill="#3D3D3B"/>
<path d="M107.549 64.7798H100.449V71.8798H107.549V64.7798Z" fill="black"/>
<path d="M107.549 57.6099H100.449V64.7799H107.549V57.6099Z" fill="#F7AB94"/>
<path d="M107.549 50.4399H100.449V57.6099H107.549V50.4399Z" fill="#F7AB94"/>
<path d="M107.549 43.3398H100.449V50.4398H107.549V43.3398Z" fill="#F7AB94"/>
<path d="M107.549 36.1899H100.449V43.3599H107.549V36.1899Z" fill="#F7AB94"/>
<path d="M107.549 29.0898H100.449V36.1898H107.549V29.0898Z" fill="#F7AB94"/>
<path d="M107.549 21.9199H100.449V29.0899H107.549V21.9199Z" fill="#2B2B2A"/>
<path d="M107.549 14.8198H100.449V21.9198H107.549V14.8198Z" fill="#3D3D3B"/>
<path d="M107.549 7.6499H100.449V14.8199H107.549V7.6499Z" fill="#3D3D3B"/>
<path d="M107.549 0.560059H100.449V7.66006H107.549V0.560059Z" fill="black"/>
<path d="M100.449 207.48H93.2793V214.58H100.449V207.48Z" fill="black"/>
<path d="M100.449 200.31H93.2793V207.48H100.449V200.31Z" fill="black"/>
<path d="M100.449 193.22H93.2793V200.32H100.449V193.22Z" fill="black"/>
<path d="M100.449 186.05H93.2793V193.22H100.449V186.05Z" fill="#B5A518"/>
<path d="M100.449 178.95H93.2793V186.05H100.449V178.95Z" fill="#B5A518"/>
<path d="M100.449 171.78H93.2793V178.95H100.449V171.78Z" fill="#2B2B2A"/>
<path d="M100.449 164.61H93.2793V171.78H100.449V164.61Z" fill="#2B2B2A"/>
<path d="M100.449 157.52H93.2793V164.62H100.449V157.52Z" fill="#2B2B2A"/>
<path d="M100.449 150.36H93.2793V157.53H100.449V150.36Z" fill="black"/>
<path d="M100.449 143.26H93.2793V150.36H100.449V143.26Z" fill="#373801"/>
<path d="M100.449 136.09H93.2793V143.26H100.449V136.09Z" fill="#B5A518"/>
<path d="M100.449 129H93.2793V136.1H100.449V129Z" fill="#B5A518"/>
<path d="M100.449 121.83H93.2793V129H100.449V121.83Z" fill="#5C6302"/>
<path d="M100.449 114.73H93.2793V121.83H100.449V114.73Z" fill="#B5A518"/>
<path d="M100.449 107.56H93.2793V114.73H100.449V107.56Z" fill="#B5A518"/>
<path d="M100.449 100.39H93.2793V107.56H100.449V100.39Z" fill="#5C6302"/>
<path d="M100.449 93.3101H93.2793V100.41H100.449V93.3101Z" fill="#2B2B2A"/>
<path d="M100.449 86.1401H93.2793V93.3101H100.449V86.1401Z" fill="#3D3D3B"/>
<path d="M100.449 79.04H93.2793V86.14H100.449V79.04Z" fill="#3D3D3B"/>
<path d="M100.449 71.8701H93.2793V79.0401H100.449V71.8701Z" fill="#3D3D3B"/>
<path d="M100.449 64.7798H93.2793V71.8798H100.449V64.7798Z" fill="black"/>
<path d="M100.449 57.6099H93.2793V64.7799H100.449V57.6099Z" fill="#F7AB94"/>
<path d="M100.449 50.4399H93.2793V57.6099H100.449V50.4399Z" fill="#F7AB94"/>
<path d="M100.449 43.3398H93.2793V50.4398H100.449V43.3398Z" fill="#F7AB94"/>
<path d="M100.449 36.1899H93.2793V43.3599H100.449V36.1899Z" fill="#F7AB94"/>
<path d="M100.449 29.0898H93.2793V36.1898H100.449V29.0898Z" fill="#F7AB94"/>
<path d="M100.449 21.9199H93.2793V29.0899H100.449V21.9199Z" fill="#3D3D3B"/>
<path d="M100.449 14.8198H93.2793V21.9198H100.449V14.8198Z" fill="#3D3D3B"/>
<path d="M100.449 7.6499H93.2793V14.8199H100.449V7.6499Z" fill="#3D3D3B"/>
<path d="M100.449 0.560059H93.2793V7.66006H100.449V0.560059Z" fill="black"/>
<path d="M93.2894 228.91H86.1895V236.01H93.2894V228.91Z" fill="black"/>
<path d="M93.2894 221.74H86.1895V228.91H93.2894V221.74Z" fill="black"/>
<path d="M93.2894 214.57H86.1895V221.74H93.2894V214.57Z" fill="black"/>
<path d="M93.2894 207.48H86.1895V214.58H93.2894V207.48Z" fill="#3F1401"/>
<path d="M93.2894 200.31H86.1895V207.48H93.2894V200.31Z" fill="#3F1401"/>
<path d="M93.2894 193.22H86.1895V200.32H93.2894V193.22Z" fill="black"/>
<path d="M93.2894 186.05H86.1895V193.22H93.2894V186.05Z" fill="#B5A518"/>
<path d="M93.2894 178.95H86.1895V186.05H93.2894V178.95Z" fill="#2B2B2A"/>
<path d="M93.2894 171.78H86.1895V178.95H93.2894V171.78Z" fill="#2B2B2A"/>
<path d="M93.2894 164.61H86.1895V171.78H93.2894V164.61Z" fill="#3D3D3B"/>
<path d="M93.2894 157.52H86.1895V164.62H93.2894V157.52Z" fill="#2B2B2A"/>
<path d="M93.2894 150.36H86.1895V157.53H93.2894V150.36Z" fill="black"/>
<path d="M93.2894 143.26H86.1895V150.36H93.2894V143.26Z" fill="#373801"/>
<path d="M93.2894 136.09H86.1895V143.26H93.2894V136.09Z" fill="#373801"/>
<path d="M93.2894 129H86.1895V136.1H93.2894V129Z" fill="#5C6302"/>
<path d="M93.2894 121.83H86.1895V129H93.2894V121.83Z" fill="#5C6302"/>
<path d="M93.2894 114.73H86.1895V121.83H93.2894V114.73Z" fill="#B5A518"/>
<path d="M93.2894 107.56H86.1895V114.73H93.2894V107.56Z" fill="#B5A518"/>
<path d="M93.2894 100.39H86.1895V107.56H93.2894V100.39Z" fill="#373801"/>
<path d="M93.2894 93.3101H86.1895V100.41H93.2894V93.3101Z" fill="#2B2B2A"/>
<path d="M93.2894 86.1401H86.1895V93.3101H93.2894V86.1401Z" fill="#3D3D3B"/>
<path d="M93.2894 79.04H86.1895V86.14H93.2894V79.04Z" fill="#3D3D3B"/>
<path d="M93.2894 71.8701H86.1895V79.0401H93.2894V71.8701Z" fill="#3D3D3B"/>
<path d="M93.2894 64.7798H86.1895V71.8798H93.2894V64.7798Z" fill="black"/>
<path d="M93.2894 57.6099H86.1895V64.7799H93.2894V57.6099Z" fill="#F7AB94"/>
<path d="M93.2894 50.4399H86.1895V57.6099H93.2894V50.4399Z" fill="#F7AB94"/>
<path d="M93.2894 43.3398H86.1895V50.4398H93.2894V43.3398Z" fill="#F7AB94"/>
<path d="M93.2894 36.1899H86.1895V43.3599H93.2894V36.1899Z" fill="#F7AB94"/>
<path d="M93.2894 29.0898H86.1895V36.1898H93.2894V29.0898Z" fill="#3D3D3B"/>
<path d="M93.2894 21.9199H86.1895V29.0899H93.2894V21.9199Z" fill="#3D3D3B"/>
<path d="M93.2894 14.8198H86.1895V21.9198H93.2894V14.8198Z" fill="#3D3D3B"/>
<path d="M93.2894 7.6499H86.1895V14.8199H93.2894V7.6499Z" fill="#3D3D3B"/>
<path d="M93.2894 0.560059H86.1895V7.66006H93.2894V0.560059Z" fill="black"/>
<path d="M86.1895 250.27H79.0195V257.44H86.1895V250.27Z" fill="black"/>
<path d="M86.1895 243.17H79.0195V250.27H86.1895V243.17Z" fill="black"/>
<path d="M86.1895 236H79.0195V243.17H86.1895V236Z" fill="black"/>
<path d="M86.1895 228.91H79.0195V236.01H86.1895V228.91Z" fill="#3F1401"/>
<path d="M86.1895 221.74H79.0195V228.91H86.1895V221.74Z" fill="#3F1401"/>
<path d="M86.1895 214.57H79.0195V221.74H86.1895V214.57Z" fill="#3F1401"/>
<path d="M86.1895 207.48H79.0195V214.58H86.1895V207.48Z" fill="#3F1401"/>
<path d="M86.1895 200.31H79.0195V207.48H86.1895V200.31Z" fill="#3F1401"/>
<path d="M86.1895 193.22H79.0195V200.32H86.1895V193.22Z" fill="#3F1401"/>
<path d="M86.1895 186.05H79.0195V193.22H86.1895V186.05Z" fill="black"/>
<path d="M86.1895 178.95H79.0195V186.05H86.1895V178.95Z" fill="#2B2B2A"/>
<path d="M86.1895 171.78H79.0195V178.95H86.1895V171.78Z" fill="#3D3D3B"/>
<path d="M86.1895 164.61H79.0195V171.78H86.1895V164.61Z" fill="#3D3D3B"/>
<path d="M86.1895 157.52H79.0195V164.62H86.1895V157.52Z" fill="#3D3D3B"/>
<path d="M86.1895 150.36H79.0195V157.53H86.1895V150.36Z" fill="#3D3D3B"/>
<path d="M86.1895 143.26H79.0195V150.36H86.1895V143.26Z" fill="black"/>
<path d="M86.1895 136.09H79.0195V143.26H86.1895V136.09Z" fill="#373801"/>
<path d="M86.1895 129H79.0195V136.1H86.1895V129Z" fill="#5C6302"/>
<path d="M86.1895 121.83H79.0195V129H86.1895V121.83Z" fill="#5C6302"/>
<path d="M86.1895 114.73H79.0195V121.83H86.1895V114.73Z" fill="#5C6302"/>
<path d="M86.1895 107.56H79.0195V114.73H86.1895V107.56Z" fill="#373801"/>
<path d="M86.1895 100.39H79.0195V107.56H86.1895V100.39Z" fill="#B5A518"/>
<path d="M86.1895 93.3101H79.0195V100.41H86.1895V93.3101Z" fill="#B5A518"/>
<path d="M86.1895 86.1401H79.0195V93.3101H86.1895V86.1401Z" fill="#3D3D3B"/>
<path d="M86.1895 79.04H79.0195V86.14H86.1895V79.04Z" fill="#3D3D3B"/>
<path d="M86.1895 71.8701H79.0195V79.0401H86.1895V71.8701Z" fill="#3D3D3B"/>
<path d="M86.1895 64.7798H79.0195V71.8798H86.1895V64.7798Z" fill="#2B2B2A"/>
<path d="M86.1895 57.6099H79.0195V64.7799H86.1895V57.6099Z" fill="black"/>
<path d="M86.1895 50.4399H79.0195V57.6099H86.1895V50.4399Z" fill="#F7AB94"/>
<path d="M86.1895 43.3398H79.0195V50.4398H86.1895V43.3398Z" fill="#F7AB94"/>
<path d="M86.1895 36.1899H79.0195V43.3599H86.1895V36.1899Z" fill="#F7AB94"/>
<path d="M86.1895 29.0898H79.0195V36.1898H86.1895V29.0898Z" fill="#3D3D3B"/>
<path d="M86.1895 21.9199H79.0195V29.0899H86.1895V21.9199Z" fill="#3D3D3B"/>
<path d="M86.1895 14.8198H79.0195V21.9198H86.1895V14.8198Z" fill="#3D3D3B"/>
<path d="M86.1895 7.6499H79.0195V14.8199H86.1895V7.6499Z" fill="black"/>
<path d="M79.0297 250.27H71.9297V257.44H79.0297V250.27Z" fill="black"/>
<path d="M79.0297 243.17H71.9297V250.27H79.0297V243.17Z" fill="#3F1401"/>
<path d="M79.0297 236H71.9297V243.17H79.0297V236Z" fill="#3F1401"/>
<path d="M79.0297 228.91H71.9297V236.01H79.0297V228.91Z" fill="#5B1E00"/>
<path d="M79.0297 221.74H71.9297V228.91H79.0297V221.74Z" fill="#660801"/>
<path d="M79.0297 214.57H71.9297V221.74H79.0297V214.57Z" fill="#660801"/>
<path d="M79.0297 207.48H71.9297V214.58H79.0297V207.48Z" fill="#5B1E00"/>
<path d="M79.0297 200.31H71.9297V207.48H79.0297V200.31Z" fill="#3F1401"/>
<path d="M79.0297 193.22H71.9297V200.32H79.0297V193.22Z" fill="#5B1E00"/>
<path d="M79.0297 186.05H71.9297V193.22H79.0297V186.05Z" fill="black"/>
<path d="M79.0297 178.95H71.9297V186.05H79.0297V178.95Z" fill="#3D3D3B"/>
<path d="M79.0297 171.78H71.9297V178.95H79.0297V171.78Z" fill="#3D3D3B"/>
<path d="M79.0297 164.61H71.9297V171.78H79.0297V164.61Z" fill="#3D3D3B"/>
<path d="M79.0297 157.52H71.9297V164.62H79.0297V157.52Z" fill="#2B2B2A"/>
<path d="M79.0297 150.36H71.9297V157.53H79.0297V150.36Z" fill="#2B2B2A"/>
<path d="M79.0297 143.26H71.9297V150.36H79.0297V143.26Z" fill="black"/>
<path d="M79.0297 136.09H71.9297V143.26H79.0297V136.09Z" fill="#373801"/>
<path d="M79.0297 129H71.9297V136.1H79.0297V129Z" fill="#5C6302"/>
<path d="M79.0297 121.83H71.9297V129H79.0297V121.83Z" fill="#5C6302"/>
<path d="M79.0297 114.73H71.9297V121.83H79.0297V114.73Z" fill="#373801"/>
<path d="M79.0297 107.56H71.9297V114.73H79.0297V107.56Z" fill="#373801"/>
<path d="M79.0297 100.39H71.9297V107.56H79.0297V100.39Z" fill="#373801"/>
<path d="M79.0297 93.3101H71.9297V100.41H79.0297V93.3101Z" fill="#373801"/>
<path d="M79.0297 86.1401H71.9297V93.3101H79.0297V86.1401Z" fill="#373801"/>
<path d="M79.0297 79.04H71.9297V86.14H79.0297V79.04Z" fill="#3D3D3B"/>
<path d="M79.0297 71.8701H71.9297V79.0401H79.0297V71.8701Z" fill="#2B2B2A"/>
<path d="M79.0297 64.7798H71.9297V71.8798H79.0297V64.7798Z" fill="#2B2B2A"/>
<path d="M79.0297 57.6099H71.9297V64.7799H79.0297V57.6099Z" fill="black"/>
<path d="M79.0297 50.4399H71.9297V57.6099H79.0297V50.4399Z" fill="#F7AB94"/>
<path d="M79.0297 43.3398H71.9297V50.4398H79.0297V43.3398Z" fill="#F7AB94"/>
<path d="M79.0297 36.1899H71.9297V43.3599H79.0297V36.1899Z" fill="#2B2B2A"/>
<path d="M79.0297 29.0898H71.9297V36.1898H79.0297V29.0898Z" fill="#3D3D3B"/>
<path d="M79.0297 21.9199H71.9297V29.0899H79.0297V21.9199Z" fill="#3D3D3B"/>
<path d="M79.0297 14.8198H71.9297V21.9198H79.0297V14.8198Z" fill="#3D3D3B"/>
<path d="M79.0297 7.6499H71.9297V14.8199H79.0297V7.6499Z" fill="black"/>
<path d="M71.9298 250.27H64.7598V257.44H71.9298V250.27Z" fill="black"/>
<path d="M71.9298 243.17H64.7598V250.27H71.9298V243.17Z" fill="#660801"/>
<path d="M71.9298 236H64.7598V243.17H71.9298V236Z" fill="#3F1401"/>
<path d="M71.9298 228.91H64.7598V236.01H71.9298V228.91Z" fill="#5B1E00"/>
<path d="M71.9298 221.74H64.7598V228.91H71.9298V221.74Z" fill="#660801"/>
<path d="M71.9298 214.57H64.7598V221.74H71.9298V214.57Z" fill="#5B1E00"/>
<path d="M71.9298 207.48H64.7598V214.58H71.9298V207.48Z" fill="#5B1E00"/>
<path d="M71.9298 200.31H64.7598V207.48H71.9298V200.31Z" fill="#3F1401"/>
<path d="M71.9298 193.22H64.7598V200.32H71.9298V193.22Z" fill="#5B1E00"/>
<path d="M71.9298 186.05H64.7598V193.22H71.9298V186.05Z" fill="black"/>
<path d="M71.9298 178.95H64.7598V186.05H71.9298V178.95Z" fill="#B5A518"/>
<path d="M71.9298 171.78H64.7598V178.95H71.9298V171.78Z" fill="#B5A518"/>
<path d="M71.9298 164.61H64.7598V171.78H71.9298V164.61Z" fill="black"/>
<path d="M71.9298 157.52H64.7598V164.62H71.9298V157.52Z" fill="black"/>
<path d="M71.9298 150.36H64.7598V157.53H71.9298V150.36Z" fill="black"/>
<path d="M71.9298 143.26H64.7598V150.36H71.9298V143.26Z" fill="#3F1401"/>
<path d="M71.9298 136.09H64.7598V143.26H71.9298V136.09Z" fill="black"/>
<path d="M71.9298 129H64.7598V136.1H71.9298V129Z" fill="black"/>
<path d="M71.9298 121.83H64.7598V129H71.9298V121.83Z" fill="black"/>
<path d="M71.9298 114.73H64.7598V121.83H71.9298V114.73Z" fill="black"/>
<path d="M71.9298 107.56H64.7598V114.73H71.9298V107.56Z" fill="black"/>
<path d="M71.9298 100.39H64.7598V107.56H71.9298V100.39Z" fill="#373801"/>
<path d="M71.9298 93.3101H64.7598V100.41H71.9298V93.3101Z" fill="black"/>
<path d="M71.9298 86.1401H64.7598V93.3101H71.9298V86.1401Z" fill="black"/>
<path d="M71.9298 79.04H64.7598V86.14H71.9298V79.04Z" fill="black"/>
<path d="M71.9298 71.8701H64.7598V79.0401H71.9298V71.8701Z" fill="#2B2B2A"/>
<path d="M71.9298 64.7798H64.7598V71.8798H71.9298V64.7798Z" fill="#2B2B2A"/>
<path d="M71.9298 57.6099H64.7598V64.7799H71.9298V57.6099Z" fill="#2B2B2A"/>
<path d="M71.9298 50.4399H64.7598V57.6099H71.9298V50.4399Z" fill="black"/>
<path d="M71.9298 43.3398H64.7598V50.4398H71.9298V43.3398Z" fill="black"/>
<path d="M71.9298 36.1899H64.7598V43.3599H71.9298V36.1899Z" fill="#2B2B2A"/>
<path d="M71.9298 29.0898H64.7598V36.1898H71.9298V29.0898Z" fill="#3D3D3B"/>
<path d="M71.9298 21.9199H64.7598V29.0899H71.9298V21.9199Z" fill="black"/>
<path d="M71.9298 14.8198H64.7598V21.9198H71.9298V14.8198Z" fill="black"/>
<path d="M64.7598 250.27H57.5898V257.44H64.7598V250.27Z" fill="black"/>
<path d="M64.7598 243.17H57.5898V250.27H64.7598V243.17Z" fill="#660801"/>
<path d="M64.7598 236H57.5898V243.17H64.7598V236Z" fill="#660801"/>
<path d="M64.7598 228.91H57.5898V236.01H64.7598V228.91Z" fill="#5B1E00"/>
<path d="M64.7598 221.74H57.5898V228.91H64.7598V221.74Z" fill="black"/>
<path d="M64.7598 214.57H57.5898V221.74H64.7598V214.57Z" fill="black"/>
<path d="M64.7598 207.48H57.5898V214.58H64.7598V207.48Z" fill="black"/>
<path d="M64.7598 200.31H57.5898V207.48H64.7598V200.31Z" fill="black"/>
<path d="M64.7598 193.22H57.5898V200.32H64.7598V193.22Z" fill="black"/>
<path d="M64.7598 178.95H57.5898V186.05H64.7598V178.95Z" fill="black"/>
<path d="M64.7598 171.78H57.5898V178.95H64.7598V171.78Z" fill="black"/>
<path d="M64.7598 164.61H57.5898V171.78H64.7598V164.61Z" fill="#3F1401"/>
<path d="M64.7598 157.52H57.5898V164.62H64.7598V157.52Z" fill="#3F1401"/>
<path d="M64.7598 150.36H57.5898V157.53H64.7598V150.36Z" fill="#3F1401"/>
<path d="M64.7598 143.26H57.5898V150.36H64.7598V143.26Z" fill="black"/>
<path d="M64.7598 136.09H57.5898V143.26H64.7598V136.09Z" fill="black"/>
<path d="M64.7598 129H57.5898V136.1H64.7598V129Z" fill="#B5A518"/>
<path d="M64.7598 121.83H57.5898V129H64.7598V121.83Z" fill="#B5A518"/>
<path d="M64.7598 114.73H57.5898V121.83H64.7598V114.73Z" fill="#B5A518"/>
<path d="M64.7598 107.56H57.5898V114.73H64.7598V107.56Z" fill="black"/>
<path d="M64.7598 100.39H57.5898V107.56H64.7598V100.39Z" fill="black"/>
<path d="M64.7598 93.3101H57.5898V100.41H64.7598V93.3101Z" fill="black"/>
<path d="M64.7598 86.1401H57.5898V93.3101H64.7598V86.1401Z" fill="#2B2B2A"/>
<path d="M64.7598 79.04H57.5898V86.14H64.7598V79.04Z" fill="#2B2B2A"/>
<path d="M64.7598 71.8701H57.5898V79.0401H64.7598V71.8701Z" fill="#3D3D3B"/>
<path d="M64.7598 64.7798H57.5898V71.8798H64.7598V64.7798Z" fill="#2B2B2A"/>
<path d="M64.7598 57.6099H57.5898V64.7799H64.7598V57.6099Z" fill="black"/>
<path d="M64.7598 50.4399H57.5898V57.6099H64.7598V50.4399Z" fill="black"/>
<path d="M64.7598 36.1899H57.5898V43.3599H64.7598V36.1899Z" fill="black"/>
<path d="M64.7598 29.0898H57.5898V36.1898H64.7598V29.0898Z" fill="black"/>
<path d="M57.6 250.27H50.5V257.44H57.6V250.27Z" fill="black"/>
<path d="M57.6 243.17H50.5V250.27H57.6V243.17Z" fill="#660801"/>
<path d="M57.6 236H50.5V243.17H57.6V236Z" fill="#660801"/>
<path d="M57.6 228.91H50.5V236.01H57.6V228.91Z" fill="black"/>
<path d="M57.6 178.95H50.5V186.05H57.6V178.95Z" fill="black"/>
<path d="M57.6 171.78H50.5V178.95H57.6V171.78Z" fill="#3D3D3B"/>
<path d="M57.6 164.61H50.5V171.78H57.6V164.61Z" fill="#3D3D3B"/>
<path d="M57.6 157.52H50.5V164.62H57.6V157.52Z" fill="#3F1401"/>
<path d="M57.6 150.36H50.5V157.53H57.6V150.36Z" fill="black"/>
<path d="M57.6 143.26H50.5V150.36H57.6V143.26Z" fill="#DD8976"/>
<path d="M57.6 136.09H50.5V143.26H57.6V136.09Z" fill="#373801"/>
<path d="M57.6 129H50.5V136.1H57.6V129Z" fill="#5C6302"/>
<path d="M57.6 121.83H50.5V129H57.6V121.83Z" fill="#5C6302"/>
<path d="M57.6 114.73H50.5V121.83H57.6V114.73Z" fill="#373801"/>
<path d="M57.6 107.56H50.5V114.73H57.6V107.56Z" fill="#373801"/>
<path d="M57.6 100.39H50.5V107.56H57.6V100.39Z" fill="#373801"/>
<path d="M57.6 93.3101H50.5V100.41H57.6V93.3101Z" fill="black"/>
<path d="M57.6 86.1401H50.5V93.3101H57.6V86.1401Z" fill="#2B2B2A"/>
<path d="M57.6 79.04H50.5V86.14H57.6V79.04Z" fill="#3D3D3B"/>
<path d="M57.6 71.8701H50.5V79.0401H57.6V71.8701Z" fill="#3D3D3B"/>
<path d="M57.6 64.7798H50.5V71.8798H57.6V64.7798Z" fill="#3D3D3B"/>
<path d="M57.6 57.6099H50.5V64.7799H57.6V57.6099Z" fill="black"/>
<path d="M50.5001 250.27H43.3301V257.44H50.5001V250.27Z" fill="black"/>
<path d="M50.5001 243.17H43.3301V250.27H50.5001V243.17Z" fill="black"/>
<path d="M50.5001 236H43.3301V243.17H50.5001V236Z" fill="black"/>
<path d="M50.5001 171.78H43.3301V178.95H50.5001V171.78Z" fill="black"/>
<path d="M50.5001 164.61H43.3301V171.78H50.5001V164.61Z" fill="#3D3D3B"/>
<path d="M50.5001 157.52H43.3301V164.62H50.5001V157.52Z" fill="black"/>
<path d="M50.5001 150.36H43.3301V157.53H50.5001V150.36Z" fill="#DD8976"/>
<path d="M50.5001 143.26H43.3301V150.36H50.5001V143.26Z" fill="#DD8976"/>
<path d="M50.5001 136.09H43.3301V143.26H50.5001V136.09Z" fill="#5C6302"/>
<path d="M50.5001 129H43.3301V136.1H50.5001V129Z" fill="#5C6302"/>
<path d="M50.5001 121.83H43.3301V129H50.5001V121.83Z" fill="#373801"/>
<path d="M50.5001 114.73H43.3301V121.83H50.5001V114.73Z" fill="#373801"/>
<path d="M50.5001 107.56H43.3301V114.73H50.5001V107.56Z" fill="#5C6302"/>
<path d="M50.5001 100.39H43.3301V107.56H50.5001V100.39Z" fill="#5C6302"/>
<path d="M50.5001 93.3101H43.3301V100.41H50.5001V93.3101Z" fill="black"/>
<path d="M50.5001 86.1401H43.3301V93.3101H50.5001V86.1401Z" fill="#3D3D3B"/>
<path d="M50.5001 79.04H43.3301V86.14H50.5001V79.04Z" fill="#3D3D3B"/>
<path d="M50.5001 71.8701H43.3301V79.0401H50.5001V71.8701Z" fill="#3D3D3B"/>
<path d="M50.5001 64.7798H43.3301V71.8798H50.5001V64.7798Z" fill="#2B2B2A"/>
<path d="M50.5001 57.6099H43.3301V64.7799H50.5001V57.6099Z" fill="black"/>
<path d="M43.3305 171.78H36.2305V178.95H43.3305V171.78Z" fill="black"/>
<path d="M43.3305 164.61H36.2305V171.78H43.3305V164.61Z" fill="#5C6302"/>
<path d="M43.3305 157.52H36.2305V164.62H43.3305V157.52Z" fill="black"/>
<path d="M43.3305 150.36H36.2305V157.53H43.3305V150.36Z" fill="#DD8976"/>
<path d="M43.3305 143.26H36.2305V150.36H43.3305V143.26Z" fill="#F7AB94"/>
<path d="M43.3305 136.09H36.2305V143.26H43.3305V136.09Z" fill="#F7AB94"/>
<path d="M43.3305 129H36.2305V136.1H43.3305V129Z" fill="#373801"/>
<path d="M43.3305 121.83H36.2305V129H43.3305V121.83Z" fill="#373801"/>
<path d="M43.3305 114.73H36.2305V121.83H43.3305V114.73Z" fill="#5C6302"/>
<path d="M43.3305 107.56H36.2305V114.73H43.3305V107.56Z" fill="#5C6302"/>
<path d="M43.3305 100.39H36.2305V107.56H43.3305V100.39Z" fill="#5C6302"/>
<path d="M43.3305 93.3101H36.2305V100.41H43.3305V93.3101Z" fill="#5C6302"/>
<path d="M43.3305 86.1401H36.2305V93.3101H43.3305V86.1401Z" fill="black"/>
<path d="M43.3305 79.04H36.2305V86.14H43.3305V79.04Z" fill="#2B2B2A"/>
<path d="M43.3305 71.8701H36.2305V79.0401H43.3305V71.8701Z" fill="#2B2B2A"/>
<path d="M43.3305 64.7798H36.2305V71.8798H43.3305V64.7798Z" fill="black"/>
<path d="M36.2305 178.95H29.0605V186.05H36.2305V178.95Z" fill="black"/>
<path d="M36.2305 171.78H29.0605V178.95H36.2305V171.78Z" fill="#5C6302"/>
<path d="M36.2305 164.61H29.0605V171.78H36.2305V164.61Z" fill="#5C6302"/>
<path d="M36.2305 157.52H29.0605V164.62H36.2305V157.52Z" fill="#8A8D8E"/>
<path d="M36.2305 150.36H29.0605V157.53H36.2305V150.36Z" fill="black"/>
<path d="M36.2305 143.26H29.0605V150.36H36.2305V143.26Z" fill="#F7AB94"/>
<path d="M36.2305 136.09H29.0605V143.26H36.2305V136.09Z" fill="black"/>
<path d="M36.2305 129H29.0605V136.1H36.2305V129Z" fill="black"/>
<path d="M36.2305 121.83H29.0605V129H36.2305V121.83Z" fill="black"/>
<path d="M36.2305 114.73H29.0605V121.83H36.2305V114.73Z" fill="black"/>
<path d="M36.2305 107.56H29.0605V114.73H36.2305V107.56Z" fill="black"/>
<path d="M36.2305 100.39H29.0605V107.56H36.2305V100.39Z" fill="black"/>
<path d="M36.2305 93.3101H29.0605V100.41H36.2305V93.3101Z" fill="black"/>
<path d="M36.2305 79.04H29.0605V86.14H36.2305V79.04Z" fill="black"/>
<path d="M36.2305 71.8701H29.0605V79.0401H36.2305V71.8701Z" fill="black"/>
<path d="M29.0707 171.78H21.9707V178.95H29.0707V171.78Z" fill="black"/>
<path d="M29.0707 164.61H21.9707V171.78H29.0707V164.61Z" fill="black"/>
<path d="M29.0707 157.52H21.9707V164.62H29.0707V157.52Z" fill="#8A8D8E"/>
<path d="M29.0707 150.36H21.9707V157.53H29.0707V150.36Z" fill="#8A8D8E"/>
<path d="M29.0707 143.26H21.9707V150.36H29.0707V143.26Z" fill="black"/>
<path d="M29.0707 136.09H21.9707V143.26H29.0707V136.09Z" fill="#8A8D8E"/>
<path d="M21.9806 157.52H14.8105V164.62H21.9806V157.52Z" fill="black"/>
<path d="M21.9806 150.36H14.8105V157.53H21.9806V150.36Z" fill="#8A8D8E"/>
<path d="M21.9806 143.26H14.8105V150.36H21.9806V143.26Z" fill="black"/>
<path d="M21.9806 136.09H14.8105V143.26H21.9806V136.09Z" fill="#8A8D8E"/>
<path d="M21.9806 129H14.8105V136.1H21.9806V129Z" fill="#8A8D8E"/>
<path d="M14.8106 157.52H7.64062V164.62H14.8106V157.52Z" fill="black"/>
<path d="M14.8106 150.36H7.64062V157.53H14.8106V150.36Z" fill="#8A8D8E"/>
<path d="M14.8106 143.26H7.64062V150.36H14.8106V143.26Z" fill="#8A8D8E"/>
<path d="M14.8106 136.09H7.64062V143.26H14.8106V136.09Z" fill="black"/>
<path d="M14.8106 129H7.64062V136.1H14.8106V129Z" fill="#8A8D8E"/>
<path d="M7.63906 150.36H0.539062V157.53H7.63906V150.36Z" fill="black"/>
<path d="M7.63906 143.26H0.539062V150.36H7.63906V143.26Z" fill="#8A8D8E"/>
<path d="M127.59 119.79H123.93V123.45H127.59V119.79Z" fill="#373801"/>
<path d="M127.59 116.2H123.93V119.78H127.59V116.2Z" fill="#373801"/>
<path d="M127.59 112.62H123.93V116.2H127.59V112.62Z" fill="#373801"/>
<path d="M123.93 116.2H120.35V119.78H123.93V116.2Z" fill="#373801"/>
<path d="M123.93 112.62H120.35V116.2H123.93V112.62Z" fill="#373801"/>
<path d="M123.93 108.96H120.35V112.62H123.93V108.96Z" fill="#373801"/>
<path d="M123.93 105.38H120.35V108.96H123.93V105.38Z" fill="#373801"/>
<path d="M120.34 112.62H116.76V116.2H120.34V112.62Z" fill="#373801"/>
<path d="M120.34 108.96H116.76V112.62H120.34V108.96Z" fill="#373801"/>
<path d="M120.34 105.38H116.76V108.96H120.34V105.38Z" fill="#373801"/>
<path d="M116.769 108.96H113.109V112.62H116.769V108.96Z" fill="#373801"/>
<path d="M116.769 105.38H113.109V108.96H116.769V105.38Z" fill="#373801"/>
<path d="M116.769 101.71H113.109V105.37H116.769V101.71Z" fill="#373801"/>
<path d="M116.769 98.1401H113.109V101.72H116.769V98.1401Z" fill="#373801"/>
<path d="M116.769 94.5498H113.109V98.1298H116.769V94.5498Z" fill="#373801"/>
<path d="M116.769 90.8799H113.109V94.5399H116.769V90.8799Z" fill="#111110"/>
<path d="M113.1 105.38H109.52V108.96H113.1V105.38Z" fill="#373801"/>
<path d="M113.1 101.71H109.52V105.37H113.1V101.71Z" fill="#373801"/>
<path d="M113.1 98.1401H109.52V101.72H113.1V98.1401Z" fill="#373801"/>
<path d="M113.1 94.5498H109.52V98.1298H113.1V94.5498Z" fill="#373801"/>
<path d="M113.1 90.8799H109.52V94.5399H113.1V90.8799Z" fill="#111110"/>
<path d="M109.529 119.79H105.869V123.45H109.529V119.79Z" fill="#5C6302"/>
<path d="M109.529 90.8799H105.869V94.5399H109.529V90.8799Z" fill="#111110"/>
<path d="M105.859 43.9302H102.279V47.5902H105.859V43.9302Z" fill="#282728"/>
<path d="M105.859 36.7598H102.279V40.3398H105.859V36.7598Z" fill="#F7AB94"/>
<path d="M105.859 33.1099H102.279V36.7699H105.859V33.1099Z" fill="#F7AB94"/>
<path d="M102.279 112.62H98.6992V116.2H102.279V112.62Z" fill="#128986"/>
<path d="M102.279 54.8301H98.6992V58.4101H102.279V54.8301Z" fill="#DD0590"/>
<path d="M102.279 43.9302H98.6992V47.5902H102.279V43.9302Z" fill="#282728"/>
<path d="M102.279 36.7598H98.6992V40.3398H102.279V36.7598Z" fill="#F7AB94"/>
<path d="M98.6991 116.2H95.0391V119.78H98.6991V116.2Z" fill="#128986"/>
<path d="M98.6991 112.62H95.0391V116.2H98.6991V112.62Z" fill="#B5A518"/>
<path d="M98.6991 108.96H95.0391V112.62H98.6991V108.96Z" fill="#128986"/>
<path d="M98.6991 54.8301H95.0391V58.4101H98.6991V54.8301Z" fill="#DD0590"/>
<path d="M95.0409 112.62H91.4609V116.2H95.0409V112.62Z" fill="#128986"/>
<path d="M95.0409 54.8301H91.4609V58.4101H95.0409V54.8301Z" fill="#DD0590"/>
<path d="M91.4491 54.8301H87.8691V58.4101H91.4491V54.8301Z" fill="#DD0590"/>
<path d="M87.8807 119.79H84.2207V123.45H87.8807V119.79Z" fill="#5C6302"/>
<path d="M87.8807 90.8799H84.2207V94.5399H87.8807V90.8799Z" fill="#111110"/>
<path d="M87.8807 43.9302H84.2207V47.5902H87.8807V43.9302Z" fill="#282728"/>
<path d="M84.2109 105.38H80.6309V108.96H84.2109V105.38Z" fill="#373801"/>
<path d="M84.2109 101.71H80.6309V105.37H84.2109V101.71Z" fill="#373801"/>
<path d="M84.2109 98.1401H80.6309V101.72H84.2109V98.1401Z" fill="#373801"/>
<path d="M84.2109 94.5498H80.6309V98.1298H84.2109V94.5498Z" fill="#373801"/>
<path d="M84.2109 90.8799H80.6309V94.5399H84.2109V90.8799Z" fill="#111110"/>
<path d="M84.2109 43.9302H80.6309V47.5902H84.2109V43.9302Z" fill="#282728"/>
<path d="M84.2109 36.7598H80.6309V40.3398H84.2109V36.7598Z" fill="#F7AB94"/>
<path d="M80.6405 105.38H76.9805V108.96H80.6405V105.38Z" fill="#373801"/>
<path d="M80.6405 101.71H76.9805V105.37H80.6405V101.71Z" fill="#373801"/>
<path d="M80.6405 98.1401H76.9805V101.72H80.6405V98.1401Z" fill="#373801"/>
<path d="M80.6405 94.5498H76.9805V98.1298H80.6405V94.5498Z" fill="#373801"/>
<path d="M80.6405 90.8799H76.9805V94.5399H80.6405V90.8799Z" fill="#111110"/>
<path d="M80.6405 87.3101H76.9805V90.8901H80.6405V87.3101Z" fill="#111110"/>
<path d="M80.6405 83.73H76.9805V87.31H80.6405V83.73Z" fill="#111110"/>
<path d="M76.9706 83.73H73.3906V87.31H76.9706V83.73Z" fill="#111110"/>
<path d="M73.3905 83.73H69.8105V87.31H73.3905V83.73Z" fill="#111110"/>
<path d="M66.1503 47.5898H62.5703V51.1698H66.1503V47.5898Z" fill="#705E03"/>
<path d="M66.1503 43.9302H62.5703V47.5902H66.1503V43.9302Z" fill="black"/>
<path d="M66.1503 40.3501H62.5703V43.9301H66.1503V40.3501Z" fill="black"/>
<path d="M62.5604 47.5898H58.9004V51.1698H62.5604V47.5898Z" fill="#705E03"/>
<path d="M62.5604 43.9302H58.9004V47.5902H62.5604V43.9302Z" fill="#705E03"/>
<path d="M62.5604 40.3501H58.9004V43.9301H62.5604V40.3501Z" fill="black"/>
<path d="M58.9101 54.8301H55.3301V58.4101H58.9101V54.8301Z" fill="#705E03"/>
<path d="M58.9101 51.1699H55.3301V54.8299H58.9101V51.1699Z" fill="#705E03"/>
<path d="M58.9101 47.5898H55.3301V51.1698H58.9101V47.5898Z" fill="#705E03"/>
<path d="M58.9101 43.9302H55.3301V47.5902H58.9101V43.9302Z" fill="#705E03"/>
<path d="M58.9101 40.3501H55.3301V43.9301H58.9101V40.3501Z" fill="#705E03"/>
<path d="M58.9101 36.7598H55.3301V40.3398H58.9101V36.7598Z" fill="black"/>
<path d="M55.33 54.8301H51.75V58.4101H55.33V54.8301Z" fill="#705E03"/>
<path d="M55.33 51.1699H51.75V54.8299H55.33V51.1699Z" fill="#705E03"/>
<path d="M55.33 47.5898H51.75V51.1698H55.33V47.5898Z" fill="#705E03"/>
<path d="M55.33 43.9302H51.75V47.5902H55.33V43.9302Z" fill="#705E03"/>
<path d="M55.33 40.3501H51.75V43.9301H55.33V40.3501Z" fill="#998304"/>
<path d="M55.33 36.7598H51.75V40.3398H55.33V36.7598Z" fill="#998304"/>
<path d="M55.33 33.1099H51.75V36.7699H55.33V33.1099Z" fill="black"/>
<path d="M51.7401 54.8301H48.0801V58.4101H51.7401V54.8301Z" fill="#705E03"/>
<path d="M51.7401 51.1699H48.0801V54.8299H51.7401V51.1699Z" fill="#705E03"/>
<path d="M51.7401 47.5898H48.0801V51.1698H51.7401V47.5898Z" fill="#998304"/>
<path d="M51.7401 43.9302H48.0801V47.5902H51.7401V43.9302Z" fill="#998304"/>
<path d="M51.7401 40.3501H48.0801V43.9301H51.7401V40.3501Z" fill="#998304"/>
<path d="M51.7401 36.7598H48.0801V40.3398H51.7401V36.7598Z" fill="#BFA908"/>
<path d="M51.7401 33.1099H48.0801V36.7699H51.7401V33.1099Z" fill="#BFA908"/>
<path d="M51.7401 29.52H48.0801V33.1H51.7401V29.52Z" fill="black"/>
<path d="M51.7401 25.8701H48.0801V29.5301H51.7401V25.8701Z" fill="black"/>
<path d="M48.0702 54.8301H44.4902V58.4101H48.0702V54.8301Z" fill="#705E03"/>
<path d="M48.0702 51.1699H44.4902V54.8299H48.0702V51.1699Z" fill="#998304"/>
<path d="M48.0702 47.5898H44.4902V51.1698H48.0702V47.5898Z" fill="#998304"/>
<path d="M48.0702 43.9302H44.4902V47.5902H48.0702V43.9302Z" fill="#BFA908"/>
<path d="M48.0702 40.3501H44.4902V43.9301H48.0702V40.3501Z" fill="#BFA908"/>
<path d="M48.0702 36.7598H44.4902V40.3398H48.0702V36.7598Z" fill="#BFA908"/>
<path d="M48.0702 33.1099H44.4902V36.7699H48.0702V33.1099Z" fill="black"/>
<path d="M48.0702 29.52H44.4902V33.1H48.0702V29.52Z" fill="black"/>
<path d="M44.4999 62H40.9199V65.66H44.4999V62Z" fill="#705E03"/>
<path d="M44.4999 58.4102H40.9199V61.9902H44.4999V58.4102Z" fill="#705E03"/>
<path d="M44.4999 54.8301H40.9199V58.4101H44.4999V54.8301Z" fill="#998304"/>
<path d="M44.4999 51.1699H40.9199V54.8299H44.4999V51.1699Z" fill="#998304"/>
<path d="M44.4999 47.5898H40.9199V51.1698H44.4999V47.5898Z" fill="#BFA908"/>
<path d="M44.4999 43.9302H40.9199V47.5902H44.4999V43.9302Z" fill="#BFA908"/>
<path d="M44.4999 40.3501H40.9199V43.9301H44.4999V40.3501Z" fill="#BFA908"/>
<path d="M44.4999 36.7598H40.9199V40.3398H44.4999V36.7598Z" fill="black"/>
<path d="M44.4999 33.1099H40.9199V36.7699H44.4999V33.1099Z" fill="black"/>
<path d="M40.91 62H37.25V65.66H40.91V62Z" fill="#705E03"/>
<path d="M40.91 58.4102H37.25V61.9902H40.91V58.4102Z" fill="#998304"/>
<path d="M40.91 54.8301H37.25V58.4101H40.91V54.8301Z" fill="#998304"/>
<path d="M40.91 51.1699H37.25V54.8299H40.91V51.1699Z" fill="#BFA908"/>
<path d="M40.91 47.5898H37.25V51.1698H40.91V47.5898Z" fill="#BFA908"/>
<path d="M40.91 43.9302H37.25V47.5902H40.91V43.9302Z" fill="#BFA908"/>
<path d="M40.91 40.3501H37.25V43.9301H40.91V40.3501Z" fill="black"/>
<path d="M40.91 36.7598H37.25V40.3398H40.91V36.7598Z" fill="black"/>
<path d="M40.91 29.52H37.25V33.1H40.91V29.52Z" fill="black"/>
<path d="M37.2499 62H33.6699V65.66H37.2499V62Z" fill="black"/>
<path d="M37.2499 58.4102H33.6699V61.9902H37.2499V58.4102Z" fill="#998304"/>
<path d="M37.2499 54.8301H33.6699V58.4101H37.2499V54.8301Z" fill="#998304"/>
<path d="M37.2499 51.1699H33.6699V54.8299H37.2499V51.1699Z" fill="#BFA908"/>
<path d="M37.2499 47.5898H33.6699V51.1698H37.2499V47.5898Z" fill="#BFA908"/>
<path d="M37.2499 43.9302H33.6699V47.5902H37.2499V43.9302Z" fill="black"/>
<path d="M37.2499 40.3501H33.6699V43.9301H37.2499V40.3501Z" fill="black"/>
<path d="M37.2499 25.8701H33.6699V29.5301H37.2499V25.8701Z" fill="black"/>
<path d="M33.6698 58.4102H30.0098V61.9902H33.6698V58.4102Z" fill="black"/>
<path d="M33.6698 54.8301H30.0098V58.4101H33.6698V54.8301Z" fill="#BFA908"/>
<path d="M33.6698 51.1699H30.0098V54.8299H33.6698V51.1699Z" fill="#BFA908"/>
<path d="M33.6698 47.5898H30.0098V51.1698H33.6698V47.5898Z" fill="black"/>
<path d="M33.6698 43.9302H30.0098V47.5902H33.6698V43.9302Z" fill="black"/>
<path d="M33.6698 22.2798H30.0098V25.8598H33.6698V22.2798Z" fill="black"/>
<path d="M33.6698 18.7002H30.0098V22.2802H33.6698V18.7002Z" fill="#545454"/>
<path d="M30.0097 54.8301H26.4297V58.4101H30.0097V54.8301Z" fill="black"/>
<path d="M30.0097 51.1699H26.4297V54.8299H30.0097V51.1699Z" fill="black"/>
<path d="M30.0097 47.5898H26.4297V51.1698H30.0097V47.5898Z" fill="black"/>
<path d="M30.0097 40.3501H26.4297V43.9301H30.0097V40.3501Z" fill="black"/>
<path d="M30.0097 22.2798H26.4297V25.8598H30.0097V22.2798Z" fill="#545454"/>
<path d="M30.0097 18.7002H26.4297V22.2802H30.0097V18.7002Z" fill="black"/>
<path d="M30.0097 15.04H26.4297V18.7H30.0097V15.04Z" fill="#545454"/>
<path d="M26.4198 54.8301H22.8398V58.4101H26.4198V54.8301Z" fill="black"/>
<path d="M26.4198 51.1699H22.8398V54.8299H26.4198V51.1699Z" fill="black"/>
<path d="M26.4198 36.7598H22.8398V40.3398H26.4198V36.7598Z" fill="black"/>
<path d="M26.4198 18.7002H22.8398V22.2802H26.4198V18.7002Z" fill="#545454"/>
<path d="M26.4198 15.04H22.8398V18.7H26.4198V15.04Z" fill="black"/>
<path d="M26.4198 11.46H22.8398V15.04H26.4198V11.46Z" fill="#545454"/>
<path d="M22.8494 33.1099H19.1895V36.7699H22.8494V33.1099Z" fill="black"/>
<path d="M22.8494 29.52H19.1895V33.1H22.8494V29.52Z" fill="#545454"/>
<path d="M22.8494 15.04H19.1895V18.7H22.8494V15.04Z" fill="#545454"/>
<path d="M22.8494 11.46H19.1895V15.04H22.8494V11.46Z" fill="black"/>
<path d="M22.8494 7.87012H19.1895V11.4501H22.8494V7.87012Z" fill="#545454"/>
<path d="M19.1796 33.1099H15.5996V36.7699H19.1796V33.1099Z" fill="#545454"/>
<path d="M19.1796 29.52H15.5996V33.1H19.1796V29.52Z" fill="black"/>
<path d="M19.1796 25.8701H15.5996V29.5301H19.1796V25.8701Z" fill="#545454"/>
<path d="M19.1796 11.46H15.5996V15.04H19.1796V11.46Z" fill="#545454"/>
<path d="M15.5995 29.52H12.0195V33.1H15.5995V29.52Z" fill="#545454"/>
<path d="M15.5995 25.8701H12.0195V29.5301H15.5995V25.8701Z" fill="black"/>
<path d="M15.5995 22.2798H12.0195V25.8598H15.5995V22.2798Z" fill="#545454"/>
<path d="M12.0194 25.8701H8.35938V29.5301H12.0194V25.8701Z" fill="#545454"/>
<path d="M12.0194 22.2798H8.35938V25.8598H12.0194V22.2798Z" fill="black"/>
<path d="M12.0194 18.7002H8.35938V22.2802H12.0194V18.7002Z" fill="#545454"/>
<path d="M8.3593 22.2798H4.7793V25.8598H8.3593V22.2798Z" fill="#545454"/>
</svg>
