<svg width="230" height="236" viewBox="0 0 230 236" fill="none" xmlns="http://www.w3.org/2000/svg">
<path d="M229.11 81.0498H222.43V87.7898H229.11V81.0498Z" fill="black"/>
<path d="M229.11 74.3799H222.43V81.0599H229.11V74.3799Z" fill="black"/>
<path d="M229.11 67.6299H222.43V74.3699H229.11V67.6299Z" fill="black"/>
<path d="M222.42 87.7998H215.68V94.4798H222.42V87.7998Z" fill="black"/>
<path d="M222.42 81.0498H215.68V87.7898H222.42V81.0498Z" fill="#5B271D"/>
<path d="M222.42 74.3799H215.68V81.0599H222.42V74.3799Z" fill="#5B271D"/>
<path d="M222.42 67.6299H215.68V74.3699H222.42V67.6299Z" fill="#5B271D"/>
<path d="M222.42 60.9702H215.68V67.6502H222.42V60.9702Z" fill="black"/>
<path d="M215.7 87.7998H209.02V94.4798H215.7V87.7998Z" fill="black"/>
<path d="M215.7 81.0498H209.02V87.7898H215.7V81.0498Z" fill="#5B271D"/>
<path d="M215.7 74.3799H209.02V81.0599H215.7V74.3799Z" fill="#5B271D"/>
<path d="M215.7 67.6299H209.02V74.3699H215.7V67.6299Z" fill="black"/>
<path d="M209.01 168.36H202.27V175.04H209.01V168.36Z" fill="#B50012"/>
<path d="M209.01 94.46H202.27V101.2H209.01V94.46Z" fill="black"/>
<path d="M209.01 87.7998H202.27V94.4798H209.01V87.7998Z" fill="black"/>
<path d="M209.01 81.0498H202.27V87.7898H209.01V81.0498Z" fill="#5B271D"/>
<path d="M209.01 74.3799H202.27V81.0599H209.01V74.3799Z" fill="black"/>
<path d="M202.28 175.03H195.6V181.77H202.28V175.03Z" fill="#B50012"/>
<path d="M202.28 168.36H195.6V175.04H202.28V168.36Z" fill="#B50012"/>
<path d="M202.28 94.46H195.6V101.2H202.28V94.46Z" fill="black"/>
<path d="M202.28 87.7998H195.6V94.4798H202.28V87.7998Z" fill="#5B271D"/>
<path d="M202.28 81.0498H195.6V87.7898H202.28V81.0498Z" fill="#5B271D"/>
<path d="M202.28 74.3799H195.6V81.0599H202.28V74.3799Z" fill="black"/>
<path d="M202.28 47.48H195.6V54.22H202.28V47.48Z" fill="black"/>
<path d="M202.28 40.7998H195.6V47.4798H202.28V40.7998Z" fill="black"/>
<path d="M202.28 34.0698H195.6V40.8098H202.28V34.0698Z" fill="black"/>
<path d="M195.59 228.76H188.85V235.44H195.59V228.76Z" fill="#B50012"/>
<path d="M195.59 201.86H188.85V208.6H195.59V201.86Z" fill="#B50012"/>
<path d="M195.59 181.78H188.85V188.46H195.59V181.78Z" fill="#B50012"/>
<path d="M195.59 175.03H188.85V181.77H195.59V175.03Z" fill="#727B9B"/>
<path d="M195.59 168.36H188.85V175.04H195.59V168.36Z" fill="#B50012"/>
<path d="M195.59 101.21H188.85V107.95H195.59V101.21Z" fill="black"/>
<path d="M195.59 94.46H188.85V101.2H195.59V94.46Z" fill="black"/>
<path d="M195.59 87.7998H188.85V94.4798H195.59V87.7998Z" fill="#5B271D"/>
<path d="M195.59 81.0498H188.85V87.7898H195.59V81.0498Z" fill="black"/>
<path d="M195.59 60.9702H188.85V67.6502H195.59V60.9702Z" fill="black"/>
<path d="M195.59 54.2202H188.85V60.9602H195.59V54.2202Z" fill="black"/>
<path d="M195.59 47.48H188.85V54.22H195.59V47.48Z" fill="black"/>
<path d="M195.59 40.7998H188.85V47.4798H195.59V40.7998Z" fill="#5B271D"/>
<path d="M195.59 34.0698H188.85V40.8098H195.59V34.0698Z" fill="black"/>
<path d="M188.87 228.76H182.19V235.44H188.87V228.76Z" fill="#B50012"/>
<path d="M188.87 215.35H182.19V222.03H188.87V215.35Z" fill="#B50012"/>
<path d="M188.87 195.19H182.19V201.87H188.87V195.19Z" fill="#B50012"/>
<path d="M188.87 188.44H182.19V195.18H188.87V188.44Z" fill="#B50012"/>
<path d="M188.87 181.78H182.19V188.46H188.87V181.78Z" fill="#727B9B"/>
<path d="M188.87 175.03H182.19V181.77H188.87V175.03Z" fill="#727B9B"/>
<path d="M188.87 168.36H182.19V175.04H188.87V168.36Z" fill="#B50012"/>
<path d="M188.87 101.21H182.19V107.95H188.87V101.21Z" fill="black"/>
<path d="M188.87 94.46H182.19V101.2H188.87V94.46Z" fill="#5B271D"/>
<path d="M188.87 87.7998H182.19V94.4798H188.87V87.7998Z" fill="#5B271D"/>
<path d="M188.87 81.0498H182.19V87.7898H188.87V81.0498Z" fill="black"/>
<path d="M188.87 74.3799H182.19V81.0599H188.87V74.3799Z" fill="black"/>
<path d="M188.87 67.6299H182.19V74.3699H188.87V67.6299Z" fill="black"/>
<path d="M188.87 60.9702H182.19V67.6502H188.87V60.9702Z" fill="#5B271D"/>
<path d="M188.87 54.2202H182.19V60.9602H188.87V54.2202Z" fill="#5B271D"/>
<path d="M188.87 47.48H182.19V54.22H188.87V47.48Z" fill="#5B271D"/>
<path d="M188.87 40.7998H182.19V47.4798H188.87V40.7998Z" fill="black"/>
<path d="M188.87 34.0698H182.19V40.8098H188.87V34.0698Z" fill="black"/>
<path d="M182.18 228.76H175.44V235.44H182.18V228.76Z" fill="#B50012"/>
<path d="M182.18 222.02H175.44V228.76H182.18V222.02Z" fill="#B50012"/>
<path d="M182.18 188.44H175.44V195.18H182.18V188.44Z" fill="#B50012"/>
<path d="M182.18 181.78H175.44V188.46H182.18V181.78Z" fill="#727B9B"/>
<path d="M182.18 175.03H175.44V181.77H182.18V175.03Z" fill="#727B9B"/>
<path d="M182.18 168.36H175.44V175.04H182.18V168.36Z" fill="#B50012"/>
<path d="M182.18 101.21H175.44V107.95H182.18V101.21Z" fill="black"/>
<path d="M182.18 94.46H175.44V101.2H182.18V94.46Z" fill="#5B271D"/>
<path d="M182.18 87.7998H175.44V94.4798H182.18V87.7998Z" fill="black"/>
<path d="M182.18 74.3799H175.44V81.0599H182.18V74.3799Z" fill="black"/>
<path d="M182.18 67.6299H175.44V74.3699H182.18V67.6299Z" fill="#5B271D"/>
<path d="M182.18 60.9702H175.44V67.6502H182.18V60.9702Z" fill="#5B271D"/>
<path d="M182.18 54.2202H175.44V60.9602H182.18V54.2202Z" fill="#5B271D"/>
<path d="M182.18 47.48H175.44V54.22H182.18V47.48Z" fill="black"/>
<path d="M182.18 40.7998H175.44V47.4798H182.18V40.7998Z" fill="black"/>
<path d="M175.44 228.76H168.7V235.44H175.44V228.76Z" fill="#B50012"/>
<path d="M175.44 188.44H168.7V195.18H175.44V188.44Z" fill="#B50012"/>
<path d="M175.44 181.78H168.7V188.46H175.44V181.78Z" fill="#727B9B"/>
<path d="M175.44 175.03H168.7V181.77H175.44V175.03Z" fill="#727B9B"/>
<path d="M175.44 168.36H168.7V175.04H175.44V168.36Z" fill="#B50012"/>
<path d="M175.44 107.95H168.7V114.63H175.44V107.95Z" fill="black"/>
<path d="M175.44 101.21H168.7V107.95H175.44V101.21Z" fill="#5B271D"/>
<path d="M175.44 94.46H168.7V101.2H175.44V94.46Z" fill="#5B271D"/>
<path d="M175.44 87.7998H168.7V94.4798H175.44V87.7998Z" fill="black"/>
<path d="M175.44 81.0498H168.7V87.7898H175.44V81.0498Z" fill="black"/>
<path d="M175.44 74.3799H168.7V81.0599H175.44V74.3799Z" fill="black"/>
<path d="M175.44 67.6299H168.7V74.3699H175.44V67.6299Z" fill="#5B271D"/>
<path d="M175.44 60.9702H168.7V67.6502H175.44V60.9702Z" fill="#5B271D"/>
<path d="M175.44 54.2202H168.7V60.9602H175.44V54.2202Z" fill="#5B271D"/>
<path d="M175.44 47.48H168.7V54.22H175.44V47.48Z" fill="black"/>
<path d="M168.7 188.44H162.02V195.18H168.7V188.44Z" fill="#B50012"/>
<path d="M168.7 181.78H162.02V188.46H168.7V181.78Z" fill="#B50012"/>
<path d="M168.7 175.03H162.02V181.77H168.7V175.03Z" fill="#727B9B"/>
<path d="M168.7 168.36H162.02V175.04H168.7V168.36Z" fill="#B50012"/>
<path d="M168.7 107.95H162.02V114.63H168.7V107.95Z" fill="black"/>
<path d="M168.7 101.21H162.02V107.95H168.7V101.21Z" fill="#5B271D"/>
<path d="M168.7 94.46H162.02V101.2H168.7V94.46Z" fill="black"/>
<path d="M168.7 87.7998H162.02V94.4798H168.7V87.7998Z" fill="black"/>
<path d="M168.7 81.0498H162.02V87.7898H168.7V81.0498Z" fill="black"/>
<path d="M168.7 74.3799H162.02V81.0599H168.7V74.3799Z" fill="#5B271D"/>
<path d="M168.7 67.6299H162.02V74.3699H168.7V67.6299Z" fill="#5B271D"/>
<path d="M168.7 60.9702H162.02V67.6502H168.7V60.9702Z" fill="black"/>
<path d="M168.7 54.2202H162.02V60.9602H168.7V54.2202Z" fill="black"/>
<path d="M168.7 47.48H162.02V54.22H168.7V47.48Z" fill="black"/>
<path d="M162.02 181.78H155.28V188.46H162.02V181.78Z" fill="#B50012"/>
<path d="M162.02 175.03H155.28V181.77H162.02V175.03Z" fill="#727B9B"/>
<path d="M162.02 168.36H155.28V175.04H162.02V168.36Z" fill="#727B9B"/>
<path d="M162.02 161.61H155.28V168.35H162.02V161.61Z" fill="#B50012"/>
<path d="M162.02 114.63H155.28V121.37H162.02V114.63Z" fill="black"/>
<path d="M162.02 107.95H155.28V114.63H162.02V107.95Z" fill="#5B271D"/>
<path d="M162.02 101.21H155.28V107.95H162.02V101.21Z" fill="#5B271D"/>
<path d="M162.02 94.46H155.28V101.2H162.02V94.46Z" fill="black"/>
<path d="M162.02 87.7998H155.28V94.4798H162.02V87.7998Z" fill="#5B271D"/>
<path d="M162.02 81.0498H155.28V87.7898H162.02V81.0498Z" fill="#5B271D"/>
<path d="M162.02 74.3799H155.28V81.0599H162.02V74.3799Z" fill="#5B271D"/>
<path d="M162.02 67.6299H155.28V74.3699H162.02V67.6299Z" fill="#5B271D"/>
<path d="M162.02 60.9702H155.28V67.6502H162.02V60.9702Z" fill="black"/>
<path d="M155.29 175.03H148.61V181.77H155.29V175.03Z" fill="#B50012"/>
<path d="M155.29 168.36H148.61V175.04H155.29V168.36Z" fill="#727B9B"/>
<path d="M155.29 161.61H148.61V168.35H155.29V161.61Z" fill="#727B9B"/>
<path d="M155.29 154.87H148.61V161.61H155.29V154.87Z" fill="black"/>
<path d="M155.29 148.2H148.61V154.88H155.29V148.2Z" fill="black"/>
<path d="M155.29 141.46H148.61V148.2H155.29V141.46Z" fill="black"/>
<path d="M155.29 134.78H148.61V141.46H155.29V134.78Z" fill="black"/>
<path d="M155.29 128.04H148.61V134.78H155.29V128.04Z" fill="black"/>
<path d="M155.29 114.63H148.61V121.37H155.29V114.63Z" fill="black"/>
<path d="M155.29 107.95H148.61V114.63H155.29V107.95Z" fill="#5B271D"/>
<path d="M155.29 101.21H148.61V107.95H155.29V101.21Z" fill="#5B271D"/>
<path d="M155.29 94.46H148.61V101.2H155.29V94.46Z" fill="black"/>
<path d="M155.29 87.7998H148.61V94.4798H155.29V87.7998Z" fill="#5B271D"/>
<path d="M155.29 81.0498H148.61V87.7898H155.29V81.0498Z" fill="black"/>
<path d="M155.29 74.3799H148.61V81.0599H155.29V74.3799Z" fill="black"/>
<path d="M155.29 67.6299H148.61V74.3699H155.29V67.6299Z" fill="black"/>
<path d="M155.29 60.9702H148.61V67.6502H155.29V60.9702Z" fill="black"/>
<path d="M148.61 168.36H141.87V175.04H148.61V168.36Z" fill="#B50012"/>
<path d="M148.61 161.61H141.87V168.35H148.61V161.61Z" fill="#727B9B"/>
<path d="M148.61 154.87H141.87V161.61H148.61V154.87Z" fill="black"/>
<path d="M148.61 148.2H141.87V154.88H148.61V148.2Z" fill="black"/>
<path d="M148.61 141.46H141.87V148.2H148.61V141.46Z" fill="#507993"/>
<path d="M148.61 134.78H141.87V141.46H148.61V134.78Z" fill="#507993"/>
<path d="M148.61 128.04H141.87V134.78H148.61V128.04Z" fill="black"/>
<path d="M148.61 121.37H141.87V128.05H148.61V121.37Z" fill="black"/>
<path d="M148.61 107.95H141.87V114.63H148.61V107.95Z" fill="black"/>
<path d="M148.61 101.21H141.87V107.95H148.61V101.21Z" fill="#5B271D"/>
<path d="M148.61 94.46H141.87V101.2H148.61V94.46Z" fill="black"/>
<path d="M148.61 87.7998H141.87V94.4798H148.61V87.7998Z" fill="#5B271D"/>
<path d="M148.61 81.0498H141.87V87.7898H148.61V81.0498Z" fill="black"/>
<path d="M141.87 161.61H135.19V168.35H141.87V161.61Z" fill="black"/>
<path d="M141.87 154.87H135.19V161.61H141.87V154.87Z" fill="black"/>
<path d="M141.87 148.2H135.19V154.88H141.87V148.2Z" fill="#E0AD86"/>
<path d="M141.87 141.46H135.19V148.2H141.87V141.46Z" fill="#79B6EE"/>
<path d="M141.87 134.78H135.19V141.46H141.87V134.78Z" fill="#507993"/>
<path d="M141.87 128.04H135.19V134.78H141.87V128.04Z" fill="#507993"/>
<path d="M141.87 121.37H135.19V128.05H141.87V121.37Z" fill="black"/>
<path d="M141.87 114.63H135.19V121.37H141.87V114.63Z" fill="black"/>
<path d="M141.87 101.21H135.19V107.95H141.87V101.21Z" fill="black"/>
<path d="M141.87 94.46H135.19V101.2H141.87V94.46Z" fill="black"/>
<path d="M141.87 87.7998H135.19V94.4798H141.87V87.7998Z" fill="black"/>
<path d="M141.87 81.0498H135.19V87.7898H141.87V81.0498Z" fill="black"/>
<path d="M141.87 74.3799H135.19V81.0599H141.87V74.3799Z" fill="black"/>
<path d="M141.87 67.6299H135.19V74.3699H141.87V67.6299Z" fill="black"/>
<path d="M141.87 60.9702H135.19V67.6502H141.87V60.9702Z" fill="black"/>
<path d="M141.87 54.2202H135.19V60.9602H141.87V54.2202Z" fill="black"/>
<path d="M141.87 47.48H135.19V54.22H141.87V47.48Z" fill="black"/>
<path d="M141.87 40.7998H135.19V47.4798H141.87V40.7998Z" fill="black"/>
<path d="M141.87 34.0698H135.19V40.8098H141.87V34.0698Z" fill="black"/>
<path d="M135.19 161.61H128.45V168.35H135.19V161.61Z" fill="black"/>
<path d="M135.19 154.87H128.45V161.61H135.19V154.87Z" fill="#E0AD86"/>
<path d="M135.19 148.2H128.45V154.88H135.19V148.2Z" fill="#E0AD86"/>
<path d="M135.19 141.46H128.45V148.2H135.19V141.46Z" fill="#E0AD86"/>
<path d="M135.19 134.78H128.45V141.46H135.19V134.78Z" fill="#679EC6"/>
<path d="M135.19 128.04H128.45V134.78H135.19V128.04Z" fill="#507993"/>
<path d="M135.19 121.37H128.45V128.05H135.19V121.37Z" fill="#507993"/>
<path d="M135.19 114.63H128.45V121.37H135.19V114.63Z" fill="black"/>
<path d="M135.19 107.95H128.45V114.63H135.19V107.95Z" fill="black"/>
<path d="M135.19 101.21H128.45V107.95H135.19V101.21Z" fill="black"/>
<path d="M135.19 94.46H128.45V101.2H135.19V94.46Z" fill="#60342E"/>
<path d="M135.19 87.7998H128.45V94.4798H135.19V87.7998Z" fill="black"/>
<path d="M135.19 81.0498H128.45V87.7898H135.19V81.0498Z" fill="black"/>
<path d="M135.19 74.3799H128.45V81.0599H135.19V74.3799Z" fill="black"/>
<path d="M135.19 67.6299H128.45V74.3699H135.19V67.6299Z" fill="black"/>
<path d="M135.19 60.9702H128.45V67.6502H135.19V60.9702Z" fill="#507993"/>
<path d="M135.19 54.2202H128.45V60.9602H135.19V54.2202Z" fill="#507993"/>
<path d="M135.19 47.48H128.45V54.22H135.19V47.48Z" fill="#507993"/>
<path d="M135.19 40.7998H128.45V47.4798H135.19V40.7998Z" fill="black"/>
<path d="M135.19 34.0698H128.45V40.8098H135.19V34.0698Z" fill="black"/>
<path d="M135.19 27.3901H128.45V34.0701H135.19V27.3901Z" fill="black"/>
<path d="M128.44 228.76H121.7V235.44H128.44V228.76Z" fill="black"/>
<path d="M128.44 222.02H121.7V228.76H128.44V222.02Z" fill="black"/>
<path d="M128.44 215.35H121.7V222.03H128.44V215.35Z" fill="black"/>
<path d="M128.44 208.61H121.7V215.35H128.44V208.61Z" fill="black"/>
<path d="M128.44 201.86H121.7V208.6H128.44V201.86Z" fill="black"/>
<path d="M128.44 195.19H121.7V201.87H128.44V195.19Z" fill="black"/>
<path d="M128.44 188.44H121.7V195.18H128.44V188.44Z" fill="black"/>
<path d="M128.44 161.61H121.7V168.35H128.44V161.61Z" fill="black"/>
<path d="M128.44 154.87H121.7V161.61H128.44V154.87Z" fill="#E0AD86"/>
<path d="M128.44 148.2H121.7V154.88H128.44V148.2Z" fill="#E0AD86"/>
<path d="M128.44 141.46H121.7V148.2H128.44V141.46Z" fill="#E0AD86"/>
<path d="M128.44 134.78H121.7V141.46H128.44V134.78Z" fill="#679EC6"/>
<path d="M128.44 128.04H121.7V134.78H128.44V128.04Z" fill="#679EC6"/>
<path d="M128.44 121.37H121.7V128.05H128.44V121.37Z" fill="#507993"/>
<path d="M128.44 114.63H121.7V121.37H128.44V114.63Z" fill="#507993"/>
<path d="M128.44 107.95H121.7V114.63H128.44V107.95Z" fill="black"/>
<path d="M128.44 101.21H121.7V107.95H128.44V101.21Z" fill="#60342E"/>
<path d="M128.44 94.46H121.7V101.2H128.44V94.46Z" fill="#60342E"/>
<path d="M128.44 87.7998H121.7V94.4798H128.44V87.7998Z" fill="#60342E"/>
<path d="M128.44 81.0498H121.7V87.7898H128.44V81.0498Z" fill="black"/>
<path d="M128.44 74.3799H121.7V81.0599H128.44V74.3799Z" fill="black"/>
<path d="M128.44 67.6299H121.7V74.3699H128.44V67.6299Z" fill="#507993"/>
<path d="M128.44 60.9702H121.7V67.6502H128.44V60.9702Z" fill="#679EC6"/>
<path d="M128.44 54.2202H121.7V60.9602H128.44V54.2202Z" fill="#679EC6"/>
<path d="M128.44 47.48H121.7V54.22H128.44V47.48Z" fill="#679EC6"/>
<path d="M128.44 40.7998H121.7V47.4798H128.44V40.7998Z" fill="#507993"/>
<path d="M128.44 34.0698H121.7V40.8098H128.44V34.0698Z" fill="#507993"/>
<path d="M128.44 27.3901H121.7V34.0701H128.44V27.3901Z" fill="black"/>
<path d="M128.44 20.6499H121.7V27.3899H128.44V20.6499Z" fill="black"/>
<path d="M121.72 228.76H115.04V235.44H121.72V228.76Z" fill="black"/>
<path d="M121.72 222.02H115.04V228.76H121.72V222.02Z" fill="#60401E"/>
<path d="M121.72 215.35H115.04V222.03H121.72V215.35Z" fill="#60401E"/>
<path d="M121.72 208.61H115.04V215.35H121.72V208.61Z" fill="#60401E"/>
<path d="M121.72 201.86H115.04V208.6H121.72V201.86Z" fill="#1C323A"/>
<path d="M121.72 195.19H115.04V201.87H121.72V195.19Z" fill="#1C323A"/>
<path d="M121.72 188.44H115.04V195.18H121.72V188.44Z" fill="black"/>
<path d="M121.72 181.78H115.04V188.46H121.72V181.78Z" fill="black"/>
<path d="M121.72 175.03H115.04V181.77H121.72V175.03Z" fill="black"/>
<path d="M121.72 168.36H115.04V175.04H121.72V168.36Z" fill="black"/>
<path d="M121.72 161.61H115.04V168.35H121.72V161.61Z" fill="black"/>
<path d="M121.72 154.87H115.04V161.61H121.72V154.87Z" fill="black"/>
<path d="M121.72 148.2H115.04V154.88H121.72V148.2Z" fill="black"/>
<path d="M121.72 141.46H115.04V148.2H121.72V141.46Z" fill="black"/>
<path d="M121.72 134.78H115.04V141.46H121.72V134.78Z" fill="#679EC6"/>
<path d="M121.72 128.04H115.04V134.78H121.72V128.04Z" fill="#679EC6"/>
<path d="M121.72 121.37H115.04V128.05H121.72V121.37Z" fill="#679EC6"/>
<path d="M121.72 114.63H115.04V121.37H121.72V114.63Z" fill="#507993"/>
<path d="M121.72 107.95H115.04V114.63H121.72V107.95Z" fill="#507993"/>
<path d="M121.72 101.21H115.04V107.95H121.72V101.21Z" fill="black"/>
<path d="M121.72 94.46H115.04V101.2H121.72V94.46Z" fill="#60342E"/>
<path d="M121.72 87.7998H115.04V94.4798H121.72V87.7998Z" fill="black"/>
<path d="M121.72 81.0498H115.04V87.7898H121.72V81.0498Z" fill="#6D4541"/>
<path d="M121.72 74.3799H115.04V81.0599H121.72V74.3799Z" fill="#6D4541"/>
<path d="M121.72 67.6299H115.04V74.3699H121.72V67.6299Z" fill="#679EC6"/>
<path d="M121.72 60.9702H115.04V67.6502H121.72V60.9702Z" fill="#679EC6"/>
<path d="M121.72 54.2202H115.04V60.9602H121.72V54.2202Z" fill="#679EC6"/>
<path d="M121.72 47.48H115.04V54.22H121.72V47.48Z" fill="#679EC6"/>
<path d="M121.72 40.7998H115.04V47.4798H121.72V40.7998Z" fill="#679EC6"/>
<path d="M121.72 34.0698H115.04V40.8098H121.72V34.0698Z" fill="#507993"/>
<path d="M121.72 27.3901H115.04V34.0701H121.72V27.3901Z" fill="#507993"/>
<path d="M121.72 20.6499H115.04V27.3899H121.72V20.6499Z" fill="black"/>
<path d="M121.72 13.9702H115.04V20.6502H121.72V13.9702Z" fill="black"/>
<path d="M115.04 228.76H108.3V235.44H115.04V228.76Z" fill="black"/>
<path d="M115.04 222.02H108.3V228.76H115.04V222.02Z" fill="#60401E"/>
<path d="M115.04 215.35H108.3V222.03H115.04V215.35Z" fill="#60401E"/>
<path d="M115.04 208.61H108.3V215.35H115.04V208.61Z" fill="#354D59"/>
<path d="M115.04 201.86H108.3V208.6H115.04V201.86Z" fill="#354D59"/>
<path d="M115.04 195.19H108.3V201.87H115.04V195.19Z" fill="#1C323A"/>
<path d="M115.04 188.44H108.3V195.18H115.04V188.44Z" fill="#1C323A"/>
<path d="M115.04 181.78H108.3V188.46H115.04V181.78Z" fill="#1C323A"/>
<path d="M115.04 175.03H108.3V181.77H115.04V175.03Z" fill="#1C323A"/>
<path d="M115.04 168.36H108.3V175.04H115.04V168.36Z" fill="#1C323A"/>
<path d="M115.04 161.61H108.3V168.35H115.04V161.61Z" fill="#1C323A"/>
<path d="M115.04 154.87H108.3V161.61H115.04V154.87Z" fill="#1C323A"/>
<path d="M115.04 148.2H108.3V154.88H115.04V148.2Z" fill="#507993"/>
<path d="M115.04 141.46H108.3V148.2H115.04V141.46Z" fill="black"/>
<path d="M115.04 134.78H108.3V141.46H115.04V134.78Z" fill="black"/>
<path d="M115.04 128.04H108.3V134.78H115.04V128.04Z" fill="#679EC6"/>
<path d="M115.04 121.37H108.3V128.05H115.04V121.37Z" fill="#679EC6"/>
<path d="M115.04 114.63H108.3V121.37H115.04V114.63Z" fill="#679EC6"/>
<path d="M115.04 107.95H108.3V114.63H115.04V107.95Z" fill="#507993"/>
<path d="M115.04 101.21H108.3V107.95H115.04V101.21Z" fill="#507993"/>
<path d="M115.04 94.46H108.3V101.2H115.04V94.46Z" fill="black"/>
<path d="M115.04 87.7998H108.3V94.4798H115.04V87.7998Z" fill="#6D4541"/>
<path d="M115.04 81.0498H108.3V87.7898H115.04V81.0498Z" fill="#6D4541"/>
<path d="M115.04 74.3799H108.3V81.0599H115.04V74.3799Z" fill="#79B6EE"/>
<path d="M115.04 67.6299H108.3V74.3699H115.04V67.6299Z" fill="#BA7D54"/>
<path d="M115.04 60.9702H108.3V67.6502H115.04V60.9702Z" fill="#BA7D54"/>
<path d="M115.04 54.2202H108.3V60.9602H115.04V54.2202Z" fill="#BA7D54"/>
<path d="M115.04 47.48H108.3V54.22H115.04V47.48Z" fill="#679EC6"/>
<path d="M115.04 40.7998H108.3V47.4798H115.04V40.7998Z" fill="#679EC6"/>
<path d="M115.04 34.0698H108.3V40.8098H115.04V34.0698Z" fill="#679EC6"/>
<path d="M115.04 27.3901H108.3V34.0701H115.04V27.3901Z" fill="#507993"/>
<path d="M115.04 20.6499H108.3V27.3899H115.04V20.6499Z" fill="#507993"/>
<path d="M115.04 13.9702H108.3V20.6502H115.04V13.9702Z" fill="black"/>
<path d="M108.3 228.76H101.62V235.44H108.3V228.76Z" fill="black"/>
<path d="M108.3 222.02H101.62V228.76H108.3V222.02Z" fill="black"/>
<path d="M108.3 215.35H101.62V222.03H108.3V215.35Z" fill="black"/>
<path d="M108.3 208.61H101.62V215.35H108.3V208.61Z" fill="black"/>
<path d="M108.3 201.86H101.62V208.6H108.3V201.86Z" fill="#354D59"/>
<path d="M108.3 195.19H101.62V201.87H108.3V195.19Z" fill="#354D59"/>
<path d="M108.3 188.44H101.62V195.18H108.3V188.44Z" fill="#354D59"/>
<path d="M108.3 181.78H101.62V188.46H108.3V181.78Z" fill="#354D59"/>
<path d="M108.3 175.03H101.62V181.77H108.3V175.03Z" fill="#354D59"/>
<path d="M108.3 168.36H101.62V175.04H108.3V168.36Z" fill="#1C323A"/>
<path d="M108.3 161.61H101.62V168.35H108.3V161.61Z" fill="#1C323A"/>
<path d="M108.3 154.87H101.62V161.61H108.3V154.87Z" fill="#507993"/>
<path d="M108.3 148.2H101.62V154.88H108.3V148.2Z" fill="#507993"/>
<path d="M108.3 141.46H101.62V148.2H108.3V141.46Z" fill="#507993"/>
<path d="M108.3 134.78H101.62V141.46H108.3V134.78Z" fill="#79B6EE"/>
<path d="M108.3 128.04H101.62V134.78H108.3V128.04Z" fill="#679EC6"/>
<path d="M108.3 121.37H101.62V128.05H108.3V121.37Z" fill="#679EC6"/>
<path d="M108.3 114.63H101.62V121.37H108.3V114.63Z" fill="#679EC6"/>
<path d="M108.3 107.95H101.62V114.63H108.3V107.95Z" fill="#79B6EE"/>
<path d="M108.3 101.21H101.62V107.95H108.3V101.21Z" fill="#507993"/>
<path d="M108.3 94.46H101.62V101.2H108.3V94.46Z" fill="#6D4541"/>
<path d="M108.3 87.7998H101.62V94.4798H108.3V87.7998Z" fill="#6D4541"/>
<path d="M108.3 81.0498H101.62V87.7898H108.3V81.0498Z" fill="#BA7D54"/>
<path d="M108.3 74.3799H101.62V81.0599H108.3V74.3799Z" fill="#BA7D54"/>
<path d="M108.3 67.6299H101.62V74.3699H108.3V67.6299Z" fill="#BA7D54"/>
<path d="M108.3 60.9702H101.62V67.6502H108.3V60.9702Z" fill="#BA7D54"/>
<path d="M108.3 54.2202H101.62V60.9602H108.3V54.2202Z" fill="#1C1C1C"/>
<path d="M108.3 47.48H101.62V54.22H108.3V47.48Z" fill="#1C1C1C"/>
<path d="M108.3 40.7998H101.62V47.4798H108.3V40.7998Z" fill="#507993"/>
<path d="M108.3 34.0698H101.62V40.8098H108.3V34.0698Z" fill="#679EC6"/>
<path d="M108.3 27.3901H101.62V34.0701H108.3V27.3901Z" fill="#679EC6"/>
<path d="M108.3 20.6499H101.62V27.3899H108.3V20.6499Z" fill="#507993"/>
<path d="M108.3 13.9702H101.62V20.6502H108.3V13.9702Z" fill="#507993"/>
<path d="M108.3 7.22998H101.62V13.97H108.3V7.22998Z" fill="black"/>
<path d="M101.61 228.76H94.8701V235.44H101.61V228.76Z" fill="black"/>
<path d="M101.61 201.86H94.8701V208.6H101.61V201.86Z" fill="black"/>
<path d="M101.61 195.19H94.8701V201.87H101.61V195.19Z" fill="black"/>
<path d="M101.61 188.44H94.8701V195.18H101.61V188.44Z" fill="#354D59"/>
<path d="M101.61 181.78H94.8701V188.46H101.61V181.78Z" fill="#354D59"/>
<path d="M101.61 175.03H94.8701V181.77H101.61V175.03Z" fill="#354D59"/>
<path d="M101.61 168.36H94.8701V175.04H101.61V168.36Z" fill="#354D59"/>
<path d="M101.61 161.61H94.8701V168.35H101.61V161.61Z" fill="#1C323A"/>
<path d="M101.61 154.87H94.8701V161.61H101.61V154.87Z" fill="#507993"/>
<path d="M101.61 148.2H94.8701V154.88H101.61V148.2Z" fill="#507993"/>
<path d="M101.61 141.46H94.8701V148.2H101.61V141.46Z" fill="#679EC6"/>
<path d="M101.61 134.78H94.8701V141.46H101.61V134.78Z" fill="#679EC6"/>
<path d="M101.61 128.04H94.8701V134.78H101.61V128.04Z" fill="#679EC6"/>
<path d="M101.61 121.37H94.8701V128.05H101.61V121.37Z" fill="#679EC6"/>
<path d="M101.61 114.63H94.8701V121.37H101.61V114.63Z" fill="#679EC6"/>
<path d="M101.61 107.95H94.8701V114.63H101.61V107.95Z" fill="#679EC6"/>
<path d="M101.61 101.21H94.8701V107.95H101.61V101.21Z" fill="#679EC6"/>
<path d="M101.61 94.46H94.8701V101.2H101.61V94.46Z" fill="#6D4541"/>
<path d="M101.61 87.7998H94.8701V94.4798H101.61V87.7998Z" fill="#6D4541"/>
<path d="M101.61 81.0498H94.8701V87.7898H101.61V81.0498Z" fill="#E0AD86"/>
<path d="M101.61 74.3799H94.8701V81.0599H101.61V74.3799Z" fill="#E0AD86"/>
<path d="M101.61 67.6299H94.8701V74.3699H101.61V67.6299Z" fill="#E0AD86"/>
<path d="M101.61 60.9702H94.8701V67.6502H101.61V60.9702Z" fill="#BA7D54"/>
<path d="M101.61 54.2202H94.8701V60.9602H101.61V54.2202Z" fill="#1C1C1C"/>
<path d="M101.61 47.48H94.8701V54.22H101.61V47.48Z" fill="#545453"/>
<path d="M101.61 40.7998H94.8701V47.4798H101.61V40.7998Z" fill="#507993"/>
<path d="M101.61 34.0698H94.8701V40.8098H101.61V34.0698Z" fill="#679EC6"/>
<path d="M101.61 27.3901H94.8701V34.0701H101.61V27.3901Z" fill="#679EC6"/>
<path d="M101.61 20.6499H94.8701V27.3899H101.61V20.6499Z" fill="#679EC6"/>
<path d="M101.61 13.9702H94.8701V20.6502H101.61V13.9702Z" fill="#507993"/>
<path d="M101.61 7.22998H94.8701V13.97H101.61V7.22998Z" fill="black"/>
<path d="M101.61 0.560059H94.8701V7.24006H101.61V0.560059Z" fill="black"/>
<path d="M94.89 195.19H88.21V201.87H94.89V195.19Z" fill="black"/>
<path d="M94.89 188.44H88.21V195.18H94.89V188.44Z" fill="#1C323A"/>
<path d="M94.89 181.78H88.21V188.46H94.89V181.78Z" fill="#354D59"/>
<path d="M94.89 175.03H88.21V181.77H94.89V175.03Z" fill="#354D59"/>
<path d="M94.89 168.36H88.21V175.04H94.89V168.36Z" fill="#354D59"/>
<path d="M94.89 161.61H88.21V168.35H94.89V161.61Z" fill="#1C323A"/>
<path d="M94.89 154.87H88.21V161.61H94.89V154.87Z" fill="#507993"/>
<path d="M94.89 148.2H88.21V154.88H94.89V148.2Z" fill="#79B6EE"/>
<path d="M94.89 141.46H88.21V148.2H94.89V141.46Z" fill="#679EC6"/>
<path d="M94.89 134.78H88.21V141.46H94.89V134.78Z" fill="#679EC6"/>
<path d="M94.89 128.04H88.21V134.78H94.89V128.04Z" fill="#679EC6"/>
<path d="M94.89 121.37H88.21V128.05H94.89V121.37Z" fill="#679EC6"/>
<path d="M94.89 114.63H88.21V121.37H94.89V114.63Z" fill="#679EC6"/>
<path d="M94.89 107.95H88.21V114.63H94.89V107.95Z" fill="#679EC6"/>
<path d="M94.89 101.21H88.21V107.95H94.89V101.21Z" fill="#679EC6"/>
<path d="M94.89 94.46H88.21V101.2H94.89V94.46Z" fill="#6D4541"/>
<path d="M94.89 87.7998H88.21V94.4798H94.89V87.7998Z" fill="#6D4541"/>
<path d="M94.89 81.0498H88.21V87.7898H94.89V81.0498Z" fill="#E0AD86"/>
<path d="M94.89 74.3799H88.21V81.0599H94.89V74.3799Z" fill="#E0AD86"/>
<path d="M94.89 67.6299H88.21V74.3699H94.89V67.6299Z" fill="#E0AD86"/>
<path d="M94.89 60.9702H88.21V67.6502H94.89V60.9702Z" fill="#BA7D54"/>
<path d="M94.89 54.2202H88.21V60.9602H94.89V54.2202Z" fill="#BA7D54"/>
<path d="M94.89 47.48H88.21V54.22H94.89V47.48Z" fill="#507993"/>
<path d="M94.89 40.7998H88.21V47.4798H94.89V40.7998Z" fill="#679EC6"/>
<path d="M94.89 34.0698H88.21V40.8098H94.89V34.0698Z" fill="#679EC6"/>
<path d="M94.89 27.3901H88.21V34.0701H94.89V27.3901Z" fill="#679EC6"/>
<path d="M94.89 20.6499H88.21V27.3899H94.89V20.6499Z" fill="#679EC6"/>
<path d="M94.89 13.9702H88.21V20.6502H94.89V13.9702Z" fill="#679EC6"/>
<path d="M94.89 7.22998H88.21V13.97H94.89V7.22998Z" fill="#507993"/>
<path d="M94.89 0.560059H88.21V7.24006H94.89V0.560059Z" fill="black"/>
<path d="M88.2 228.76H81.46V235.44H88.2V228.76Z" fill="black"/>
<path d="M88.2 222.02H81.46V228.76H88.2V222.02Z" fill="black"/>
<path d="M88.2 215.35H81.46V222.03H88.2V215.35Z" fill="black"/>
<path d="M88.2 208.61H81.46V215.35H88.2V208.61Z" fill="black"/>
<path d="M88.2 201.86H81.46V208.6H88.2V201.86Z" fill="black"/>
<path d="M88.2 195.19H81.46V201.87H88.2V195.19Z" fill="black"/>
<path d="M88.2 188.44H81.46V195.18H88.2V188.44Z" fill="#1C323A"/>
<path d="M88.2 181.78H81.46V188.46H88.2V181.78Z" fill="#1C323A"/>
<path d="M88.2 175.03H81.46V181.77H88.2V175.03Z" fill="#1C323A"/>
<path d="M88.2 168.36H81.46V175.04H88.2V168.36Z" fill="#354D59"/>
<path d="M88.2 161.61H81.46V168.35H88.2V161.61Z" fill="#354D59"/>
<path d="M88.2 154.87H81.46V161.61H88.2V154.87Z" fill="#507993"/>
<path d="M88.2 148.2H81.46V154.88H88.2V148.2Z" fill="#679EC6"/>
<path d="M88.2 141.46H81.46V148.2H88.2V141.46Z" fill="#79B6EE"/>
<path d="M88.2 134.78H81.46V141.46H88.2V134.78Z" fill="#79B6EE"/>
<path d="M88.2 128.04H81.46V134.78H88.2V128.04Z" fill="#679EC6"/>
<path d="M88.2 121.37H81.46V128.05H88.2V121.37Z" fill="#679EC6"/>
<path d="M88.2 114.63H81.46V121.37H88.2V114.63Z" fill="#679EC6"/>
<path d="M88.2 107.95H81.46V114.63H88.2V107.95Z" fill="#679EC6"/>
<path d="M88.2 101.21H81.46V107.95H88.2V101.21Z" fill="#679EC6"/>
<path d="M88.2 94.46H81.46V101.2H88.2V94.46Z" fill="#6D4541"/>
<path d="M88.2 87.7998H81.46V94.4798H88.2V87.7998Z" fill="#6D4541"/>
<path d="M88.2 81.0498H81.46V87.7898H88.2V81.0498Z" fill="#E0AD86"/>
<path d="M88.2 74.3799H81.46V81.0599H88.2V74.3799Z" fill="#E0AD86"/>
<path d="M88.2 67.6299H81.46V74.3699H88.2V67.6299Z" fill="#E0AD86"/>
<path d="M88.2 60.9702H81.46V67.6502H88.2V60.9702Z" fill="#BA7D54"/>
<path d="M88.2 54.2202H81.46V60.9602H88.2V54.2202Z" fill="#507993"/>
<path d="M88.2 47.48H81.46V54.22H88.2V47.48Z" fill="#679EC6"/>
<path d="M88.2 40.7998H81.46V47.4798H88.2V40.7998Z" fill="#679EC6"/>
<path d="M88.2 34.0698H81.46V40.8098H88.2V34.0698Z" fill="#679EC6"/>
<path d="M88.2 27.3901H81.46V34.0701H88.2V27.3901Z" fill="#679EC6"/>
<path d="M88.2 20.6499H81.46V27.3899H88.2V20.6499Z" fill="#79B6EE"/>
<path d="M88.2 13.9702H81.46V20.6502H88.2V13.9702Z" fill="#79B6EE"/>
<path d="M88.2 7.22998H81.46V13.97H88.2V7.22998Z" fill="black"/>
<path d="M88.2 0.560059H81.46V7.24006H88.2V0.560059Z" fill="black"/>
<path d="M81.47 228.76H74.79V235.44H81.47V228.76Z" fill="black"/>
<path d="M81.47 222.02H74.79V228.76H81.47V222.02Z" fill="#60401E"/>
<path d="M81.47 215.35H74.79V222.03H81.47V215.35Z" fill="#60401E"/>
<path d="M81.47 208.61H74.79V215.35H81.47V208.61Z" fill="#60401E"/>
<path d="M81.47 201.86H74.79V208.6H81.47V201.86Z" fill="#60401E"/>
<path d="M81.47 195.19H74.79V201.87H81.47V195.19Z" fill="#354D59"/>
<path d="M81.47 188.44H74.79V195.18H81.47V188.44Z" fill="#354D59"/>
<path d="M81.47 181.78H74.79V188.46H81.47V181.78Z" fill="#354D59"/>
<path d="M81.47 175.03H74.79V181.77H81.47V175.03Z" fill="#354D59"/>
<path d="M81.47 168.36H74.79V175.04H81.47V168.36Z" fill="#354D59"/>
<path d="M81.47 161.61H74.79V168.35H81.47V161.61Z" fill="#354D59"/>
<path d="M81.47 154.87H74.79V161.61H81.47V154.87Z" fill="#507993"/>
<path d="M81.47 148.2H74.79V154.88H81.47V148.2Z" fill="#507993"/>
<path d="M81.47 141.46H74.79V148.2H81.47V141.46Z" fill="#679EC6"/>
<path d="M81.47 134.78H74.79V141.46H81.47V134.78Z" fill="#79B6EE"/>
<path d="M81.47 128.04H74.79V134.78H81.47V128.04Z" fill="#79B6EE"/>
<path d="M81.47 121.37H74.79V128.05H81.47V121.37Z" fill="#679EC6"/>
<path d="M81.47 114.63H74.79V121.37H81.47V114.63Z" fill="#79B6EE"/>
<path d="M81.47 107.95H74.79V114.63H81.47V107.95Z" fill="#79B6EE"/>
<path d="M81.47 101.21H74.79V107.95H81.47V101.21Z" fill="#79B6EE"/>
<path d="M81.47 94.46H74.79V101.2H81.47V94.46Z" fill="#6D4541"/>
<path d="M81.47 87.7998H74.79V94.4798H81.47V87.7998Z" fill="#6D4541"/>
<path d="M81.47 81.0498H74.79V87.7898H81.47V81.0498Z" fill="#E0AD86"/>
<path d="M81.47 74.3799H74.79V81.0599H81.47V74.3799Z" fill="#E0AD86"/>
<path d="M81.47 67.6299H74.79V74.3699H81.47V67.6299Z" fill="#E0AD86"/>
<path d="M81.47 60.9702H74.79V67.6502H81.47V60.9702Z" fill="#BA7D54"/>
<path d="M81.47 54.2202H74.79V60.9602H81.47V54.2202Z" fill="#79B6EE"/>
<path d="M81.47 47.48H74.79V54.22H81.47V47.48Z" fill="#679EC6"/>
<path d="M81.47 40.7998H74.79V47.4798H81.47V40.7998Z" fill="#679EC6"/>
<path d="M81.47 34.0698H74.79V40.8098H81.47V34.0698Z" fill="#79B6EE"/>
<path d="M81.47 27.3901H74.79V34.0701H81.47V27.3901Z" fill="#79B6EE"/>
<path d="M81.47 20.6499H74.79V27.3899H81.47V20.6499Z" fill="#79B6EE"/>
<path d="M81.47 13.9702H74.79V20.6502H81.47V13.9702Z" fill="black"/>
<path d="M81.47 7.22998H74.79V13.97H81.47V7.22998Z" fill="black"/>
<path d="M74.78 228.76H68.04V235.44H74.78V228.76Z" fill="black"/>
<path d="M74.78 222.02H68.04V228.76H74.78V222.02Z" fill="#60401E"/>
<path d="M74.78 215.35H68.04V222.03H74.78V215.35Z" fill="#60401E"/>
<path d="M74.78 208.61H68.04V215.35H74.78V208.61Z" fill="#60401E"/>
<path d="M74.78 201.86H68.04V208.6H74.78V201.86Z" fill="#354D59"/>
<path d="M74.78 195.19H68.04V201.87H74.78V195.19Z" fill="#354D59"/>
<path d="M74.78 188.44H68.04V195.18H74.78V188.44Z" fill="#354D59"/>
<path d="M74.78 181.78H68.04V188.46H74.78V181.78Z" fill="#354D59"/>
<path d="M74.78 175.03H68.04V181.77H74.78V175.03Z" fill="#354D59"/>
<path d="M74.78 168.36H68.04V175.04H74.78V168.36Z" fill="#354D59"/>
<path d="M74.78 161.61H68.04V168.35H74.78V161.61Z" fill="#354D59"/>
<path d="M74.78 154.87H68.04V161.61H74.78V154.87Z" fill="#507993"/>
<path d="M74.78 148.2H68.04V154.88H74.78V148.2Z" fill="#507993"/>
<path d="M74.78 141.46H68.04V148.2H74.78V141.46Z" fill="#507993"/>
<path d="M74.78 134.78H68.04V141.46H74.78V134.78Z" fill="#79B6EE"/>
<path d="M74.78 128.04H68.04V134.78H74.78V128.04Z" fill="#679EC6"/>
<path d="M74.78 121.37H68.04V128.05H74.78V121.37Z" fill="#79B6EE"/>
<path d="M74.78 114.63H68.04V121.37H74.78V114.63Z" fill="#79B6EE"/>
<path d="M74.78 107.95H68.04V114.63H74.78V107.95Z" fill="#79B6EE"/>
<path d="M74.78 101.21H68.04V107.95H74.78V101.21Z" fill="#79B6EE"/>
<path d="M74.78 94.46H68.04V101.2H74.78V94.46Z" fill="black"/>
<path d="M74.78 87.7998H68.04V94.4798H74.78V87.7998Z" fill="#6D4541"/>
<path d="M74.78 81.0498H68.04V87.7898H74.78V81.0498Z" fill="#E0AD86"/>
<path d="M74.78 74.3799H68.04V81.0599H74.78V74.3799Z" fill="#E0AD86"/>
<path d="M74.78 67.6299H68.04V74.3699H74.78V67.6299Z" fill="#E0AD86"/>
<path d="M74.78 60.9702H68.04V67.6502H74.78V60.9702Z" fill="#BA7D54"/>
<path d="M74.78 54.2202H68.04V60.9602H74.78V54.2202Z" fill="#0C0A08"/>
<path d="M74.78 47.48H68.04V54.22H74.78V47.48Z" fill="#507993"/>
<path d="M74.78 40.7998H68.04V47.4798H74.78V40.7998Z" fill="#79B6EE"/>
<path d="M74.78 34.0698H68.04V40.8098H74.78V34.0698Z" fill="#79B6EE"/>
<path d="M74.78 27.3901H68.04V34.0701H74.78V27.3901Z" fill="#79B6EE"/>
<path d="M74.78 20.6499H68.04V27.3899H74.78V20.6499Z" fill="black"/>
<path d="M74.78 13.9702H68.04V20.6502H74.78V13.9702Z" fill="black"/>
<path d="M68.0398 228.76H61.2998V235.44H68.0398V228.76Z" fill="black"/>
<path d="M68.0398 222.02H61.2998V228.76H68.0398V222.02Z" fill="#60401E"/>
<path d="M68.0398 215.35H61.2998V222.03H68.0398V215.35Z" fill="black"/>
<path d="M68.0398 208.61H61.2998V215.35H68.0398V208.61Z" fill="black"/>
<path d="M68.0398 201.86H61.2998V208.6H68.0398V201.86Z" fill="black"/>
<path d="M68.0398 195.19H61.2998V201.87H68.0398V195.19Z" fill="#354D59"/>
<path d="M68.0398 188.44H61.2998V195.18H68.0398V188.44Z" fill="#354D59"/>
<path d="M68.0398 181.78H61.2998V188.46H68.0398V181.78Z" fill="#354D59"/>
<path d="M68.0398 175.03H61.2998V181.77H68.0398V175.03Z" fill="#354D59"/>
<path d="M68.0398 168.36H61.2998V175.04H68.0398V168.36Z" fill="#354D59"/>
<path d="M68.0398 161.61H61.2998V168.35H68.0398V161.61Z" fill="#354D59"/>
<path d="M68.0398 154.87H61.2998V161.61H68.0398V154.87Z" fill="#507993"/>
<path d="M68.0398 148.2H61.2998V154.88H68.0398V148.2Z" fill="black"/>
<path d="M68.0398 141.46H61.2998V148.2H68.0398V141.46Z" fill="#679EC6"/>
<path d="M68.0398 134.78H61.2998V141.46H68.0398V134.78Z" fill="#679EC6"/>
<path d="M68.0398 128.04H61.2998V134.78H68.0398V128.04Z" fill="#79B6EE"/>
<path d="M68.0398 121.37H61.2998V128.05H68.0398V121.37Z" fill="#79B6EE"/>
<path d="M68.0398 114.63H61.2998V121.37H68.0398V114.63Z" fill="#79B6EE"/>
<path d="M68.0398 107.95H61.2998V114.63H68.0398V107.95Z" fill="#679EC6"/>
<path d="M68.0398 101.21H61.2998V107.95H68.0398V101.21Z" fill="black"/>
<path d="M68.0398 94.46H61.2998V101.2H68.0398V94.46Z" fill="black"/>
<path d="M68.0398 87.7998H61.2998V94.4798H68.0398V87.7998Z" fill="black"/>
<path d="M68.0398 81.0498H61.2998V87.7898H68.0398V81.0498Z" fill="black"/>
<path d="M68.0398 74.3799H61.2998V81.0599H68.0398V74.3799Z" fill="#79B6EE"/>
<path d="M68.0398 67.6299H61.2998V74.3699H68.0398V67.6299Z" fill="#79B6EE"/>
<path d="M68.0398 60.9702H61.2998V67.6502H68.0398V60.9702Z" fill="#BA7D54"/>
<path d="M68.0398 54.2202H61.2998V60.9602H68.0398V54.2202Z" fill="#BA7D54"/>
<path d="M68.0398 47.48H61.2998V54.22H68.0398V47.48Z" fill="#BA7D54"/>
<path d="M68.0398 40.7998H61.2998V47.4798H68.0398V40.7998Z" fill="#79B6EE"/>
<path d="M68.0398 34.0698H61.2998V40.8098H68.0398V34.0698Z" fill="#79B6EE"/>
<path d="M68.0398 27.3901H61.2998V34.0701H68.0398V27.3901Z" fill="black"/>
<path d="M68.0398 20.6499H61.2998V27.3899H68.0398V20.6499Z" fill="black"/>
<path d="M61.3099 228.76H54.6299V235.44H61.3099V228.76Z" fill="black"/>
<path d="M61.3099 222.02H54.6299V228.76H61.3099V222.02Z" fill="black"/>
<path d="M61.3099 215.35H54.6299V222.03H61.3099V215.35Z" fill="black"/>
<path d="M61.3099 201.86H54.6299V208.6H61.3099V201.86Z" fill="black"/>
<path d="M61.3099 195.19H54.6299V201.87H61.3099V195.19Z" fill="black"/>
<path d="M61.3099 188.44H54.6299V195.18H61.3099V188.44Z" fill="black"/>
<path d="M61.3099 181.78H54.6299V188.46H61.3099V181.78Z" fill="#354D59"/>
<path d="M61.3099 175.03H54.6299V181.77H61.3099V175.03Z" fill="#354D59"/>
<path d="M61.3099 168.36H54.6299V175.04H61.3099V168.36Z" fill="#507993"/>
<path d="M61.3099 161.61H54.6299V168.35H61.3099V161.61Z" fill="#507993"/>
<path d="M61.3099 154.87H54.6299V161.61H61.3099V154.87Z" fill="black"/>
<path d="M61.3099 148.2H54.6299V154.88H61.3099V148.2Z" fill="black"/>
<path d="M61.3099 141.46H54.6299V148.2H61.3099V141.46Z" fill="#79B6EE"/>
<path d="M61.3099 134.78H54.6299V141.46H61.3099V134.78Z" fill="#79B6EE"/>
<path d="M61.3099 128.04H54.6299V134.78H61.3099V128.04Z" fill="#79B6EE"/>
<path d="M61.3099 121.37H54.6299V128.05H61.3099V121.37Z" fill="#79B6EE"/>
<path d="M61.3099 114.63H54.6299V121.37H61.3099V114.63Z" fill="#679EC6"/>
<path d="M61.3099 107.95H54.6299V114.63H61.3099V107.95Z" fill="black"/>
<path d="M61.3099 81.0498H54.6299V87.7898H61.3099V81.0498Z" fill="black"/>
<path d="M61.3099 74.3799H54.6299V81.0599H61.3099V74.3799Z" fill="black"/>
<path d="M61.3099 67.6299H54.6299V74.3699H61.3099V67.6299Z" fill="black"/>
<path d="M61.3099 60.9702H54.6299V67.6502H61.3099V60.9702Z" fill="#79B6EE"/>
<path d="M61.3099 54.2202H54.6299V60.9602H61.3099V54.2202Z" fill="#79B6EE"/>
<path d="M61.3099 47.48H54.6299V54.22H61.3099V47.48Z" fill="#79B6EE"/>
<path d="M61.3099 40.7998H54.6299V47.4798H61.3099V40.7998Z" fill="black"/>
<path d="M61.3099 34.0698H54.6299V40.8098H61.3099V34.0698Z" fill="black"/>
<path d="M61.3099 27.3901H54.6299V34.0701H61.3099V27.3901Z" fill="black"/>
<path d="M54.6297 228.76H47.8896V235.44H54.6297V228.76Z" fill="black"/>
<path d="M54.6297 222.02H47.8896V228.76H54.6297V222.02Z" fill="black"/>
<path d="M54.6297 188.44H47.8896V195.18H54.6297V188.44Z" fill="black"/>
<path d="M54.6297 181.78H47.8896V188.46H54.6297V181.78Z" fill="black"/>
<path d="M54.6297 175.03H47.8896V181.77H54.6297V175.03Z" fill="black"/>
<path d="M54.6297 168.36H47.8896V175.04H54.6297V168.36Z" fill="black"/>
<path d="M54.6297 161.61H47.8896V168.35H54.6297V161.61Z" fill="black"/>
<path d="M54.6297 154.87H47.8896V161.61H54.6297V154.87Z" fill="black"/>
<path d="M54.6297 148.2H47.8896V154.88H54.6297V148.2Z" fill="#E0AD86"/>
<path d="M54.6297 141.46H47.8896V148.2H54.6297V141.46Z" fill="#E0AD86"/>
<path d="M54.6297 134.78H47.8896V141.46H54.6297V134.78Z" fill="#79B6EE"/>
<path d="M54.6297 128.04H47.8896V134.78H54.6297V128.04Z" fill="#79B6EE"/>
<path d="M54.6297 121.37H47.8896V128.05H54.6297V121.37Z" fill="#679EC6"/>
<path d="M54.6297 114.63H47.8896V121.37H54.6297V114.63Z" fill="black"/>
<path d="M54.6297 67.6299H47.8896V74.3699H54.6297V67.6299Z" fill="black"/>
<path d="M54.6297 60.9702H47.8896V67.6502H54.6297V60.9702Z" fill="black"/>
<path d="M54.6297 54.2202H47.8896V60.9602H54.6297V54.2202Z" fill="black"/>
<path d="M54.6297 47.48H47.8896V54.22H54.6297V47.48Z" fill="black"/>
<path d="M54.6297 40.7998H47.8896V47.4798H54.6297V40.7998Z" fill="black"/>
<path d="M47.89 161.61H41.21V168.35H47.89V161.61Z" fill="black"/>
<path d="M47.89 154.87H41.21V161.61H47.89V154.87Z" fill="#E0AD86"/>
<path d="M47.89 148.2H41.21V154.88H47.89V148.2Z" fill="#E0AD86"/>
<path d="M47.89 141.46H41.21V148.2H47.89V141.46Z" fill="#E0AD86"/>
<path d="M47.89 134.78H41.21V141.46H47.89V134.78Z" fill="#E0AD86"/>
<path d="M47.89 128.04H41.21V134.78H47.89V128.04Z" fill="black"/>
<path d="M47.89 121.37H41.21V128.05H47.89V121.37Z" fill="black"/>
<path d="M41.2097 154.87H34.4697V161.61H41.2097V154.87Z" fill="black"/>
<path d="M41.2097 148.2H34.4697V154.88H41.2097V148.2Z" fill="black"/>
<path d="M41.2097 141.46H34.4697V148.2H41.2097V141.46Z" fill="#E0AD86"/>
<path d="M41.2097 134.78H34.4697V141.46H41.2097V134.78Z" fill="black"/>
<path d="M34.4798 228.76H27.7998V235.44H34.4798V228.76Z" fill="#B50012"/>
<path d="M34.4798 215.35H27.7998V222.03H34.4798V215.35Z" fill="#B50012"/>
<path d="M34.4798 148.2H27.7998V154.88H34.4798V148.2Z" fill="#B50012"/>
<path d="M34.4798 141.46H27.7998V148.2H34.4798V141.46Z" fill="#4A4A68"/>
<path d="M34.4798 134.78H27.7998V141.46H34.4798V134.78Z" fill="#B50012"/>
<path d="M34.4798 128.04H27.7998V134.78H34.4798V128.04Z" fill="#B50012"/>
<path d="M27.7996 228.76H21.0596V235.44H27.7996V228.76Z" fill="#B50012"/>
<path d="M27.7996 201.86H21.0596V208.6H27.7996V201.86Z" fill="#B50012"/>
<path d="M27.7996 195.19H21.0596V201.87H27.7996V195.19Z" fill="#B50012"/>
<path d="M27.7996 141.46H21.0596V148.2H27.7996V141.46Z" fill="#B50012"/>
<path d="M27.7996 134.78H21.0596V141.46H27.7996V134.78Z" fill="#727B9B"/>
<path d="M27.7996 128.04H21.0596V134.78H27.7996V128.04Z" fill="#727B9B"/>
<path d="M27.7996 121.37H21.0596V128.05H27.7996V121.37Z" fill="#B50012"/>
<path d="M27.7996 114.63H21.0596V121.37H27.7996V114.63Z" fill="#B50012"/>
<path d="M21.0603 228.76H14.3203V235.44H21.0603V228.76Z" fill="#B50012"/>
<path d="M21.0603 222.02H14.3203V228.76H21.0603V222.02Z" fill="#B50012"/>
<path d="M21.0603 148.2H14.3203V154.88H21.0603V148.2Z" fill="#B50012"/>
<path d="M21.0603 141.46H14.3203V148.2H21.0603V141.46Z" fill="#B50012"/>
<path d="M21.0603 134.78H14.3203V141.46H21.0603V134.78Z" fill="#B50012"/>
<path d="M21.0603 128.04H14.3203V134.78H21.0603V128.04Z" fill="#727B9B"/>
<path d="M21.0603 121.37H14.3203V128.05H21.0603V121.37Z" fill="#727B9B"/>
<path d="M21.0603 114.63H14.3203V121.37H21.0603V114.63Z" fill="#727B9B"/>
<path d="M21.0603 107.95H14.3203V114.63H21.0603V107.95Z" fill="#B50012"/>
<path d="M21.0603 101.21H14.3203V107.95H21.0603V101.21Z" fill="#B50012"/>
<path d="M14.3196 228.76H7.63965V235.44H14.3196V228.76Z" fill="#B50012"/>
<path d="M14.3196 208.61H7.63965V215.35H14.3196V208.61Z" fill="#B50012"/>
<path d="M14.3196 168.36H7.63965V175.04H14.3196V168.36Z" fill="#B50012"/>
<path d="M14.3196 161.61H7.63965V168.35H14.3196V161.61Z" fill="#B50012"/>
<path d="M14.3196 134.78H7.63965V141.46H14.3196V134.78Z" fill="#B50012"/>
<path d="M14.3196 128.04H7.63965V134.78H14.3196V128.04Z" fill="#B50012"/>
<path d="M14.3196 121.37H7.63965V128.05H14.3196V121.37Z" fill="#B50012"/>
<path d="M14.3196 114.63H7.63965V121.37H14.3196V114.63Z" fill="#727B9B"/>
<path d="M14.3196 107.95H7.63965V114.63H14.3196V107.95Z" fill="#727B9B"/>
<path d="M14.3196 101.21H7.63965V107.95H14.3196V101.21Z" fill="#727B9B"/>
<path d="M14.3196 94.46H7.63965V101.2H14.3196V94.46Z" fill="#B50012"/>
<path d="M7.62965 121.37H0.889648V128.05H7.62965V121.37Z" fill="#B50012"/>
<path d="M7.62965 114.63H0.889648V121.37H7.62965V114.63Z" fill="#B50012"/>
<path d="M7.62965 107.95H0.889648V114.63H7.62965V107.95Z" fill="#B50012"/>
<path d="M7.62965 101.21H0.889648V107.95H7.62965V101.21Z" fill="#B50012"/>
</svg>
