<svg width="96" height="96" viewBox="0 0 96 96" fill="none" xmlns="http://www.w3.org/2000/svg">
<path d="M72.87 60.87C70.5101 65.4296 66.942 69.2527 62.5558 71.9211C58.1696 74.5895 53.1341 76.0006 48 76C46.7457 76.0027 45.4928 75.9192 44.25 75.75" stroke="#FF3864" stroke-width="2"/>
<path d="M60.8701 23.13C65.4298 25.4899 69.2528 29.058 71.9212 33.4442C74.5896 37.8304 76.0007 42.8659 76.0001 48C76.0028 49.2543 75.9193 50.5072 75.7501 51.75" stroke="#FF3864" stroke-width="2"/>
<path d="M23.1299 35.13C25.4898 30.5704 29.0579 26.7473 33.4441 24.0789C37.8303 21.4105 42.8657 19.9994 47.9999 20C49.2541 19.9973 50.5071 20.0808 51.7499 20.25" stroke="#FF3864" stroke-width="2"/>
<path d="M35.1297 72.87C29.8615 70.1332 25.5967 65.7966 22.9482 60.4834C20.2997 55.1703 19.4039 49.1543 20.3897 43.3" stroke="#FF3864" stroke-width="2"/>
<path d="M12.62 19.93L8 28.27L21.57 44.72C21.9192 45.1337 22.3487 45.4723 22.8326 45.7151C23.3165 45.958 23.8446 46.1001 24.385 46.1328C24.9255 46.1655 25.4669 46.0882 25.9765 45.9055C26.4862 45.7228 26.9534 45.4386 27.35 45.07V45.07C27.7259 44.7025 28.0256 44.2644 28.2321 43.781C28.4385 43.2975 28.5477 42.7781 28.5532 42.2524C28.5588 41.7268 28.4607 41.2051 28.2645 40.7174C28.0684 40.2297 27.778 39.7854 27.41 39.41L19.27 31.27" stroke="#FF3864" stroke-width="2"/>
<path d="M18.3492 9.65586C16.1388 7.4455 12.5567 7.44391 10.3483 9.65233C8.13988 11.8607 8.14147 15.4429 10.3518 17.6532L14.347 21.6484C16.5574 23.8588 20.1395 23.8603 22.3479 21.6519C24.5563 19.4435 24.5547 15.8614 22.3444 13.651L18.3492 9.65586Z" stroke="#FF3864" stroke-width="2"/>
<path d="M76.0701 12.62L67.7301 8L50.7301 21.27C50.3358 21.6638 50.023 22.1314 49.8096 22.6462C49.5962 23.161 49.4863 23.7128 49.4863 24.27C49.4863 24.8272 49.5962 25.379 49.8096 25.8938C50.023 26.4086 50.3358 26.8762 50.7301 27.27V27.27C51.1239 27.6643 51.5915 27.9771 52.1063 28.1905C52.621 28.4039 53.1728 28.5137 53.7301 28.5137C54.2873 28.5137 54.8391 28.4039 55.3539 28.1905C55.8686 27.9771 56.3363 27.6643 56.7301 27.27L64.7301 19.27" stroke="#FF3864" stroke-width="2"/>
<path d="M78.3489 10.3491L74.3538 14.3443C72.1434 16.5546 72.1418 20.1368 74.3503 22.3452C76.5587 24.5536 80.1408 24.552 82.3512 22.3416L86.3463 18.3465C88.5567 16.1361 88.5583 12.554 86.3499 10.3456C84.1414 8.13715 80.5593 8.13874 78.3489 10.3491Z" stroke="#FF3864" stroke-width="2"/>
<path d="M83.3801 76.07L88.0001 67.73L74.7301 50.73C74.3363 50.3357 73.8686 50.0229 73.3539 49.8095C72.8391 49.5961 72.2873 49.4863 71.7301 49.4863C71.1728 49.4863 70.621 49.5961 70.1063 49.8095C69.5915 50.0229 69.1239 50.3357 68.7301 50.73V50.73C68.3358 51.1238 68.023 51.5914 67.8096 52.1062C67.5962 52.621 67.4863 53.1728 67.4863 53.73C67.4863 54.2873 67.5962 54.839 67.8096 55.3538C68.023 55.8686 68.3358 56.3362 68.7301 56.73L76.7301 64.73" stroke="#FF3864" stroke-width="2"/>
<path d="M81.6578 74.352C79.4474 72.1416 75.8653 72.14 73.6569 74.3484C71.4485 76.5569 71.4501 80.139 73.6604 82.3494L77.6556 86.3445C79.8659 88.5549 83.4481 88.5565 85.6565 86.3481C87.8649 84.1396 87.8633 80.5575 85.653 78.3471L81.6578 74.352Z" stroke="#FF3864" stroke-width="2"/>
<path d="M19.9297 83.38L28.2697 88L45.2697 74.73C45.664 74.3362 45.9768 73.8686 46.1902 73.3538C46.4036 72.839 46.5134 72.2873 46.5134 71.73C46.5134 71.1728 46.4036 70.621 46.1902 70.1062C45.9768 69.5914 45.664 69.1238 45.2697 68.73V68.73C44.8759 68.3357 44.4083 68.0229 43.8935 67.8095C43.3787 67.5961 42.8269 67.4863 42.2697 67.4863C41.7124 67.4863 41.1607 67.5961 40.6459 67.8095C40.1311 68.0229 39.6635 68.3357 39.2697 68.73L31.2697 76.73" stroke="#FF3864" stroke-width="2"/>
<path d="M13.6527 73.6583L9.6575 77.6535C7.44713 79.8638 7.44555 83.446 9.65396 85.6544C11.8624 87.8628 15.4445 87.8612 17.6549 85.6509L21.65 81.6557C23.8604 79.4453 23.862 75.8632 21.6536 73.6548C19.4451 71.4464 15.863 71.448 13.6527 73.6583Z" stroke="#FF3864" stroke-width="2"/>
<path d="M20.25 51.75L8 67.73L11.93 75.39" stroke="#FF3864" stroke-width="2"/>
<path d="M19.2695 64.73L23.1295 60.87" stroke="#FF3864" stroke-width="2"/>
<path d="M44.2504 20.25L28.2704 8L20.6104 11.93" stroke="#FF3864" stroke-width="2"/>
<path d="M31.2695 19.27L35.1295 23.13" stroke="#FF3864" stroke-width="2"/>
<path d="M75.75 44.25L88 28.27L84.07 20.61" stroke="#FF3864" stroke-width="2"/>
<path d="M76.7301 31.27L72.8701 35.13" stroke="#FF3864" stroke-width="2"/>
<path d="M51.75 75.75L67.73 88L75.39 84.07" stroke="#FF3864" stroke-width="2"/>
<path d="M64.7301 76.73L60.8701 72.87" stroke="#FF3864" stroke-width="2"/>
<path d="M60.6697 43.43L56.6697 48.43L60.2697 53.72C60.5947 54.2013 60.7584 54.7734 60.7371 55.3538C60.7158 55.9342 60.5107 56.4928 60.1513 56.949C59.7919 57.4052 59.2968 57.7354 58.7375 57.892C58.1783 58.0485 57.5837 58.0233 57.0397 57.82L51.0397 55.57L47.1197 60.57C46.7629 61.0285 46.2697 61.3618 45.7111 61.5216C45.1526 61.6815 44.5577 61.6597 44.0124 61.4594C43.467 61.259 42.9995 60.8906 42.6773 60.4072C42.355 59.9238 42.1948 59.3504 42.2197 58.77L42.5197 52.38L36.5197 50.22C35.972 50.023 35.5013 49.6568 35.1758 49.1744C34.8502 48.6919 34.6868 48.1184 34.709 47.5368C34.7313 46.9552 34.9382 46.3959 35.2997 45.9398C35.6612 45.4837 36.1586 45.1545 36.7197 45L42.8797 43.31L43.0797 36.92C43.0996 36.3425 43.3023 35.7861 43.6586 35.3311C44.0149 34.8761 44.5063 34.5459 45.0622 34.388C45.6182 34.2301 46.2098 34.2527 46.7521 34.4526C47.2943 34.6524 47.7592 35.0191 48.0797 35.5L51.5997 40.84L57.7397 39.05C58.3079 38.8587 58.9233 38.8598 59.4908 39.053C60.0584 39.2463 60.5465 39.6211 60.8799 40.1194C61.2132 40.6177 61.3733 41.2119 61.3353 41.8103C61.2973 42.4086 61.0634 42.9778 60.6697 43.43V43.43Z" stroke="#FF3864" stroke-width="2"/>
<path d="M51.6298 40.89L56.6798 48.43L51.0698 55.57L42.5498 52.43L42.8898 43.36L51.6298 40.89Z" stroke="#FF3864" stroke-width="2"/>
</svg>
