<svg width="208" height="233" viewBox="0 0 208 233" fill="none" xmlns="http://www.w3.org/2000/svg">
<path d="M207.089 168.96H200.109V176.02H207.089V168.96Z" fill="black"/>
<path d="M207.089 161.98H200.109V168.96H207.089V161.98Z" fill="black"/>
<path d="M207.089 154.92H200.109V161.98H207.089V154.92Z" fill="black"/>
<path d="M207.089 147.87H200.109V154.92H207.089V147.87Z" fill="black"/>
<path d="M207.089 140.88H200.109V147.86H207.089V140.88Z" fill="black"/>
<path d="M207.089 133.83H200.109V140.89H207.089V133.83Z" fill="black"/>
<path d="M207.089 126.85H200.109V133.83H207.089V126.85Z" fill="black"/>
<path d="M207.089 119.79H200.109V126.85H207.089V119.79Z" fill="black"/>
<path d="M207.089 112.81H200.109V119.79H207.089V112.81Z" fill="black"/>
<path d="M207.089 105.75H200.109V112.81H207.089V105.75Z" fill="black"/>
<path d="M207.089 98.77H200.109V105.75H207.089V98.77Z" fill="black"/>
<path d="M207.089 91.71H200.109V98.77H207.089V91.71Z" fill="black"/>
<path d="M207.089 84.6602H200.109V91.7202H207.089V84.6602Z" fill="black"/>
<path d="M207.089 56.5801H200.109V63.6401H207.089V56.5801Z" fill="black"/>
<path d="M207.089 49.6001H200.109V56.5801H207.089V49.6001Z" fill="black"/>
<path d="M207.089 42.54H200.109V49.6001H207.089V42.54Z" fill="black"/>
<path d="M207.089 35.4902H200.109V42.5502H207.089V35.4902Z" fill="black"/>
<path d="M200.12 176.02H193.06V183H200.12V176.02Z" fill="black"/>
<path d="M200.12 168.96H193.06V176.02H200.12V168.96Z" fill="#577C57"/>
<path d="M200.12 161.98H193.06V168.96H200.12V161.98Z" fill="#577C57"/>
<path d="M200.12 154.92H193.06V161.98H200.12V154.92Z" fill="#577C57"/>
<path d="M200.12 147.87H193.06V154.92H200.12V147.87Z" fill="#577C57"/>
<path d="M200.12 140.88H193.06V147.86H200.12V140.88Z" fill="#577C57"/>
<path d="M200.12 133.83H193.06V140.89H200.12V133.83Z" fill="#668466"/>
<path d="M200.12 126.85H193.06V133.83H200.12V126.85Z" fill="#668466"/>
<path d="M200.12 119.79H193.06V126.85H200.12V119.79Z" fill="#668466"/>
<path d="M200.12 112.81H193.06V119.79H200.12V112.81Z" fill="#577C57"/>
<path d="M200.12 105.75H193.06V112.81H200.12V105.75Z" fill="#577C57"/>
<path d="M200.12 98.77H193.06V105.75H200.12V98.77Z" fill="#577C57"/>
<path d="M200.12 91.71H193.06V98.77H200.12V91.71Z" fill="#577C57"/>
<path d="M200.12 84.6602H193.06V91.7202H200.12V84.6602Z" fill="#577C57"/>
<path d="M200.12 77.6802H193.06V84.6602H200.12V77.6802Z" fill="black"/>
<path d="M200.12 70.6201H193.06V77.6801H200.12V70.6201Z" fill="black"/>
<path d="M200.12 63.6401H193.06V70.6201H200.12V63.6401Z" fill="black"/>
<path d="M200.12 56.5801H193.06V63.6401H200.12V56.5801Z" fill="#668466"/>
<path d="M200.12 49.6001H193.06V56.5801H200.12V49.6001Z" fill="#446644"/>
<path d="M200.12 42.54H193.06V49.6001H200.12V42.54Z" fill="#446644"/>
<path d="M200.12 35.4902H193.06V42.5502H200.12V35.4902Z" fill="#668466"/>
<path d="M200.12 28.5103H193.06V35.4902H200.12V28.5103Z" fill="black"/>
<path d="M200.12 21.4502H193.06V28.5102H200.12V21.4502Z" fill="black"/>
<path d="M193.06 176.02H186.01V183H193.06V176.02Z" fill="black"/>
<path d="M193.06 168.96H186.01V176.02H193.06V168.96Z" fill="#446644"/>
<path d="M193.06 161.98H186.01V168.96H193.06V161.98Z" fill="#668466"/>
<path d="M193.06 154.92H186.01V161.98H193.06V154.92Z" fill="#668466"/>
<path d="M193.06 147.87H186.01V154.92H193.06V147.87Z" fill="#668466"/>
<path d="M193.06 140.88H186.01V147.86H193.06V140.88Z" fill="#668466"/>
<path d="M193.06 133.83H186.01V140.89H193.06V133.83Z" fill="#668466"/>
<path d="M193.06 126.85H186.01V133.83H193.06V126.85Z" fill="#668466"/>
<path d="M193.06 119.79H186.01V126.85H193.06V119.79Z" fill="#668466"/>
<path d="M193.06 112.81H186.01V119.79H193.06V112.81Z" fill="#668466"/>
<path d="M193.06 105.75H186.01V112.81H193.06V105.75Z" fill="#668466"/>
<path d="M193.06 98.77H186.01V105.75H193.06V98.77Z" fill="#668466"/>
<path d="M193.06 91.71H186.01V98.77H193.06V91.71Z" fill="#668466"/>
<path d="M193.06 84.6602H186.01V91.7202H193.06V84.6602Z" fill="#577C57"/>
<path d="M193.06 77.6802H186.01V84.6602H193.06V77.6802Z" fill="#446644"/>
<path d="M193.06 70.6201H186.01V77.6801H193.06V70.6201Z" fill="#668466"/>
<path d="M193.06 63.6401H186.01V70.6201H193.06V63.6401Z" fill="#668466"/>
<path d="M193.06 56.5801H186.01V63.6401H193.06V56.5801Z" fill="#446644"/>
<path d="M193.06 49.6001H186.01V56.5801H193.06V49.6001Z" fill="#668466"/>
<path d="M193.06 42.54H186.01V49.6001H193.06V42.54Z" fill="#668466"/>
<path d="M193.06 35.4902H186.01V42.5502H193.06V35.4902Z" fill="#446644"/>
<path d="M193.06 28.5103H186.01V35.4902H193.06V28.5103Z" fill="#668466"/>
<path d="M193.06 21.4502H186.01V28.5102H193.06V21.4502Z" fill="black"/>
<path d="M186 176.02H179.01V183H186V176.02Z" fill="black"/>
<path d="M186 168.96H179.01V176.02H186V168.96Z" fill="#446644"/>
<path d="M186 161.98H179.01V168.96H186V161.98Z" fill="#446644"/>
<path d="M186 154.92H179.01V161.98H186V154.92Z" fill="#446644"/>
<path d="M186 147.87H179.01V154.92H186V147.87Z" fill="#668466"/>
<path d="M186 140.88H179.01V147.86H186V140.88Z" fill="#668466"/>
<path d="M186 133.83H179.01V140.89H186V133.83Z" fill="#668466"/>
<path d="M186 126.85H179.01V133.83H186V126.85Z" fill="#668466"/>
<path d="M186 119.79H179.01V126.85H186V119.79Z" fill="#668466"/>
<path d="M186 112.81H179.01V119.79H186V112.81Z" fill="#668466"/>
<path d="M186 105.75H179.01V112.81H186V105.75Z" fill="#668466"/>
<path d="M186 98.77H179.01V105.75H186V98.77Z" fill="#668466"/>
<path d="M186 91.71H179.01V98.77H186V91.71Z" fill="#668466"/>
<path d="M186 84.6602H179.01V91.7202H186V84.6602Z" fill="#668466"/>
<path d="M186 77.6802H179.01V84.6602H186V77.6802Z" fill="#446644"/>
<path d="M186 70.6201H179.01V77.6801H186V70.6201Z" fill="#668466"/>
<path d="M186 63.6401H179.01V70.6201H186V63.6401Z" fill="#668466"/>
<path d="M186 56.5801H179.01V63.6401H186V56.5801Z" fill="#668466"/>
<path d="M186 49.6001H179.01V56.5801H186V49.6001Z" fill="#446644"/>
<path d="M186 42.54H179.01V49.6001H186V42.54Z" fill="#668466"/>
<path d="M186 35.4902H179.01V42.5502H186V35.4902Z" fill="#446644"/>
<path d="M186 28.5103H179.01V35.4902H186V28.5103Z" fill="#668466"/>
<path d="M186 21.4502H179.01V28.5102H186V21.4502Z" fill="black"/>
<path d="M179.02 176.02H171.97V183H179.02V176.02Z" fill="black"/>
<path d="M179.02 168.96H171.97V176.02H179.02V168.96Z" fill="#446644"/>
<path d="M179.02 161.98H171.97V168.96H179.02V161.98Z" fill="#446644"/>
<path d="M179.02 154.92H171.97V161.98H179.02V154.92Z" fill="#446644"/>
<path d="M179.02 147.87H171.97V154.92H179.02V147.87Z" fill="#446644"/>
<path d="M179.02 140.88H171.97V147.86H179.02V140.88Z" fill="#668466"/>
<path d="M179.02 133.83H171.97V140.89H179.02V133.83Z" fill="#668466"/>
<path d="M179.02 126.85H171.97V133.83H179.02V126.85Z" fill="#668466"/>
<path d="M179.02 119.79H171.97V126.85H179.02V119.79Z" fill="black"/>
<path d="M179.02 112.81H171.97V119.79H179.02V112.81Z" fill="black"/>
<path d="M179.02 105.75H171.97V112.81H179.02V105.75Z" fill="black"/>
<path d="M179.02 98.77H171.97V105.75H179.02V98.77Z" fill="black"/>
<path d="M179.02 91.71H171.97V98.77H179.02V91.71Z" fill="black"/>
<path d="M179.02 84.6602H171.97V91.7202H179.02V84.6602Z" fill="#668466"/>
<path d="M179.02 77.6802H171.97V84.6602H179.02V77.6802Z" fill="#446644"/>
<path d="M179.02 70.6201H171.97V77.6801H179.02V70.6201Z" fill="black"/>
<path d="M179.02 63.6401H171.97V70.6201H179.02V63.6401Z" fill="black"/>
<path d="M179.02 56.5801H171.97V63.6401H179.02V56.5801Z" fill="black"/>
<path d="M179.02 49.6001H171.97V56.5801H179.02V49.6001Z" fill="black"/>
<path d="M179.02 42.54H171.97V49.6001H179.02V42.54Z" fill="#668466"/>
<path d="M179.02 35.4902H171.97V42.5502H179.02V35.4902Z" fill="#668466"/>
<path d="M179.02 28.5103H171.97V35.4902H179.02V28.5103Z" fill="#668466"/>
<path d="M179.02 21.4502H171.97V28.5102H179.02V21.4502Z" fill="black"/>
<path d="M171.959 225.19H164.979V232.17H171.959V225.19Z" fill="black"/>
<path d="M171.959 218.13H164.979V225.19H171.959V218.13Z" fill="black"/>
<path d="M171.959 176.02H164.979V183H171.959V176.02Z" fill="black"/>
<path d="M171.959 168.96H164.979V176.02H171.959V168.96Z" fill="#446644"/>
<path d="M171.959 161.98H164.979V168.96H171.959V161.98Z" fill="#446644"/>
<path d="M171.959 154.92H164.979V161.98H171.959V154.92Z" fill="#446644"/>
<path d="M171.959 147.87H164.979V154.92H171.959V147.87Z" fill="#446644"/>
<path d="M171.959 140.88H164.979V147.86H171.959V140.88Z" fill="#446644"/>
<path d="M171.959 133.83H164.979V140.89H171.959V133.83Z" fill="#446644"/>
<path d="M171.959 126.85H164.979V133.83H171.959V126.85Z" fill="black"/>
<path d="M171.959 119.79H164.979V126.85H171.959V119.79Z" fill="#8ABC8A"/>
<path d="M171.959 112.81H164.979V119.79H171.959V112.81Z" fill="#8ABC8A"/>
<path d="M171.959 105.75H164.979V112.81H171.959V105.75Z" fill="#8ABC8A"/>
<path d="M171.959 98.77H164.979V105.75H171.959V98.77Z" fill="#8ABC8A"/>
<path d="M171.959 91.71H164.979V98.77H171.959V91.71Z" fill="#8ABC8A"/>
<path d="M171.959 84.6602H164.979V91.7202H171.959V84.6602Z" fill="black"/>
<path d="M171.959 77.6802H164.979V84.6602H171.959V77.6802Z" fill="#446644"/>
<path d="M171.959 70.6201H164.979V77.6801H171.959V70.6201Z" fill="black"/>
<path d="M171.959 63.6401H164.979V70.6201H171.959V63.6401Z" fill="#969696"/>
<path d="M171.959 56.5801H164.979V63.6401H171.959V56.5801Z" fill="#969696"/>
<path d="M171.959 49.6001H164.979V56.5801H171.959V49.6001Z" fill="black"/>
<path d="M171.959 42.54H164.979V49.6001H171.959V42.54Z" fill="#668466"/>
<path d="M171.959 35.4902H164.979V42.5502H171.959V35.4902Z" fill="#668466"/>
<path d="M171.959 28.5103H164.979V35.4902H171.959V28.5103Z" fill="black"/>
<path d="M164.98 225.19H157.92V232.17H164.98V225.19Z" fill="black"/>
<path d="M164.98 218.13H157.92V225.19H164.98V218.13Z" fill="#724107"/>
<path d="M164.98 211.15H157.92V218.13H164.98V211.15Z" fill="black"/>
<path d="M164.98 204.09H157.92V211.15H164.98V204.09Z" fill="black"/>
<path d="M164.98 168.96H157.92V176.02H164.98V168.96Z" fill="black"/>
<path d="M164.98 161.98H157.92V168.96H164.98V161.98Z" fill="#446644"/>
<path d="M164.98 154.92H157.92V161.98H164.98V154.92Z" fill="#446644"/>
<path d="M164.98 147.87H157.92V154.92H164.98V147.87Z" fill="#446644"/>
<path d="M164.98 140.88H157.92V147.86H164.98V140.88Z" fill="#446644"/>
<path d="M164.98 133.83H157.92V140.89H164.98V133.83Z" fill="black"/>
<path d="M164.98 126.85H157.92V133.83H164.98V126.85Z" fill="#9DCF9D"/>
<path d="M164.98 119.79H157.92V126.85H164.98V119.79Z" fill="#9DCF9D"/>
<path d="M164.98 112.81H157.92V119.79H164.98V112.81Z" fill="#9DCF9D"/>
<path d="M164.98 105.75H157.92V112.81H164.98V105.75Z" fill="#9DCF9D"/>
<path d="M164.98 98.77H157.92V105.75H164.98V98.77Z" fill="#9DCF9D"/>
<path d="M164.98 91.71H157.92V98.77H164.98V91.71Z" fill="#8ABC8A"/>
<path d="M164.98 84.6602H157.92V91.7202H164.98V84.6602Z" fill="#73C6C6"/>
<path d="M164.98 77.6802H157.92V84.6602H164.98V77.6802Z" fill="black"/>
<path d="M164.98 70.6201H157.92V77.6801H164.98V70.6201Z" fill="black"/>
<path d="M164.98 63.6401H157.92V70.6201H164.98V63.6401Z" fill="#969696"/>
<path d="M164.98 56.5801H157.92V63.6401H164.98V56.5801Z" fill="#969696"/>
<path d="M164.98 49.6001H157.92V56.5801H164.98V49.6001Z" fill="#969696"/>
<path d="M164.98 42.54H157.92V49.6001H164.98V42.54Z" fill="black"/>
<path d="M164.98 35.4902H157.92V42.5502H164.98V35.4902Z" fill="black"/>
<path d="M157.919 225.19H150.939V232.17H157.919V225.19Z" fill="black"/>
<path d="M157.919 218.13H150.939V225.19H157.919V218.13Z" fill="#724107"/>
<path d="M157.919 211.15H150.939V218.13H157.919V211.15Z" fill="#4C3A1F"/>
<path d="M157.919 204.09H150.939V211.15H157.919V204.09Z" fill="#4C3A1F"/>
<path d="M157.919 197.04H150.939V204.09H157.919V197.04Z" fill="black"/>
<path d="M157.919 190.05H150.939V197.04H157.919V190.05Z" fill="black"/>
<path d="M157.919 183.01H150.939V190.06H157.919V183.01Z" fill="black"/>
<path d="M157.919 176.02H150.939V183H157.919V176.02Z" fill="black"/>
<path d="M157.919 168.96H150.939V176.02H157.919V168.96Z" fill="black"/>
<path d="M157.919 161.98H150.939V168.96H157.919V161.98Z" fill="black"/>
<path d="M157.919 154.92H150.939V161.98H157.919V154.92Z" fill="black"/>
<path d="M157.919 147.87H150.939V154.92H157.919V147.87Z" fill="#446644"/>
<path d="M157.919 140.88H150.939V147.86H157.919V140.88Z" fill="black"/>
<path d="M157.919 133.83H150.939V140.89H157.919V133.83Z" fill="#668466"/>
<path d="M157.919 126.85H150.939V133.83H157.919V126.85Z" fill="#668466"/>
<path d="M157.919 119.79H150.939V126.85H157.919V119.79Z" fill="#668466"/>
<path d="M157.919 112.81H150.939V119.79H157.919V112.81Z" fill="#668466"/>
<path d="M157.919 105.75H150.939V112.81H157.919V105.75Z" fill="#9DCF9D"/>
<path d="M157.919 98.77H150.939V105.75H157.919V98.77Z" fill="#9DCF9D"/>
<path d="M157.919 91.71H150.939V98.77H157.919V91.71Z" fill="#8ABC8A"/>
<path d="M157.919 84.6602H150.939V91.7202H157.919V84.6602Z" fill="#9FF5F7"/>
<path d="M157.919 77.6802H150.939V84.6602H157.919V77.6802Z" fill="#73C6C6"/>
<path d="M157.919 70.6201H150.939V77.6801H157.919V70.6201Z" fill="#969696"/>
<path d="M157.919 63.6401H150.939V70.6201H157.919V63.6401Z" fill="#969696"/>
<path d="M157.919 56.5801H150.939V63.6401H157.919V56.5801Z" fill="#969696"/>
<path d="M157.919 49.6001H150.939V56.5801H157.919V49.6001Z" fill="#FFD8AE"/>
<path d="M157.919 42.54H150.939V49.6001H157.919V42.54Z" fill="#969696"/>
<path d="M157.919 35.4902H150.939V42.5502H157.919V35.4902Z" fill="black"/>
<path d="M157.919 28.5103H150.939V35.4902H157.919V28.5103Z" fill="black"/>
<path d="M157.919 21.4502H150.939V28.5102H157.919V21.4502Z" fill="black"/>
<path d="M150.95 225.19H143.89V232.17H150.95V225.19Z" fill="black"/>
<path d="M150.95 218.13H143.89V225.19H150.95V218.13Z" fill="#724107"/>
<path d="M150.95 211.15H143.89V218.13H150.95V211.15Z" fill="#4C3A1F"/>
<path d="M150.95 204.09H143.89V211.15H150.95V204.09Z" fill="#4C3A1F"/>
<path d="M150.95 197.04H143.89V204.09H150.95V197.04Z" fill="#4C3A1F"/>
<path d="M150.95 190.05H143.89V197.04H150.95V190.05Z" fill="#4C3A1F"/>
<path d="M150.95 183.01H143.89V190.06H150.95V183.01Z" fill="#4C3A1F"/>
<path d="M150.95 176.02H143.89V183H150.95V176.02Z" fill="#634D27"/>
<path d="M150.95 168.96H143.89V176.02H150.95V168.96Z" fill="#634D27"/>
<path d="M150.95 161.98H143.89V168.96H150.95V161.98Z" fill="#634D27"/>
<path d="M150.95 154.92H143.89V161.98H150.95V154.92Z" fill="#634D27"/>
<path d="M150.95 147.87H143.89V154.92H150.95V147.87Z" fill="black"/>
<path d="M150.95 140.88H143.89V147.86H150.95V140.88Z" fill="black"/>
<path d="M150.95 133.83H143.89V140.89H150.95V133.83Z" fill="#FFD8AE"/>
<path d="M150.95 126.85H143.89V133.83H150.95V126.85Z" fill="#FFD8AE"/>
<path d="M150.95 119.79H143.89V126.85H150.95V119.79Z" fill="#FFD8AE"/>
<path d="M150.95 112.81H143.89V119.79H150.95V112.81Z" fill="#668466"/>
<path d="M150.95 105.75H143.89V112.81H150.95V105.75Z" fill="#9DCF9D"/>
<path d="M150.95 98.77H143.89V105.75H150.95V98.77Z" fill="#8ABC8A"/>
<path d="M150.95 91.71H143.89V98.77H150.95V91.71Z" fill="#9FF5F7"/>
<path d="M150.95 84.6602H143.89V91.7202H150.95V84.6602Z" fill="#9FF5F7"/>
<path d="M150.95 77.6802H143.89V84.6602H150.95V77.6802Z" fill="#9FF5F7"/>
<path d="M150.95 70.6201H143.89V77.6801H150.95V70.6201Z" fill="#73C6C6"/>
<path d="M150.95 63.6401H143.89V70.6201H150.95V63.6401Z" fill="#73C6C6"/>
<path d="M150.95 56.5801H143.89V63.6401H150.95V56.5801Z" fill="#DBAB7B"/>
<path d="M150.95 49.6001H143.89V56.5801H150.95V49.6001Z" fill="#DBAB7B"/>
<path d="M150.95 42.54H143.89V49.6001H150.95V42.54Z" fill="#969696"/>
<path d="M150.95 35.4902H143.89V42.5502H150.95V35.4902Z" fill="#969696"/>
<path d="M150.95 28.5103H143.89V35.4902H150.95V28.5103Z" fill="#969696"/>
<path d="M150.95 21.4502H143.89V28.5102H150.95V21.4502Z" fill="black"/>
<path d="M150.95 14.4702H143.89V21.4502H150.95V14.4702Z" fill="black"/>
<path d="M143.89 225.19H136.84V232.17H143.89V225.19Z" fill="black"/>
<path d="M143.89 218.13H136.84V225.19H143.89V218.13Z" fill="black"/>
<path d="M143.89 211.15H136.84V218.13H143.89V211.15Z" fill="black"/>
<path d="M143.89 204.09H136.84V211.15H143.89V204.09Z" fill="#4C3A1F"/>
<path d="M143.89 197.04H136.84V204.09H143.89V197.04Z" fill="#4C3A1F"/>
<path d="M143.89 190.05H136.84V197.04H143.89V190.05Z" fill="#634D27"/>
<path d="M143.89 183.01H136.84V190.06H143.89V183.01Z" fill="#634D27"/>
<path d="M143.89 176.02H136.84V183H143.89V176.02Z" fill="#634D27"/>
<path d="M143.89 168.96H136.84V176.02H143.89V168.96Z" fill="#634D27"/>
<path d="M143.89 161.98H136.84V168.96H143.89V161.98Z" fill="#634D27"/>
<path d="M143.89 154.92H136.84V161.98H143.89V154.92Z" fill="#634D27"/>
<path d="M143.89 147.87H136.84V154.92H143.89V147.87Z" fill="#4C3A1F"/>
<path d="M143.89 140.88H136.84V147.86H143.89V140.88Z" fill="#8ABC8A"/>
<path d="M143.89 133.83H136.84V140.89H143.89V133.83Z" fill="#FFD8AE"/>
<path d="M143.89 126.85H136.84V133.83H143.89V126.85Z" fill="#FFD8AE"/>
<path d="M143.89 119.79H136.84V126.85H143.89V119.79Z" fill="#FFD8AE"/>
<path d="M143.89 112.81H136.84V119.79H143.89V112.81Z" fill="#9DCF9D"/>
<path d="M143.89 105.75H136.84V112.81H143.89V105.75Z" fill="#9DCF9D"/>
<path d="M143.89 98.77H136.84V105.75H143.89V98.77Z" fill="#9FF5F7"/>
<path d="M143.89 91.71H136.84V98.77H143.89V91.71Z" fill="#9FF5F7"/>
<path d="M143.89 84.6602H136.84V91.7202H143.89V84.6602Z" fill="#73C6C6"/>
<path d="M143.89 77.6802H136.84V84.6602H143.89V77.6802Z" fill="#9FF5F7"/>
<path d="M143.89 70.6201H136.84V77.6801H143.89V70.6201Z" fill="#9FF5F7"/>
<path d="M143.89 63.6401H136.84V70.6201H143.89V63.6401Z" fill="#73C6C6"/>
<path d="M143.89 56.5801H136.84V63.6401H143.89V56.5801Z" fill="#FFD8AE"/>
<path d="M143.89 49.6001H136.84V56.5801H143.89V49.6001Z" fill="#FFD8AE"/>
<path d="M143.89 42.54H136.84V49.6001H143.89V42.54Z" fill="#FFD8AE"/>
<path d="M143.89 35.4902H136.84V42.5502H143.89V35.4902Z" fill="#AFAFAF"/>
<path d="M143.89 28.5103H136.84V35.4902H143.89V28.5103Z" fill="#AFAFAF"/>
<path d="M143.89 21.4502H136.84V28.5102H143.89V21.4502Z" fill="#969696"/>
<path d="M143.89 14.4702H136.84V21.4502H143.89V14.4702Z" fill="#969696"/>
<path d="M143.89 7.41016H136.84V14.4702H143.89V7.41016Z" fill="black"/>
<path d="M136.83 204.09H129.85V211.15H136.83V204.09Z" fill="black"/>
<path d="M136.83 197.04H129.85V204.09H136.83V197.04Z" fill="black"/>
<path d="M136.83 190.05H129.85V197.04H136.83V190.05Z" fill="#634D27"/>
<path d="M136.83 183.01H129.85V190.06H136.83V183.01Z" fill="#634D27"/>
<path d="M136.83 176.02H129.85V183H136.83V176.02Z" fill="#634D27"/>
<path d="M136.83 168.96H129.85V176.02H136.83V168.96Z" fill="#634D27"/>
<path d="M136.83 161.98H129.85V168.96H136.83V161.98Z" fill="#634D27"/>
<path d="M136.83 154.92H129.85V161.98H136.83V154.92Z" fill="#634D27"/>
<path d="M136.83 147.87H129.85V154.92H136.83V147.87Z" fill="#4C3A1F"/>
<path d="M136.83 140.88H129.85V147.86H136.83V140.88Z" fill="#8ABC8A"/>
<path d="M136.83 133.83H129.85V140.89H136.83V133.83Z" fill="#9DCF9D"/>
<path d="M136.83 126.85H129.85V133.83H136.83V126.85Z" fill="#9DCF9D"/>
<path d="M136.83 119.79H129.85V126.85H136.83V119.79Z" fill="#FFD8AE"/>
<path d="M136.83 112.81H129.85V119.79H136.83V112.81Z" fill="#9DCF9D"/>
<path d="M136.83 105.75H129.85V112.81H136.83V105.75Z" fill="#73C6C6"/>
<path d="M136.83 98.77H129.85V105.75H136.83V98.77Z" fill="#9FF5F7"/>
<path d="M136.83 91.71H129.85V98.77H136.83V91.71Z" fill="#9FF5F7"/>
<path d="M136.83 84.6602H129.85V91.7202H136.83V84.6602Z" fill="#9FF5F7"/>
<path d="M136.83 77.6802H129.85V84.6602H136.83V77.6802Z" fill="#73C6C6"/>
<path d="M136.83 70.6201H129.85V77.6801H136.83V70.6201Z" fill="#73C6C6"/>
<path d="M136.83 63.6401H129.85V70.6201H136.83V63.6401Z" fill="#FFD8AE"/>
<path d="M136.83 56.5801H129.85V63.6401H136.83V56.5801Z" fill="#FFD8AE"/>
<path d="M136.83 49.6001H129.85V56.5801H136.83V49.6001Z" fill="black"/>
<path d="M136.83 42.54H129.85V49.6001H136.83V42.54Z" fill="#FFD8AE"/>
<path d="M136.83 35.4902H129.85V42.5502H136.83V35.4902Z" fill="#AFAFAF"/>
<path d="M136.83 28.5103H129.85V35.4902H136.83V28.5103Z" fill="#AFAFAF"/>
<path d="M136.83 21.4502H129.85V28.5102H136.83V21.4502Z" fill="#AFAFAF"/>
<path d="M136.83 14.4702H129.85V21.4502H136.83V14.4702Z" fill="#969696"/>
<path d="M136.83 7.41016H129.85V14.4702H136.83V7.41016Z" fill="black"/>
<path d="M129.85 197.04H122.79V204.09H129.85V197.04Z" fill="black"/>
<path d="M129.85 190.05H122.79V197.04H129.85V190.05Z" fill="black"/>
<path d="M129.85 183.01H122.79V190.06H129.85V183.01Z" fill="black"/>
<path d="M129.85 176.02H122.79V183H129.85V176.02Z" fill="#634D27"/>
<path d="M129.85 168.96H122.79V176.02H129.85V168.96Z" fill="#634D27"/>
<path d="M129.85 161.98H122.79V168.96H129.85V161.98Z" fill="#634D27"/>
<path d="M129.85 154.92H122.79V161.98H129.85V154.92Z" fill="#634D27"/>
<path d="M129.85 147.87H122.79V154.92H129.85V147.87Z" fill="#4C3A1F"/>
<path d="M129.85 140.88H122.79V147.86H129.85V140.88Z" fill="#8ABC8A"/>
<path d="M129.85 133.83H122.79V140.89H129.85V133.83Z" fill="#9DCF9D"/>
<path d="M129.85 126.85H122.79V133.83H129.85V126.85Z" fill="#9DCF9D"/>
<path d="M129.85 119.79H122.79V126.85H129.85V119.79Z" fill="#9DCF9D"/>
<path d="M129.85 112.81H122.79V119.79H129.85V112.81Z" fill="#9DCF9D"/>
<path d="M129.85 105.75H122.79V112.81H129.85V105.75Z" fill="#8ABC8A"/>
<path d="M129.85 98.77H122.79V105.75H129.85V98.77Z" fill="#73C6C6"/>
<path d="M129.85 91.71H122.79V98.77H129.85V91.71Z" fill="#9FF5F7"/>
<path d="M129.85 84.6602H122.79V91.7202H129.85V84.6602Z" fill="#9FF5F7"/>
<path d="M129.85 77.6802H122.79V84.6602H129.85V77.6802Z" fill="#9FF5F7"/>
<path d="M129.85 70.6201H122.79V77.6801H129.85V70.6201Z" fill="#73C6C6"/>
<path d="M129.85 63.6401H122.79V70.6201H129.85V63.6401Z" fill="#FFD8AE"/>
<path d="M129.85 56.5801H122.79V63.6401H129.85V56.5801Z" fill="#FFD8AE"/>
<path d="M129.85 49.6001H122.79V56.5801H129.85V49.6001Z" fill="#FFD8AE"/>
<path d="M129.85 42.54H122.79V49.6001H129.85V42.54Z" fill="#FFD8AE"/>
<path d="M129.85 35.4902H122.79V42.5502H129.85V35.4902Z" fill="#AFAFAF"/>
<path d="M129.85 28.5103H122.79V35.4902H129.85V28.5103Z" fill="#AFAFAF"/>
<path d="M129.85 21.4502H122.79V28.5102H129.85V21.4502Z" fill="#AFAFAF"/>
<path d="M129.85 14.4702H122.79V21.4502H129.85V14.4702Z" fill="#969696"/>
<path d="M129.85 7.41016H122.79V14.4702H129.85V7.41016Z" fill="black"/>
<path d="M122.79 225.19H115.81V232.17H122.79V225.19Z" fill="black"/>
<path d="M122.79 218.13H115.81V225.19H122.79V218.13Z" fill="black"/>
<path d="M122.79 211.15H115.81V218.13H122.79V211.15Z" fill="black"/>
<path d="M122.79 204.09H115.81V211.15H122.79V204.09Z" fill="black"/>
<path d="M122.79 197.04H115.81V204.09H122.79V197.04Z" fill="#4C3A1F"/>
<path d="M122.79 190.05H115.81V197.04H122.79V190.05Z" fill="#634D27"/>
<path d="M122.79 183.01H115.81V190.06H122.79V183.01Z" fill="#634D27"/>
<path d="M122.79 176.02H115.81V183H122.79V176.02Z" fill="#634D27"/>
<path d="M122.79 168.96H115.81V176.02H122.79V168.96Z" fill="#634D27"/>
<path d="M122.79 161.98H115.81V168.96H122.79V161.98Z" fill="#634D27"/>
<path d="M122.79 154.92H115.81V161.98H122.79V154.92Z" fill="#4C3A1F"/>
<path d="M122.79 147.87H115.81V154.92H122.79V147.87Z" fill="#8ABC8A"/>
<path d="M122.79 140.88H115.81V147.86H122.79V140.88Z" fill="#8ABC8A"/>
<path d="M122.79 133.83H115.81V140.89H122.79V133.83Z" fill="#9DCF9D"/>
<path d="M122.79 126.85H115.81V133.83H122.79V126.85Z" fill="#9DCF9D"/>
<path d="M122.79 119.79H115.81V126.85H122.79V119.79Z" fill="#9DCF9D"/>
<path d="M122.79 112.81H115.81V119.79H122.79V112.81Z" fill="#9DCF9D"/>
<path d="M122.79 105.75H115.81V112.81H122.79V105.75Z" fill="#8ABC8A"/>
<path d="M122.79 98.77H115.81V105.75H122.79V98.77Z" fill="#8ABC8A"/>
<path d="M122.79 91.71H115.81V98.77H122.79V91.71Z" fill="#73C6C6"/>
<path d="M122.79 84.6602H115.81V91.7202H122.79V84.6602Z" fill="#9FF5F7"/>
<path d="M122.79 77.6802H115.81V84.6602H122.79V77.6802Z" fill="#9FF5F7"/>
<path d="M122.79 70.6201H115.81V77.6801H122.79V70.6201Z" fill="#73C6C6"/>
<path d="M122.79 63.6401H115.81V70.6201H122.79V63.6401Z" fill="#FFD8AE"/>
<path d="M122.79 56.5801H115.81V63.6401H122.79V56.5801Z" fill="#FFD8AE"/>
<path d="M122.79 49.6001H115.81V56.5801H122.79V49.6001Z" fill="#FFD8AE"/>
<path d="M122.79 42.54H115.81V49.6001H122.79V42.54Z" fill="#FFD8AE"/>
<path d="M122.79 35.4902H115.81V42.5502H122.79V35.4902Z" fill="#AFAFAF"/>
<path d="M122.79 28.5103H115.81V35.4902H122.79V28.5103Z" fill="#AFAFAF"/>
<path d="M122.79 21.4502H115.81V28.5102H122.79V21.4502Z" fill="#AFAFAF"/>
<path d="M122.79 14.4702H115.81V21.4502H122.79V14.4702Z" fill="#AFAFAF"/>
<path d="M122.79 7.41016H115.81V14.4702H122.79V7.41016Z" fill="#969696"/>
<path d="M122.79 0.430176H115.81V7.41018H122.79V0.430176Z" fill="black"/>
<path d="M115.81 225.19H108.75V232.17H115.81V225.19Z" fill="black"/>
<path d="M115.81 218.13H108.75V225.19H115.81V218.13Z" fill="#724107"/>
<path d="M115.81 211.15H108.75V218.13H115.81V211.15Z" fill="#4C3A1F"/>
<path d="M115.81 204.09H108.75V211.15H115.81V204.09Z" fill="#4C3A1F"/>
<path d="M115.81 197.04H108.75V204.09H115.81V197.04Z" fill="#4C3A1F"/>
<path d="M115.81 190.05H108.75V197.04H115.81V190.05Z" fill="#4C3A1F"/>
<path d="M115.81 183.01H108.75V190.06H115.81V183.01Z" fill="#634D27"/>
<path d="M115.81 176.02H108.75V183H115.81V176.02Z" fill="#634D27"/>
<path d="M115.81 168.96H108.75V176.02H115.81V168.96Z" fill="#634D27"/>
<path d="M115.81 161.98H108.75V168.96H115.81V161.98Z" fill="#634D27"/>
<path d="M115.81 154.92H108.75V161.98H115.81V154.92Z" fill="#4C3A1F"/>
<path d="M115.81 147.87H108.75V154.92H115.81V147.87Z" fill="#8ABC8A"/>
<path d="M115.81 140.88H108.75V147.86H115.81V140.88Z" fill="#9DCF9D"/>
<path d="M115.81 133.83H108.75V140.89H115.81V133.83Z" fill="#9FF5F7"/>
<path d="M115.81 126.85H108.75V133.83H115.81V126.85Z" fill="#9DCF9D"/>
<path d="M115.81 119.79H108.75V126.85H115.81V119.79Z" fill="#9DCF9D"/>
<path d="M115.81 112.81H108.75V119.79H115.81V112.81Z" fill="#9FF5F7"/>
<path d="M115.81 105.75H108.75V112.81H115.81V105.75Z" fill="#9DCF9D"/>
<path d="M115.81 98.77H108.75V105.75H115.81V98.77Z" fill="#9DCF9D"/>
<path d="M115.81 91.71H108.75V98.77H115.81V91.71Z" fill="#73C6C6"/>
<path d="M115.81 84.6602H108.75V91.7202H115.81V84.6602Z" fill="#9FF5F7"/>
<path d="M115.81 77.6802H108.75V84.6602H115.81V77.6802Z" fill="#9FF5F7"/>
<path d="M115.81 70.6201H108.75V77.6801H115.81V70.6201Z" fill="#73C6C6"/>
<path d="M115.81 63.6401H108.75V70.6201H115.81V63.6401Z" fill="#FFD8AE"/>
<path d="M115.81 56.5801H108.75V63.6401H115.81V56.5801Z" fill="#FFD8AE"/>
<path d="M115.81 49.6001H108.75V56.5801H115.81V49.6001Z" fill="black"/>
<path d="M115.81 42.54H108.75V49.6001H115.81V42.54Z" fill="#FFD8AE"/>
<path d="M115.81 35.4902H108.75V42.5502H115.81V35.4902Z" fill="#AFAFAF"/>
<path d="M115.81 28.5103H108.75V35.4902H115.81V28.5103Z" fill="#AFAFAF"/>
<path d="M115.81 21.4502H108.75V28.5102H115.81V21.4502Z" fill="#AFAFAF"/>
<path d="M115.81 14.4702H108.75V21.4502H115.81V14.4702Z" fill="#AFAFAF"/>
<path d="M115.81 7.41016H108.75V14.4702H115.81V7.41016Z" fill="#969696"/>
<path d="M115.81 0.430176H108.75V7.41018H115.81V0.430176Z" fill="black"/>
<path d="M108.75 225.19H101.77V232.17H108.75V225.19Z" fill="black"/>
<path d="M108.75 218.13H101.77V225.19H108.75V218.13Z" fill="#724107"/>
<path d="M108.75 211.15H101.77V218.13H108.75V211.15Z" fill="#4C3A1F"/>
<path d="M108.75 204.09H101.77V211.15H108.75V204.09Z" fill="#4C3A1F"/>
<path d="M108.75 197.04H101.77V204.09H108.75V197.04Z" fill="#4C3A1F"/>
<path d="M108.75 190.05H101.77V197.04H108.75V190.05Z" fill="#4C3A1F"/>
<path d="M108.75 183.01H101.77V190.06H108.75V183.01Z" fill="#4C3A1F"/>
<path d="M108.75 176.02H101.77V183H108.75V176.02Z" fill="#634D27"/>
<path d="M108.75 168.96H101.77V176.02H108.75V168.96Z" fill="#634D27"/>
<path d="M108.75 161.98H101.77V168.96H108.75V161.98Z" fill="#634D27"/>
<path d="M108.75 154.92H101.77V161.98H108.75V154.92Z" fill="#4C3A1F"/>
<path d="M108.75 147.87H101.77V154.92H108.75V147.87Z" fill="#668466"/>
<path d="M108.75 140.88H101.77V147.86H108.75V140.88Z" fill="#668466"/>
<path d="M108.75 133.83H101.77V140.89H108.75V133.83Z" fill="#668466"/>
<path d="M108.75 126.85H101.77V133.83H108.75V126.85Z" fill="#668466"/>
<path d="M108.75 119.79H101.77V126.85H108.75V119.79Z" fill="#668466"/>
<path d="M108.75 112.81H101.77V119.79H108.75V112.81Z" fill="#668466"/>
<path d="M108.75 105.75H101.77V112.81H108.75V105.75Z" fill="#668466"/>
<path d="M108.75 98.77H101.77V105.75H108.75V98.77Z" fill="#668466"/>
<path d="M108.75 91.71H101.77V98.77H108.75V91.71Z" fill="#73C6C6"/>
<path d="M108.75 84.6602H101.77V91.7202H108.75V84.6602Z" fill="#9FF5F7"/>
<path d="M108.75 77.6802H101.77V84.6602H108.75V77.6802Z" fill="#73C6C6"/>
<path d="M108.75 70.6201H101.77V77.6801H108.75V70.6201Z" fill="#73C6C6"/>
<path d="M108.75 63.6401H101.77V70.6201H108.75V63.6401Z" fill="#FFD8AE"/>
<path d="M108.75 56.5801H101.77V63.6401H108.75V56.5801Z" fill="#FFD8AE"/>
<path d="M108.75 49.6001H101.77V56.5801H108.75V49.6001Z" fill="#FFD8AE"/>
<path d="M108.75 42.54H101.77V49.6001H108.75V42.54Z" fill="#AFAFAF"/>
<path d="M108.75 35.4902H101.77V42.5502H108.75V35.4902Z" fill="#AFAFAF"/>
<path d="M108.75 28.5103H101.77V35.4902H108.75V28.5103Z" fill="#AFAFAF"/>
<path d="M108.75 21.4502H101.77V28.5102H108.75V21.4502Z" fill="#AFAFAF"/>
<path d="M108.75 14.4702H101.77V21.4502H108.75V14.4702Z" fill="#AFAFAF"/>
<path d="M108.75 7.41016H101.77V14.4702H108.75V7.41016Z" fill="#AFAFAF"/>
<path d="M108.75 0.430176H101.77V7.41018H108.75V0.430176Z" fill="black"/>
<path d="M101.78 225.19H94.7197V232.17H101.78V225.19Z" fill="black"/>
<path d="M101.78 218.13H94.7197V225.19H101.78V218.13Z" fill="#724107"/>
<path d="M101.78 211.15H94.7197V218.13H101.78V211.15Z" fill="#724107"/>
<path d="M101.78 204.09H94.7197V211.15H101.78V204.09Z" fill="black"/>
<path d="M101.78 197.04H94.7197V204.09H101.78V197.04Z" fill="black"/>
<path d="M101.78 190.05H94.7197V197.04H101.78V190.05Z" fill="black"/>
<path d="M101.78 183.01H94.7197V190.06H101.78V183.01Z" fill="#4C3A1F"/>
<path d="M101.78 176.02H94.7197V183H101.78V176.02Z" fill="#4C3A1F"/>
<path d="M101.78 168.96H94.7197V176.02H101.78V168.96Z" fill="#4C3A1F"/>
<path d="M101.78 161.98H94.7197V168.96H101.78V161.98Z" fill="#4C3A1F"/>
<path d="M101.78 154.92H94.7197V161.98H101.78V154.92Z" fill="#4C3A1F"/>
<path d="M101.78 147.87H94.7197V154.92H101.78V147.87Z" fill="#8ABC8A"/>
<path d="M101.78 140.88H94.7197V147.86H101.78V140.88Z" fill="#9DCF9D"/>
<path d="M101.78 133.83H94.7197V140.89H101.78V133.83Z" fill="#9DCF9D"/>
<path d="M101.78 126.85H94.7197V133.83H101.78V126.85Z" fill="#9DCF9D"/>
<path d="M101.78 119.79H94.7197V126.85H101.78V119.79Z" fill="#9DCF9D"/>
<path d="M101.78 112.81H94.7197V119.79H101.78V112.81Z" fill="#9DCF9D"/>
<path d="M101.78 105.75H94.7197V112.81H101.78V105.75Z" fill="#9DCF9D"/>
<path d="M101.78 98.77H94.7197V105.75H101.78V98.77Z" fill="#73C6C6"/>
<path d="M101.78 91.71H94.7197V98.77H101.78V91.71Z" fill="#9FF5F7"/>
<path d="M101.78 84.6602H94.7197V91.7202H101.78V84.6602Z" fill="#9FF5F7"/>
<path d="M101.78 77.6802H94.7197V84.6602H101.78V77.6802Z" fill="#73C6C6"/>
<path d="M101.78 70.6201H94.7197V77.6801H101.78V70.6201Z" fill="#73C6C6"/>
<path d="M101.78 63.6401H94.7197V70.6201H101.78V63.6401Z" fill="#969696"/>
<path d="M101.78 56.5801H94.7197V63.6401H101.78V56.5801Z" fill="#FFD8AE"/>
<path d="M101.78 49.6001H94.7197V56.5801H101.78V49.6001Z" fill="#AFAFAF"/>
<path d="M101.78 42.54H94.7197V49.6001H101.78V42.54Z" fill="#AFAFAF"/>
<path d="M101.78 35.4902H94.7197V42.5502H101.78V35.4902Z" fill="#AFAFAF"/>
<path d="M101.78 28.5103H94.7197V35.4902H101.78V28.5103Z" fill="#AFAFAF"/>
<path d="M101.78 21.4502H94.7197V28.5102H101.78V21.4502Z" fill="#AFAFAF"/>
<path d="M101.78 14.4702H94.7197V21.4502H101.78V14.4702Z" fill="#AFAFAF"/>
<path d="M101.78 7.41016H94.7197V14.4702H101.78V7.41016Z" fill="black"/>
<path d="M94.7095 225.19H87.7295V232.17H94.7095V225.19Z" fill="black"/>
<path d="M94.7095 218.13H87.7295V225.19H94.7095V218.13Z" fill="#724107"/>
<path d="M94.7095 211.15H87.7295V218.13H94.7095V211.15Z" fill="black"/>
<path d="M94.7095 183.01H87.7295V190.06H94.7095V183.01Z" fill="black"/>
<path d="M94.7095 176.02H87.7295V183H94.7095V176.02Z" fill="black"/>
<path d="M94.7095 168.96H87.7295V176.02H94.7095V168.96Z" fill="black"/>
<path d="M94.7095 161.98H87.7295V168.96H94.7095V161.98Z" fill="black"/>
<path d="M94.7095 154.92H87.7295V161.98H94.7095V154.92Z" fill="black"/>
<path d="M94.7095 147.87H87.7295V154.92H94.7095V147.87Z" fill="black"/>
<path d="M94.7095 140.88H87.7295V147.86H94.7095V140.88Z" fill="#9DCF9D"/>
<path d="M94.7095 133.83H87.7295V140.89H94.7095V133.83Z" fill="#9DCF9D"/>
<path d="M94.7095 126.85H87.7295V133.83H94.7095V126.85Z" fill="#9DCF9D"/>
<path d="M94.7095 119.79H87.7295V126.85H94.7095V119.79Z" fill="#9DCF9D"/>
<path d="M94.7095 112.81H87.7295V119.79H94.7095V112.81Z" fill="#9DCF9D"/>
<path d="M94.7095 105.75H87.7295V112.81H94.7095V105.75Z" fill="#9DCF9D"/>
<path d="M94.7095 98.77H87.7295V105.75H94.7095V98.77Z" fill="#73C6C6"/>
<path d="M94.7095 91.71H87.7295V98.77H94.7095V91.71Z" fill="#73C6C6"/>
<path d="M94.7095 84.6602H87.7295V91.7202H94.7095V84.6602Z" fill="#73C6C6"/>
<path d="M94.7095 77.6802H87.7295V84.6602H94.7095V77.6802Z" fill="black"/>
<path d="M94.7095 70.6201H87.7295V77.6801H94.7095V70.6201Z" fill="#969696"/>
<path d="M94.7095 63.6401H87.7295V70.6201H94.7095V63.6401Z" fill="#969696"/>
<path d="M94.7095 56.5801H87.7295V63.6401H94.7095V56.5801Z" fill="#969696"/>
<path d="M94.7095 49.6001H87.7295V56.5801H94.7095V49.6001Z" fill="#969696"/>
<path d="M94.7095 42.54H87.7295V49.6001H94.7095V42.54Z" fill="black"/>
<path d="M94.7095 35.4902H87.7295V42.5502H94.7095V35.4902Z" fill="#AFAFAF"/>
<path d="M94.7095 28.5103H87.7295V35.4902H94.7095V28.5103Z" fill="#AFAFAF"/>
<path d="M94.7095 21.4502H87.7295V28.5102H94.7095V21.4502Z" fill="#AFAFAF"/>
<path d="M94.7095 14.4702H87.7295V21.4502H94.7095V14.4702Z" fill="#969696"/>
<path d="M94.7095 7.41016H87.7295V14.4702H94.7095V7.41016Z" fill="black"/>
<path d="M87.7397 225.19H80.6797V232.17H87.7397V225.19Z" fill="black"/>
<path d="M87.7397 218.13H80.6797V225.19H87.7397V218.13Z" fill="black"/>
<path d="M87.7397 140.88H80.6797V147.86H87.7397V140.88Z" fill="black"/>
<path d="M87.7397 133.83H80.6797V140.89H87.7397V133.83Z" fill="#9DCF9D"/>
<path d="M87.7397 126.85H80.6797V133.83H87.7397V126.85Z" fill="#668466"/>
<path d="M87.7397 119.79H80.6797V126.85H87.7397V119.79Z" fill="#4F704F"/>
<path d="M87.7397 112.81H80.6797V119.79H87.7397V112.81Z" fill="#4F704F"/>
<path d="M87.7397 105.75H80.6797V112.81H87.7397V105.75Z" fill="black"/>
<path d="M87.7397 98.77H80.6797V105.75H87.7397V98.77Z" fill="black"/>
<path d="M87.7397 91.71H80.6797V98.77H87.7397V91.71Z" fill="black"/>
<path d="M87.7397 84.6602H80.6797V91.7202H87.7397V84.6602Z" fill="black"/>
<path d="M87.7397 70.6201H80.6797V77.6801H87.7397V70.6201Z" fill="black"/>
<path d="M87.7397 63.6401H80.6797V70.6201H87.7397V63.6401Z" fill="#969696"/>
<path d="M87.7397 56.5801H80.6797V63.6401H87.7397V56.5801Z" fill="black"/>
<path d="M87.7397 49.6001H80.6797V56.5801H87.7397V49.6001Z" fill="black"/>
<path d="M87.7397 28.5103H80.6797V35.4902H87.7397V28.5103Z" fill="black"/>
<path d="M87.7397 21.4502H80.6797V28.5102H87.7397V21.4502Z" fill="#969696"/>
<path d="M87.7397 14.4702H80.6797V21.4502H87.7397V14.4702Z" fill="black"/>
<path d="M80.6801 140.88H73.6201V147.86H80.6801V140.88Z" fill="black"/>
<path d="M80.6801 133.83H73.6201V140.89H80.6801V133.83Z" fill="#668466"/>
<path d="M80.6801 126.85H73.6201V133.83H80.6801V126.85Z" fill="#668466"/>
<path d="M80.6801 119.79H73.6201V126.85H80.6801V119.79Z" fill="#668466"/>
<path d="M80.6801 112.81H73.6201V119.79H80.6801V112.81Z" fill="#4F704F"/>
<path d="M80.6801 105.75H73.6201V112.81H80.6801V105.75Z" fill="black"/>
<path d="M80.6801 70.6201H73.6201V77.6801H80.6801V70.6201Z" fill="black"/>
<path d="M80.6801 63.6401H73.6201V70.6201H80.6801V63.6401Z" fill="black"/>
<path d="M80.6801 56.5801H73.6201V63.6401H80.6801V56.5801Z" fill="black"/>
<path d="M80.6801 35.4902H73.6201V42.5502H80.6801V35.4902Z" fill="black"/>
<path d="M80.6801 28.5103H73.6201V35.4902H80.6801V28.5103Z" fill="#969696"/>
<path d="M80.6801 21.4502H73.6201V28.5102H80.6801V21.4502Z" fill="black"/>
<path d="M73.6196 147.87H66.6396V154.92H73.6196V147.87Z" fill="black"/>
<path d="M73.6196 140.88H66.6396V147.86H73.6196V140.88Z" fill="#4F704F"/>
<path d="M73.6196 133.83H66.6396V140.89H73.6196V133.83Z" fill="#668466"/>
<path d="M73.6196 126.85H66.6396V133.83H73.6196V126.85Z" fill="#4F704F"/>
<path d="M73.6196 119.79H66.6396V126.85H73.6196V119.79Z" fill="#668466"/>
<path d="M73.6196 112.81H66.6396V119.79H73.6196V112.81Z" fill="#668466"/>
<path d="M73.6196 105.75H66.6396V112.81H73.6196V105.75Z" fill="black"/>
<path d="M73.6196 98.77H66.6396V105.75H73.6196V98.77Z" fill="black"/>
<path d="M73.6196 28.5103H66.6396V35.4902H73.6196V28.5103Z" fill="black"/>
<path d="M66.6401 147.87H59.5801V154.92H66.6401V147.87Z" fill="black"/>
<path d="M66.6401 140.88H59.5801V147.86H66.6401V140.88Z" fill="#4F704F"/>
<path d="M66.6401 133.83H59.5801V140.89H66.6401V133.83Z" fill="#4F704F"/>
<path d="M66.6401 126.85H59.5801V133.83H66.6401V126.85Z" fill="#668466"/>
<path d="M66.6401 119.79H59.5801V126.85H66.6401V119.79Z" fill="#668466"/>
<path d="M66.6401 112.81H59.5801V119.79H66.6401V112.81Z" fill="black"/>
<path d="M59.5796 147.87H52.5996V154.92H59.5796V147.87Z" fill="black"/>
<path d="M59.5796 140.88H52.5996V147.86H59.5796V140.88Z" fill="#4F704F"/>
<path d="M59.5796 133.83H52.5996V140.89H59.5796V133.83Z" fill="#FFD8AE"/>
<path d="M59.5796 126.85H52.5996V133.83H59.5796V126.85Z" fill="#FFD8AE"/>
<path d="M59.5796 119.79H52.5996V126.85H59.5796V119.79Z" fill="black"/>
<path d="M52.6098 147.87H45.5498V154.92H52.6098V147.87Z" fill="black"/>
<path d="M52.6098 140.88H45.5498V147.86H52.6098V140.88Z" fill="#4F704F"/>
<path d="M52.6098 133.83H45.5498V140.89H52.6098V133.83Z" fill="#FFD8AE"/>
<path d="M52.6098 126.85H45.5498V133.83H52.6098V126.85Z" fill="black"/>
<path d="M45.5396 140.88H38.5596V147.86H45.5396V140.88Z" fill="black"/>
<path d="M45.5396 133.83H38.5596V140.89H45.5396V133.83Z" fill="#FFD8AE"/>
<path d="M45.5396 126.85H38.5596V133.83H45.5396V126.85Z" fill="black"/>
<path d="M38.5698 140.88H31.5098V147.86H38.5698V140.88Z" fill="black"/>
<path d="M38.5698 133.83H31.5098V140.89H38.5698V133.83Z" fill="#FFD8AE"/>
<path d="M38.5698 126.85H31.5098V133.83H38.5698V126.85Z" fill="black"/>
<path d="M31.5092 133.83H24.4492V140.89H31.5092V133.83Z" fill="black"/>
<path d="M31.5092 126.85H24.4492V133.83H31.5092V126.85Z" fill="black"/>
<path d="M24.4497 126.85H17.4697V133.83H24.4497V126.85Z" fill="black"/>
<path d="M17.4702 126.85H10.4102V133.83H17.4702V126.85Z" fill="black"/>
<path d="M10.4097 126.85H3.42969V133.83H10.4097V126.85Z" fill="black"/>
<path d="M163.83 100.21H160.3V103.74H163.83V100.21Z" fill="#594F4F"/>
<path d="M160.3 103.74H156.7V107.34H160.3V103.74Z" fill="#594F4F"/>
<path d="M160.3 100.21H156.7V103.74H160.3V100.21Z" fill="black"/>
<path d="M160.3 96.6802H156.7V100.21H160.3V96.6802Z" fill="#594F4F"/>
<path d="M156.7 107.34H153.17V110.87H156.7V107.34Z" fill="#594F4F"/>
<path d="M156.7 103.74H153.17V107.34H156.7V103.74Z" fill="black"/>
<path d="M156.7 100.21H153.17V103.74H156.7V100.21Z" fill="#594F4F"/>
<path d="M153.169 110.86H149.649V114.46H153.169V110.86Z" fill="#594F4F"/>
<path d="M153.169 107.34H149.649V110.87H153.169V107.34Z" fill="black"/>
<path d="M153.169 103.74H149.649V107.34H153.169V103.74Z" fill="#594F4F"/>
<path d="M149.65 110.86H146.05V114.46H149.65V110.86Z" fill="black"/>
<path d="M149.65 107.34H146.05V110.87H149.65V107.34Z" fill="#594F4F"/>
<path d="M146.05 114.46H142.52V117.99H146.05V114.46Z" fill="black"/>
<path d="M142.52 117.99H138.92V121.52H142.52V117.99Z" fill="black"/>
<path d="M135.389 128.65H131.859V132.18H135.389V128.65Z" fill="black"/>
<path d="M131.86 132.17H128.26V135.77H131.86V132.17Z" fill="black"/>
<path d="M74.9196 96.6802H71.3896V100.21H74.9196V96.6802Z" fill="black"/>
<path d="M71.3894 110.86H67.8594V114.46H71.3894V110.86Z" fill="black"/>
<path d="M71.3894 96.6802H67.8594V100.21H71.3894V96.6802Z" fill="black"/>
<path d="M67.8598 110.86H64.2598V114.46H67.8598V110.86Z" fill="black"/>
<path d="M67.8598 107.34H64.2598V110.87H67.8598V107.34Z" fill="#DDCA6C"/>
<path d="M67.8598 103.74H64.2598V107.34H67.8598V103.74Z" fill="#DDCA6C"/>
<path d="M67.8598 100.21H64.2598V103.74H67.8598V100.21Z" fill="#DDCA6C"/>
<path d="M67.8598 96.6802H64.2598V100.21H67.8598V96.6802Z" fill="black"/>
<path d="M64.2702 117.99H60.7402V121.52H64.2702V117.99Z" fill="black"/>
<path d="M64.2702 114.46H60.7402V117.99H64.2702V114.46Z" fill="#DDCA6C"/>
<path d="M64.2702 110.86H60.7402V114.46H64.2702V110.86Z" fill="#DDCA6C"/>
<path d="M64.2702 107.34H60.7402V110.87H64.2702V107.34Z" fill="#FCE76B"/>
<path d="M64.2702 103.74H60.7402V107.34H64.2702V103.74Z" fill="#FCE76B"/>
<path d="M64.2702 100.21H60.7402V103.74H64.2702V100.21Z" fill="#DDCA6C"/>
<path d="M64.2702 96.6802H60.7402V100.21H64.2702V96.6802Z" fill="black"/>
<path d="M60.74 117.99H57.21V121.52H60.74V117.99Z" fill="black"/>
<path d="M60.74 114.46H57.21V117.99H60.74V114.46Z" fill="#DDCA6C"/>
<path d="M60.74 110.86H57.21V114.46H60.74V110.86Z" fill="#FCE76B"/>
<path d="M60.74 107.34H57.21V110.87H60.74V107.34Z" fill="#FCE76B"/>
<path d="M60.74 103.74H57.21V107.34H60.74V103.74Z" fill="#FCE76B"/>
<path d="M60.74 100.21H57.21V103.74H60.74V100.21Z" fill="#DDCA6C"/>
<path d="M60.74 96.6802H57.21V100.21H60.74V96.6802Z" fill="black"/>
<path d="M57.2094 125.12H53.6094V128.65H57.2094V125.12Z" fill="black"/>
<path d="M57.2094 121.52H53.6094V125.12H57.2094V121.52Z" fill="#DDCA6C"/>
<path d="M57.2094 117.99H53.6094V121.52H57.2094V117.99Z" fill="#DDCA6C"/>
<path d="M57.2094 114.46H53.6094V117.99H57.2094V114.46Z" fill="#FCE76B"/>
<path d="M57.2094 110.86H53.6094V114.46H57.2094V110.86Z" fill="#FCE76B"/>
<path d="M57.2094 107.34H53.6094V110.87H57.2094V107.34Z" fill="#FCE76B"/>
<path d="M57.2094 103.74H53.6094V107.34H57.2094V103.74Z" fill="#FCE76B"/>
<path d="M57.2094 100.21H53.6094V103.74H57.2094V100.21Z" fill="#DDCA6C"/>
<path d="M57.2094 96.6802H53.6094V100.21H57.2094V96.6802Z" fill="black"/>
<path d="M53.6101 125.12H50.0801V128.65H53.6101V125.12Z" fill="black"/>
<path d="M53.6101 121.52H50.0801V125.12H53.6101V121.52Z" fill="#DDCA6C"/>
<path d="M53.6101 117.99H50.0801V121.52H53.6101V117.99Z" fill="#FCE76B"/>
<path d="M53.6101 114.46H50.0801V117.99H53.6101V114.46Z" fill="#FCE76B"/>
<path d="M53.6101 110.86H50.0801V114.46H53.6101V110.86Z" fill="#FCE76B"/>
<path d="M53.6101 107.34H50.0801V110.87H53.6101V107.34Z" fill="#FCE76B"/>
<path d="M53.6101 103.74H50.0801V107.34H53.6101V103.74Z" fill="#FCE76B"/>
<path d="M53.6101 100.21H50.0801V103.74H53.6101V100.21Z" fill="#DDCA6C"/>
<path d="M53.6101 96.6802H50.0801V100.21H53.6101V96.6802Z" fill="black"/>
<path d="M50.0795 125.12H46.4795V128.65H50.0795V125.12Z" fill="#DDCA6C"/>
<path d="M50.0795 121.52H46.4795V125.12H50.0795V121.52Z" fill="#FCE76B"/>
<path d="M50.0795 117.99H46.4795V121.52H50.0795V117.99Z" fill="#FCE76B"/>
<path d="M50.0795 114.46H46.4795V117.99H50.0795V114.46Z" fill="#E80F42"/>
<path d="M50.0795 110.86H46.4795V114.46H50.0795V110.86Z" fill="#FCE76B"/>
<path d="M50.0795 107.34H46.4795V110.87H50.0795V107.34Z" fill="#FCE76B"/>
<path d="M50.0795 103.74H46.4795V107.34H50.0795V103.74Z" fill="#FCE76B"/>
<path d="M50.0795 100.21H46.4795V103.74H50.0795V100.21Z" fill="#DDCA6C"/>
<path d="M50.0795 96.6802H46.4795V100.21H50.0795V96.6802Z" fill="black"/>
<path d="M46.4802 125.12H42.9502V128.65H46.4802V125.12Z" fill="#DDCA6C"/>
<path d="M46.4802 121.52H42.9502V125.12H46.4802V121.52Z" fill="#FCE76B"/>
<path d="M46.4802 117.99H42.9502V121.52H46.4802V117.99Z" fill="#E80F42"/>
<path d="M46.4802 114.46H42.9502V117.99H46.4802V114.46Z" fill="#E80F42"/>
<path d="M46.4802 110.86H42.9502V114.46H46.4802V110.86Z" fill="#E80F42"/>
<path d="M46.4802 107.34H42.9502V110.87H46.4802V107.34Z" fill="#FCE76B"/>
<path d="M46.4802 103.74H42.9502V107.34H46.4802V103.74Z" fill="#FCE76B"/>
<path d="M46.4802 100.21H42.9502V103.74H46.4802V100.21Z" fill="#DDCA6C"/>
<path d="M46.4802 96.6802H42.9502V100.21H46.4802V96.6802Z" fill="black"/>
<path d="M42.9597 125.12H39.4297V128.65H42.9597V125.12Z" fill="#DDCA6C"/>
<path d="M42.9597 121.52H39.4297V125.12H42.9597V121.52Z" fill="#FCE76B"/>
<path d="M42.9597 117.99H39.4297V121.52H42.9597V117.99Z" fill="#E80F42"/>
<path d="M42.9597 114.46H39.4297V117.99H42.9597V114.46Z" fill="#E80F42"/>
<path d="M42.9597 110.86H39.4297V114.46H42.9597V110.86Z" fill="#E80F42"/>
<path d="M42.9597 107.34H39.4297V110.87H42.9597V107.34Z" fill="#FCE76B"/>
<path d="M42.9597 103.74H39.4297V107.34H42.9597V103.74Z" fill="#FCE76B"/>
<path d="M42.9597 100.21H39.4297V103.74H42.9597V100.21Z" fill="#DDCA6C"/>
<path d="M42.9597 96.6802H39.4297V100.21H42.9597V96.6802Z" fill="black"/>
<path d="M39.4301 125.12H35.8301V128.65H39.4301V125.12Z" fill="#DDCA6C"/>
<path d="M39.4301 121.52H35.8301V125.12H39.4301V121.52Z" fill="#FCE76B"/>
<path d="M39.4301 117.99H35.8301V121.52H39.4301V117.99Z" fill="#E80F42"/>
<path d="M39.4301 114.46H35.8301V117.99H39.4301V114.46Z" fill="#FCE76B"/>
<path d="M39.4301 110.86H35.8301V114.46H39.4301V110.86Z" fill="#E80F42"/>
<path d="M39.4301 107.34H35.8301V110.87H39.4301V107.34Z" fill="#FCE76B"/>
<path d="M39.4301 103.74H35.8301V107.34H39.4301V103.74Z" fill="#FCE76B"/>
<path d="M39.4301 100.21H35.8301V103.74H39.4301V100.21Z" fill="#DDCA6C"/>
<path d="M39.4301 96.6802H35.8301V100.21H39.4301V96.6802Z" fill="black"/>
<path d="M35.8298 125.12H32.2998V128.65H35.8298V125.12Z" fill="#DDCA6C"/>
<path d="M35.8298 121.52H32.2998V125.12H35.8298V121.52Z" fill="#E80F42"/>
<path d="M35.8298 117.99H32.2998V121.52H35.8298V117.99Z" fill="#FCE76B"/>
<path d="M35.8298 114.46H32.2998V117.99H35.8298V114.46Z" fill="#FCE76B"/>
<path d="M35.8298 110.86H32.2998V114.46H35.8298V110.86Z" fill="#FCE76B"/>
<path d="M35.8298 107.34H32.2998V110.87H35.8298V107.34Z" fill="#E80F42"/>
<path d="M35.8298 103.74H32.2998V107.34H35.8298V103.74Z" fill="#FCE76B"/>
<path d="M35.8298 100.21H32.2998V103.74H35.8298V100.21Z" fill="#DDCA6C"/>
<path d="M35.8298 96.6802H32.2998V100.21H35.8298V96.6802Z" fill="black"/>
<path d="M32.2995 125.12H28.7695V128.65H32.2995V125.12Z" fill="#DDCA6C"/>
<path d="M32.2995 121.52H28.7695V125.12H32.2995V121.52Z" fill="#E80F42"/>
<path d="M32.2995 117.99H28.7695V121.52H32.2995V117.99Z" fill="#FCE76B"/>
<path d="M32.2995 114.46H28.7695V117.99H32.2995V114.46Z" fill="#FCE76B"/>
<path d="M32.2995 110.86H28.7695V114.46H32.2995V110.86Z" fill="#FCE76B"/>
<path d="M32.2995 107.34H28.7695V110.87H32.2995V107.34Z" fill="#E80F42"/>
<path d="M32.2995 103.74H28.7695V107.34H32.2995V103.74Z" fill="#FCE76B"/>
<path d="M32.2995 100.21H28.7695V103.74H32.2995V100.21Z" fill="#DDCA6C"/>
<path d="M32.2995 96.6802H28.7695V100.21H32.2995V96.6802Z" fill="black"/>
<path d="M28.7699 125.12H25.1699V128.65H28.7699V125.12Z" fill="#DDCA6C"/>
<path d="M28.7699 121.52H25.1699V125.12H28.7699V121.52Z" fill="#FCE76B"/>
<path d="M28.7699 117.99H25.1699V121.52H28.7699V117.99Z" fill="#FCE76B"/>
<path d="M28.7699 114.46H25.1699V117.99H28.7699V114.46Z" fill="#FCE76B"/>
<path d="M28.7699 110.86H25.1699V114.46H28.7699V110.86Z" fill="#FCE76B"/>
<path d="M28.7699 107.34H25.1699V110.87H28.7699V107.34Z" fill="#FCE76B"/>
<path d="M28.7699 103.74H25.1699V107.34H28.7699V103.74Z" fill="#DDCA6C"/>
<path d="M28.7699 100.21H25.1699V103.74H28.7699V100.21Z" fill="#DDCA6C"/>
<path d="M28.7699 96.6802H25.1699V100.21H28.7699V96.6802Z" fill="black"/>
<path d="M25.1794 125.12H21.6494V128.65H25.1794V125.12Z" fill="#DDCA6C"/>
<path d="M25.1794 121.52H21.6494V125.12H25.1794V121.52Z" fill="#FCE76B"/>
<path d="M25.1794 117.99H21.6494V121.52H25.1794V117.99Z" fill="#FCE76B"/>
<path d="M25.1794 114.46H21.6494V117.99H25.1794V114.46Z" fill="#FCE76B"/>
<path d="M25.1794 110.86H21.6494V114.46H25.1794V110.86Z" fill="#FCE76B"/>
<path d="M25.1794 107.34H21.6494V110.87H25.1794V107.34Z" fill="#DDCA6C"/>
<path d="M25.1794 103.74H21.6494V107.34H25.1794V103.74Z" fill="black"/>
<path d="M25.1794 100.21H21.6494V103.74H25.1794V100.21Z" fill="black"/>
<path d="M21.6498 125.12H18.0498V128.65H21.6498V125.12Z" fill="#DDCA6C"/>
<path d="M21.6498 121.52H18.0498V125.12H21.6498V121.52Z" fill="#FCE76B"/>
<path d="M21.6498 117.99H18.0498V121.52H21.6498V117.99Z" fill="#FCE76B"/>
<path d="M21.6498 114.46H18.0498V117.99H21.6498V114.46Z" fill="#DDCA6C"/>
<path d="M21.6498 110.86H18.0498V114.46H21.6498V110.86Z" fill="#DDCA6C"/>
<path d="M21.6498 107.34H18.0498V110.87H21.6498V107.34Z" fill="black"/>
<path d="M21.6498 103.74H18.0498V107.34H21.6498V103.74Z" fill="black"/>
<path d="M18.0495 125.12H14.5195V128.65H18.0495V125.12Z" fill="#DDCA6C"/>
<path d="M18.0495 121.52H14.5195V125.12H18.0495V121.52Z" fill="#FCE76B"/>
<path d="M18.0495 117.99H14.5195V121.52H18.0495V117.99Z" fill="#DDCA6C"/>
<path d="M18.0495 114.46H14.5195V117.99H18.0495V114.46Z" fill="black"/>
<path d="M18.0495 110.86H14.5195V114.46H18.0495V110.86Z" fill="black"/>
<path d="M18.0495 107.34H14.5195V110.87H18.0495V107.34Z" fill="#DDCA6C"/>
<path d="M18.0495 103.74H14.5195V107.34H18.0495V103.74Z" fill="#DDCA6C"/>
<path d="M18.0495 100.21H14.5195V103.74H18.0495V100.21Z" fill="black"/>
<path d="M14.5202 125.12H10.9902V128.65H14.5202V125.12Z" fill="#DDCA6C"/>
<path d="M14.5202 121.52H10.9902V125.12H14.5202V121.52Z" fill="#DDCA6C"/>
<path d="M14.5202 117.99H10.9902V121.52H14.5202V117.99Z" fill="black"/>
<path d="M14.5202 114.46H10.9902V117.99H14.5202V114.46Z" fill="#DDCA6C"/>
<path d="M14.5202 110.86H10.9902V114.46H14.5202V110.86Z" fill="#DDCA6C"/>
<path d="M14.5202 107.34H10.9902V110.87H14.5202V107.34Z" fill="#DDCA6C"/>
<path d="M14.5202 103.74H10.9902V107.34H14.5202V103.74Z" fill="#DDCA6C"/>
<path d="M14.5202 100.21H10.9902V103.74H14.5202V100.21Z" fill="black"/>
<path d="M10.9896 125.12H7.38965V128.65H10.9896V125.12Z" fill="#DDCA6C"/>
<path d="M10.9896 121.52H7.38965V125.12H10.9896V121.52Z" fill="black"/>
<path d="M10.9896 117.99H7.38965V121.52H10.9896V117.99Z" fill="#DDCA6C"/>
<path d="M10.9896 114.46H7.38965V117.99H10.9896V114.46Z" fill="#DDCA6C"/>
<path d="M10.9896 110.86H7.38965V114.46H10.9896V110.86Z" fill="#DDCA6C"/>
<path d="M10.9896 107.34H7.38965V110.87H10.9896V107.34Z" fill="#DDCA6C"/>
<path d="M10.9896 103.74H7.38965V107.34H10.9896V103.74Z" fill="#DDCA6C"/>
<path d="M10.9896 100.21H7.38965V103.74H10.9896V100.21Z" fill="#DDCA6C"/>
<path d="M10.9896 96.6802H7.38965V100.21H10.9896V96.6802Z" fill="black"/>
<path d="M7.38937 125.12H3.85938V128.65H7.38937V125.12Z" fill="black"/>
<path d="M7.38937 121.52H3.85938V125.12H7.38937V121.52Z" fill="#DDCA6C"/>
<path d="M7.38937 117.99H3.85938V121.52H7.38937V117.99Z" fill="#DDCA6C"/>
<path d="M7.38937 114.46H3.85938V117.99H7.38937V114.46Z" fill="#DDCA6C"/>
<path d="M7.38937 110.86H3.85938V114.46H7.38937V110.86Z" fill="#DDCA6C"/>
<path d="M7.38937 107.34H3.85938V110.87H7.38937V107.34Z" fill="#DDCA6C"/>
<path d="M7.38937 103.74H3.85938V107.34H7.38937V103.74Z" fill="#DDCA6C"/>
<path d="M7.38937 100.21H3.85938V103.74H7.38937V100.21Z" fill="#DDCA6C"/>
<path d="M7.38937 96.6802H3.85938V100.21H7.38937V96.6802Z" fill="black"/>
<path d="M3.85976 128.65H0.259766V132.18H3.85976V128.65Z" fill="black"/>
<path d="M3.85976 125.12H0.259766V128.65H3.85976V125.12Z" fill="black"/>
<path d="M3.85976 121.52H0.259766V125.12H3.85976V121.52Z" fill="black"/>
<path d="M3.85976 117.99H0.259766V121.52H3.85976V117.99Z" fill="black"/>
<path d="M3.85976 114.46H0.259766V117.99H3.85976V114.46Z" fill="black"/>
<path d="M3.85976 110.86H0.259766V114.46H3.85976V110.86Z" fill="black"/>
<path d="M3.85976 107.34H0.259766V110.87H3.85976V107.34Z" fill="black"/>
<path d="M3.85976 103.74H0.259766V107.34H3.85976V103.74Z" fill="black"/>
<path d="M3.85976 100.21H0.259766V103.74H3.85976V100.21Z" fill="black"/>
<path d="M3.85976 96.6802H0.259766V100.21H3.85976V96.6802Z" fill="black"/>
</svg>
