<svg width="176" height="268" viewBox="0 0 176 268" fill="none" xmlns="http://www.w3.org/2000/svg">
<path d="M175.929 137.27H169.449V143.75H175.929V137.27Z" fill="#754807"/>
<path d="M169.45 150.29H162.91V156.77H169.45V150.29Z" fill="#968E8B"/>
<path d="M169.45 143.75H162.91V150.29H169.45V143.75Z" fill="#754807"/>
<path d="M169.45 137.27H162.91V143.75H169.45V137.27Z" fill="#754807"/>
<path d="M169.45 130.72H162.91V137.26H169.45V130.72Z" fill="#754807"/>
<path d="M162.899 156.76H156.359V163.3H162.899V156.76Z" fill="#754807"/>
<path d="M162.899 150.29H156.359V156.77H162.899V150.29Z" fill="#754807"/>
<path d="M162.899 143.75H156.359V150.29H162.899V143.75Z" fill="#968E8B"/>
<path d="M162.899 137.27H156.359V143.75H162.899V137.27Z" fill="#754807"/>
<path d="M162.899 130.72H156.359V137.26H162.899V130.72Z" fill="#754807"/>
<path d="M162.899 124.25H156.359V130.73H162.899V124.25Z" fill="#754807"/>
<path d="M162.899 91.6699H156.359V98.1499H162.899V91.6699Z" fill="#020000"/>
<path d="M162.899 85.1299H156.359V91.6699H162.899V85.1299Z" fill="#020000"/>
<path d="M162.899 78.6499H156.359V85.1299H162.899V78.6499Z" fill="#020000"/>
<path d="M162.899 72.1099H156.359V78.6499H162.899V72.1099Z" fill="#020000"/>
<path d="M156.361 163.3H149.881V169.84H156.361V163.3Z" fill="#968E8B"/>
<path d="M156.361 156.76H149.881V163.3H156.361V156.76Z" fill="#754807"/>
<path d="M156.361 150.29H149.881V156.77H156.361V150.29Z" fill="#754807"/>
<path d="M156.361 143.75H149.881V150.29H156.361V143.75Z" fill="#754807"/>
<path d="M156.361 137.27H149.881V143.75H156.361V137.27Z" fill="#968E8B"/>
<path d="M156.361 130.72H149.881V137.26H156.361V130.72Z" fill="#754807"/>
<path d="M156.361 124.25H149.881V130.73H156.361V124.25Z" fill="#754807"/>
<path d="M156.361 104.69H149.881V111.23H156.361V104.69Z" fill="#020000"/>
<path d="M156.361 98.1401H149.881V104.68H156.361V98.1401Z" fill="#020000"/>
<path d="M156.361 91.6699H149.881V98.1499H156.361V91.6699Z" fill="#586689"/>
<path d="M156.361 85.1299H149.881V91.6699H156.361V85.1299Z" fill="#586689"/>
<path d="M156.361 78.6499H149.881V85.1299H156.361V78.6499Z" fill="#586689"/>
<path d="M156.361 72.1099H149.881V78.6499H156.361V72.1099Z" fill="#586689"/>
<path d="M156.361 65.6401H149.881V72.1201H156.361V65.6401Z" fill="#020000"/>
<path d="M149.88 169.85H143.34V176.33H149.88V169.85Z" fill="#754807"/>
<path d="M149.88 163.3H143.34V169.84H149.88V163.3Z" fill="#754807"/>
<path d="M149.88 156.76H143.34V163.3H149.88V156.76Z" fill="#968E8B"/>
<path d="M149.88 150.29H143.34V156.77H149.88V150.29Z" fill="#754807"/>
<path d="M149.88 143.75H143.34V150.29H149.88V143.75Z" fill="#754807"/>
<path d="M149.88 137.27H143.34V143.75H149.88V137.27Z" fill="#754807"/>
<path d="M149.88 130.72H143.34V137.26H149.88V130.72Z" fill="#968E8B"/>
<path d="M149.88 111.23H143.34V117.71H149.88V111.23Z" fill="#020000"/>
<path d="M149.88 104.69H143.34V111.23H149.88V104.69Z" fill="#439B3E"/>
<path d="M149.88 98.1401H143.34V104.68H149.88V98.1401Z" fill="#439B3E"/>
<path d="M149.88 91.6699H143.34V98.1499H149.88V91.6699Z" fill="#717A97"/>
<path d="M149.88 85.1299H143.34V91.6699H149.88V85.1299Z" fill="#717A97"/>
<path d="M149.88 78.6499H143.34V85.1299H149.88V78.6499Z" fill="#586689"/>
<path d="M149.88 72.1099H143.34V78.6499H149.88V72.1099Z" fill="#586689"/>
<path d="M149.88 65.6401H143.34V72.1201H149.88V65.6401Z" fill="#586689"/>
<path d="M149.88 59.0898H143.34V65.6299H149.88V59.0898Z" fill="#020000"/>
<path d="M143.349 260.98H136.869V267.52H143.349V260.98Z" fill="#020000"/>
<path d="M143.349 254.5H136.869V260.98H143.349V254.5Z" fill="#020000"/>
<path d="M143.349 247.96H136.869V254.5H143.349V247.96Z" fill="#020000"/>
<path d="M143.349 241.49H136.869V247.97H143.349V241.49Z" fill="#020000"/>
<path d="M143.349 234.94H136.869V241.48H143.349V234.94Z" fill="#020100"/>
<path d="M143.349 228.46H136.869V234.94H143.349V228.46Z" fill="#020100"/>
<path d="M143.349 221.92H136.869V228.46H143.349V221.92Z" fill="#020000"/>
<path d="M143.349 215.45H136.869V221.93H143.349V215.45Z" fill="#020000"/>
<path d="M143.349 208.91H136.869V215.45H143.349V208.91Z" fill="#020000"/>
<path d="M143.349 202.36H136.869V208.9H143.349V202.36Z" fill="#020000"/>
<path d="M143.349 195.88H136.869V202.36H143.349V195.88Z" fill="#020000"/>
<path d="M143.349 189.34H136.869V195.88H143.349V189.34Z" fill="#020000"/>
<path d="M143.349 182.87H136.869V189.35H143.349V182.87Z" fill="#020000"/>
<path d="M143.349 176.33H136.869V182.87H143.349V176.33Z" fill="#020000"/>
<path d="M143.349 169.85H136.869V176.33H143.349V169.85Z" fill="#020000"/>
<path d="M143.349 163.3H136.869V169.84H143.349V163.3Z" fill="#754807"/>
<path d="M143.349 156.76H136.869V163.3H143.349V156.76Z" fill="#754807"/>
<path d="M143.349 150.29H136.869V156.77H143.349V150.29Z" fill="#968E8B"/>
<path d="M143.349 143.75H136.869V150.29H143.349V143.75Z" fill="#754807"/>
<path d="M143.349 137.27H136.869V143.75H143.349V137.27Z" fill="#49302B"/>
<path d="M143.349 130.72H136.869V137.26H143.349V130.72Z" fill="#49302B"/>
<path d="M143.349 124.25H136.869V130.73H143.349V124.25Z" fill="#968E8B"/>
<path d="M143.349 117.71H136.869V124.25H143.349V117.71Z" fill="#020000"/>
<path d="M143.349 111.23H136.869V117.71H143.349V111.23Z" fill="#439B3E"/>
<path d="M143.349 104.69H136.869V111.23H143.349V104.69Z" fill="#439B3E"/>
<path d="M143.349 98.1401H136.869V104.68H143.349V98.1401Z" fill="#439B3E"/>
<path d="M143.349 91.6699H136.869V98.1499H143.349V91.6699Z" fill="#439B3E"/>
<path d="M143.349 85.1299H136.869V91.6699H143.349V85.1299Z" fill="#717A97"/>
<path d="M143.349 78.6499H136.869V85.1299H143.349V78.6499Z" fill="#717A97"/>
<path d="M143.349 72.1099H136.869V78.6499H143.349V72.1099Z" fill="#586689"/>
<path d="M143.349 65.6401H136.869V72.1201H143.349V65.6401Z" fill="#586689"/>
<path d="M143.349 59.0898H136.869V65.6299H143.349V59.0898Z" fill="#586689"/>
<path d="M143.349 52.5498H136.869V59.0898H143.349V52.5498Z" fill="#020000"/>
<path d="M136.87 260.98H130.33V267.52H136.87V260.98Z" fill="#020000"/>
<path d="M136.87 254.5H130.33V260.98H136.87V254.5Z" fill="#2B1910"/>
<path d="M136.87 247.96H130.33V254.5H136.87V247.96Z" fill="#2B1910"/>
<path d="M136.87 241.49H130.33V247.97H136.87V241.49Z" fill="#2B1910"/>
<path d="M136.87 234.94H130.33V241.48H136.87V234.94Z" fill="#2B1910"/>
<path d="M136.87 228.46H130.33V234.94H136.87V228.46Z" fill="#2B1910"/>
<path d="M136.87 221.92H130.33V228.46H136.87V221.92Z" fill="#2B1910"/>
<path d="M136.87 215.45H130.33V221.93H136.87V215.45Z" fill="#381D18"/>
<path d="M136.87 208.91H130.33V215.45H136.87V208.91Z" fill="#381D18"/>
<path d="M136.87 202.36H130.33V208.9H136.87V202.36Z" fill="#381D18"/>
<path d="M136.87 195.88H130.33V202.36H136.87V195.88Z" fill="#381D18"/>
<path d="M136.87 189.34H130.33V195.88H136.87V189.34Z" fill="#381D18"/>
<path d="M136.87 182.87H130.33V189.35H136.87V182.87Z" fill="#381D18"/>
<path d="M136.87 176.33H130.33V182.87H136.87V176.33Z" fill="#381D18"/>
<path d="M136.87 169.85H130.33V176.33H136.87V169.85Z" fill="#381D18"/>
<path d="M136.87 163.3H130.33V169.84H136.87V163.3Z" fill="#020000"/>
<path d="M136.87 156.76H130.33V163.3H136.87V156.76Z" fill="#754807"/>
<path d="M136.87 150.29H130.33V156.77H136.87V150.29Z" fill="#968E8B"/>
<path d="M136.87 143.75H130.33V150.29H136.87V143.75Z" fill="#49302B"/>
<path d="M136.87 137.27H130.33V143.75H136.87V137.27Z" fill="#49302B"/>
<path d="M136.87 130.72H130.33V137.26H136.87V130.72Z" fill="#968E8B"/>
<path d="M136.87 124.25H130.33V130.73H136.87V124.25Z" fill="#020000"/>
<path d="M136.87 117.71H130.33V124.25H136.87V117.71Z" fill="#439B3E"/>
<path d="M136.87 111.23H130.33V117.71H136.87V111.23Z" fill="#439B3E"/>
<path d="M136.87 104.69H130.33V111.23H136.87V104.69Z" fill="#34872D"/>
<path d="M136.87 98.1401H130.33V104.68H136.87V98.1401Z" fill="#34872D"/>
<path d="M136.87 91.6699H130.33V98.1499H136.87V91.6699Z" fill="#439B3E"/>
<path d="M136.87 85.1299H130.33V91.6699H136.87V85.1299Z" fill="#717A97"/>
<path d="M136.87 78.6499H130.33V85.1299H136.87V78.6499Z" fill="#717A97"/>
<path d="M136.87 72.1099H130.33V78.6499H136.87V72.1099Z" fill="#717A97"/>
<path d="M136.87 65.6401H130.33V72.1201H136.87V65.6401Z" fill="#586689"/>
<path d="M136.87 59.0898H130.33V65.6299H136.87V59.0898Z" fill="#586689"/>
<path d="M136.87 52.5498H130.33V59.0898H136.87V52.5498Z" fill="#020000"/>
<path d="M130.33 254.5H123.85V260.98H130.33V254.5Z" fill="#020100"/>
<path d="M130.33 247.96H123.85V254.5H130.33V247.96Z" fill="#2B1910"/>
<path d="M130.33 241.49H123.85V247.97H130.33V241.49Z" fill="#2B1910"/>
<path d="M130.33 234.94H123.85V241.48H130.33V234.94Z" fill="#2B1910"/>
<path d="M130.33 228.46H123.85V234.94H130.33V228.46Z" fill="#2B1910"/>
<path d="M130.33 221.92H123.85V228.46H130.33V221.92Z" fill="#2B1910"/>
<path d="M130.33 215.45H123.85V221.93H130.33V215.45Z" fill="#49302B"/>
<path d="M130.33 208.91H123.85V215.45H130.33V208.91Z" fill="#381D18"/>
<path d="M130.33 202.36H123.85V208.9H130.33V202.36Z" fill="#381D18"/>
<path d="M130.33 195.88H123.85V202.36H130.33V195.88Z" fill="#381D18"/>
<path d="M130.33 189.34H123.85V195.88H130.33V189.34Z" fill="#020100"/>
<path d="M130.33 182.87H123.85V189.35H130.33V182.87Z" fill="#020000"/>
<path d="M130.33 176.33H123.85V182.87H130.33V176.33Z" fill="#020000"/>
<path d="M130.33 169.85H123.85V176.33H130.33V169.85Z" fill="#020000"/>
<path d="M130.33 163.3H123.85V169.84H130.33V163.3Z" fill="#020000"/>
<path d="M130.33 156.76H123.85V163.3H130.33V156.76Z" fill="#020000"/>
<path d="M130.33 150.29H123.85V156.77H130.33V150.29Z" fill="#00FFE2"/>
<path d="M130.33 143.75H123.85V150.29H130.33V143.75Z" fill="#968E8B"/>
<path d="M130.33 137.27H123.85V143.75H130.33V137.27Z" fill="#968E8B"/>
<path d="M130.33 130.72H123.85V137.26H130.33V130.72Z" fill="#020000"/>
<path d="M130.33 124.25H123.85V130.73H130.33V124.25Z" fill="#439B3E"/>
<path d="M130.33 117.71H123.85V124.25H130.33V117.71Z" fill="#439B3E"/>
<path d="M130.33 111.23H123.85V117.71H130.33V111.23Z" fill="#34872D"/>
<path d="M130.33 104.69H123.85V111.23H130.33V104.69Z" fill="#34872D"/>
<path d="M130.33 98.1401H123.85V104.68H130.33V98.1401Z" fill="#439B3E"/>
<path d="M130.33 91.6699H123.85V98.1499H130.33V91.6699Z" fill="#439B3E"/>
<path d="M130.33 85.1299H123.85V91.6699H130.33V85.1299Z" fill="#439B3E"/>
<path d="M130.33 78.6499H123.85V85.1299H130.33V78.6499Z" fill="#717A97"/>
<path d="M130.33 72.1099H123.85V78.6499H130.33V72.1099Z" fill="#717A97"/>
<path d="M130.33 65.6401H123.85V72.1201H130.33V65.6401Z" fill="#717A97"/>
<path d="M130.33 59.0898H123.85V65.6299H130.33V59.0898Z" fill="#586689"/>
<path d="M130.33 52.5498H123.85V59.0898H130.33V52.5498Z" fill="#020000"/>
<path d="M123.841 260.98H117.301V267.52H123.841V260.98Z" fill="#020000"/>
<path d="M123.841 254.5H117.301V260.98H123.841V254.5Z" fill="#2B1910"/>
<path d="M123.841 247.96H117.301V254.5H123.841V247.96Z" fill="#2B1910"/>
<path d="M123.841 241.49H117.301V247.97H123.841V241.49Z" fill="#2B1910"/>
<path d="M123.841 234.94H117.301V241.48H123.841V234.94Z" fill="#2B1910"/>
<path d="M123.841 228.46H117.301V234.94H123.841V228.46Z" fill="#2B1910"/>
<path d="M123.841 221.92H117.301V228.46H123.841V221.92Z" fill="#2B1910"/>
<path d="M123.841 215.45H117.301V221.93H123.841V215.45Z" fill="#49302B"/>
<path d="M123.841 208.91H117.301V215.45H123.841V208.91Z" fill="#49302B"/>
<path d="M123.841 202.36H117.301V208.9H123.841V202.36Z" fill="#49302B"/>
<path d="M123.841 195.88H117.301V202.36H123.841V195.88Z" fill="#381D18"/>
<path d="M123.841 189.34H117.301V195.88H123.841V189.34Z" fill="#020100"/>
<path d="M123.841 182.87H117.301V189.35H123.841V182.87Z" fill="#05D6B8"/>
<path d="M123.841 176.33H117.301V182.87H123.841V176.33Z" fill="#05D6B8"/>
<path d="M123.841 169.85H117.301V176.33H123.841V169.85Z" fill="#05D6B8"/>
<path d="M123.841 163.3H117.301V169.84H123.841V163.3Z" fill="#05D6B8"/>
<path d="M123.841 156.76H117.301V163.3H123.841V156.76Z" fill="#05D6B8"/>
<path d="M123.841 150.29H117.301V156.77H123.841V150.29Z" fill="#05D6B8"/>
<path d="M123.841 143.75H117.301V150.29H123.841V143.75Z" fill="#05D6B8"/>
<path d="M123.841 137.27H117.301V143.75H123.841V137.27Z" fill="#05D6B8"/>
<path d="M123.841 130.72H117.301V137.26H123.841V130.72Z" fill="#020000"/>
<path d="M123.841 124.25H117.301V130.73H123.841V124.25Z" fill="#439B3E"/>
<path d="M123.841 117.71H117.301V124.25H123.841V117.71Z" fill="#439B3E"/>
<path d="M123.841 111.23H117.301V117.71H123.841V111.23Z" fill="#439B3E"/>
<path d="M123.841 104.69H117.301V111.23H123.841V104.69Z" fill="#439B3E"/>
<path d="M123.841 98.1401H117.301V104.68H123.841V98.1401Z" fill="#439B3E"/>
<path d="M123.841 91.6699H117.301V98.1499H123.841V91.6699Z" fill="#439B3E"/>
<path d="M123.841 85.1299H117.301V91.6699H123.841V85.1299Z" fill="#439B3E"/>
<path d="M123.841 78.6499H117.301V85.1299H123.841V78.6499Z" fill="#717A97"/>
<path d="M123.841 72.1099H117.301V78.6499H123.841V72.1099Z" fill="#717A97"/>
<path d="M123.841 65.6401H117.301V72.1201H123.841V65.6401Z" fill="#717A97"/>
<path d="M123.841 59.0898H117.301V65.6299H123.841V59.0898Z" fill="#717A97"/>
<path d="M123.841 52.5498H117.301V59.0898H123.841V52.5498Z" fill="#05D6B8"/>
<path d="M123.841 33.0601H117.301V39.5401H123.841V33.0601Z" fill="black"/>
<path d="M123.841 26.5098H117.301V33.0498H123.841V26.5098Z" fill="black"/>
<path d="M123.841 20.0298H117.301V26.5098H123.841V20.0298Z" fill="black"/>
<path d="M117.3 260.98H110.76V267.52H117.3V260.98Z" fill="#020000"/>
<path d="M117.3 254.5H110.76V260.98H117.3V254.5Z" fill="#2B1910"/>
<path d="M117.3 247.96H110.76V254.5H117.3V247.96Z" fill="#020100"/>
<path d="M117.3 241.49H110.76V247.97H117.3V241.49Z" fill="#020100"/>
<path d="M117.3 234.94H110.76V241.48H117.3V234.94Z" fill="#020000"/>
<path d="M117.3 228.46H110.76V234.94H117.3V228.46Z" fill="#020000"/>
<path d="M117.3 221.92H110.76V228.46H117.3V221.92Z" fill="#020000"/>
<path d="M117.3 215.45H110.76V221.93H117.3V215.45Z" fill="#49302B"/>
<path d="M117.3 208.91H110.76V215.45H117.3V208.91Z" fill="#49302B"/>
<path d="M117.3 202.36H110.76V208.9H117.3V202.36Z" fill="#49302B"/>
<path d="M117.3 195.88H110.76V202.36H117.3V195.88Z" fill="#49302B"/>
<path d="M117.3 189.34H110.76V195.88H117.3V189.34Z" fill="#020100"/>
<path d="M117.3 182.87H110.76V189.35H117.3V182.87Z" fill="#05D6B8"/>
<path d="M117.3 176.33H110.76V182.87H117.3V176.33Z" fill="#05D6B8"/>
<path d="M117.3 169.85H110.76V176.33H117.3V169.85Z" fill="#00FFE2"/>
<path d="M117.3 163.3H110.76V169.84H117.3V163.3Z" fill="#00FFE2"/>
<path d="M117.3 156.76H110.76V163.3H117.3V156.76Z" fill="#00FFE2"/>
<path d="M117.3 150.29H110.76V156.77H117.3V150.29Z" fill="#05D6B8"/>
<path d="M117.3 143.75H110.76V150.29H117.3V143.75Z" fill="#05D6B8"/>
<path d="M117.3 137.27H110.76V143.75H117.3V137.27Z" fill="#05D6B8"/>
<path d="M117.3 130.72H110.76V137.26H117.3V130.72Z" fill="#020000"/>
<path d="M117.3 124.25H110.76V130.73H117.3V124.25Z" fill="#439B3E"/>
<path d="M117.3 117.71H110.76V124.25H117.3V117.71Z" fill="#439B3E"/>
<path d="M117.3 111.23H110.76V117.71H117.3V111.23Z" fill="#439B3E"/>
<path d="M117.3 104.69H110.76V111.23H117.3V104.69Z" fill="#439B3E"/>
<path d="M117.3 98.1401H110.76V104.68H117.3V98.1401Z" fill="#439B3E"/>
<path d="M117.3 91.6699H110.76V98.1499H117.3V91.6699Z" fill="#439B3E"/>
<path d="M117.3 85.1299H110.76V91.6699H117.3V85.1299Z" fill="#439B3E"/>
<path d="M117.3 78.6499H110.76V85.1299H117.3V78.6499Z" fill="#717A97"/>
<path d="M117.3 72.1099H110.76V78.6499H117.3V72.1099Z" fill="#717A97"/>
<path d="M117.3 65.6401H110.76V72.1201H117.3V65.6401Z" fill="#717A97"/>
<path d="M117.3 59.0898H110.76V65.6299H117.3V59.0898Z" fill="#05D6B8"/>
<path d="M117.3 52.5498H110.76V59.0898H117.3V52.5498Z" fill="#050100"/>
<path d="M117.3 39.54H110.76V46.08H117.3V39.54Z" fill="black"/>
<path d="M117.3 33.0601H110.76V39.5401H117.3V33.0601Z" fill="#439B3E"/>
<path d="M117.3 26.5098H110.76V33.0498H117.3V26.5098Z" fill="#439B3E"/>
<path d="M117.3 20.0298H110.76V26.5098H117.3V20.0298Z" fill="#439B3E"/>
<path d="M117.3 13.4902H110.76V20.0302H117.3V13.4902Z" fill="black"/>
<path d="M117.3 7.02002H110.76V13.5H117.3V7.02002Z" fill="black"/>
<path d="M110.769 260.98H104.289V267.52H110.769V260.98Z" fill="#020000"/>
<path d="M110.769 254.5H104.289V260.98H110.769V254.5Z" fill="#2B1910"/>
<path d="M110.769 247.96H104.289V254.5H110.769V247.96Z" fill="#020100"/>
<path d="M110.769 221.92H104.289V228.46H110.769V221.92Z" fill="#020000"/>
<path d="M110.769 215.45H104.289V221.93H110.769V215.45Z" fill="#020000"/>
<path d="M110.769 208.91H104.289V215.45H110.769V208.91Z" fill="#49302B"/>
<path d="M110.769 202.36H104.289V208.9H110.769V202.36Z" fill="#49302B"/>
<path d="M110.769 195.88H104.289V202.36H110.769V195.88Z" fill="#49302B"/>
<path d="M110.769 189.34H104.289V195.88H110.769V189.34Z" fill="#020100"/>
<path d="M110.769 182.87H104.289V189.35H110.769V182.87Z" fill="#05D6B8"/>
<path d="M110.769 176.33H104.289V182.87H110.769V176.33Z" fill="#00FFE2"/>
<path d="M110.769 169.85H104.289V176.33H110.769V169.85Z" fill="#00FFE2"/>
<path d="M110.769 163.3H104.289V169.84H110.769V163.3Z" fill="#00FFE2"/>
<path d="M110.769 156.76H104.289V163.3H110.769V156.76Z" fill="#00FFE2"/>
<path d="M110.769 150.29H104.289V156.77H110.769V150.29Z" fill="#00FFE2"/>
<path d="M110.769 143.75H104.289V150.29H110.769V143.75Z" fill="#05D6B8"/>
<path d="M110.769 137.27H104.289V143.75H110.769V137.27Z" fill="#05D6B8"/>
<path d="M110.769 130.72H104.289V137.26H110.769V130.72Z" fill="#020000"/>
<path d="M110.769 124.25H104.289V130.73H110.769V124.25Z" fill="#020000"/>
<path d="M110.769 117.71H104.289V124.25H110.769V117.71Z" fill="#439B3E"/>
<path d="M110.769 111.23H104.289V117.71H110.769V111.23Z" fill="#439B3E"/>
<path d="M110.769 104.69H104.289V111.23H110.769V104.69Z" fill="#439B3E"/>
<path d="M110.769 98.1401H104.289V104.68H110.769V98.1401Z" fill="#439B3E"/>
<path d="M110.769 91.6699H104.289V98.1499H110.769V91.6699Z" fill="#020000"/>
<path d="M110.769 85.1299H104.289V91.6699H110.769V85.1299Z" fill="#05D6B8"/>
<path d="M110.769 78.6499H104.289V85.1299H110.769V78.6499Z" fill="#05D6B8"/>
<path d="M110.769 72.1099H104.289V78.6499H110.769V72.1099Z" fill="#717A97"/>
<path d="M110.769 65.6401H104.289V72.1201H110.769V65.6401Z" fill="#05D6B8"/>
<path d="M110.769 59.0898H104.289V65.6299H110.769V59.0898Z" fill="#717A97"/>
<path d="M110.769 52.5498H104.289V59.0898H110.769V52.5498Z" fill="#050100"/>
<path d="M110.769 46.0698H104.289V52.5498H110.769V46.0698Z" fill="black"/>
<path d="M110.769 39.54H104.289V46.08H110.769V39.54Z" fill="#439B3E"/>
<path d="M110.769 33.0601H104.289V39.5401H110.769V33.0601Z" fill="#439B3E"/>
<path d="M110.769 26.5098H104.289V33.0498H110.769V26.5098Z" fill="#439B3E"/>
<path d="M110.769 20.0298H104.289V26.5098H110.769V20.0298Z" fill="#439B3E"/>
<path d="M110.769 13.4902H104.289V20.0302H110.769V13.4902Z" fill="#439B3E"/>
<path d="M110.769 7.02002H104.289V13.5H110.769V7.02002Z" fill="#439B3E"/>
<path d="M110.769 0.47998H104.289V7.01997H110.769V0.47998Z" fill="black"/>
<path d="M104.29 260.98H97.75V267.52H104.29V260.98Z" fill="#020000"/>
<path d="M104.29 254.5H97.75V260.98H104.29V254.5Z" fill="#020000"/>
<path d="M104.29 247.96H97.75V254.5H104.29V247.96Z" fill="#020100"/>
<path d="M104.29 215.45H97.75V221.93H104.29V215.45Z" fill="#020000"/>
<path d="M104.29 208.91H97.75V215.45H104.29V208.91Z" fill="#020000"/>
<path d="M104.29 202.36H97.75V208.9H104.29V202.36Z" fill="#49302B"/>
<path d="M104.29 195.88H97.75V202.36H104.29V195.88Z" fill="#49302B"/>
<path d="M104.29 189.34H97.75V195.88H104.29V189.34Z" fill="#020000"/>
<path d="M104.29 182.87H97.75V189.35H104.29V182.87Z" fill="#00FFE2"/>
<path d="M104.29 176.33H97.75V182.87H104.29V176.33Z" fill="#00FFE2"/>
<path d="M104.29 169.85H97.75V176.33H104.29V169.85Z" fill="#00FFE2"/>
<path d="M104.29 163.3H97.75V169.84H104.29V163.3Z" fill="#00FFE2"/>
<path d="M104.29 156.76H97.75V163.3H104.29V156.76Z" fill="#00FFE2"/>
<path d="M104.29 150.29H97.75V156.77H104.29V150.29Z" fill="#00FFE2"/>
<path d="M104.29 143.75H97.75V150.29H104.29V143.75Z" fill="#00FFE2"/>
<path d="M104.29 137.27H97.75V143.75H104.29V137.27Z" fill="#00FFE2"/>
<path d="M104.29 130.72H97.75V137.26H104.29V130.72Z" fill="#00FFE2"/>
<path d="M104.29 124.25H97.75V130.73H104.29V124.25Z" fill="#020000"/>
<path d="M104.29 117.71H97.75V124.25H104.29V117.71Z" fill="#439B3E"/>
<path d="M104.29 111.23H97.75V117.71H104.29V111.23Z" fill="#439B3E"/>
<path d="M104.29 104.69H97.75V111.23H104.29V104.69Z" fill="#439B3E"/>
<path d="M104.29 98.1401H97.75V104.68H104.29V98.1401Z" fill="#020000"/>
<path d="M104.29 91.6699H97.75V98.1499H104.29V91.6699Z" fill="#00FFE2"/>
<path d="M104.29 85.1299H97.75V91.6699H104.29V85.1299Z" fill="#00FFE2"/>
<path d="M104.29 78.6499H97.75V85.1299H104.29V78.6499Z" fill="#05D6B8"/>
<path d="M104.29 72.1099H97.75V78.6499H104.29V72.1099Z" fill="#05D6B8"/>
<path d="M104.29 65.6401H97.75V72.1201H104.29V65.6401Z" fill="#717A97"/>
<path d="M104.29 59.0898H97.75V65.6299H104.29V59.0898Z" fill="#717A97"/>
<path d="M104.29 52.5498H97.75V59.0898H104.29V52.5498Z" fill="#586689"/>
<path d="M104.29 46.0698H97.75V52.5498H104.29V46.0698Z" fill="#8E4E38"/>
<path d="M104.29 39.54H97.75V46.08H104.29V39.54Z" fill="#8E4E38"/>
<path d="M104.29 33.0601H97.75V39.5401H104.29V33.0601Z" fill="#8E4E38"/>
<path d="M104.29 26.5098H97.75V33.0498H104.29V26.5098Z" fill="#439B3E"/>
<path d="M104.29 20.0298H97.75V26.5098H104.29V20.0298Z" fill="#FF0031"/>
<path d="M104.29 13.4902H97.75V20.0302H104.29V13.4902Z" fill="black"/>
<path d="M104.29 7.02002H97.75V13.5H104.29V7.02002Z" fill="#439B3E"/>
<path d="M104.29 0.47998H97.75V7.01997H104.29V0.47998Z" fill="black"/>
<path d="M97.7495 208.91H91.2695V215.45H97.7495V208.91Z" fill="#020000"/>
<path d="M97.7495 202.36H91.2695V208.9H97.7495V202.36Z" fill="#020000"/>
<path d="M97.7495 195.88H91.2695V202.36H97.7495V195.88Z" fill="#020000"/>
<path d="M97.7495 189.34H91.2695V195.88H97.7495V189.34Z" fill="#020000"/>
<path d="M97.7495 182.87H91.2695V189.35H97.7495V182.87Z" fill="#00FFE2"/>
<path d="M97.7495 176.33H91.2695V182.87H97.7495V176.33Z" fill="#00FFE2"/>
<path d="M97.7495 169.85H91.2695V176.33H97.7495V169.85Z" fill="#00FFE2"/>
<path d="M97.7495 163.3H91.2695V169.84H97.7495V163.3Z" fill="#00FFE2"/>
<path d="M97.7495 156.76H91.2695V163.3H97.7495V156.76Z" fill="#00FFE2"/>
<path d="M97.7495 150.29H91.2695V156.77H97.7495V150.29Z" fill="#020000"/>
<path d="M97.7495 143.75H91.2695V150.29H97.7495V143.75Z" fill="#00FFE2"/>
<path d="M97.7495 137.27H91.2695V143.75H97.7495V137.27Z" fill="#00FFE2"/>
<path d="M97.7495 130.72H91.2695V137.26H97.7495V130.72Z" fill="#00FFE2"/>
<path d="M97.7495 124.25H91.2695V130.73H97.7495V124.25Z" fill="#020000"/>
<path d="M97.7495 117.71H91.2695V124.25H97.7495V117.71Z" fill="#439B3E"/>
<path d="M97.7495 111.23H91.2695V117.71H97.7495V111.23Z" fill="#439B3E"/>
<path d="M97.7495 104.69H91.2695V111.23H97.7495V104.69Z" fill="#439B3E"/>
<path d="M97.7495 98.1401H91.2695V104.68H97.7495V98.1401Z" fill="#020000"/>
<path d="M97.7495 91.6699H91.2695V98.1499H97.7495V91.6699Z" fill="#00FFE2"/>
<path d="M97.7495 85.1299H91.2695V91.6699H97.7495V85.1299Z" fill="#00FFE2"/>
<path d="M97.7495 78.6499H91.2695V85.1299H97.7495V78.6499Z" fill="#00FFE2"/>
<path d="M97.7495 72.1099H91.2695V78.6499H97.7495V72.1099Z" fill="#717A97"/>
<path d="M97.7495 65.6401H91.2695V72.1201H97.7495V65.6401Z" fill="#717A97"/>
<path d="M97.7495 59.0898H91.2695V65.6299H97.7495V59.0898Z" fill="#717A97"/>
<path d="M97.7495 52.5498H91.2695V59.0898H97.7495V52.5498Z" fill="#8E4E38"/>
<path d="M97.7495 46.0698H91.2695V52.5498H97.7495V46.0698Z" fill="#8E4E38"/>
<path d="M97.7495 39.54H91.2695V46.08H97.7495V39.54Z" fill="#439B3E"/>
<path d="M97.7495 33.0601H91.2695V39.5401H97.7495V33.0601Z" fill="#8E4E38"/>
<path d="M97.7495 26.5098H91.2695V33.0498H97.7495V26.5098Z" fill="#439B3E"/>
<path d="M97.7495 20.0298H91.2695V26.5098H97.7495V20.0298Z" fill="black"/>
<path d="M97.7495 13.4902H91.2695V20.0302H97.7495V13.4902Z" fill="#439B3E"/>
<path d="M97.7495 7.02002H91.2695V13.5H97.7495V7.02002Z" fill="#439B3E"/>
<path d="M97.7495 0.47998H91.2695V7.01997H97.7495V0.47998Z" fill="black"/>
<path d="M91.2607 254.5H84.7207V260.98H91.2607V254.5Z" fill="#020000"/>
<path d="M91.2607 247.96H84.7207V254.5H91.2607V247.96Z" fill="#020000"/>
<path d="M91.2607 241.49H84.7207V247.97H91.2607V241.49Z" fill="#020000"/>
<path d="M91.2607 234.94H84.7207V241.48H91.2607V234.94Z" fill="#020000"/>
<path d="M91.2607 228.46H84.7207V234.94H91.2607V228.46Z" fill="#020000"/>
<path d="M91.2607 221.92H84.7207V228.46H91.2607V221.92Z" fill="#020000"/>
<path d="M91.2607 215.45H84.7207V221.93H91.2607V215.45Z" fill="#020000"/>
<path d="M91.2607 208.91H84.7207V215.45H91.2607V208.91Z" fill="#020000"/>
<path d="M91.2607 202.36H84.7207V208.9H91.2607V202.36Z" fill="#381D18"/>
<path d="M91.2607 195.88H84.7207V202.36H91.2607V195.88Z" fill="#381D18"/>
<path d="M91.2607 189.34H84.7207V195.88H91.2607V189.34Z" fill="#020000"/>
<path d="M91.2607 182.87H84.7207V189.35H91.2607V182.87Z" fill="#00FFE2"/>
<path d="M91.2607 176.33H84.7207V182.87H91.2607V176.33Z" fill="#00FFE2"/>
<path d="M91.2607 169.85H84.7207V176.33H91.2607V169.85Z" fill="#00FFE2"/>
<path d="M91.2607 163.3H84.7207V169.84H91.2607V163.3Z" fill="#00FFE2"/>
<path d="M91.2607 156.76H84.7207V163.3H91.2607V156.76Z" fill="#00FFE2"/>
<path d="M91.2607 150.29H84.7207V156.77H91.2607V150.29Z" fill="#020000"/>
<path d="M91.2607 143.75H84.7207V150.29H91.2607V143.75Z" fill="#00FFE2"/>
<path d="M91.2607 137.27H84.7207V143.75H91.2607V137.27Z" fill="#00FFE2"/>
<path d="M91.2607 130.72H84.7207V137.26H91.2607V130.72Z" fill="#00FFE2"/>
<path d="M91.2607 124.25H84.7207V130.73H91.2607V124.25Z" fill="#020000"/>
<path d="M91.2607 117.71H84.7207V124.25H91.2607V117.71Z" fill="#34872D"/>
<path d="M91.2607 111.23H84.7207V117.71H91.2607V111.23Z" fill="#34872D"/>
<path d="M91.2607 104.69H84.7207V111.23H91.2607V104.69Z" fill="#34872D"/>
<path d="M91.2607 98.1401H84.7207V104.68H91.2607V98.1401Z" fill="#020000"/>
<path d="M91.2607 91.6699H84.7207V98.1499H91.2607V91.6699Z" fill="#00FFE2"/>
<path d="M91.2607 85.1299H84.7207V91.6699H91.2607V85.1299Z" fill="#00FFE2"/>
<path d="M91.2607 78.6499H84.7207V85.1299H91.2607V78.6499Z" fill="#00FFE2"/>
<path d="M91.2607 72.1099H84.7207V78.6499H91.2607V72.1099Z" fill="#717A97"/>
<path d="M91.2607 65.6401H84.7207V72.1201H91.2607V65.6401Z" fill="#717A97"/>
<path d="M91.2607 59.0898H84.7207V65.6299H91.2607V59.0898Z" fill="#717A97"/>
<path d="M91.2607 52.5498H84.7207V59.0898H91.2607V52.5498Z" fill="#8E4E38"/>
<path d="M91.2607 46.0698H84.7207V52.5498H91.2607V46.0698Z" fill="#8E4E38"/>
<path d="M91.2607 39.54H84.7207V46.08H91.2607V39.54Z" fill="#439B3E"/>
<path d="M91.2607 33.0601H84.7207V39.5401H91.2607V33.0601Z" fill="#439B3E"/>
<path d="M91.2607 26.5098H84.7207V33.0498H91.2607V26.5098Z" fill="#439B3E"/>
<path d="M91.2607 20.0298H84.7207V26.5098H91.2607V20.0298Z" fill="#439B3E"/>
<path d="M91.2607 13.4902H84.7207V20.0302H91.2607V13.4902Z" fill="#439B3E"/>
<path d="M91.2607 7.02002H84.7207V13.5H91.2607V7.02002Z" fill="#439B3E"/>
<path d="M91.2607 0.47998H84.7207V7.01997H91.2607V0.47998Z" fill="black"/>
<path d="M84.73 254.5H78.25V260.98H84.73V254.5Z" fill="#020000"/>
<path d="M84.73 247.96H78.25V254.5H84.73V247.96Z" fill="#2B1910"/>
<path d="M84.73 241.49H78.25V247.97H84.73V241.49Z" fill="#2B1910"/>
<path d="M84.73 234.94H78.25V241.48H84.73V234.94Z" fill="#2B1910"/>
<path d="M84.73 228.46H78.25V234.94H84.73V228.46Z" fill="#2B1910"/>
<path d="M84.73 221.92H78.25V228.46H84.73V221.92Z" fill="#2B1910"/>
<path d="M84.73 215.45H78.25V221.93H84.73V215.45Z" fill="#381D18"/>
<path d="M84.73 208.91H78.25V215.45H84.73V208.91Z" fill="#381D18"/>
<path d="M84.73 202.36H78.25V208.9H84.73V202.36Z" fill="#381D18"/>
<path d="M84.73 195.88H78.25V202.36H84.73V195.88Z" fill="#381D18"/>
<path d="M84.73 189.34H78.25V195.88H84.73V189.34Z" fill="#020000"/>
<path d="M84.73 182.87H78.25V189.35H84.73V182.87Z" fill="#00FFE2"/>
<path d="M84.73 176.33H78.25V182.87H84.73V176.33Z" fill="#00FFE2"/>
<path d="M84.73 169.85H78.25V176.33H84.73V169.85Z" fill="#00FFE2"/>
<path d="M84.73 163.3H78.25V169.84H84.73V163.3Z" fill="#00FFE2"/>
<path d="M84.73 156.76H78.25V163.3H84.73V156.76Z" fill="#00FFE2"/>
<path d="M84.73 150.29H78.25V156.77H84.73V150.29Z" fill="#020000"/>
<path d="M84.73 143.75H78.25V150.29H84.73V143.75Z" fill="#00FFE2"/>
<path d="M84.73 137.27H78.25V143.75H84.73V137.27Z" fill="#05D6B8"/>
<path d="M84.73 130.72H78.25V137.26H84.73V130.72Z" fill="#05D6B8"/>
<path d="M84.73 124.25H78.25V130.73H84.73V124.25Z" fill="#05D6B8"/>
<path d="M84.73 117.71H78.25V124.25H84.73V117.71Z" fill="#020000"/>
<path d="M84.73 111.23H78.25V117.71H84.73V111.23Z" fill="#439B3E"/>
<path d="M84.73 104.69H78.25V111.23H84.73V104.69Z" fill="#439B3E"/>
<path d="M84.73 98.1401H78.25V104.68H84.73V98.1401Z" fill="#020000"/>
<path d="M84.73 91.6699H78.25V98.1499H84.73V91.6699Z" fill="#00FFE2"/>
<path d="M84.73 85.1299H78.25V91.6699H84.73V85.1299Z" fill="#00FFE2"/>
<path d="M84.73 78.6499H78.25V85.1299H84.73V78.6499Z" fill="#00FFE2"/>
<path d="M84.73 72.1099H78.25V78.6499H84.73V72.1099Z" fill="#717A97"/>
<path d="M84.73 65.6401H78.25V72.1201H84.73V65.6401Z" fill="#717A97"/>
<path d="M84.73 59.0898H78.25V65.6299H84.73V59.0898Z" fill="#717A97"/>
<path d="M84.73 52.5498H78.25V59.0898H84.73V52.5498Z" fill="#8E4E38"/>
<path d="M84.73 46.0698H78.25V52.5498H84.73V46.0698Z" fill="#8E4E38"/>
<path d="M84.73 39.54H78.25V46.08H84.73V39.54Z" fill="#439B3E"/>
<path d="M84.73 33.0601H78.25V39.5401H84.73V33.0601Z" fill="#8E4E38"/>
<path d="M84.73 26.5098H78.25V33.0498H84.73V26.5098Z" fill="#439B3E"/>
<path d="M84.73 20.0298H78.25V26.5098H84.73V20.0298Z" fill="black"/>
<path d="M84.73 13.4902H78.25V20.0302H84.73V13.4902Z" fill="#439B3E"/>
<path d="M84.73 7.02002H78.25V13.5H84.73V7.02002Z" fill="#439B3E"/>
<path d="M84.73 0.47998H78.25V7.01997H84.73V0.47998Z" fill="black"/>
<path d="M78.2509 247.96H71.7109V254.5H78.2509V247.96Z" fill="#020000"/>
<path d="M78.2509 241.49H71.7109V247.97H78.2509V241.49Z" fill="#2B1910"/>
<path d="M78.2509 234.94H71.7109V241.48H78.2509V234.94Z" fill="#2B1910"/>
<path d="M78.2509 228.46H71.7109V234.94H78.2509V228.46Z" fill="#2B1910"/>
<path d="M78.2509 221.92H71.7109V228.46H78.2509V221.92Z" fill="#2B1910"/>
<path d="M78.2509 215.45H71.7109V221.93H78.2509V215.45Z" fill="#49302B"/>
<path d="M78.2509 208.91H71.7109V215.45H78.2509V208.91Z" fill="#49302B"/>
<path d="M78.2509 202.36H71.7109V208.9H78.2509V202.36Z" fill="#381D18"/>
<path d="M78.2509 195.88H71.7109V202.36H78.2509V195.88Z" fill="#381D18"/>
<path d="M78.2509 189.34H71.7109V195.88H78.2509V189.34Z" fill="#020000"/>
<path d="M78.2509 182.87H71.7109V189.35H78.2509V182.87Z" fill="#00FFE2"/>
<path d="M78.2509 176.33H71.7109V182.87H78.2509V176.33Z" fill="#00FFE2"/>
<path d="M78.2509 169.85H71.7109V176.33H78.2509V169.85Z" fill="#00FFE2"/>
<path d="M78.2509 163.3H71.7109V169.84H78.2509V163.3Z" fill="#00FFE2"/>
<path d="M78.2509 156.76H71.7109V163.3H78.2509V156.76Z" fill="#00FFE2"/>
<path d="M78.2509 150.29H71.7109V156.77H78.2509V150.29Z" fill="#020000"/>
<path d="M78.2509 143.75H71.7109V150.29H78.2509V143.75Z" fill="#00FFE2"/>
<path d="M78.2509 137.27H71.7109V143.75H78.2509V137.27Z" fill="#00FFE2"/>
<path d="M78.2509 130.72H71.7109V137.26H78.2509V130.72Z" fill="#05D6B8"/>
<path d="M78.2509 124.25H71.7109V130.73H78.2509V124.25Z" fill="#020000"/>
<path d="M78.2509 117.71H71.7109V124.25H78.2509V117.71Z" fill="#439B3E"/>
<path d="M78.2509 111.23H71.7109V117.71H78.2509V111.23Z" fill="#439B3E"/>
<path d="M78.2509 104.69H71.7109V111.23H78.2509V104.69Z" fill="#439B3E"/>
<path d="M78.2509 98.1401H71.7109V104.68H78.2509V98.1401Z" fill="#439B3E"/>
<path d="M78.2509 91.6699H71.7109V98.1499H78.2509V91.6699Z" fill="#020000"/>
<path d="M78.2509 85.1299H71.7109V91.6699H78.2509V85.1299Z" fill="#00FFE2"/>
<path d="M78.2509 78.6499H71.7109V85.1299H78.2509V78.6499Z" fill="#00FFE2"/>
<path d="M78.2509 72.1099H71.7109V78.6499H78.2509V72.1099Z" fill="#717A97"/>
<path d="M78.2509 65.6401H71.7109V72.1201H78.2509V65.6401Z" fill="#717A97"/>
<path d="M78.2509 59.0898H71.7109V65.6299H78.2509V59.0898Z" fill="#717A97"/>
<path d="M78.2509 52.5498H71.7109V59.0898H78.2509V52.5498Z" fill="#586689"/>
<path d="M78.2509 46.0698H71.7109V52.5498H78.2509V46.0698Z" fill="#8E4E38"/>
<path d="M78.2509 39.54H71.7109V46.08H78.2509V39.54Z" fill="#8E4E38"/>
<path d="M78.2509 33.0601H71.7109V39.5401H78.2509V33.0601Z" fill="#8E4E38"/>
<path d="M78.2509 26.5098H71.7109V33.0498H78.2509V26.5098Z" fill="#439B3E"/>
<path d="M78.2509 20.0298H71.7109V26.5098H78.2509V20.0298Z" fill="#FF0031"/>
<path d="M78.2509 13.4902H71.7109V20.0302H78.2509V13.4902Z" fill="black"/>
<path d="M78.2509 7.02002H71.7109V13.5H78.2509V7.02002Z" fill="black"/>
<path d="M71.7105 254.5H65.2305V260.98H71.7105V254.5Z" fill="#020000"/>
<path d="M71.7105 247.96H65.2305V254.5H71.7105V247.96Z" fill="#2B1910"/>
<path d="M71.7105 241.49H65.2305V247.97H71.7105V241.49Z" fill="#2B1910"/>
<path d="M71.7105 234.94H65.2305V241.48H71.7105V234.94Z" fill="#2B1910"/>
<path d="M71.7105 228.46H65.2305V234.94H71.7105V228.46Z" fill="#2B1910"/>
<path d="M71.7105 221.92H65.2305V228.46H71.7105V221.92Z" fill="#2B1910"/>
<path d="M71.7105 215.45H65.2305V221.93H71.7105V215.45Z" fill="#49302B"/>
<path d="M71.7105 208.91H65.2305V215.45H71.7105V208.91Z" fill="#49302B"/>
<path d="M71.7105 202.36H65.2305V208.9H71.7105V202.36Z" fill="#49302B"/>
<path d="M71.7105 195.88H65.2305V202.36H71.7105V195.88Z" fill="#381D18"/>
<path d="M71.7105 189.34H65.2305V195.88H71.7105V189.34Z" fill="#020000"/>
<path d="M71.7105 182.87H65.2305V189.35H71.7105V182.87Z" fill="#00FFE2"/>
<path d="M71.7105 176.33H65.2305V182.87H71.7105V176.33Z" fill="#00FFE2"/>
<path d="M71.7105 169.85H65.2305V176.33H71.7105V169.85Z" fill="#00FFE2"/>
<path d="M71.7105 163.3H65.2305V169.84H71.7105V163.3Z" fill="#00FFE2"/>
<path d="M71.7105 156.76H65.2305V163.3H71.7105V156.76Z" fill="#00FFE2"/>
<path d="M71.7105 150.29H65.2305V156.77H71.7105V150.29Z" fill="#E5DAD4"/>
<path d="M71.7105 143.75H65.2305V150.29H71.7105V143.75Z" fill="#E5DAD4"/>
<path d="M71.7105 137.27H65.2305V143.75H71.7105V137.27Z" fill="#E5DAD4"/>
<path d="M71.7105 130.72H65.2305V137.26H71.7105V130.72Z" fill="#05D6B8"/>
<path d="M71.7105 124.25H65.2305V130.73H71.7105V124.25Z" fill="#020000"/>
<path d="M71.7105 117.71H65.2305V124.25H71.7105V117.71Z" fill="#439B3E"/>
<path d="M71.7105 111.23H65.2305V117.71H71.7105V111.23Z" fill="#439B3E"/>
<path d="M71.7105 104.69H65.2305V111.23H71.7105V104.69Z" fill="black"/>
<path d="M71.7105 98.1401H65.2305V104.68H71.7105V98.1401Z" fill="#E5DAD4"/>
<path d="M71.7105 91.6699H65.2305V98.1499H71.7105V91.6699Z" fill="#020000"/>
<path d="M71.7105 85.1299H65.2305V91.6699H71.7105V85.1299Z" fill="#00FFE2"/>
<path d="M71.7105 78.6499H65.2305V85.1299H71.7105V78.6499Z" fill="#00FFE2"/>
<path d="M71.7105 72.1099H65.2305V78.6499H71.7105V72.1099Z" fill="#717A97"/>
<path d="M71.7105 65.6401H65.2305V72.1201H71.7105V65.6401Z" fill="#717A97"/>
<path d="M71.7105 59.0898H65.2305V65.6299H71.7105V59.0898Z" fill="#717A97"/>
<path d="M71.7105 52.5498H65.2305V59.0898H71.7105V52.5498Z" fill="#00FFE2"/>
<path d="M71.7105 46.0698H65.2305V52.5498H71.7105V46.0698Z" fill="black"/>
<path d="M71.7105 39.54H65.2305V46.08H71.7105V39.54Z" fill="black"/>
<path d="M71.7105 33.0601H65.2305V39.5401H71.7105V33.0601Z" fill="black"/>
<path d="M71.7105 26.5098H65.2305V33.0498H71.7105V26.5098Z" fill="black"/>
<path d="M71.7105 20.0298H65.2305V26.5098H71.7105V20.0298Z" fill="black"/>
<path d="M71.7105 13.4902H65.2305V20.0302H71.7105V13.4902Z" fill="black"/>
<path d="M65.2294 254.5H58.6895V260.98H65.2294V254.5Z" fill="#020000"/>
<path d="M65.2294 247.96H58.6895V254.5H65.2294V247.96Z" fill="#2B1910"/>
<path d="M65.2294 241.49H58.6895V247.97H65.2294V241.49Z" fill="#2B1910"/>
<path d="M65.2294 234.94H58.6895V241.48H65.2294V234.94Z" fill="#2B1910"/>
<path d="M65.2294 228.46H58.6895V234.94H65.2294V228.46Z" fill="#2B1910"/>
<path d="M65.2294 221.92H58.6895V228.46H65.2294V221.92Z" fill="#2B1910"/>
<path d="M65.2294 215.45H58.6895V221.93H65.2294V215.45Z" fill="#49302B"/>
<path d="M65.2294 208.91H58.6895V215.45H65.2294V208.91Z" fill="#49302B"/>
<path d="M65.2294 202.36H58.6895V208.9H65.2294V202.36Z" fill="#49302B"/>
<path d="M65.2294 195.88H58.6895V202.36H65.2294V195.88Z" fill="#49302B"/>
<path d="M65.2294 189.34H58.6895V195.88H65.2294V189.34Z" fill="#020000"/>
<path d="M65.2294 182.87H58.6895V189.35H65.2294V182.87Z" fill="#00FFE2"/>
<path d="M65.2294 176.33H58.6895V182.87H65.2294V176.33Z" fill="#00FFE2"/>
<path d="M65.2294 169.85H58.6895V176.33H65.2294V169.85Z" fill="#00FFE2"/>
<path d="M65.2294 163.3H58.6895V169.84H65.2294V163.3Z" fill="#00FFE2"/>
<path d="M65.2294 156.76H58.6895V163.3H65.2294V156.76Z" fill="#00FFE2"/>
<path d="M65.2294 150.29H58.6895V156.77H65.2294V150.29Z" fill="#E5DAD4"/>
<path d="M65.2294 143.75H58.6895V150.29H65.2294V143.75Z" fill="#E5DAD4"/>
<path d="M65.2294 137.27H58.6895V143.75H65.2294V137.27Z" fill="#E5DAD4"/>
<path d="M65.2294 130.72H58.6895V137.26H65.2294V130.72Z" fill="#E5DAD4"/>
<path d="M65.2294 124.25H58.6895V130.73H65.2294V124.25Z" fill="#E5DAD4"/>
<path d="M65.2294 117.71H58.6895V124.25H65.2294V117.71Z" fill="black"/>
<path d="M65.2294 111.23H58.6895V117.71H65.2294V111.23Z" fill="#E5DAD4"/>
<path d="M65.2294 104.69H58.6895V111.23H65.2294V104.69Z" fill="#E5DAD4"/>
<path d="M65.2294 98.1401H58.6895V104.68H65.2294V98.1401Z" fill="#E5DAD4"/>
<path d="M65.2294 91.6699H58.6895V98.1499H65.2294V91.6699Z" fill="#E5DAD4"/>
<path d="M65.2294 85.1299H58.6895V91.6699H65.2294V85.1299Z" fill="#05D6B8"/>
<path d="M65.2294 78.6499H58.6895V85.1299H65.2294V78.6499Z" fill="#00FFE2"/>
<path d="M65.2294 72.1099H58.6895V78.6499H65.2294V72.1099Z" fill="#00FFE2"/>
<path d="M65.2294 65.6401H58.6895V72.1201H65.2294V65.6401Z" fill="#00FFE2"/>
<path d="M65.2294 59.0898H58.6895V65.6299H65.2294V59.0898Z" fill="#00FFE2"/>
<path d="M65.2294 52.5498H58.6895V59.0898H65.2294V52.5498Z" fill="#050100"/>
<path d="M58.6806 254.5H52.1406V260.98H58.6806V254.5Z" fill="#020000"/>
<path d="M58.6806 247.96H52.1406V254.5H58.6806V247.96Z" fill="#2B1910"/>
<path d="M58.6806 241.49H52.1406V247.97H58.6806V241.49Z" fill="#2B1910"/>
<path d="M58.6806 234.94H52.1406V241.48H58.6806V234.94Z" fill="#020000"/>
<path d="M58.6806 228.46H52.1406V234.94H58.6806V228.46Z" fill="#020000"/>
<path d="M58.6806 221.92H52.1406V228.46H58.6806V221.92Z" fill="#020000"/>
<path d="M58.6806 215.45H52.1406V221.93H58.6806V215.45Z" fill="#49302B"/>
<path d="M58.6806 208.91H52.1406V215.45H58.6806V208.91Z" fill="#49302B"/>
<path d="M58.6806 202.36H52.1406V208.9H58.6806V202.36Z" fill="#49302B"/>
<path d="M58.6806 195.88H52.1406V202.36H58.6806V195.88Z" fill="#49302B"/>
<path d="M58.6806 189.34H52.1406V195.88H58.6806V189.34Z" fill="#020000"/>
<path d="M58.6806 182.87H52.1406V189.35H58.6806V182.87Z" fill="#00FFE2"/>
<path d="M58.6806 176.33H52.1406V182.87H58.6806V176.33Z" fill="#05D6B8"/>
<path d="M58.6806 169.85H52.1406V176.33H58.6806V169.85Z" fill="#00FFE2"/>
<path d="M58.6806 163.3H52.1406V169.84H58.6806V163.3Z" fill="#00FFE2"/>
<path d="M58.6806 156.76H52.1406V163.3H58.6806V156.76Z" fill="#00FFE2"/>
<path d="M58.6806 150.29H52.1406V156.77H58.6806V150.29Z" fill="#E5DAD4"/>
<path d="M58.6806 143.75H52.1406V150.29H58.6806V143.75Z" fill="#E5DAD4"/>
<path d="M58.6806 137.27H52.1406V143.75H58.6806V137.27Z" fill="#E5DAD4"/>
<path d="M58.6806 130.72H52.1406V137.26H58.6806V130.72Z" fill="#E5DAD4"/>
<path d="M58.6806 124.25H52.1406V130.73H58.6806V124.25Z" fill="#E5DAD4"/>
<path d="M58.6806 117.71H52.1406V124.25H58.6806V117.71Z" fill="#E5DAD4"/>
<path d="M58.6806 111.23H52.1406V117.71H58.6806V111.23Z" fill="#E5DAD4"/>
<path d="M58.6806 104.69H52.1406V111.23H58.6806V104.69Z" fill="#E5DAD4"/>
<path d="M58.6806 98.1401H52.1406V104.68H58.6806V98.1401Z" fill="black"/>
<path d="M58.6806 91.6699H52.1406V98.1499H58.6806V91.6699Z" fill="black"/>
<path d="M58.6806 85.1299H52.1406V91.6699H58.6806V85.1299Z" fill="#05D6B8"/>
<path d="M58.6806 78.6499H52.1406V85.1299H58.6806V78.6499Z" fill="#05D6B8"/>
<path d="M58.6806 72.1099H52.1406V78.6499H58.6806V72.1099Z" fill="#00FFE2"/>
<path d="M58.6806 65.6401H52.1406V72.1201H58.6806V65.6401Z" fill="#00FFE2"/>
<path d="M58.6806 59.0898H52.1406V65.6299H58.6806V59.0898Z" fill="#586689"/>
<path d="M58.6806 52.5498H52.1406V59.0898H58.6806V52.5498Z" fill="#586689"/>
<path d="M58.6806 46.0698H52.1406V52.5498H58.6806V46.0698Z" fill="#050100"/>
<path d="M52.1499 254.5H45.6699V260.98H52.1499V254.5Z" fill="#020000"/>
<path d="M52.1499 247.96H45.6699V254.5H52.1499V247.96Z" fill="#2B1910"/>
<path d="M52.1499 241.49H45.6699V247.97H52.1499V241.49Z" fill="#2B1910"/>
<path d="M52.1499 221.92H45.6699V228.46H52.1499V221.92Z" fill="#020000"/>
<path d="M52.1499 215.45H45.6699V221.93H52.1499V215.45Z" fill="#020000"/>
<path d="M52.1499 208.91H45.6699V215.45H52.1499V208.91Z" fill="#020100"/>
<path d="M52.1499 202.36H45.6699V208.9H52.1499V202.36Z" fill="#49302B"/>
<path d="M52.1499 195.88H45.6699V202.36H52.1499V195.88Z" fill="#49302B"/>
<path d="M52.1499 189.34H45.6699V195.88H52.1499V189.34Z" fill="#020000"/>
<path d="M52.1499 182.87H45.6699V189.35H52.1499V182.87Z" fill="#05D6B8"/>
<path d="M52.1499 176.33H45.6699V182.87H52.1499V176.33Z" fill="#00FFE2"/>
<path d="M52.1499 169.85H45.6699V176.33H52.1499V169.85Z" fill="#00FFE2"/>
<path d="M52.1499 163.3H45.6699V169.84H52.1499V163.3Z" fill="#00FFE2"/>
<path d="M52.1499 156.76H45.6699V163.3H52.1499V156.76Z" fill="#05D6B8"/>
<path d="M52.1499 150.29H45.6699V156.77H52.1499V150.29Z" fill="#020000"/>
<path d="M52.1499 143.75H45.6699V150.29H52.1499V143.75Z" fill="#00FFE2"/>
<path d="M52.1499 137.27H45.6699V143.75H52.1499V137.27Z" fill="#E5DAD4"/>
<path d="M52.1499 130.72H45.6699V137.26H52.1499V130.72Z" fill="#E5DAD4"/>
<path d="M52.1499 124.25H45.6699V130.73H52.1499V124.25Z" fill="#E5DAD4"/>
<path d="M52.1499 117.71H45.6699V124.25H52.1499V117.71Z" fill="#E5DAD4"/>
<path d="M52.1499 111.23H45.6699V117.71H52.1499V111.23Z" fill="#E5DAD4"/>
<path d="M52.1499 104.69H45.6699V111.23H52.1499V104.69Z" fill="black"/>
<path d="M52.1499 98.1401H45.6699V104.68H52.1499V98.1401Z" fill="#439B3E"/>
<path d="M52.1499 91.6699H45.6699V98.1499H52.1499V91.6699Z" fill="#439B3E"/>
<path d="M52.1499 85.1299H45.6699V91.6699H52.1499V85.1299Z" fill="#020000"/>
<path d="M52.1499 78.6499H45.6699V85.1299H52.1499V78.6499Z" fill="#020000"/>
<path d="M52.1499 72.1099H45.6699V78.6499H52.1499V72.1099Z" fill="#020000"/>
<path d="M52.1499 65.6401H45.6699V72.1201H52.1499V65.6401Z" fill="#586689"/>
<path d="M52.1499 59.0898H45.6699V65.6299H52.1499V59.0898Z" fill="#586689"/>
<path d="M52.1499 52.5498H45.6699V59.0898H52.1499V52.5498Z" fill="#586689"/>
<path d="M52.1499 46.0698H45.6699V52.5498H52.1499V46.0698Z" fill="#050100"/>
<path d="M45.6709 254.5H39.1309V260.98H45.6709V254.5Z" fill="#020000"/>
<path d="M45.6709 247.96H39.1309V254.5H45.6709V247.96Z" fill="#020000"/>
<path d="M45.6709 241.49H39.1309V247.97H45.6709V241.49Z" fill="#020000"/>
<path d="M45.6709 202.36H39.1309V208.9H45.6709V202.36Z" fill="#020100"/>
<path d="M45.6709 195.88H39.1309V202.36H45.6709V195.88Z" fill="#020000"/>
<path d="M45.6709 189.34H39.1309V195.88H45.6709V189.34Z" fill="#020000"/>
<path d="M45.6709 182.87H39.1309V189.35H45.6709V182.87Z" fill="#05D6B8"/>
<path d="M45.6709 176.33H39.1309V182.87H45.6709V176.33Z" fill="#05D6B8"/>
<path d="M45.6709 169.85H39.1309V176.33H45.6709V169.85Z" fill="#00FFE2"/>
<path d="M45.6709 163.3H39.1309V169.84H45.6709V163.3Z" fill="#05D6B8"/>
<path d="M45.6709 156.76H39.1309V163.3H45.6709V156.76Z" fill="#05D6B8"/>
<path d="M45.6709 150.29H39.1309V156.77H45.6709V150.29Z" fill="black"/>
<path d="M45.6709 143.75H39.1309V150.29H45.6709V143.75Z" fill="#020000"/>
<path d="M45.6709 137.27H39.1309V143.75H45.6709V137.27Z" fill="#00FFE2"/>
<path d="M45.6709 130.72H39.1309V137.26H45.6709V130.72Z" fill="#E5DAD4"/>
<path d="M45.6709 124.25H39.1309V130.73H45.6709V124.25Z" fill="#E5DAD4"/>
<path d="M45.6709 117.71H39.1309V124.25H45.6709V117.71Z" fill="#020000"/>
<path d="M45.6709 111.23H39.1309V117.71H45.6709V111.23Z" fill="#439B3E"/>
<path d="M45.6709 104.69H39.1309V111.23H45.6709V104.69Z" fill="#439B3E"/>
<path d="M45.6709 98.1401H39.1309V104.68H45.6709V98.1401Z" fill="#439B3E"/>
<path d="M45.6709 91.6699H39.1309V98.1499H45.6709V91.6699Z" fill="#439B3E"/>
<path d="M45.6709 85.1299H39.1309V91.6699H45.6709V85.1299Z" fill="#020000"/>
<path d="M45.6709 78.6499H39.1309V85.1299H45.6709V78.6499Z" fill="#439B3E"/>
<path d="M45.6709 72.1099H39.1309V78.6499H45.6709V72.1099Z" fill="#439B3E"/>
<path d="M45.6709 65.6401H39.1309V72.1201H45.6709V65.6401Z" fill="#439B3E"/>
<path d="M45.6709 59.0898H39.1309V65.6299H45.6709V59.0898Z" fill="#586689"/>
<path d="M45.6709 52.5498H39.1309V59.0898H45.6709V52.5498Z" fill="#020000"/>
<path d="M39.1304 189.34H32.6504V195.88H39.1304V189.34Z" fill="#020000"/>
<path d="M39.1304 182.87H32.6504V189.35H39.1304V182.87Z" fill="#020000"/>
<path d="M39.1304 176.33H32.6504V182.87H39.1304V176.33Z" fill="#020000"/>
<path d="M39.1304 169.85H32.6504V176.33H39.1304V169.85Z" fill="#020000"/>
<path d="M39.1304 163.3H32.6504V169.84H39.1304V163.3Z" fill="#020000"/>
<path d="M39.1304 156.76H32.6504V163.3H39.1304V156.76Z" fill="#020000"/>
<path d="M39.1304 150.29H32.6504V156.77H39.1304V150.29Z" fill="#020000"/>
<path d="M39.1304 143.75H32.6504V150.29H39.1304V143.75Z" fill="black"/>
<path d="M39.1304 137.27H32.6504V143.75H39.1304V137.27Z" fill="#020000"/>
<path d="M39.1304 130.72H32.6504V137.26H39.1304V130.72Z" fill="#020000"/>
<path d="M39.1304 124.25H32.6504V130.73H39.1304V124.25Z" fill="#020000"/>
<path d="M39.1304 117.71H32.6504V124.25H39.1304V117.71Z" fill="#020000"/>
<path d="M39.1304 111.23H32.6504V117.71H39.1304V111.23Z" fill="#439B3E"/>
<path d="M39.1304 104.69H32.6504V111.23H39.1304V104.69Z" fill="#439B3E"/>
<path d="M39.1304 98.1401H32.6504V104.68H39.1304V98.1401Z" fill="#439B3E"/>
<path d="M39.1304 91.6699H32.6504V98.1499H39.1304V91.6699Z" fill="#439B3E"/>
<path d="M39.1304 85.1299H32.6504V91.6699H39.1304V85.1299Z" fill="#020000"/>
<path d="M39.1304 78.6499H32.6504V85.1299H39.1304V78.6499Z" fill="#439B3E"/>
<path d="M39.1304 72.1099H32.6504V78.6499H39.1304V72.1099Z" fill="#439B3E"/>
<path d="M39.1304 65.6401H32.6504V72.1201H39.1304V65.6401Z" fill="#439B3E"/>
<path d="M39.1304 59.0898H32.6504V65.6299H39.1304V59.0898Z" fill="#020000"/>
<path d="M32.6494 117.71H26.1094V124.25H32.6494V117.71Z" fill="#020000"/>
<path d="M32.6494 111.23H26.1094V117.71H32.6494V111.23Z" fill="#020000"/>
<path d="M32.6494 104.69H26.1094V111.23H32.6494V104.69Z" fill="#020000"/>
<path d="M32.6494 98.1401H26.1094V104.68H32.6494V98.1401Z" fill="#439B3E"/>
<path d="M32.6494 91.6699H26.1094V98.1499H32.6494V91.6699Z" fill="#439B3E"/>
<path d="M32.6494 85.1299H26.1094V91.6699H32.6494V85.1299Z" fill="#439B3E"/>
<path d="M32.6494 78.6499H26.1094V85.1299H32.6494V78.6499Z" fill="#439B3E"/>
<path d="M32.6494 72.1099H26.1094V78.6499H32.6494V72.1099Z" fill="#34872D"/>
<path d="M32.6494 65.6401H26.1094V72.1201H32.6494V65.6401Z" fill="#439B3E"/>
<path d="M32.6494 59.0898H26.1094V65.6299H32.6494V59.0898Z" fill="#020000"/>
<path d="M26.1206 104.69H19.6406V111.23H26.1206V104.69Z" fill="#020000"/>
<path d="M26.1206 98.1401H19.6406V104.68H26.1206V98.1401Z" fill="#439B3E"/>
<path d="M26.1206 91.6699H19.6406V98.1499H26.1206V91.6699Z" fill="#439B3E"/>
<path d="M26.1206 85.1299H19.6406V91.6699H26.1206V85.1299Z" fill="#439B3E"/>
<path d="M26.1206 78.6499H19.6406V85.1299H26.1206V78.6499Z" fill="#34872D"/>
<path d="M26.1206 72.1099H19.6406V78.6499H26.1206V72.1099Z" fill="#439B3E"/>
<path d="M26.1206 65.6401H19.6406V72.1201H26.1206V65.6401Z" fill="#020000"/>
<path d="M19.6299 104.69H13.0898V111.23H19.6299V104.69Z" fill="#020000"/>
<path d="M19.6299 98.1401H13.0898V104.68H19.6299V98.1401Z" fill="#439B3E"/>
<path d="M19.6299 91.6699H13.0898V98.1499H19.6299V91.6699Z" fill="#439B3E"/>
<path d="M19.6299 85.1299H13.0898V91.6699H19.6299V85.1299Z" fill="#439B3E"/>
<path d="M19.6299 78.6499H13.0898V85.1299H19.6299V78.6499Z" fill="#439B3E"/>
<path d="M19.6299 72.1099H13.0898V78.6499H19.6299V72.1099Z" fill="#439B3E"/>
<path d="M19.6299 65.6401H13.0898V72.1201H19.6299V65.6401Z" fill="#050100"/>
<path d="M13.0908 98.1401H6.55078V104.68H13.0908V98.1401Z" fill="#020000"/>
<path d="M13.0908 91.6699H6.55078V98.1499H13.0908V91.6699Z" fill="#439B3E"/>
<path d="M13.0908 85.1299H6.55078V91.6699H13.0908V85.1299Z" fill="#439B3E"/>
<path d="M13.0908 78.6499H6.55078V85.1299H13.0908V78.6499Z" fill="#439B3E"/>
<path d="M13.0908 72.1099H6.55078V78.6499H13.0908V72.1099Z" fill="#020000"/>
<path d="M6.55032 91.6699H0.0703125V98.1499H6.55032V91.6699Z" fill="#020000"/>
<path d="M6.55032 85.1299H0.0703125V91.6699H6.55032V85.1299Z" fill="#020000"/>
<path d="M6.55032 78.6499H0.0703125V85.1299H6.55032V78.6499Z" fill="#020000"/>
</svg>
