<svg width="96" height="96" viewBox="0 0 96 96" fill="none" xmlns="http://www.w3.org/2000/svg">
<path d="M73.5996 16C76.9096 16 79.9996 21.37 79.9996 28C79.9996 34.63 76.9396 40 73.6296 40" stroke="#FF3864" stroke-width="2"/>
<path d="M60 24C60 24 69.6 24 73.6 16" stroke="#FF3864" stroke-width="2"/>
<path d="M60 32C60 32 69.63 32 73.63 40" stroke="#FF3864" stroke-width="2"/>
<path d="M80 48C84.4183 48 88 39.0457 88 28C88 16.9543 84.4183 8 80 8C75.5817 8 72 16.9543 72 28C72 39.0457 75.5817 48 80 48Z" stroke="#FF3864" stroke-width="2"/>
<path d="M60 24H12C10.9391 24 9.92172 24.4214 9.17157 25.1716C8.42143 25.9217 8 26.9391 8 28V28C8 29.0609 8.42143 30.0783 9.17157 30.8284C9.92172 31.5786 10.9391 32 12 32H60" stroke="#FF3864" stroke-width="2"/>
<path d="M44 64V32" stroke="#FF3864" stroke-width="2"/>
<path d="M44 24C48.2435 24 52.3131 25.6857 55.3137 28.6863C58.3143 31.6869 60 35.7565 60 40C60 44.2435 58.3143 48.3131 55.3137 51.3137C52.3131 54.3143 48.2435 56 44 56" stroke="#FF3864" stroke-width="2"/>
<path d="M14.1397 32C12.7352 34.4326 11.9959 37.192 11.9961 40.0009C11.9963 42.8098 12.7359 45.5691 14.1406 48.0016C15.5453 50.434 17.5656 52.4537 19.9984 53.8578C22.4312 55.2618 25.1908 56.0006 27.9997 56" stroke="#FF3864" stroke-width="2"/>
<path d="M44 32C46.1217 32 48.1566 32.8429 49.6569 34.3431C51.1571 35.8434 52 37.8783 52 40C52 42.1217 51.1571 44.1566 49.6569 45.6569C48.1566 47.1571 46.1217 48 44 48" stroke="#FF3864" stroke-width="2"/>
<path d="M28 32C25.8783 32 23.8434 32.8429 22.3431 34.3431C20.8429 35.8434 20 37.8783 20 40C20 42.1217 20.8429 44.1566 22.3431 45.6569C23.8434 47.1571 25.8783 48 28 48" stroke="#FF3864" stroke-width="2"/>
<path d="M48 32C46.9391 32 45.9217 31.5786 45.1716 30.8284C44.4214 30.0783 44 29.0609 44 28C44 26.9391 44.4214 25.9217 45.1716 25.1716C45.9217 24.4214 46.9391 24 48 24" stroke="#FF3864" stroke-width="2"/>
<path d="M28 32C26.9391 32 25.9217 31.5786 25.1716 30.8284C24.4214 30.0783 24 29.0609 24 28C24 26.9391 24.4214 25.9217 25.1716 25.1716C25.9217 24.4214 26.9391 24 28 24" stroke="#FF3864" stroke-width="2"/>
<path d="M34 40H38" stroke="#FF3864" stroke-width="2"/>
<path d="M34 48H38" stroke="#FF3864" stroke-width="2"/>
<path d="M34 56H38" stroke="#FF3864" stroke-width="2"/>
<path d="M36 72H28V32" stroke="#FF3864" stroke-width="2"/>
<path d="M28 72L36 64H60V88L48 80L36 88V64" stroke="#FF3864" stroke-width="2"/>
<path d="M44 72H52" stroke="#FF3864" stroke-width="2"/>
<path d="M16 80L20 76" stroke="#FF3864" stroke-width="2"/>
<path d="M80 80L76 76" stroke="#FF3864" stroke-width="2"/>
<path d="M20 16V24" stroke="#FF3864" stroke-width="2"/>
<path d="M36 12V24" stroke="#FF3864" stroke-width="2"/>
<path d="M52 16V24" stroke="#FF3864" stroke-width="2"/>
<path d="M24 16H16" stroke="#FF3864" stroke-width="2"/>
<path d="M40 12H32" stroke="#FF3864" stroke-width="2"/>
<path d="M56 16H48" stroke="#FF3864" stroke-width="2"/>
<path d="M20 84L8 88L12 76L20 84Z" stroke="#FF3864" stroke-width="2"/>
<path d="M84 76L76 84L88 88L84 76Z" stroke="#FF3864" stroke-width="2"/>
</svg>
