<svg width="225" height="239" viewBox="0 0 225 239" fill="none" xmlns="http://www.w3.org/2000/svg">
<path d="M134.83 142.12H127.34V149.53H134.83V142.12Z" fill="#544B56"/>
<path d="M194.42 231.59H187.01V239H194.42V231.59Z" fill="black"/>
<path d="M90.0506 231.59H82.6406V239H90.0506V231.59Z" fill="black"/>
<path d="M187.01 231.59H179.52V239H187.01V231.59Z" fill="black"/>
<path d="M179.521 231.59H172.041V239H179.521V231.59Z" fill="black"/>
<path d="M157.131 231.59H149.721V239H157.131V231.59Z" fill="black"/>
<path d="M164.621 231.59H157.131V239H164.621V231.59Z" fill="black"/>
<path d="M172.031 231.59H164.621V239H172.031V231.59Z" fill="black"/>
<path d="M112.439 231.59H104.949V239H112.439V231.59Z" fill="black"/>
<path d="M104.951 231.59H97.541V239H104.951V231.59Z" fill="black"/>
<path d="M97.5408 231.59H90.0508V239H97.5408V231.59Z" fill="black"/>
<path d="M127.34 231.59H119.93V239H127.34V231.59Z" fill="black"/>
<path d="M119.929 231.59H112.439V239H119.929V231.59Z" fill="black"/>
<path d="M142.23 75.04H134.82V82.45H142.23V75.04Z" fill="#9087B5"/>
<path d="M134.83 75.04H127.34V82.45H134.83V75.04Z" fill="#9087B5"/>
<path d="M127.34 75.04H119.93V82.45H127.34V75.04Z" fill="#9087B5"/>
<path d="M149.72 75.04H142.23V82.45H149.72V75.04Z" fill="#9087B5"/>
<path d="M179.521 224.1H172.041V231.59H179.521V224.1Z" fill="#544B56"/>
<path d="M134.83 15.3701H127.34V22.8601H134.83V15.3701Z" fill="black"/>
<path d="M127.34 15.3701H119.93V22.8601H127.34V15.3701Z" fill="black"/>
<path d="M157.131 52.6504H149.721V60.1404H157.131V52.6504Z" fill="#F49364"/>
<path d="M157.131 45.1704H149.721V52.6604H157.131V45.1704Z" fill="#F49364"/>
<path d="M134.83 60.1401H127.34V67.5501H134.83V60.1401Z" fill="#FFEFD3"/>
<path d="M134.83 45.1704H127.34V52.6604H134.83V45.1704Z" fill="#FFEFD3"/>
<path d="M142.23 60.1401H134.82V67.5501H142.23V60.1401Z" fill="#FFEFD3"/>
<path d="M142.23 52.6504H134.82V60.1404H142.23V52.6504Z" fill="#FFEFD3"/>
<path d="M134.83 52.6504H127.34V60.1404H134.83V52.6504Z" fill="#FFEFD3"/>
<path d="M142.23 45.1704H134.82V52.6604H142.23V45.1704Z" fill="#FFEFD3"/>
<path d="M127.34 52.6504H119.93V60.1404H127.34V52.6504Z" fill="#FFEFD3"/>
<path d="M127.34 45.1704H119.93V52.6604H127.34V45.1704Z" fill="#FFEFD3"/>
<path d="M127.34 60.1401H119.93V67.5501H127.34V60.1401Z" fill="#FFEFD3"/>
<path d="M149.72 52.6504H142.23V60.1404H149.72V52.6504Z" fill="#FFEFD3"/>
<path d="M149.72 45.1704H142.23V52.6604H149.72V45.1704Z" fill="#FFEFD3"/>
<path d="M149.72 60.1401H142.23V67.5501H149.72V60.1401Z" fill="#FFEFD3"/>
<path d="M60.2595 149.53H52.7695V157.02H60.2595V149.53Z" fill="#F49364"/>
<path d="M52.7694 119.74H45.3594V127.23H52.7694V119.74Z" fill="#F49364"/>
<path d="M60.2595 112.33H52.7695V119.74H60.2595V112.33Z" fill="#F49364"/>
<path d="M52.7694 112.33H45.3594V119.74H52.7694V112.33Z" fill="#F49364"/>
<path d="M134.83 67.5503H127.34V75.0403H134.83V67.5503Z" fill="#7A3124"/>
<path d="M142.23 67.5503H134.82V75.0403H142.23V67.5503Z" fill="#7A3124"/>
<path d="M149.72 67.5503H142.23V75.0403H149.72V67.5503Z" fill="#7A3124"/>
<path d="M157.131 60.1401H149.721V67.5501H157.131V60.1401Z" fill="#7A3124"/>
<path d="M60.2595 142.12H52.7695V149.53H60.2595V142.12Z" fill="#7A3124"/>
<path d="M60.2595 127.22H52.7695V134.63H60.2595V127.22Z" fill="#7A3124"/>
<path d="M60.2595 119.74H52.7695V127.23H60.2595V119.74Z" fill="#7A3124"/>
<path d="M52.7694 127.22H45.3594V134.63H52.7694V127.22Z" fill="#7A3124"/>
<path d="M90.0506 127.22H82.6406V134.63H90.0506V127.22Z" fill="#7A3124"/>
<path d="M90.0506 119.74H82.6406V127.23H90.0506V119.74Z" fill="#7A3124"/>
<path d="M90.0506 112.33H82.6406V119.74H90.0506V112.33Z" fill="#7A3124"/>
<path d="M97.5408 112.33H90.0508V119.74H97.5408V112.33Z" fill="#7A3124"/>
<path d="M97.5408 119.74H90.0508V127.23H97.5408V119.74Z" fill="#7A3124"/>
<path d="M97.5408 127.22H90.0508V134.63H97.5408V127.22Z" fill="#7A3124"/>
<path d="M82.6404 119.74H75.1504V127.23H82.6404V119.74Z" fill="#9087B5"/>
<path d="M82.6404 112.33H75.1504V119.74H82.6404V112.33Z" fill="#9087B5"/>
<path d="M82.6404 127.22H75.1504V134.63H82.6404V127.22Z" fill="#9087B5"/>
<path d="M52.7694 97.3501H45.3594V104.84H52.7694V97.3501Z" fill="#544B56"/>
<path d="M104.951 194.3H97.541V201.71H104.951V194.3Z" fill="#E7DACE"/>
<path d="M172.031 194.3H164.621V201.71H172.031V194.3Z" fill="#E7DACE"/>
<path d="M164.621 194.3H157.131V201.71H164.621V194.3Z" fill="#E7DACE"/>
<path d="M179.521 89.9404H172.041V97.3504H179.521V89.9404Z" fill="#E7DACE"/>
<path d="M164.621 97.3501H157.131V104.84H164.621V97.3501Z" fill="#E7DACE"/>
<path d="M164.621 89.9404H157.131V97.3504H164.621V89.9404Z" fill="#E7DACE"/>
<path d="M164.621 112.33H157.131V119.74H164.621V112.33Z" fill="#E7DACE"/>
<path d="M164.621 104.84H157.131V112.33H164.621V104.84Z" fill="#E7DACE"/>
<path d="M172.031 89.9404H164.621V97.3504H172.031V89.9404Z" fill="#E7DACE"/>
<path d="M164.621 75.04H157.131V82.45H164.621V75.04Z" fill="#E7DACE"/>
<path d="M172.031 75.04H164.621V82.45H172.031V75.04Z" fill="#E7DACE"/>
<path d="M142.23 7.96045H134.82V15.3705H142.23V7.96045Z" fill="#E7DACE"/>
<path d="M134.83 7.96045H127.34V15.3705H134.83V7.96045Z" fill="#E7DACE"/>
<path d="M149.72 7.96045H142.23V15.3705H149.72V7.96045Z" fill="#E7DACE"/>
<path d="M134.83 89.9404H127.34V97.3504H134.83V89.9404Z" fill="#E7DACE"/>
<path d="M142.23 97.3501H134.82V104.84H142.23V97.3501Z" fill="#E7DACE"/>
<path d="M142.23 82.4502H134.82V89.9402H142.23V82.4502Z" fill="#E7DACE"/>
<path d="M134.83 104.84H127.34V112.33H134.83V104.84Z" fill="#E7DACE"/>
<path d="M134.83 97.3501H127.34V104.84H134.83V97.3501Z" fill="#E7DACE"/>
<path d="M142.23 89.9404H134.82V97.3504H142.23V89.9404Z" fill="#E7DACE"/>
<path d="M82.6404 134.63H75.1504V142.12H82.6404V134.63Z" fill="#544B56"/>
<path d="M75.1502 127.22H67.7402V134.63H75.1502V127.22Z" fill="#544B56"/>
<path d="M75.1502 119.74H67.7402V127.23H75.1502V119.74Z" fill="#544B56"/>
<path d="M67.74 119.74H60.25V127.23H67.74V119.74Z" fill="#544B56"/>
<path d="M67.74 127.22H60.25V134.63H67.74V127.22Z" fill="#544B56"/>
<path d="M187.01 224.1H179.52V231.59H187.01V224.1Z" fill="#544B56"/>
<path d="M179.521 216.62H172.041V224.1H179.521V216.62Z" fill="#544B56"/>
<path d="M157.131 201.72H149.721V209.2H157.131V201.72Z" fill="#544B56"/>
<path d="M172.031 224.1H164.621V231.59H172.031V224.1Z" fill="#544B56"/>
<path d="M172.031 216.62H164.621V224.1H172.031V216.62Z" fill="#544B56"/>
<path d="M172.031 209.2H164.621V216.62H172.031V209.2Z" fill="#544B56"/>
<path d="M172.031 201.72H164.621V209.2H172.031V201.72Z" fill="#544B56"/>
<path d="M164.621 224.1H157.131V231.59H164.621V224.1Z" fill="#544B56"/>
<path d="M164.621 209.2H157.131V216.62H164.621V209.2Z" fill="#544B56"/>
<path d="M164.621 216.62H157.131V224.1H164.621V216.62Z" fill="#544B56"/>
<path d="M164.621 201.72H157.131V209.2H164.621V201.72Z" fill="#544B56"/>
<path d="M157.131 186.82H149.721V194.31H157.131V186.82Z" fill="#544B56"/>
<path d="M164.621 186.82H157.131V194.31H164.621V186.82Z" fill="#544B56"/>
<path d="M149.72 179.41H142.23V186.82H149.72V179.41Z" fill="#544B56"/>
<path d="M149.72 171.92H142.23V179.41H149.72V171.92Z" fill="#544B56"/>
<path d="M157.131 171.92H149.721V179.41H157.131V171.92Z" fill="#544B56"/>
<path d="M157.131 179.41H149.721V186.82H157.131V179.41Z" fill="#544B56"/>
<path d="M157.131 164.44H149.721V171.92H157.131V164.44Z" fill="#544B56"/>
<path d="M164.621 171.92H157.131V179.41H164.621V171.92Z" fill="#544B56"/>
<path d="M164.621 179.41H157.131V186.82H164.621V179.41Z" fill="#544B56"/>
<path d="M172.031 179.41H164.621V186.82H172.031V179.41Z" fill="#544B56"/>
<path d="M112.439 209.2H104.949V216.62H112.439V209.2Z" fill="#544B56"/>
<path d="M112.439 216.62H104.949V224.1H112.439V216.62Z" fill="#544B56"/>
<path d="M112.439 224.1H104.949V231.59H112.439V224.1Z" fill="#544B56"/>
<path d="M112.439 201.72H104.949V209.2H112.439V201.72Z" fill="#544B56"/>
<path d="M104.951 201.72H97.541V209.2H104.951V201.72Z" fill="#544B56"/>
<path d="M104.951 224.1H97.541V231.59H104.951V224.1Z" fill="#544B56"/>
<path d="M97.5408 224.1H90.0508V231.59H97.5408V224.1Z" fill="#544B56"/>
<path d="M119.929 194.3H112.439V201.71H119.929V194.3Z" fill="#544B56"/>
<path d="M119.929 209.2H112.439V216.62H119.929V209.2Z" fill="#544B56"/>
<path d="M119.929 224.1H112.439V231.59H119.929V224.1Z" fill="#544B56"/>
<path d="M119.929 216.62H112.439V224.1H119.929V216.62Z" fill="#544B56"/>
<path d="M119.929 201.72H112.439V209.2H119.929V201.72Z" fill="#544B56"/>
<path d="M224.221 142.12H216.801V149.53H224.221V142.12Z" fill="black"/>
<path d="M224.221 134.63H216.801V142.12H224.221V134.63Z" fill="black"/>
<path d="M224.221 127.22H216.801V134.63H224.221V127.22Z" fill="black"/>
<path d="M224.221 119.74H216.801V127.23H224.221V119.74Z" fill="black"/>
<path d="M224.221 112.33H216.801V119.74H224.221V112.33Z" fill="black"/>
<path d="M224.221 104.84H216.801V112.33H224.221V104.84Z" fill="black"/>
<path d="M224.221 97.3501H216.801V104.84H224.221V97.3501Z" fill="black"/>
<path d="M224.221 89.9404H216.801V97.3504H224.221V89.9404Z" fill="black"/>
<path d="M224.221 82.4502H216.801V89.9402H224.221V82.4502Z" fill="black"/>
<path d="M216.8 149.53H209.32V157.02H216.8V149.53Z" fill="black"/>
<path d="M216.8 142.12H209.32V149.53H216.8V142.12Z" fill="#544B56"/>
<path d="M216.8 134.63H209.32V142.12H216.8V134.63Z" fill="#544B56"/>
<path d="M216.8 127.22H209.32V134.63H216.8V127.22Z" fill="#544B56"/>
<path d="M216.8 119.74H209.32V127.23H216.8V119.74Z" fill="#544B56"/>
<path d="M216.8 112.33H209.32V119.74H216.8V112.33Z" fill="#544B56"/>
<path d="M216.8 104.84H209.32V112.33H216.8V104.84Z" fill="#544B56"/>
<path d="M216.8 97.3501H209.32V104.84H216.8V97.3501Z" fill="#544B56"/>
<path d="M216.8 89.9404H209.32V97.3504H216.8V89.9404Z" fill="#544B56"/>
<path d="M216.8 82.4502H209.32V89.9402H216.8V82.4502Z" fill="#544B56"/>
<path d="M216.8 75.04H209.32V82.45H216.8V75.04Z" fill="black"/>
<path d="M209.32 157.02H201.91V164.43H209.32V157.02Z" fill="black"/>
<path d="M209.32 149.53H201.91V157.02H209.32V149.53Z" fill="#544B56"/>
<path d="M209.32 142.12H201.91V149.53H209.32V142.12Z" fill="#89031A"/>
<path d="M209.32 134.63H201.91V142.12H209.32V134.63Z" fill="#89031A"/>
<path d="M209.32 127.22H201.91V134.63H209.32V127.22Z" fill="#89031A"/>
<path d="M209.32 119.74H201.91V127.23H209.32V119.74Z" fill="#89031A"/>
<path d="M209.32 112.33H201.91V119.74H209.32V112.33Z" fill="#89031A"/>
<path d="M209.32 104.84H201.91V112.33H209.32V104.84Z" fill="#89031A"/>
<path d="M209.32 97.3501H201.91V104.84H209.32V97.3501Z" fill="#89031A"/>
<path d="M209.32 89.9404H201.91V97.3504H209.32V89.9404Z" fill="#89031A"/>
<path d="M209.32 82.4502H201.91V89.9402H209.32V82.4502Z" fill="#544B56"/>
<path d="M209.32 75.04H201.91V82.45H209.32V75.04Z" fill="black"/>
<path d="M201.91 164.44H194.42V171.92H201.91V164.44Z" fill="black"/>
<path d="M201.91 157.02H194.42V164.43H201.91V157.02Z" fill="#544B56"/>
<path d="M201.91 149.53H194.42V157.02H201.91V149.53Z" fill="#89031A"/>
<path d="M201.91 142.12H194.42V149.53H201.91V142.12Z" fill="#89031A"/>
<path d="M201.91 134.63H194.42V142.12H201.91V134.63Z" fill="#89031A"/>
<path d="M201.91 127.22H194.42V134.63H201.91V127.22Z" fill="#89031A"/>
<path d="M201.91 119.74H194.42V127.23H201.91V119.74Z" fill="#89031A"/>
<path d="M201.91 112.33H194.42V119.74H201.91V112.33Z" fill="#89031A"/>
<path d="M201.91 104.84H194.42V112.33H201.91V104.84Z" fill="#89031A"/>
<path d="M201.91 97.3501H194.42V104.84H201.91V97.3501Z" fill="#89031A"/>
<path d="M201.91 89.9404H194.42V97.3504H201.91V89.9404Z" fill="#544B56"/>
<path d="M201.91 82.4502H194.42V89.9402H201.91V82.4502Z" fill="black"/>
<path d="M194.42 224.1H187.01V231.59H194.42V224.1Z" fill="black"/>
<path d="M194.42 171.92H187.01V179.41H194.42V171.92Z" fill="black"/>
<path d="M194.42 164.44H187.01V171.92H194.42V164.44Z" fill="#544B56"/>
<path d="M194.42 157.02H187.01V164.43H194.42V157.02Z" fill="#89031A"/>
<path d="M194.42 149.53H187.01V157.02H194.42V149.53Z" fill="#89031A"/>
<path d="M194.42 142.12H187.01V149.53H194.42V142.12Z" fill="#89031A"/>
<path d="M194.42 134.63H187.01V142.12H194.42V134.63Z" fill="#89031A"/>
<path d="M194.42 127.22H187.01V134.63H194.42V127.22Z" fill="#89031A"/>
<path d="M194.42 119.74H187.01V127.23H194.42V119.74Z" fill="#89031A"/>
<path d="M194.42 112.33H187.01V119.74H194.42V112.33Z" fill="#89031A"/>
<path d="M194.42 104.84H187.01V112.33H194.42V104.84Z" fill="#89031A"/>
<path d="M194.42 97.3501H187.01V104.84H194.42V97.3501Z" fill="#89031A"/>
<path d="M194.42 89.9404H187.01V97.3504H194.42V89.9404Z" fill="#544B56"/>
<path d="M194.42 82.4502H187.01V89.9402H194.42V82.4502Z" fill="black"/>
<path d="M187.01 216.62H179.52V224.1H187.01V216.62Z" fill="black"/>
<path d="M187.01 194.3H179.52V201.71H187.01V194.3Z" fill="black"/>
<path d="M187.01 171.92H179.52V179.41H187.01V171.92Z" fill="black"/>
<path d="M187.01 164.44H179.52V171.92H187.01V164.44Z" fill="#9087B5"/>
<path d="M187.01 157.02H179.52V164.43H187.01V157.02Z" fill="#544B56"/>
<path d="M187.01 149.53H179.52V157.02H187.01V149.53Z" fill="#A30417"/>
<path d="M187.01 142.12H179.52V149.53H187.01V142.12Z" fill="#A30417"/>
<path d="M187.01 134.63H179.52V142.12H187.01V134.63Z" fill="#A30417"/>
<path d="M187.01 127.22H179.52V134.63H187.01V127.22Z" fill="#A30417"/>
<path d="M187.01 119.74H179.52V127.23H187.01V119.74Z" fill="#EF0012"/>
<path d="M187.01 112.33H179.52V119.74H187.01V112.33Z" fill="#EF0012"/>
<path d="M187.01 104.84H179.52V112.33H187.01V104.84Z" fill="#EF0012"/>
<path d="M187.01 97.3501H179.52V104.84H187.01V97.3501Z" fill="#EF0012"/>
<path d="M187.01 89.9404H179.52V97.3504H187.01V89.9404Z" fill="#9087B5"/>
<path d="M187.01 82.4502H179.52V89.9402H187.01V82.4502Z" fill="black"/>
<path d="M187.01 75.04H179.52V82.45H187.01V75.04Z" fill="black"/>
<path d="M179.521 209.2H172.041V216.62H179.521V209.2Z" fill="black"/>
<path d="M179.521 201.72H172.041V209.2H179.521V201.72Z" fill="black"/>
<path d="M179.521 194.3H172.041V201.71H179.521V194.3Z" fill="#9087B5"/>
<path d="M179.521 186.82H172.041V194.31H179.521V186.82Z" fill="black"/>
<path d="M179.521 179.41H172.041V186.82H179.521V179.41Z" fill="black"/>
<path d="M179.521 171.92H172.041V179.41H179.521V171.92Z" fill="black"/>
<path d="M179.521 164.44H172.041V171.92H179.521V164.44Z" fill="black"/>
<path d="M179.521 157.02H172.041V164.43H179.521V157.02Z" fill="#9087B5"/>
<path d="M179.521 149.53H172.041V157.02H179.521V149.53Z" fill="#544B56"/>
<path d="M179.521 142.12H172.041V149.53H179.521V142.12Z" fill="#A30417"/>
<path d="M179.521 134.63H172.041V142.12H179.521V134.63Z" fill="#A30417"/>
<path d="M179.521 127.22H172.041V134.63H179.521V127.22Z" fill="#A30417"/>
<path d="M179.521 119.74H172.041V127.23H179.521V119.74Z" fill="#A30417"/>
<path d="M179.521 112.33H172.041V119.74H179.521V112.33Z" fill="#EF0012"/>
<path d="M179.521 104.84H172.041V112.33H179.521V104.84Z" fill="#EF0012"/>
<path d="M179.521 97.3501H172.041V104.84H179.521V97.3501Z" fill="#EF0012"/>
<path d="M179.521 82.4502H172.041V89.9402H179.521V82.4502Z" fill="black"/>
<path d="M179.521 75.04H172.041V82.45H179.521V75.04Z" fill="#9087B5"/>
<path d="M179.521 67.5503H172.041V75.0403H179.521V67.5503Z" fill="black"/>
<path d="M179.521 45.1704H172.041V52.6604H179.521V45.1704Z" fill="black"/>
<path d="M179.521 37.7603H172.041V45.1703H179.521V37.7603Z" fill="black"/>
<path d="M179.521 30.27H172.041V37.76H179.521V30.27Z" fill="black"/>
<path d="M172.031 186.82H164.621V194.31H172.031V186.82Z" fill="black"/>
<path d="M172.031 171.92H164.621V179.41H172.031V171.92Z" fill="black"/>
<path d="M172.031 164.44H164.621V171.92H172.031V164.44Z" fill="black"/>
<path d="M172.031 157.02H164.621V164.43H172.031V157.02Z" fill="black"/>
<path d="M172.031 149.53H164.621V157.02H172.031V149.53Z" fill="#9087B5"/>
<path d="M172.031 142.12H164.621V149.53H172.031V142.12Z" fill="#A30417"/>
<path d="M172.031 134.63H164.621V142.12H172.031V134.63Z" fill="#A30417"/>
<path d="M172.031 127.22H164.621V134.63H172.031V127.22Z" fill="#A30417"/>
<path d="M172.031 119.74H164.621V127.23H172.031V119.74Z" fill="#A30417"/>
<path d="M172.031 112.33H164.621V119.74H172.031V112.33Z" fill="#A30417"/>
<path d="M172.031 104.84H164.621V112.33H172.031V104.84Z" fill="#EF0012"/>
<path d="M172.031 97.3501H164.621V104.84H172.031V97.3501Z" fill="#EF0012"/>
<path d="M172.031 82.4502H164.621V89.9402H172.031V82.4502Z" fill="black"/>
<path d="M172.031 67.5503H164.621V75.0403H172.031V67.5503Z" fill="black"/>
<path d="M172.031 52.6504H164.621V60.1404H172.031V52.6504Z" fill="black"/>
<path d="M172.031 45.1704H164.621V52.6604H172.031V45.1704Z" fill="#544B56"/>
<path d="M172.031 37.7603H164.621V45.1703H172.031V37.7603Z" fill="black"/>
<path d="M172.031 30.27H164.621V37.76H172.031V30.27Z" fill="#544B56"/>
<path d="M172.031 22.8604H164.621V30.2703H172.031V22.8604Z" fill="black"/>
<path d="M172.031 15.3701H164.621V22.8601H172.031V15.3701Z" fill="black"/>
<path d="M164.621 164.44H157.131V171.92H164.621V164.44Z" fill="black"/>
<path d="M164.621 157.02H157.131V164.43H164.621V157.02Z" fill="black"/>
<path d="M164.621 149.53H157.131V157.02H164.621V149.53Z" fill="black"/>
<path d="M164.621 142.12H157.131V149.53H164.621V142.12Z" fill="#9087B5"/>
<path d="M164.621 134.63H157.131V142.12H164.621V134.63Z" fill="#9087B5"/>
<path d="M164.621 127.22H157.131V134.63H164.621V127.22Z" fill="#9087B5"/>
<path d="M164.621 119.74H157.131V127.23H164.621V119.74Z" fill="#9087B5"/>
<path d="M164.621 82.4502H157.131V89.9402H164.621V82.4502Z" fill="black"/>
<path d="M164.621 67.5503H157.131V75.0403H164.621V67.5503Z" fill="black"/>
<path d="M164.621 60.1401H157.131V67.5501H164.621V60.1401Z" fill="black"/>
<path d="M164.621 52.6504H157.131V60.1404H164.621V52.6504Z" fill="#544B56"/>
<path d="M164.621 45.1704H157.131V52.6604H164.621V45.1704Z" fill="#544B56"/>
<path d="M164.621 37.7603H157.131V45.1703H164.621V37.7603Z" fill="black"/>
<path d="M164.621 30.27H157.131V37.76H164.621V30.27Z" fill="#9087B5"/>
<path d="M164.621 22.8604H157.131V30.2703H164.621V22.8604Z" fill="#544B56"/>
<path d="M164.621 15.3701H157.131V22.8601H164.621V15.3701Z" fill="#9087B5"/>
<path d="M164.621 7.96045H157.131V15.3705H164.621V7.96045Z" fill="black"/>
<path d="M157.131 224.1H149.721V231.59H157.131V224.1Z" fill="black"/>
<path d="M157.131 216.62H149.721V224.1H157.131V216.62Z" fill="black"/>
<path d="M157.131 209.2H149.721V216.62H157.131V209.2Z" fill="black"/>
<path d="M157.131 194.3H149.721V201.71H157.131V194.3Z" fill="#9087B5"/>
<path d="M157.131 157.02H149.721V164.43H157.131V157.02Z" fill="black"/>
<path d="M157.131 149.53H149.721V157.02H157.131V149.53Z" fill="black"/>
<path d="M157.131 142.12H149.721V149.53H157.131V142.12Z" fill="black"/>
<path d="M157.131 134.63H149.721V142.12H157.131V134.63Z" fill="black"/>
<path d="M157.131 127.22H149.721V134.63H157.131V127.22Z" fill="black"/>
<path d="M157.131 119.74H149.721V127.23H157.131V119.74Z" fill="black"/>
<path d="M157.131 112.33H149.721V119.74H157.131V112.33Z" fill="black"/>
<path d="M157.131 104.84H149.721V112.33H157.131V104.84Z" fill="black"/>
<path d="M157.131 97.3501H149.721V104.84H157.131V97.3501Z" fill="black"/>
<path d="M157.131 89.9404H149.721V97.3504H157.131V89.9404Z" fill="black"/>
<path d="M157.131 82.4502H149.721V89.9402H157.131V82.4502Z" fill="black"/>
<path d="M157.131 75.04H149.721V82.45H157.131V75.04Z" fill="#9087B5"/>
<path d="M157.131 67.5503H149.721V75.0403H157.131V67.5503Z" fill="black"/>
<path d="M157.131 37.7603H149.721V45.1703H157.131V37.7603Z" fill="black"/>
<path d="M157.131 30.27H149.721V37.76H157.131V30.27Z" fill="#9087B5"/>
<path d="M157.131 22.8604H149.721V30.2703H157.131V22.8604Z" fill="#9087B5"/>
<path d="M157.131 15.3701H149.721V22.8601H157.131V15.3701Z" fill="#544B56"/>
<path d="M157.131 7.96045H149.721V15.3705H157.131V7.96045Z" fill="#9087B5"/>
<path d="M157.131 0.470215H149.721V7.96021H157.131V0.470215Z" fill="black"/>
<path d="M149.72 201.72H142.23V209.2H149.72V201.72Z" fill="black"/>
<path d="M149.72 194.3H142.23V201.71H149.72V194.3Z" fill="black"/>
<path d="M149.72 186.82H142.23V194.31H149.72V186.82Z" fill="black"/>
<path d="M149.72 164.44H142.23V171.92H149.72V164.44Z" fill="black"/>
<path d="M149.72 157.02H142.23V164.43H149.72V157.02Z" fill="black"/>
<path d="M149.72 149.53H142.23V157.02H149.72V149.53Z" fill="black"/>
<path d="M149.72 142.12H142.23V149.53H149.72V142.12Z" fill="black"/>
<path d="M149.72 134.63H142.23V142.12H149.72V134.63Z" fill="black"/>
<path d="M149.72 127.22H142.23V134.63H149.72V127.22Z" fill="black"/>
<path d="M149.72 119.74H142.23V127.23H149.72V119.74Z" fill="#544B56"/>
<path d="M149.72 112.33H142.23V119.74H149.72V112.33Z" fill="#9087B5"/>
<path d="M149.72 104.84H142.23V112.33H149.72V104.84Z" fill="#9087B5"/>
<path d="M149.72 97.3501H142.23V104.84H149.72V97.3501Z" fill="#9087B5"/>
<path d="M149.72 89.9404H142.23V97.3504H149.72V89.9404Z" fill="#9087B5"/>
<path d="M149.72 82.4502H142.23V89.9402H149.72V82.4502Z" fill="#9087B5"/>
<path d="M149.72 37.7603H142.23V45.1703H149.72V37.7603Z" fill="black"/>
<path d="M149.72 30.27H142.23V37.76H149.72V30.27Z" fill="#9087B5"/>
<path d="M149.72 22.8604H142.23V30.2703H149.72V22.8604Z" fill="#9087B5"/>
<path d="M149.72 15.3701H142.23V22.8601H149.72V15.3701Z" fill="#544B56"/>
<path d="M149.72 0.470215H142.23V7.96021H149.72V0.470215Z" fill="black"/>
<path d="M142.23 179.41H134.82V186.82H142.23V179.41Z" fill="black"/>
<path d="M142.23 171.92H134.82V179.41H142.23V171.92Z" fill="black"/>
<path d="M142.23 164.44H134.82V171.92H142.23V164.44Z" fill="#544B56"/>
<path d="M142.23 157.02H134.82V164.43H142.23V157.02Z" fill="#9087B5"/>
<path d="M142.23 149.53H134.82V157.02H142.23V149.53Z" fill="#9087B5"/>
<path d="M142.23 142.12H134.82V149.53H142.23V142.12Z" fill="#9087B5"/>
<path d="M142.23 134.63H134.82V142.12H142.23V134.63Z" fill="black"/>
<path d="M142.23 127.22H134.82V134.63H142.23V127.22Z" fill="#544B56"/>
<path d="M142.23 119.74H134.82V127.23H142.23V119.74Z" fill="#9087B5"/>
<path d="M142.23 112.33H134.82V119.74H142.23V112.33Z" fill="#9087B5"/>
<path d="M142.23 104.84H134.82V112.33H142.23V104.84Z" fill="#9087B5"/>
<path d="M142.23 37.7603H134.82V45.1703H142.23V37.7603Z" fill="black"/>
<path d="M142.23 30.27H134.82V37.76H142.23V30.27Z" fill="#9087B5"/>
<path d="M142.23 22.8604H134.82V30.2703H142.23V22.8604Z" fill="#9087B5"/>
<path d="M142.23 15.3701H134.82V22.8601H142.23V15.3701Z" fill="#544B56"/>
<path d="M142.23 0.470215H134.82V7.96021H142.23V0.470215Z" fill="black"/>
<path d="M134.83 179.41H127.34V186.82H134.83V179.41Z" fill="black"/>
<path d="M134.83 171.92H127.34V179.41H134.83V171.92Z" fill="black"/>
<path d="M134.83 164.44H127.34V171.92H134.83V164.44Z" fill="#9087B5"/>
<path d="M134.83 157.02H127.34V164.43H134.83V157.02Z" fill="#9087B5"/>
<path d="M134.83 149.53H127.34V157.02H134.83V149.53Z" fill="#9087B5"/>
<path d="M134.83 134.63H127.34V142.12H134.83V134.63Z" fill="#544B56"/>
<path d="M134.83 127.22H127.34V134.63H134.83V127.22Z" fill="#9087B5"/>
<path d="M134.83 119.74H127.34V127.23H134.83V119.74Z" fill="#9087B5"/>
<path d="M134.83 112.33H127.34V119.74H134.83V112.33Z" fill="#9087B5"/>
<path d="M134.83 82.4502H127.34V89.9402H134.83V82.4502Z" fill="#9087B5"/>
<path d="M134.83 37.7603H127.34V45.1703H134.83V37.7603Z" fill="black"/>
<path d="M134.83 30.27H127.34V37.76H134.83V30.27Z" fill="#9087B5"/>
<path d="M134.83 22.8604H127.34V30.2703H134.83V22.8604Z" fill="#9087B5"/>
<path d="M134.83 0.470215H127.34V7.96021H134.83V0.470215Z" fill="black"/>
<path d="M127.34 224.1H119.93V231.59H127.34V224.1Z" fill="black"/>
<path d="M127.34 216.62H119.93V224.1H127.34V216.62Z" fill="black"/>
<path d="M127.34 209.2H119.93V216.62H127.34V209.2Z" fill="black"/>
<path d="M127.34 201.72H119.93V209.2H127.34V201.72Z" fill="black"/>
<path d="M127.34 194.3H119.93V201.71H127.34V194.3Z" fill="black"/>
<path d="M127.34 186.82H119.93V194.31H127.34V186.82Z" fill="black"/>
<path d="M127.34 179.41H119.93V186.82H127.34V179.41Z" fill="#544B56"/>
<path d="M127.34 171.92H119.93V179.41H127.34V171.92Z" fill="black"/>
<path d="M127.34 164.44H119.93V171.92H127.34V164.44Z" fill="#544B56"/>
<path d="M127.34 157.02H119.93V164.43H127.34V157.02Z" fill="#544B56"/>
<path d="M127.34 149.53H119.93V157.02H127.34V149.53Z" fill="#544B56"/>
<path d="M127.34 142.12H119.93V149.53H127.34V142.12Z" fill="#544B56"/>
<path d="M127.34 134.63H119.93V142.12H127.34V134.63Z" fill="#544B56"/>
<path d="M127.34 127.22H119.93V134.63H127.34V127.22Z" fill="#544B56"/>
<path d="M127.34 119.74H119.93V127.23H127.34V119.74Z" fill="#544B56"/>
<path d="M127.34 112.33H119.93V119.74H127.34V112.33Z" fill="#544B56"/>
<path d="M127.34 104.84H119.93V112.33H127.34V104.84Z" fill="#544B56"/>
<path d="M127.34 97.3501H119.93V104.84H127.34V97.3501Z" fill="#9087B5"/>
<path d="M127.34 89.9404H119.93V97.3504H127.34V89.9404Z" fill="#9087B5"/>
<path d="M127.34 82.4502H119.93V89.9402H127.34V82.4502Z" fill="#9087B5"/>
<path d="M127.34 67.5503H119.93V75.0403H127.34V67.5503Z" fill="black"/>
<path d="M127.34 37.7603H119.93V45.1703H127.34V37.7603Z" fill="black"/>
<path d="M127.34 30.27H119.93V37.76H127.34V30.27Z" fill="#544B56"/>
<path d="M127.34 22.8604H119.93V30.2703H127.34V22.8604Z" fill="#544B56"/>
<path d="M127.34 7.96045H119.93V15.3705H127.34V7.96045Z" fill="#9087B5"/>
<path d="M127.34 0.470215H119.93V7.96021H127.34V0.470215Z" fill="black"/>
<path d="M119.929 186.82H112.439V194.31H119.929V186.82Z" fill="black"/>
<path d="M119.929 179.41H112.439V186.82H119.929V179.41Z" fill="#544B56"/>
<path d="M119.929 171.92H112.439V179.41H119.929V171.92Z" fill="#544B56"/>
<path d="M119.929 164.44H112.439V171.92H119.929V164.44Z" fill="black"/>
<path d="M119.929 157.02H112.439V164.43H119.929V157.02Z" fill="black"/>
<path d="M119.929 149.53H112.439V157.02H119.929V149.53Z" fill="black"/>
<path d="M119.929 142.12H112.439V149.53H119.929V142.12Z" fill="black"/>
<path d="M119.929 134.63H112.439V142.12H119.929V134.63Z" fill="black"/>
<path d="M119.929 127.22H112.439V134.63H119.929V127.22Z" fill="black"/>
<path d="M119.929 119.74H112.439V127.23H119.929V119.74Z" fill="#544B56"/>
<path d="M119.929 112.33H112.439V119.74H119.929V112.33Z" fill="#544B56"/>
<path d="M119.929 104.84H112.439V112.33H119.929V104.84Z" fill="#544B56"/>
<path d="M119.929 97.3501H112.439V104.84H119.929V97.3501Z" fill="#9087B5"/>
<path d="M119.929 89.9404H112.439V97.3504H119.929V89.9404Z" fill="#9087B5"/>
<path d="M119.929 82.4502H112.439V89.9402H119.929V82.4502Z" fill="#544B56"/>
<path d="M119.929 75.04H112.439V82.45H119.929V75.04Z" fill="#544B56"/>
<path d="M119.929 67.5503H112.439V75.0403H119.929V67.5503Z" fill="black"/>
<path d="M119.929 60.1401H112.439V67.5501H119.929V60.1401Z" fill="black"/>
<path d="M119.929 52.6504H112.439V60.1404H119.929V52.6504Z" fill="#544B56"/>
<path d="M119.929 45.1704H112.439V52.6604H119.929V45.1704Z" fill="#544B56"/>
<path d="M119.929 37.7603H112.439V45.1703H119.929V37.7603Z" fill="black"/>
<path d="M119.929 30.27H112.439V37.76H119.929V30.27Z" fill="#544B56"/>
<path d="M119.929 22.8604H112.439V30.2703H119.929V22.8604Z" fill="#544B56"/>
<path d="M119.929 15.3701H112.439V22.8601H119.929V15.3701Z" fill="black"/>
<path d="M119.929 7.96045H112.439V15.3705H119.929V7.96045Z" fill="black"/>
<path d="M112.439 194.3H104.949V201.71H112.439V194.3Z" fill="#9087B5"/>
<path d="M112.439 186.82H104.949V194.31H112.439V186.82Z" fill="#544B56"/>
<path d="M112.439 179.41H104.949V186.82H112.439V179.41Z" fill="#544B56"/>
<path d="M112.439 171.92H104.949V179.41H112.439V171.92Z" fill="#544B56"/>
<path d="M112.439 164.44H104.949V171.92H112.439V164.44Z" fill="#544B56"/>
<path d="M112.439 157.02H104.949V164.43H112.439V157.02Z" fill="black"/>
<path d="M112.439 149.53H104.949V157.02H112.439V149.53Z" fill="#9087B5"/>
<path d="M112.439 142.12H104.949V149.53H112.439V142.12Z" fill="#9087B5"/>
<path d="M112.439 134.63H104.949V142.12H112.439V134.63Z" fill="black"/>
<path d="M112.439 127.22H104.949V134.63H112.439V127.22Z" fill="black"/>
<path d="M112.439 119.74H104.949V127.23H112.439V119.74Z" fill="black"/>
<path d="M112.439 112.33H104.949V119.74H112.439V112.33Z" fill="#544B56"/>
<path d="M112.439 104.84H104.949V112.33H112.439V104.84Z" fill="#544B56"/>
<path d="M112.439 97.3501H104.949V104.84H112.439V97.3501Z" fill="black"/>
<path d="M112.439 89.9404H104.949V97.3504H112.439V89.9404Z" fill="black"/>
<path d="M112.439 82.4502H104.949V89.9402H112.439V82.4502Z" fill="#544B56"/>
<path d="M112.439 75.04H104.949V82.45H112.439V75.04Z" fill="#9087B5"/>
<path d="M112.439 67.5503H104.949V75.0403H112.439V67.5503Z" fill="black"/>
<path d="M112.439 52.6504H104.949V60.1404H112.439V52.6504Z" fill="black"/>
<path d="M112.439 45.1704H104.949V52.6604H112.439V45.1704Z" fill="black"/>
<path d="M112.439 37.7603H104.949V45.1703H112.439V37.7603Z" fill="black"/>
<path d="M112.439 30.27H104.949V37.76H112.439V30.27Z" fill="#9087B5"/>
<path d="M112.439 22.8604H104.949V30.2703H112.439V22.8604Z" fill="#9087B5"/>
<path d="M112.439 15.3701H104.949V22.8601H112.439V15.3701Z" fill="black"/>
<path d="M104.951 216.62H97.541V224.1H104.951V216.62Z" fill="black"/>
<path d="M104.951 209.2H97.541V216.62H104.951V209.2Z" fill="black"/>
<path d="M104.951 186.82H97.541V194.31H104.951V186.82Z" fill="#544B56"/>
<path d="M104.951 179.41H97.541V186.82H104.951V179.41Z" fill="#544B56"/>
<path d="M104.951 171.92H97.541V179.41H104.951V171.92Z" fill="#544B56"/>
<path d="M104.951 164.44H97.541V171.92H104.951V164.44Z" fill="black"/>
<path d="M104.951 157.02H97.541V164.43H104.951V157.02Z" fill="#9087B5"/>
<path d="M104.951 149.53H97.541V157.02H104.951V149.53Z" fill="#9087B5"/>
<path d="M104.951 142.12H97.541V149.53H104.951V142.12Z" fill="#544B56"/>
<path d="M104.951 134.63H97.541V142.12H104.951V134.63Z" fill="black"/>
<path d="M104.951 127.22H97.541V134.63H104.951V127.22Z" fill="black"/>
<path d="M104.951 119.74H97.541V127.23H104.951V119.74Z" fill="black"/>
<path d="M104.951 112.33H97.541V119.74H104.951V112.33Z" fill="black"/>
<path d="M104.951 104.84H97.541V112.33H104.951V104.84Z" fill="black"/>
<path d="M104.951 97.3501H97.541V104.84H104.951V97.3501Z" fill="#544B56"/>
<path d="M104.951 89.9404H97.541V97.3504H104.951V89.9404Z" fill="#544B56"/>
<path d="M104.951 82.4502H97.541V89.9402H104.951V82.4502Z" fill="#9087B5"/>
<path d="M104.951 75.04H97.541V82.45H104.951V75.04Z" fill="#9087B5"/>
<path d="M104.951 67.5503H97.541V75.0403H104.951V67.5503Z" fill="black"/>
<path d="M104.951 37.7603H97.541V45.1703H104.951V37.7603Z" fill="black"/>
<path d="M104.951 30.27H97.541V37.76H104.951V30.27Z" fill="black"/>
<path d="M104.951 22.8604H97.541V30.2703H104.951V22.8604Z" fill="black"/>
<path d="M97.5408 216.62H90.0508V224.1H97.5408V216.62Z" fill="black"/>
<path d="M97.5408 201.72H90.0508V209.2H97.5408V201.72Z" fill="black"/>
<path d="M97.5408 194.3H90.0508V201.71H97.5408V194.3Z" fill="#9087B5"/>
<path d="M97.5408 186.82H90.0508V194.31H97.5408V186.82Z" fill="black"/>
<path d="M97.5408 179.41H90.0508V186.82H97.5408V179.41Z" fill="black"/>
<path d="M97.5408 171.92H90.0508V179.41H97.5408V171.92Z" fill="black"/>
<path d="M97.5408 164.44H90.0508V171.92H97.5408V164.44Z" fill="black"/>
<path d="M97.5408 157.02H90.0508V164.43H97.5408V157.02Z" fill="black"/>
<path d="M97.5408 149.53H90.0508V157.02H97.5408V149.53Z" fill="black"/>
<path d="M97.5408 142.12H90.0508V149.53H97.5408V142.12Z" fill="black"/>
<path d="M97.5408 134.63H90.0508V142.12H97.5408V134.63Z" fill="black"/>
<path d="M97.5408 104.84H90.0508V112.33H97.5408V104.84Z" fill="black"/>
<path d="M97.5408 97.3501H90.0508V104.84H97.5408V97.3501Z" fill="#544B56"/>
<path d="M97.5408 89.9404H90.0508V97.3504H97.5408V89.9404Z" fill="#9087B5"/>
<path d="M97.5408 82.4502H90.0508V89.9402H97.5408V82.4502Z" fill="#9087B5"/>
<path d="M97.5408 75.04H90.0508V82.45H97.5408V75.04Z" fill="black"/>
<path d="M90.0506 224.1H82.6406V231.59H90.0506V224.1Z" fill="black"/>
<path d="M90.0506 194.3H82.6406V201.71H90.0506V194.3Z" fill="black"/>
<path d="M90.0506 134.63H82.6406V142.12H90.0506V134.63Z" fill="black"/>
<path d="M90.0506 104.84H82.6406V112.33H90.0506V104.84Z" fill="black"/>
<path d="M90.0506 97.3501H82.6406V104.84H90.0506V97.3501Z" fill="black"/>
<path d="M90.0506 89.9404H82.6406V97.3504H90.0506V89.9404Z" fill="black"/>
<path d="M90.0506 82.4502H82.6406V89.9402H90.0506V82.4502Z" fill="black"/>
<path d="M82.6404 142.12H75.1504V149.53H82.6404V142.12Z" fill="black"/>
<path d="M82.6404 104.84H75.1504V112.33H82.6404V104.84Z" fill="black"/>
<path d="M75.1502 134.63H67.7402V142.12H75.1502V134.63Z" fill="black"/>
<path d="M75.1502 112.33H67.7402V119.74H75.1502V112.33Z" fill="black"/>
<path d="M67.74 157.02H60.25V164.43H67.74V157.02Z" fill="black"/>
<path d="M67.74 149.53H60.25V157.02H67.74V149.53Z" fill="black"/>
<path d="M67.74 142.12H60.25V149.53H67.74V142.12Z" fill="black"/>
<path d="M67.74 134.63H60.25V142.12H67.74V134.63Z" fill="black"/>
<path d="M67.74 112.33H60.25V119.74H67.74V112.33Z" fill="black"/>
<path d="M67.74 104.84H60.25V112.33H67.74V104.84Z" fill="black"/>
<path d="M67.74 97.3501H60.25V104.84H67.74V97.3501Z" fill="black"/>
<path d="M60.2595 157.02H52.7695V164.43H60.2595V157.02Z" fill="black"/>
<path d="M60.2595 134.63H52.7695V142.12H60.2595V134.63Z" fill="black"/>
<path d="M60.2595 104.84H52.7695V112.33H60.2595V104.84Z" fill="#9087B5"/>
<path d="M60.2595 97.3501H52.7695V104.84H60.2595V97.3501Z" fill="#E7DACE"/>
<path d="M60.2595 89.9404H52.7695V97.3504H60.2595V89.9404Z" fill="black"/>
<path d="M52.7694 157.02H45.3594V164.43H52.7694V157.02Z" fill="black"/>
<path d="M52.7694 149.53H45.3594V157.02H52.7694V149.53Z" fill="black"/>
<path d="M52.7694 142.12H45.3594V149.53H52.7694V142.12Z" fill="black"/>
<path d="M52.7694 134.63H45.3594V142.12H52.7694V134.63Z" fill="black"/>
<path d="M52.7694 104.84H45.3594V112.33H52.7694V104.84Z" fill="#9087B5"/>
<path d="M52.7694 89.9404H45.3594V97.3504H52.7694V89.9404Z" fill="black"/>
<path d="M52.7694 82.4502H45.3594V89.9402H52.7694V82.4502Z" fill="black"/>
<path d="M52.7694 75.04H45.3594V82.45H52.7694V75.04Z" fill="black"/>
<path d="M45.3611 134.63H37.8711V142.12H45.3611V134.63Z" fill="black"/>
<path d="M45.3611 127.22H37.8711V134.63H45.3611V127.22Z" fill="black"/>
<path d="M45.3611 119.74H37.8711V127.23H45.3611V119.74Z" fill="black"/>
<path d="M45.3611 112.33H37.8711V119.74H45.3611V112.33Z" fill="#9087B5"/>
<path d="M45.3611 104.84H37.8711V112.33H45.3611V104.84Z" fill="#544B56"/>
<path d="M45.3611 97.3501H37.8711V104.84H45.3611V97.3501Z" fill="#E7DACE"/>
<path d="M45.3611 89.9404H37.8711V97.3504H45.3611V89.9404Z" fill="#E7DACE"/>
<path d="M45.3611 82.4502H37.8711V89.9402H45.3611V82.4502Z" fill="#E7DACE"/>
<path d="M45.3611 75.04H37.8711V82.45H45.3611V75.04Z" fill="#E7DACE"/>
<path d="M45.3611 67.5503H37.8711V75.0403H45.3611V67.5503Z" fill="black"/>
<path d="M45.3611 60.1401H37.8711V67.5501H45.3611V60.1401Z" fill="black"/>
<path d="M45.3611 52.6504H37.8711V60.1404H45.3611V52.6504Z" fill="black"/>
<path d="M37.8709 119.74H30.4609V127.23H37.8709V119.74Z" fill="black"/>
<path d="M37.8709 112.33H30.4609V119.74H37.8709V112.33Z" fill="#9087B5"/>
<path d="M37.8709 104.84H30.4609V112.33H37.8709V104.84Z" fill="#544B56"/>
<path d="M37.8709 97.3501H30.4609V104.84H37.8709V97.3501Z" fill="#E7DACE"/>
<path d="M37.8709 89.9404H30.4609V97.3504H37.8709V89.9404Z" fill="#E7DACE"/>
<path d="M37.8709 82.4502H30.4609V89.9402H37.8709V82.4502Z" fill="#E7DACE"/>
<path d="M37.8709 75.04H30.4609V82.45H37.8709V75.04Z" fill="#E7DACE"/>
<path d="M37.8709 67.5503H30.4609V75.0403H37.8709V67.5503Z" fill="#E7DACE"/>
<path d="M37.8709 60.1401H30.4609V67.5501H37.8709V60.1401Z" fill="#E7DACE"/>
<path d="M37.8709 52.6504H30.4609V60.1404H37.8709V52.6504Z" fill="#E7DACE"/>
<path d="M37.8709 45.1704H30.4609V52.6604H37.8709V45.1704Z" fill="black"/>
<path d="M37.8709 37.7603H30.4609V45.1703H37.8709V37.7603Z" fill="black"/>
<path d="M37.8709 30.27H30.4609V37.76H37.8709V30.27Z" fill="black"/>
<path d="M30.4607 119.74H22.9707V127.23H30.4607V119.74Z" fill="black"/>
<path d="M30.4607 112.33H22.9707V119.74H30.4607V112.33Z" fill="#E7DACE"/>
<path d="M30.4607 104.84H22.9707V112.33H30.4607V104.84Z" fill="black"/>
<path d="M30.4607 97.3501H22.9707V104.84H30.4607V97.3501Z" fill="black"/>
<path d="M30.4607 89.9404H22.9707V97.3504H30.4607V89.9404Z" fill="black"/>
<path d="M30.4607 82.4502H22.9707V89.9402H30.4607V82.4502Z" fill="black"/>
<path d="M30.4607 75.04H22.9707V82.45H30.4607V75.04Z" fill="#E7DACE"/>
<path d="M30.4607 67.5503H22.9707V75.0403H30.4607V67.5503Z" fill="#E7DACE"/>
<path d="M30.4607 60.1401H22.9707V67.5501H30.4607V60.1401Z" fill="#E7DACE"/>
<path d="M30.4607 52.6504H22.9707V60.1404H30.4607V52.6504Z" fill="#E7DACE"/>
<path d="M30.4607 45.1704H22.9707V52.6604H30.4607V45.1704Z" fill="#E7DACE"/>
<path d="M30.4607 37.7603H22.9707V45.1703H30.4607V37.7603Z" fill="#E7DACE"/>
<path d="M30.4607 30.27H22.9707V37.76H30.4607V30.27Z" fill="#E7DACE"/>
<path d="M30.4607 22.8604H22.9707V30.2703H30.4607V22.8604Z" fill="black"/>
<path d="M30.4607 15.3701H22.9707V22.8601H30.4607V15.3701Z" fill="black"/>
<path d="M22.9706 112.33H15.5605V119.74H22.9706V112.33Z" fill="black"/>
<path d="M22.9706 75.04H15.5605V82.45H22.9706V75.04Z" fill="black"/>
<path d="M22.9706 67.5503H15.5605V75.0403H22.9706V67.5503Z" fill="black"/>
<path d="M22.9706 60.1401H15.5605V67.5501H22.9706V60.1401Z" fill="black"/>
<path d="M22.9706 52.6504H15.5605V60.1404H22.9706V52.6504Z" fill="#E7DACE"/>
<path d="M22.9706 45.1704H15.5605V52.6604H22.9706V45.1704Z" fill="#E7DACE"/>
<path d="M22.9706 37.7603H15.5605V45.1703H22.9706V37.7603Z" fill="#E7DACE"/>
<path d="M22.9706 30.27H15.5605V37.76H22.9706V30.27Z" fill="#E7DACE"/>
<path d="M22.9706 22.8604H15.5605V30.2703H22.9706V22.8604Z" fill="#E7DACE"/>
<path d="M22.9706 15.3701H15.5605V22.8601H22.9706V15.3701Z" fill="#E7DACE"/>
<path d="M22.9706 7.96045H15.5605V15.3705H22.9706V7.96045Z" fill="black"/>
<path d="M15.5603 52.6504H8.07031V60.1404H15.5603V52.6504Z" fill="black"/>
<path d="M15.5603 45.1704H8.07031V52.6604H15.5603V45.1704Z" fill="black"/>
<path d="M15.5603 37.7603H8.07031V45.1703H15.5603V37.7603Z" fill="black"/>
<path d="M15.5603 30.27H8.07031V37.76H15.5603V30.27Z" fill="#E7DACE"/>
<path d="M15.5603 22.8604H8.07031V30.2703H15.5603V22.8604Z" fill="#E7DACE"/>
<path d="M15.5603 15.3701H8.07031V22.8601H15.5603V15.3701Z" fill="#E7DACE"/>
<path d="M15.5603 7.96045H8.07031V15.3705H15.5603V7.96045Z" fill="black"/>
<path d="M8.07015 30.27H0.660156V37.76H8.07015V30.27Z" fill="black"/>
<path d="M8.07015 22.8604H0.660156V30.2703H8.07015V22.8604Z" fill="black"/>
<path d="M8.07015 15.3701H0.660156V22.8601H8.07015V15.3701Z" fill="black"/>
</svg>
