<svg width="183" height="253" viewBox="0 0 183 253" fill="none" xmlns="http://www.w3.org/2000/svg">
<path d="M182.36 63.6797H175.42V70.6897H182.36V63.6797Z" fill="black"/>
<path d="M182.36 56.7397H175.42V63.6797H182.36V56.7397Z" fill="black"/>
<path d="M175.42 63.6797H168.41V70.6897H175.42V63.6797Z" fill="black"/>
<path d="M175.42 56.7397H168.41V63.6797H175.42V56.7397Z" fill="#0404BF"/>
<path d="M175.42 49.73H168.41V56.74H175.42V49.73Z" fill="black"/>
<path d="M168.4 63.6797H161.4V70.6897H168.4V63.6797Z" fill="black"/>
<path d="M168.4 56.7397H161.4V63.6797H168.4V56.7397Z" fill="#0404BF"/>
<path d="M168.4 49.73H161.4V56.74H168.4V49.73Z" fill="black"/>
<path d="M161.399 245.18H154.459V252.13H161.399V245.18Z" fill="black"/>
<path d="M161.399 238.18H154.459V245.18H161.399V238.18Z" fill="black"/>
<path d="M161.399 231.24H154.459V238.18H161.399V231.24Z" fill="black"/>
<path d="M161.399 224.22H154.459V231.23H161.399V224.22Z" fill="black"/>
<path d="M161.399 217.28H154.459V224.22H161.399V217.28Z" fill="black"/>
<path d="M161.399 168.42H154.459V175.36H161.399V168.42Z" fill="black"/>
<path d="M161.399 161.41H154.459V168.42H161.399V161.41Z" fill="black"/>
<path d="M161.399 154.4H154.459V161.4H161.399V154.4Z" fill="black"/>
<path d="M161.399 147.46H154.459V154.4H161.399V147.46Z" fill="black"/>
<path d="M161.399 140.45H154.459V147.46H161.399V140.45Z" fill="black"/>
<path d="M161.399 133.51H154.459V140.45H161.399V133.51Z" fill="black"/>
<path d="M161.399 126.49H154.459V133.5H161.399V126.49Z" fill="black"/>
<path d="M161.399 119.55H154.459V126.49H161.399V119.55Z" fill="black"/>
<path d="M161.399 112.54H154.459V119.55H161.399V112.54Z" fill="black"/>
<path d="M161.399 105.6H154.459V112.54H161.399V105.6Z" fill="black"/>
<path d="M161.399 98.5898H154.459V105.6H161.399V98.5898Z" fill="black"/>
<path d="M161.399 63.6797H154.459V70.6897H161.399V63.6797Z" fill="black"/>
<path d="M161.399 56.7397H154.459V63.6797H161.399V56.7397Z" fill="#0404BF"/>
<path d="M161.399 49.73H154.459V56.74H161.399V49.73Z" fill="#0404BF"/>
<path d="M161.399 42.7197H154.459V49.7297H161.399V42.7197Z" fill="black"/>
<path d="M154.459 245.18H147.449V252.13H154.459V245.18Z" fill="#030384"/>
<path d="M154.459 238.18H147.449V245.18H154.459V238.18Z" fill="#030384"/>
<path d="M154.459 231.24H147.449V238.18H154.459V231.24Z" fill="#030384"/>
<path d="M154.459 224.22H147.449V231.23H154.459V224.22Z" fill="#030384"/>
<path d="M154.459 217.28H147.449V224.22H154.459V217.28Z" fill="#030384"/>
<path d="M154.459 210.27H147.449V217.28H154.459V210.27Z" fill="black"/>
<path d="M154.459 203.27H147.449V210.27H154.459V203.27Z" fill="black"/>
<path d="M154.459 196.31H147.449V203.26H154.459V196.31Z" fill="black"/>
<path d="M154.459 189.32H147.449V196.32H154.459V189.32Z" fill="black"/>
<path d="M154.459 182.37H147.449V189.31H154.459V182.37Z" fill="black"/>
<path d="M154.459 175.36H147.449V182.37H154.459V175.36Z" fill="black"/>
<path d="M154.459 168.42H147.449V175.36H154.459V168.42Z" fill="#E5A070"/>
<path d="M154.459 161.41H147.449V168.42H154.459V161.41Z" fill="#0404BF"/>
<path d="M154.459 154.4H147.449V161.4H154.459V154.4Z" fill="#0404BF"/>
<path d="M154.459 147.46H147.449V154.4H154.459V147.46Z" fill="#0404BF"/>
<path d="M154.459 140.45H147.449V147.46H154.459V140.45Z" fill="#0404BF"/>
<path d="M154.459 133.51H147.449V140.45H154.459V133.51Z" fill="#0404BF"/>
<path d="M154.459 126.49H147.449V133.5H154.459V126.49Z" fill="#0404BF"/>
<path d="M154.459 119.55H147.449V126.49H154.459V119.55Z" fill="#0404BF"/>
<path d="M154.459 112.54H147.449V119.55H154.459V112.54Z" fill="#0404BF"/>
<path d="M154.459 105.6H147.449V112.54H154.459V105.6Z" fill="#0404BF"/>
<path d="M154.459 98.5898H147.449V105.6H154.459V98.5898Z" fill="#0404BF"/>
<path d="M154.459 91.5801H147.449V98.5901H154.459V91.5801Z" fill="black"/>
<path d="M154.459 77.6299H147.449V84.6399H154.459V77.6299Z" fill="black"/>
<path d="M154.459 70.6899H147.449V77.6299H154.459V70.6899Z" fill="black"/>
<path d="M154.459 63.6797H147.449V70.6897H154.459V63.6797Z" fill="black"/>
<path d="M154.459 56.7397H147.449V63.6797H154.459V56.7397Z" fill="#0404BF"/>
<path d="M154.459 49.73H147.449V56.74H154.459V49.73Z" fill="#0404BF"/>
<path d="M154.459 42.7197H147.449V49.7297H154.459V42.7197Z" fill="#030384"/>
<path d="M154.459 35.7798H147.449V42.7198H154.459V35.7798Z" fill="black"/>
<path d="M154.459 28.7598H147.449V35.7698H154.459V28.7598Z" fill="black"/>
<path d="M154.459 21.8198H147.449V28.7598H154.459V21.8198Z" fill="black"/>
<path d="M154.459 14.8101H147.449V21.8201H154.459V14.8101Z" fill="black"/>
<path d="M147.45 245.18H140.51V252.13H147.45V245.18Z" fill="#030384"/>
<path d="M147.45 238.18H140.51V245.18H147.45V238.18Z" fill="#030384"/>
<path d="M147.45 231.24H140.51V238.18H147.45V231.24Z" fill="#030384"/>
<path d="M147.45 224.22H140.51V231.23H147.45V224.22Z" fill="#030384"/>
<path d="M147.45 217.28H140.51V224.22H147.45V217.28Z" fill="#030384"/>
<path d="M147.45 210.27H140.51V217.28H147.45V210.27Z" fill="#030384"/>
<path d="M147.45 203.27H140.51V210.27H147.45V203.27Z" fill="#030384"/>
<path d="M147.45 196.31H140.51V203.26H147.45V196.31Z" fill="#030384"/>
<path d="M147.45 189.32H140.51V196.32H147.45V189.32Z" fill="#030384"/>
<path d="M147.45 182.37H140.51V189.31H147.45V182.37Z" fill="#030384"/>
<path d="M147.45 175.36H140.51V182.37H147.45V175.36Z" fill="#0707A5"/>
<path d="M147.45 168.42H140.51V175.36H147.45V168.42Z" fill="#EDB58C"/>
<path d="M147.45 161.41H140.51V168.42H147.45V161.41Z" fill="#0404BF"/>
<path d="M147.45 154.4H140.51V161.4H147.45V154.4Z" fill="#0404BF"/>
<path d="M147.45 147.46H140.51V154.4H147.45V147.46Z" fill="#0404BF"/>
<path d="M147.45 140.45H140.51V147.46H147.45V140.45Z" fill="#0404BF"/>
<path d="M147.45 133.51H140.51V140.45H147.45V133.51Z" fill="#0404BF"/>
<path d="M147.45 126.49H140.51V133.5H147.45V126.49Z" fill="#0404BF"/>
<path d="M147.45 119.55H140.51V126.49H147.45V119.55Z" fill="#0404BF"/>
<path d="M147.45 112.54H140.51V119.55H147.45V112.54Z" fill="#0404BF"/>
<path d="M147.45 105.6H140.51V112.54H147.45V105.6Z" fill="#0404BF"/>
<path d="M147.45 98.5898H140.51V105.6H147.45V98.5898Z" fill="#0404BF"/>
<path d="M147.45 91.5801H140.51V98.5901H147.45V91.5801Z" fill="black"/>
<path d="M147.45 84.6396H140.51V91.5797H147.45V84.6396Z" fill="black"/>
<path d="M147.45 77.6299H140.51V84.6399H147.45V77.6299Z" fill="#D8D7D6"/>
<path d="M147.45 70.6899H140.51V77.6299H147.45V70.6899Z" fill="#9E9B98"/>
<path d="M147.45 63.6797H140.51V70.6897H147.45V63.6797Z" fill="black"/>
<path d="M147.45 56.7397H140.51V63.6797H147.45V56.7397Z" fill="#030384"/>
<path d="M147.45 49.73H140.51V56.74H147.45V49.73Z" fill="#0404BF"/>
<path d="M147.45 42.7197H140.51V49.7297H147.45V42.7197Z" fill="#030384"/>
<path d="M147.45 35.7798H140.51V42.7198H147.45V35.7798Z" fill="black"/>
<path d="M147.45 28.7598H140.51V35.7698H147.45V28.7598Z" fill="#030384"/>
<path d="M147.45 21.8198H140.51V28.7598H147.45V21.8198Z" fill="#030384"/>
<path d="M147.45 14.8101H140.51V21.8201H147.45V14.8101Z" fill="#030384"/>
<path d="M147.45 7.86963H140.51V14.8096H147.45V7.86963Z" fill="black"/>
<path d="M140.5 245.18H133.49V252.13H140.5V245.18Z" fill="#0404BF"/>
<path d="M140.5 238.18H133.49V245.18H140.5V238.18Z" fill="#0404BF"/>
<path d="M140.5 231.24H133.49V238.18H140.5V231.24Z" fill="#0404BF"/>
<path d="M140.5 224.22H133.49V231.23H140.5V224.22Z" fill="#0404BF"/>
<path d="M140.5 217.28H133.49V224.22H140.5V217.28Z" fill="#0404BF"/>
<path d="M140.5 210.27H133.49V217.28H140.5V210.27Z" fill="#0404BF"/>
<path d="M140.5 203.27H133.49V210.27H140.5V203.27Z" fill="#0404BF"/>
<path d="M140.5 196.31H133.49V203.26H140.5V196.31Z" fill="#0404BF"/>
<path d="M140.5 189.32H133.49V196.32H140.5V189.32Z" fill="#0404BF"/>
<path d="M140.5 182.37H133.49V189.31H140.5V182.37Z" fill="#030384"/>
<path d="M140.5 175.36H133.49V182.37H140.5V175.36Z" fill="#0707A5"/>
<path d="M140.5 168.42H133.49V175.36H140.5V168.42Z" fill="#EDB58C"/>
<path d="M140.5 161.41H133.49V168.42H140.5V161.41Z" fill="#0404BF"/>
<path d="M140.5 154.4H133.49V161.4H140.5V154.4Z" fill="#0404BF"/>
<path d="M140.5 147.46H133.49V154.4H140.5V147.46Z" fill="#0404BF"/>
<path d="M140.5 140.45H133.49V147.46H140.5V140.45Z" fill="#0404BF"/>
<path d="M140.5 133.51H133.49V140.45H140.5V133.51Z" fill="#0404BF"/>
<path d="M140.5 126.49H133.49V133.5H140.5V126.49Z" fill="#0404BF"/>
<path d="M140.5 119.55H133.49V126.49H140.5V119.55Z" fill="#0404BF"/>
<path d="M140.5 112.54H133.49V119.55H140.5V112.54Z" fill="#0404BF"/>
<path d="M140.5 105.6H133.49V112.54H140.5V105.6Z" fill="#0404BF"/>
<path d="M140.5 98.5898H133.49V105.6H140.5V98.5898Z" fill="#030384"/>
<path d="M140.5 91.5801H133.49V98.5901H140.5V91.5801Z" fill="black"/>
<path d="M140.5 84.6396H133.49V91.5797H140.5V84.6396Z" fill="#D8D7D6"/>
<path d="M140.5 77.6299H133.49V84.6399H140.5V77.6299Z" fill="#D8D7D6"/>
<path d="M140.5 70.6899H133.49V77.6299H140.5V70.6899Z" fill="#D8D7D6"/>
<path d="M140.5 63.6797H133.49V70.6897H140.5V63.6797Z" fill="black"/>
<path d="M140.5 56.7397H133.49V63.6797H140.5V56.7397Z" fill="#030384"/>
<path d="M140.5 49.73H133.49V56.74H140.5V49.73Z" fill="#0404BF"/>
<path d="M140.5 42.7197H133.49V49.7297H140.5V42.7197Z" fill="#0404BF"/>
<path d="M140.5 35.7798H133.49V42.7198H140.5V35.7798Z" fill="#030384"/>
<path d="M140.5 28.7598H133.49V35.7698H140.5V28.7598Z" fill="#030384"/>
<path d="M140.5 21.8198H133.49V28.7598H140.5V21.8198Z" fill="#030384"/>
<path d="M140.5 14.8101H133.49V21.8201H140.5V14.8101Z" fill="#030384"/>
<path d="M140.5 7.86963H133.49V14.8096H140.5V7.86963Z" fill="#030384"/>
<path d="M140.5 0.859863H133.49V7.86987H140.5V0.859863Z" fill="black"/>
<path d="M133.491 245.18H126.551V252.13H133.491V245.18Z" fill="#0404BF"/>
<path d="M133.491 238.18H126.551V245.18H133.491V238.18Z" fill="#0404BF"/>
<path d="M133.491 231.24H126.551V238.18H133.491V231.24Z" fill="#0404BF"/>
<path d="M133.491 224.22H126.551V231.23H133.491V224.22Z" fill="#0404BF"/>
<path d="M133.491 217.28H126.551V224.22H133.491V217.28Z" fill="#0404BF"/>
<path d="M133.491 210.27H126.551V217.28H133.491V210.27Z" fill="#0404BF"/>
<path d="M133.491 203.27H126.551V210.27H133.491V203.27Z" fill="#0404BF"/>
<path d="M133.491 196.31H126.551V203.26H133.491V196.31Z" fill="#0404BF"/>
<path d="M133.491 189.32H126.551V196.32H133.491V189.32Z" fill="#0404BF"/>
<path d="M133.491 182.37H126.551V189.31H133.491V182.37Z" fill="#0404BF"/>
<path d="M133.491 175.36H126.551V182.37H133.491V175.36Z" fill="#030384"/>
<path d="M133.491 168.42H126.551V175.36H133.491V168.42Z" fill="#0707A5"/>
<path d="M133.491 161.41H126.551V168.42H133.491V161.41Z" fill="black"/>
<path d="M133.491 154.4H126.551V161.4H133.491V154.4Z" fill="black"/>
<path d="M133.491 147.46H126.551V154.4H133.491V147.46Z" fill="black"/>
<path d="M133.491 140.45H126.551V147.46H133.491V140.45Z" fill="black"/>
<path d="M133.491 133.51H126.551V140.45H133.491V133.51Z" fill="black"/>
<path d="M133.491 126.49H126.551V133.5H133.491V126.49Z" fill="black"/>
<path d="M133.491 119.55H126.551V126.49H133.491V119.55Z" fill="#0404BF"/>
<path d="M133.491 112.54H126.551V119.55H133.491V112.54Z" fill="#030384"/>
<path d="M133.491 105.6H126.551V112.54H133.491V105.6Z" fill="#030384"/>
<path d="M133.491 98.5898H126.551V105.6H133.491V98.5898Z" fill="black"/>
<path d="M133.491 91.5801H126.551V98.5901H133.491V91.5801Z" fill="#9E9B98"/>
<path d="M133.491 84.6396H126.551V91.5797H133.491V84.6396Z" fill="#9E9B98"/>
<path d="M133.491 77.6299H126.551V84.6399H133.491V77.6299Z" fill="#D8D7D6"/>
<path d="M133.491 70.6899H126.551V77.6299H133.491V70.6899Z" fill="#9E9B98"/>
<path d="M133.491 63.6797H126.551V70.6897H133.491V63.6797Z" fill="#9E9B98"/>
<path d="M133.491 56.7397H126.551V63.6797H133.491V56.7397Z" fill="black"/>
<path d="M133.491 49.73H126.551V56.74H133.491V49.73Z" fill="#0404BF"/>
<path d="M133.491 42.7197H126.551V49.7297H133.491V42.7197Z" fill="#0404BF"/>
<path d="M133.491 35.7798H126.551V42.7198H133.491V35.7798Z" fill="#030384"/>
<path d="M133.491 28.7598H126.551V35.7698H133.491V28.7598Z" fill="#030384"/>
<path d="M133.491 21.8198H126.551V28.7598H133.491V21.8198Z" fill="#030384"/>
<path d="M133.491 14.8101H126.551V21.8201H133.491V14.8101Z" fill="#030384"/>
<path d="M133.491 7.86963H126.551V14.8096H133.491V7.86963Z" fill="#030384"/>
<path d="M133.491 0.859863H126.551V7.86987H133.491V0.859863Z" fill="black"/>
<path d="M126.549 245.18H119.539V252.13H126.549V245.18Z" fill="#0404BF"/>
<path d="M126.549 238.18H119.539V245.18H126.549V238.18Z" fill="#0404BF"/>
<path d="M126.549 231.24H119.539V238.18H126.549V231.24Z" fill="#0404BF"/>
<path d="M126.549 224.22H119.539V231.23H126.549V224.22Z" fill="#0404BF"/>
<path d="M126.549 217.28H119.539V224.22H126.549V217.28Z" fill="#0404BF"/>
<path d="M126.549 210.27H119.539V217.28H126.549V210.27Z" fill="#0404BF"/>
<path d="M126.549 203.27H119.539V210.27H126.549V203.27Z" fill="#0404BF"/>
<path d="M126.549 196.31H119.539V203.26H126.549V196.31Z" fill="#0404BF"/>
<path d="M126.549 189.32H119.539V196.32H126.549V189.32Z" fill="#0404BF"/>
<path d="M126.549 182.37H119.539V189.31H126.549V182.37Z" fill="#0404BF"/>
<path d="M126.549 175.36H119.539V182.37H126.549V175.36Z" fill="#0404BF"/>
<path d="M126.549 168.42H119.539V175.36H126.549V168.42Z" fill="#030384"/>
<path d="M126.549 161.41H119.539V168.42H126.549V161.41Z" fill="#D6B409"/>
<path d="M126.549 154.4H119.539V161.4H126.549V154.4Z" fill="#0404BF"/>
<path d="M126.549 147.46H119.539V154.4H126.549V147.46Z" fill="#0404BF"/>
<path d="M126.549 140.45H119.539V147.46H126.549V140.45Z" fill="#0404BF"/>
<path d="M126.549 133.51H119.539V140.45H126.549V133.51Z" fill="#0404BF"/>
<path d="M126.549 126.49H119.539V133.5H126.549V126.49Z" fill="#0404BF"/>
<path d="M126.549 119.55H119.539V126.49H126.549V119.55Z" fill="#0404BF"/>
<path d="M126.549 112.54H119.539V119.55H126.549V112.54Z" fill="#030384"/>
<path d="M126.549 105.6H119.539V112.54H126.549V105.6Z" fill="black"/>
<path d="M126.549 98.5898H119.539V105.6H126.549V98.5898Z" fill="#D8D7D6"/>
<path d="M126.549 91.5801H119.539V98.5901H126.549V91.5801Z" fill="#D8D7D6"/>
<path d="M126.549 84.6396H119.539V91.5797H126.549V84.6396Z" fill="#D8D7D6"/>
<path d="M126.549 77.6299H119.539V84.6399H126.549V77.6299Z" fill="#9E9B98"/>
<path d="M126.549 70.6899H119.539V77.6299H126.549V70.6899Z" fill="#EFB589"/>
<path d="M126.549 63.6797H119.539V70.6897H126.549V63.6797Z" fill="#EFB589"/>
<path d="M126.549 56.7397H119.539V63.6797H126.549V56.7397Z" fill="black"/>
<path d="M126.549 49.73H119.539V56.74H126.549V49.73Z" fill="#0404BF"/>
<path d="M126.549 42.7197H119.539V49.7297H126.549V42.7197Z" fill="#0404BF"/>
<path d="M126.549 35.7798H119.539V42.7198H126.549V35.7798Z" fill="#0404BF"/>
<path d="M126.549 28.7598H119.539V35.7698H126.549V28.7598Z" fill="#030384"/>
<path d="M126.549 21.8198H119.539V28.7598H126.549V21.8198Z" fill="#030384"/>
<path d="M126.549 14.8101H119.539V21.8201H126.549V14.8101Z" fill="#030384"/>
<path d="M126.549 7.86963H119.539V14.8096H126.549V7.86963Z" fill="#030384"/>
<path d="M126.549 0.859863H119.539V7.86987H126.549V0.859863Z" fill="black"/>
<path d="M119.54 245.18H112.6V252.13H119.54V245.18Z" fill="#0404BF"/>
<path d="M119.54 238.18H112.6V245.18H119.54V238.18Z" fill="#0404BF"/>
<path d="M119.54 231.24H112.6V238.18H119.54V231.24Z" fill="#0404BF"/>
<path d="M119.54 224.22H112.6V231.23H119.54V224.22Z" fill="#0404BF"/>
<path d="M119.54 217.28H112.6V224.22H119.54V217.28Z" fill="#0404BF"/>
<path d="M119.54 210.27H112.6V217.28H119.54V210.27Z" fill="#0404BF"/>
<path d="M119.54 203.27H112.6V210.27H119.54V203.27Z" fill="#0404BF"/>
<path d="M119.54 196.31H112.6V203.26H119.54V196.31Z" fill="#0404BF"/>
<path d="M119.54 189.32H112.6V196.32H119.54V189.32Z" fill="#0404BF"/>
<path d="M119.54 182.37H112.6V189.31H119.54V182.37Z" fill="#0404BF"/>
<path d="M119.54 175.36H112.6V182.37H119.54V175.36Z" fill="#0404BF"/>
<path d="M119.54 168.42H112.6V175.36H119.54V168.42Z" fill="#0404BF"/>
<path d="M119.54 161.41H112.6V168.42H119.54V161.41Z" fill="#F9C126"/>
<path d="M119.54 154.4H112.6V161.4H119.54V154.4Z" fill="#0404BF"/>
<path d="M119.54 147.46H112.6V154.4H119.54V147.46Z" fill="#0404BF"/>
<path d="M119.54 140.45H112.6V147.46H119.54V140.45Z" fill="#0404BF"/>
<path d="M119.54 133.51H112.6V140.45H119.54V133.51Z" fill="#0404BF"/>
<path d="M119.54 126.49H112.6V133.5H119.54V126.49Z" fill="#0404BF"/>
<path d="M119.54 119.55H112.6V126.49H119.54V119.55Z" fill="black"/>
<path d="M119.54 112.54H112.6V119.55H119.54V112.54Z" fill="black"/>
<path d="M119.54 105.6H112.6V112.54H119.54V105.6Z" fill="#9E9B98"/>
<path d="M119.54 98.5898H112.6V105.6H119.54V98.5898Z" fill="#D8D7D6"/>
<path d="M119.54 91.5801H112.6V98.5901H119.54V91.5801Z" fill="#D8D7D6"/>
<path d="M119.54 84.6396H112.6V91.5797H119.54V84.6396Z" fill="#9E9B98"/>
<path d="M119.54 77.6299H112.6V84.6399H119.54V77.6299Z" fill="#EFB589"/>
<path d="M119.54 70.6899H112.6V77.6299H119.54V70.6899Z" fill="#EFB589"/>
<path d="M119.54 63.6797H112.6V70.6897H119.54V63.6797Z" fill="#EFB589"/>
<path d="M119.54 56.7397H112.6V63.6797H119.54V56.7397Z" fill="black"/>
<path d="M119.54 49.73H112.6V56.74H119.54V49.73Z" fill="#0404BF"/>
<path d="M119.54 42.7197H112.6V49.7297H119.54V42.7197Z" fill="#0404BF"/>
<path d="M119.54 35.7798H112.6V42.7198H119.54V35.7798Z" fill="#0404BF"/>
<path d="M119.54 28.7598H112.6V35.7698H119.54V28.7598Z" fill="#030384"/>
<path d="M119.54 21.8198H112.6V28.7598H119.54V21.8198Z" fill="#030384"/>
<path d="M119.54 14.8101H112.6V21.8201H119.54V14.8101Z" fill="#030384"/>
<path d="M119.54 7.86963H112.6V14.8096H119.54V7.86963Z" fill="black"/>
<path d="M112.6 245.18H105.59V252.13H112.6V245.18Z" fill="#0404BF"/>
<path d="M112.6 238.18H105.59V245.18H112.6V238.18Z" fill="#0404BF"/>
<path d="M112.6 231.24H105.59V238.18H112.6V231.24Z" fill="#0404BF"/>
<path d="M112.6 224.22H105.59V231.23H112.6V224.22Z" fill="#0404BF"/>
<path d="M112.6 217.28H105.59V224.22H112.6V217.28Z" fill="#0404BF"/>
<path d="M112.6 210.27H105.59V217.28H112.6V210.27Z" fill="#0404BF"/>
<path d="M112.6 203.27H105.59V210.27H112.6V203.27Z" fill="#0404BF"/>
<path d="M112.6 196.31H105.59V203.26H112.6V196.31Z" fill="#0404BF"/>
<path d="M112.6 189.32H105.59V196.32H112.6V189.32Z" fill="#0404BF"/>
<path d="M112.6 182.37H105.59V189.31H112.6V182.37Z" fill="#0404BF"/>
<path d="M112.6 175.36H105.59V182.37H112.6V175.36Z" fill="#0404BF"/>
<path d="M112.6 168.42H105.59V175.36H112.6V168.42Z" fill="#0404BF"/>
<path d="M112.6 161.41H105.59V168.42H112.6V161.41Z" fill="#F9C126"/>
<path d="M112.6 154.4H105.59V161.4H112.6V154.4Z" fill="#0404BF"/>
<path d="M112.6 147.46H105.59V154.4H112.6V147.46Z" fill="#0404BF"/>
<path d="M112.6 140.45H105.59V147.46H112.6V140.45Z" fill="#0404BF"/>
<path d="M112.6 133.51H105.59V140.45H112.6V133.51Z" fill="#0404BF"/>
<path d="M112.6 126.49H105.59V133.5H112.6V126.49Z" fill="black"/>
<path d="M112.6 119.55H105.59V126.49H112.6V119.55Z" fill="#9E9B98"/>
<path d="M112.6 112.54H105.59V119.55H112.6V112.54Z" fill="#D8D7D6"/>
<path d="M112.6 105.6H105.59V112.54H112.6V105.6Z" fill="#D8D7D6"/>
<path d="M112.6 98.5898H105.59V105.6H112.6V98.5898Z" fill="#D8D7D6"/>
<path d="M112.6 91.5801H105.59V98.5901H112.6V91.5801Z" fill="#D8D7D6"/>
<path d="M112.6 84.6396H105.59V91.5797H112.6V84.6396Z" fill="#D8D7D6"/>
<path d="M112.6 77.6299H105.59V84.6399H112.6V77.6299Z" fill="#9E9B98"/>
<path d="M112.6 70.6899H105.59V77.6299H112.6V70.6899Z" fill="#D8D7D6"/>
<path d="M112.6 63.6797H105.59V70.6897H112.6V63.6797Z" fill="#EFB589"/>
<path d="M112.6 56.7397H105.59V63.6797H112.6V56.7397Z" fill="black"/>
<path d="M112.6 49.73H105.59V56.74H112.6V49.73Z" fill="#0404BF"/>
<path d="M112.6 42.7197H105.59V49.7297H112.6V42.7197Z" fill="#0404BF"/>
<path d="M112.6 35.7798H105.59V42.7198H112.6V35.7798Z" fill="#0404BF"/>
<path d="M112.6 28.7598H105.59V35.7698H112.6V28.7598Z" fill="#030384"/>
<path d="M112.6 21.8198H105.59V28.7598H112.6V21.8198Z" fill="#030384"/>
<path d="M112.6 14.8101H105.59V21.8201H112.6V14.8101Z" fill="black"/>
<path d="M105.59 245.18H98.5801V252.13H105.59V245.18Z" fill="#0404BF"/>
<path d="M105.59 238.18H98.5801V245.18H105.59V238.18Z" fill="#0404BF"/>
<path d="M105.59 231.24H98.5801V238.18H105.59V231.24Z" fill="#0404BF"/>
<path d="M105.59 224.22H98.5801V231.23H105.59V224.22Z" fill="#0404BF"/>
<path d="M105.59 217.28H98.5801V224.22H105.59V217.28Z" fill="#0404BF"/>
<path d="M105.59 210.27H98.5801V217.28H105.59V210.27Z" fill="#0404BF"/>
<path d="M105.59 203.27H98.5801V210.27H105.59V203.27Z" fill="#0404BF"/>
<path d="M105.59 196.31H98.5801V203.26H105.59V196.31Z" fill="#0404BF"/>
<path d="M105.59 189.32H98.5801V196.32H105.59V189.32Z" fill="#0404BF"/>
<path d="M105.59 182.37H98.5801V189.31H105.59V182.37Z" fill="#0404BF"/>
<path d="M105.59 175.36H98.5801V182.37H105.59V175.36Z" fill="#0404BF"/>
<path d="M105.59 168.42H98.5801V175.36H105.59V168.42Z" fill="#0404BF"/>
<path d="M105.59 161.41H98.5801V168.42H105.59V161.41Z" fill="#F9C126"/>
<path d="M105.59 154.4H98.5801V161.4H105.59V154.4Z" fill="#0404BF"/>
<path d="M105.59 147.46H98.5801V154.4H105.59V147.46Z" fill="#0404BF"/>
<path d="M105.59 140.45H98.5801V147.46H105.59V140.45Z" fill="#0404BF"/>
<path d="M105.59 133.51H98.5801V140.45H105.59V133.51Z" fill="#0404BF"/>
<path d="M105.59 126.49H98.5801V133.5H105.59V126.49Z" fill="#0404BF"/>
<path d="M105.59 119.55H98.5801V126.49H105.59V119.55Z" fill="black"/>
<path d="M105.59 112.54H98.5801V119.55H105.59V112.54Z" fill="#D8D7D6"/>
<path d="M105.59 105.6H98.5801V112.54H105.59V105.6Z" fill="#D8D7D6"/>
<path d="M105.59 98.5898H98.5801V105.6H105.59V98.5898Z" fill="#D8D7D6"/>
<path d="M105.59 91.5801H98.5801V98.5901H105.59V91.5801Z" fill="#D8D7D6"/>
<path d="M105.59 84.6396H98.5801V91.5797H105.59V84.6396Z" fill="#D8D7D6"/>
<path d="M105.59 77.6299H98.5801V84.6399H105.59V77.6299Z" fill="#9E9B98"/>
<path d="M105.59 70.6899H98.5801V77.6299H105.59V70.6899Z" fill="#D8D7D6"/>
<path d="M105.59 63.6797H98.5801V70.6897H105.59V63.6797Z" fill="#EFB589"/>
<path d="M105.59 56.7397H98.5801V63.6797H105.59V56.7397Z" fill="black"/>
<path d="M105.59 49.73H98.5801V56.74H105.59V49.73Z" fill="#0404BF"/>
<path d="M105.59 42.7197H98.5801V49.7297H105.59V42.7197Z" fill="#0404BF"/>
<path d="M105.59 35.7798H98.5801V42.7198H105.59V35.7798Z" fill="#0404BF"/>
<path d="M105.59 28.7598H98.5801V35.7698H105.59V28.7598Z" fill="#0404BF"/>
<path d="M105.59 21.8198H98.5801V28.7598H105.59V21.8198Z" fill="black"/>
<path d="M98.5806 245.18H91.6406V252.13H98.5806V245.18Z" fill="#0404BF"/>
<path d="M98.5806 238.18H91.6406V245.18H98.5806V238.18Z" fill="#0404BF"/>
<path d="M98.5806 231.24H91.6406V238.18H98.5806V231.24Z" fill="#0404BF"/>
<path d="M98.5806 224.22H91.6406V231.23H98.5806V224.22Z" fill="#0404BF"/>
<path d="M98.5806 217.28H91.6406V224.22H98.5806V217.28Z" fill="#0404BF"/>
<path d="M98.5806 210.27H91.6406V217.28H98.5806V210.27Z" fill="#0404BF"/>
<path d="M98.5806 203.27H91.6406V210.27H98.5806V203.27Z" fill="#0404BF"/>
<path d="M98.5806 196.31H91.6406V203.26H98.5806V196.31Z" fill="#0404BF"/>
<path d="M98.5806 189.32H91.6406V196.32H98.5806V189.32Z" fill="#0404BF"/>
<path d="M98.5806 182.37H91.6406V189.31H98.5806V182.37Z" fill="#0404BF"/>
<path d="M98.5806 175.36H91.6406V182.37H98.5806V175.36Z" fill="#0404BF"/>
<path d="M98.5806 168.42H91.6406V175.36H98.5806V168.42Z" fill="#0404BF"/>
<path d="M98.5806 161.41H91.6406V168.42H98.5806V161.41Z" fill="#F9C126"/>
<path d="M98.5806 154.4H91.6406V161.4H98.5806V154.4Z" fill="#0404BF"/>
<path d="M98.5806 147.46H91.6406V154.4H98.5806V147.46Z" fill="#0404BF"/>
<path d="M98.5806 140.45H91.6406V147.46H98.5806V140.45Z" fill="#0404BF"/>
<path d="M98.5806 133.51H91.6406V140.45H98.5806V133.51Z" fill="#0404BF"/>
<path d="M98.5806 126.49H91.6406V133.5H98.5806V126.49Z" fill="#0404BF"/>
<path d="M98.5806 119.55H91.6406V126.49H98.5806V119.55Z" fill="#0404BF"/>
<path d="M98.5806 112.54H91.6406V119.55H98.5806V112.54Z" fill="black"/>
<path d="M98.5806 105.6H91.6406V112.54H98.5806V105.6Z" fill="#D8D7D6"/>
<path d="M98.5806 98.5898H91.6406V105.6H98.5806V98.5898Z" fill="#D8D7D6"/>
<path d="M98.5806 91.5801H91.6406V98.5901H98.5806V91.5801Z" fill="#D8D7D6"/>
<path d="M98.5806 84.6396H91.6406V91.5797H98.5806V84.6396Z" fill="#D8D7D6"/>
<path d="M98.5806 77.6299H91.6406V84.6399H98.5806V77.6299Z" fill="#9E9B98"/>
<path d="M98.5806 70.6899H91.6406V77.6299H98.5806V70.6899Z" fill="#D8D7D6"/>
<path d="M98.5806 63.6797H91.6406V70.6897H98.5806V63.6797Z" fill="#EFB589"/>
<path d="M98.5806 56.7397H91.6406V63.6797H98.5806V56.7397Z" fill="black"/>
<path d="M98.5806 49.73H91.6406V56.74H98.5806V49.73Z" fill="#0404BF"/>
<path d="M98.5806 42.7197H91.6406V49.7297H98.5806V42.7197Z" fill="#0404BF"/>
<path d="M98.5806 35.7798H91.6406V42.7198H98.5806V35.7798Z" fill="black"/>
<path d="M98.5806 28.7598H91.6406V35.7698H98.5806V28.7598Z" fill="black"/>
<path d="M91.6409 245.18H84.6309V252.13H91.6409V245.18Z" fill="#0404BF"/>
<path d="M91.6409 238.18H84.6309V245.18H91.6409V238.18Z" fill="#0404BF"/>
<path d="M91.6409 231.24H84.6309V238.18H91.6409V231.24Z" fill="#0404BF"/>
<path d="M91.6409 224.22H84.6309V231.23H91.6409V224.22Z" fill="#0404BF"/>
<path d="M91.6409 217.28H84.6309V224.22H91.6409V217.28Z" fill="#0404BF"/>
<path d="M91.6409 210.27H84.6309V217.28H91.6409V210.27Z" fill="#0404BF"/>
<path d="M91.6409 203.27H84.6309V210.27H91.6409V203.27Z" fill="#0404BF"/>
<path d="M91.6409 196.31H84.6309V203.26H91.6409V196.31Z" fill="#0404BF"/>
<path d="M91.6409 189.32H84.6309V196.32H91.6409V189.32Z" fill="#0404BF"/>
<path d="M91.6409 182.37H84.6309V189.31H91.6409V182.37Z" fill="#030384"/>
<path d="M91.6409 175.36H84.6309V182.37H91.6409V175.36Z" fill="black"/>
<path d="M91.6409 168.42H84.6309V175.36H91.6409V168.42Z" fill="black"/>
<path d="M91.6409 161.41H84.6309V168.42H91.6409V161.41Z" fill="black"/>
<path d="M91.6409 154.4H84.6309V161.4H91.6409V154.4Z" fill="black"/>
<path d="M91.6409 147.46H84.6309V154.4H91.6409V147.46Z" fill="black"/>
<path d="M91.6409 140.45H84.6309V147.46H91.6409V140.45Z" fill="black"/>
<path d="M91.6409 133.51H84.6309V140.45H91.6409V133.51Z" fill="black"/>
<path d="M91.6409 126.49H84.6309V133.5H91.6409V126.49Z" fill="black"/>
<path d="M91.6409 119.55H84.6309V126.49H91.6409V119.55Z" fill="black"/>
<path d="M91.6409 112.54H84.6309V119.55H91.6409V112.54Z" fill="black"/>
<path d="M91.6409 105.6H84.6309V112.54H91.6409V105.6Z" fill="black"/>
<path d="M91.6409 98.5898H84.6309V105.6H91.6409V98.5898Z" fill="#9E9B98"/>
<path d="M91.6409 91.5801H84.6309V98.5901H91.6409V91.5801Z" fill="#9E9B98"/>
<path d="M91.6409 84.6396H84.6309V91.5797H91.6409V84.6396Z" fill="black"/>
<path d="M91.6409 77.6299H84.6309V84.6399H91.6409V77.6299Z" fill="black"/>
<path d="M91.6409 70.6899H84.6309V77.6299H91.6409V70.6899Z" fill="black"/>
<path d="M91.6409 63.6797H84.6309V70.6897H91.6409V63.6797Z" fill="black"/>
<path d="M91.6409 56.7397H84.6309V63.6797H91.6409V56.7397Z" fill="#030384"/>
<path d="M91.6409 49.73H84.6309V56.74H91.6409V49.73Z" fill="#0404BF"/>
<path d="M91.6409 42.7197H84.6309V49.7297H91.6409V42.7197Z" fill="#0404BF"/>
<path d="M91.6409 35.7798H84.6309V42.7198H91.6409V35.7798Z" fill="black"/>
<path d="M84.6295 245.18H77.6895V252.13H84.6295V245.18Z" fill="black"/>
<path d="M84.6295 238.18H77.6895V245.18H84.6295V238.18Z" fill="black"/>
<path d="M84.6295 231.24H77.6895V238.18H84.6295V231.24Z" fill="black"/>
<path d="M84.6295 224.22H77.6895V231.23H84.6295V224.22Z" fill="black"/>
<path d="M84.6295 217.28H77.6895V224.22H84.6295V217.28Z" fill="black"/>
<path d="M84.6295 210.27H77.6895V217.28H84.6295V210.27Z" fill="black"/>
<path d="M84.6295 203.27H77.6895V210.27H84.6295V203.27Z" fill="black"/>
<path d="M84.6295 196.31H77.6895V203.26H84.6295V196.31Z" fill="black"/>
<path d="M84.6295 189.32H77.6895V196.32H84.6295V189.32Z" fill="black"/>
<path d="M84.6295 182.37H77.6895V189.31H84.6295V182.37Z" fill="black"/>
<path d="M84.6295 147.46H77.6895V154.4H84.6295V147.46Z" fill="black"/>
<path d="M84.6295 140.45H77.6895V147.46H84.6295V140.45Z" fill="#030384"/>
<path d="M84.6295 133.51H77.6895V140.45H84.6295V133.51Z" fill="#030384"/>
<path d="M84.6295 126.49H77.6895V133.5H84.6295V126.49Z" fill="#030384"/>
<path d="M84.6295 119.55H77.6895V126.49H84.6295V119.55Z" fill="black"/>
<path d="M84.6295 98.5898H77.6895V105.6H84.6295V98.5898Z" fill="black"/>
<path d="M84.6295 91.5801H77.6895V98.5901H84.6295V91.5801Z" fill="black"/>
<path d="M84.6295 63.6797H77.6895V70.6897H84.6295V63.6797Z" fill="black"/>
<path d="M84.6295 56.7397H77.6895V63.6797H84.6295V56.7397Z" fill="#030384"/>
<path d="M84.6295 49.73H77.6895V56.74H84.6295V49.73Z" fill="#0404BF"/>
<path d="M84.6295 42.7197H77.6895V49.7297H84.6295V42.7197Z" fill="black"/>
<path d="M77.6897 147.46H70.6797V154.4H77.6897V147.46Z" fill="black"/>
<path d="M77.6897 140.45H70.6797V147.46H77.6897V140.45Z" fill="#030384"/>
<path d="M77.6897 133.51H70.6797V140.45H77.6897V133.51Z" fill="#030384"/>
<path d="M77.6897 126.49H70.6797V133.5H77.6897V126.49Z" fill="#030384"/>
<path d="M77.6897 119.55H70.6797V126.49H77.6897V119.55Z" fill="black"/>
<path d="M77.6897 63.6797H70.6797V70.6897H77.6897V63.6797Z" fill="black"/>
<path d="M77.6897 56.7397H70.6797V63.6797H77.6897V56.7397Z" fill="#030384"/>
<path d="M77.6897 49.73H70.6797V56.74H77.6897V49.73Z" fill="black"/>
<path d="M70.6802 147.46H63.7402V154.4H70.6802V147.46Z" fill="black"/>
<path d="M70.6802 140.45H63.7402V147.46H70.6802V140.45Z" fill="#030384"/>
<path d="M70.6802 133.51H63.7402V140.45H70.6802V133.51Z" fill="#030384"/>
<path d="M70.6802 126.49H63.7402V133.5H70.6802V126.49Z" fill="#030384"/>
<path d="M70.6802 119.55H63.7402V126.49H70.6802V119.55Z" fill="black"/>
<path d="M70.6802 77.6299H63.7402V84.6399H70.6802V77.6299Z" fill="black"/>
<path d="M70.6802 70.6899H63.7402V77.6299H70.6802V70.6899Z" fill="black"/>
<path d="M70.6802 63.6797H63.7402V70.6897H70.6802V63.6797Z" fill="black"/>
<path d="M70.6802 56.7397H63.7402V63.6797H70.6802V56.7397Z" fill="#030384"/>
<path d="M70.6802 49.73H63.7402V56.74H70.6802V49.73Z" fill="black"/>
<path d="M63.7405 147.46H56.7305V154.4H63.7405V147.46Z" fill="black"/>
<path d="M63.7405 140.45H56.7305V147.46H63.7405V140.45Z" fill="black"/>
<path d="M63.7405 133.51H56.7305V140.45H63.7405V133.51Z" fill="black"/>
<path d="M63.7405 126.49H56.7305V133.5H63.7405V126.49Z" fill="black"/>
<path d="M63.7405 119.55H56.7305V126.49H63.7405V119.55Z" fill="black"/>
<path d="M63.7405 84.6396H56.7305V91.5797H63.7405V84.6396Z" fill="black"/>
<path d="M63.7405 77.6299H56.7305V84.6399H63.7405V77.6299Z" fill="#FCB029"/>
<path d="M63.7405 70.6899H56.7305V77.6299H63.7405V70.6899Z" fill="#FCB029"/>
<path d="M63.7405 63.6797H56.7305V70.6897H63.7405V63.6797Z" fill="black"/>
<path d="M63.7405 56.7397H56.7305V63.6797H63.7405V56.7397Z" fill="black"/>
<path d="M63.7405 49.73H56.7305V56.74H63.7405V49.73Z" fill="black"/>
<path d="M56.7307 140.45H49.7207V147.46H56.7307V140.45Z" fill="black"/>
<path d="M56.7307 133.51H49.7207V140.45H56.7307V133.51Z" fill="black"/>
<path d="M56.7307 126.49H49.7207V133.5H56.7307V126.49Z" fill="black"/>
<path d="M56.7307 119.55H49.7207V126.49H56.7307V119.55Z" fill="#EDB58C"/>
<path d="M56.7307 112.54H49.7207V119.55H56.7307V112.54Z" fill="black"/>
<path d="M56.7307 91.5801H49.7207V98.5901H56.7307V91.5801Z" fill="black"/>
<path d="M56.7307 84.6396H49.7207V91.5797H56.7307V84.6396Z" fill="#FCB029"/>
<path d="M56.7307 77.6299H49.7207V84.6399H56.7307V77.6299Z" fill="#FCB029"/>
<path d="M56.7307 70.6899H49.7207V77.6299H56.7307V70.6899Z" fill="#2BE1F9"/>
<path d="M56.7307 63.6797H49.7207V70.6897H56.7307V63.6797Z" fill="#2BE1F9"/>
<path d="M56.7307 56.7397H49.7207V63.6797H56.7307V56.7397Z" fill="#2BE1F9"/>
<path d="M49.7193 238.18H42.7793V245.18H49.7193V238.18Z" fill="black"/>
<path d="M49.7193 231.24H42.7793V238.18H49.7193V231.24Z" fill="black"/>
<path d="M49.7193 224.22H42.7793V231.23H49.7193V224.22Z" fill="black"/>
<path d="M49.7193 217.28H42.7793V224.22H49.7193V217.28Z" fill="black"/>
<path d="M49.7193 210.27H42.7793V217.28H49.7193V210.27Z" fill="black"/>
<path d="M49.7193 203.27H42.7793V210.27H49.7193V203.27Z" fill="black"/>
<path d="M49.7193 196.31H42.7793V203.26H49.7193V196.31Z" fill="black"/>
<path d="M49.7193 189.32H42.7793V196.32H49.7193V189.32Z" fill="black"/>
<path d="M49.7193 182.37H42.7793V189.31H49.7193V182.37Z" fill="black"/>
<path d="M49.7193 175.36H42.7793V182.37H49.7193V175.36Z" fill="black"/>
<path d="M49.7193 168.42H42.7793V175.36H49.7193V168.42Z" fill="black"/>
<path d="M49.7193 161.41H42.7793V168.42H49.7193V161.41Z" fill="black"/>
<path d="M49.7193 154.4H42.7793V161.4H49.7193V154.4Z" fill="black"/>
<path d="M49.7193 147.46H42.7793V154.4H49.7193V147.46Z" fill="black"/>
<path d="M49.7193 140.45H42.7793V147.46H49.7193V140.45Z" fill="black"/>
<path d="M49.7193 133.51H42.7793V140.45H49.7193V133.51Z" fill="black"/>
<path d="M49.7193 126.49H42.7793V133.5H49.7193V126.49Z" fill="#EDB58C"/>
<path d="M49.7193 119.55H42.7793V126.49H49.7193V119.55Z" fill="#EDB58C"/>
<path d="M49.7193 112.54H42.7793V119.55H49.7193V112.54Z" fill="black"/>
<path d="M49.7193 105.6H42.7793V112.54H49.7193V105.6Z" fill="black"/>
<path d="M49.7193 98.5898H42.7793V105.6H49.7193V98.5898Z" fill="black"/>
<path d="M49.7193 91.5801H42.7793V98.5901H49.7193V91.5801Z" fill="black"/>
<path d="M49.7193 84.6396H42.7793V91.5797H49.7193V84.6396Z" fill="black"/>
<path d="M49.7193 77.6299H42.7793V84.6399H49.7193V77.6299Z" fill="#2BE1F9"/>
<path d="M49.7193 70.6899H42.7793V77.6299H49.7193V70.6899Z" fill="#2BE1F9"/>
<path d="M49.7193 63.6797H42.7793V70.6897H49.7193V63.6797Z" fill="#2BE1F9"/>
<path d="M49.7193 56.7397H42.7793V63.6797H49.7193V56.7397Z" fill="#2BE1F9"/>
<path d="M49.7193 49.73H42.7793V56.74H49.7193V49.73Z" fill="#2BE1F9"/>
<path d="M42.7698 245.18H35.7598V252.13H42.7698V245.18Z" fill="black"/>
<path d="M42.7698 238.18H35.7598V245.18H42.7698V238.18Z" fill="#823D27"/>
<path d="M42.7698 231.24H35.7598V238.18H42.7698V231.24Z" fill="#823D27"/>
<path d="M42.7698 224.22H35.7598V231.23H42.7698V224.22Z" fill="#823D27"/>
<path d="M42.7698 217.28H35.7598V224.22H42.7698V217.28Z" fill="#823D27"/>
<path d="M42.7698 210.27H35.7598V217.28H42.7698V210.27Z" fill="#823D27"/>
<path d="M42.7698 203.27H35.7598V210.27H42.7698V203.27Z" fill="#823D27"/>
<path d="M42.7698 196.31H35.7598V203.26H42.7698V196.31Z" fill="#823D27"/>
<path d="M42.7698 189.32H35.7598V196.32H42.7698V189.32Z" fill="#823D27"/>
<path d="M42.7698 182.37H35.7598V189.31H42.7698V182.37Z" fill="#823D27"/>
<path d="M42.7698 175.36H35.7598V182.37H42.7698V175.36Z" fill="#823D27"/>
<path d="M42.7698 168.42H35.7598V175.36H42.7698V168.42Z" fill="#823D27"/>
<path d="M42.7698 161.41H35.7598V168.42H42.7698V161.41Z" fill="#823D27"/>
<path d="M42.7698 154.4H35.7598V161.4H42.7698V154.4Z" fill="#823D27"/>
<path d="M42.7698 147.46H35.7598V154.4H42.7698V147.46Z" fill="#823D27"/>
<path d="M42.7698 140.45H35.7598V147.46H42.7698V140.45Z" fill="#823D27"/>
<path d="M42.7698 133.51H35.7598V140.45H42.7698V133.51Z" fill="#823D27"/>
<path d="M42.7698 126.49H35.7598V133.5H42.7698V126.49Z" fill="black"/>
<path d="M42.7698 119.55H35.7598V126.49H42.7698V119.55Z" fill="#823D27"/>
<path d="M42.7698 112.54H35.7598V119.55H42.7698V112.54Z" fill="black"/>
<path d="M42.7698 105.6H35.7598V112.54H42.7698V105.6Z" fill="#823D27"/>
<path d="M42.7698 98.5898H35.7598V105.6H42.7698V98.5898Z" fill="#823D27"/>
<path d="M42.7698 91.5801H35.7598V98.5901H42.7698V91.5801Z" fill="#823D27"/>
<path d="M42.7698 84.6396H35.7598V91.5797H42.7698V84.6396Z" fill="#FCB029"/>
<path d="M42.7698 77.6299H35.7598V84.6399H42.7698V77.6299Z" fill="#FCB029"/>
<path d="M42.7698 70.6899H35.7598V77.6299H42.7698V70.6899Z" fill="#FCB029"/>
<path d="M42.7698 63.6797H35.7598V70.6897H42.7698V63.6797Z" fill="#2BE1F9"/>
<path d="M42.7698 56.7397H35.7598V63.6797H42.7698V56.7397Z" fill="#2BE1F9"/>
<path d="M42.7698 49.73H35.7598V56.74H42.7698V49.73Z" fill="#2BE1F9"/>
<path d="M42.7698 42.7197H35.7598V49.7297H42.7698V42.7197Z" fill="#2BE1F9"/>
<path d="M35.7603 238.18H28.8203V245.18H35.7603V238.18Z" fill="black"/>
<path d="M35.7603 231.24H28.8203V238.18H35.7603V231.24Z" fill="black"/>
<path d="M35.7603 224.22H28.8203V231.23H35.7603V224.22Z" fill="black"/>
<path d="M35.7603 217.28H28.8203V224.22H35.7603V217.28Z" fill="black"/>
<path d="M35.7603 210.27H28.8203V217.28H35.7603V210.27Z" fill="black"/>
<path d="M35.7603 203.27H28.8203V210.27H35.7603V203.27Z" fill="black"/>
<path d="M35.7603 196.31H28.8203V203.26H35.7603V196.31Z" fill="black"/>
<path d="M35.7603 189.32H28.8203V196.32H35.7603V189.32Z" fill="black"/>
<path d="M35.7603 182.37H28.8203V189.31H35.7603V182.37Z" fill="black"/>
<path d="M35.7603 175.36H28.8203V182.37H35.7603V175.36Z" fill="black"/>
<path d="M35.7603 168.42H28.8203V175.36H35.7603V168.42Z" fill="black"/>
<path d="M35.7603 161.41H28.8203V168.42H35.7603V161.41Z" fill="black"/>
<path d="M35.7603 154.4H28.8203V161.4H35.7603V154.4Z" fill="black"/>
<path d="M35.7603 147.46H28.8203V154.4H35.7603V147.46Z" fill="black"/>
<path d="M35.7603 140.45H28.8203V147.46H35.7603V140.45Z" fill="black"/>
<path d="M35.7603 133.51H28.8203V140.45H35.7603V133.51Z" fill="#EDB58C"/>
<path d="M35.7603 126.49H28.8203V133.5H35.7603V126.49Z" fill="#823D27"/>
<path d="M35.7603 119.55H28.8203V126.49H35.7603V119.55Z" fill="#EDB58C"/>
<path d="M35.7603 112.54H28.8203V119.55H35.7603V112.54Z" fill="black"/>
<path d="M35.7603 105.6H28.8203V112.54H35.7603V105.6Z" fill="black"/>
<path d="M35.7603 98.5898H28.8203V105.6H35.7603V98.5898Z" fill="black"/>
<path d="M35.7603 91.5801H28.8203V98.5901H35.7603V91.5801Z" fill="black"/>
<path d="M35.7603 84.6396H28.8203V91.5797H35.7603V84.6396Z" fill="#2BE1F9"/>
<path d="M35.7603 77.6299H28.8203V84.6399H35.7603V77.6299Z" fill="#2BE1F9"/>
<path d="M35.7603 70.6899H28.8203V77.6299H35.7603V70.6899Z" fill="#2BE1F9"/>
<path d="M35.7603 63.6797H28.8203V70.6897H35.7603V63.6797Z" fill="#2BE1F9"/>
<path d="M35.7603 56.7397H28.8203V63.6797H35.7603V56.7397Z" fill="#2BE1F9"/>
<path d="M35.7603 49.73H28.8203V56.74H35.7603V49.73Z" fill="#2BE1F9"/>
<path d="M35.7603 42.7197H28.8203V49.7297H35.7603V42.7197Z" fill="#2BE1F9"/>
<path d="M28.8206 140.45H21.8105V147.46H28.8206V140.45Z" fill="black"/>
<path d="M28.8206 133.51H21.8105V140.45H28.8206V133.51Z" fill="black"/>
<path d="M28.8206 126.49H21.8105V133.5H28.8206V126.49Z" fill="black"/>
<path d="M28.8206 119.55H21.8105V126.49H28.8206V119.55Z" fill="black"/>
<path d="M28.8206 112.54H21.8105V119.55H28.8206V112.54Z" fill="black"/>
<path d="M28.8206 91.5801H21.8105V98.5901H28.8206V91.5801Z" fill="black"/>
<path d="M28.8206 84.6396H21.8105V91.5797H28.8206V84.6396Z" fill="#FCB029"/>
<path d="M28.8206 77.6299H21.8105V84.6399H28.8206V77.6299Z" fill="#2BE1F9"/>
<path d="M28.8206 70.6899H21.8105V77.6299H28.8206V70.6899Z" fill="#2BE1F9"/>
<path d="M28.8206 63.6797H21.8105V70.6897H28.8206V63.6797Z" fill="#2BE1F9"/>
<path d="M28.8206 56.7397H21.8105V63.6797H28.8206V56.7397Z" fill="#2BE1F9"/>
<path d="M28.8206 49.73H21.8105V56.74H28.8206V49.73Z" fill="#2BE1F9"/>
<path d="M21.8091 91.5801H14.8691V98.5901H21.8091V91.5801Z" fill="black"/>
<path d="M21.8091 84.6396H14.8691V91.5797H21.8091V84.6396Z" fill="#FCB029"/>
<path d="M21.8091 77.6299H14.8691V84.6399H21.8091V77.6299Z" fill="#FCB029"/>
<path d="M21.8091 70.6899H14.8691V77.6299H21.8091V70.6899Z" fill="#2BE1F9"/>
<path d="M21.8091 63.6797H14.8691V70.6897H21.8091V63.6797Z" fill="#2BE1F9"/>
<path d="M21.8091 56.7397H14.8691V63.6797H21.8091V56.7397Z" fill="#2BE1F9"/>
<path d="M14.8694 84.6396H7.85938V91.5797H14.8694V84.6396Z" fill="black"/>
<path d="M14.8694 77.6299H7.85938V84.6399H14.8694V77.6299Z" fill="#FCB029"/>
<path d="M14.8694 70.6899H7.85938V77.6299H14.8694V70.6899Z" fill="#FCB029"/>
<path d="M7.85992 77.6299H0.919922V84.6399H7.85992V77.6299Z" fill="black"/>
<path d="M7.85992 70.6899H0.919922V77.6299H7.85992V70.6899Z" fill="black"/>
</svg>
